%TF.GenerationSoftware,KiCad,Pcbnew,5.1.9+dfsg1-1*%
%TF.CreationDate,2022-05-04T16:16:05+02:00*%
%TF.ProjectId,kria-k26-devboard,6b726961-2d6b-4323-962d-646576626f61,rev?*%
%TF.SameCoordinates,Original*%
%TF.FileFunction,Plated,1,8,PTH,Mixed*%
%TF.FilePolarity,Positive*%
%FSLAX46Y46*%
G04 Gerber Fmt 4.6, Leading zero omitted, Abs format (unit mm)*
G04 Created by KiCad (PCBNEW 5.1.9+dfsg1-1) date 2022-05-04 16:16:05 commit c608b4a*
%MOMM*%
%LPD*%
G01*
G04 APERTURE LIST*
%TA.AperFunction,ViaDrill*%
%ADD10C,0.100000*%
%TD*%
%TA.AperFunction,ViaDrill*%
%ADD11C,0.150000*%
%TD*%
%TA.AperFunction,ViaDrill*%
%ADD12C,0.250000*%
%TD*%
%TA.AperFunction,ViaDrill*%
%ADD13C,0.400000*%
%TD*%
G04 aperture for slot hole*
%TA.AperFunction,ComponentDrill*%
%ADD14C,0.600000*%
%TD*%
%TA.AperFunction,ComponentDrill*%
%ADD15C,0.700000*%
%TD*%
%TA.AperFunction,ComponentDrill*%
%ADD16C,0.889000*%
%TD*%
%TA.AperFunction,ComponentDrill*%
%ADD17C,1.000000*%
%TD*%
G04 aperture for slot hole*
%TA.AperFunction,ComponentDrill*%
%ADD18C,1.000000*%
%TD*%
%TA.AperFunction,ComponentDrill*%
%ADD19C,1.016000*%
%TD*%
%TA.AperFunction,ComponentDrill*%
%ADD20C,1.020000*%
%TD*%
%TA.AperFunction,ComponentDrill*%
%ADD21C,1.040000*%
%TD*%
%TA.AperFunction,ComponentDrill*%
%ADD22C,1.500000*%
%TD*%
%TA.AperFunction,ComponentDrill*%
%ADD23C,1.600000*%
%TD*%
%TA.AperFunction,ComponentDrill*%
%ADD24C,1.600200*%
%TD*%
%TA.AperFunction,ComponentDrill*%
%ADD25C,2.300000*%
%TD*%
%TA.AperFunction,ComponentDrill*%
%ADD26C,3.000000*%
%TD*%
%TA.AperFunction,ComponentDrill*%
%ADD27C,3.200000*%
%TD*%
%TA.AperFunction,ComponentDrill*%
%ADD28C,4.450000*%
%TD*%
G04 APERTURE END LIST*
D10*
X77800000Y-102310000D03*
X77800000Y-103700000D03*
X77950000Y-100867514D03*
X77950000Y-105110000D03*
X77950001Y-99477514D03*
X78030000Y-106570000D03*
X78130000Y-112730000D03*
X78150000Y-111400000D03*
X78200000Y-102705467D03*
X78200000Y-103301468D03*
X78350000Y-99872981D03*
X78350000Y-100468982D03*
X78350000Y-101298532D03*
X78350000Y-101894533D03*
X78350000Y-104098532D03*
X78350000Y-104694533D03*
X78425000Y-113206018D03*
X78425000Y-113801468D03*
X78550000Y-105505467D03*
X78550000Y-106101468D03*
X78600000Y-111798532D03*
X78600000Y-112394533D03*
X78660000Y-109920000D03*
X78749999Y-102290000D03*
X78750000Y-100900000D03*
X78780000Y-108550000D03*
X78824999Y-114197486D03*
X78850000Y-103700000D03*
X78875001Y-107177514D03*
X78920000Y-105030000D03*
X78920000Y-112870000D03*
X78975000Y-110405467D03*
X78975000Y-111001468D03*
X79125000Y-108998532D03*
X79125000Y-109594533D03*
X79275000Y-107572981D03*
X79275000Y-108168982D03*
X79374999Y-111397486D03*
X79524999Y-109990000D03*
X79590000Y-108640000D03*
X80175000Y-97750000D03*
X80200000Y-98750000D03*
X80700000Y-98250008D03*
X80700000Y-136000000D03*
X82300000Y-122400000D03*
X82325000Y-123025000D03*
X82350000Y-121100000D03*
X82350000Y-121750000D03*
X82500000Y-136000000D03*
X82575000Y-119050000D03*
X82575000Y-119750000D03*
X82575000Y-120300000D03*
X82900000Y-93600000D03*
X82900000Y-94200000D03*
X82900000Y-94800000D03*
X83000000Y-95700000D03*
X83080000Y-110260000D03*
X83090000Y-108760000D03*
X83150000Y-107250000D03*
X83160000Y-105750000D03*
X83200000Y-99175000D03*
X83254500Y-101650000D03*
X83600000Y-121100000D03*
X84030000Y-72725000D03*
X84150000Y-122800000D03*
X84150000Y-123850000D03*
X84200000Y-121900000D03*
X84500000Y-125350000D03*
X84632000Y-72725000D03*
X85100000Y-125800000D03*
X85154510Y-96070000D03*
X85160000Y-93340000D03*
X85160000Y-94250000D03*
X85160000Y-95170000D03*
X85178000Y-72725000D03*
X85250000Y-67150000D03*
X85780000Y-72721000D03*
X85800000Y-126450000D03*
X86000000Y-67825000D03*
X86000000Y-69799976D03*
X86100000Y-116900000D03*
X86100000Y-117800000D03*
X86100000Y-118700000D03*
X86100000Y-119600000D03*
X86190557Y-112251723D03*
X86230000Y-72700000D03*
X86500000Y-123700000D03*
X86550000Y-127100000D03*
X86750000Y-67200000D03*
X86750000Y-121850000D03*
X86832000Y-72700000D03*
X87000000Y-127699990D03*
X87378000Y-72700000D03*
X87980000Y-72696000D03*
X88140557Y-113601723D03*
X88250000Y-67200000D03*
X88400000Y-116900000D03*
X88400000Y-117500000D03*
X88499994Y-118700000D03*
X88500000Y-119449986D03*
X88738000Y-100477000D03*
X88738000Y-103017000D03*
X88738000Y-105557000D03*
X89200000Y-104300000D03*
X89300000Y-98275000D03*
X89300006Y-98900000D03*
X89320000Y-106826500D03*
X89340000Y-101745000D03*
X89350000Y-100473000D03*
X89350000Y-103013000D03*
X89350000Y-105553000D03*
X89400000Y-99525000D03*
X89441500Y-109359000D03*
X89441500Y-109994000D03*
X89441500Y-111264000D03*
X89441500Y-111899000D03*
X89441500Y-113169000D03*
X89441500Y-113804000D03*
X89441500Y-115074000D03*
X89441500Y-115702468D03*
X89441500Y-116979000D03*
X89441500Y-117614000D03*
X89441500Y-118884000D03*
X89441500Y-122694000D03*
X89441500Y-123320490D03*
X89441500Y-124599000D03*
X89441500Y-125234000D03*
X89441500Y-126504000D03*
X89441500Y-127139000D03*
X89441500Y-130314000D03*
X89441500Y-130949000D03*
X89441500Y-132219000D03*
X89441500Y-132854000D03*
X89441500Y-134124000D03*
X89441500Y-134759000D03*
X89441500Y-136029000D03*
X89441500Y-136664000D03*
X89698000Y-104287000D03*
X89698000Y-106827000D03*
X89750000Y-67200000D03*
X89800000Y-69500000D03*
X89925000Y-98275000D03*
X90225000Y-75325000D03*
X90250000Y-71400000D03*
X90299710Y-132227333D03*
X90300000Y-101750000D03*
X90300000Y-108100000D03*
X90300000Y-110005000D03*
X90300000Y-111270000D03*
X90300000Y-111910000D03*
X90300000Y-113815000D03*
X90300000Y-115080000D03*
X90300000Y-115702468D03*
X90300000Y-117625000D03*
X90300000Y-118890000D03*
X90300000Y-119530000D03*
X90300000Y-120795000D03*
X90300000Y-123320490D03*
X90300000Y-125245000D03*
X90300000Y-126510000D03*
X90300000Y-127150000D03*
X90300000Y-128415000D03*
X90300000Y-129055000D03*
X90300000Y-130320000D03*
X90300000Y-130960000D03*
X90300000Y-132865000D03*
X90300000Y-134130000D03*
X90300000Y-134770000D03*
X90300000Y-136029000D03*
X90300000Y-136664000D03*
X90306000Y-100483000D03*
X90306000Y-103023000D03*
X90306000Y-105563000D03*
X90310000Y-104283000D03*
X90310000Y-106823000D03*
X90320704Y-113195704D03*
X90343031Y-109396769D03*
X90375000Y-98570000D03*
X90375000Y-99195000D03*
X90500000Y-73250000D03*
X90700000Y-69500000D03*
X90700000Y-83700000D03*
X90900000Y-100476500D03*
X90900000Y-103016500D03*
X90900000Y-105556500D03*
X91000000Y-74850000D03*
X91171500Y-109373999D03*
X91171500Y-110009000D03*
X91171500Y-111278999D03*
X91171500Y-111914000D03*
X91171500Y-113183999D03*
X91171500Y-113819000D03*
X91171500Y-115088999D03*
X91171500Y-115724000D03*
X91171500Y-116993999D03*
X91171500Y-117629000D03*
X91171500Y-119534000D03*
X91171500Y-120803999D03*
X91171500Y-121439000D03*
X91171500Y-122708999D03*
X91171500Y-126518999D03*
X91171500Y-130328999D03*
X91171500Y-130964000D03*
X91171500Y-132233999D03*
X91171500Y-132869000D03*
X91171500Y-134138999D03*
X91171500Y-134774000D03*
X91175000Y-108075000D03*
X91182531Y-123329129D03*
X91266000Y-104293000D03*
X91266000Y-106833000D03*
X91278000Y-100477000D03*
X91278000Y-103017000D03*
X91278000Y-105557000D03*
X91300000Y-75700000D03*
X91400000Y-69500000D03*
X91454968Y-127147241D03*
X91490000Y-85700002D03*
X91540000Y-74980000D03*
X91550000Y-67750000D03*
X91860000Y-104286500D03*
X91860000Y-106826500D03*
X91880000Y-101745000D03*
X91890000Y-100473000D03*
X91890000Y-103013000D03*
X91890000Y-105553000D03*
X91900000Y-85050000D03*
X91900000Y-86100000D03*
X91900000Y-86700000D03*
X91900000Y-111181817D03*
X91900000Y-111940828D03*
X91975000Y-108074334D03*
X91981500Y-109359000D03*
X91981500Y-109994000D03*
X91981500Y-113804000D03*
X91981500Y-115074000D03*
X91981500Y-116979000D03*
X91981500Y-117614000D03*
X91981500Y-118884000D03*
X91981500Y-122694000D03*
X91981500Y-123320573D03*
X91981500Y-124599000D03*
X91981500Y-125234000D03*
X91981500Y-126504000D03*
X91981500Y-128409000D03*
X91981500Y-129044000D03*
X91981500Y-132219000D03*
X91981500Y-132854000D03*
X91981500Y-134124000D03*
X91981500Y-134759000D03*
X91981500Y-136029000D03*
X91981500Y-136664000D03*
X91982000Y-75325000D03*
X92238000Y-104287000D03*
X92238000Y-106827000D03*
X92250000Y-67200000D03*
X92375000Y-149300000D03*
X92528000Y-75325000D03*
X92800000Y-98600000D03*
X92800000Y-99225000D03*
X92840000Y-101750000D03*
X92840000Y-108100000D03*
X92840000Y-109365000D03*
X92840000Y-110005000D03*
X92840000Y-113175000D03*
X92840000Y-113815000D03*
X92840000Y-115714991D03*
X92840000Y-117625000D03*
X92840000Y-118890000D03*
X92840000Y-119530000D03*
X92840000Y-120795000D03*
X92840000Y-122700000D03*
X92840000Y-126510000D03*
X92840000Y-127150000D03*
X92840000Y-128415000D03*
X92840000Y-129055000D03*
X92840000Y-130320000D03*
X92840000Y-130960000D03*
X92840000Y-132225000D03*
X92840000Y-132865000D03*
X92840000Y-134130000D03*
X92840000Y-134770000D03*
X92840000Y-136029000D03*
X92846000Y-100483000D03*
X92846000Y-103023000D03*
X92846000Y-105563000D03*
X92850000Y-104283000D03*
X92850000Y-106823000D03*
X92852386Y-123338751D03*
X92854510Y-111910000D03*
X92863470Y-111293470D03*
X92875000Y-87950000D03*
X92960000Y-74980000D03*
X93250000Y-69400000D03*
X93250000Y-75700000D03*
X93300000Y-67250000D03*
X93309702Y-88343088D03*
X93400002Y-83630000D03*
X93440000Y-100476500D03*
X93440000Y-103016500D03*
X93450000Y-105556500D03*
X93480000Y-108096000D03*
X93500000Y-74850000D03*
X93710490Y-117629000D03*
X93710490Y-122708999D03*
X93710490Y-123344000D03*
X93711500Y-109373999D03*
X93711500Y-110009000D03*
X93711500Y-111279510D03*
X93711500Y-111914000D03*
X93711500Y-113183999D03*
X93711500Y-115088999D03*
X93711500Y-118908426D03*
X93711500Y-119534000D03*
X93711500Y-120803999D03*
X93711500Y-125249000D03*
X93711500Y-127154000D03*
X93711500Y-134138999D03*
X93711500Y-134774000D03*
X93715319Y-115718125D03*
X93720038Y-121427287D03*
X93750000Y-98000000D03*
X93750000Y-98600000D03*
X93750000Y-99225000D03*
X93800000Y-89200000D03*
X93806000Y-104293000D03*
X93806000Y-106833000D03*
X93818000Y-100477000D03*
X93818000Y-103017000D03*
X93890000Y-108096000D03*
X93948000Y-105537000D03*
X94050000Y-73250000D03*
X94100000Y-75500000D03*
X94150000Y-69450000D03*
X94300000Y-87900000D03*
X94400000Y-104286500D03*
X94400000Y-106826500D03*
X94490000Y-115714991D03*
X94500000Y-83700000D03*
X94550000Y-143650000D03*
X94575000Y-148075000D03*
X94650000Y-132150000D03*
X94650000Y-133150000D03*
X94700000Y-84600000D03*
X94975000Y-139850000D03*
X95454510Y-119000000D03*
X95475001Y-143575000D03*
X95550000Y-134600000D03*
X95550000Y-135850000D03*
X95700000Y-138150000D03*
X96000000Y-119550000D03*
X96094203Y-120763317D03*
X96100000Y-87300000D03*
X96150000Y-75500000D03*
X96150000Y-138150000D03*
X96195936Y-117572213D03*
X96200000Y-84500000D03*
X96224998Y-118400000D03*
X96225004Y-115825000D03*
X96250000Y-116400000D03*
X96299997Y-116975003D03*
X96300000Y-119000000D03*
X96450000Y-145850000D03*
X96450000Y-148150000D03*
X96575000Y-98000000D03*
X96600000Y-99000000D03*
X96700000Y-139400000D03*
X97375000Y-141025000D03*
X97640000Y-144740000D03*
X98025000Y-149300000D03*
X98025000Y-150900000D03*
X98175000Y-95025000D03*
X98250000Y-97250000D03*
X98300000Y-88700000D03*
X98300000Y-89700000D03*
X98600000Y-144700000D03*
X98982023Y-117570941D03*
X99400000Y-72150000D03*
X99600000Y-98500000D03*
X99600000Y-116225000D03*
X99925000Y-116700000D03*
X99976218Y-117785492D03*
X99999342Y-118350696D03*
X100121400Y-115883110D03*
X100125000Y-94100000D03*
X100300000Y-72150000D03*
X100332000Y-97843002D03*
X100464998Y-136050000D03*
X100487000Y-105697107D03*
X100490000Y-135200000D03*
X100515000Y-133500000D03*
X100515000Y-134350000D03*
X100650000Y-141900000D03*
X101118000Y-97843002D03*
X101273000Y-105697107D03*
X101650000Y-144200000D03*
X102810978Y-141900000D03*
X103150000Y-133300000D03*
X103150000Y-134600000D03*
X103150000Y-135800000D03*
X103900000Y-132490000D03*
X104150000Y-134950000D03*
X104250000Y-134150000D03*
X104300000Y-95700000D03*
X104399997Y-136800003D03*
X104400000Y-132500000D03*
X104400000Y-137374988D03*
X104424973Y-137949991D03*
X104900675Y-132501006D03*
X104950000Y-134950000D03*
X105000000Y-139950000D03*
X105000000Y-140925000D03*
X105050000Y-134150000D03*
X105075000Y-141875000D03*
X105525000Y-132400000D03*
X105590557Y-117251723D03*
X105625000Y-139825000D03*
X105625000Y-140400000D03*
X105625000Y-141000000D03*
X105900000Y-144570000D03*
X105950000Y-144000000D03*
X106175000Y-142225000D03*
X106371479Y-138970348D03*
X106400000Y-143775000D03*
X106419697Y-137950533D03*
X106475000Y-133375000D03*
X106490557Y-102551723D03*
X106600000Y-145525000D03*
X106900000Y-90600000D03*
X107010017Y-103714983D03*
X107200000Y-97950000D03*
X107250000Y-121925000D03*
X107328405Y-135422948D03*
X107350000Y-97275000D03*
X107444510Y-138890675D03*
X107500000Y-90600000D03*
X107544498Y-137530502D03*
X107575000Y-145550000D03*
X107687607Y-75611600D03*
X107687607Y-77001601D03*
X107990557Y-118651723D03*
X108000000Y-138900000D03*
X108050000Y-90600000D03*
X108087606Y-76007067D03*
X108087607Y-76603068D03*
X108174989Y-142757903D03*
X108175000Y-122750000D03*
X108300000Y-94650000D03*
X108300000Y-137500000D03*
X108300000Y-147200000D03*
X108351465Y-78037606D03*
X108375000Y-145550000D03*
X108624998Y-142240000D03*
X108650000Y-90600000D03*
X108650002Y-139000000D03*
X108746932Y-77637607D03*
X109125000Y-117650000D03*
X109300000Y-147200000D03*
X109342933Y-77637606D03*
X109350000Y-145525000D03*
X109400000Y-137100000D03*
X109450000Y-142075000D03*
X109595000Y-143470000D03*
X109683871Y-141286703D03*
X109741466Y-78037606D03*
X109779267Y-77006197D03*
X109835000Y-144290000D03*
X110100000Y-117700000D03*
X110177800Y-77406197D03*
X110300000Y-147200000D03*
X110374865Y-140141403D03*
X110375000Y-138950000D03*
X110383652Y-140691344D03*
X110383889Y-141349735D03*
X110389057Y-139550032D03*
X110400000Y-71650000D03*
X110425000Y-138100006D03*
X110500000Y-137500000D03*
X110750000Y-118325000D03*
X110773801Y-77406196D03*
X111000000Y-123325000D03*
X111025000Y-119250000D03*
X111077000Y-105734571D03*
X111100000Y-97050000D03*
X111103011Y-142900000D03*
X111130732Y-77835000D03*
X111156000Y-76989000D03*
X111300000Y-147200000D03*
X111500000Y-137500000D03*
X111526199Y-77418804D03*
X111863000Y-105734571D03*
X112000000Y-123550000D03*
X112050000Y-62750000D03*
X112085000Y-144165000D03*
X112100000Y-138954510D03*
X112122200Y-77418803D03*
X112125000Y-96025000D03*
X112300000Y-147200000D03*
X112520733Y-77818803D03*
X112600000Y-137100000D03*
X112725000Y-138900000D03*
X112775000Y-120175000D03*
X112891000Y-76592931D03*
X112912000Y-72576177D03*
X112950000Y-62750000D03*
X113100000Y-143475000D03*
X113180000Y-74094000D03*
X113189000Y-75791000D03*
X113285000Y-88285000D03*
X113290000Y-87450000D03*
X113300000Y-147200000D03*
X113320000Y-86559986D03*
X113350000Y-85430000D03*
X113450000Y-123375000D03*
X113487000Y-76592931D03*
X113508000Y-72576177D03*
X113525000Y-119325000D03*
X113850000Y-62750000D03*
X113875000Y-74175000D03*
X114027000Y-118889999D03*
X114027000Y-123710000D03*
X114175000Y-77700000D03*
X114300000Y-147200000D03*
X114320796Y-140070786D03*
X114326087Y-140653823D03*
X114332545Y-142392451D03*
X114345528Y-141228141D03*
X114399186Y-141842689D03*
X114450000Y-120900000D03*
X114450000Y-121600000D03*
X114507000Y-118350000D03*
X114507000Y-124000000D03*
X114875000Y-77725000D03*
X115293000Y-118350000D03*
X115293000Y-124000000D03*
X115300000Y-120900000D03*
X115300000Y-121600000D03*
X115300000Y-147200000D03*
X115425449Y-76546503D03*
X115440912Y-86936448D03*
X115444606Y-87801010D03*
X115455449Y-72527750D03*
X115485000Y-88865000D03*
X115501025Y-84548181D03*
X115506942Y-85424861D03*
X115723449Y-74095572D03*
X115723449Y-75794571D03*
X115777000Y-118850000D03*
X115777000Y-123706000D03*
X115850000Y-93025000D03*
X116021449Y-76546503D03*
X116050000Y-128500000D03*
X116051449Y-72527750D03*
X116475000Y-74075000D03*
X116588576Y-77678574D03*
X116713396Y-98511492D03*
X116734883Y-99389194D03*
X116765000Y-97155000D03*
X116800000Y-122600000D03*
X116800000Y-139400000D03*
X116800000Y-140250000D03*
X116800000Y-141100000D03*
X116800000Y-141950000D03*
X116800000Y-142800000D03*
X116875000Y-74550000D03*
X117060810Y-127744320D03*
X117100000Y-71500000D03*
X117279975Y-98938343D03*
X117282713Y-97605000D03*
X117318608Y-99923102D03*
X117400000Y-118300000D03*
X117425000Y-126800000D03*
X117500000Y-126225000D03*
X117700000Y-85875000D03*
X117700000Y-86750000D03*
X117700000Y-87575000D03*
X117725000Y-84150000D03*
X117725000Y-85000000D03*
X117750000Y-81450000D03*
X117750000Y-145100000D03*
X117753064Y-127450889D03*
X117800000Y-147000000D03*
X117850000Y-74499991D03*
X117983494Y-128597113D03*
X118021774Y-77835310D03*
X118075000Y-89250000D03*
X118100000Y-65750000D03*
X118100000Y-66650000D03*
X118100000Y-67550000D03*
X118200000Y-122600000D03*
X118200000Y-123550000D03*
X118252316Y-129076955D03*
X118400000Y-80100000D03*
X118500000Y-89250000D03*
X118700000Y-129500000D03*
X118822410Y-88822937D03*
X118853786Y-77831394D03*
X119100000Y-121700008D03*
X119200000Y-80100000D03*
X119200000Y-130000000D03*
X119220943Y-89222937D03*
X119410000Y-81840000D03*
X119410000Y-83190000D03*
X119410000Y-84540000D03*
X119410000Y-85890000D03*
X119410000Y-87240000D03*
X119425000Y-93150000D03*
X119431058Y-95173939D03*
X119434534Y-92569722D03*
X119685798Y-77811981D03*
X119816943Y-89222937D03*
X119829590Y-95573939D03*
X119830001Y-92169722D03*
X119900000Y-119975000D03*
X119900000Y-120975000D03*
X120100000Y-77150000D03*
X120100000Y-80100000D03*
X120110000Y-76560000D03*
X120130557Y-98191723D03*
X120130557Y-98941723D03*
X120212410Y-88822937D03*
X120402691Y-95549586D03*
X120426002Y-92169722D03*
X120500000Y-76250000D03*
X120575000Y-101375014D03*
X120630864Y-77300000D03*
X120641850Y-102109513D03*
X120760000Y-81840000D03*
X120760000Y-83190000D03*
X120760000Y-84540000D03*
X120760000Y-85890000D03*
X120760000Y-87240000D03*
X120815000Y-95965000D03*
X120821058Y-95173939D03*
X120824535Y-92569722D03*
X120930000Y-91860000D03*
X121030000Y-76900000D03*
X121130557Y-98191723D03*
X121130557Y-98941723D03*
X121174323Y-102604323D03*
X121411883Y-92169722D03*
X121626001Y-76900000D03*
X121917851Y-103219453D03*
X122007884Y-92169722D03*
X122022408Y-88822937D03*
X122025001Y-76420000D03*
X122030864Y-77300000D03*
X122110000Y-81840000D03*
X122110000Y-83190000D03*
X122110000Y-84540000D03*
X122110000Y-85890000D03*
X122110000Y-87240000D03*
X122130557Y-98191723D03*
X122130557Y-99691723D03*
X122420941Y-89222937D03*
X122423533Y-76820000D03*
X122462145Y-129812145D03*
X122475000Y-91795000D03*
X122505309Y-94475000D03*
X122615557Y-96026723D03*
X122733355Y-102536645D03*
X122750000Y-132540490D03*
X122825474Y-80249663D03*
X122850000Y-114900000D03*
X122900775Y-94075000D03*
X123016941Y-89222937D03*
X123019534Y-76820000D03*
X123075000Y-129225000D03*
X123150000Y-145400000D03*
X123220941Y-79849663D03*
X123400000Y-142800000D03*
X123400000Y-144100000D03*
X123412408Y-88822937D03*
X123415001Y-76420000D03*
X123425000Y-74675000D03*
X123460000Y-81840000D03*
X123460000Y-83190000D03*
X123460000Y-84540000D03*
X123460000Y-85890000D03*
X123460000Y-87240000D03*
X123496777Y-94075000D03*
X123600000Y-71900000D03*
X123600000Y-72600000D03*
X123600000Y-127300000D03*
X123600000Y-131600000D03*
X123624396Y-77220000D03*
X123700000Y-113000000D03*
X123700000Y-113550000D03*
X123700000Y-130500000D03*
X123700000Y-131050000D03*
X123816941Y-79849663D03*
X123850000Y-132540490D03*
X123850000Y-148000000D03*
X123850000Y-149300000D03*
X123895310Y-94475000D03*
X124023532Y-76820000D03*
X124100000Y-145400000D03*
X124193976Y-100473976D03*
X124215474Y-80249663D03*
X124356533Y-94479921D03*
X124590000Y-137600000D03*
X124619533Y-76820000D03*
X124751999Y-94079921D03*
X124810000Y-81840000D03*
X124810000Y-83190000D03*
X124810000Y-84540000D03*
X124810000Y-85890000D03*
X124810000Y-87240000D03*
X124855000Y-101045000D03*
X125015000Y-77315000D03*
X125085000Y-76425000D03*
X125100000Y-96700000D03*
X125150000Y-148000000D03*
X125150000Y-149300000D03*
X125348000Y-94079921D03*
X125411882Y-76900000D03*
X125746534Y-94479921D03*
X126000000Y-118500000D03*
X126007883Y-76900000D03*
X126020941Y-79846785D03*
X126325000Y-130775000D03*
X126400000Y-96200000D03*
X126403350Y-76500000D03*
X126407018Y-86841393D03*
X126407018Y-88231393D03*
X126450000Y-113200000D03*
X126616941Y-79846785D03*
X126680000Y-137600000D03*
X126807018Y-87236860D03*
X126807018Y-87832860D03*
X127037607Y-76951601D03*
X127100000Y-100000000D03*
X127425000Y-75365000D03*
X127437606Y-75957067D03*
X127437607Y-76553068D03*
X127675000Y-135350000D03*
X127701465Y-77987606D03*
X127796163Y-137773446D03*
X128103999Y-77600001D03*
X128150000Y-137250000D03*
X128500000Y-92700000D03*
X128500000Y-94900000D03*
X128550000Y-142800000D03*
X128550000Y-144100000D03*
X128550000Y-149300000D03*
X128700000Y-77600000D03*
X128748589Y-135929510D03*
X128775000Y-81405000D03*
X128799994Y-80025000D03*
X128805000Y-84375000D03*
X128835000Y-86125000D03*
X128850000Y-90700001D03*
X128980000Y-91470000D03*
X129091466Y-77987606D03*
X129129267Y-76956197D03*
X129275000Y-82950000D03*
X129300000Y-121000000D03*
X129353803Y-84646782D03*
X129390000Y-86130000D03*
X129500000Y-89999999D03*
X129500000Y-91400000D03*
X129524987Y-135500000D03*
X129528999Y-77375001D03*
X129625000Y-149325000D03*
X129700000Y-94300000D03*
X129753803Y-85045918D03*
X129753803Y-85641919D03*
X129753803Y-86627800D03*
X129753803Y-87223801D03*
X129850000Y-142800000D03*
X129850000Y-144100000D03*
X130125000Y-77375000D03*
X130153803Y-86229267D03*
X130153803Y-87619268D03*
X130175000Y-135500000D03*
X130485000Y-77875000D03*
X130516000Y-76953000D03*
X130725000Y-149325000D03*
X130750000Y-82250000D03*
X130750000Y-82850000D03*
X130750000Y-83450000D03*
X130750000Y-84050000D03*
X130750000Y-147850000D03*
X130850000Y-109925000D03*
X130876199Y-77368804D03*
X130949323Y-135500677D03*
X131125000Y-121775000D03*
X131150000Y-131250000D03*
X131150000Y-142800000D03*
X131150000Y-144100000D03*
X131150000Y-145450000D03*
X131175000Y-89035000D03*
X131175000Y-120275000D03*
X131200000Y-118775000D03*
X131200000Y-129800000D03*
X131450000Y-62650000D03*
X131472200Y-77368803D03*
X131525000Y-135550000D03*
X131825000Y-149325000D03*
X131850000Y-137995490D03*
X131870733Y-77768803D03*
X132261000Y-76548931D03*
X132262000Y-72526177D03*
X132350000Y-62650000D03*
X132559000Y-75747000D03*
X132560000Y-74100000D03*
X132857000Y-76548931D03*
X132858000Y-72526177D03*
X133250000Y-62650000D03*
X133250000Y-111700000D03*
X133350000Y-74100000D03*
X133370000Y-115780000D03*
X133370000Y-117270000D03*
X133400000Y-112800000D03*
X133400000Y-114300000D03*
X133400000Y-118275000D03*
X133500000Y-123825000D03*
X133500000Y-135900000D03*
X133700000Y-117800000D03*
X133978761Y-137021239D03*
X134245000Y-118801446D03*
X134245000Y-119397446D03*
X134245000Y-122652000D03*
X134245000Y-123248000D03*
X134300000Y-92350000D03*
X134600000Y-91050000D03*
X134775000Y-118600000D03*
X134775000Y-119700000D03*
X134800000Y-92350000D03*
X134800000Y-122525000D03*
X134800000Y-123350000D03*
X134804449Y-76500504D03*
X134805449Y-72477750D03*
X135093449Y-74051572D03*
X135102449Y-75748572D03*
X135400000Y-120727000D03*
X135400000Y-121323000D03*
X135400449Y-76500504D03*
X135401449Y-72477750D03*
X135550000Y-97625000D03*
X135550000Y-144350000D03*
X135550000Y-145650000D03*
X135550000Y-146950001D03*
X135740000Y-135550000D03*
X135800000Y-132500000D03*
X135850000Y-120350000D03*
X135850000Y-121675000D03*
X135900000Y-74050000D03*
X136200000Y-125500000D03*
X136200000Y-135000000D03*
X136450000Y-149300000D03*
X136725000Y-115925000D03*
X136808192Y-116649946D03*
X136850000Y-144350000D03*
X136850000Y-145650000D03*
X136850000Y-146950000D03*
X136875000Y-118625000D03*
X136900000Y-74500000D03*
X136900000Y-130200000D03*
X137100000Y-129575000D03*
X137265000Y-122060000D03*
X137275000Y-120740000D03*
X137300000Y-119400000D03*
X137375000Y-121400000D03*
X137450000Y-65650000D03*
X137450000Y-66550000D03*
X137450000Y-67450000D03*
X137500000Y-93900000D03*
X137525000Y-71350000D03*
X137600000Y-127100000D03*
X137700000Y-124700000D03*
X137700000Y-126100000D03*
X137775000Y-118575000D03*
X137800000Y-123600000D03*
X137800000Y-136300000D03*
X137900000Y-89400000D03*
X138208003Y-137200000D03*
X138246089Y-113336396D03*
X138265000Y-119740000D03*
X138299122Y-111833794D03*
X138325000Y-122975000D03*
X138600000Y-128900000D03*
X138750000Y-125525000D03*
X138775000Y-118975000D03*
X138775000Y-126450000D03*
X138975000Y-115275000D03*
X139025000Y-123200000D03*
X139135000Y-121090000D03*
X139250000Y-119600000D03*
X139315000Y-91865000D03*
X139325000Y-127300000D03*
X139400000Y-136200000D03*
X139425000Y-115275000D03*
X139675000Y-118925000D03*
X139700000Y-119600000D03*
X139725000Y-121080000D03*
X139775000Y-124350000D03*
X139872435Y-113972792D03*
X139875000Y-115275000D03*
X139913137Y-123201464D03*
X139945000Y-91865000D03*
X140150000Y-119600000D03*
X140300000Y-118900000D03*
X140390470Y-128351992D03*
X140401076Y-131629432D03*
X140450000Y-86850000D03*
X140491154Y-110843845D03*
X140575000Y-122975000D03*
X140850000Y-63150000D03*
X140915411Y-114874346D03*
X141100000Y-95400000D03*
X141100000Y-143400000D03*
X141250000Y-116300000D03*
X141400000Y-79100000D03*
X141400000Y-117900000D03*
X141400000Y-121400000D03*
X141425000Y-122000000D03*
X141744285Y-126539478D03*
X141762890Y-125562125D03*
X141870012Y-115015775D03*
X141900000Y-96100000D03*
X141950000Y-75550000D03*
X142075000Y-126049994D03*
X142100000Y-109575000D03*
X142125000Y-127000000D03*
X142150000Y-108575000D03*
X142160000Y-142200000D03*
X142250000Y-61750000D03*
X142525000Y-116825000D03*
X142525000Y-120875000D03*
X142545277Y-125304333D03*
X142575000Y-91625000D03*
X142653212Y-128104505D03*
X142700000Y-127500000D03*
X142775000Y-87500000D03*
X142795000Y-81624996D03*
X142850000Y-61150000D03*
X142850000Y-61750000D03*
X142900000Y-95600000D03*
X142900000Y-117850000D03*
X142915937Y-88288862D03*
X142975000Y-124325000D03*
X143089771Y-114715254D03*
X143149996Y-115500000D03*
X143200000Y-67750000D03*
X143205000Y-70415000D03*
X143305929Y-118392892D03*
X143342789Y-87742284D03*
X143354350Y-81598037D03*
X143400000Y-72000000D03*
X143400000Y-72600000D03*
X143405607Y-119050976D03*
X143450000Y-61150000D03*
X143450000Y-61750000D03*
X143496660Y-145185324D03*
X143574573Y-117897658D03*
X143600000Y-94900000D03*
X143849544Y-118722800D03*
X144072000Y-140380000D03*
X144100002Y-145200000D03*
X144130002Y-63279998D03*
X144350000Y-142300000D03*
X144500000Y-79600000D03*
X144500000Y-113775000D03*
X144525000Y-113225000D03*
X144600000Y-62000000D03*
X144618000Y-140380000D03*
X144650015Y-145200000D03*
X144700000Y-111500000D03*
X144757002Y-89015076D03*
X144800000Y-83300000D03*
X145000000Y-79100000D03*
X145032626Y-126403913D03*
X145050000Y-125500000D03*
X145100000Y-60500000D03*
X145105000Y-63315000D03*
X145225000Y-145200000D03*
X145600000Y-79100000D03*
X145600000Y-113050000D03*
X145715000Y-113720000D03*
X145817662Y-94884062D03*
X145830000Y-116030000D03*
X145850630Y-58443940D03*
X145950000Y-118760000D03*
X145970000Y-117840000D03*
X146254673Y-94386349D03*
X146399622Y-58477422D03*
X146400000Y-79500000D03*
X146402000Y-63548002D03*
X146562999Y-84097649D03*
X146601979Y-113634400D03*
X146700000Y-62000000D03*
X146724154Y-94935666D03*
X146730000Y-116020000D03*
X146850000Y-108850000D03*
X146850000Y-111175000D03*
X146852000Y-106325000D03*
X146899323Y-112299323D03*
X146948999Y-58451001D03*
X146998000Y-63548002D03*
X147000000Y-79500000D03*
X147000000Y-80200000D03*
X147040000Y-88030000D03*
X147050000Y-89390000D03*
X147151006Y-94389087D03*
X147159000Y-84097649D03*
X147250000Y-78050000D03*
X147412000Y-108800000D03*
X147442000Y-111120000D03*
X147462000Y-106130000D03*
X147475000Y-72800000D03*
X147475000Y-73400000D03*
X147475000Y-74000000D03*
X147475000Y-74600000D03*
X147498381Y-58477317D03*
X147580000Y-120550000D03*
X147580000Y-122790000D03*
X147600000Y-94910000D03*
X147700000Y-91100000D03*
X147700000Y-142400000D03*
X147795000Y-113250000D03*
X147797220Y-127755115D03*
X147927000Y-112350000D03*
X147950000Y-60300000D03*
X147950000Y-69850000D03*
X147958000Y-108800000D03*
X147988000Y-111120000D03*
X148008000Y-106130000D03*
X148047908Y-84100684D03*
X148075000Y-71600000D03*
X148075000Y-72200000D03*
X148075000Y-72800000D03*
X148075000Y-73400000D03*
X148075000Y-74000000D03*
X148075000Y-74600000D03*
X148075000Y-75200000D03*
X148075000Y-75800000D03*
X148100000Y-78049999D03*
X148100000Y-113700000D03*
X148170000Y-86910000D03*
X148170000Y-88030000D03*
X148170000Y-90520000D03*
X148180000Y-89390000D03*
X148236990Y-122775000D03*
X148250001Y-116030000D03*
X148282843Y-128533095D03*
X148400000Y-94925000D03*
X148480000Y-120550000D03*
X148523000Y-112350000D03*
X148545911Y-92714031D03*
X148600000Y-108846000D03*
X148600000Y-111171000D03*
X148602000Y-106321000D03*
X148643909Y-84100684D03*
X148675000Y-71600000D03*
X148675000Y-72200000D03*
X148675000Y-72800000D03*
X148675000Y-73400000D03*
X148675000Y-74000000D03*
X148675000Y-74600000D03*
X148675000Y-75200000D03*
X148675000Y-75800000D03*
X148782841Y-129833095D03*
X148800000Y-66425000D03*
X148800000Y-69850000D03*
X148800000Y-78050000D03*
X148900000Y-94924998D03*
X149000000Y-123950000D03*
X149125000Y-92725000D03*
X149275000Y-72800000D03*
X149275000Y-73400000D03*
X149275000Y-74000000D03*
X149275000Y-74600000D03*
X149480000Y-116030000D03*
X149495000Y-122900000D03*
X149520000Y-90510000D03*
X149530000Y-86910000D03*
X149530000Y-88030000D03*
X149530000Y-89390000D03*
X149547907Y-84100684D03*
X149600000Y-120550002D03*
X149625000Y-113825000D03*
X149627198Y-94917409D03*
X149650000Y-78050000D03*
X149900000Y-91100000D03*
X149900000Y-111750000D03*
X149975000Y-123389996D03*
X150143908Y-84100684D03*
X150200000Y-94350000D03*
X150385000Y-113210000D03*
X150386218Y-94927803D03*
X150500000Y-117860000D03*
X150500000Y-119870000D03*
X150500000Y-120550000D03*
X150575011Y-122766423D03*
X150610000Y-115530000D03*
X150640000Y-88030000D03*
X150650000Y-89390000D03*
X150650000Y-113800000D03*
X150700000Y-60600000D03*
X150700000Y-61200000D03*
X150745000Y-112050000D03*
X150750000Y-109450000D03*
X150750000Y-111500000D03*
X151047911Y-84100684D03*
X151115499Y-94373269D03*
X151145230Y-94931718D03*
X151200000Y-67225000D03*
X151300000Y-60600000D03*
X151300000Y-61200000D03*
X151421142Y-127550000D03*
X151643911Y-84100684D03*
X151700000Y-107200000D03*
X151700000Y-109400000D03*
X151700000Y-111500000D03*
X151715000Y-112030000D03*
X151750000Y-74250000D03*
X151850000Y-68800000D03*
X151900000Y-60600000D03*
X151900000Y-61200000D03*
X152100000Y-92800000D03*
X152100000Y-93500000D03*
X152249970Y-123400000D03*
X152650000Y-111500000D03*
X152655000Y-112020000D03*
X152700000Y-115100000D03*
X152700000Y-117900000D03*
X152725000Y-119875000D03*
X152775000Y-113200000D03*
X153168986Y-93662874D03*
X153200000Y-71400000D03*
X153225000Y-110000000D03*
X153300000Y-68700000D03*
X153375000Y-74225000D03*
X153400000Y-125450000D03*
X153449390Y-88449390D03*
X153595837Y-93116295D03*
X154500000Y-68700000D03*
X155000000Y-71400000D03*
X155125000Y-92000000D03*
X155200000Y-90125000D03*
X155225000Y-89175000D03*
X155940000Y-102375000D03*
X155940000Y-104915000D03*
X155940000Y-107455000D03*
X155940000Y-109995000D03*
X155940001Y-111264500D03*
X155940001Y-113169500D03*
X155940001Y-115074500D03*
X155940001Y-116979500D03*
X155940001Y-118884500D03*
X155940001Y-120789500D03*
X155940001Y-122694500D03*
X155940001Y-124599500D03*
X155940001Y-126504500D03*
X155940001Y-128409500D03*
X155940001Y-132219500D03*
X155940001Y-134759500D03*
X156300000Y-86400000D03*
X156700000Y-85100000D03*
X156700000Y-85600000D03*
X156900001Y-133489500D03*
X156900001Y-136029500D03*
X156913001Y-130976500D03*
X156920000Y-129680000D03*
X156920001Y-132219500D03*
X156920001Y-134759500D03*
X157880000Y-100470000D03*
X157880000Y-103010000D03*
X157880000Y-105550000D03*
X157880000Y-108090000D03*
X157880000Y-109360000D03*
X157880000Y-111265000D03*
X157880000Y-113170000D03*
X157880000Y-115075000D03*
X157880000Y-116980000D03*
X157880000Y-118885000D03*
X157880000Y-120790000D03*
X157880000Y-122695000D03*
X157880000Y-124600000D03*
X157880000Y-126505000D03*
X157880000Y-128410000D03*
X157880001Y-133489500D03*
X157880001Y-136029500D03*
X157893001Y-130976500D03*
X158480000Y-102375000D03*
X158480000Y-104915000D03*
X158480000Y-107455000D03*
X158480000Y-109995000D03*
X158480001Y-111264500D03*
X158480001Y-113169500D03*
X158480001Y-115074500D03*
X158480001Y-116979500D03*
X158480001Y-118884500D03*
X158480001Y-120789500D03*
X158480001Y-122694500D03*
X158480001Y-124599500D03*
X158480001Y-126504500D03*
X158480001Y-128409500D03*
X158480001Y-132219500D03*
X158480001Y-134759500D03*
X159440000Y-136030000D03*
X159440001Y-130949500D03*
X159440001Y-133489500D03*
X159460001Y-129679500D03*
X159460001Y-132219500D03*
X159460001Y-134759500D03*
X160420000Y-100470000D03*
X160420000Y-103010000D03*
X160420000Y-105550000D03*
X160420000Y-108090000D03*
X160420000Y-109360000D03*
X160420000Y-111265000D03*
X160420000Y-113170000D03*
X160420000Y-115075000D03*
X160420000Y-116980000D03*
X160420000Y-118885000D03*
X160420000Y-120790000D03*
X160420000Y-122695000D03*
X160420000Y-124600000D03*
X160420000Y-126505000D03*
X160420000Y-128410000D03*
X160420000Y-136030000D03*
X160420001Y-130949500D03*
X160420001Y-133489500D03*
X166250000Y-119075000D03*
X166250000Y-119675000D03*
X166250000Y-120275000D03*
X166850000Y-119075000D03*
X166850000Y-119675000D03*
X166850000Y-120275000D03*
X167450000Y-119075000D03*
X167750000Y-130650000D03*
X167800000Y-141700000D03*
X168045000Y-126245000D03*
X168045000Y-126845000D03*
X168300000Y-141700000D03*
X168550000Y-130700000D03*
X168644999Y-126245000D03*
X168645000Y-126845000D03*
X168800000Y-141700000D03*
X169244999Y-125645000D03*
X169245000Y-126245000D03*
X169245000Y-127445000D03*
X169245001Y-126845000D03*
X169300000Y-141700000D03*
X169615296Y-131942048D03*
X169845000Y-125645000D03*
X169845000Y-126245001D03*
X169845000Y-126845001D03*
X169845000Y-127445000D03*
X170445000Y-126845001D03*
X170445000Y-127445000D03*
X170445001Y-125645001D03*
X170445001Y-126245000D03*
X170650000Y-136950000D03*
X170650000Y-137450000D03*
X170650000Y-137950000D03*
X170650000Y-138450000D03*
X171045000Y-125645000D03*
X171045000Y-126245000D03*
X171045000Y-126845000D03*
X171045000Y-127445000D03*
X171300000Y-137950000D03*
X171300000Y-138450000D03*
X171645000Y-126245000D03*
X171645000Y-126845000D03*
X171950000Y-138650000D03*
X172245000Y-126245000D03*
X172245000Y-126845000D03*
X172538990Y-140752033D03*
X172550000Y-131200000D03*
X172600000Y-123150000D03*
X172650000Y-138700000D03*
X172800000Y-133750000D03*
X172950002Y-119300000D03*
X172955000Y-139450000D03*
X173480172Y-140698840D03*
X173550000Y-117850000D03*
X173900000Y-139600000D03*
X174281900Y-141054343D03*
X174300000Y-142750000D03*
X174370000Y-126180000D03*
X174370000Y-127030000D03*
X174525000Y-120500000D03*
X174674998Y-140320000D03*
X175131173Y-140665534D03*
X175631001Y-140268185D03*
X175750000Y-119050000D03*
X175750000Y-119650000D03*
X175750000Y-120250000D03*
X176071137Y-140765840D03*
X176300000Y-133150000D03*
X176350000Y-119050000D03*
X176350000Y-119650000D03*
X176350000Y-120250000D03*
X176575000Y-137700000D03*
X176800000Y-133500000D03*
X176950000Y-119050000D03*
X178125000Y-130950000D03*
X180100000Y-122000000D03*
X181875000Y-134525000D03*
X181950000Y-120100000D03*
X182300000Y-115900000D03*
X182474999Y-133925000D03*
X182474999Y-134525000D03*
X182475000Y-133324999D03*
X182600000Y-120400000D03*
X183074999Y-134525000D03*
X183075000Y-133324999D03*
X183075000Y-133924999D03*
X184000000Y-135625000D03*
X185075000Y-133375000D03*
X186350000Y-130900000D03*
X188200000Y-124300000D03*
X189000000Y-124300000D03*
X190102513Y-134427513D03*
X190702512Y-133227513D03*
X190702512Y-133827512D03*
X190702512Y-134427512D03*
X191302512Y-133827512D03*
X191302512Y-134427512D03*
X191302513Y-133227512D03*
D11*
X80700000Y-90950000D03*
X80700000Y-91550000D03*
X83080000Y-90250000D03*
X83460000Y-89740002D03*
X94220490Y-71400000D03*
X96050000Y-85500000D03*
X96100000Y-86300000D03*
X101250000Y-86190000D03*
X101250000Y-86740000D03*
X101800000Y-86190000D03*
X101800000Y-86740000D03*
X104300000Y-96700000D03*
X106909998Y-104685000D03*
X107391514Y-142199814D03*
X107991381Y-142212986D03*
X110850000Y-94775000D03*
X112010000Y-122550000D03*
X112900000Y-97575000D03*
X113840557Y-104776723D03*
X113965557Y-104226723D03*
X114390557Y-104701723D03*
X114515557Y-104151723D03*
X115375000Y-86035000D03*
X115400000Y-89600000D03*
X115445000Y-83865004D03*
X115501266Y-80698696D03*
X115503067Y-81315545D03*
X116400000Y-118300000D03*
X116400000Y-124150000D03*
X117300000Y-93200000D03*
X117906942Y-91424859D03*
X118756942Y-91425000D03*
X119225000Y-118250000D03*
X119422499Y-91397499D03*
X120075000Y-121950000D03*
X120075000Y-122650000D03*
X120075000Y-123300000D03*
X120075000Y-123900000D03*
X120300000Y-77800000D03*
X120925000Y-91265000D03*
X121400000Y-96000000D03*
X122125000Y-79600000D03*
X122495000Y-91205000D03*
X123940557Y-98951723D03*
X124110000Y-91600000D03*
X124600000Y-72500000D03*
X124600000Y-73050000D03*
X124900000Y-79600000D03*
X125100000Y-72500000D03*
X125100000Y-73050000D03*
X125515000Y-98875000D03*
X126100000Y-94950000D03*
X126565000Y-91395000D03*
X127900000Y-99000000D03*
X128300000Y-118500000D03*
X128318180Y-78881816D03*
X128765131Y-88934869D03*
X128800000Y-82534862D03*
X128836592Y-79451153D03*
X129155226Y-83901443D03*
X130400000Y-95400000D03*
X130400000Y-96200000D03*
X130400000Y-97000000D03*
X130500000Y-90000000D03*
X130500000Y-91400000D03*
X130700000Y-117000000D03*
X130700000Y-118000000D03*
X131150000Y-90700000D03*
X131200000Y-95400000D03*
X131200000Y-96200000D03*
X131200000Y-97000000D03*
X132500000Y-135900000D03*
X134350000Y-95150000D03*
X134399999Y-89550000D03*
X134850000Y-95149999D03*
X134900000Y-89550000D03*
X135350000Y-95150000D03*
X135400000Y-89550000D03*
X135850000Y-95150000D03*
X135900000Y-136400000D03*
X135900001Y-89550000D03*
X137250000Y-134500000D03*
X137950000Y-134500000D03*
X138650000Y-134500000D03*
X139400000Y-134500000D03*
X139500000Y-135500000D03*
X140100000Y-134500000D03*
X140100000Y-135200000D03*
X140450000Y-85875000D03*
X140650000Y-88300000D03*
X140675000Y-89175000D03*
X140675000Y-90050000D03*
X140675000Y-90975000D03*
X141050000Y-92600000D03*
X141100000Y-93900000D03*
X141900000Y-93300000D03*
X142900001Y-93300000D03*
X143600000Y-93900000D03*
X144050000Y-76850000D03*
X144050000Y-77400000D03*
X144550000Y-76850000D03*
X144550000Y-77400000D03*
X144600000Y-81199999D03*
X144785000Y-91575000D03*
X145100000Y-81800000D03*
X145600000Y-81800000D03*
X145975000Y-108950000D03*
X146300000Y-81800000D03*
X146745000Y-142180000D03*
X146800000Y-81800000D03*
X147000000Y-81100000D03*
X147600000Y-84530002D03*
X149062500Y-63537500D03*
X149105709Y-84524948D03*
X150400000Y-78000000D03*
X150400000Y-78550000D03*
X150590633Y-84524948D03*
X150750000Y-107200000D03*
X150900000Y-78000000D03*
X150900000Y-78550000D03*
X152950000Y-89000000D03*
X152950000Y-89625000D03*
X153600000Y-106750000D03*
X153900000Y-85100000D03*
X153900000Y-85600000D03*
X153900000Y-86500000D03*
X154700000Y-112600000D03*
X155275000Y-87525000D03*
X155700000Y-93600000D03*
X165100000Y-117300000D03*
X165850000Y-136900000D03*
X165850000Y-137550000D03*
X165850000Y-138200000D03*
X166500000Y-136900000D03*
X166500000Y-137550000D03*
X166500000Y-138200000D03*
X167150000Y-136900000D03*
X167150000Y-137550000D03*
X167150000Y-138200000D03*
X167800000Y-136900000D03*
X167800000Y-137550000D03*
X167800000Y-138200000D03*
X168000000Y-142400000D03*
X168415000Y-115360000D03*
X168500000Y-142400000D03*
X169000000Y-142400000D03*
X169500000Y-142400000D03*
X170205000Y-132040000D03*
X173375000Y-120200000D03*
X184525000Y-133075000D03*
X184800000Y-136900000D03*
X188950000Y-138100000D03*
X191200000Y-68300000D03*
D12*
X78975000Y-129550000D03*
X79225000Y-78530000D03*
X79390000Y-77430000D03*
X79390000Y-79640000D03*
X81550000Y-77430000D03*
X81560000Y-79640000D03*
X81725000Y-78530000D03*
X83700000Y-138200000D03*
X83700000Y-139000000D03*
X84500000Y-138200000D03*
X84500000Y-139000000D03*
X85300000Y-138200000D03*
X85300000Y-139000000D03*
X87900000Y-128250000D03*
X87900000Y-129050000D03*
X95550000Y-71000000D03*
X114240557Y-102001723D03*
X114240557Y-102676723D03*
X114240557Y-103401723D03*
X120300000Y-142850000D03*
X120300000Y-143650000D03*
X121100000Y-142850000D03*
X121100000Y-143650000D03*
X121900000Y-142850000D03*
X121900000Y-143650000D03*
X124600000Y-144400000D03*
X125300000Y-144400000D03*
X125300000Y-145100000D03*
X136915000Y-82915000D03*
X136975000Y-81365000D03*
X137415000Y-82125000D03*
X137735000Y-85005000D03*
X138115000Y-82115000D03*
X138415000Y-79035000D03*
X138485000Y-85005000D03*
X139165000Y-79035000D03*
X139235000Y-85005000D03*
X139915000Y-79035000D03*
X140665000Y-79035000D03*
X140665000Y-79785000D03*
X140995000Y-84865000D03*
X147650000Y-69150000D03*
X148050000Y-68500000D03*
X148400000Y-69150000D03*
X148750000Y-68500000D03*
X149100000Y-69150000D03*
X149450000Y-68500000D03*
X149850000Y-69150000D03*
X150150000Y-68500000D03*
X151150000Y-101100000D03*
X151150000Y-101900000D03*
X151500000Y-104500000D03*
X151500000Y-105300000D03*
X151950000Y-101100000D03*
X151950000Y-101900000D03*
X151950000Y-102700000D03*
X152300000Y-104500000D03*
X152300000Y-105300000D03*
X152750000Y-101100000D03*
X152750000Y-101900000D03*
X152750000Y-102700000D03*
X153050000Y-98850000D03*
X153050000Y-99650000D03*
X153100000Y-104500000D03*
X153100000Y-105300000D03*
X153550000Y-101100000D03*
X153550000Y-101900000D03*
X153550000Y-102700000D03*
X153750000Y-98850000D03*
X153750000Y-99650000D03*
X153900000Y-104500000D03*
X153900000Y-105300000D03*
X154350000Y-101100000D03*
X154350000Y-101900000D03*
X154350000Y-102700000D03*
X154450000Y-98850000D03*
X154450000Y-99650000D03*
X154700000Y-104500000D03*
X154700000Y-105300000D03*
X165400000Y-122800000D03*
X165400000Y-123500000D03*
X165400000Y-124200000D03*
X165400000Y-124900000D03*
X165400000Y-128500000D03*
X165400000Y-129200000D03*
X165400000Y-129900000D03*
X165400000Y-130600000D03*
X165440000Y-125700000D03*
X165440000Y-126370000D03*
X165440000Y-127069999D03*
X165440000Y-127720000D03*
X166100000Y-122800000D03*
X166100000Y-124900000D03*
X166100000Y-128500000D03*
X166100000Y-130600000D03*
X166800000Y-122800000D03*
X166800000Y-124900000D03*
X166800000Y-128500000D03*
X166800000Y-130600000D03*
X167500000Y-122800000D03*
X173599999Y-76300000D03*
X173600000Y-71000000D03*
X173600000Y-73800000D03*
X173600001Y-71700001D03*
X173600001Y-74500001D03*
X173600001Y-77000002D03*
X174199999Y-70400000D03*
X174199999Y-73200001D03*
X174200000Y-77599999D03*
X174200001Y-72300000D03*
X174300000Y-75100000D03*
X175000000Y-77600000D03*
X175775000Y-115450000D03*
X175775000Y-116150000D03*
X176550000Y-115450000D03*
X176550000Y-116150000D03*
X177350000Y-115450000D03*
X177350000Y-116150000D03*
X178550000Y-76950000D03*
X178600000Y-76200000D03*
X179300000Y-76200000D03*
X179300000Y-76950000D03*
X181475000Y-137425000D03*
X181475000Y-138125000D03*
X182275000Y-137425000D03*
X182275000Y-138124999D03*
X183050000Y-137425000D03*
X183050000Y-138125000D03*
X187225000Y-66900000D03*
X187575000Y-67550000D03*
X187800000Y-85200000D03*
X187925000Y-66900000D03*
X188225000Y-61550000D03*
X188275001Y-67550000D03*
X188400000Y-113950000D03*
X188400000Y-114950000D03*
X188625000Y-66900000D03*
X188925000Y-61550000D03*
X189400000Y-113950000D03*
X189400000Y-114950000D03*
X189499999Y-121699999D03*
X189500000Y-120300000D03*
X189500000Y-121000001D03*
X189625000Y-61550000D03*
X189702513Y-137327513D03*
X189702513Y-138027513D03*
X190150000Y-120650000D03*
X190150000Y-121349999D03*
X190325000Y-61550000D03*
X190400000Y-113950000D03*
X190400000Y-114950000D03*
X190400000Y-115950000D03*
X190400000Y-116950000D03*
X190400000Y-117950000D03*
X190400000Y-118950000D03*
X190502512Y-137327513D03*
X190502512Y-138027512D03*
X190675000Y-62749978D03*
X190800000Y-120300000D03*
X190800000Y-121000001D03*
X190800000Y-121699999D03*
X191025001Y-61550000D03*
X191050000Y-59374999D03*
X191050000Y-60075000D03*
X191050000Y-60774999D03*
X191277513Y-137327513D03*
X191277513Y-138027513D03*
X191400000Y-113950000D03*
X191400000Y-114950000D03*
X191400000Y-115950000D03*
X191400000Y-116950000D03*
X191400000Y-117950000D03*
X191400000Y-118950000D03*
D13*
X80480000Y-76970000D03*
X80480000Y-80110000D03*
X163575000Y-87150000D03*
X164175000Y-78150000D03*
X164575000Y-88150000D03*
X165175000Y-78650000D03*
X165575000Y-87150000D03*
X166175000Y-78150000D03*
X166575000Y-88150000D03*
X167175000Y-78650000D03*
X167575000Y-87150000D03*
X168175000Y-78150000D03*
X168575000Y-88150000D03*
X169175000Y-78650000D03*
X169575000Y-87150000D03*
X170175000Y-78150000D03*
X170575000Y-88150000D03*
X171175000Y-78650000D03*
X171575000Y-87150000D03*
X172575000Y-88150000D03*
X173175000Y-78650000D03*
X173575000Y-87150000D03*
X174575000Y-88150000D03*
X175575000Y-87150000D03*
X176575000Y-88150000D03*
X177575000Y-87150000D03*
X178575000Y-88150000D03*
X179575000Y-87150000D03*
X180575000Y-88150000D03*
X181575000Y-87150000D03*
X182575000Y-88150000D03*
X183575000Y-87150000D03*
X188799999Y-71200000D03*
X188800000Y-72650001D03*
X189600000Y-71950000D03*
X189600000Y-73400000D03*
X190399999Y-71200000D03*
X190400000Y-72650001D03*
X191200000Y-71950000D03*
X191200000Y-73400000D03*
D14*
%TO.C,J1*%
X82013000Y-55688000D02*
X82013000Y-56788000D01*
X82013000Y-62218000D02*
X82013000Y-63818000D01*
X98513000Y-55688000D02*
X98513000Y-56788000D01*
X98513000Y-62218000D02*
X98513000Y-63818000D01*
%TO.C,J8*%
X140030000Y-145450000D02*
X140030000Y-144350000D01*
X140030000Y-149480000D02*
X140030000Y-148680000D01*
%TO.C,J10*%
X142379000Y-54194000D02*
X142379000Y-54994000D01*
X142379000Y-58224000D02*
X142379000Y-59324000D01*
%TO.C,J8*%
X148670000Y-145450000D02*
X148670000Y-144350000D01*
X148670000Y-149480000D02*
X148670000Y-148680000D01*
%TO.C,J10*%
X151019000Y-54194000D02*
X151019000Y-54994000D01*
X151019000Y-58224000D02*
X151019000Y-59324000D01*
D15*
%TO.C,U20*%
X106400000Y-67230000D03*
X106400000Y-70430000D03*
X106900000Y-65730000D03*
X106900000Y-68930000D03*
X108400000Y-67230000D03*
X108400000Y-70430000D03*
X109400000Y-65730000D03*
X109400000Y-68930000D03*
X110400000Y-67230000D03*
X110400000Y-70430000D03*
X111400000Y-65730000D03*
X111400000Y-68930000D03*
X112400000Y-67230000D03*
X112400000Y-70430000D03*
X113900000Y-65730000D03*
X113900000Y-68930000D03*
X114400000Y-67230000D03*
X114400000Y-70430000D03*
%TO.C,U17*%
X125750000Y-67230000D03*
X125750000Y-70430000D03*
X126250000Y-65730000D03*
X126250000Y-68930000D03*
X127750000Y-67230000D03*
X127750000Y-70430000D03*
X128750000Y-65730000D03*
X128750000Y-68930000D03*
X129750000Y-67230000D03*
X129750000Y-70430000D03*
X130750000Y-65730000D03*
X130750000Y-68930000D03*
X131750000Y-67230000D03*
X131750000Y-70430000D03*
X133250000Y-65730000D03*
X133250000Y-68930000D03*
X133750000Y-67230000D03*
X133750000Y-70430000D03*
D16*
%TO.C,J5*%
X158270000Y-66730000D03*
X158270000Y-69260000D03*
X159540000Y-71800000D03*
X160810000Y-65460000D03*
X160810000Y-69260000D03*
X162080000Y-71800000D03*
X163350000Y-69260000D03*
X164620000Y-71800000D03*
X165890000Y-69260000D03*
X167160000Y-65460000D03*
X167160000Y-71800000D03*
X168430000Y-69260000D03*
X169700000Y-66720000D03*
X169700000Y-71800000D03*
D17*
%TO.C,J9*%
X76800000Y-130975000D03*
X76800000Y-132975000D03*
X76800000Y-134975000D03*
X76800000Y-136975000D03*
X76800000Y-138975000D03*
X76800000Y-140975000D03*
X76800000Y-142975000D03*
X78800000Y-130975000D03*
X78800000Y-132975000D03*
X78800000Y-134975000D03*
X78800000Y-136975000D03*
X78800000Y-138975000D03*
X78800000Y-140975000D03*
X78800000Y-142975000D03*
D18*
%TO.C,J11*%
X175120400Y-63750000D02*
X175120400Y-61750000D01*
X179000000Y-59700000D02*
X181000000Y-59700000D01*
X181250000Y-65700000D02*
X178750000Y-65700000D01*
D19*
%TO.C,J5*%
X157344998Y-58840001D03*
X159884998Y-58840001D03*
X168085002Y-58840001D03*
X170625002Y-58840001D03*
D20*
%TO.C,J6*%
X105860000Y-83900000D03*
X108400000Y-83900000D03*
D21*
%TO.C,J4*%
X165400000Y-144260000D03*
X165400000Y-146800000D03*
X167940000Y-144260000D03*
X167940000Y-146800000D03*
X170480000Y-144260000D03*
X170480000Y-146800000D03*
X173020000Y-144260000D03*
X173020000Y-146800000D03*
X175560000Y-144260000D03*
X175560000Y-146800000D03*
X178100000Y-144260000D03*
X178100000Y-146800000D03*
D22*
%TO.C,PS1*%
X167340000Y-110960000D03*
X174960000Y-90640000D03*
X177500000Y-110960000D03*
X180040000Y-90640000D03*
X187660000Y-90640000D03*
X187660000Y-110960000D03*
D23*
%TO.C,J5*%
X171835000Y-65949999D03*
D24*
X156135000Y-65949999D03*
D25*
%TO.C,U20*%
X103730000Y-63730000D03*
X103830000Y-69410000D03*
X116970000Y-63730000D03*
X116970000Y-69410000D03*
%TO.C,U17*%
X123080000Y-63730000D03*
X123180000Y-69410000D03*
X136320000Y-63730000D03*
X136320000Y-69410000D03*
D26*
%TO.C,SP5*%
X98788558Y-122024722D03*
D27*
%TO.C,MP4*%
X77500000Y-55500000D03*
%TO.C,MP1*%
X77500000Y-148500000D03*
%TO.C,MP3*%
X188500000Y-55500000D03*
%TO.C,MP2*%
X188500000Y-148500000D03*
D28*
%TO.C,SP4*%
X89556999Y-90793500D03*
%TO.C,SP1*%
X89556999Y-144443500D03*
%TO.C,SP3*%
X160206999Y-90793500D03*
%TO.C,SP2*%
X160206999Y-144443500D03*
M02*
