%TF.GenerationSoftware,KiCad,Pcbnew,5.1.9+dfsg1-1*%
%TF.CreationDate,2022-05-13T15:31:38+02:00*%
%TF.ProjectId,kria-k26-devboard,6b726961-2d6b-4323-962d-646576626f61,rev?*%
%TF.SameCoordinates,Original*%
%TF.FileFunction,Other,User*%
%FSLAX46Y46*%
G04 Gerber Fmt 4.6, Leading zero omitted, Abs format (unit mm)*
G04 Created by KiCad (PCBNEW 5.1.9+dfsg1-1) date 2022-05-13 15:31:38 commit 71a77da*
%MOMM*%
%LPD*%
G01*
G04 APERTURE LIST*
%TA.AperFunction,Profile*%
%ADD10C,0.100000*%
%TD*%
%ADD11C,0.050000*%
%ADD12C,0.120000*%
%ADD13C,0.100000*%
%ADD14C,0.150000*%
G04 APERTURE END LIST*
D10*
X74000000Y-152000000D02*
X74000000Y-52000000D01*
X74000000Y-52000000D02*
X192000000Y-52000000D01*
X192000000Y-52000000D02*
X192000000Y-152000000D01*
X192000000Y-152000000D02*
X74000000Y-152000000D01*
D11*
%TO.C,R154*%
X180880000Y-92800000D02*
X174220000Y-92800000D01*
X180880000Y-96100000D02*
X180880000Y-92800000D01*
X174220000Y-96100000D02*
X180880000Y-96100000D01*
X174220000Y-92800000D02*
X174220000Y-96100000D01*
%TO.C,R117*%
X184370000Y-77400000D02*
X186230000Y-77400000D01*
X184370000Y-73600000D02*
X186230000Y-73600000D01*
X186230000Y-77400000D02*
X186230000Y-73600000D01*
X184370000Y-77400000D02*
X184370000Y-73600000D01*
%TO.C,C185*%
X146265000Y-72110000D02*
X146125000Y-72110000D01*
X146265000Y-70690000D02*
X146125000Y-70690000D01*
X148485000Y-70690000D02*
X148625000Y-70690000D01*
X148485000Y-72110000D02*
X148625000Y-72110000D01*
X148485000Y-70690000D02*
X146265000Y-70690000D01*
X146125000Y-70690000D02*
X146125000Y-72110000D01*
X146265000Y-72110000D02*
X148485000Y-72110000D01*
X148625000Y-72110000D02*
X148625000Y-70690000D01*
D12*
%TO.C,U47*%
X149475000Y-74830000D02*
X149475000Y-72237000D01*
X149475000Y-74830000D02*
X145885000Y-74830000D01*
X145885000Y-74820000D02*
X145885000Y-72237000D01*
X145885000Y-72237000D02*
X149475000Y-72237000D01*
D11*
%TO.C,R123*%
X147033351Y-76924239D02*
X147033351Y-75064239D01*
X146093351Y-76924239D02*
X147033351Y-76924239D01*
X146093351Y-75064239D02*
X146093351Y-76924239D01*
X147033351Y-75064239D02*
X146093351Y-75064239D01*
%TO.C,R122*%
X145093352Y-75064239D02*
X145093352Y-76924239D01*
X146033352Y-75064239D02*
X145093352Y-75064239D01*
X146033352Y-76924239D02*
X146033352Y-75064239D01*
X145093352Y-76924239D02*
X146033352Y-76924239D01*
%TO.C,C187*%
X143795000Y-73470000D02*
X145655000Y-73470000D01*
X143795000Y-72530000D02*
X143795000Y-73470000D01*
X145655000Y-72530000D02*
X143795000Y-72530000D01*
X145655000Y-73470000D02*
X145655000Y-72530000D01*
%TO.C,C195*%
X152135000Y-76690000D02*
X152275000Y-76690000D01*
X152135000Y-78110000D02*
X152275000Y-78110000D01*
X149915000Y-78110000D02*
X149775000Y-78110000D01*
X149915000Y-76690000D02*
X149775000Y-76690000D01*
X149915000Y-78110000D02*
X152135000Y-78110000D01*
X152275000Y-78110000D02*
X152275000Y-76690000D01*
X152135000Y-76690000D02*
X149915000Y-76690000D01*
X149775000Y-76690000D02*
X149775000Y-78110000D01*
%TO.C,C199*%
X147265000Y-76660000D02*
X147125000Y-76660000D01*
X147265000Y-75240000D02*
X147125000Y-75240000D01*
X149485000Y-75240000D02*
X149625000Y-75240000D01*
X149485000Y-76660000D02*
X149625000Y-76660000D01*
X149485000Y-75240000D02*
X147265000Y-75240000D01*
X147125000Y-75240000D02*
X147125000Y-76660000D01*
X147265000Y-76660000D02*
X149485000Y-76660000D01*
X149625000Y-76660000D02*
X149625000Y-75240000D01*
%TO.C,C197*%
X147265000Y-78110000D02*
X147125000Y-78110000D01*
X147265000Y-76690000D02*
X147125000Y-76690000D01*
X149485000Y-76690000D02*
X149625000Y-76690000D01*
X149485000Y-78110000D02*
X149625000Y-78110000D01*
X149485000Y-76690000D02*
X147265000Y-76690000D01*
X147125000Y-76690000D02*
X147125000Y-78110000D01*
X147265000Y-78110000D02*
X149485000Y-78110000D01*
X149625000Y-78110000D02*
X149625000Y-76690000D01*
D13*
%TO.C,L1*%
X149775000Y-76400000D02*
X149775000Y-72200000D01*
X153975000Y-72200000D02*
X153975000Y-76400000D01*
X153975000Y-76400000D02*
X149775000Y-76400000D01*
X149775000Y-72200000D02*
X153975000Y-72200000D01*
D11*
%TO.C,C183*%
X146240000Y-70810000D02*
X146100000Y-70810000D01*
X146240000Y-69390000D02*
X146100000Y-69390000D01*
X148460000Y-69390000D02*
X148600000Y-69390000D01*
X148460000Y-70810000D02*
X148600000Y-70810000D01*
X148460000Y-69390000D02*
X146240000Y-69390000D01*
X146100000Y-69390000D02*
X146100000Y-70810000D01*
X146240000Y-70810000D02*
X148460000Y-70810000D01*
X148600000Y-70810000D02*
X148600000Y-69390000D01*
%TO.C,C193*%
X145033352Y-76924239D02*
X145033352Y-75064239D01*
X144093352Y-76924239D02*
X145033352Y-76924239D01*
X144093352Y-75064239D02*
X144093352Y-76924239D01*
X145033352Y-75064239D02*
X144093352Y-75064239D01*
%TO.C,C191*%
X149695000Y-72020000D02*
X151555000Y-72020000D01*
X149695000Y-71080000D02*
X149695000Y-72020000D01*
X151555000Y-71080000D02*
X149695000Y-71080000D01*
X151555000Y-72020000D02*
X151555000Y-71080000D01*
%TO.C,C189*%
X143795000Y-74470000D02*
X145655000Y-74470000D01*
X143795000Y-73530000D02*
X143795000Y-74470000D01*
X145655000Y-73530000D02*
X143795000Y-73530000D01*
X145655000Y-74470000D02*
X145655000Y-73530000D01*
%TO.C,R119*%
X172755000Y-124420000D02*
X172755000Y-126280000D01*
X173695000Y-124420000D02*
X172755000Y-124420000D01*
X173695000Y-126280000D02*
X173695000Y-124420000D01*
X172755000Y-126280000D02*
X173695000Y-126280000D01*
%TO.C,R120*%
X175360000Y-127420000D02*
X177220000Y-127420000D01*
X175360000Y-126480000D02*
X175360000Y-127420000D01*
X177220000Y-126480000D02*
X175360000Y-126480000D01*
X177220000Y-127420000D02*
X177220000Y-126480000D01*
%TO.C,R127*%
X139080000Y-86420000D02*
X139080000Y-88280000D01*
X140020000Y-86420000D02*
X139080000Y-86420000D01*
X140020000Y-88280000D02*
X140020000Y-86420000D01*
X139080000Y-88280000D02*
X140020000Y-88280000D01*
%TO.C,R37*%
X103970000Y-138845000D02*
X103970000Y-136985000D01*
X103030000Y-138845000D02*
X103970000Y-138845000D01*
X103030000Y-136985000D02*
X103030000Y-138845000D01*
X103970000Y-136985000D02*
X103030000Y-136985000D01*
%TO.C,U14*%
X172800000Y-142850000D02*
X175800000Y-142850000D01*
X172800000Y-140950000D02*
X172800000Y-142850000D01*
X175800000Y-140950000D02*
X172800000Y-140950000D01*
X175800000Y-142850000D02*
X175800000Y-140950000D01*
%TO.C,U28*%
X111900000Y-72350000D02*
X108900000Y-72350000D01*
X111900000Y-74250000D02*
X111900000Y-72350000D01*
X108900000Y-74250000D02*
X111900000Y-74250000D01*
X108900000Y-72350000D02*
X108900000Y-74250000D01*
%TO.C,U22*%
X131250000Y-72300000D02*
X128250000Y-72300000D01*
X131250000Y-74200000D02*
X131250000Y-72300000D01*
X128250000Y-74200000D02*
X131250000Y-74200000D01*
X128250000Y-72300000D02*
X128250000Y-74200000D01*
%TO.C,C92*%
X156030000Y-86180000D02*
X154170000Y-86180000D01*
X156030000Y-87120000D02*
X156030000Y-86180000D01*
X154170000Y-87120000D02*
X156030000Y-87120000D01*
X154170000Y-86180000D02*
X154170000Y-87120000D01*
%TO.C,C102*%
X147920000Y-86695000D02*
X147920000Y-84835000D01*
X146980000Y-86695000D02*
X147920000Y-86695000D01*
X146980000Y-84835000D02*
X146980000Y-86695000D01*
X147920000Y-84835000D02*
X146980000Y-84835000D01*
%TO.C,C79*%
X112090000Y-74208000D02*
X111150000Y-74208000D01*
X111150000Y-74208000D02*
X111150000Y-76068000D01*
X111150000Y-76068000D02*
X112090000Y-76068000D01*
X112090000Y-76068000D02*
X112090000Y-74208000D01*
%TO.C,C78*%
X111145000Y-76063000D02*
X111145000Y-74203000D01*
X110205000Y-76063000D02*
X111145000Y-76063000D01*
X110205000Y-74203000D02*
X110205000Y-76063000D01*
X111145000Y-74203000D02*
X110205000Y-74203000D01*
%TO.C,D25*%
X188422900Y-65156500D02*
X189130900Y-65156500D01*
X188422900Y-65550200D02*
X188422900Y-65156500D01*
X183927100Y-65550200D02*
X188422900Y-65550200D01*
X183927100Y-65156500D02*
X183927100Y-65550200D01*
X183219100Y-65156500D02*
X183927100Y-65156500D01*
X183219100Y-62743500D02*
X183219100Y-65156500D01*
X183927100Y-62743500D02*
X183219100Y-62743500D01*
X183927100Y-62349800D02*
X183927100Y-62743500D01*
X188422900Y-62349800D02*
X183927100Y-62349800D01*
X188422900Y-62743500D02*
X188422900Y-62349800D01*
X189130900Y-62743500D02*
X188422900Y-62743500D01*
X189130900Y-65156500D02*
X189130900Y-62743500D01*
X183927100Y-65550200D02*
X188422900Y-65550200D01*
X183927100Y-65156500D02*
X183927100Y-65550200D01*
X183927100Y-62349800D02*
X183927100Y-62743500D01*
X188422900Y-62349800D02*
X183927100Y-62349800D01*
X188422900Y-62743500D02*
X188422900Y-62349800D01*
X188422900Y-65550200D02*
X188422900Y-65156500D01*
X188422900Y-65156500D02*
X189130900Y-65156500D01*
X183219100Y-65156500D02*
X183927100Y-65156500D01*
X183219100Y-62743500D02*
X183219100Y-65156500D01*
X183927100Y-62743500D02*
X183219100Y-62743500D01*
X189130900Y-62743500D02*
X188422900Y-62743500D01*
X189130900Y-65156500D02*
X189130900Y-62743500D01*
%TO.C,C179*%
X174125000Y-79250000D02*
X174125000Y-86650000D01*
X180025000Y-79250000D02*
X174125000Y-79250000D01*
X180025000Y-86650000D02*
X180025000Y-79250000D01*
X174125000Y-86650000D02*
X180025000Y-86650000D01*
%TO.C,C178*%
X179925000Y-79250000D02*
X179925000Y-86650000D01*
X185825000Y-79250000D02*
X179925000Y-79250000D01*
X185825000Y-86650000D02*
X185825000Y-79250000D01*
X179925000Y-86650000D02*
X185825000Y-86650000D01*
%TO.C,C177*%
X168225000Y-79250000D02*
X168225000Y-86650000D01*
X174125000Y-79250000D02*
X168225000Y-79250000D01*
X174125000Y-86650000D02*
X174125000Y-79250000D01*
X168225000Y-86650000D02*
X174125000Y-86650000D01*
%TO.C,C176*%
X162325000Y-79250000D02*
X162325000Y-86650000D01*
X168225000Y-79250000D02*
X162325000Y-79250000D01*
X168225000Y-86650000D02*
X168225000Y-79250000D01*
X162325000Y-86650000D02*
X168225000Y-86650000D01*
D14*
%TO.C,J3*%
X77200000Y-86150000D02*
X86200000Y-86150000D01*
X86200000Y-86150000D02*
X86200000Y-117850000D01*
X86200000Y-117850000D02*
X77200000Y-117850000D01*
X77200000Y-117850000D02*
X77200000Y-86150000D01*
D11*
%TO.C,R62*%
X126720000Y-85350000D02*
X128580000Y-85350000D01*
X126720000Y-84410000D02*
X126720000Y-85350000D01*
X128580000Y-84410000D02*
X126720000Y-84410000D01*
X128580000Y-85350000D02*
X128580000Y-84410000D01*
%TO.C,R2*%
X100770000Y-72030000D02*
X100770000Y-70170000D01*
X99830000Y-72030000D02*
X100770000Y-72030000D01*
X99830000Y-70170000D02*
X99830000Y-72030000D01*
X100770000Y-70170000D02*
X99830000Y-70170000D01*
%TO.C,R1*%
X151859289Y-146417868D02*
X149999289Y-146417868D01*
X151859289Y-147357868D02*
X151859289Y-146417868D01*
X149999289Y-147357868D02*
X151859289Y-147357868D01*
X149999289Y-146417868D02*
X149999289Y-147357868D01*
%TO.C,C2*%
X99870000Y-72030000D02*
X99870000Y-70170000D01*
X98930000Y-72030000D02*
X99870000Y-72030000D01*
X98930000Y-70170000D02*
X98930000Y-72030000D01*
X99870000Y-70170000D02*
X98930000Y-70170000D01*
%TO.C,C1*%
X151859289Y-145567867D02*
X149999289Y-145567867D01*
X151859289Y-146507867D02*
X151859289Y-145567867D01*
X149999289Y-146507867D02*
X151859289Y-146507867D01*
X149999289Y-145567867D02*
X149999289Y-146507867D01*
%TO.C,C91*%
X144625965Y-79360911D02*
X144625965Y-79220911D01*
X146045965Y-79360911D02*
X146045965Y-79220911D01*
X146045965Y-81580911D02*
X146045965Y-81720911D01*
X144625965Y-81580911D02*
X144625965Y-81720911D01*
X146045965Y-81580911D02*
X146045965Y-79360911D01*
X146045965Y-79220911D02*
X144625965Y-79220911D01*
X144625965Y-79360911D02*
X144625965Y-81580911D01*
X144625965Y-81720911D02*
X146045965Y-81720911D01*
%TO.C,C93*%
X145880000Y-79695000D02*
X145880000Y-81555000D01*
X146820000Y-79695000D02*
X145880000Y-79695000D01*
X146820000Y-81555000D02*
X146820000Y-79695000D01*
X145880000Y-81555000D02*
X146820000Y-81555000D01*
%TO.C,C94*%
X146825911Y-88430000D02*
X144965911Y-88430000D01*
X146825911Y-89370000D02*
X146825911Y-88430000D01*
X144965911Y-89370000D02*
X146825911Y-89370000D01*
X144965911Y-88430000D02*
X144965911Y-89370000D01*
%TO.C,C95*%
X147830000Y-90684035D02*
X147830000Y-92544035D01*
X148770000Y-90684035D02*
X147830000Y-90684035D01*
X148770000Y-92544035D02*
X148770000Y-90684035D01*
X147830000Y-92544035D02*
X148770000Y-92544035D01*
%TO.C,C96*%
X150920000Y-90270000D02*
X152780000Y-90270000D01*
X150920000Y-89330000D02*
X150920000Y-90270000D01*
X152780000Y-89330000D02*
X150920000Y-89330000D01*
X152780000Y-90270000D02*
X152780000Y-89330000D01*
%TO.C,C97*%
X146920000Y-86680000D02*
X146920000Y-84820000D01*
X145980000Y-86680000D02*
X146920000Y-86680000D01*
X145980000Y-84820000D02*
X145980000Y-86680000D01*
X146920000Y-84820000D02*
X145980000Y-84820000D01*
%TO.C,C98*%
X150920000Y-86692385D02*
X150920000Y-84832385D01*
X149980000Y-86692385D02*
X150920000Y-86692385D01*
X149980000Y-84832385D02*
X149980000Y-86692385D01*
X150920000Y-84832385D02*
X149980000Y-84832385D01*
%TO.C,C99*%
X146818373Y-89430000D02*
X144958373Y-89430000D01*
X146818373Y-90370000D02*
X146818373Y-89430000D01*
X144958373Y-90370000D02*
X146818373Y-90370000D01*
X144958373Y-89430000D02*
X144958373Y-90370000D01*
%TO.C,C103*%
X151920000Y-86692385D02*
X151920000Y-84832385D01*
X150980000Y-86692385D02*
X151920000Y-86692385D01*
X150980000Y-84832385D02*
X150980000Y-86692385D01*
X151920000Y-84832385D02*
X150980000Y-84832385D01*
%TO.C,C105*%
X149920000Y-86692385D02*
X149920000Y-84832385D01*
X148980000Y-86692385D02*
X149920000Y-86692385D01*
X148980000Y-84832385D02*
X148980000Y-86692385D01*
X149920000Y-84832385D02*
X148980000Y-84832385D01*
%TO.C,C109*%
X148920000Y-86692385D02*
X148920000Y-84832385D01*
X147980000Y-86692385D02*
X148920000Y-86692385D01*
X147980000Y-84832385D02*
X147980000Y-86692385D01*
X148920000Y-84832385D02*
X147980000Y-84832385D01*
%TO.C,C110*%
X146875910Y-91044035D02*
X145015910Y-91044035D01*
X146875910Y-91984035D02*
X146875910Y-91044035D01*
X145015910Y-91984035D02*
X146875910Y-91984035D01*
X145015910Y-91044035D02*
X145015910Y-91984035D01*
%TO.C,C111*%
X148775911Y-90684035D02*
X148775911Y-92544035D01*
X149715911Y-90684035D02*
X148775911Y-90684035D01*
X149715911Y-92544035D02*
X149715911Y-90684035D01*
X148775911Y-92544035D02*
X149715911Y-92544035D01*
%TO.C,C112*%
X150915911Y-89284035D02*
X152775911Y-89284035D01*
X150915911Y-88344035D02*
X150915911Y-89284035D01*
X152775911Y-88344035D02*
X150915911Y-88344035D01*
X152775911Y-89284035D02*
X152775911Y-88344035D01*
%TO.C,C113*%
X143359035Y-95334089D02*
X143359035Y-93474089D01*
X142419035Y-95334089D02*
X143359035Y-95334089D01*
X142419035Y-93474089D02*
X142419035Y-95334089D01*
X143359035Y-93474089D02*
X142419035Y-93474089D01*
%TO.C,C114*%
X142364035Y-95779089D02*
X142364035Y-95919089D01*
X140944035Y-95779089D02*
X140944035Y-95919089D01*
X140944035Y-93559089D02*
X140944035Y-93419089D01*
X142364035Y-93559089D02*
X142364035Y-93419089D01*
X140944035Y-93559089D02*
X140944035Y-95779089D01*
X140944035Y-95919089D02*
X142364035Y-95919089D01*
X142364035Y-95779089D02*
X142364035Y-93559089D01*
X142364035Y-93419089D02*
X140944035Y-93419089D01*
%TO.C,C202*%
X138510000Y-81785001D02*
X138510000Y-81925001D01*
X137090000Y-81785001D02*
X137090000Y-81925001D01*
X137090000Y-79565001D02*
X137090000Y-79425001D01*
X138510000Y-79565001D02*
X138510000Y-79425001D01*
X137090000Y-79565001D02*
X137090000Y-81785001D01*
X137090000Y-81925001D02*
X138510000Y-81925001D01*
X138510000Y-81785001D02*
X138510000Y-79565001D01*
X138510000Y-79425001D02*
X137090000Y-79425001D01*
%TO.C,C207*%
X142245000Y-82670000D02*
X140385000Y-82670000D01*
X142245000Y-83610000D02*
X142245000Y-82670000D01*
X140385000Y-83610000D02*
X142245000Y-83610000D01*
X140385000Y-82670000D02*
X140385000Y-83610000D01*
%TO.C,C212*%
X138610000Y-84860000D02*
X138610000Y-85000000D01*
X137190000Y-84860000D02*
X137190000Y-85000000D01*
X137190000Y-82640000D02*
X137190000Y-82500000D01*
X138610000Y-82640000D02*
X138610000Y-82500000D01*
X137190000Y-82640000D02*
X137190000Y-84860000D01*
X137190000Y-85000000D02*
X138610000Y-85000000D01*
X138610000Y-84860000D02*
X138610000Y-82640000D01*
X138610000Y-82500000D02*
X137190000Y-82500000D01*
%TO.C,C44*%
X126730000Y-86590000D02*
X128590000Y-86590000D01*
X126730000Y-85650000D02*
X126730000Y-86590000D01*
X128590000Y-85650000D02*
X126730000Y-85650000D01*
X128590000Y-86590000D02*
X128590000Y-85650000D01*
%TO.C,C50*%
X120670000Y-79875000D02*
X120670000Y-78015000D01*
X119730000Y-79875000D02*
X120670000Y-79875000D01*
X119730000Y-78015000D02*
X119730000Y-79875000D01*
X120670000Y-78015000D02*
X119730000Y-78015000D01*
%TO.C,C48*%
X126736942Y-82994862D02*
X128596942Y-82994862D01*
X126736942Y-82054862D02*
X126736942Y-82994862D01*
X128596942Y-82054862D02*
X126736942Y-82054862D01*
X128596942Y-82994862D02*
X128596942Y-82054862D01*
%TO.C,C58*%
X117586942Y-80030000D02*
X115726942Y-80030000D01*
X117586942Y-80970000D02*
X117586942Y-80030000D01*
X115726942Y-80970000D02*
X117586942Y-80970000D01*
X115726942Y-80030000D02*
X115726942Y-80970000D01*
%TO.C,C60*%
X125376941Y-81730000D02*
X125376941Y-79870000D01*
X124436941Y-81730000D02*
X125376941Y-81730000D01*
X124436941Y-79870000D02*
X124436941Y-81730000D01*
X125376941Y-79870000D02*
X124436941Y-79870000D01*
%TO.C,C62*%
X117536942Y-82930000D02*
X115676942Y-82930000D01*
X117536942Y-83870000D02*
X117536942Y-82930000D01*
X115676942Y-83870000D02*
X117536942Y-83870000D01*
X115676942Y-82930000D02*
X115676942Y-83870000D01*
%TO.C,C41*%
X122595000Y-81730000D02*
X122595000Y-79870000D01*
X121655000Y-81730000D02*
X122595000Y-81730000D01*
X121655000Y-79870000D02*
X121655000Y-81730000D01*
X122595000Y-79870000D02*
X121655000Y-79870000D01*
%TO.C,C45*%
X117586942Y-81030000D02*
X115726942Y-81030000D01*
X117586942Y-81970000D02*
X117586942Y-81030000D01*
X115726942Y-81970000D02*
X117586942Y-81970000D01*
X115726942Y-81030000D02*
X115726942Y-81970000D01*
%TO.C,C49*%
X117480000Y-89420000D02*
X117480000Y-91280000D01*
X118420000Y-89420000D02*
X117480000Y-89420000D01*
X118420000Y-91280000D02*
X118420000Y-89420000D01*
X117480000Y-91280000D02*
X118420000Y-91280000D01*
%TO.C,C57*%
X120230000Y-89070000D02*
X120230000Y-90930000D01*
X121170000Y-89070000D02*
X120230000Y-89070000D01*
X121170000Y-90930000D02*
X121170000Y-89070000D01*
X120230000Y-90930000D02*
X121170000Y-90930000D01*
%TO.C,C80*%
X120130000Y-99358999D02*
X120130000Y-101218999D01*
X121070000Y-99358999D02*
X120130000Y-99358999D01*
X121070000Y-101218999D02*
X121070000Y-99358999D01*
X120130000Y-101218999D02*
X121070000Y-101218999D01*
%TO.C,C83*%
X121819000Y-99474000D02*
X123679000Y-99474000D01*
X121819000Y-98534000D02*
X121819000Y-99474000D01*
X123679000Y-98534000D02*
X121819000Y-98534000D01*
X123679000Y-99474000D02*
X123679000Y-98534000D01*
%TO.C,C86*%
X121169000Y-98074000D02*
X121169000Y-96214000D01*
X120229000Y-98074000D02*
X121169000Y-98074000D01*
X120229000Y-96214000D02*
X120229000Y-98074000D01*
X121169000Y-96214000D02*
X120229000Y-96214000D01*
%TO.C,C89*%
X122069000Y-98084000D02*
X122069000Y-96224000D01*
X121129000Y-98084000D02*
X122069000Y-98084000D01*
X121129000Y-96224000D02*
X121129000Y-98084000D01*
X122069000Y-96224000D02*
X121129000Y-96224000D01*
%TO.C,C66*%
X130495000Y-76035000D02*
X130495000Y-74175000D01*
X129555000Y-76035000D02*
X130495000Y-76035000D01*
X129555000Y-74175000D02*
X129555000Y-76035000D01*
X130495000Y-74175000D02*
X129555000Y-74175000D01*
%TO.C,C67*%
X131445000Y-76035000D02*
X131445000Y-74175000D01*
X130505000Y-76035000D02*
X131445000Y-76035000D01*
X130505000Y-74175000D02*
X130505000Y-76035000D01*
X131445000Y-74175000D02*
X130505000Y-74175000D01*
%TO.C,C233*%
X135155000Y-121030000D02*
X133295000Y-121030000D01*
X135155000Y-121970000D02*
X135155000Y-121030000D01*
X133295000Y-121970000D02*
X135155000Y-121970000D01*
X133295000Y-121030000D02*
X133295000Y-121970000D01*
%TO.C,C234*%
X135155000Y-120080000D02*
X133295000Y-120080000D01*
X135155000Y-121020000D02*
X135155000Y-120080000D01*
X133295000Y-121020000D02*
X135155000Y-121020000D01*
X133295000Y-120080000D02*
X133295000Y-121020000D01*
%TO.C,C3*%
X95030000Y-85870000D02*
X95030000Y-87730000D01*
X95970000Y-85870000D02*
X95030000Y-85870000D01*
X95970000Y-87730000D02*
X95970000Y-85870000D01*
X95030000Y-87730000D02*
X95970000Y-87730000D01*
%TO.C,C4*%
X95030000Y-84070000D02*
X95030000Y-85930000D01*
X95970000Y-84070000D02*
X95030000Y-84070000D01*
X95970000Y-85930000D02*
X95970000Y-84070000D01*
X95030000Y-85930000D02*
X95970000Y-85930000D01*
%TO.C,C5*%
X96030000Y-75030000D02*
X94170000Y-75030000D01*
X96030000Y-75970000D02*
X96030000Y-75030000D01*
X94170000Y-75970000D02*
X96030000Y-75970000D01*
X94170000Y-75030000D02*
X94170000Y-75970000D01*
%TO.C,C119*%
X94300000Y-94070000D02*
X98100000Y-94070000D01*
X94300000Y-95930000D02*
X98100000Y-95930000D01*
X98100000Y-94070000D02*
X98100000Y-95930000D01*
X94300000Y-94070000D02*
X94300000Y-95930000D01*
%TO.C,C120*%
X94315000Y-95855000D02*
X98115000Y-95855000D01*
X94315000Y-97715000D02*
X98115000Y-97715000D01*
X98115000Y-95855000D02*
X98115000Y-97715000D01*
X94315000Y-95855000D02*
X94315000Y-97715000D01*
%TO.C,C121*%
X96430000Y-98530000D02*
X94570000Y-98530000D01*
X96430000Y-99470000D02*
X96430000Y-98530000D01*
X94570000Y-99470000D02*
X96430000Y-99470000D01*
X94570000Y-98530000D02*
X94570000Y-99470000D01*
%TO.C,C122*%
X96430000Y-97530000D02*
X94570000Y-97530000D01*
X96430000Y-98470000D02*
X96430000Y-97530000D01*
X94570000Y-98470000D02*
X96430000Y-98470000D01*
X94570000Y-97530000D02*
X94570000Y-98470000D01*
%TO.C,C129*%
X93430000Y-127305000D02*
X91570000Y-127305000D01*
X93430000Y-128245000D02*
X93430000Y-127305000D01*
X91570000Y-128245000D02*
X93430000Y-128245000D01*
X91570000Y-127305000D02*
X91570000Y-128245000D01*
%TO.C,C19*%
X131180000Y-146730000D02*
X129320000Y-146730000D01*
X131180000Y-147670000D02*
X131180000Y-146730000D01*
X129320000Y-147670000D02*
X131180000Y-147670000D01*
X129320000Y-146730000D02*
X129320000Y-147670000D01*
%TO.C,C20*%
X131560000Y-145440000D02*
X131700000Y-145440000D01*
X131560000Y-146860000D02*
X131700000Y-146860000D01*
X129340000Y-146860000D02*
X129200000Y-146860000D01*
X129340000Y-145440000D02*
X129200000Y-145440000D01*
X129340000Y-146860000D02*
X131560000Y-146860000D01*
X131700000Y-146860000D02*
X131700000Y-145440000D01*
X131560000Y-145440000D02*
X129340000Y-145440000D01*
X129200000Y-145440000D02*
X129200000Y-146860000D01*
%TO.C,C17*%
X124570000Y-147465000D02*
X124570000Y-145605000D01*
X123630000Y-147465000D02*
X124570000Y-147465000D01*
X123630000Y-145605000D02*
X123630000Y-147465000D01*
X124570000Y-145605000D02*
X123630000Y-145605000D01*
%TO.C,C18*%
X124580000Y-145620000D02*
X124580000Y-147480000D01*
X125520000Y-145620000D02*
X124580000Y-145620000D01*
X125520000Y-147480000D02*
X125520000Y-145620000D01*
X124580000Y-147480000D02*
X125520000Y-147480000D01*
%TO.C,C134*%
X105655000Y-142070000D02*
X107515000Y-142070000D01*
X105655000Y-141130000D02*
X105655000Y-142070000D01*
X107515000Y-141130000D02*
X105655000Y-141130000D01*
X107515000Y-142070000D02*
X107515000Y-141130000D01*
%TO.C,C131*%
X102680000Y-141430000D02*
X100820000Y-141430000D01*
X102680000Y-142370000D02*
X102680000Y-141430000D01*
X100820000Y-142370000D02*
X102680000Y-142370000D01*
X100820000Y-141430000D02*
X100820000Y-142370000D01*
%TO.C,C130*%
X97195000Y-141505001D02*
X97195000Y-139645001D01*
X96255000Y-141505001D02*
X97195000Y-141505001D01*
X96255000Y-139645001D02*
X96255000Y-141505001D01*
X97195000Y-139645001D02*
X96255000Y-139645001D01*
%TO.C,C135*%
X95980000Y-146020000D02*
X95980000Y-147880000D01*
X96920000Y-146020000D02*
X95980000Y-146020000D01*
X96920000Y-147880000D02*
X96920000Y-146020000D01*
X95980000Y-147880000D02*
X96920000Y-147880000D01*
%TO.C,C136*%
X109380000Y-141130000D02*
X107520000Y-141130000D01*
X109380000Y-142070000D02*
X109380000Y-141130000D01*
X107520000Y-142070000D02*
X109380000Y-142070000D01*
X107520000Y-141130000D02*
X107520000Y-142070000D01*
%TO.C,C132*%
X103880000Y-139495000D02*
X103880000Y-141355000D01*
X104820000Y-139495000D02*
X103880000Y-139495000D01*
X104820000Y-141355000D02*
X104820000Y-139495000D01*
X103880000Y-141355000D02*
X104820000Y-141355000D01*
%TO.C,C140*%
X143950000Y-119270000D02*
X145810000Y-119270000D01*
X143950000Y-118330000D02*
X143950000Y-119270000D01*
X145810000Y-118330000D02*
X143950000Y-118330000D01*
X145810000Y-119270000D02*
X145810000Y-118330000D01*
%TO.C,C142*%
X148970000Y-122590000D02*
X148970000Y-120730000D01*
X148030000Y-122590000D02*
X148970000Y-122590000D01*
X148030000Y-120730000D02*
X148030000Y-122590000D01*
X148970000Y-120730000D02*
X148030000Y-120730000D01*
%TO.C,C141*%
X143950000Y-118270000D02*
X145810000Y-118270000D01*
X143950000Y-117330000D02*
X143950000Y-118270000D01*
X145810000Y-117330000D02*
X143950000Y-117330000D01*
X145810000Y-118270000D02*
X145810000Y-117330000D01*
%TO.C,C144*%
X152510000Y-119390000D02*
X150650000Y-119390000D01*
X152510000Y-120330000D02*
X152510000Y-119390000D01*
X150650000Y-120330000D02*
X152510000Y-120330000D01*
X150650000Y-119390000D02*
X150650000Y-120330000D01*
%TO.C,C143*%
X147970000Y-122590000D02*
X147970000Y-120730000D01*
X147030000Y-122590000D02*
X147970000Y-122590000D01*
X147030000Y-120730000D02*
X147030000Y-122590000D01*
X147970000Y-120730000D02*
X147030000Y-120730000D01*
%TO.C,C146*%
X152510000Y-114590000D02*
X150650000Y-114590000D01*
X152510000Y-115530000D02*
X152510000Y-114590000D01*
X150650000Y-115530000D02*
X152510000Y-115530000D01*
X150650000Y-114590000D02*
X150650000Y-115530000D01*
%TO.C,C145*%
X152510000Y-117390000D02*
X150650000Y-117390000D01*
X152510000Y-118330000D02*
X152510000Y-117390000D01*
X150650000Y-118330000D02*
X152510000Y-118330000D01*
X150650000Y-117390000D02*
X150650000Y-118330000D01*
%TO.C,C147*%
X145360000Y-114005000D02*
X145360000Y-115865000D01*
X146300000Y-114005000D02*
X145360000Y-114005000D01*
X146300000Y-115865000D02*
X146300000Y-114005000D01*
X145360000Y-115865000D02*
X146300000Y-115865000D01*
%TO.C,C148*%
X146260000Y-114005000D02*
X146260000Y-115865000D01*
X147200000Y-114005000D02*
X146260000Y-114005000D01*
X147200000Y-115865000D02*
X147200000Y-114005000D01*
X146260000Y-115865000D02*
X147200000Y-115865000D01*
%TO.C,C149*%
X149970000Y-122530000D02*
X149970000Y-120670000D01*
X149030000Y-122530000D02*
X149970000Y-122530000D01*
X149030000Y-120670000D02*
X149030000Y-122530000D01*
X149970000Y-120670000D02*
X149030000Y-120670000D01*
%TO.C,C150*%
X150755000Y-113670000D02*
X152615000Y-113670000D01*
X150755000Y-112730000D02*
X150755000Y-113670000D01*
X152615000Y-112730000D02*
X150755000Y-112730000D01*
X152615000Y-113670000D02*
X152615000Y-112730000D01*
%TO.C,C151*%
X150970000Y-122530000D02*
X150970000Y-120670000D01*
X150030000Y-122530000D02*
X150970000Y-122530000D01*
X150030000Y-120670000D02*
X150030000Y-122530000D01*
X150970000Y-120670000D02*
X150030000Y-120670000D01*
%TO.C,C152*%
X149009999Y-114015000D02*
X149009999Y-115875000D01*
X149949999Y-114015000D02*
X149009999Y-114015000D01*
X149949999Y-115875000D02*
X149949999Y-114015000D01*
X149009999Y-115875000D02*
X149949999Y-115875000D01*
%TO.C,C157*%
X140300389Y-112887609D02*
X138440389Y-112887609D01*
X140300389Y-113827609D02*
X140300389Y-112887609D01*
X138440389Y-113827609D02*
X140300389Y-113827609D01*
X138440389Y-112887609D02*
X138440389Y-113827609D01*
%TO.C,C126*%
X105940000Y-85520000D02*
X105940000Y-89080000D01*
X110260000Y-85520000D02*
X105940000Y-85520000D01*
X110260000Y-89080000D02*
X110260000Y-85520000D01*
X105940000Y-89080000D02*
X110260000Y-89080000D01*
%TO.C,C162*%
X139455000Y-121170000D02*
X139455000Y-123030000D01*
X140395000Y-121170000D02*
X139455000Y-121170000D01*
X140395000Y-123030000D02*
X140395000Y-121170000D01*
X139455000Y-123030000D02*
X140395000Y-123030000D01*
%TO.C,C163*%
X139205000Y-116920000D02*
X139205000Y-118780000D01*
X140145000Y-116920000D02*
X139205000Y-116920000D01*
X140145000Y-118780000D02*
X140145000Y-116920000D01*
X139205000Y-118780000D02*
X140145000Y-118780000D01*
%TO.C,C168*%
X138555000Y-121170000D02*
X138555000Y-123030000D01*
X139495000Y-121170000D02*
X138555000Y-121170000D01*
X139495000Y-123030000D02*
X139495000Y-121170000D01*
X138555000Y-123030000D02*
X139495000Y-123030000D01*
%TO.C,C169*%
X138305000Y-116935000D02*
X138305000Y-118795000D01*
X139245000Y-116935000D02*
X138305000Y-116935000D01*
X139245000Y-118795000D02*
X139245000Y-116935000D01*
X138305000Y-118795000D02*
X139245000Y-118795000D01*
%TO.C,C161*%
X76770000Y-129870000D02*
X78630000Y-129870000D01*
X76770000Y-128930000D02*
X76770000Y-129870000D01*
X78630000Y-128930000D02*
X76770000Y-128930000D01*
X78630000Y-129870000D02*
X78630000Y-128930000D01*
%TO.C,C33*%
X100920000Y-134820000D02*
X102780000Y-134820000D01*
X100920000Y-133880000D02*
X100920000Y-134820000D01*
X102780000Y-133880000D02*
X100920000Y-133880000D01*
X102780000Y-134820000D02*
X102780000Y-133880000D01*
%TO.C,C34*%
X106220000Y-134830000D02*
X106220000Y-132970000D01*
X105280000Y-134830000D02*
X106220000Y-134830000D01*
X105280000Y-132970000D02*
X105280000Y-134830000D01*
X106220000Y-132970000D02*
X105280000Y-132970000D01*
%TO.C,C137*%
X106145000Y-145370000D02*
X108005000Y-145370000D01*
X106145000Y-144430000D02*
X106145000Y-145370000D01*
X108005000Y-144430000D02*
X106145000Y-144430000D01*
X108005000Y-145370000D02*
X108005000Y-144430000D01*
%TO.C,C138*%
X109880000Y-144430000D02*
X108020000Y-144430000D01*
X109880000Y-145370000D02*
X109880000Y-144430000D01*
X108020000Y-145370000D02*
X109880000Y-145370000D01*
X108020000Y-144430000D02*
X108020000Y-145370000D01*
%TO.C,C155*%
X152170000Y-111405000D02*
X152170000Y-109545000D01*
X151230000Y-111405000D02*
X152170000Y-111405000D01*
X151230000Y-109545000D02*
X151230000Y-111405000D01*
X152170000Y-109545000D02*
X151230000Y-109545000D01*
%TO.C,D3*%
X106500000Y-89125000D02*
X106500000Y-90975000D01*
X109500000Y-89125000D02*
X106500000Y-89125000D01*
X109500000Y-90975000D02*
X109500000Y-89125000D01*
X106500000Y-90975000D02*
X109500000Y-90975000D01*
%TO.C,FB1*%
X104980000Y-85070000D02*
X104980000Y-86930000D01*
X105920000Y-85070000D02*
X104980000Y-85070000D01*
X105920000Y-86930000D02*
X105920000Y-85070000D01*
X104980000Y-86930000D02*
X105920000Y-86930000D01*
%TO.C,FB2*%
X110280000Y-85070000D02*
X110280000Y-86930000D01*
X111220000Y-85070000D02*
X110280000Y-85070000D01*
X111220000Y-86930000D02*
X111220000Y-85070000D01*
X110280000Y-86930000D02*
X111220000Y-86930000D01*
%TO.C,Q1*%
X121675000Y-148000000D02*
X121675000Y-144100000D01*
X121675000Y-144100000D02*
X118025000Y-144100000D01*
X118025000Y-148000000D02*
X118025000Y-144100000D01*
X118025000Y-148000000D02*
X121675000Y-148000000D01*
%TO.C,Q2*%
X129275000Y-148000000D02*
X129275000Y-144100000D01*
X129275000Y-144100000D02*
X125625000Y-144100000D01*
X125625000Y-148000000D02*
X125625000Y-144100000D01*
X125625000Y-148000000D02*
X129275000Y-148000000D01*
%TO.C,Q6*%
X105625000Y-90350000D02*
X105625000Y-86450000D01*
X105625000Y-86450000D02*
X101975000Y-86450000D01*
X101975000Y-90350000D02*
X101975000Y-86450000D01*
X101975000Y-90350000D02*
X105625000Y-90350000D01*
%TO.C,R69*%
X153685255Y-94120000D02*
X155545255Y-94120000D01*
X153685255Y-93180000D02*
X153685255Y-94120000D01*
X155545255Y-93180000D02*
X153685255Y-93180000D01*
X155545255Y-94120000D02*
X155545255Y-93180000D01*
%TO.C,R70*%
X155559289Y-92205000D02*
X153699289Y-92205000D01*
X155559289Y-93145000D02*
X155559289Y-92205000D01*
X153699289Y-93145000D02*
X155559289Y-93145000D01*
X153699289Y-92205000D02*
X153699289Y-93145000D01*
%TO.C,R16*%
X123620000Y-147480000D02*
X123620000Y-145620000D01*
X122680000Y-147480000D02*
X123620000Y-147480000D01*
X122680000Y-145620000D02*
X122680000Y-147480000D01*
X123620000Y-145620000D02*
X122680000Y-145620000D01*
%TO.C,R133*%
X142555000Y-79545000D02*
X142555000Y-81405000D01*
X143495000Y-79545000D02*
X142555000Y-79545000D01*
X143495000Y-81405000D02*
X143495000Y-79545000D01*
X142555000Y-81405000D02*
X143495000Y-81405000D01*
%TO.C,R134*%
X141670000Y-79270000D02*
X143530000Y-79270000D01*
X141670000Y-78330000D02*
X141670000Y-79270000D01*
X143530000Y-78330000D02*
X141670000Y-78330000D01*
X143530000Y-79270000D02*
X143530000Y-78330000D01*
%TO.C,R17*%
X122670000Y-147480000D02*
X122670000Y-145620000D01*
X121730000Y-147480000D02*
X122670000Y-147480000D01*
X121730000Y-145620000D02*
X121730000Y-147480000D01*
X122670000Y-145620000D02*
X121730000Y-145620000D01*
%TO.C,R92*%
X111670000Y-140595000D02*
X111670000Y-138735000D01*
X110730000Y-140595000D02*
X111670000Y-140595000D01*
X110730000Y-138735000D02*
X110730000Y-140595000D01*
X111670000Y-138735000D02*
X110730000Y-138735000D01*
%TO.C,R94*%
X112580000Y-137780000D02*
X110720000Y-137780000D01*
X112580000Y-138720000D02*
X112580000Y-137780000D01*
X110720000Y-138720000D02*
X112580000Y-138720000D01*
X110720000Y-137780000D02*
X110720000Y-138720000D01*
%TO.C,R102*%
X147780000Y-114015000D02*
X147780000Y-115875000D01*
X148720000Y-114015000D02*
X147780000Y-114015000D01*
X148720000Y-115875000D02*
X148720000Y-114015000D01*
X147780000Y-115875000D02*
X148720000Y-115875000D01*
%TO.C,R67*%
X149955000Y-93220000D02*
X151815000Y-93220000D01*
X149955000Y-92280000D02*
X149955000Y-93220000D01*
X151815000Y-92280000D02*
X149955000Y-92280000D01*
X151815000Y-93220000D02*
X151815000Y-92280000D01*
%TO.C,R68*%
X151830000Y-93230000D02*
X149970000Y-93230000D01*
X151830000Y-94170000D02*
X151830000Y-93230000D01*
X149970000Y-94170000D02*
X151830000Y-94170000D01*
X149970000Y-93230000D02*
X149970000Y-94170000D01*
%TO.C,R89*%
X110120000Y-140595000D02*
X110120000Y-138735000D01*
X109180000Y-140595000D02*
X110120000Y-140595000D01*
X109180000Y-138735000D02*
X109180000Y-140595000D01*
X110120000Y-138735000D02*
X109180000Y-138735000D01*
%TO.C,R87*%
X109930000Y-141470000D02*
X109930000Y-143330000D01*
X110870000Y-141470000D02*
X109930000Y-141470000D01*
X110870000Y-143330000D02*
X110870000Y-141470000D01*
X109930000Y-143330000D02*
X110870000Y-143330000D01*
%TO.C,R83*%
X100070000Y-87920000D02*
X101930000Y-87920000D01*
X100070000Y-86980000D02*
X100070000Y-87920000D01*
X101930000Y-86980000D02*
X100070000Y-86980000D01*
X101930000Y-87920000D02*
X101930000Y-86980000D01*
%TO.C,R33*%
X102780000Y-133030000D02*
X100920000Y-133030000D01*
X102780000Y-133970000D02*
X102780000Y-133030000D01*
X100920000Y-133970000D02*
X102780000Y-133970000D01*
X100920000Y-133030000D02*
X100920000Y-133970000D01*
%TO.C,R34*%
X102780000Y-134730000D02*
X100920000Y-134730000D01*
X102780000Y-135670000D02*
X102780000Y-134730000D01*
X100920000Y-135670000D02*
X102780000Y-135670000D01*
X100920000Y-134730000D02*
X100920000Y-135670000D01*
%TO.C,R35*%
X102780000Y-135580000D02*
X100920000Y-135580000D01*
X102780000Y-136520000D02*
X102780000Y-135580000D01*
X100920000Y-136520000D02*
X102780000Y-136520000D01*
X100920000Y-135580000D02*
X100920000Y-136520000D01*
%TO.C,R86*%
X95045000Y-147890000D02*
X95045000Y-146030000D01*
X94105000Y-147890000D02*
X95045000Y-147890000D01*
X94105000Y-146030000D02*
X94105000Y-147890000D01*
X95045000Y-146030000D02*
X94105000Y-146030000D01*
%TO.C,R88*%
X110020000Y-144670000D02*
X111880000Y-144670000D01*
X110020000Y-143730000D02*
X110020000Y-144670000D01*
X111880000Y-143730000D02*
X110020000Y-143730000D01*
X111880000Y-144670000D02*
X111880000Y-143730000D01*
%TO.C,R128*%
X140385000Y-84660000D02*
X142245000Y-84660000D01*
X140385000Y-83720000D02*
X140385000Y-84660000D01*
X142245000Y-83720000D02*
X140385000Y-83720000D01*
X142245000Y-84660000D02*
X142245000Y-83720000D01*
%TO.C,SP1*%
X92556999Y-144443500D02*
G75*
G03*
X92556999Y-144443500I-3000000J0D01*
G01*
%TO.C,U50*%
X138524999Y-82800001D02*
X138524999Y-79150001D01*
X142524999Y-82800001D02*
X138524999Y-82800001D01*
X142524999Y-79150001D02*
X142524999Y-82800001D01*
X142524999Y-79150001D02*
X138524999Y-79150001D01*
%TO.C,U2*%
X95350000Y-83550000D02*
X89850000Y-83550000D01*
X89850000Y-83550000D02*
X89850000Y-75850000D01*
X89850000Y-75850000D02*
X95350000Y-75850000D01*
X95350000Y-75850000D02*
X95350000Y-83550000D01*
%TO.C,U27*%
X114570000Y-72960000D02*
X114570000Y-75460000D01*
X114570000Y-75460000D02*
X116870000Y-75460000D01*
X116870000Y-75460000D02*
X116870000Y-72960000D01*
X116870000Y-72960000D02*
X114570000Y-72960000D01*
%TO.C,U20*%
X133953449Y-72921573D02*
X133953449Y-75421573D01*
X133953449Y-75421573D02*
X136253449Y-75421573D01*
X136253449Y-75421573D02*
X136253449Y-72921573D01*
X136253449Y-72921573D02*
X133953449Y-72921573D01*
%TO.C,C29*%
X86230000Y-121430000D02*
X84370000Y-121430000D01*
X86230000Y-122370000D02*
X86230000Y-121430000D01*
X84370000Y-122370000D02*
X86230000Y-122370000D01*
X84370000Y-121430000D02*
X84370000Y-122370000D01*
%TO.C,R23*%
X84370000Y-123270000D02*
X86230000Y-123270000D01*
X84370000Y-122330000D02*
X84370000Y-123270000D01*
X86230000Y-122330000D02*
X84370000Y-122330000D01*
X86230000Y-123270000D02*
X86230000Y-122330000D01*
%TO.C,R24*%
X84370000Y-124170000D02*
X86230000Y-124170000D01*
X84370000Y-123230000D02*
X84370000Y-124170000D01*
X86230000Y-123230000D02*
X84370000Y-123230000D01*
X86230000Y-124170000D02*
X86230000Y-123230000D01*
%TO.C,U1*%
X92100000Y-87800000D02*
X92100000Y-84000000D01*
X95100000Y-87800000D02*
X95100000Y-84000000D01*
X95100000Y-84000000D02*
X92100000Y-84000000D01*
X95100000Y-87800000D02*
X92100000Y-87800000D01*
%TO.C,C158*%
X153170000Y-111405000D02*
X153170000Y-109545000D01*
X152230000Y-111405000D02*
X153170000Y-111405000D01*
X152230000Y-109545000D02*
X152230000Y-111405000D01*
X153170000Y-109545000D02*
X152230000Y-109545000D01*
%TO.C,C159*%
X151170000Y-111405000D02*
X151170000Y-109545000D01*
X150230000Y-111405000D02*
X151170000Y-111405000D01*
X150230000Y-109545000D02*
X150230000Y-111405000D01*
X151170000Y-109545000D02*
X150230000Y-109545000D01*
%TO.C,R96*%
X114770000Y-141570000D02*
X116630000Y-141570000D01*
X114770000Y-140630000D02*
X114770000Y-141570000D01*
X116630000Y-140630000D02*
X114770000Y-140630000D01*
X116630000Y-141570000D02*
X116630000Y-140630000D01*
%TO.C,R95*%
X114770000Y-139570000D02*
X116630000Y-139570000D01*
X114770000Y-138630000D02*
X114770000Y-139570000D01*
X116630000Y-138630000D02*
X114770000Y-138630000D01*
X116630000Y-139570000D02*
X116630000Y-138630000D01*
%TO.C,R90*%
X114755000Y-140570000D02*
X116615000Y-140570000D01*
X114755000Y-139630000D02*
X114755000Y-140570000D01*
X116615000Y-139630000D02*
X114755000Y-139630000D01*
X116615000Y-140570000D02*
X116615000Y-139630000D01*
%TO.C,R93*%
X114770000Y-143570000D02*
X116630000Y-143570000D01*
X114770000Y-142630000D02*
X114770000Y-143570000D01*
X116630000Y-142630000D02*
X114770000Y-142630000D01*
X116630000Y-143570000D02*
X116630000Y-142630000D01*
%TO.C,R91*%
X114770000Y-142570000D02*
X116630000Y-142570000D01*
X114770000Y-141630000D02*
X114770000Y-142570000D01*
X116630000Y-141630000D02*
X114770000Y-141630000D01*
X116630000Y-142570000D02*
X116630000Y-141630000D01*
%TO.C,C127*%
X93380000Y-129205000D02*
X91520000Y-129205000D01*
X93380000Y-130145000D02*
X93380000Y-129205000D01*
X91520000Y-130145000D02*
X93380000Y-130145000D01*
X91520000Y-129205000D02*
X91520000Y-130145000D01*
%TO.C,C128*%
X89670000Y-128245000D02*
X91530000Y-128245000D01*
X89670000Y-127305000D02*
X89670000Y-128245000D01*
X91530000Y-127305000D02*
X89670000Y-127305000D01*
X91530000Y-128245000D02*
X91530000Y-127305000D01*
%TO.C,C90*%
X156410000Y-84690000D02*
X156550000Y-84690000D01*
X156410000Y-86110000D02*
X156550000Y-86110000D01*
X154190000Y-86110000D02*
X154050000Y-86110000D01*
X154190000Y-84690000D02*
X154050000Y-84690000D01*
X154190000Y-86110000D02*
X156410000Y-86110000D01*
X156550000Y-86110000D02*
X156550000Y-84690000D01*
X156410000Y-84690000D02*
X154190000Y-84690000D01*
X154050000Y-84690000D02*
X154050000Y-86110000D01*
%TO.C,C43*%
X117486942Y-85930000D02*
X115626942Y-85930000D01*
X117486942Y-86870000D02*
X117486942Y-85930000D01*
X115626942Y-86870000D02*
X117486942Y-86870000D01*
X115626942Y-85930000D02*
X115626942Y-86870000D01*
%TO.C,C47*%
X118430000Y-89420000D02*
X118430000Y-91280000D01*
X119370000Y-89420000D02*
X118430000Y-89420000D01*
X119370000Y-91280000D02*
X119370000Y-89420000D01*
X118430000Y-91280000D02*
X119370000Y-91280000D01*
%TO.C,C51*%
X121230000Y-89070000D02*
X121230000Y-90930000D01*
X122170000Y-89070000D02*
X121230000Y-89070000D01*
X122170000Y-90930000D02*
X122170000Y-89070000D01*
X121230000Y-90930000D02*
X122170000Y-90930000D01*
%TO.C,C59*%
X125930000Y-89070000D02*
X125930000Y-90930000D01*
X126870000Y-89070000D02*
X125930000Y-89070000D01*
X126870000Y-90930000D02*
X126870000Y-89070000D01*
X125930000Y-90930000D02*
X126870000Y-90930000D01*
%TO.C,C61*%
X123630000Y-89070000D02*
X123630000Y-90930000D01*
X124570000Y-89070000D02*
X123630000Y-89070000D01*
X124570000Y-90930000D02*
X124570000Y-89070000D01*
X123630000Y-90930000D02*
X124570000Y-90930000D01*
%TO.C,R38*%
X117430000Y-91770000D02*
X117430000Y-93630000D01*
X118370000Y-91770000D02*
X117430000Y-91770000D01*
X118370000Y-93630000D02*
X118370000Y-91770000D01*
X117430000Y-93630000D02*
X118370000Y-93630000D01*
%TO.C,R39*%
X119270000Y-93630000D02*
X119270000Y-91770000D01*
X118330000Y-93630000D02*
X119270000Y-93630000D01*
X118330000Y-91770000D02*
X118330000Y-93630000D01*
X119270000Y-91770000D02*
X118330000Y-91770000D01*
%TO.C,R41*%
X115626942Y-87870000D02*
X117486942Y-87870000D01*
X115626942Y-86930000D02*
X115626942Y-87870000D01*
X117486942Y-86930000D02*
X115626942Y-86930000D01*
X117486942Y-87870000D02*
X117486942Y-86930000D01*
%TO.C,R43*%
X115626942Y-88870000D02*
X117486942Y-88870000D01*
X115626942Y-87930000D02*
X115626942Y-88870000D01*
X117486942Y-87930000D02*
X115626942Y-87930000D01*
X117486942Y-88870000D02*
X117486942Y-87930000D01*
%TO.C,R45*%
X115626942Y-89870000D02*
X117486942Y-89870000D01*
X115626942Y-88930000D02*
X115626942Y-89870000D01*
X117486942Y-88930000D02*
X115626942Y-88930000D01*
X117486942Y-89870000D02*
X117486942Y-88930000D01*
%TO.C,R46*%
X115676942Y-84870000D02*
X117536942Y-84870000D01*
X115676942Y-83930000D02*
X115676942Y-84870000D01*
X117536942Y-83930000D02*
X115676942Y-83930000D01*
X117536942Y-84870000D02*
X117536942Y-83930000D01*
%TO.C,R48*%
X115676943Y-85870000D02*
X117536943Y-85870000D01*
X115676943Y-84930000D02*
X115676943Y-85870000D01*
X117536943Y-84930000D02*
X115676943Y-84930000D01*
X117536943Y-85870000D02*
X117536943Y-84930000D01*
%TO.C,R49*%
X128596942Y-80854860D02*
X126736942Y-80854860D01*
X128596942Y-81794860D02*
X128596942Y-80854860D01*
X126736942Y-81794860D02*
X128596942Y-81794860D01*
X126736942Y-80854860D02*
X126736942Y-81794860D01*
%TO.C,R53*%
X118730000Y-78015000D02*
X118730000Y-79875000D01*
X119670000Y-78015000D02*
X118730000Y-78015000D01*
X119670000Y-79875000D02*
X119670000Y-78015000D01*
X118730000Y-79875000D02*
X119670000Y-79875000D01*
%TO.C,R55*%
X117730000Y-78015000D02*
X117730000Y-79875000D01*
X118670000Y-78015000D02*
X117730000Y-78015000D01*
X118670000Y-79875000D02*
X118670000Y-78015000D01*
X117730000Y-79875000D02*
X118670000Y-79875000D01*
%TO.C,R57*%
X116730000Y-78015000D02*
X116730000Y-79875000D01*
X117670000Y-78015000D02*
X116730000Y-78015000D01*
X117670000Y-79875000D02*
X117670000Y-78015000D01*
X116730000Y-79875000D02*
X117670000Y-79875000D01*
%TO.C,R59*%
X115730000Y-78015000D02*
X115730000Y-79875000D01*
X116670000Y-78015000D02*
X115730000Y-78015000D01*
X116670000Y-79875000D02*
X116670000Y-78015000D01*
X115730000Y-79875000D02*
X116670000Y-79875000D01*
%TO.C,R60*%
X128596943Y-88080000D02*
X126736943Y-88080000D01*
X128596943Y-89020000D02*
X128596943Y-88080000D01*
X126736943Y-89020000D02*
X128596943Y-89020000D01*
X126736943Y-88080000D02*
X126736943Y-89020000D01*
%TO.C,Q7*%
X99400000Y-90350000D02*
X101800000Y-90350000D01*
X101800000Y-90350000D02*
X101800000Y-88050000D01*
X101800000Y-88050000D02*
X99400000Y-88050000D01*
X99400000Y-88050000D02*
X99400000Y-90350000D01*
%TO.C,C72*%
X131905736Y-62811421D02*
X131905736Y-64671421D01*
X132845736Y-62811421D02*
X131905736Y-62811421D01*
X132845736Y-64671421D02*
X132845736Y-62811421D01*
X131905736Y-64671421D02*
X132845736Y-64671421D01*
%TO.C,C70*%
X138680000Y-66080000D02*
X136820000Y-66080000D01*
X138680000Y-67020000D02*
X138680000Y-66080000D01*
X136820000Y-67020000D02*
X138680000Y-67020000D01*
X136820000Y-66080000D02*
X136820000Y-67020000D01*
%TO.C,C73*%
X132930000Y-62811421D02*
X132930000Y-64671421D01*
X133870000Y-62811421D02*
X132930000Y-62811421D01*
X133870000Y-64671421D02*
X133870000Y-62811421D01*
X132930000Y-64671421D02*
X133870000Y-64671421D01*
%TO.C,C71*%
X138680000Y-65080000D02*
X136820000Y-65080000D01*
X138680000Y-66020000D02*
X138680000Y-65080000D01*
X136820000Y-66020000D02*
X138680000Y-66020000D01*
X136820000Y-65080000D02*
X136820000Y-66020000D01*
%TO.C,C75*%
X130880000Y-62811421D02*
X130880000Y-64671421D01*
X131820000Y-62811421D02*
X130880000Y-62811421D01*
X131820000Y-64671421D02*
X131820000Y-62811421D01*
X130880000Y-64671421D02*
X131820000Y-64671421D01*
%TO.C,C74*%
X138680000Y-67080000D02*
X136820000Y-67080000D01*
X138680000Y-68020000D02*
X138680000Y-67080000D01*
X136820000Y-68020000D02*
X138680000Y-68020000D01*
X136820000Y-67080000D02*
X136820000Y-68020000D01*
%TO.C,C81*%
X111480000Y-62870000D02*
X111480000Y-64730000D01*
X112420000Y-62870000D02*
X111480000Y-62870000D01*
X112420000Y-64730000D02*
X112420000Y-62870000D01*
X111480000Y-64730000D02*
X112420000Y-64730000D01*
%TO.C,C82*%
X119280000Y-65080000D02*
X117420000Y-65080000D01*
X119280000Y-66020000D02*
X119280000Y-65080000D01*
X117420000Y-66020000D02*
X119280000Y-66020000D01*
X117420000Y-65080000D02*
X117420000Y-66020000D01*
%TO.C,C84*%
X113480000Y-62870000D02*
X113480000Y-64730000D01*
X114420000Y-62870000D02*
X113480000Y-62870000D01*
X114420000Y-64730000D02*
X114420000Y-62870000D01*
X113480000Y-64730000D02*
X114420000Y-64730000D01*
%TO.C,C85*%
X119280000Y-66080001D02*
X117420000Y-66080001D01*
X119280000Y-67020001D02*
X119280000Y-66080001D01*
X117420000Y-67020001D02*
X119280000Y-67020001D01*
X117420000Y-66080001D02*
X117420000Y-67020001D01*
%TO.C,C87*%
X112480000Y-62870000D02*
X112480000Y-64730000D01*
X113420000Y-62870000D02*
X112480000Y-62870000D01*
X113420000Y-64730000D02*
X113420000Y-62870000D01*
X112480000Y-64730000D02*
X113420000Y-64730000D01*
%TO.C,C88*%
X119280000Y-67080000D02*
X117420000Y-67080000D01*
X119280000Y-68020000D02*
X119280000Y-67080000D01*
X117420000Y-68020000D02*
X119280000Y-68020000D01*
X117420000Y-67080000D02*
X117420000Y-68020000D01*
%TO.C,C164*%
X142914687Y-125954674D02*
X144774687Y-125954674D01*
X142914687Y-125014674D02*
X142914687Y-125954674D01*
X144774687Y-125014674D02*
X142914687Y-125014674D01*
X144774687Y-125954674D02*
X144774687Y-125014674D01*
%TO.C,C165*%
X139741787Y-126994767D02*
X141601787Y-126994767D01*
X139741787Y-126054767D02*
X139741787Y-126994767D01*
X141601787Y-126054767D02*
X139741787Y-126054767D01*
X141601787Y-126994767D02*
X141601787Y-126054767D01*
%TO.C,C167*%
X139735609Y-126046598D02*
X141595609Y-126046598D01*
X139735609Y-125106598D02*
X139735609Y-126046598D01*
X141595609Y-125106598D02*
X139735609Y-125106598D01*
X141595609Y-126046598D02*
X141595609Y-125106598D01*
%TO.C,C166*%
X142914687Y-126873913D02*
X144774687Y-126873913D01*
X142914687Y-125933913D02*
X142914687Y-126873913D01*
X144774687Y-125933913D02*
X142914687Y-125933913D01*
X144774687Y-126873913D02*
X144774687Y-125933913D01*
%TO.C,C170*%
X140001787Y-129476137D02*
X140001787Y-131336137D01*
X140941787Y-129476137D02*
X140001787Y-129476137D01*
X140941787Y-131336137D02*
X140941787Y-129476137D01*
X140001787Y-131336137D02*
X140941787Y-131336137D01*
%TO.C,L4*%
X139910000Y-84860001D02*
X139910000Y-85000001D01*
X138490000Y-84860001D02*
X138490000Y-85000001D01*
X138490000Y-82640001D02*
X138490000Y-82500001D01*
X139910000Y-82640001D02*
X139910000Y-82500001D01*
X138490000Y-82640001D02*
X138490000Y-84860001D01*
X138490000Y-85000001D02*
X139910000Y-85000001D01*
X139910000Y-84860001D02*
X139910000Y-82640001D01*
X139910000Y-82500001D02*
X138490000Y-82500001D01*
%TO.C,L7*%
X136410000Y-95210000D02*
X136410000Y-95350000D01*
X134990000Y-95210000D02*
X134990000Y-95350000D01*
X134990000Y-92990000D02*
X134990000Y-92850000D01*
X136410000Y-92990000D02*
X136410000Y-92850000D01*
X134990000Y-92990000D02*
X134990000Y-95210000D01*
X134990000Y-95350000D02*
X136410000Y-95350000D01*
X136410000Y-95210000D02*
X136410000Y-92990000D01*
X136410000Y-92850000D02*
X134990000Y-92850000D01*
%TO.C,Q14*%
X136300000Y-95750000D02*
X138700000Y-95750000D01*
X138700000Y-95750000D02*
X138700000Y-93450000D01*
X138700000Y-93450000D02*
X136300000Y-93450000D01*
X136300000Y-93450000D02*
X136300000Y-95750000D01*
%TO.C,R139*%
X139130000Y-89819999D02*
X139130000Y-91679999D01*
X140070000Y-89819999D02*
X139130000Y-89819999D01*
X140070000Y-91679999D02*
X140070000Y-89819999D01*
X139130000Y-91679999D02*
X140070000Y-91679999D01*
%TO.C,C215*%
X134910000Y-95210000D02*
X134910000Y-95350000D01*
X133490000Y-95210000D02*
X133490000Y-95350000D01*
X133490000Y-92990000D02*
X133490000Y-92850000D01*
X134910000Y-92990000D02*
X134910000Y-92850000D01*
X133490000Y-92990000D02*
X133490000Y-95210000D01*
X133490000Y-95350000D02*
X134910000Y-95350000D01*
X134910000Y-95210000D02*
X134910000Y-92990000D01*
X134910000Y-92850000D02*
X133490000Y-92850000D01*
%TO.C,U53*%
X135050000Y-93075000D02*
X135050000Y-89425000D01*
X139050000Y-93075000D02*
X135050000Y-93075000D01*
X139050000Y-89425000D02*
X139050000Y-93075000D01*
X139050000Y-89425000D02*
X135050000Y-89425000D01*
%TO.C,R140*%
X138170001Y-89520000D02*
X140030001Y-89520000D01*
X138170001Y-88580000D02*
X138170001Y-89520000D01*
X140030001Y-88580000D02*
X138170001Y-88580000D01*
X140030001Y-89520000D02*
X140030001Y-88580000D01*
%TO.C,R141*%
X139020000Y-93070000D02*
X140880000Y-93070000D01*
X139020000Y-92130000D02*
X139020000Y-93070000D01*
X140880000Y-92130000D02*
X139020000Y-92130000D01*
X140880000Y-93070000D02*
X140880000Y-92130000D01*
%TO.C,C210*%
X138730000Y-92630001D02*
X136870000Y-92630001D01*
X138730000Y-93570001D02*
X138730000Y-92630001D01*
X136870000Y-93570001D02*
X138730000Y-93570001D01*
X136870000Y-92630001D02*
X136870000Y-93570001D01*
%TO.C,C205*%
X135010000Y-92060002D02*
X135010000Y-92200002D01*
X133590000Y-92060002D02*
X133590000Y-92200002D01*
X133590000Y-89840002D02*
X133590000Y-89700002D01*
X135010000Y-89840002D02*
X135010000Y-89700002D01*
X133590000Y-89840002D02*
X133590000Y-92060002D01*
X133590000Y-92200002D02*
X135010000Y-92200002D01*
X135010000Y-92060002D02*
X135010000Y-89840002D01*
X135010000Y-89700002D02*
X133590000Y-89700002D01*
%TD*%
M02*
