%TF.GenerationSoftware,KiCad,Pcbnew,5.1.9+dfsg1-1*%
%TF.CreationDate,2022-05-02T11:56:59+02:00*%
%TF.ProjectId,kria-k26-devboard,6b726961-2d6b-4323-962d-646576626f61,rev?*%
%TF.SameCoordinates,Original*%
%TF.FileFunction,OtherDrawing,Comment*%
%FSLAX46Y46*%
G04 Gerber Fmt 4.6, Leading zero omitted, Abs format (unit mm)*
G04 Created by KiCad (PCBNEW 5.1.9+dfsg1-1) date 2022-05-02 11:56:59 commit 95c84ef*
%MOMM*%
%LPD*%
G01*
G04 APERTURE LIST*
%ADD10C,0.150000*%
%TA.AperFunction,Profile*%
%ADD11C,0.100000*%
%TD*%
%ADD12C,0.120000*%
%ADD13C,3.000000*%
%ADD14C,0.100000*%
G04 APERTURE END LIST*
D10*
X71379761Y-122902379D02*
X70808333Y-122902379D01*
X71094047Y-122902379D02*
X71094047Y-121902379D01*
X70998809Y-122045237D01*
X70903571Y-122140475D01*
X70808333Y-122188094D01*
X71855952Y-122854760D02*
X71855952Y-122902379D01*
X71808333Y-122997618D01*
X71760714Y-123045237D01*
X72475000Y-121902379D02*
X72570238Y-121902379D01*
X72665476Y-121949999D01*
X72713095Y-121997618D01*
X72760714Y-122092856D01*
X72808333Y-122283332D01*
X72808333Y-122521427D01*
X72760714Y-122711903D01*
X72713095Y-122807141D01*
X72665476Y-122854760D01*
X72570238Y-122902379D01*
X72475000Y-122902379D01*
X72379761Y-122854760D01*
X72332142Y-122807141D01*
X72284523Y-122711903D01*
X72236904Y-122521427D01*
X72236904Y-122283332D01*
X72284523Y-122092856D01*
X72332142Y-121997618D01*
X72379761Y-121949999D01*
X72475000Y-121902379D01*
X73427380Y-121902379D02*
X73522619Y-121902379D01*
X73617857Y-121949999D01*
X73665476Y-121997618D01*
X73713095Y-122092856D01*
X73760714Y-122283332D01*
X73760714Y-122521427D01*
X73713095Y-122711903D01*
X73665476Y-122807141D01*
X73617857Y-122854760D01*
X73522619Y-122902379D01*
X73427380Y-122902379D01*
X73332142Y-122854760D01*
X73284523Y-122807141D01*
X73236904Y-122711903D01*
X73189285Y-122521427D01*
X73189285Y-122283332D01*
X73236904Y-122092856D01*
X73284523Y-121997618D01*
X73332142Y-121949999D01*
X73427380Y-121902379D01*
X74379761Y-121902379D02*
X74475000Y-121902379D01*
X74570238Y-121949999D01*
X74617857Y-121997618D01*
X74665476Y-122092856D01*
X74713095Y-122283332D01*
X74713095Y-122521427D01*
X74665476Y-122711903D01*
X74617857Y-122807141D01*
X74570238Y-122854760D01*
X74475000Y-122902379D01*
X74379761Y-122902379D01*
X74284523Y-122854760D01*
X74236904Y-122807141D01*
X74189285Y-122711903D01*
X74141666Y-122521427D01*
X74141666Y-122283332D01*
X74189285Y-122092856D01*
X74236904Y-121997618D01*
X74284523Y-121949999D01*
X74379761Y-121902379D01*
X75903571Y-122902379D02*
X75903571Y-122235713D01*
X75903571Y-122330951D02*
X75951190Y-122283332D01*
X76046428Y-122235713D01*
X76189285Y-122235713D01*
X76284523Y-122283332D01*
X76332142Y-122378570D01*
X76332142Y-122902379D01*
X76332142Y-122378570D02*
X76379761Y-122283332D01*
X76475000Y-122235713D01*
X76617857Y-122235713D01*
X76713095Y-122283332D01*
X76760714Y-122378570D01*
X76760714Y-122902379D01*
X77236904Y-122902379D02*
X77236904Y-122235713D01*
X77236904Y-122330951D02*
X77284523Y-122283332D01*
X77379761Y-122235713D01*
X77522619Y-122235713D01*
X77617857Y-122283332D01*
X77665476Y-122378570D01*
X77665476Y-122902379D01*
X77665476Y-122378570D02*
X77713095Y-122283332D01*
X77808333Y-122235713D01*
X77951190Y-122235713D01*
X78046428Y-122283332D01*
X78094047Y-122378570D01*
X78094047Y-122902379D01*
X73975000Y-121149999D02*
X74975000Y-121149999D01*
X73975000Y-116975000D02*
X73975000Y-121736420D01*
X74975000Y-116975000D02*
X74975000Y-121736420D01*
X74975000Y-121149999D02*
X73848496Y-121736420D01*
X74975000Y-121149999D02*
X73848496Y-120563578D01*
X73975000Y-121149999D02*
X75101504Y-121736420D01*
X73975000Y-121149999D02*
X75101504Y-120563578D01*
X196552380Y-106047619D02*
X196552380Y-106619047D01*
X196552380Y-106333333D02*
X195552380Y-106333333D01*
X195695238Y-106428571D01*
X195790476Y-106523809D01*
X195838095Y-106619047D01*
X195552380Y-105428571D02*
X195552380Y-105333333D01*
X195600000Y-105238095D01*
X195647619Y-105190476D01*
X195742857Y-105142857D01*
X195933333Y-105095238D01*
X196171428Y-105095238D01*
X196361904Y-105142857D01*
X196457142Y-105190476D01*
X196504761Y-105238095D01*
X196552380Y-105333333D01*
X196552380Y-105428571D01*
X196504761Y-105523809D01*
X196457142Y-105571428D01*
X196361904Y-105619047D01*
X196171428Y-105666666D01*
X195933333Y-105666666D01*
X195742857Y-105619047D01*
X195647619Y-105571428D01*
X195600000Y-105523809D01*
X195552380Y-105428571D01*
X195552380Y-104476190D02*
X195552380Y-104380952D01*
X195600000Y-104285714D01*
X195647619Y-104238095D01*
X195742857Y-104190476D01*
X195933333Y-104142857D01*
X196171428Y-104142857D01*
X196361904Y-104190476D01*
X196457142Y-104238095D01*
X196504761Y-104285714D01*
X196552380Y-104380952D01*
X196552380Y-104476190D01*
X196504761Y-104571428D01*
X196457142Y-104619047D01*
X196361904Y-104666666D01*
X196171428Y-104714285D01*
X195933333Y-104714285D01*
X195742857Y-104666666D01*
X195647619Y-104619047D01*
X195600000Y-104571428D01*
X195552380Y-104476190D01*
X196457142Y-103714285D02*
X196504761Y-103666666D01*
X196552380Y-103714285D01*
X196504761Y-103761904D01*
X196457142Y-103714285D01*
X196552380Y-103714285D01*
X195552380Y-103047619D02*
X195552380Y-102952380D01*
X195600000Y-102857142D01*
X195647619Y-102809523D01*
X195742857Y-102761904D01*
X195933333Y-102714285D01*
X196171428Y-102714285D01*
X196361904Y-102761904D01*
X196457142Y-102809523D01*
X196504761Y-102857142D01*
X196552380Y-102952380D01*
X196552380Y-103047619D01*
X196504761Y-103142857D01*
X196457142Y-103190476D01*
X196361904Y-103238095D01*
X196171428Y-103285714D01*
X195933333Y-103285714D01*
X195742857Y-103238095D01*
X195647619Y-103190476D01*
X195600000Y-103142857D01*
X195552380Y-103047619D01*
X195552380Y-102095238D02*
X195552380Y-102000000D01*
X195600000Y-101904761D01*
X195647619Y-101857142D01*
X195742857Y-101809523D01*
X195933333Y-101761904D01*
X196171428Y-101761904D01*
X196361904Y-101809523D01*
X196457142Y-101857142D01*
X196504761Y-101904761D01*
X196552380Y-102000000D01*
X196552380Y-102095238D01*
X196504761Y-102190476D01*
X196457142Y-102238095D01*
X196361904Y-102285714D01*
X196171428Y-102333333D01*
X195933333Y-102333333D01*
X195742857Y-102285714D01*
X195647619Y-102238095D01*
X195600000Y-102190476D01*
X195552380Y-102095238D01*
X195552380Y-101142857D02*
X195552380Y-101047619D01*
X195600000Y-100952380D01*
X195647619Y-100904761D01*
X195742857Y-100857142D01*
X195933333Y-100809523D01*
X196171428Y-100809523D01*
X196361904Y-100857142D01*
X196457142Y-100904761D01*
X196504761Y-100952380D01*
X196552380Y-101047619D01*
X196552380Y-101142857D01*
X196504761Y-101238095D01*
X196457142Y-101285714D01*
X196361904Y-101333333D01*
X196171428Y-101380952D01*
X195933333Y-101380952D01*
X195742857Y-101333333D01*
X195647619Y-101285714D01*
X195600000Y-101238095D01*
X195552380Y-101142857D01*
X196552380Y-99619047D02*
X195885714Y-99619047D01*
X195980952Y-99619047D02*
X195933333Y-99571428D01*
X195885714Y-99476190D01*
X195885714Y-99333333D01*
X195933333Y-99238095D01*
X196028571Y-99190476D01*
X196552380Y-99190476D01*
X196028571Y-99190476D02*
X195933333Y-99142857D01*
X195885714Y-99047619D01*
X195885714Y-98904761D01*
X195933333Y-98809523D01*
X196028571Y-98761904D01*
X196552380Y-98761904D01*
X196552380Y-98285714D02*
X195885714Y-98285714D01*
X195980952Y-98285714D02*
X195933333Y-98238095D01*
X195885714Y-98142857D01*
X195885714Y-98000000D01*
X195933333Y-97904761D01*
X196028571Y-97857142D01*
X196552380Y-97857142D01*
X196028571Y-97857142D02*
X195933333Y-97809523D01*
X195885714Y-97714285D01*
X195885714Y-97571428D01*
X195933333Y-97476190D01*
X196028571Y-97428571D01*
X196552380Y-97428571D01*
X194800000Y-152000000D02*
X194800000Y-52000000D01*
X192000000Y-152000000D02*
X195386421Y-152000000D01*
X192000000Y-52000000D02*
X195386421Y-52000000D01*
X194800000Y-52000000D02*
X195386421Y-53126504D01*
X194800000Y-52000000D02*
X194213579Y-53126504D01*
X194800000Y-152000000D02*
X195386421Y-150873496D01*
X194800000Y-152000000D02*
X194213579Y-150873496D01*
X98850000Y-133000000D02*
X98850000Y-111050000D01*
X186204761Y-113852380D02*
X185633333Y-113852380D01*
X185919047Y-113852380D02*
X185919047Y-112852380D01*
X185823809Y-112995238D01*
X185728571Y-113090476D01*
X185633333Y-113138095D01*
X186633333Y-113757142D02*
X186680952Y-113804761D01*
X186633333Y-113852380D01*
X186585714Y-113804761D01*
X186633333Y-113757142D01*
X186633333Y-113852380D01*
X187300000Y-112852380D02*
X187395238Y-112852380D01*
X187490476Y-112900000D01*
X187538095Y-112947619D01*
X187585714Y-113042857D01*
X187633333Y-113233333D01*
X187633333Y-113471428D01*
X187585714Y-113661904D01*
X187538095Y-113757142D01*
X187490476Y-113804761D01*
X187395238Y-113852380D01*
X187300000Y-113852380D01*
X187204761Y-113804761D01*
X187157142Y-113757142D01*
X187109523Y-113661904D01*
X187061904Y-113471428D01*
X187061904Y-113233333D01*
X187109523Y-113042857D01*
X187157142Y-112947619D01*
X187204761Y-112900000D01*
X187300000Y-112852380D01*
X188252380Y-112852380D02*
X188347619Y-112852380D01*
X188442857Y-112900000D01*
X188490476Y-112947619D01*
X188538095Y-113042857D01*
X188585714Y-113233333D01*
X188585714Y-113471428D01*
X188538095Y-113661904D01*
X188490476Y-113757142D01*
X188442857Y-113804761D01*
X188347619Y-113852380D01*
X188252380Y-113852380D01*
X188157142Y-113804761D01*
X188109523Y-113757142D01*
X188061904Y-113661904D01*
X188014285Y-113471428D01*
X188014285Y-113233333D01*
X188061904Y-113042857D01*
X188109523Y-112947619D01*
X188157142Y-112900000D01*
X188252380Y-112852380D01*
X189204761Y-112852380D02*
X189300000Y-112852380D01*
X189395238Y-112900000D01*
X189442857Y-112947619D01*
X189490476Y-113042857D01*
X189538095Y-113233333D01*
X189538095Y-113471428D01*
X189490476Y-113661904D01*
X189442857Y-113757142D01*
X189395238Y-113804761D01*
X189300000Y-113852380D01*
X189204761Y-113852380D01*
X189109523Y-113804761D01*
X189061904Y-113757142D01*
X189014285Y-113661904D01*
X188966666Y-113471428D01*
X188966666Y-113233333D01*
X189014285Y-113042857D01*
X189061904Y-112947619D01*
X189109523Y-112900000D01*
X189204761Y-112852380D01*
X190728571Y-113852380D02*
X190728571Y-113185714D01*
X190728571Y-113280952D02*
X190776190Y-113233333D01*
X190871428Y-113185714D01*
X191014285Y-113185714D01*
X191109523Y-113233333D01*
X191157142Y-113328571D01*
X191157142Y-113852380D01*
X191157142Y-113328571D02*
X191204761Y-113233333D01*
X191300000Y-113185714D01*
X191442857Y-113185714D01*
X191538095Y-113233333D01*
X191585714Y-113328571D01*
X191585714Y-113852380D01*
X192061904Y-113852380D02*
X192061904Y-113185714D01*
X192061904Y-113280952D02*
X192109523Y-113233333D01*
X192204761Y-113185714D01*
X192347619Y-113185714D01*
X192442857Y-113233333D01*
X192490476Y-113328571D01*
X192490476Y-113852380D01*
X192490476Y-113328571D02*
X192538095Y-113233333D01*
X192633333Y-113185714D01*
X192776190Y-113185714D01*
X192871428Y-113233333D01*
X192919047Y-113328571D01*
X192919047Y-113852380D01*
X188800000Y-112100000D02*
X189800000Y-112100000D01*
X188800000Y-110900000D02*
X188800000Y-112686421D01*
X189800000Y-110900000D02*
X189800000Y-112686421D01*
X189800000Y-112100000D02*
X188673496Y-112686421D01*
X189800000Y-112100000D02*
X188673496Y-111513579D01*
X188800000Y-112100000D02*
X189926504Y-112686421D01*
X188800000Y-112100000D02*
X189926504Y-111513579D01*
X98850000Y-111050000D02*
X129300000Y-111050000D01*
X129300000Y-133000000D02*
X98850000Y-133000000D01*
X129300000Y-111050000D02*
X129300000Y-133000000D01*
X129052380Y-161052380D02*
X128480952Y-161052380D01*
X128766666Y-161052380D02*
X128766666Y-160052380D01*
X128671428Y-160195238D01*
X128576190Y-160290476D01*
X128480952Y-160338095D01*
X130004761Y-161052380D02*
X129433333Y-161052380D01*
X129719047Y-161052380D02*
X129719047Y-160052380D01*
X129623809Y-160195238D01*
X129528571Y-160290476D01*
X129433333Y-160338095D01*
X130576190Y-160480952D02*
X130480952Y-160433333D01*
X130433333Y-160385714D01*
X130385714Y-160290476D01*
X130385714Y-160242857D01*
X130433333Y-160147619D01*
X130480952Y-160100000D01*
X130576190Y-160052380D01*
X130766666Y-160052380D01*
X130861904Y-160100000D01*
X130909523Y-160147619D01*
X130957142Y-160242857D01*
X130957142Y-160290476D01*
X130909523Y-160385714D01*
X130861904Y-160433333D01*
X130766666Y-160480952D01*
X130576190Y-160480952D01*
X130480952Y-160528571D01*
X130433333Y-160576190D01*
X130385714Y-160671428D01*
X130385714Y-160861904D01*
X130433333Y-160957142D01*
X130480952Y-161004761D01*
X130576190Y-161052380D01*
X130766666Y-161052380D01*
X130861904Y-161004761D01*
X130909523Y-160957142D01*
X130957142Y-160861904D01*
X130957142Y-160671428D01*
X130909523Y-160576190D01*
X130861904Y-160528571D01*
X130766666Y-160480952D01*
X131385714Y-160957142D02*
X131433333Y-161004761D01*
X131385714Y-161052380D01*
X131338095Y-161004761D01*
X131385714Y-160957142D01*
X131385714Y-161052380D01*
X132052380Y-160052380D02*
X132147619Y-160052380D01*
X132242857Y-160100000D01*
X132290476Y-160147619D01*
X132338095Y-160242857D01*
X132385714Y-160433333D01*
X132385714Y-160671428D01*
X132338095Y-160861904D01*
X132290476Y-160957142D01*
X132242857Y-161004761D01*
X132147619Y-161052380D01*
X132052380Y-161052380D01*
X131957142Y-161004761D01*
X131909523Y-160957142D01*
X131861904Y-160861904D01*
X131814285Y-160671428D01*
X131814285Y-160433333D01*
X131861904Y-160242857D01*
X131909523Y-160147619D01*
X131957142Y-160100000D01*
X132052380Y-160052380D01*
X133004761Y-160052380D02*
X133100000Y-160052380D01*
X133195238Y-160100000D01*
X133242857Y-160147619D01*
X133290476Y-160242857D01*
X133338095Y-160433333D01*
X133338095Y-160671428D01*
X133290476Y-160861904D01*
X133242857Y-160957142D01*
X133195238Y-161004761D01*
X133100000Y-161052380D01*
X133004761Y-161052380D01*
X132909523Y-161004761D01*
X132861904Y-160957142D01*
X132814285Y-160861904D01*
X132766666Y-160671428D01*
X132766666Y-160433333D01*
X132814285Y-160242857D01*
X132861904Y-160147619D01*
X132909523Y-160100000D01*
X133004761Y-160052380D01*
X133957142Y-160052380D02*
X134052380Y-160052380D01*
X134147619Y-160100000D01*
X134195238Y-160147619D01*
X134242857Y-160242857D01*
X134290476Y-160433333D01*
X134290476Y-160671428D01*
X134242857Y-160861904D01*
X134195238Y-160957142D01*
X134147619Y-161004761D01*
X134052380Y-161052380D01*
X133957142Y-161052380D01*
X133861904Y-161004761D01*
X133814285Y-160957142D01*
X133766666Y-160861904D01*
X133719047Y-160671428D01*
X133719047Y-160433333D01*
X133766666Y-160242857D01*
X133814285Y-160147619D01*
X133861904Y-160100000D01*
X133957142Y-160052380D01*
X135480952Y-161052380D02*
X135480952Y-160385714D01*
X135480952Y-160480952D02*
X135528571Y-160433333D01*
X135623809Y-160385714D01*
X135766666Y-160385714D01*
X135861904Y-160433333D01*
X135909523Y-160528571D01*
X135909523Y-161052380D01*
X135909523Y-160528571D02*
X135957142Y-160433333D01*
X136052380Y-160385714D01*
X136195238Y-160385714D01*
X136290476Y-160433333D01*
X136338095Y-160528571D01*
X136338095Y-161052380D01*
X136814285Y-161052380D02*
X136814285Y-160385714D01*
X136814285Y-160480952D02*
X136861904Y-160433333D01*
X136957142Y-160385714D01*
X137100000Y-160385714D01*
X137195238Y-160433333D01*
X137242857Y-160528571D01*
X137242857Y-161052380D01*
X137242857Y-160528571D02*
X137290476Y-160433333D01*
X137385714Y-160385714D01*
X137528571Y-160385714D01*
X137623809Y-160433333D01*
X137671428Y-160528571D01*
X137671428Y-161052380D01*
X74100000Y-159300000D02*
X192100000Y-159300000D01*
X74100000Y-152400000D02*
X74100000Y-159886421D01*
X192100000Y-152400000D02*
X192100000Y-159886421D01*
X192100000Y-159300000D02*
X190973496Y-159886421D01*
X192100000Y-159300000D02*
X190973496Y-158713579D01*
X74100000Y-159300000D02*
X75226504Y-159886421D01*
X74100000Y-159300000D02*
X75226504Y-158713579D01*
D11*
X74000000Y-152000000D02*
X74000000Y-52000000D01*
X74000000Y-52000000D02*
X192000000Y-52000000D01*
X192000000Y-52000000D02*
X192000000Y-152000000D01*
X192000000Y-152000000D02*
X74000000Y-152000000D01*
D12*
%TO.C,U17*%
X139550000Y-51950000D02*
X119550000Y-51950000D01*
D13*
%TO.C,SP1*%
X91056999Y-144443500D02*
G75*
G03*
X91056999Y-144443500I-1500000J0D01*
G01*
X91056999Y-144443500D02*
G75*
G03*
X91056999Y-144443500I-1500000J0D01*
G01*
X91056999Y-144443500D02*
G75*
G03*
X91056999Y-144443500I-1500000J0D01*
G01*
%TO.C,SP2*%
X161706999Y-144443500D02*
G75*
G03*
X161706999Y-144443500I-1500000J0D01*
G01*
X161706999Y-144443500D02*
G75*
G03*
X161706999Y-144443500I-1500000J0D01*
G01*
X161706999Y-144443500D02*
G75*
G03*
X161706999Y-144443500I-1500000J0D01*
G01*
%TO.C,SP3*%
X161706999Y-90793500D02*
G75*
G03*
X161706999Y-90793500I-1500000J0D01*
G01*
X161706999Y-90793500D02*
G75*
G03*
X161706999Y-90793500I-1500000J0D01*
G01*
X161706999Y-90793500D02*
G75*
G03*
X161706999Y-90793500I-1500000J0D01*
G01*
%TO.C,SP4*%
X91056999Y-90793500D02*
G75*
G03*
X91056999Y-90793500I-1500000J0D01*
G01*
X91056999Y-90793500D02*
G75*
G03*
X91056999Y-90793500I-1500000J0D01*
G01*
X91056999Y-90793500D02*
G75*
G03*
X91056999Y-90793500I-1500000J0D01*
G01*
D12*
%TO.C,M1*%
X157654000Y-117630000D02*
X158654000Y-117630000D01*
X160260000Y-136362500D02*
G75*
G03*
X160260000Y-136362500I-356000J0D01*
G01*
X159905000Y-97495000D02*
G75*
G03*
X159905000Y-97495000I-475000J0D01*
G01*
X158635000Y-137765000D02*
G75*
G03*
X158635000Y-137765000I-475000J0D01*
G01*
X92035000Y-137765000D02*
G75*
G03*
X92035000Y-137765000I-475000J0D01*
G01*
X93305000Y-97495000D02*
G75*
G03*
X93305000Y-97495000I-475000J0D01*
G01*
X93660000Y-136362500D02*
G75*
G03*
X93660000Y-136362500I-356000J0D01*
G01*
X163284000Y-90802500D02*
G75*
G03*
X163284000Y-90802500I-3100000J0D01*
G01*
X92634000Y-90802500D02*
G75*
G03*
X92634000Y-90802500I-3100000J0D01*
G01*
X163284000Y-144452500D02*
G75*
G03*
X163284000Y-144452500I-3100000J0D01*
G01*
X92634000Y-144452500D02*
G75*
G03*
X92634000Y-144452500I-3100000J0D01*
G01*
X158166000Y-118130000D02*
X158166000Y-117130000D01*
X91554000Y-118130000D02*
X91554000Y-117130000D01*
X91054000Y-117630000D02*
X92054000Y-117630000D01*
%TO.C,U20*%
X120200000Y-51950000D02*
X100200000Y-51950000D01*
%TD*%
%TO.C,U17*%
D14*
X117478571Y-57116666D02*
X117478571Y-56783333D01*
X118002380Y-56640476D02*
X118002380Y-57116666D01*
X117002380Y-57116666D01*
X117002380Y-56640476D01*
X118002380Y-55783333D02*
X117002380Y-55783333D01*
X117954761Y-55783333D02*
X118002380Y-55878571D01*
X118002380Y-56069047D01*
X117954761Y-56164285D01*
X117907142Y-56211904D01*
X117811904Y-56259523D01*
X117526190Y-56259523D01*
X117430952Y-56211904D01*
X117383333Y-56164285D01*
X117335714Y-56069047D01*
X117335714Y-55878571D01*
X117383333Y-55783333D01*
X117335714Y-54878571D02*
X118145238Y-54878571D01*
X118240476Y-54926190D01*
X118288095Y-54973809D01*
X118335714Y-55069047D01*
X118335714Y-55211904D01*
X118288095Y-55307142D01*
X117954761Y-54878571D02*
X118002380Y-54973809D01*
X118002380Y-55164285D01*
X117954761Y-55259523D01*
X117907142Y-55307142D01*
X117811904Y-55354761D01*
X117526190Y-55354761D01*
X117430952Y-55307142D01*
X117383333Y-55259523D01*
X117335714Y-55164285D01*
X117335714Y-54973809D01*
X117383333Y-54878571D01*
X117954761Y-54021428D02*
X118002380Y-54116666D01*
X118002380Y-54307142D01*
X117954761Y-54402380D01*
X117859523Y-54450000D01*
X117478571Y-54450000D01*
X117383333Y-54402380D01*
X117335714Y-54307142D01*
X117335714Y-54116666D01*
X117383333Y-54021428D01*
X117478571Y-53973809D01*
X117573809Y-53973809D01*
X117669047Y-54450000D01*
X118002380Y-52640476D02*
X117954761Y-52735714D01*
X117907142Y-52783333D01*
X117811904Y-52830952D01*
X117526190Y-52830952D01*
X117430952Y-52783333D01*
X117383333Y-52735714D01*
X117335714Y-52640476D01*
X117335714Y-52497619D01*
X117383333Y-52402380D01*
X117430952Y-52354761D01*
X117526190Y-52307142D01*
X117811904Y-52307142D01*
X117907142Y-52354761D01*
X117954761Y-52402380D01*
X118002380Y-52497619D01*
X118002380Y-52640476D01*
X117335714Y-52021428D02*
X117335714Y-51640476D01*
X118002380Y-51878571D02*
X117145238Y-51878571D01*
X117050000Y-51830952D01*
X117002380Y-51735714D01*
X117002380Y-51640476D01*
X118002380Y-50545238D02*
X117002380Y-50545238D01*
X117383333Y-50545238D02*
X117335714Y-50450000D01*
X117335714Y-50259523D01*
X117383333Y-50164285D01*
X117430952Y-50116666D01*
X117526190Y-50069047D01*
X117811904Y-50069047D01*
X117907142Y-50116666D01*
X117954761Y-50164285D01*
X118002380Y-50259523D01*
X118002380Y-50450000D01*
X117954761Y-50545238D01*
X118002380Y-49497619D02*
X117954761Y-49592857D01*
X117907142Y-49640476D01*
X117811904Y-49688095D01*
X117526190Y-49688095D01*
X117430952Y-49640476D01*
X117383333Y-49592857D01*
X117335714Y-49497619D01*
X117335714Y-49354761D01*
X117383333Y-49259523D01*
X117430952Y-49211904D01*
X117526190Y-49164285D01*
X117811904Y-49164285D01*
X117907142Y-49211904D01*
X117954761Y-49259523D01*
X118002380Y-49354761D01*
X118002380Y-49497619D01*
X118002380Y-48307142D02*
X117478571Y-48307142D01*
X117383333Y-48354761D01*
X117335714Y-48450000D01*
X117335714Y-48640476D01*
X117383333Y-48735714D01*
X117954761Y-48307142D02*
X118002380Y-48402380D01*
X118002380Y-48640476D01*
X117954761Y-48735714D01*
X117859523Y-48783333D01*
X117764285Y-48783333D01*
X117669047Y-48735714D01*
X117621428Y-48640476D01*
X117621428Y-48402380D01*
X117573809Y-48307142D01*
X118002380Y-47830952D02*
X117335714Y-47830952D01*
X117526190Y-47830952D02*
X117430952Y-47783333D01*
X117383333Y-47735714D01*
X117335714Y-47640476D01*
X117335714Y-47545238D01*
X118002380Y-46783333D02*
X117002380Y-46783333D01*
X117954761Y-46783333D02*
X118002380Y-46878571D01*
X118002380Y-47069047D01*
X117954761Y-47164285D01*
X117907142Y-47211904D01*
X117811904Y-47259523D01*
X117526190Y-47259523D01*
X117430952Y-47211904D01*
X117383333Y-47164285D01*
X117335714Y-47069047D01*
X117335714Y-46878571D01*
X117383333Y-46783333D01*
X121702380Y-72050000D02*
X120702380Y-72050000D01*
X121416666Y-71716666D01*
X120702380Y-71383333D01*
X121702380Y-71383333D01*
X121702380Y-70764285D02*
X121654761Y-70859523D01*
X121607142Y-70907142D01*
X121511904Y-70954761D01*
X121226190Y-70954761D01*
X121130952Y-70907142D01*
X121083333Y-70859523D01*
X121035714Y-70764285D01*
X121035714Y-70621428D01*
X121083333Y-70526190D01*
X121130952Y-70478571D01*
X121226190Y-70430952D01*
X121511904Y-70430952D01*
X121607142Y-70478571D01*
X121654761Y-70526190D01*
X121702380Y-70621428D01*
X121702380Y-70764285D01*
X121035714Y-69573809D02*
X121702380Y-69573809D01*
X121035714Y-70002380D02*
X121559523Y-70002380D01*
X121654761Y-69954761D01*
X121702380Y-69859523D01*
X121702380Y-69716666D01*
X121654761Y-69621428D01*
X121607142Y-69573809D01*
X121035714Y-69097619D02*
X121702380Y-69097619D01*
X121130952Y-69097619D02*
X121083333Y-69050000D01*
X121035714Y-68954761D01*
X121035714Y-68811904D01*
X121083333Y-68716666D01*
X121178571Y-68669047D01*
X121702380Y-68669047D01*
X121035714Y-68335714D02*
X121035714Y-67954761D01*
X120702380Y-68192857D02*
X121559523Y-68192857D01*
X121654761Y-68145238D01*
X121702380Y-68050000D01*
X121702380Y-67954761D01*
X121702380Y-67621428D02*
X121035714Y-67621428D01*
X120702380Y-67621428D02*
X120750000Y-67669047D01*
X120797619Y-67621428D01*
X120750000Y-67573809D01*
X120702380Y-67621428D01*
X120797619Y-67621428D01*
X121035714Y-67145238D02*
X121702380Y-67145238D01*
X121130952Y-67145238D02*
X121083333Y-67097619D01*
X121035714Y-67002380D01*
X121035714Y-66859523D01*
X121083333Y-66764285D01*
X121178571Y-66716666D01*
X121702380Y-66716666D01*
X121035714Y-65811904D02*
X121845238Y-65811904D01*
X121940476Y-65859523D01*
X121988095Y-65907142D01*
X122035714Y-66002380D01*
X122035714Y-66145238D01*
X121988095Y-66240476D01*
X121654761Y-65811904D02*
X121702380Y-65907142D01*
X121702380Y-66097619D01*
X121654761Y-66192857D01*
X121607142Y-66240476D01*
X121511904Y-66288095D01*
X121226190Y-66288095D01*
X121130952Y-66240476D01*
X121083333Y-66192857D01*
X121035714Y-66097619D01*
X121035714Y-65907142D01*
X121083333Y-65811904D01*
X121702380Y-64573809D02*
X120702380Y-64573809D01*
X121702380Y-64145238D02*
X121178571Y-64145238D01*
X121083333Y-64192857D01*
X121035714Y-64288095D01*
X121035714Y-64430952D01*
X121083333Y-64526190D01*
X121130952Y-64573809D01*
X121702380Y-63526190D02*
X121654761Y-63621428D01*
X121607142Y-63669047D01*
X121511904Y-63716666D01*
X121226190Y-63716666D01*
X121130952Y-63669047D01*
X121083333Y-63621428D01*
X121035714Y-63526190D01*
X121035714Y-63383333D01*
X121083333Y-63288095D01*
X121130952Y-63240476D01*
X121226190Y-63192857D01*
X121511904Y-63192857D01*
X121607142Y-63240476D01*
X121654761Y-63288095D01*
X121702380Y-63383333D01*
X121702380Y-63526190D01*
X121702380Y-62621428D02*
X121654761Y-62716666D01*
X121559523Y-62764285D01*
X120702380Y-62764285D01*
X121654761Y-61859523D02*
X121702380Y-61954761D01*
X121702380Y-62145238D01*
X121654761Y-62240476D01*
X121559523Y-62288095D01*
X121178571Y-62288095D01*
X121083333Y-62240476D01*
X121035714Y-62145238D01*
X121035714Y-61954761D01*
X121083333Y-61859523D01*
X121178571Y-61811904D01*
X121273809Y-61811904D01*
X121369047Y-62288095D01*
X121654761Y-61430952D02*
X121702380Y-61335714D01*
X121702380Y-61145238D01*
X121654761Y-61050000D01*
X121559523Y-61002380D01*
X121511904Y-61002380D01*
X121416666Y-61050000D01*
X121369047Y-61145238D01*
X121369047Y-61288095D01*
X121321428Y-61383333D01*
X121226190Y-61430952D01*
X121178571Y-61430952D01*
X121083333Y-61383333D01*
X121035714Y-61288095D01*
X121035714Y-61145238D01*
X121083333Y-61050000D01*
%TO.C,U20*%
X98128571Y-57116666D02*
X98128571Y-56783333D01*
X98652380Y-56640476D02*
X98652380Y-57116666D01*
X97652380Y-57116666D01*
X97652380Y-56640476D01*
X98652380Y-55783333D02*
X97652380Y-55783333D01*
X98604761Y-55783333D02*
X98652380Y-55878571D01*
X98652380Y-56069047D01*
X98604761Y-56164285D01*
X98557142Y-56211904D01*
X98461904Y-56259523D01*
X98176190Y-56259523D01*
X98080952Y-56211904D01*
X98033333Y-56164285D01*
X97985714Y-56069047D01*
X97985714Y-55878571D01*
X98033333Y-55783333D01*
X97985714Y-54878571D02*
X98795238Y-54878571D01*
X98890476Y-54926190D01*
X98938095Y-54973809D01*
X98985714Y-55069047D01*
X98985714Y-55211904D01*
X98938095Y-55307142D01*
X98604761Y-54878571D02*
X98652380Y-54973809D01*
X98652380Y-55164285D01*
X98604761Y-55259523D01*
X98557142Y-55307142D01*
X98461904Y-55354761D01*
X98176190Y-55354761D01*
X98080952Y-55307142D01*
X98033333Y-55259523D01*
X97985714Y-55164285D01*
X97985714Y-54973809D01*
X98033333Y-54878571D01*
X98604761Y-54021428D02*
X98652380Y-54116666D01*
X98652380Y-54307142D01*
X98604761Y-54402380D01*
X98509523Y-54450000D01*
X98128571Y-54450000D01*
X98033333Y-54402380D01*
X97985714Y-54307142D01*
X97985714Y-54116666D01*
X98033333Y-54021428D01*
X98128571Y-53973809D01*
X98223809Y-53973809D01*
X98319047Y-54450000D01*
X98652380Y-52640476D02*
X98604761Y-52735714D01*
X98557142Y-52783333D01*
X98461904Y-52830952D01*
X98176190Y-52830952D01*
X98080952Y-52783333D01*
X98033333Y-52735714D01*
X97985714Y-52640476D01*
X97985714Y-52497619D01*
X98033333Y-52402380D01*
X98080952Y-52354761D01*
X98176190Y-52307142D01*
X98461904Y-52307142D01*
X98557142Y-52354761D01*
X98604761Y-52402380D01*
X98652380Y-52497619D01*
X98652380Y-52640476D01*
X97985714Y-52021428D02*
X97985714Y-51640476D01*
X98652380Y-51878571D02*
X97795238Y-51878571D01*
X97700000Y-51830952D01*
X97652380Y-51735714D01*
X97652380Y-51640476D01*
X98652380Y-50545238D02*
X97652380Y-50545238D01*
X98033333Y-50545238D02*
X97985714Y-50450000D01*
X97985714Y-50259523D01*
X98033333Y-50164285D01*
X98080952Y-50116666D01*
X98176190Y-50069047D01*
X98461904Y-50069047D01*
X98557142Y-50116666D01*
X98604761Y-50164285D01*
X98652380Y-50259523D01*
X98652380Y-50450000D01*
X98604761Y-50545238D01*
X98652380Y-49497619D02*
X98604761Y-49592857D01*
X98557142Y-49640476D01*
X98461904Y-49688095D01*
X98176190Y-49688095D01*
X98080952Y-49640476D01*
X98033333Y-49592857D01*
X97985714Y-49497619D01*
X97985714Y-49354761D01*
X98033333Y-49259523D01*
X98080952Y-49211904D01*
X98176190Y-49164285D01*
X98461904Y-49164285D01*
X98557142Y-49211904D01*
X98604761Y-49259523D01*
X98652380Y-49354761D01*
X98652380Y-49497619D01*
X98652380Y-48307142D02*
X98128571Y-48307142D01*
X98033333Y-48354761D01*
X97985714Y-48450000D01*
X97985714Y-48640476D01*
X98033333Y-48735714D01*
X98604761Y-48307142D02*
X98652380Y-48402380D01*
X98652380Y-48640476D01*
X98604761Y-48735714D01*
X98509523Y-48783333D01*
X98414285Y-48783333D01*
X98319047Y-48735714D01*
X98271428Y-48640476D01*
X98271428Y-48402380D01*
X98223809Y-48307142D01*
X98652380Y-47830952D02*
X97985714Y-47830952D01*
X98176190Y-47830952D02*
X98080952Y-47783333D01*
X98033333Y-47735714D01*
X97985714Y-47640476D01*
X97985714Y-47545238D01*
X98652380Y-46783333D02*
X97652380Y-46783333D01*
X98604761Y-46783333D02*
X98652380Y-46878571D01*
X98652380Y-47069047D01*
X98604761Y-47164285D01*
X98557142Y-47211904D01*
X98461904Y-47259523D01*
X98176190Y-47259523D01*
X98080952Y-47211904D01*
X98033333Y-47164285D01*
X97985714Y-47069047D01*
X97985714Y-46878571D01*
X98033333Y-46783333D01*
X102352380Y-72050000D02*
X101352380Y-72050000D01*
X102066666Y-71716666D01*
X101352380Y-71383333D01*
X102352380Y-71383333D01*
X102352380Y-70764285D02*
X102304761Y-70859523D01*
X102257142Y-70907142D01*
X102161904Y-70954761D01*
X101876190Y-70954761D01*
X101780952Y-70907142D01*
X101733333Y-70859523D01*
X101685714Y-70764285D01*
X101685714Y-70621428D01*
X101733333Y-70526190D01*
X101780952Y-70478571D01*
X101876190Y-70430952D01*
X102161904Y-70430952D01*
X102257142Y-70478571D01*
X102304761Y-70526190D01*
X102352380Y-70621428D01*
X102352380Y-70764285D01*
X101685714Y-69573809D02*
X102352380Y-69573809D01*
X101685714Y-70002380D02*
X102209523Y-70002380D01*
X102304761Y-69954761D01*
X102352380Y-69859523D01*
X102352380Y-69716666D01*
X102304761Y-69621428D01*
X102257142Y-69573809D01*
X101685714Y-69097619D02*
X102352380Y-69097619D01*
X101780952Y-69097619D02*
X101733333Y-69050000D01*
X101685714Y-68954761D01*
X101685714Y-68811904D01*
X101733333Y-68716666D01*
X101828571Y-68669047D01*
X102352380Y-68669047D01*
X101685714Y-68335714D02*
X101685714Y-67954761D01*
X101352380Y-68192857D02*
X102209523Y-68192857D01*
X102304761Y-68145238D01*
X102352380Y-68050000D01*
X102352380Y-67954761D01*
X102352380Y-67621428D02*
X101685714Y-67621428D01*
X101352380Y-67621428D02*
X101400000Y-67669047D01*
X101447619Y-67621428D01*
X101400000Y-67573809D01*
X101352380Y-67621428D01*
X101447619Y-67621428D01*
X101685714Y-67145238D02*
X102352380Y-67145238D01*
X101780952Y-67145238D02*
X101733333Y-67097619D01*
X101685714Y-67002380D01*
X101685714Y-66859523D01*
X101733333Y-66764285D01*
X101828571Y-66716666D01*
X102352380Y-66716666D01*
X101685714Y-65811904D02*
X102495238Y-65811904D01*
X102590476Y-65859523D01*
X102638095Y-65907142D01*
X102685714Y-66002380D01*
X102685714Y-66145238D01*
X102638095Y-66240476D01*
X102304761Y-65811904D02*
X102352380Y-65907142D01*
X102352380Y-66097619D01*
X102304761Y-66192857D01*
X102257142Y-66240476D01*
X102161904Y-66288095D01*
X101876190Y-66288095D01*
X101780952Y-66240476D01*
X101733333Y-66192857D01*
X101685714Y-66097619D01*
X101685714Y-65907142D01*
X101733333Y-65811904D01*
X102352380Y-64573809D02*
X101352380Y-64573809D01*
X102352380Y-64145238D02*
X101828571Y-64145238D01*
X101733333Y-64192857D01*
X101685714Y-64288095D01*
X101685714Y-64430952D01*
X101733333Y-64526190D01*
X101780952Y-64573809D01*
X102352380Y-63526190D02*
X102304761Y-63621428D01*
X102257142Y-63669047D01*
X102161904Y-63716666D01*
X101876190Y-63716666D01*
X101780952Y-63669047D01*
X101733333Y-63621428D01*
X101685714Y-63526190D01*
X101685714Y-63383333D01*
X101733333Y-63288095D01*
X101780952Y-63240476D01*
X101876190Y-63192857D01*
X102161904Y-63192857D01*
X102257142Y-63240476D01*
X102304761Y-63288095D01*
X102352380Y-63383333D01*
X102352380Y-63526190D01*
X102352380Y-62621428D02*
X102304761Y-62716666D01*
X102209523Y-62764285D01*
X101352380Y-62764285D01*
X102304761Y-61859523D02*
X102352380Y-61954761D01*
X102352380Y-62145238D01*
X102304761Y-62240476D01*
X102209523Y-62288095D01*
X101828571Y-62288095D01*
X101733333Y-62240476D01*
X101685714Y-62145238D01*
X101685714Y-61954761D01*
X101733333Y-61859523D01*
X101828571Y-61811904D01*
X101923809Y-61811904D01*
X102019047Y-62288095D01*
X102304761Y-61430952D02*
X102352380Y-61335714D01*
X102352380Y-61145238D01*
X102304761Y-61050000D01*
X102209523Y-61002380D01*
X102161904Y-61002380D01*
X102066666Y-61050000D01*
X102019047Y-61145238D01*
X102019047Y-61288095D01*
X101971428Y-61383333D01*
X101876190Y-61430952D01*
X101828571Y-61430952D01*
X101733333Y-61383333D01*
X101685714Y-61288095D01*
X101685714Y-61145238D01*
X101733333Y-61050000D01*
%TD*%
M02*
