%TF.GenerationSoftware,KiCad,Pcbnew,5.1.9+dfsg1-1*%
%TF.CreationDate,2022-05-04T16:16:05+02:00*%
%TF.ProjectId,kria-k26-devboard,6b726961-2d6b-4323-962d-646576626f61,rev?*%
%TF.SameCoordinates,Original*%
%TF.FileFunction,Other,User*%
%FSLAX46Y46*%
G04 Gerber Fmt 4.6, Leading zero omitted, Abs format (unit mm)*
G04 Created by KiCad (PCBNEW 5.1.9+dfsg1-1) date 2022-05-04 16:16:05 commit c608b4a*
%MOMM*%
%LPD*%
G01*
G04 APERTURE LIST*
%TA.AperFunction,Profile*%
%ADD10C,0.100000*%
%TD*%
%ADD11C,0.050000*%
%ADD12C,0.150000*%
G04 APERTURE END LIST*
D10*
X74000000Y-152000000D02*
X74000000Y-52000000D01*
X74000000Y-52000000D02*
X192000000Y-52000000D01*
X192000000Y-52000000D02*
X192000000Y-152000000D01*
X192000000Y-152000000D02*
X74000000Y-152000000D01*
D11*
%TO.C,C74*%
X112090000Y-76068000D02*
X112090000Y-74208000D01*
X111150000Y-76068000D02*
X112090000Y-76068000D01*
X111150000Y-74208000D02*
X111150000Y-76068000D01*
X112090000Y-74208000D02*
X111150000Y-74208000D01*
%TO.C,C73*%
X111145000Y-74203000D02*
X110205000Y-74203000D01*
X110205000Y-74203000D02*
X110205000Y-76063000D01*
X110205000Y-76063000D02*
X111145000Y-76063000D01*
X111145000Y-76063000D02*
X111145000Y-74203000D01*
%TO.C,D26*%
X189130900Y-65156500D02*
X189130900Y-62743500D01*
X189130900Y-62743500D02*
X188422900Y-62743500D01*
X183927100Y-62743500D02*
X183219100Y-62743500D01*
X183219100Y-62743500D02*
X183219100Y-65156500D01*
X183219100Y-65156500D02*
X183927100Y-65156500D01*
X188422900Y-65156500D02*
X189130900Y-65156500D01*
X188422900Y-65550200D02*
X188422900Y-65156500D01*
X188422900Y-62743500D02*
X188422900Y-62349800D01*
X188422900Y-62349800D02*
X183927100Y-62349800D01*
X183927100Y-62349800D02*
X183927100Y-62743500D01*
X183927100Y-65156500D02*
X183927100Y-65550200D01*
X183927100Y-65550200D02*
X188422900Y-65550200D01*
X189130900Y-65156500D02*
X189130900Y-62743500D01*
X189130900Y-62743500D02*
X188422900Y-62743500D01*
X188422900Y-62743500D02*
X188422900Y-62349800D01*
X188422900Y-62349800D02*
X183927100Y-62349800D01*
X183927100Y-62349800D02*
X183927100Y-62743500D01*
X183927100Y-62743500D02*
X183219100Y-62743500D01*
X183219100Y-62743500D02*
X183219100Y-65156500D01*
X183219100Y-65156500D02*
X183927100Y-65156500D01*
X183927100Y-65156500D02*
X183927100Y-65550200D01*
X183927100Y-65550200D02*
X188422900Y-65550200D01*
X188422900Y-65550200D02*
X188422900Y-65156500D01*
X188422900Y-65156500D02*
X189130900Y-65156500D01*
%TO.C,C226*%
X174125000Y-86650000D02*
X180025000Y-86650000D01*
X180025000Y-86650000D02*
X180025000Y-79250000D01*
X180025000Y-79250000D02*
X174125000Y-79250000D01*
X174125000Y-79250000D02*
X174125000Y-86650000D01*
%TO.C,C225*%
X179925000Y-86650000D02*
X185825000Y-86650000D01*
X185825000Y-86650000D02*
X185825000Y-79250000D01*
X185825000Y-79250000D02*
X179925000Y-79250000D01*
X179925000Y-79250000D02*
X179925000Y-86650000D01*
%TO.C,C224*%
X168225000Y-86650000D02*
X174125000Y-86650000D01*
X174125000Y-86650000D02*
X174125000Y-79250000D01*
X174125000Y-79250000D02*
X168225000Y-79250000D01*
X168225000Y-79250000D02*
X168225000Y-86650000D01*
%TO.C,C188*%
X162325000Y-86650000D02*
X168225000Y-86650000D01*
X168225000Y-86650000D02*
X168225000Y-79250000D01*
X168225000Y-79250000D02*
X162325000Y-79250000D01*
X162325000Y-79250000D02*
X162325000Y-86650000D01*
D12*
%TO.C,J3*%
X77200000Y-117850000D02*
X77200000Y-86150000D01*
X86200000Y-117850000D02*
X77200000Y-117850000D01*
X86200000Y-86150000D02*
X86200000Y-117850000D01*
X77200000Y-86150000D02*
X86200000Y-86150000D01*
D11*
%TO.C,R44*%
X128580000Y-85350000D02*
X128580000Y-84410000D01*
X128580000Y-84410000D02*
X126720000Y-84410000D01*
X126720000Y-84410000D02*
X126720000Y-85350000D01*
X126720000Y-85350000D02*
X128580000Y-85350000D01*
%TO.C,R43*%
X100770000Y-70170000D02*
X99830000Y-70170000D01*
X99830000Y-70170000D02*
X99830000Y-72030000D01*
X99830000Y-72030000D02*
X100770000Y-72030000D01*
X100770000Y-72030000D02*
X100770000Y-70170000D01*
%TO.C,R12*%
X149999289Y-146417868D02*
X149999289Y-147357868D01*
X149999289Y-147357868D02*
X151859289Y-147357868D01*
X151859289Y-147357868D02*
X151859289Y-146417868D01*
X151859289Y-146417868D02*
X149999289Y-146417868D01*
%TO.C,C72*%
X99870000Y-70170000D02*
X98930000Y-70170000D01*
X98930000Y-70170000D02*
X98930000Y-72030000D01*
X98930000Y-72030000D02*
X99870000Y-72030000D01*
X99870000Y-72030000D02*
X99870000Y-70170000D01*
%TO.C,C62*%
X149999289Y-145567867D02*
X149999289Y-146507867D01*
X149999289Y-146507867D02*
X151859289Y-146507867D01*
X151859289Y-146507867D02*
X151859289Y-145567867D01*
X151859289Y-145567867D02*
X149999289Y-145567867D01*
%TO.C,C81*%
X144625965Y-81720911D02*
X146045965Y-81720911D01*
X144625965Y-79360911D02*
X144625965Y-81580911D01*
X146045965Y-79220911D02*
X144625965Y-79220911D01*
X146045965Y-81580911D02*
X146045965Y-79360911D01*
X144625965Y-81580911D02*
X144625965Y-81720911D01*
X146045965Y-81580911D02*
X146045965Y-81720911D01*
X146045965Y-79360911D02*
X146045965Y-79220911D01*
X144625965Y-79360911D02*
X144625965Y-79220911D01*
%TO.C,C82*%
X154169999Y-85930000D02*
X154169999Y-86870000D01*
X154169999Y-86870000D02*
X156029999Y-86870000D01*
X156029999Y-86870000D02*
X156029999Y-85930000D01*
X156029999Y-85930000D02*
X154169999Y-85930000D01*
%TO.C,C83*%
X145880000Y-81555000D02*
X146820000Y-81555000D01*
X146820000Y-81555000D02*
X146820000Y-79695000D01*
X146820000Y-79695000D02*
X145880000Y-79695000D01*
X145880000Y-79695000D02*
X145880000Y-81555000D01*
%TO.C,C84*%
X144965911Y-88494035D02*
X144965911Y-89434035D01*
X144965911Y-89434035D02*
X146825911Y-89434035D01*
X146825911Y-89434035D02*
X146825911Y-88494035D01*
X146825911Y-88494035D02*
X144965911Y-88494035D01*
%TO.C,C85*%
X147875911Y-92544035D02*
X148815911Y-92544035D01*
X148815911Y-92544035D02*
X148815911Y-90684035D01*
X148815911Y-90684035D02*
X147875911Y-90684035D01*
X147875911Y-90684035D02*
X147875911Y-92544035D01*
%TO.C,C86*%
X152775911Y-90234035D02*
X152775911Y-89294035D01*
X152775911Y-89294035D02*
X150915911Y-89294035D01*
X150915911Y-89294035D02*
X150915911Y-90234035D01*
X150915911Y-90234035D02*
X152775911Y-90234035D01*
%TO.C,C87*%
X146853348Y-84761674D02*
X145913348Y-84761674D01*
X145913348Y-84761674D02*
X145913348Y-86621674D01*
X145913348Y-86621674D02*
X146853348Y-86621674D01*
X146853348Y-86621674D02*
X146853348Y-84761674D01*
%TO.C,C88*%
X150318171Y-84832385D02*
X149378171Y-84832385D01*
X149378171Y-84832385D02*
X149378171Y-86692385D01*
X149378171Y-86692385D02*
X150318171Y-86692385D01*
X150318171Y-86692385D02*
X150318171Y-84832385D01*
%TO.C,C89*%
X144958373Y-89393604D02*
X144958373Y-90333604D01*
X144958373Y-90333604D02*
X146818373Y-90333604D01*
X146818373Y-90333604D02*
X146818373Y-89393604D01*
X146818373Y-89393604D02*
X144958373Y-89393604D01*
%TO.C,C93*%
X151166699Y-84832385D02*
X150226699Y-84832385D01*
X150226699Y-84832385D02*
X150226699Y-86692385D01*
X150226699Y-86692385D02*
X151166699Y-86692385D01*
X151166699Y-86692385D02*
X151166699Y-84832385D01*
%TO.C,C94*%
X149469643Y-84832385D02*
X148529643Y-84832385D01*
X148529643Y-84832385D02*
X148529643Y-86692385D01*
X148529643Y-86692385D02*
X149469643Y-86692385D01*
X149469643Y-86692385D02*
X149469643Y-84832385D01*
%TO.C,C98*%
X148621115Y-84832385D02*
X147681115Y-84832385D01*
X147681115Y-84832385D02*
X147681115Y-86692385D01*
X147681115Y-86692385D02*
X148621115Y-86692385D01*
X148621115Y-86692385D02*
X148621115Y-84832385D01*
%TO.C,C99*%
X145015910Y-91044035D02*
X145015910Y-91984035D01*
X145015910Y-91984035D02*
X146875910Y-91984035D01*
X146875910Y-91984035D02*
X146875910Y-91044035D01*
X146875910Y-91044035D02*
X145015910Y-91044035D01*
%TO.C,C100*%
X148775911Y-92544035D02*
X149715911Y-92544035D01*
X149715911Y-92544035D02*
X149715911Y-90684035D01*
X149715911Y-90684035D02*
X148775911Y-90684035D01*
X148775911Y-90684035D02*
X148775911Y-92544035D01*
%TO.C,C101*%
X152775911Y-89284035D02*
X152775911Y-88344035D01*
X152775911Y-88344035D02*
X150915911Y-88344035D01*
X150915911Y-88344035D02*
X150915911Y-89284035D01*
X150915911Y-89284035D02*
X152775911Y-89284035D01*
%TO.C,C102*%
X143359035Y-93474089D02*
X142419035Y-93474089D01*
X142419035Y-93474089D02*
X142419035Y-95334089D01*
X142419035Y-95334089D02*
X143359035Y-95334089D01*
X143359035Y-95334089D02*
X143359035Y-93474089D01*
%TO.C,C103*%
X142614035Y-93419089D02*
X141194035Y-93419089D01*
X142614035Y-95779089D02*
X142614035Y-93559089D01*
X141194035Y-95919089D02*
X142614035Y-95919089D01*
X141194035Y-93559089D02*
X141194035Y-95779089D01*
X142614035Y-93559089D02*
X142614035Y-93419089D01*
X141194035Y-93559089D02*
X141194035Y-93419089D01*
X141194035Y-95779089D02*
X141194035Y-95919089D01*
X142614035Y-95779089D02*
X142614035Y-95919089D01*
%TO.C,C170*%
X138635000Y-79425001D02*
X137215000Y-79425001D01*
X138635000Y-81785001D02*
X138635000Y-79565001D01*
X137215000Y-81925001D02*
X138635000Y-81925001D01*
X137215000Y-79565001D02*
X137215000Y-81785001D01*
X138635000Y-79565001D02*
X138635000Y-79425001D01*
X137215000Y-79565001D02*
X137215000Y-79425001D01*
X137215000Y-81785001D02*
X137215000Y-81925001D01*
X138635000Y-81785001D02*
X138635000Y-81925001D01*
%TO.C,C175*%
X140385000Y-82380000D02*
X140385000Y-83320000D01*
X140385000Y-83320000D02*
X142245000Y-83320000D01*
X142245000Y-83320000D02*
X142245000Y-82380000D01*
X142245000Y-82380000D02*
X140385000Y-82380000D01*
%TO.C,C180*%
X138610000Y-82300000D02*
X137190000Y-82300000D01*
X138610000Y-84660000D02*
X138610000Y-82440000D01*
X137190000Y-84800000D02*
X138610000Y-84800000D01*
X137190000Y-82440000D02*
X137190000Y-84660000D01*
X138610000Y-82440000D02*
X138610000Y-82300000D01*
X137190000Y-82440000D02*
X137190000Y-82300000D01*
X137190000Y-84660000D02*
X137190000Y-84800000D01*
X138610000Y-84660000D02*
X138610000Y-84800000D01*
%TO.C,C46*%
X128590000Y-86590000D02*
X128590000Y-85650000D01*
X128590000Y-85650000D02*
X126730000Y-85650000D01*
X126730000Y-85650000D02*
X126730000Y-86590000D01*
X126730000Y-86590000D02*
X128590000Y-86590000D01*
%TO.C,C47*%
X120576941Y-78044860D02*
X119636941Y-78044860D01*
X119636941Y-78044860D02*
X119636941Y-79904860D01*
X119636941Y-79904860D02*
X120576941Y-79904860D01*
X120576941Y-79904860D02*
X120576941Y-78044860D01*
%TO.C,C48*%
X128596942Y-82994862D02*
X128596942Y-82054862D01*
X128596942Y-82054862D02*
X126736942Y-82054862D01*
X126736942Y-82054862D02*
X126736942Y-82994862D01*
X126736942Y-82994862D02*
X128596942Y-82994862D01*
%TO.C,C49*%
X115726942Y-80114860D02*
X115726942Y-81054860D01*
X115726942Y-81054860D02*
X117586942Y-81054860D01*
X117586942Y-81054860D02*
X117586942Y-80114860D01*
X117586942Y-80114860D02*
X115726942Y-80114860D01*
%TO.C,C51*%
X125376941Y-79870000D02*
X124436941Y-79870000D01*
X124436941Y-79870000D02*
X124436941Y-81730000D01*
X124436941Y-81730000D02*
X125376941Y-81730000D01*
X125376941Y-81730000D02*
X125376941Y-79870000D01*
%TO.C,C52*%
X115676942Y-83704861D02*
X115676942Y-84644861D01*
X115676942Y-84644861D02*
X117536942Y-84644861D01*
X117536942Y-84644861D02*
X117536942Y-83704861D01*
X117536942Y-83704861D02*
X115676942Y-83704861D01*
%TO.C,C54*%
X122595000Y-79870000D02*
X121655000Y-79870000D01*
X121655000Y-79870000D02*
X121655000Y-81730000D01*
X121655000Y-81730000D02*
X122595000Y-81730000D01*
X122595000Y-81730000D02*
X122595000Y-79870000D01*
%TO.C,C57*%
X115726942Y-80964861D02*
X115726942Y-81904861D01*
X115726942Y-81904861D02*
X117586942Y-81904861D01*
X117586942Y-81904861D02*
X117586942Y-80964861D01*
X117586942Y-80964861D02*
X115726942Y-80964861D01*
%TO.C,C59*%
X117430000Y-91280000D02*
X118370000Y-91280000D01*
X118370000Y-91280000D02*
X118370000Y-89420000D01*
X118370000Y-89420000D02*
X117430000Y-89420000D01*
X117430000Y-89420000D02*
X117430000Y-91280000D01*
%TO.C,C60*%
X120330000Y-90930000D02*
X121270000Y-90930000D01*
X121270000Y-90930000D02*
X121270000Y-89070000D01*
X121270000Y-89070000D02*
X120330000Y-89070000D01*
X120330000Y-89070000D02*
X120330000Y-90930000D01*
%TO.C,C61*%
X120130000Y-101218999D02*
X121070000Y-101218999D01*
X121070000Y-101218999D02*
X121070000Y-99358999D01*
X121070000Y-99358999D02*
X120130000Y-99358999D01*
X120130000Y-99358999D02*
X120130000Y-101218999D01*
%TO.C,C63*%
X123679000Y-99474000D02*
X123679000Y-98534000D01*
X123679000Y-98534000D02*
X121819000Y-98534000D01*
X121819000Y-98534000D02*
X121819000Y-99474000D01*
X121819000Y-99474000D02*
X123679000Y-99474000D01*
%TO.C,C64*%
X121169000Y-96214000D02*
X120229000Y-96214000D01*
X120229000Y-96214000D02*
X120229000Y-98074000D01*
X120229000Y-98074000D02*
X121169000Y-98074000D01*
X121169000Y-98074000D02*
X121169000Y-96214000D01*
%TO.C,C65*%
X122069000Y-96224000D02*
X121129000Y-96224000D01*
X121129000Y-96224000D02*
X121129000Y-98084000D01*
X121129000Y-98084000D02*
X122069000Y-98084000D01*
X122069000Y-98084000D02*
X122069000Y-96224000D01*
%TO.C,C66*%
X130520000Y-74175000D02*
X129580000Y-74175000D01*
X129580000Y-74175000D02*
X129580000Y-76035000D01*
X129580000Y-76035000D02*
X130520000Y-76035000D01*
X130520000Y-76035000D02*
X130520000Y-74175000D01*
%TO.C,C67*%
X131420000Y-74175000D02*
X130480000Y-74175000D01*
X130480000Y-74175000D02*
X130480000Y-76035000D01*
X130480000Y-76035000D02*
X131420000Y-76035000D01*
X131420000Y-76035000D02*
X131420000Y-74175000D01*
%TO.C,C1*%
X133295000Y-121005000D02*
X133295000Y-121945000D01*
X133295000Y-121945000D02*
X135155000Y-121945000D01*
X135155000Y-121945000D02*
X135155000Y-121005000D01*
X135155000Y-121005000D02*
X133295000Y-121005000D01*
%TO.C,C2*%
X133295000Y-120105000D02*
X133295000Y-121045000D01*
X133295000Y-121045000D02*
X135155000Y-121045000D01*
X135155000Y-121045000D02*
X135155000Y-120105000D01*
X135155000Y-120105000D02*
X133295000Y-120105000D01*
%TO.C,C3*%
X122605000Y-131230000D02*
X123545000Y-131230000D01*
X123545000Y-131230000D02*
X123545000Y-129370000D01*
X123545000Y-129370000D02*
X122605000Y-129370000D01*
X122605000Y-129370000D02*
X122605000Y-131230000D01*
%TO.C,C4*%
X123520000Y-112820000D02*
X122580000Y-112820000D01*
X122580000Y-112820000D02*
X122580000Y-114680000D01*
X122580000Y-114680000D02*
X123520000Y-114680000D01*
X123520000Y-114680000D02*
X123520000Y-112820000D01*
%TO.C,C7*%
X95030000Y-87730000D02*
X95970000Y-87730000D01*
X95970000Y-87730000D02*
X95970000Y-85870000D01*
X95970000Y-85870000D02*
X95030000Y-85870000D01*
X95030000Y-85870000D02*
X95030000Y-87730000D01*
%TO.C,C8*%
X95030000Y-85930000D02*
X95970000Y-85930000D01*
X95970000Y-85930000D02*
X95970000Y-84070000D01*
X95970000Y-84070000D02*
X95030000Y-84070000D01*
X95030000Y-84070000D02*
X95030000Y-85930000D01*
%TO.C,C9*%
X94170000Y-75030000D02*
X94170000Y-75970000D01*
X94170000Y-75970000D02*
X96030000Y-75970000D01*
X96030000Y-75970000D02*
X96030000Y-75030000D01*
X96030000Y-75030000D02*
X94170000Y-75030000D01*
%TO.C,C104*%
X88700000Y-100230000D02*
X88700000Y-98370000D01*
X84900000Y-100230000D02*
X84900000Y-98370000D01*
X88700000Y-98370000D02*
X84900000Y-98370000D01*
X88700000Y-100230000D02*
X84900000Y-100230000D01*
%TO.C,C105*%
X88700000Y-98730000D02*
X88700000Y-96870000D01*
X84900000Y-98730000D02*
X84900000Y-96870000D01*
X88700000Y-96870000D02*
X84900000Y-96870000D01*
X88700000Y-98730000D02*
X84900000Y-98730000D01*
%TO.C,C106*%
X88530000Y-100970000D02*
X88530000Y-100030000D01*
X88530000Y-100030000D02*
X86670000Y-100030000D01*
X86670000Y-100030000D02*
X86670000Y-100970000D01*
X86670000Y-100970000D02*
X88530000Y-100970000D01*
%TO.C,C107*%
X88530000Y-101870000D02*
X88530000Y-100930000D01*
X88530000Y-100930000D02*
X86670000Y-100930000D01*
X86670000Y-100930000D02*
X86670000Y-101870000D01*
X86670000Y-101870000D02*
X88530000Y-101870000D01*
%TO.C,C108*%
X94300000Y-94070000D02*
X94300000Y-95930000D01*
X98100000Y-94070000D02*
X98100000Y-95930000D01*
X94300000Y-95930000D02*
X98100000Y-95930000D01*
X94300000Y-94070000D02*
X98100000Y-94070000D01*
%TO.C,C109*%
X94315000Y-95855000D02*
X94315000Y-97715000D01*
X98115000Y-95855000D02*
X98115000Y-97715000D01*
X94315000Y-97715000D02*
X98115000Y-97715000D01*
X94315000Y-95855000D02*
X98115000Y-95855000D01*
%TO.C,C110*%
X94570000Y-98530000D02*
X94570000Y-99470000D01*
X94570000Y-99470000D02*
X96430000Y-99470000D01*
X96430000Y-99470000D02*
X96430000Y-98530000D01*
X96430000Y-98530000D02*
X94570000Y-98530000D01*
%TO.C,C111*%
X94570000Y-97530000D02*
X94570000Y-98470000D01*
X94570000Y-98470000D02*
X96430000Y-98470000D01*
X96430000Y-98470000D02*
X96430000Y-97530000D01*
X96430000Y-97530000D02*
X94570000Y-97530000D01*
%TO.C,C114*%
X91520000Y-127305000D02*
X91520000Y-128245000D01*
X91520000Y-128245000D02*
X93380000Y-128245000D01*
X93380000Y-128245000D02*
X93380000Y-127305000D01*
X93380000Y-127305000D02*
X91520000Y-127305000D01*
%TO.C,C23*%
X129320000Y-146680000D02*
X129320000Y-147620000D01*
X129320000Y-147620000D02*
X131180000Y-147620000D01*
X131180000Y-147620000D02*
X131180000Y-146680000D01*
X131180000Y-146680000D02*
X129320000Y-146680000D01*
%TO.C,C24*%
X129200000Y-145440000D02*
X129200000Y-146860000D01*
X131560000Y-145440000D02*
X129340000Y-145440000D01*
X131700000Y-146860000D02*
X131700000Y-145440000D01*
X129340000Y-146860000D02*
X131560000Y-146860000D01*
X129340000Y-145440000D02*
X129200000Y-145440000D01*
X129340000Y-146860000D02*
X129200000Y-146860000D01*
X131560000Y-146860000D02*
X131700000Y-146860000D01*
X131560000Y-145440000D02*
X131700000Y-145440000D01*
%TO.C,C21*%
X124570000Y-145605000D02*
X123630000Y-145605000D01*
X123630000Y-145605000D02*
X123630000Y-147465000D01*
X123630000Y-147465000D02*
X124570000Y-147465000D01*
X124570000Y-147465000D02*
X124570000Y-145605000D01*
%TO.C,C22*%
X124580000Y-147480000D02*
X125520000Y-147480000D01*
X125520000Y-147480000D02*
X125520000Y-145620000D01*
X125520000Y-145620000D02*
X124580000Y-145620000D01*
X124580000Y-145620000D02*
X124580000Y-147480000D01*
%TO.C,C119*%
X107595000Y-142070000D02*
X107595000Y-141130000D01*
X107595000Y-141130000D02*
X105735000Y-141130000D01*
X105735000Y-141130000D02*
X105735000Y-142070000D01*
X105735000Y-142070000D02*
X107595000Y-142070000D01*
%TO.C,C116*%
X100820000Y-141430000D02*
X100820000Y-142370000D01*
X100820000Y-142370000D02*
X102680000Y-142370000D01*
X102680000Y-142370000D02*
X102680000Y-141430000D01*
X102680000Y-141430000D02*
X100820000Y-141430000D01*
%TO.C,C115*%
X97195000Y-139645001D02*
X96255000Y-139645001D01*
X96255000Y-139645001D02*
X96255000Y-141505001D01*
X96255000Y-141505001D02*
X97195000Y-141505001D01*
X97195000Y-141505001D02*
X97195000Y-139645001D01*
%TO.C,C120*%
X95980000Y-147880000D02*
X96920000Y-147880000D01*
X96920000Y-147880000D02*
X96920000Y-146020000D01*
X96920000Y-146020000D02*
X95980000Y-146020000D01*
X95980000Y-146020000D02*
X95980000Y-147880000D01*
%TO.C,C121*%
X107520000Y-141130000D02*
X107520000Y-142070000D01*
X107520000Y-142070000D02*
X109380000Y-142070000D01*
X109380000Y-142070000D02*
X109380000Y-141130000D01*
X109380000Y-141130000D02*
X107520000Y-141130000D01*
%TO.C,C117*%
X103880000Y-141355000D02*
X104820000Y-141355000D01*
X104820000Y-141355000D02*
X104820000Y-139495000D01*
X104820000Y-139495000D02*
X103880000Y-139495000D01*
X103880000Y-139495000D02*
X103880000Y-141355000D01*
%TO.C,C125*%
X145810000Y-119230000D02*
X145810000Y-118290000D01*
X145810000Y-118290000D02*
X143950000Y-118290000D01*
X143950000Y-118290000D02*
X143950000Y-119230000D01*
X143950000Y-119230000D02*
X145810000Y-119230000D01*
%TO.C,C126*%
X148950000Y-120730000D02*
X148010000Y-120730000D01*
X148010000Y-120730000D02*
X148010000Y-122590000D01*
X148010000Y-122590000D02*
X148950000Y-122590000D01*
X148950000Y-122590000D02*
X148950000Y-120730000D01*
%TO.C,C127*%
X145810000Y-118330000D02*
X145810000Y-117390000D01*
X145810000Y-117390000D02*
X143950000Y-117390000D01*
X143950000Y-117390000D02*
X143950000Y-118330000D01*
X143950000Y-118330000D02*
X145810000Y-118330000D01*
%TO.C,C128*%
X150650000Y-119390000D02*
X150650000Y-120330000D01*
X150650000Y-120330000D02*
X152510000Y-120330000D01*
X152510000Y-120330000D02*
X152510000Y-119390000D01*
X152510000Y-119390000D02*
X150650000Y-119390000D01*
%TO.C,C129*%
X148050000Y-120730000D02*
X147110000Y-120730000D01*
X147110000Y-120730000D02*
X147110000Y-122590000D01*
X147110000Y-122590000D02*
X148050000Y-122590000D01*
X148050000Y-122590000D02*
X148050000Y-120730000D01*
%TO.C,C130*%
X150650000Y-114590000D02*
X150650000Y-115530000D01*
X150650000Y-115530000D02*
X152510000Y-115530000D01*
X152510000Y-115530000D02*
X152510000Y-114590000D01*
X152510000Y-114590000D02*
X150650000Y-114590000D01*
%TO.C,C131*%
X150650000Y-117390000D02*
X150650000Y-118330000D01*
X150650000Y-118330000D02*
X152510000Y-118330000D01*
X152510000Y-118330000D02*
X152510000Y-117390000D01*
X152510000Y-117390000D02*
X150650000Y-117390000D01*
%TO.C,C133*%
X145360000Y-115865000D02*
X146300000Y-115865000D01*
X146300000Y-115865000D02*
X146300000Y-114005000D01*
X146300000Y-114005000D02*
X145360000Y-114005000D01*
X145360000Y-114005000D02*
X145360000Y-115865000D01*
%TO.C,C134*%
X146260000Y-115865000D02*
X147200000Y-115865000D01*
X147200000Y-115865000D02*
X147200000Y-114005000D01*
X147200000Y-114005000D02*
X146260000Y-114005000D01*
X146260000Y-114005000D02*
X146260000Y-115865000D01*
%TO.C,C135*%
X150070000Y-120670000D02*
X149130000Y-120670000D01*
X149130000Y-120670000D02*
X149130000Y-122530000D01*
X149130000Y-122530000D02*
X150070000Y-122530000D01*
X150070000Y-122530000D02*
X150070000Y-120670000D01*
%TO.C,C136*%
X152615000Y-113670000D02*
X152615000Y-112730000D01*
X152615000Y-112730000D02*
X150755000Y-112730000D01*
X150755000Y-112730000D02*
X150755000Y-113670000D01*
X150755000Y-113670000D02*
X152615000Y-113670000D01*
%TO.C,C137*%
X150970000Y-120670000D02*
X150030000Y-120670000D01*
X150030000Y-120670000D02*
X150030000Y-122530000D01*
X150030000Y-122530000D02*
X150970000Y-122530000D01*
X150970000Y-122530000D02*
X150970000Y-120670000D01*
%TO.C,C138*%
X149009999Y-115875000D02*
X149949999Y-115875000D01*
X149949999Y-115875000D02*
X149949999Y-114015000D01*
X149949999Y-114015000D02*
X149009999Y-114015000D01*
X149009999Y-114015000D02*
X149009999Y-115875000D01*
%TO.C,C146*%
X138440389Y-112887609D02*
X138440389Y-113827609D01*
X138440389Y-113827609D02*
X140300389Y-113827609D01*
X140300389Y-113827609D02*
X140300389Y-112887609D01*
X140300389Y-112887609D02*
X138440389Y-112887609D01*
%TO.C,C112*%
X104940000Y-89080000D02*
X109260000Y-89080000D01*
X109260000Y-89080000D02*
X109260000Y-85520000D01*
X109260000Y-85520000D02*
X104940000Y-85520000D01*
X104940000Y-85520000D02*
X104940000Y-89080000D01*
%TO.C,C148*%
X139455000Y-123030000D02*
X140395000Y-123030000D01*
X140395000Y-123030000D02*
X140395000Y-121170000D01*
X140395000Y-121170000D02*
X139455000Y-121170000D01*
X139455000Y-121170000D02*
X139455000Y-123030000D01*
%TO.C,C149*%
X139205000Y-118705000D02*
X140145000Y-118705000D01*
X140145000Y-118705000D02*
X140145000Y-116845000D01*
X140145000Y-116845000D02*
X139205000Y-116845000D01*
X139205000Y-116845000D02*
X139205000Y-118705000D01*
%TO.C,C154*%
X138555000Y-123030000D02*
X139495000Y-123030000D01*
X139495000Y-123030000D02*
X139495000Y-121170000D01*
X139495000Y-121170000D02*
X138555000Y-121170000D01*
X138555000Y-121170000D02*
X138555000Y-123030000D01*
%TO.C,C155*%
X138305000Y-118705000D02*
X139245000Y-118705000D01*
X139245000Y-118705000D02*
X139245000Y-116845000D01*
X139245000Y-116845000D02*
X138305000Y-116845000D01*
X138305000Y-116845000D02*
X138305000Y-118705000D01*
%TO.C,C147*%
X78630000Y-129870000D02*
X78630000Y-128930000D01*
X78630000Y-128930000D02*
X76770000Y-128930000D01*
X76770000Y-128930000D02*
X76770000Y-129870000D01*
X76770000Y-129870000D02*
X78630000Y-129870000D01*
%TO.C,C113*%
X89020000Y-137830000D02*
X89020000Y-138770000D01*
X89020000Y-138770000D02*
X90880000Y-138770000D01*
X90880000Y-138770000D02*
X90880000Y-137830000D01*
X90880000Y-137830000D02*
X89020000Y-137830000D01*
%TO.C,C36*%
X102780000Y-134820000D02*
X102780000Y-133880000D01*
X102780000Y-133880000D02*
X100920000Y-133880000D01*
X100920000Y-133880000D02*
X100920000Y-134820000D01*
X100920000Y-134820000D02*
X102780000Y-134820000D01*
%TO.C,C37*%
X106220000Y-132970000D02*
X105280000Y-132970000D01*
X105280000Y-132970000D02*
X105280000Y-134830000D01*
X105280000Y-134830000D02*
X106220000Y-134830000D01*
X106220000Y-134830000D02*
X106220000Y-132970000D01*
%TO.C,C122*%
X108005000Y-145370000D02*
X108005000Y-144430000D01*
X108005000Y-144430000D02*
X106145000Y-144430000D01*
X106145000Y-144430000D02*
X106145000Y-145370000D01*
X106145000Y-145370000D02*
X108005000Y-145370000D01*
%TO.C,C123*%
X107945000Y-144430000D02*
X107945000Y-145370000D01*
X107945000Y-145370000D02*
X109805000Y-145370000D01*
X109805000Y-145370000D02*
X109805000Y-144430000D01*
X109805000Y-144430000D02*
X107945000Y-144430000D01*
%TO.C,C139*%
X152170000Y-109545000D02*
X151230000Y-109545000D01*
X151230000Y-109545000D02*
X151230000Y-111405000D01*
X151230000Y-111405000D02*
X152170000Y-111405000D01*
X152170000Y-111405000D02*
X152170000Y-109545000D01*
%TO.C,D8*%
X105500000Y-90825000D02*
X108500000Y-90825000D01*
X108500000Y-90825000D02*
X108500000Y-88975000D01*
X108500000Y-88975000D02*
X105500000Y-88975000D01*
X105500000Y-88975000D02*
X105500000Y-90825000D01*
%TO.C,D16*%
X143810000Y-81749999D02*
X142390000Y-81749999D01*
X143810000Y-84549999D02*
X142390000Y-84549999D01*
X142390000Y-81749999D02*
X142390000Y-84549999D01*
X143810000Y-81749999D02*
X143810000Y-84549999D01*
%TO.C,FB1*%
X104130000Y-86930000D02*
X105070000Y-86930000D01*
X105070000Y-86930000D02*
X105070000Y-85070000D01*
X105070000Y-85070000D02*
X104130000Y-85070000D01*
X104130000Y-85070000D02*
X104130000Y-86930000D01*
%TO.C,FB2*%
X109130000Y-86930000D02*
X110070000Y-86930000D01*
X110070000Y-86930000D02*
X110070000Y-85070000D01*
X110070000Y-85070000D02*
X109130000Y-85070000D01*
X109130000Y-85070000D02*
X109130000Y-86930000D01*
%TO.C,Q1*%
X118025000Y-148000000D02*
X121675000Y-148000000D01*
X118025000Y-148000000D02*
X118025000Y-144100000D01*
X121675000Y-144100000D02*
X118025000Y-144100000D01*
X121675000Y-148000000D02*
X121675000Y-144100000D01*
%TO.C,Q2*%
X125625000Y-148000000D02*
X129275000Y-148000000D01*
X125625000Y-148000000D02*
X125625000Y-144100000D01*
X129275000Y-144100000D02*
X125625000Y-144100000D01*
X129275000Y-148000000D02*
X129275000Y-144100000D01*
%TO.C,Q5*%
X100975000Y-90350000D02*
X104625000Y-90350000D01*
X100975000Y-90350000D02*
X100975000Y-86450000D01*
X104625000Y-86450000D02*
X100975000Y-86450000D01*
X104625000Y-90350000D02*
X104625000Y-86450000D01*
%TO.C,R47*%
X155545255Y-94029113D02*
X155545255Y-93089113D01*
X155545255Y-93089113D02*
X153685255Y-93089113D01*
X153685255Y-93089113D02*
X153685255Y-94029113D01*
X153685255Y-94029113D02*
X155545255Y-94029113D01*
%TO.C,R48*%
X153699289Y-92235025D02*
X153699289Y-93175025D01*
X153699289Y-93175025D02*
X155559289Y-93175025D01*
X155559289Y-93175025D02*
X155559289Y-92235025D01*
X155559289Y-92235025D02*
X153699289Y-92235025D01*
%TO.C,R18*%
X123620000Y-145620000D02*
X122680000Y-145620000D01*
X122680000Y-145620000D02*
X122680000Y-147480000D01*
X122680000Y-147480000D02*
X123620000Y-147480000D01*
X123620000Y-147480000D02*
X123620000Y-145620000D01*
%TO.C,R109*%
X142555000Y-81405000D02*
X143495000Y-81405000D01*
X143495000Y-81405000D02*
X143495000Y-79545000D01*
X143495000Y-79545000D02*
X142555000Y-79545000D01*
X142555000Y-79545000D02*
X142555000Y-81405000D01*
%TO.C,R110*%
X143430000Y-79520001D02*
X143430000Y-78580001D01*
X143430000Y-78580001D02*
X141570000Y-78580001D01*
X141570000Y-78580001D02*
X141570000Y-79520001D01*
X141570000Y-79520001D02*
X143430000Y-79520001D01*
%TO.C,R31*%
X84976000Y-95644000D02*
X84976000Y-94704000D01*
X84976000Y-94704000D02*
X83116000Y-94704000D01*
X83116000Y-94704000D02*
X83116000Y-95644000D01*
X83116000Y-95644000D02*
X84976000Y-95644000D01*
%TO.C,R32*%
X84976000Y-93819000D02*
X84976000Y-92879000D01*
X84976000Y-92879000D02*
X83116000Y-92879000D01*
X83116000Y-92879000D02*
X83116000Y-93819000D01*
X83116000Y-93819000D02*
X84976000Y-93819000D01*
%TO.C,R33*%
X84951000Y-96544000D02*
X84951000Y-95604000D01*
X84951000Y-95604000D02*
X83091000Y-95604000D01*
X83091000Y-95604000D02*
X83091000Y-96544000D01*
X83091000Y-96544000D02*
X84951000Y-96544000D01*
%TO.C,R34*%
X84976000Y-94719000D02*
X84976000Y-93779000D01*
X84976000Y-93779000D02*
X83116000Y-93779000D01*
X83116000Y-93779000D02*
X83116000Y-94719000D01*
X83116000Y-94719000D02*
X84976000Y-94719000D01*
%TO.C,R19*%
X122720000Y-145620000D02*
X121780000Y-145620000D01*
X121780000Y-145620000D02*
X121780000Y-147480000D01*
X121780000Y-147480000D02*
X122720000Y-147480000D01*
X122720000Y-147480000D02*
X122720000Y-145620000D01*
%TO.C,R73*%
X111670000Y-138735000D02*
X110730000Y-138735000D01*
X110730000Y-138735000D02*
X110730000Y-140595000D01*
X110730000Y-140595000D02*
X111670000Y-140595000D01*
X111670000Y-140595000D02*
X111670000Y-138735000D01*
%TO.C,R75*%
X110720000Y-137780000D02*
X110720000Y-138720000D01*
X110720000Y-138720000D02*
X112580000Y-138720000D01*
X112580000Y-138720000D02*
X112580000Y-137780000D01*
X112580000Y-137780000D02*
X110720000Y-137780000D01*
%TO.C,R83*%
X147780000Y-115875000D02*
X148720000Y-115875000D01*
X148720000Y-115875000D02*
X148720000Y-114015000D01*
X148720000Y-114015000D02*
X147780000Y-114015000D01*
X147780000Y-114015000D02*
X147780000Y-115875000D01*
%TO.C,R45*%
X151815000Y-93270000D02*
X151815000Y-92330000D01*
X151815000Y-92330000D02*
X149955000Y-92330000D01*
X149955000Y-92330000D02*
X149955000Y-93270000D01*
X149955000Y-93270000D02*
X151815000Y-93270000D01*
%TO.C,R46*%
X149970000Y-93230000D02*
X149970000Y-94170000D01*
X149970000Y-94170000D02*
X151830000Y-94170000D01*
X151830000Y-94170000D02*
X151830000Y-93230000D01*
X151830000Y-93230000D02*
X149970000Y-93230000D01*
%TO.C,R70*%
X110120000Y-138735000D02*
X109180000Y-138735000D01*
X109180000Y-138735000D02*
X109180000Y-140595000D01*
X109180000Y-140595000D02*
X110120000Y-140595000D01*
X110120000Y-140595000D02*
X110120000Y-138735000D01*
%TO.C,R68*%
X109930000Y-143330000D02*
X110870000Y-143330000D01*
X110870000Y-143330000D02*
X110870000Y-141470000D01*
X110870000Y-141470000D02*
X109930000Y-141470000D01*
X109930000Y-141470000D02*
X109930000Y-143330000D01*
%TO.C,R61*%
X100980000Y-87920000D02*
X100980000Y-86980000D01*
X100980000Y-86980000D02*
X99120000Y-86980000D01*
X99120000Y-86980000D02*
X99120000Y-87920000D01*
X99120000Y-87920000D02*
X100980000Y-87920000D01*
%TO.C,R35*%
X100920000Y-133030000D02*
X100920000Y-133970000D01*
X100920000Y-133970000D02*
X102780000Y-133970000D01*
X102780000Y-133970000D02*
X102780000Y-133030000D01*
X102780000Y-133030000D02*
X100920000Y-133030000D01*
%TO.C,R36*%
X100920000Y-134730000D02*
X100920000Y-135670000D01*
X100920000Y-135670000D02*
X102780000Y-135670000D01*
X102780000Y-135670000D02*
X102780000Y-134730000D01*
X102780000Y-134730000D02*
X100920000Y-134730000D01*
%TO.C,R37*%
X100920000Y-135580000D02*
X100920000Y-136520000D01*
X100920000Y-136520000D02*
X102780000Y-136520000D01*
X102780000Y-136520000D02*
X102780000Y-135580000D01*
X102780000Y-135580000D02*
X100920000Y-135580000D01*
%TO.C,R67*%
X95045000Y-146030000D02*
X94105000Y-146030000D01*
X94105000Y-146030000D02*
X94105000Y-147890000D01*
X94105000Y-147890000D02*
X95045000Y-147890000D01*
X95045000Y-147890000D02*
X95045000Y-146030000D01*
%TO.C,R69*%
X111880000Y-144670000D02*
X111880000Y-143730000D01*
X111880000Y-143730000D02*
X110020000Y-143730000D01*
X110020000Y-143730000D02*
X110020000Y-144670000D01*
X110020000Y-144670000D02*
X111880000Y-144670000D01*
%TO.C,R103*%
X142245000Y-84220000D02*
X142245000Y-83280000D01*
X142245000Y-83280000D02*
X140385000Y-83280000D01*
X140385000Y-83280000D02*
X140385000Y-84220000D01*
X140385000Y-84220000D02*
X142245000Y-84220000D01*
%TO.C,SP1*%
X92556999Y-144443500D02*
G75*
G03*
X92556999Y-144443500I-3000000J0D01*
G01*
%TO.C,U39*%
X142524999Y-79150001D02*
X138524999Y-79150001D01*
X142524999Y-79150001D02*
X142524999Y-82800001D01*
X142524999Y-82800001D02*
X138524999Y-82800001D01*
X138524999Y-82800001D02*
X138524999Y-79150001D01*
%TO.C,U2*%
X95350000Y-75850000D02*
X95350000Y-83550000D01*
X89850000Y-75850000D02*
X95350000Y-75850000D01*
X89850000Y-83550000D02*
X89850000Y-75850000D01*
X95350000Y-83550000D02*
X89850000Y-83550000D01*
%TO.C,U12*%
X172800000Y-142850000D02*
X175800000Y-142850000D01*
X172800000Y-140950000D02*
X172800000Y-142850000D01*
X175800000Y-140950000D02*
X172800000Y-140950000D01*
X175800000Y-142850000D02*
X175800000Y-140950000D01*
%TO.C,U51*%
X116870000Y-72960000D02*
X114570000Y-72960000D01*
X116870000Y-75460000D02*
X116870000Y-72960000D01*
X114570000Y-75460000D02*
X116870000Y-75460000D01*
X114570000Y-72960000D02*
X114570000Y-75460000D01*
%TO.C,U49*%
X136253449Y-72921573D02*
X133953449Y-72921573D01*
X136253449Y-75421573D02*
X136253449Y-72921573D01*
X133953449Y-75421573D02*
X136253449Y-75421573D01*
X133953449Y-72921573D02*
X133953449Y-75421573D01*
%TO.C,U15*%
X131250000Y-72299999D02*
X128250000Y-72299999D01*
X131250000Y-74199999D02*
X131250000Y-72299999D01*
X128250000Y-74199999D02*
X131250000Y-74199999D01*
X128250000Y-72299999D02*
X128250000Y-74199999D01*
%TO.C,C34*%
X84370000Y-121430000D02*
X84370000Y-122370000D01*
X84370000Y-122370000D02*
X86230000Y-122370000D01*
X86230000Y-122370000D02*
X86230000Y-121430000D01*
X86230000Y-121430000D02*
X84370000Y-121430000D01*
%TO.C,R29*%
X86230000Y-123270000D02*
X86230000Y-122330000D01*
X86230000Y-122330000D02*
X84370000Y-122330000D01*
X84370000Y-122330000D02*
X84370000Y-123270000D01*
X84370000Y-123270000D02*
X86230000Y-123270000D01*
%TO.C,R30*%
X86230000Y-124170000D02*
X86230000Y-123230000D01*
X86230000Y-123230000D02*
X84370000Y-123230000D01*
X84370000Y-123230000D02*
X84370000Y-124170000D01*
X84370000Y-124170000D02*
X86230000Y-124170000D01*
%TO.C,U1*%
X95100000Y-87800000D02*
X92100000Y-87800000D01*
X95100000Y-84000000D02*
X92100000Y-84000000D01*
X95100000Y-87800000D02*
X95100000Y-84000000D01*
X92100000Y-87800000D02*
X92100000Y-84000000D01*
%TO.C,C140*%
X153120000Y-109545000D02*
X152180000Y-109545000D01*
X152180000Y-109545000D02*
X152180000Y-111405000D01*
X152180000Y-111405000D02*
X153120000Y-111405000D01*
X153120000Y-111405000D02*
X153120000Y-109545000D01*
%TO.C,C142*%
X151220000Y-109545000D02*
X150280000Y-109545000D01*
X150280000Y-109545000D02*
X150280000Y-111405000D01*
X150280000Y-111405000D02*
X151220000Y-111405000D01*
X151220000Y-111405000D02*
X151220000Y-109545000D01*
%TO.C,R77*%
X116630000Y-141570000D02*
X116630000Y-140630000D01*
X116630000Y-140630000D02*
X114770000Y-140630000D01*
X114770000Y-140630000D02*
X114770000Y-141570000D01*
X114770000Y-141570000D02*
X116630000Y-141570000D01*
%TO.C,R76*%
X116630000Y-139870000D02*
X116630000Y-138930000D01*
X116630000Y-138930000D02*
X114770000Y-138930000D01*
X114770000Y-138930000D02*
X114770000Y-139870000D01*
X114770000Y-139870000D02*
X116630000Y-139870000D01*
%TO.C,R71*%
X116615000Y-140720000D02*
X116615000Y-139780000D01*
X116615000Y-139780000D02*
X114755000Y-139780000D01*
X114755000Y-139780000D02*
X114755000Y-140720000D01*
X114755000Y-140720000D02*
X116615000Y-140720000D01*
%TO.C,R74*%
X116630000Y-143270000D02*
X116630000Y-142330000D01*
X116630000Y-142330000D02*
X114770000Y-142330000D01*
X114770000Y-142330000D02*
X114770000Y-143270000D01*
X114770000Y-143270000D02*
X116630000Y-143270000D01*
%TO.C,R72*%
X116630000Y-142420000D02*
X116630000Y-141480000D01*
X116630000Y-141480000D02*
X114770000Y-141480000D01*
X114770000Y-141480000D02*
X114770000Y-142420000D01*
X114770000Y-142420000D02*
X116630000Y-142420000D01*
%TO.C,C208*%
X89020000Y-138780000D02*
X89020000Y-139720000D01*
X89020000Y-139720000D02*
X90880000Y-139720000D01*
X90880000Y-139720000D02*
X90880000Y-138780000D01*
X90880000Y-138780000D02*
X89020000Y-138780000D01*
%TO.C,C209*%
X89020000Y-136880000D02*
X89020000Y-137820000D01*
X89020000Y-137820000D02*
X90880000Y-137820000D01*
X90880000Y-137820000D02*
X90880000Y-136880000D01*
X90880000Y-136880000D02*
X89020000Y-136880000D01*
%TO.C,C210*%
X91520000Y-129205000D02*
X91520000Y-130145000D01*
X91520000Y-130145000D02*
X93380000Y-130145000D01*
X93380000Y-130145000D02*
X93380000Y-129205000D01*
X93380000Y-129205000D02*
X91520000Y-129205000D01*
%TO.C,C211*%
X91605000Y-128245000D02*
X91605000Y-127305000D01*
X91605000Y-127305000D02*
X89745000Y-127305000D01*
X89745000Y-127305000D02*
X89745000Y-128245000D01*
X89745000Y-128245000D02*
X91605000Y-128245000D01*
%TO.C,C92*%
X147737231Y-84797029D02*
X146797231Y-84797029D01*
X146797231Y-84797029D02*
X146797231Y-86657029D01*
X146797231Y-86657029D02*
X147737231Y-86657029D01*
X147737231Y-86657029D02*
X147737231Y-84797029D01*
%TO.C,C80*%
X154050000Y-84690000D02*
X154050000Y-86110000D01*
X156410000Y-84690000D02*
X154190000Y-84690000D01*
X156550000Y-86110000D02*
X156550000Y-84690000D01*
X154190000Y-86110000D02*
X156410000Y-86110000D01*
X154190000Y-84690000D02*
X154050000Y-84690000D01*
X154190000Y-86110000D02*
X154050000Y-86110000D01*
X156410000Y-86110000D02*
X156550000Y-86110000D01*
X156410000Y-84690000D02*
X156550000Y-84690000D01*
%TO.C,C190*%
X115626942Y-86254862D02*
X115626942Y-87194862D01*
X115626942Y-87194862D02*
X117486942Y-87194862D01*
X117486942Y-87194862D02*
X117486942Y-86254862D01*
X117486942Y-86254862D02*
X115626942Y-86254862D01*
%TO.C,C193*%
X118280000Y-91280000D02*
X119220000Y-91280000D01*
X119220000Y-91280000D02*
X119220000Y-89420000D01*
X119220000Y-89420000D02*
X118280000Y-89420000D01*
X118280000Y-89420000D02*
X118280000Y-91280000D01*
%TO.C,C196*%
X121230000Y-90930000D02*
X122170000Y-90930000D01*
X122170000Y-90930000D02*
X122170000Y-89070000D01*
X122170000Y-89070000D02*
X121230000Y-89070000D01*
X121230000Y-89070000D02*
X121230000Y-90930000D01*
%TO.C,C199*%
X125930000Y-90930000D02*
X126870000Y-90930000D01*
X126870000Y-90930000D02*
X126870000Y-89070000D01*
X126870000Y-89070000D02*
X125930000Y-89070000D01*
X125930000Y-89070000D02*
X125930000Y-90930000D01*
%TO.C,C212*%
X123630000Y-90930000D02*
X124570000Y-90930000D01*
X124570000Y-90930000D02*
X124570000Y-89070000D01*
X124570000Y-89070000D02*
X123630000Y-89070000D01*
X123630000Y-89070000D02*
X123630000Y-90930000D01*
%TO.C,R25*%
X117430000Y-93630000D02*
X118370000Y-93630000D01*
X118370000Y-93630000D02*
X118370000Y-91770000D01*
X118370000Y-91770000D02*
X117430000Y-91770000D01*
X117430000Y-91770000D02*
X117430000Y-93630000D01*
%TO.C,R26*%
X119270000Y-91770000D02*
X118330000Y-91770000D01*
X118330000Y-91770000D02*
X118330000Y-93630000D01*
X118330000Y-93630000D02*
X119270000Y-93630000D01*
X119270000Y-93630000D02*
X119270000Y-91770000D01*
%TO.C,R28*%
X117486942Y-88044861D02*
X117486942Y-87104861D01*
X117486942Y-87104861D02*
X115626942Y-87104861D01*
X115626942Y-87104861D02*
X115626942Y-88044861D01*
X115626942Y-88044861D02*
X117486942Y-88044861D01*
%TO.C,R63*%
X117486942Y-88944860D02*
X117486942Y-88004860D01*
X117486942Y-88004860D02*
X115626942Y-88004860D01*
X115626942Y-88004860D02*
X115626942Y-88944860D01*
X115626942Y-88944860D02*
X117486942Y-88944860D01*
%TO.C,R94*%
X117486942Y-89844860D02*
X117486942Y-88904860D01*
X117486942Y-88904860D02*
X115626942Y-88904860D01*
X115626942Y-88904860D02*
X115626942Y-89844860D01*
X115626942Y-89844860D02*
X117486942Y-89844860D01*
%TO.C,R98*%
X117536942Y-85494862D02*
X117536942Y-84554862D01*
X117536942Y-84554862D02*
X115676942Y-84554862D01*
X115676942Y-84554862D02*
X115676942Y-85494862D01*
X115676942Y-85494862D02*
X117536942Y-85494862D01*
%TO.C,R126*%
X117536943Y-86344861D02*
X117536943Y-85404861D01*
X117536943Y-85404861D02*
X115676943Y-85404861D01*
X115676943Y-85404861D02*
X115676943Y-86344861D01*
X115676943Y-86344861D02*
X117536943Y-86344861D01*
%TO.C,R131*%
X126736942Y-80854860D02*
X126736942Y-81794860D01*
X126736942Y-81794860D02*
X128596942Y-81794860D01*
X128596942Y-81794860D02*
X128596942Y-80854860D01*
X128596942Y-80854860D02*
X126736942Y-80854860D01*
%TO.C,R134*%
X118796940Y-79894860D02*
X119736940Y-79894860D01*
X119736940Y-79894860D02*
X119736940Y-78034860D01*
X119736940Y-78034860D02*
X118796940Y-78034860D01*
X118796940Y-78034860D02*
X118796940Y-79894860D01*
%TO.C,R136*%
X117936942Y-79854859D02*
X118876942Y-79854859D01*
X118876942Y-79854859D02*
X118876942Y-77994859D01*
X118876942Y-77994859D02*
X117936942Y-77994859D01*
X117936942Y-77994859D02*
X117936942Y-79854859D01*
%TO.C,R138*%
X117096942Y-79854861D02*
X118036942Y-79854861D01*
X118036942Y-79854861D02*
X118036942Y-77994861D01*
X118036942Y-77994861D02*
X117096942Y-77994861D01*
X117096942Y-77994861D02*
X117096942Y-79854861D01*
%TO.C,R140*%
X116236942Y-79854861D02*
X117176942Y-79854861D01*
X117176942Y-79854861D02*
X117176942Y-77994861D01*
X117176942Y-77994861D02*
X116236942Y-77994861D01*
X116236942Y-77994861D02*
X116236942Y-79854861D01*
%TO.C,R141*%
X117471942Y-90694861D02*
X117471942Y-89754861D01*
X117471942Y-89754861D02*
X115611942Y-89754861D01*
X115611942Y-89754861D02*
X115611942Y-90694861D01*
X115611942Y-90694861D02*
X117471942Y-90694861D01*
%TO.C,R143*%
X126736943Y-88454860D02*
X126736943Y-89394860D01*
X126736943Y-89394860D02*
X128596943Y-89394860D01*
X128596943Y-89394860D02*
X128596943Y-88454860D01*
X128596943Y-88454860D02*
X126736943Y-88454860D01*
%TO.C,Q6*%
X98400000Y-88050000D02*
X98400000Y-90350000D01*
X100800000Y-88050000D02*
X98400000Y-88050000D01*
X100800000Y-90350000D02*
X100800000Y-88050000D01*
X98400000Y-90350000D02*
X100800000Y-90350000D01*
%TO.C,U18*%
X111900000Y-72350000D02*
X108900000Y-72350000D01*
X111900000Y-74250000D02*
X111900000Y-72350000D01*
X108900000Y-74250000D02*
X111900000Y-74250000D01*
X108900000Y-72350000D02*
X108900000Y-74250000D01*
%TO.C,C31*%
X131905736Y-64671421D02*
X132845736Y-64671421D01*
X132845736Y-64671421D02*
X132845736Y-62811421D01*
X132845736Y-62811421D02*
X131905736Y-62811421D01*
X131905736Y-62811421D02*
X131905736Y-64671421D01*
%TO.C,C70*%
X135370000Y-66130000D02*
X135370000Y-67070000D01*
X135370000Y-67070000D02*
X137230000Y-67070000D01*
X137230000Y-67070000D02*
X137230000Y-66130000D01*
X137230000Y-66130000D02*
X135370000Y-66130000D01*
%TO.C,C71*%
X132805735Y-64656422D02*
X133745735Y-64656422D01*
X133745735Y-64656422D02*
X133745735Y-62796422D01*
X133745735Y-62796422D02*
X132805735Y-62796422D01*
X132805735Y-62796422D02*
X132805735Y-64656422D01*
%TO.C,C77*%
X135370000Y-65230000D02*
X135370000Y-66170000D01*
X135370000Y-66170000D02*
X137230000Y-66170000D01*
X137230000Y-66170000D02*
X137230000Y-65230000D01*
X137230000Y-65230000D02*
X135370000Y-65230000D01*
%TO.C,C78*%
X131005736Y-64671421D02*
X131945736Y-64671421D01*
X131945736Y-64671421D02*
X131945736Y-62811421D01*
X131945736Y-62811421D02*
X131005736Y-62811421D01*
X131005736Y-62811421D02*
X131005736Y-64671421D01*
%TO.C,C213*%
X135370000Y-67030000D02*
X135370000Y-67970000D01*
X135370000Y-67970000D02*
X137230000Y-67970000D01*
X137230000Y-67970000D02*
X137230000Y-67030000D01*
X137230000Y-67030000D02*
X135370000Y-67030000D01*
%TO.C,C214*%
X111580000Y-64830000D02*
X112520000Y-64830000D01*
X112520000Y-64830000D02*
X112520000Y-62970000D01*
X112520000Y-62970000D02*
X111580000Y-62970000D01*
X111580000Y-62970000D02*
X111580000Y-64830000D01*
%TO.C,C215*%
X116020000Y-65280000D02*
X116020000Y-66220000D01*
X116020000Y-66220000D02*
X117880000Y-66220000D01*
X117880000Y-66220000D02*
X117880000Y-65280000D01*
X117880000Y-65280000D02*
X116020000Y-65280000D01*
%TO.C,C216*%
X113379999Y-64830000D02*
X114319999Y-64830000D01*
X114319999Y-64830000D02*
X114319999Y-62970000D01*
X114319999Y-62970000D02*
X113379999Y-62970000D01*
X113379999Y-62970000D02*
X113379999Y-64830000D01*
%TO.C,C217*%
X116020000Y-66130001D02*
X116020000Y-67070001D01*
X116020000Y-67070001D02*
X117880000Y-67070001D01*
X117880000Y-67070001D02*
X117880000Y-66130001D01*
X117880000Y-66130001D02*
X116020000Y-66130001D01*
%TO.C,C218*%
X112480000Y-64830000D02*
X113420000Y-64830000D01*
X113420000Y-64830000D02*
X113420000Y-62970000D01*
X113420000Y-62970000D02*
X112480000Y-62970000D01*
X112480000Y-62970000D02*
X112480000Y-64830000D01*
%TO.C,C219*%
X116020000Y-66980000D02*
X116020000Y-67920000D01*
X116020000Y-67920000D02*
X117880000Y-67920000D01*
X117880000Y-67920000D02*
X117880000Y-66980000D01*
X117880000Y-66980000D02*
X116020000Y-66980000D01*
%TO.C,C150*%
X144774687Y-125954674D02*
X144774687Y-125014674D01*
X144774687Y-125014674D02*
X142914687Y-125014674D01*
X142914687Y-125014674D02*
X142914687Y-125954674D01*
X142914687Y-125954674D02*
X144774687Y-125954674D01*
%TO.C,C151*%
X141601787Y-126994767D02*
X141601787Y-126054767D01*
X141601787Y-126054767D02*
X139741787Y-126054767D01*
X139741787Y-126054767D02*
X139741787Y-126994767D01*
X139741787Y-126994767D02*
X141601787Y-126994767D01*
%TO.C,C153*%
X141595609Y-126046598D02*
X141595609Y-125106598D01*
X141595609Y-125106598D02*
X139735609Y-125106598D01*
X139735609Y-125106598D02*
X139735609Y-126046598D01*
X139735609Y-126046598D02*
X141595609Y-126046598D01*
%TO.C,C152*%
X144774687Y-126873913D02*
X144774687Y-125933913D01*
X144774687Y-125933913D02*
X142914687Y-125933913D01*
X142914687Y-125933913D02*
X142914687Y-126873913D01*
X142914687Y-126873913D02*
X144774687Y-126873913D01*
%TO.C,C156*%
X140001787Y-131336137D02*
X140941787Y-131336137D01*
X140941787Y-131336137D02*
X140941787Y-129476137D01*
X140941787Y-129476137D02*
X140001787Y-129476137D01*
X140001787Y-129476137D02*
X140001787Y-131336137D01*
%TO.C,C220*%
X146000000Y-69940000D02*
X146000000Y-71360000D01*
X148360000Y-69940000D02*
X146140000Y-69940000D01*
X148500000Y-71360000D02*
X148500000Y-69940000D01*
X146140000Y-71360000D02*
X148360000Y-71360000D01*
X146140000Y-69940000D02*
X146000000Y-69940000D01*
X146140000Y-71360000D02*
X146000000Y-71360000D01*
X148360000Y-71360000D02*
X148500000Y-71360000D01*
X148360000Y-69940000D02*
X148500000Y-69940000D01*
%TO.C,C221*%
X150750000Y-71360000D02*
X150750000Y-69940000D01*
X148390000Y-71360000D02*
X150610000Y-71360000D01*
X148250000Y-69940000D02*
X148250000Y-71360000D01*
X150610000Y-69940000D02*
X148390000Y-69940000D01*
X150610000Y-71360000D02*
X150750000Y-71360000D01*
X150610000Y-69940000D02*
X150750000Y-69940000D01*
X148390000Y-69940000D02*
X148250000Y-69940000D01*
X148390000Y-71360000D02*
X148250000Y-71360000D01*
%TO.C,C222*%
X144700000Y-76070000D02*
X144700000Y-77930000D01*
X148500000Y-76070000D02*
X148500000Y-77930000D01*
X144700000Y-77930000D02*
X148500000Y-77930000D01*
X144700000Y-76070000D02*
X148500000Y-76070000D01*
%TO.C,C223*%
X152050000Y-77930000D02*
X152050000Y-76070000D01*
X148250000Y-77930000D02*
X148250000Y-76070000D01*
X152050000Y-76070000D02*
X148250000Y-76070000D01*
X152050000Y-77930000D02*
X148250000Y-77930000D01*
%TO.C,R62*%
X145570000Y-74470000D02*
X144630000Y-74470000D01*
X144630000Y-74470000D02*
X144630000Y-76330000D01*
X144630000Y-76330000D02*
X145570000Y-76330000D01*
X145570000Y-76330000D02*
X145570000Y-74470000D01*
%TO.C,R146*%
X144630000Y-74530000D02*
X145570000Y-74530000D01*
X145570000Y-74530000D02*
X145570000Y-72670000D01*
X145570000Y-72670000D02*
X144630000Y-72670000D01*
X144630000Y-72670000D02*
X144630000Y-74530000D01*
%TO.C,U59*%
X145448800Y-70720001D02*
X151348800Y-70720001D01*
X145448800Y-76720001D02*
X145448800Y-70720001D01*
X151348800Y-76720001D02*
X145448800Y-76720001D01*
X151348800Y-70720001D02*
X151348800Y-76720001D01*
%TO.C,L2*%
X139910000Y-82300001D02*
X138490000Y-82300001D01*
X139910000Y-84660001D02*
X139910000Y-82440001D01*
X138490000Y-84800001D02*
X139910000Y-84800001D01*
X138490000Y-82440001D02*
X138490000Y-84660001D01*
X139910000Y-82440001D02*
X139910000Y-82300001D01*
X138490000Y-82440001D02*
X138490000Y-82300001D01*
X138490000Y-84660001D02*
X138490000Y-84800001D01*
X139910000Y-84660001D02*
X139910000Y-84800001D01*
%TO.C,L5*%
X136410000Y-92550000D02*
X134990000Y-92550000D01*
X136410000Y-94910000D02*
X136410000Y-92690000D01*
X134990000Y-95050000D02*
X136410000Y-95050000D01*
X134990000Y-92690000D02*
X134990000Y-94910000D01*
X136410000Y-92690000D02*
X136410000Y-92550000D01*
X134990000Y-92690000D02*
X134990000Y-92550000D01*
X134990000Y-94910000D02*
X134990000Y-95050000D01*
X136410000Y-94910000D02*
X136410000Y-95050000D01*
%TO.C,Q13*%
X136200000Y-93250000D02*
X136200000Y-95550000D01*
X138600000Y-93250000D02*
X136200000Y-93250000D01*
X138600000Y-95550000D02*
X138600000Y-93250000D01*
X136200000Y-95550000D02*
X138600000Y-95550000D01*
%TO.C,R115*%
X139130000Y-91679999D02*
X140070000Y-91679999D01*
X140070000Y-91679999D02*
X140070000Y-89819999D01*
X140070000Y-89819999D02*
X139130000Y-89819999D01*
X139130000Y-89819999D02*
X139130000Y-91679999D01*
%TO.C,C183*%
X135160000Y-92550000D02*
X133740000Y-92550000D01*
X135160000Y-94910000D02*
X135160000Y-92690000D01*
X133740000Y-95050000D02*
X135160000Y-95050000D01*
X133740000Y-92690000D02*
X133740000Y-94910000D01*
X135160000Y-92690000D02*
X135160000Y-92550000D01*
X133740000Y-92690000D02*
X133740000Y-92550000D01*
X133740000Y-94910000D02*
X133740000Y-95050000D01*
X135160000Y-94910000D02*
X135160000Y-95050000D01*
%TO.C,U42*%
X139050000Y-89425000D02*
X135050000Y-89425000D01*
X139050000Y-89425000D02*
X139050000Y-93075000D01*
X139050000Y-93075000D02*
X135050000Y-93075000D01*
X135050000Y-93075000D02*
X135050000Y-89425000D01*
%TO.C,R116*%
X140030001Y-89820001D02*
X140030001Y-88880001D01*
X140030001Y-88880001D02*
X138170001Y-88880001D01*
X138170001Y-88880001D02*
X138170001Y-89820001D01*
X138170001Y-89820001D02*
X140030001Y-89820001D01*
%TO.C,R118*%
X140830000Y-93070000D02*
X140830000Y-92130000D01*
X140830000Y-92130000D02*
X138970000Y-92130000D01*
X138970000Y-92130000D02*
X138970000Y-93070000D01*
X138970000Y-93070000D02*
X140830000Y-93070000D01*
%TO.C,C178*%
X136870000Y-92630001D02*
X136870000Y-93570001D01*
X136870000Y-93570001D02*
X138730000Y-93570001D01*
X138730000Y-93570001D02*
X138730000Y-92630001D01*
X138730000Y-92630001D02*
X136870000Y-92630001D01*
%TO.C,C173*%
X135160001Y-89700002D02*
X133740001Y-89700002D01*
X135160001Y-92060002D02*
X135160001Y-89840002D01*
X133740001Y-92200002D02*
X135160001Y-92200002D01*
X133740001Y-89840002D02*
X133740001Y-92060002D01*
X135160001Y-89840002D02*
X135160001Y-89700002D01*
X133740001Y-89840002D02*
X133740001Y-89700002D01*
X133740001Y-92060002D02*
X133740001Y-92200002D01*
X135160001Y-92060002D02*
X135160001Y-92200002D01*
%TO.C,D19*%
X138590000Y-95700000D02*
X140010000Y-95700000D01*
X138590000Y-92900000D02*
X140010000Y-92900000D01*
X140010000Y-95700000D02*
X140010000Y-92900000D01*
X138590000Y-95700000D02*
X138590000Y-92900000D01*
%TO.C,R147*%
X152220000Y-74435000D02*
X151280000Y-74435000D01*
X151280000Y-74435000D02*
X151280000Y-76295000D01*
X151280000Y-76295000D02*
X152220000Y-76295000D01*
X152220000Y-76295000D02*
X152220000Y-74435000D01*
%TD*%
M02*
