%TF.GenerationSoftware,KiCad,Pcbnew,5.1.9+dfsg1-1*%
%TF.CreationDate,2022-05-16T11:51:26+02:00*%
%TF.ProjectId,kria-k26-devboard,6b726961-2d6b-4323-962d-646576626f61,rev?*%
%TF.SameCoordinates,Original*%
%TF.FileFunction,Paste,Bot*%
%TF.FilePolarity,Positive*%
%FSLAX46Y46*%
G04 Gerber Fmt 4.6, Leading zero omitted, Abs format (unit mm)*
G04 Created by KiCad (PCBNEW 5.1.9+dfsg1-1) date 2022-05-16 11:51:26 commit 389cbd4*
%MOMM*%
%LPD*%
G01*
G04 APERTURE LIST*
%TA.AperFunction,Profile*%
%ADD10C,0.100000*%
%TD*%
%ADD11C,0.010000*%
%ADD12R,1.500000X2.750000*%
%ADD13R,1.200000X1.200000*%
%ADD14R,0.600000X0.800000*%
%ADD15R,3.400000X0.980000*%
%ADD16R,0.200000X0.565000*%
%ADD17R,0.809600X1.905000*%
%ADD18R,2.500000X3.000000*%
%ADD19R,3.000000X2.700000*%
%ADD20R,1.200000X0.300000*%
%ADD21R,0.800000X0.600000*%
%ADD22R,1.520000X3.050000*%
%ADD23R,1.300000X0.600000*%
%ADD24R,1.200000X0.700000*%
%ADD25R,0.300000X0.600000*%
%ADD26R,1.550000X0.300000*%
%ADD27R,2.750000X1.200000*%
%ADD28R,0.600000X0.500000*%
G04 APERTURE END LIST*
D10*
X74000000Y-152000000D02*
X74000000Y-52000000D01*
X74000000Y-52000000D02*
X192000000Y-52000000D01*
X192000000Y-52000000D02*
X192000000Y-152000000D01*
X192000000Y-152000000D02*
X74000000Y-152000000D01*
D11*
%TO.C,U14*%
G36*
X174120000Y-142550000D02*
G01*
X174120000Y-142085000D01*
X174120069Y-142082383D01*
X174120274Y-142079774D01*
X174120616Y-142077178D01*
X174121093Y-142074604D01*
X174121704Y-142072059D01*
X174122447Y-142069549D01*
X174123321Y-142067082D01*
X174124323Y-142064663D01*
X174125450Y-142062300D01*
X174126699Y-142060000D01*
X174128066Y-142057768D01*
X174129549Y-142055611D01*
X174131143Y-142053534D01*
X174132843Y-142051543D01*
X174134645Y-142049645D01*
X174136543Y-142047843D01*
X174138534Y-142046143D01*
X174140611Y-142044549D01*
X174142768Y-142043066D01*
X174145000Y-142041699D01*
X174147300Y-142040450D01*
X174149663Y-142039323D01*
X174152082Y-142038321D01*
X174154549Y-142037447D01*
X174157059Y-142036704D01*
X174159604Y-142036093D01*
X174162178Y-142035616D01*
X174164774Y-142035274D01*
X174167383Y-142035069D01*
X174170000Y-142035000D01*
X174432500Y-142035000D01*
X174434986Y-142035065D01*
X174437465Y-142035260D01*
X174439931Y-142035585D01*
X174442376Y-142036038D01*
X174444794Y-142036619D01*
X174447178Y-142037325D01*
X174449522Y-142038155D01*
X174451820Y-142039107D01*
X174454065Y-142040177D01*
X174456250Y-142041364D01*
X174458370Y-142042663D01*
X174460420Y-142044072D01*
X174462393Y-142045586D01*
X174464284Y-142047201D01*
X174466088Y-142048912D01*
X174467799Y-142050716D01*
X174469414Y-142052607D01*
X174470928Y-142054580D01*
X174472337Y-142056630D01*
X174473636Y-142058750D01*
X174474823Y-142060935D01*
X174475893Y-142063180D01*
X174476845Y-142065478D01*
X174477675Y-142067822D01*
X174478381Y-142070206D01*
X174478962Y-142072624D01*
X174479415Y-142075069D01*
X174479740Y-142077535D01*
X174479935Y-142080014D01*
X174480000Y-142082500D01*
X174480000Y-142550000D01*
X174479931Y-142552617D01*
X174479726Y-142555226D01*
X174479384Y-142557822D01*
X174478907Y-142560396D01*
X174478296Y-142562941D01*
X174477553Y-142565451D01*
X174476679Y-142567918D01*
X174475677Y-142570337D01*
X174474550Y-142572700D01*
X174473301Y-142575000D01*
X174471934Y-142577232D01*
X174470451Y-142579389D01*
X174468857Y-142581466D01*
X174467157Y-142583457D01*
X174465355Y-142585355D01*
X174463457Y-142587157D01*
X174461466Y-142588857D01*
X174459389Y-142590451D01*
X174457232Y-142591934D01*
X174455000Y-142593301D01*
X174452700Y-142594550D01*
X174450337Y-142595677D01*
X174447918Y-142596679D01*
X174445451Y-142597553D01*
X174442941Y-142598296D01*
X174440396Y-142598907D01*
X174437822Y-142599384D01*
X174435226Y-142599726D01*
X174432617Y-142599931D01*
X174430000Y-142600000D01*
X174170000Y-142600000D01*
X174167383Y-142599931D01*
X174164774Y-142599726D01*
X174162178Y-142599384D01*
X174159604Y-142598907D01*
X174157059Y-142598296D01*
X174154549Y-142597553D01*
X174152082Y-142596679D01*
X174149663Y-142595677D01*
X174147300Y-142594550D01*
X174145000Y-142593301D01*
X174142768Y-142591934D01*
X174140611Y-142590451D01*
X174138534Y-142588857D01*
X174136543Y-142587157D01*
X174134645Y-142585355D01*
X174132843Y-142583457D01*
X174131143Y-142581466D01*
X174129549Y-142579389D01*
X174128066Y-142577232D01*
X174126699Y-142575000D01*
X174125450Y-142572700D01*
X174124323Y-142570337D01*
X174123321Y-142567918D01*
X174122447Y-142565451D01*
X174121704Y-142562941D01*
X174121093Y-142560396D01*
X174120616Y-142557822D01*
X174120274Y-142555226D01*
X174120069Y-142552617D01*
X174120000Y-142550000D01*
G37*
X174120000Y-142550000D02*
X174120000Y-142085000D01*
X174120069Y-142082383D01*
X174120274Y-142079774D01*
X174120616Y-142077178D01*
X174121093Y-142074604D01*
X174121704Y-142072059D01*
X174122447Y-142069549D01*
X174123321Y-142067082D01*
X174124323Y-142064663D01*
X174125450Y-142062300D01*
X174126699Y-142060000D01*
X174128066Y-142057768D01*
X174129549Y-142055611D01*
X174131143Y-142053534D01*
X174132843Y-142051543D01*
X174134645Y-142049645D01*
X174136543Y-142047843D01*
X174138534Y-142046143D01*
X174140611Y-142044549D01*
X174142768Y-142043066D01*
X174145000Y-142041699D01*
X174147300Y-142040450D01*
X174149663Y-142039323D01*
X174152082Y-142038321D01*
X174154549Y-142037447D01*
X174157059Y-142036704D01*
X174159604Y-142036093D01*
X174162178Y-142035616D01*
X174164774Y-142035274D01*
X174167383Y-142035069D01*
X174170000Y-142035000D01*
X174432500Y-142035000D01*
X174434986Y-142035065D01*
X174437465Y-142035260D01*
X174439931Y-142035585D01*
X174442376Y-142036038D01*
X174444794Y-142036619D01*
X174447178Y-142037325D01*
X174449522Y-142038155D01*
X174451820Y-142039107D01*
X174454065Y-142040177D01*
X174456250Y-142041364D01*
X174458370Y-142042663D01*
X174460420Y-142044072D01*
X174462393Y-142045586D01*
X174464284Y-142047201D01*
X174466088Y-142048912D01*
X174467799Y-142050716D01*
X174469414Y-142052607D01*
X174470928Y-142054580D01*
X174472337Y-142056630D01*
X174473636Y-142058750D01*
X174474823Y-142060935D01*
X174475893Y-142063180D01*
X174476845Y-142065478D01*
X174477675Y-142067822D01*
X174478381Y-142070206D01*
X174478962Y-142072624D01*
X174479415Y-142075069D01*
X174479740Y-142077535D01*
X174479935Y-142080014D01*
X174480000Y-142082500D01*
X174480000Y-142550000D01*
X174479931Y-142552617D01*
X174479726Y-142555226D01*
X174479384Y-142557822D01*
X174478907Y-142560396D01*
X174478296Y-142562941D01*
X174477553Y-142565451D01*
X174476679Y-142567918D01*
X174475677Y-142570337D01*
X174474550Y-142572700D01*
X174473301Y-142575000D01*
X174471934Y-142577232D01*
X174470451Y-142579389D01*
X174468857Y-142581466D01*
X174467157Y-142583457D01*
X174465355Y-142585355D01*
X174463457Y-142587157D01*
X174461466Y-142588857D01*
X174459389Y-142590451D01*
X174457232Y-142591934D01*
X174455000Y-142593301D01*
X174452700Y-142594550D01*
X174450337Y-142595677D01*
X174447918Y-142596679D01*
X174445451Y-142597553D01*
X174442941Y-142598296D01*
X174440396Y-142598907D01*
X174437822Y-142599384D01*
X174435226Y-142599726D01*
X174432617Y-142599931D01*
X174430000Y-142600000D01*
X174170000Y-142600000D01*
X174167383Y-142599931D01*
X174164774Y-142599726D01*
X174162178Y-142599384D01*
X174159604Y-142598907D01*
X174157059Y-142598296D01*
X174154549Y-142597553D01*
X174152082Y-142596679D01*
X174149663Y-142595677D01*
X174147300Y-142594550D01*
X174145000Y-142593301D01*
X174142768Y-142591934D01*
X174140611Y-142590451D01*
X174138534Y-142588857D01*
X174136543Y-142587157D01*
X174134645Y-142585355D01*
X174132843Y-142583457D01*
X174131143Y-142581466D01*
X174129549Y-142579389D01*
X174128066Y-142577232D01*
X174126699Y-142575000D01*
X174125450Y-142572700D01*
X174124323Y-142570337D01*
X174123321Y-142567918D01*
X174122447Y-142565451D01*
X174121704Y-142562941D01*
X174121093Y-142560396D01*
X174120616Y-142557822D01*
X174120274Y-142555226D01*
X174120069Y-142552617D01*
X174120000Y-142550000D01*
G36*
X174120000Y-141715000D02*
G01*
X174120000Y-141250000D01*
X174120069Y-141247383D01*
X174120274Y-141244774D01*
X174120616Y-141242178D01*
X174121093Y-141239604D01*
X174121704Y-141237059D01*
X174122447Y-141234549D01*
X174123321Y-141232082D01*
X174124323Y-141229663D01*
X174125450Y-141227300D01*
X174126699Y-141225000D01*
X174128066Y-141222768D01*
X174129549Y-141220611D01*
X174131143Y-141218534D01*
X174132843Y-141216543D01*
X174134645Y-141214645D01*
X174136543Y-141212843D01*
X174138534Y-141211143D01*
X174140611Y-141209549D01*
X174142768Y-141208066D01*
X174145000Y-141206699D01*
X174147300Y-141205450D01*
X174149663Y-141204323D01*
X174152082Y-141203321D01*
X174154549Y-141202447D01*
X174157059Y-141201704D01*
X174159604Y-141201093D01*
X174162178Y-141200616D01*
X174164774Y-141200274D01*
X174167383Y-141200069D01*
X174170000Y-141200000D01*
X174432500Y-141200000D01*
X174434986Y-141200065D01*
X174437465Y-141200260D01*
X174439931Y-141200585D01*
X174442376Y-141201038D01*
X174444794Y-141201619D01*
X174447178Y-141202325D01*
X174449522Y-141203155D01*
X174451820Y-141204107D01*
X174454065Y-141205177D01*
X174456250Y-141206364D01*
X174458370Y-141207663D01*
X174460420Y-141209072D01*
X174462393Y-141210586D01*
X174464284Y-141212201D01*
X174466088Y-141213912D01*
X174467799Y-141215716D01*
X174469414Y-141217607D01*
X174470928Y-141219580D01*
X174472337Y-141221630D01*
X174473636Y-141223750D01*
X174474823Y-141225935D01*
X174475893Y-141228180D01*
X174476845Y-141230478D01*
X174477675Y-141232822D01*
X174478381Y-141235206D01*
X174478962Y-141237624D01*
X174479415Y-141240069D01*
X174479740Y-141242535D01*
X174479935Y-141245014D01*
X174480000Y-141247500D01*
X174480000Y-141715000D01*
X174479931Y-141717617D01*
X174479726Y-141720226D01*
X174479384Y-141722822D01*
X174478907Y-141725396D01*
X174478296Y-141727941D01*
X174477553Y-141730451D01*
X174476679Y-141732918D01*
X174475677Y-141735337D01*
X174474550Y-141737700D01*
X174473301Y-141740000D01*
X174471934Y-141742232D01*
X174470451Y-141744389D01*
X174468857Y-141746466D01*
X174467157Y-141748457D01*
X174465355Y-141750355D01*
X174463457Y-141752157D01*
X174461466Y-141753857D01*
X174459389Y-141755451D01*
X174457232Y-141756934D01*
X174455000Y-141758301D01*
X174452700Y-141759550D01*
X174450337Y-141760677D01*
X174447918Y-141761679D01*
X174445451Y-141762553D01*
X174442941Y-141763296D01*
X174440396Y-141763907D01*
X174437822Y-141764384D01*
X174435226Y-141764726D01*
X174432617Y-141764931D01*
X174430000Y-141765000D01*
X174170000Y-141765000D01*
X174167383Y-141764931D01*
X174164774Y-141764726D01*
X174162178Y-141764384D01*
X174159604Y-141763907D01*
X174157059Y-141763296D01*
X174154549Y-141762553D01*
X174152082Y-141761679D01*
X174149663Y-141760677D01*
X174147300Y-141759550D01*
X174145000Y-141758301D01*
X174142768Y-141756934D01*
X174140611Y-141755451D01*
X174138534Y-141753857D01*
X174136543Y-141752157D01*
X174134645Y-141750355D01*
X174132843Y-141748457D01*
X174131143Y-141746466D01*
X174129549Y-141744389D01*
X174128066Y-141742232D01*
X174126699Y-141740000D01*
X174125450Y-141737700D01*
X174124323Y-141735337D01*
X174123321Y-141732918D01*
X174122447Y-141730451D01*
X174121704Y-141727941D01*
X174121093Y-141725396D01*
X174120616Y-141722822D01*
X174120274Y-141720226D01*
X174120069Y-141717617D01*
X174120000Y-141715000D01*
G37*
X174120000Y-141715000D02*
X174120000Y-141250000D01*
X174120069Y-141247383D01*
X174120274Y-141244774D01*
X174120616Y-141242178D01*
X174121093Y-141239604D01*
X174121704Y-141237059D01*
X174122447Y-141234549D01*
X174123321Y-141232082D01*
X174124323Y-141229663D01*
X174125450Y-141227300D01*
X174126699Y-141225000D01*
X174128066Y-141222768D01*
X174129549Y-141220611D01*
X174131143Y-141218534D01*
X174132843Y-141216543D01*
X174134645Y-141214645D01*
X174136543Y-141212843D01*
X174138534Y-141211143D01*
X174140611Y-141209549D01*
X174142768Y-141208066D01*
X174145000Y-141206699D01*
X174147300Y-141205450D01*
X174149663Y-141204323D01*
X174152082Y-141203321D01*
X174154549Y-141202447D01*
X174157059Y-141201704D01*
X174159604Y-141201093D01*
X174162178Y-141200616D01*
X174164774Y-141200274D01*
X174167383Y-141200069D01*
X174170000Y-141200000D01*
X174432500Y-141200000D01*
X174434986Y-141200065D01*
X174437465Y-141200260D01*
X174439931Y-141200585D01*
X174442376Y-141201038D01*
X174444794Y-141201619D01*
X174447178Y-141202325D01*
X174449522Y-141203155D01*
X174451820Y-141204107D01*
X174454065Y-141205177D01*
X174456250Y-141206364D01*
X174458370Y-141207663D01*
X174460420Y-141209072D01*
X174462393Y-141210586D01*
X174464284Y-141212201D01*
X174466088Y-141213912D01*
X174467799Y-141215716D01*
X174469414Y-141217607D01*
X174470928Y-141219580D01*
X174472337Y-141221630D01*
X174473636Y-141223750D01*
X174474823Y-141225935D01*
X174475893Y-141228180D01*
X174476845Y-141230478D01*
X174477675Y-141232822D01*
X174478381Y-141235206D01*
X174478962Y-141237624D01*
X174479415Y-141240069D01*
X174479740Y-141242535D01*
X174479935Y-141245014D01*
X174480000Y-141247500D01*
X174480000Y-141715000D01*
X174479931Y-141717617D01*
X174479726Y-141720226D01*
X174479384Y-141722822D01*
X174478907Y-141725396D01*
X174478296Y-141727941D01*
X174477553Y-141730451D01*
X174476679Y-141732918D01*
X174475677Y-141735337D01*
X174474550Y-141737700D01*
X174473301Y-141740000D01*
X174471934Y-141742232D01*
X174470451Y-141744389D01*
X174468857Y-141746466D01*
X174467157Y-141748457D01*
X174465355Y-141750355D01*
X174463457Y-141752157D01*
X174461466Y-141753857D01*
X174459389Y-141755451D01*
X174457232Y-141756934D01*
X174455000Y-141758301D01*
X174452700Y-141759550D01*
X174450337Y-141760677D01*
X174447918Y-141761679D01*
X174445451Y-141762553D01*
X174442941Y-141763296D01*
X174440396Y-141763907D01*
X174437822Y-141764384D01*
X174435226Y-141764726D01*
X174432617Y-141764931D01*
X174430000Y-141765000D01*
X174170000Y-141765000D01*
X174167383Y-141764931D01*
X174164774Y-141764726D01*
X174162178Y-141764384D01*
X174159604Y-141763907D01*
X174157059Y-141763296D01*
X174154549Y-141762553D01*
X174152082Y-141761679D01*
X174149663Y-141760677D01*
X174147300Y-141759550D01*
X174145000Y-141758301D01*
X174142768Y-141756934D01*
X174140611Y-141755451D01*
X174138534Y-141753857D01*
X174136543Y-141752157D01*
X174134645Y-141750355D01*
X174132843Y-141748457D01*
X174131143Y-141746466D01*
X174129549Y-141744389D01*
X174128066Y-141742232D01*
X174126699Y-141740000D01*
X174125450Y-141737700D01*
X174124323Y-141735337D01*
X174123321Y-141732918D01*
X174122447Y-141730451D01*
X174121704Y-141727941D01*
X174121093Y-141725396D01*
X174120616Y-141722822D01*
X174120274Y-141720226D01*
X174120069Y-141717617D01*
X174120000Y-141715000D01*
%TO.C,U28*%
G36*
X110580000Y-72650000D02*
G01*
X110580000Y-73115000D01*
X110579931Y-73117617D01*
X110579726Y-73120226D01*
X110579384Y-73122822D01*
X110578907Y-73125396D01*
X110578296Y-73127941D01*
X110577553Y-73130451D01*
X110576679Y-73132918D01*
X110575677Y-73135337D01*
X110574550Y-73137700D01*
X110573301Y-73140000D01*
X110571934Y-73142232D01*
X110570451Y-73144389D01*
X110568857Y-73146466D01*
X110567157Y-73148457D01*
X110565355Y-73150355D01*
X110563457Y-73152157D01*
X110561466Y-73153857D01*
X110559389Y-73155451D01*
X110557232Y-73156934D01*
X110555000Y-73158301D01*
X110552700Y-73159550D01*
X110550337Y-73160677D01*
X110547918Y-73161679D01*
X110545451Y-73162553D01*
X110542941Y-73163296D01*
X110540396Y-73163907D01*
X110537822Y-73164384D01*
X110535226Y-73164726D01*
X110532617Y-73164931D01*
X110530000Y-73165000D01*
X110267500Y-73165000D01*
X110265014Y-73164935D01*
X110262535Y-73164740D01*
X110260069Y-73164415D01*
X110257624Y-73163962D01*
X110255206Y-73163381D01*
X110252822Y-73162675D01*
X110250478Y-73161845D01*
X110248180Y-73160893D01*
X110245935Y-73159823D01*
X110243750Y-73158636D01*
X110241630Y-73157337D01*
X110239580Y-73155928D01*
X110237607Y-73154414D01*
X110235716Y-73152799D01*
X110233912Y-73151088D01*
X110232201Y-73149284D01*
X110230586Y-73147393D01*
X110229072Y-73145420D01*
X110227663Y-73143370D01*
X110226364Y-73141250D01*
X110225177Y-73139065D01*
X110224107Y-73136820D01*
X110223155Y-73134522D01*
X110222325Y-73132178D01*
X110221619Y-73129794D01*
X110221038Y-73127376D01*
X110220585Y-73124931D01*
X110220260Y-73122465D01*
X110220065Y-73119986D01*
X110220000Y-73117500D01*
X110220000Y-72650000D01*
X110220069Y-72647383D01*
X110220274Y-72644774D01*
X110220616Y-72642178D01*
X110221093Y-72639604D01*
X110221704Y-72637059D01*
X110222447Y-72634549D01*
X110223321Y-72632082D01*
X110224323Y-72629663D01*
X110225450Y-72627300D01*
X110226699Y-72625000D01*
X110228066Y-72622768D01*
X110229549Y-72620611D01*
X110231143Y-72618534D01*
X110232843Y-72616543D01*
X110234645Y-72614645D01*
X110236543Y-72612843D01*
X110238534Y-72611143D01*
X110240611Y-72609549D01*
X110242768Y-72608066D01*
X110245000Y-72606699D01*
X110247300Y-72605450D01*
X110249663Y-72604323D01*
X110252082Y-72603321D01*
X110254549Y-72602447D01*
X110257059Y-72601704D01*
X110259604Y-72601093D01*
X110262178Y-72600616D01*
X110264774Y-72600274D01*
X110267383Y-72600069D01*
X110270000Y-72600000D01*
X110530000Y-72600000D01*
X110532617Y-72600069D01*
X110535226Y-72600274D01*
X110537822Y-72600616D01*
X110540396Y-72601093D01*
X110542941Y-72601704D01*
X110545451Y-72602447D01*
X110547918Y-72603321D01*
X110550337Y-72604323D01*
X110552700Y-72605450D01*
X110555000Y-72606699D01*
X110557232Y-72608066D01*
X110559389Y-72609549D01*
X110561466Y-72611143D01*
X110563457Y-72612843D01*
X110565355Y-72614645D01*
X110567157Y-72616543D01*
X110568857Y-72618534D01*
X110570451Y-72620611D01*
X110571934Y-72622768D01*
X110573301Y-72625000D01*
X110574550Y-72627300D01*
X110575677Y-72629663D01*
X110576679Y-72632082D01*
X110577553Y-72634549D01*
X110578296Y-72637059D01*
X110578907Y-72639604D01*
X110579384Y-72642178D01*
X110579726Y-72644774D01*
X110579931Y-72647383D01*
X110580000Y-72650000D01*
G37*
X110580000Y-72650000D02*
X110580000Y-73115000D01*
X110579931Y-73117617D01*
X110579726Y-73120226D01*
X110579384Y-73122822D01*
X110578907Y-73125396D01*
X110578296Y-73127941D01*
X110577553Y-73130451D01*
X110576679Y-73132918D01*
X110575677Y-73135337D01*
X110574550Y-73137700D01*
X110573301Y-73140000D01*
X110571934Y-73142232D01*
X110570451Y-73144389D01*
X110568857Y-73146466D01*
X110567157Y-73148457D01*
X110565355Y-73150355D01*
X110563457Y-73152157D01*
X110561466Y-73153857D01*
X110559389Y-73155451D01*
X110557232Y-73156934D01*
X110555000Y-73158301D01*
X110552700Y-73159550D01*
X110550337Y-73160677D01*
X110547918Y-73161679D01*
X110545451Y-73162553D01*
X110542941Y-73163296D01*
X110540396Y-73163907D01*
X110537822Y-73164384D01*
X110535226Y-73164726D01*
X110532617Y-73164931D01*
X110530000Y-73165000D01*
X110267500Y-73165000D01*
X110265014Y-73164935D01*
X110262535Y-73164740D01*
X110260069Y-73164415D01*
X110257624Y-73163962D01*
X110255206Y-73163381D01*
X110252822Y-73162675D01*
X110250478Y-73161845D01*
X110248180Y-73160893D01*
X110245935Y-73159823D01*
X110243750Y-73158636D01*
X110241630Y-73157337D01*
X110239580Y-73155928D01*
X110237607Y-73154414D01*
X110235716Y-73152799D01*
X110233912Y-73151088D01*
X110232201Y-73149284D01*
X110230586Y-73147393D01*
X110229072Y-73145420D01*
X110227663Y-73143370D01*
X110226364Y-73141250D01*
X110225177Y-73139065D01*
X110224107Y-73136820D01*
X110223155Y-73134522D01*
X110222325Y-73132178D01*
X110221619Y-73129794D01*
X110221038Y-73127376D01*
X110220585Y-73124931D01*
X110220260Y-73122465D01*
X110220065Y-73119986D01*
X110220000Y-73117500D01*
X110220000Y-72650000D01*
X110220069Y-72647383D01*
X110220274Y-72644774D01*
X110220616Y-72642178D01*
X110221093Y-72639604D01*
X110221704Y-72637059D01*
X110222447Y-72634549D01*
X110223321Y-72632082D01*
X110224323Y-72629663D01*
X110225450Y-72627300D01*
X110226699Y-72625000D01*
X110228066Y-72622768D01*
X110229549Y-72620611D01*
X110231143Y-72618534D01*
X110232843Y-72616543D01*
X110234645Y-72614645D01*
X110236543Y-72612843D01*
X110238534Y-72611143D01*
X110240611Y-72609549D01*
X110242768Y-72608066D01*
X110245000Y-72606699D01*
X110247300Y-72605450D01*
X110249663Y-72604323D01*
X110252082Y-72603321D01*
X110254549Y-72602447D01*
X110257059Y-72601704D01*
X110259604Y-72601093D01*
X110262178Y-72600616D01*
X110264774Y-72600274D01*
X110267383Y-72600069D01*
X110270000Y-72600000D01*
X110530000Y-72600000D01*
X110532617Y-72600069D01*
X110535226Y-72600274D01*
X110537822Y-72600616D01*
X110540396Y-72601093D01*
X110542941Y-72601704D01*
X110545451Y-72602447D01*
X110547918Y-72603321D01*
X110550337Y-72604323D01*
X110552700Y-72605450D01*
X110555000Y-72606699D01*
X110557232Y-72608066D01*
X110559389Y-72609549D01*
X110561466Y-72611143D01*
X110563457Y-72612843D01*
X110565355Y-72614645D01*
X110567157Y-72616543D01*
X110568857Y-72618534D01*
X110570451Y-72620611D01*
X110571934Y-72622768D01*
X110573301Y-72625000D01*
X110574550Y-72627300D01*
X110575677Y-72629663D01*
X110576679Y-72632082D01*
X110577553Y-72634549D01*
X110578296Y-72637059D01*
X110578907Y-72639604D01*
X110579384Y-72642178D01*
X110579726Y-72644774D01*
X110579931Y-72647383D01*
X110580000Y-72650000D01*
G36*
X110580000Y-73485000D02*
G01*
X110580000Y-73950000D01*
X110579931Y-73952617D01*
X110579726Y-73955226D01*
X110579384Y-73957822D01*
X110578907Y-73960396D01*
X110578296Y-73962941D01*
X110577553Y-73965451D01*
X110576679Y-73967918D01*
X110575677Y-73970337D01*
X110574550Y-73972700D01*
X110573301Y-73975000D01*
X110571934Y-73977232D01*
X110570451Y-73979389D01*
X110568857Y-73981466D01*
X110567157Y-73983457D01*
X110565355Y-73985355D01*
X110563457Y-73987157D01*
X110561466Y-73988857D01*
X110559389Y-73990451D01*
X110557232Y-73991934D01*
X110555000Y-73993301D01*
X110552700Y-73994550D01*
X110550337Y-73995677D01*
X110547918Y-73996679D01*
X110545451Y-73997553D01*
X110542941Y-73998296D01*
X110540396Y-73998907D01*
X110537822Y-73999384D01*
X110535226Y-73999726D01*
X110532617Y-73999931D01*
X110530000Y-74000000D01*
X110267500Y-74000000D01*
X110265014Y-73999935D01*
X110262535Y-73999740D01*
X110260069Y-73999415D01*
X110257624Y-73998962D01*
X110255206Y-73998381D01*
X110252822Y-73997675D01*
X110250478Y-73996845D01*
X110248180Y-73995893D01*
X110245935Y-73994823D01*
X110243750Y-73993636D01*
X110241630Y-73992337D01*
X110239580Y-73990928D01*
X110237607Y-73989414D01*
X110235716Y-73987799D01*
X110233912Y-73986088D01*
X110232201Y-73984284D01*
X110230586Y-73982393D01*
X110229072Y-73980420D01*
X110227663Y-73978370D01*
X110226364Y-73976250D01*
X110225177Y-73974065D01*
X110224107Y-73971820D01*
X110223155Y-73969522D01*
X110222325Y-73967178D01*
X110221619Y-73964794D01*
X110221038Y-73962376D01*
X110220585Y-73959931D01*
X110220260Y-73957465D01*
X110220065Y-73954986D01*
X110220000Y-73952500D01*
X110220000Y-73485000D01*
X110220069Y-73482383D01*
X110220274Y-73479774D01*
X110220616Y-73477178D01*
X110221093Y-73474604D01*
X110221704Y-73472059D01*
X110222447Y-73469549D01*
X110223321Y-73467082D01*
X110224323Y-73464663D01*
X110225450Y-73462300D01*
X110226699Y-73460000D01*
X110228066Y-73457768D01*
X110229549Y-73455611D01*
X110231143Y-73453534D01*
X110232843Y-73451543D01*
X110234645Y-73449645D01*
X110236543Y-73447843D01*
X110238534Y-73446143D01*
X110240611Y-73444549D01*
X110242768Y-73443066D01*
X110245000Y-73441699D01*
X110247300Y-73440450D01*
X110249663Y-73439323D01*
X110252082Y-73438321D01*
X110254549Y-73437447D01*
X110257059Y-73436704D01*
X110259604Y-73436093D01*
X110262178Y-73435616D01*
X110264774Y-73435274D01*
X110267383Y-73435069D01*
X110270000Y-73435000D01*
X110530000Y-73435000D01*
X110532617Y-73435069D01*
X110535226Y-73435274D01*
X110537822Y-73435616D01*
X110540396Y-73436093D01*
X110542941Y-73436704D01*
X110545451Y-73437447D01*
X110547918Y-73438321D01*
X110550337Y-73439323D01*
X110552700Y-73440450D01*
X110555000Y-73441699D01*
X110557232Y-73443066D01*
X110559389Y-73444549D01*
X110561466Y-73446143D01*
X110563457Y-73447843D01*
X110565355Y-73449645D01*
X110567157Y-73451543D01*
X110568857Y-73453534D01*
X110570451Y-73455611D01*
X110571934Y-73457768D01*
X110573301Y-73460000D01*
X110574550Y-73462300D01*
X110575677Y-73464663D01*
X110576679Y-73467082D01*
X110577553Y-73469549D01*
X110578296Y-73472059D01*
X110578907Y-73474604D01*
X110579384Y-73477178D01*
X110579726Y-73479774D01*
X110579931Y-73482383D01*
X110580000Y-73485000D01*
G37*
X110580000Y-73485000D02*
X110580000Y-73950000D01*
X110579931Y-73952617D01*
X110579726Y-73955226D01*
X110579384Y-73957822D01*
X110578907Y-73960396D01*
X110578296Y-73962941D01*
X110577553Y-73965451D01*
X110576679Y-73967918D01*
X110575677Y-73970337D01*
X110574550Y-73972700D01*
X110573301Y-73975000D01*
X110571934Y-73977232D01*
X110570451Y-73979389D01*
X110568857Y-73981466D01*
X110567157Y-73983457D01*
X110565355Y-73985355D01*
X110563457Y-73987157D01*
X110561466Y-73988857D01*
X110559389Y-73990451D01*
X110557232Y-73991934D01*
X110555000Y-73993301D01*
X110552700Y-73994550D01*
X110550337Y-73995677D01*
X110547918Y-73996679D01*
X110545451Y-73997553D01*
X110542941Y-73998296D01*
X110540396Y-73998907D01*
X110537822Y-73999384D01*
X110535226Y-73999726D01*
X110532617Y-73999931D01*
X110530000Y-74000000D01*
X110267500Y-74000000D01*
X110265014Y-73999935D01*
X110262535Y-73999740D01*
X110260069Y-73999415D01*
X110257624Y-73998962D01*
X110255206Y-73998381D01*
X110252822Y-73997675D01*
X110250478Y-73996845D01*
X110248180Y-73995893D01*
X110245935Y-73994823D01*
X110243750Y-73993636D01*
X110241630Y-73992337D01*
X110239580Y-73990928D01*
X110237607Y-73989414D01*
X110235716Y-73987799D01*
X110233912Y-73986088D01*
X110232201Y-73984284D01*
X110230586Y-73982393D01*
X110229072Y-73980420D01*
X110227663Y-73978370D01*
X110226364Y-73976250D01*
X110225177Y-73974065D01*
X110224107Y-73971820D01*
X110223155Y-73969522D01*
X110222325Y-73967178D01*
X110221619Y-73964794D01*
X110221038Y-73962376D01*
X110220585Y-73959931D01*
X110220260Y-73957465D01*
X110220065Y-73954986D01*
X110220000Y-73952500D01*
X110220000Y-73485000D01*
X110220069Y-73482383D01*
X110220274Y-73479774D01*
X110220616Y-73477178D01*
X110221093Y-73474604D01*
X110221704Y-73472059D01*
X110222447Y-73469549D01*
X110223321Y-73467082D01*
X110224323Y-73464663D01*
X110225450Y-73462300D01*
X110226699Y-73460000D01*
X110228066Y-73457768D01*
X110229549Y-73455611D01*
X110231143Y-73453534D01*
X110232843Y-73451543D01*
X110234645Y-73449645D01*
X110236543Y-73447843D01*
X110238534Y-73446143D01*
X110240611Y-73444549D01*
X110242768Y-73443066D01*
X110245000Y-73441699D01*
X110247300Y-73440450D01*
X110249663Y-73439323D01*
X110252082Y-73438321D01*
X110254549Y-73437447D01*
X110257059Y-73436704D01*
X110259604Y-73436093D01*
X110262178Y-73435616D01*
X110264774Y-73435274D01*
X110267383Y-73435069D01*
X110270000Y-73435000D01*
X110530000Y-73435000D01*
X110532617Y-73435069D01*
X110535226Y-73435274D01*
X110537822Y-73435616D01*
X110540396Y-73436093D01*
X110542941Y-73436704D01*
X110545451Y-73437447D01*
X110547918Y-73438321D01*
X110550337Y-73439323D01*
X110552700Y-73440450D01*
X110555000Y-73441699D01*
X110557232Y-73443066D01*
X110559389Y-73444549D01*
X110561466Y-73446143D01*
X110563457Y-73447843D01*
X110565355Y-73449645D01*
X110567157Y-73451543D01*
X110568857Y-73453534D01*
X110570451Y-73455611D01*
X110571934Y-73457768D01*
X110573301Y-73460000D01*
X110574550Y-73462300D01*
X110575677Y-73464663D01*
X110576679Y-73467082D01*
X110577553Y-73469549D01*
X110578296Y-73472059D01*
X110578907Y-73474604D01*
X110579384Y-73477178D01*
X110579726Y-73479774D01*
X110579931Y-73482383D01*
X110580000Y-73485000D01*
%TO.C,U22*%
G36*
X129930000Y-72600000D02*
G01*
X129930000Y-73065000D01*
X129929931Y-73067617D01*
X129929726Y-73070226D01*
X129929384Y-73072822D01*
X129928907Y-73075396D01*
X129928296Y-73077941D01*
X129927553Y-73080451D01*
X129926679Y-73082918D01*
X129925677Y-73085337D01*
X129924550Y-73087700D01*
X129923301Y-73090000D01*
X129921934Y-73092232D01*
X129920451Y-73094389D01*
X129918857Y-73096466D01*
X129917157Y-73098457D01*
X129915355Y-73100355D01*
X129913457Y-73102157D01*
X129911466Y-73103857D01*
X129909389Y-73105451D01*
X129907232Y-73106934D01*
X129905000Y-73108301D01*
X129902700Y-73109550D01*
X129900337Y-73110677D01*
X129897918Y-73111679D01*
X129895451Y-73112553D01*
X129892941Y-73113296D01*
X129890396Y-73113907D01*
X129887822Y-73114384D01*
X129885226Y-73114726D01*
X129882617Y-73114931D01*
X129880000Y-73115000D01*
X129617500Y-73115000D01*
X129615014Y-73114935D01*
X129612535Y-73114740D01*
X129610069Y-73114415D01*
X129607624Y-73113962D01*
X129605206Y-73113381D01*
X129602822Y-73112675D01*
X129600478Y-73111845D01*
X129598180Y-73110893D01*
X129595935Y-73109823D01*
X129593750Y-73108636D01*
X129591630Y-73107337D01*
X129589580Y-73105928D01*
X129587607Y-73104414D01*
X129585716Y-73102799D01*
X129583912Y-73101088D01*
X129582201Y-73099284D01*
X129580586Y-73097393D01*
X129579072Y-73095420D01*
X129577663Y-73093370D01*
X129576364Y-73091250D01*
X129575177Y-73089065D01*
X129574107Y-73086820D01*
X129573155Y-73084522D01*
X129572325Y-73082178D01*
X129571619Y-73079794D01*
X129571038Y-73077376D01*
X129570585Y-73074931D01*
X129570260Y-73072465D01*
X129570065Y-73069986D01*
X129570000Y-73067500D01*
X129570000Y-72600000D01*
X129570069Y-72597383D01*
X129570274Y-72594774D01*
X129570616Y-72592178D01*
X129571093Y-72589604D01*
X129571704Y-72587059D01*
X129572447Y-72584549D01*
X129573321Y-72582082D01*
X129574323Y-72579663D01*
X129575450Y-72577300D01*
X129576699Y-72575000D01*
X129578066Y-72572768D01*
X129579549Y-72570611D01*
X129581143Y-72568534D01*
X129582843Y-72566543D01*
X129584645Y-72564645D01*
X129586543Y-72562843D01*
X129588534Y-72561143D01*
X129590611Y-72559549D01*
X129592768Y-72558066D01*
X129595000Y-72556699D01*
X129597300Y-72555450D01*
X129599663Y-72554323D01*
X129602082Y-72553321D01*
X129604549Y-72552447D01*
X129607059Y-72551704D01*
X129609604Y-72551093D01*
X129612178Y-72550616D01*
X129614774Y-72550274D01*
X129617383Y-72550069D01*
X129620000Y-72550000D01*
X129880000Y-72550000D01*
X129882617Y-72550069D01*
X129885226Y-72550274D01*
X129887822Y-72550616D01*
X129890396Y-72551093D01*
X129892941Y-72551704D01*
X129895451Y-72552447D01*
X129897918Y-72553321D01*
X129900337Y-72554323D01*
X129902700Y-72555450D01*
X129905000Y-72556699D01*
X129907232Y-72558066D01*
X129909389Y-72559549D01*
X129911466Y-72561143D01*
X129913457Y-72562843D01*
X129915355Y-72564645D01*
X129917157Y-72566543D01*
X129918857Y-72568534D01*
X129920451Y-72570611D01*
X129921934Y-72572768D01*
X129923301Y-72575000D01*
X129924550Y-72577300D01*
X129925677Y-72579663D01*
X129926679Y-72582082D01*
X129927553Y-72584549D01*
X129928296Y-72587059D01*
X129928907Y-72589604D01*
X129929384Y-72592178D01*
X129929726Y-72594774D01*
X129929931Y-72597383D01*
X129930000Y-72600000D01*
G37*
X129930000Y-72600000D02*
X129930000Y-73065000D01*
X129929931Y-73067617D01*
X129929726Y-73070226D01*
X129929384Y-73072822D01*
X129928907Y-73075396D01*
X129928296Y-73077941D01*
X129927553Y-73080451D01*
X129926679Y-73082918D01*
X129925677Y-73085337D01*
X129924550Y-73087700D01*
X129923301Y-73090000D01*
X129921934Y-73092232D01*
X129920451Y-73094389D01*
X129918857Y-73096466D01*
X129917157Y-73098457D01*
X129915355Y-73100355D01*
X129913457Y-73102157D01*
X129911466Y-73103857D01*
X129909389Y-73105451D01*
X129907232Y-73106934D01*
X129905000Y-73108301D01*
X129902700Y-73109550D01*
X129900337Y-73110677D01*
X129897918Y-73111679D01*
X129895451Y-73112553D01*
X129892941Y-73113296D01*
X129890396Y-73113907D01*
X129887822Y-73114384D01*
X129885226Y-73114726D01*
X129882617Y-73114931D01*
X129880000Y-73115000D01*
X129617500Y-73115000D01*
X129615014Y-73114935D01*
X129612535Y-73114740D01*
X129610069Y-73114415D01*
X129607624Y-73113962D01*
X129605206Y-73113381D01*
X129602822Y-73112675D01*
X129600478Y-73111845D01*
X129598180Y-73110893D01*
X129595935Y-73109823D01*
X129593750Y-73108636D01*
X129591630Y-73107337D01*
X129589580Y-73105928D01*
X129587607Y-73104414D01*
X129585716Y-73102799D01*
X129583912Y-73101088D01*
X129582201Y-73099284D01*
X129580586Y-73097393D01*
X129579072Y-73095420D01*
X129577663Y-73093370D01*
X129576364Y-73091250D01*
X129575177Y-73089065D01*
X129574107Y-73086820D01*
X129573155Y-73084522D01*
X129572325Y-73082178D01*
X129571619Y-73079794D01*
X129571038Y-73077376D01*
X129570585Y-73074931D01*
X129570260Y-73072465D01*
X129570065Y-73069986D01*
X129570000Y-73067500D01*
X129570000Y-72600000D01*
X129570069Y-72597383D01*
X129570274Y-72594774D01*
X129570616Y-72592178D01*
X129571093Y-72589604D01*
X129571704Y-72587059D01*
X129572447Y-72584549D01*
X129573321Y-72582082D01*
X129574323Y-72579663D01*
X129575450Y-72577300D01*
X129576699Y-72575000D01*
X129578066Y-72572768D01*
X129579549Y-72570611D01*
X129581143Y-72568534D01*
X129582843Y-72566543D01*
X129584645Y-72564645D01*
X129586543Y-72562843D01*
X129588534Y-72561143D01*
X129590611Y-72559549D01*
X129592768Y-72558066D01*
X129595000Y-72556699D01*
X129597300Y-72555450D01*
X129599663Y-72554323D01*
X129602082Y-72553321D01*
X129604549Y-72552447D01*
X129607059Y-72551704D01*
X129609604Y-72551093D01*
X129612178Y-72550616D01*
X129614774Y-72550274D01*
X129617383Y-72550069D01*
X129620000Y-72550000D01*
X129880000Y-72550000D01*
X129882617Y-72550069D01*
X129885226Y-72550274D01*
X129887822Y-72550616D01*
X129890396Y-72551093D01*
X129892941Y-72551704D01*
X129895451Y-72552447D01*
X129897918Y-72553321D01*
X129900337Y-72554323D01*
X129902700Y-72555450D01*
X129905000Y-72556699D01*
X129907232Y-72558066D01*
X129909389Y-72559549D01*
X129911466Y-72561143D01*
X129913457Y-72562843D01*
X129915355Y-72564645D01*
X129917157Y-72566543D01*
X129918857Y-72568534D01*
X129920451Y-72570611D01*
X129921934Y-72572768D01*
X129923301Y-72575000D01*
X129924550Y-72577300D01*
X129925677Y-72579663D01*
X129926679Y-72582082D01*
X129927553Y-72584549D01*
X129928296Y-72587059D01*
X129928907Y-72589604D01*
X129929384Y-72592178D01*
X129929726Y-72594774D01*
X129929931Y-72597383D01*
X129930000Y-72600000D01*
G36*
X129930000Y-73435000D02*
G01*
X129930000Y-73900000D01*
X129929931Y-73902617D01*
X129929726Y-73905226D01*
X129929384Y-73907822D01*
X129928907Y-73910396D01*
X129928296Y-73912941D01*
X129927553Y-73915451D01*
X129926679Y-73917918D01*
X129925677Y-73920337D01*
X129924550Y-73922700D01*
X129923301Y-73925000D01*
X129921934Y-73927232D01*
X129920451Y-73929389D01*
X129918857Y-73931466D01*
X129917157Y-73933457D01*
X129915355Y-73935355D01*
X129913457Y-73937157D01*
X129911466Y-73938857D01*
X129909389Y-73940451D01*
X129907232Y-73941934D01*
X129905000Y-73943301D01*
X129902700Y-73944550D01*
X129900337Y-73945677D01*
X129897918Y-73946679D01*
X129895451Y-73947553D01*
X129892941Y-73948296D01*
X129890396Y-73948907D01*
X129887822Y-73949384D01*
X129885226Y-73949726D01*
X129882617Y-73949931D01*
X129880000Y-73950000D01*
X129617500Y-73950000D01*
X129615014Y-73949935D01*
X129612535Y-73949740D01*
X129610069Y-73949415D01*
X129607624Y-73948962D01*
X129605206Y-73948381D01*
X129602822Y-73947675D01*
X129600478Y-73946845D01*
X129598180Y-73945893D01*
X129595935Y-73944823D01*
X129593750Y-73943636D01*
X129591630Y-73942337D01*
X129589580Y-73940928D01*
X129587607Y-73939414D01*
X129585716Y-73937799D01*
X129583912Y-73936088D01*
X129582201Y-73934284D01*
X129580586Y-73932393D01*
X129579072Y-73930420D01*
X129577663Y-73928370D01*
X129576364Y-73926250D01*
X129575177Y-73924065D01*
X129574107Y-73921820D01*
X129573155Y-73919522D01*
X129572325Y-73917178D01*
X129571619Y-73914794D01*
X129571038Y-73912376D01*
X129570585Y-73909931D01*
X129570260Y-73907465D01*
X129570065Y-73904986D01*
X129570000Y-73902500D01*
X129570000Y-73435000D01*
X129570069Y-73432383D01*
X129570274Y-73429774D01*
X129570616Y-73427178D01*
X129571093Y-73424604D01*
X129571704Y-73422059D01*
X129572447Y-73419549D01*
X129573321Y-73417082D01*
X129574323Y-73414663D01*
X129575450Y-73412300D01*
X129576699Y-73410000D01*
X129578066Y-73407768D01*
X129579549Y-73405611D01*
X129581143Y-73403534D01*
X129582843Y-73401543D01*
X129584645Y-73399645D01*
X129586543Y-73397843D01*
X129588534Y-73396143D01*
X129590611Y-73394549D01*
X129592768Y-73393066D01*
X129595000Y-73391699D01*
X129597300Y-73390450D01*
X129599663Y-73389323D01*
X129602082Y-73388321D01*
X129604549Y-73387447D01*
X129607059Y-73386704D01*
X129609604Y-73386093D01*
X129612178Y-73385616D01*
X129614774Y-73385274D01*
X129617383Y-73385069D01*
X129620000Y-73385000D01*
X129880000Y-73385000D01*
X129882617Y-73385069D01*
X129885226Y-73385274D01*
X129887822Y-73385616D01*
X129890396Y-73386093D01*
X129892941Y-73386704D01*
X129895451Y-73387447D01*
X129897918Y-73388321D01*
X129900337Y-73389323D01*
X129902700Y-73390450D01*
X129905000Y-73391699D01*
X129907232Y-73393066D01*
X129909389Y-73394549D01*
X129911466Y-73396143D01*
X129913457Y-73397843D01*
X129915355Y-73399645D01*
X129917157Y-73401543D01*
X129918857Y-73403534D01*
X129920451Y-73405611D01*
X129921934Y-73407768D01*
X129923301Y-73410000D01*
X129924550Y-73412300D01*
X129925677Y-73414663D01*
X129926679Y-73417082D01*
X129927553Y-73419549D01*
X129928296Y-73422059D01*
X129928907Y-73424604D01*
X129929384Y-73427178D01*
X129929726Y-73429774D01*
X129929931Y-73432383D01*
X129930000Y-73435000D01*
G37*
X129930000Y-73435000D02*
X129930000Y-73900000D01*
X129929931Y-73902617D01*
X129929726Y-73905226D01*
X129929384Y-73907822D01*
X129928907Y-73910396D01*
X129928296Y-73912941D01*
X129927553Y-73915451D01*
X129926679Y-73917918D01*
X129925677Y-73920337D01*
X129924550Y-73922700D01*
X129923301Y-73925000D01*
X129921934Y-73927232D01*
X129920451Y-73929389D01*
X129918857Y-73931466D01*
X129917157Y-73933457D01*
X129915355Y-73935355D01*
X129913457Y-73937157D01*
X129911466Y-73938857D01*
X129909389Y-73940451D01*
X129907232Y-73941934D01*
X129905000Y-73943301D01*
X129902700Y-73944550D01*
X129900337Y-73945677D01*
X129897918Y-73946679D01*
X129895451Y-73947553D01*
X129892941Y-73948296D01*
X129890396Y-73948907D01*
X129887822Y-73949384D01*
X129885226Y-73949726D01*
X129882617Y-73949931D01*
X129880000Y-73950000D01*
X129617500Y-73950000D01*
X129615014Y-73949935D01*
X129612535Y-73949740D01*
X129610069Y-73949415D01*
X129607624Y-73948962D01*
X129605206Y-73948381D01*
X129602822Y-73947675D01*
X129600478Y-73946845D01*
X129598180Y-73945893D01*
X129595935Y-73944823D01*
X129593750Y-73943636D01*
X129591630Y-73942337D01*
X129589580Y-73940928D01*
X129587607Y-73939414D01*
X129585716Y-73937799D01*
X129583912Y-73936088D01*
X129582201Y-73934284D01*
X129580586Y-73932393D01*
X129579072Y-73930420D01*
X129577663Y-73928370D01*
X129576364Y-73926250D01*
X129575177Y-73924065D01*
X129574107Y-73921820D01*
X129573155Y-73919522D01*
X129572325Y-73917178D01*
X129571619Y-73914794D01*
X129571038Y-73912376D01*
X129570585Y-73909931D01*
X129570260Y-73907465D01*
X129570065Y-73904986D01*
X129570000Y-73902500D01*
X129570000Y-73435000D01*
X129570069Y-73432383D01*
X129570274Y-73429774D01*
X129570616Y-73427178D01*
X129571093Y-73424604D01*
X129571704Y-73422059D01*
X129572447Y-73419549D01*
X129573321Y-73417082D01*
X129574323Y-73414663D01*
X129575450Y-73412300D01*
X129576699Y-73410000D01*
X129578066Y-73407768D01*
X129579549Y-73405611D01*
X129581143Y-73403534D01*
X129582843Y-73401543D01*
X129584645Y-73399645D01*
X129586543Y-73397843D01*
X129588534Y-73396143D01*
X129590611Y-73394549D01*
X129592768Y-73393066D01*
X129595000Y-73391699D01*
X129597300Y-73390450D01*
X129599663Y-73389323D01*
X129602082Y-73388321D01*
X129604549Y-73387447D01*
X129607059Y-73386704D01*
X129609604Y-73386093D01*
X129612178Y-73385616D01*
X129614774Y-73385274D01*
X129617383Y-73385069D01*
X129620000Y-73385000D01*
X129880000Y-73385000D01*
X129882617Y-73385069D01*
X129885226Y-73385274D01*
X129887822Y-73385616D01*
X129890396Y-73386093D01*
X129892941Y-73386704D01*
X129895451Y-73387447D01*
X129897918Y-73388321D01*
X129900337Y-73389323D01*
X129902700Y-73390450D01*
X129905000Y-73391699D01*
X129907232Y-73393066D01*
X129909389Y-73394549D01*
X129911466Y-73396143D01*
X129913457Y-73397843D01*
X129915355Y-73399645D01*
X129917157Y-73401543D01*
X129918857Y-73403534D01*
X129920451Y-73405611D01*
X129921934Y-73407768D01*
X129923301Y-73410000D01*
X129924550Y-73412300D01*
X129925677Y-73414663D01*
X129926679Y-73417082D01*
X129927553Y-73419549D01*
X129928296Y-73422059D01*
X129928907Y-73424604D01*
X129929384Y-73427178D01*
X129929726Y-73429774D01*
X129929931Y-73432383D01*
X129930000Y-73435000D01*
%TD*%
D12*
%TO.C,R154*%
X179870000Y-94450000D03*
X175230000Y-94450000D03*
%TD*%
D13*
%TO.C,R117*%
X185300000Y-76550000D03*
X185300000Y-74450000D03*
%TD*%
D14*
%TO.C,C185*%
X146675000Y-71400000D03*
X148075000Y-71400000D03*
%TD*%
%TO.C,U47*%
G36*
G01*
X148205500Y-72330000D02*
X148320500Y-72330000D01*
G75*
G02*
X148378000Y-72387500I0J-57500D01*
G01*
X148378000Y-73022500D01*
G75*
G02*
X148320500Y-73080000I-57500J0D01*
G01*
X148205500Y-73080000D01*
G75*
G02*
X148148000Y-73022500I0J57500D01*
G01*
X148148000Y-72387500D01*
G75*
G02*
X148205500Y-72330000I57500J0D01*
G01*
G37*
G36*
G01*
X148203500Y-74023000D02*
X148318500Y-74023000D01*
G75*
G02*
X148376000Y-74080500I0J-57500D01*
G01*
X148376000Y-74715500D01*
G75*
G02*
X148318500Y-74773000I-57500J0D01*
G01*
X148203500Y-74773000D01*
G75*
G02*
X148146000Y-74715500I0J57500D01*
G01*
X148146000Y-74080500D01*
G75*
G02*
X148203500Y-74023000I57500J0D01*
G01*
G37*
G36*
G01*
X147808500Y-72325000D02*
X147923500Y-72325000D01*
G75*
G02*
X147981000Y-72382500I0J-57500D01*
G01*
X147981000Y-73017500D01*
G75*
G02*
X147923500Y-73075000I-57500J0D01*
G01*
X147808500Y-73075000D01*
G75*
G02*
X147751000Y-73017500I0J57500D01*
G01*
X147751000Y-72382500D01*
G75*
G02*
X147808500Y-72325000I57500J0D01*
G01*
G37*
G36*
G01*
X147419500Y-72325000D02*
X147534500Y-72325000D01*
G75*
G02*
X147592000Y-72382500I0J-57500D01*
G01*
X147592000Y-73017500D01*
G75*
G02*
X147534500Y-73075000I-57500J0D01*
G01*
X147419500Y-73075000D01*
G75*
G02*
X147362000Y-73017500I0J57500D01*
G01*
X147362000Y-72382500D01*
G75*
G02*
X147419500Y-72325000I57500J0D01*
G01*
G37*
G36*
G01*
X147026500Y-72325000D02*
X147141500Y-72325000D01*
G75*
G02*
X147199000Y-72382500I0J-57500D01*
G01*
X147199000Y-73017500D01*
G75*
G02*
X147141500Y-73075000I-57500J0D01*
G01*
X147026500Y-73075000D01*
G75*
G02*
X146969000Y-73017500I0J57500D01*
G01*
X146969000Y-72382500D01*
G75*
G02*
X147026500Y-72325000I57500J0D01*
G01*
G37*
G36*
G01*
X147812500Y-74021000D02*
X147927500Y-74021000D01*
G75*
G02*
X147985000Y-74078500I0J-57500D01*
G01*
X147985000Y-74713500D01*
G75*
G02*
X147927500Y-74771000I-57500J0D01*
G01*
X147812500Y-74771000D01*
G75*
G02*
X147755000Y-74713500I0J57500D01*
G01*
X147755000Y-74078500D01*
G75*
G02*
X147812500Y-74021000I57500J0D01*
G01*
G37*
G36*
G01*
X147424500Y-74019000D02*
X147539500Y-74019000D01*
G75*
G02*
X147597000Y-74076500I0J-57500D01*
G01*
X147597000Y-74711500D01*
G75*
G02*
X147539500Y-74769000I-57500J0D01*
G01*
X147424500Y-74769000D01*
G75*
G02*
X147367000Y-74711500I0J57500D01*
G01*
X147367000Y-74076500D01*
G75*
G02*
X147424500Y-74019000I57500J0D01*
G01*
G37*
G36*
G01*
X147033500Y-74021000D02*
X147148500Y-74021000D01*
G75*
G02*
X147206000Y-74078500I0J-57500D01*
G01*
X147206000Y-74713500D01*
G75*
G02*
X147148500Y-74771000I-57500J0D01*
G01*
X147033500Y-74771000D01*
G75*
G02*
X146976000Y-74713500I0J57500D01*
G01*
X146976000Y-74078500D01*
G75*
G02*
X147033500Y-74021000I57500J0D01*
G01*
G37*
G36*
G01*
X148538000Y-74068500D02*
X148538000Y-73953500D01*
G75*
G02*
X148595500Y-73896000I57500J0D01*
G01*
X149330500Y-73896000D01*
G75*
G02*
X149388000Y-73953500I0J-57500D01*
G01*
X149388000Y-74068500D01*
G75*
G02*
X149330500Y-74126000I-57500J0D01*
G01*
X148595500Y-74126000D01*
G75*
G02*
X148538000Y-74068500I0J57500D01*
G01*
G37*
G36*
G01*
X148540000Y-73151500D02*
X148540000Y-73036500D01*
G75*
G02*
X148597500Y-72979000I57500J0D01*
G01*
X149332500Y-72979000D01*
G75*
G02*
X149390000Y-73036500I0J-57500D01*
G01*
X149390000Y-73151500D01*
G75*
G02*
X149332500Y-73209000I-57500J0D01*
G01*
X148597500Y-73209000D01*
G75*
G02*
X148540000Y-73151500I0J57500D01*
G01*
G37*
G36*
G01*
X149388000Y-73459250D02*
X149388000Y-73646750D01*
G75*
G02*
X149294250Y-73740500I-93750J0D01*
G01*
X148161750Y-73740500D01*
G75*
G02*
X148068000Y-73646750I0J93750D01*
G01*
X148068000Y-73459250D01*
G75*
G02*
X148161750Y-73365500I93750J0D01*
G01*
X149294250Y-73365500D01*
G75*
G02*
X149388000Y-73459250I0J-93750D01*
G01*
G37*
G36*
G01*
X145982000Y-73414000D02*
X145982000Y-73294000D01*
G75*
G02*
X146042000Y-73234000I60000J0D01*
G01*
X147542000Y-73234000D01*
G75*
G02*
X147602000Y-73294000I0J-60000D01*
G01*
X147602000Y-73414000D01*
G75*
G02*
X147542000Y-73474000I-60000J0D01*
G01*
X146042000Y-73474000D01*
G75*
G02*
X145982000Y-73414000I0J60000D01*
G01*
G37*
G36*
G01*
X145981000Y-73802000D02*
X145981000Y-73682000D01*
G75*
G02*
X146041000Y-73622000I60000J0D01*
G01*
X147541000Y-73622000D01*
G75*
G02*
X147601000Y-73682000I0J-60000D01*
G01*
X147601000Y-73802000D01*
G75*
G02*
X147541000Y-73862000I-60000J0D01*
G01*
X146041000Y-73862000D01*
G75*
G02*
X145981000Y-73802000I0J60000D01*
G01*
G37*
%TD*%
%TO.C,R123*%
G36*
G01*
X146390851Y-75214239D02*
X146735851Y-75214239D01*
G75*
G02*
X146883351Y-75361739I0J-147500D01*
G01*
X146883351Y-75656739D01*
G75*
G02*
X146735851Y-75804239I-147500J0D01*
G01*
X146390851Y-75804239D01*
G75*
G02*
X146243351Y-75656739I0J147500D01*
G01*
X146243351Y-75361739D01*
G75*
G02*
X146390851Y-75214239I147500J0D01*
G01*
G37*
G36*
G01*
X146390851Y-76184239D02*
X146735851Y-76184239D01*
G75*
G02*
X146883351Y-76331739I0J-147500D01*
G01*
X146883351Y-76626739D01*
G75*
G02*
X146735851Y-76774239I-147500J0D01*
G01*
X146390851Y-76774239D01*
G75*
G02*
X146243351Y-76626739I0J147500D01*
G01*
X146243351Y-76331739D01*
G75*
G02*
X146390851Y-76184239I147500J0D01*
G01*
G37*
%TD*%
%TO.C,R122*%
G36*
G01*
X145735852Y-76774239D02*
X145390852Y-76774239D01*
G75*
G02*
X145243352Y-76626739I0J147500D01*
G01*
X145243352Y-76331739D01*
G75*
G02*
X145390852Y-76184239I147500J0D01*
G01*
X145735852Y-76184239D01*
G75*
G02*
X145883352Y-76331739I0J-147500D01*
G01*
X145883352Y-76626739D01*
G75*
G02*
X145735852Y-76774239I-147500J0D01*
G01*
G37*
G36*
G01*
X145735852Y-75804239D02*
X145390852Y-75804239D01*
G75*
G02*
X145243352Y-75656739I0J147500D01*
G01*
X145243352Y-75361739D01*
G75*
G02*
X145390852Y-75214239I147500J0D01*
G01*
X145735852Y-75214239D01*
G75*
G02*
X145883352Y-75361739I0J-147500D01*
G01*
X145883352Y-75656739D01*
G75*
G02*
X145735852Y-75804239I-147500J0D01*
G01*
G37*
%TD*%
%TO.C,C187*%
G36*
G01*
X145505000Y-72827500D02*
X145505000Y-73172500D01*
G75*
G02*
X145357500Y-73320000I-147500J0D01*
G01*
X145062500Y-73320000D01*
G75*
G02*
X144915000Y-73172500I0J147500D01*
G01*
X144915000Y-72827500D01*
G75*
G02*
X145062500Y-72680000I147500J0D01*
G01*
X145357500Y-72680000D01*
G75*
G02*
X145505000Y-72827500I0J-147500D01*
G01*
G37*
G36*
G01*
X144535000Y-72827500D02*
X144535000Y-73172500D01*
G75*
G02*
X144387500Y-73320000I-147500J0D01*
G01*
X144092500Y-73320000D01*
G75*
G02*
X143945000Y-73172500I0J147500D01*
G01*
X143945000Y-72827500D01*
G75*
G02*
X144092500Y-72680000I147500J0D01*
G01*
X144387500Y-72680000D01*
G75*
G02*
X144535000Y-72827500I0J-147500D01*
G01*
G37*
%TD*%
%TO.C,C195*%
X151725000Y-77400000D03*
X150325000Y-77400000D03*
%TD*%
%TO.C,C199*%
X147675000Y-75950000D03*
X149075000Y-75950000D03*
%TD*%
%TO.C,C197*%
X147675000Y-77400000D03*
X149075000Y-77400000D03*
%TD*%
D15*
%TO.C,L1*%
X151875000Y-73115000D03*
X151875000Y-75485000D03*
%TD*%
D14*
%TO.C,C183*%
X146650000Y-70100000D03*
X148050000Y-70100000D03*
%TD*%
%TO.C,C193*%
G36*
G01*
X144390852Y-75214239D02*
X144735852Y-75214239D01*
G75*
G02*
X144883352Y-75361739I0J-147500D01*
G01*
X144883352Y-75656739D01*
G75*
G02*
X144735852Y-75804239I-147500J0D01*
G01*
X144390852Y-75804239D01*
G75*
G02*
X144243352Y-75656739I0J147500D01*
G01*
X144243352Y-75361739D01*
G75*
G02*
X144390852Y-75214239I147500J0D01*
G01*
G37*
G36*
G01*
X144390852Y-76184239D02*
X144735852Y-76184239D01*
G75*
G02*
X144883352Y-76331739I0J-147500D01*
G01*
X144883352Y-76626739D01*
G75*
G02*
X144735852Y-76774239I-147500J0D01*
G01*
X144390852Y-76774239D01*
G75*
G02*
X144243352Y-76626739I0J147500D01*
G01*
X144243352Y-76331739D01*
G75*
G02*
X144390852Y-76184239I147500J0D01*
G01*
G37*
%TD*%
%TO.C,C191*%
G36*
G01*
X151405000Y-71377500D02*
X151405000Y-71722500D01*
G75*
G02*
X151257500Y-71870000I-147500J0D01*
G01*
X150962500Y-71870000D01*
G75*
G02*
X150815000Y-71722500I0J147500D01*
G01*
X150815000Y-71377500D01*
G75*
G02*
X150962500Y-71230000I147500J0D01*
G01*
X151257500Y-71230000D01*
G75*
G02*
X151405000Y-71377500I0J-147500D01*
G01*
G37*
G36*
G01*
X150435000Y-71377500D02*
X150435000Y-71722500D01*
G75*
G02*
X150287500Y-71870000I-147500J0D01*
G01*
X149992500Y-71870000D01*
G75*
G02*
X149845000Y-71722500I0J147500D01*
G01*
X149845000Y-71377500D01*
G75*
G02*
X149992500Y-71230000I147500J0D01*
G01*
X150287500Y-71230000D01*
G75*
G02*
X150435000Y-71377500I0J-147500D01*
G01*
G37*
%TD*%
%TO.C,C189*%
G36*
G01*
X145505000Y-73827500D02*
X145505000Y-74172500D01*
G75*
G02*
X145357500Y-74320000I-147500J0D01*
G01*
X145062500Y-74320000D01*
G75*
G02*
X144915000Y-74172500I0J147500D01*
G01*
X144915000Y-73827500D01*
G75*
G02*
X145062500Y-73680000I147500J0D01*
G01*
X145357500Y-73680000D01*
G75*
G02*
X145505000Y-73827500I0J-147500D01*
G01*
G37*
G36*
G01*
X144535000Y-73827500D02*
X144535000Y-74172500D01*
G75*
G02*
X144387500Y-74320000I-147500J0D01*
G01*
X144092500Y-74320000D01*
G75*
G02*
X143945000Y-74172500I0J147500D01*
G01*
X143945000Y-73827500D01*
G75*
G02*
X144092500Y-73680000I147500J0D01*
G01*
X144387500Y-73680000D01*
G75*
G02*
X144535000Y-73827500I0J-147500D01*
G01*
G37*
%TD*%
%TO.C,R119*%
G36*
G01*
X173397500Y-126130000D02*
X173052500Y-126130000D01*
G75*
G02*
X172905000Y-125982500I0J147500D01*
G01*
X172905000Y-125687500D01*
G75*
G02*
X173052500Y-125540000I147500J0D01*
G01*
X173397500Y-125540000D01*
G75*
G02*
X173545000Y-125687500I0J-147500D01*
G01*
X173545000Y-125982500D01*
G75*
G02*
X173397500Y-126130000I-147500J0D01*
G01*
G37*
G36*
G01*
X173397500Y-125160000D02*
X173052500Y-125160000D01*
G75*
G02*
X172905000Y-125012500I0J147500D01*
G01*
X172905000Y-124717500D01*
G75*
G02*
X173052500Y-124570000I147500J0D01*
G01*
X173397500Y-124570000D01*
G75*
G02*
X173545000Y-124717500I0J-147500D01*
G01*
X173545000Y-125012500D01*
G75*
G02*
X173397500Y-125160000I-147500J0D01*
G01*
G37*
%TD*%
%TO.C,R120*%
G36*
G01*
X177070000Y-126777500D02*
X177070000Y-127122500D01*
G75*
G02*
X176922500Y-127270000I-147500J0D01*
G01*
X176627500Y-127270000D01*
G75*
G02*
X176480000Y-127122500I0J147500D01*
G01*
X176480000Y-126777500D01*
G75*
G02*
X176627500Y-126630000I147500J0D01*
G01*
X176922500Y-126630000D01*
G75*
G02*
X177070000Y-126777500I0J-147500D01*
G01*
G37*
G36*
G01*
X176100000Y-126777500D02*
X176100000Y-127122500D01*
G75*
G02*
X175952500Y-127270000I-147500J0D01*
G01*
X175657500Y-127270000D01*
G75*
G02*
X175510000Y-127122500I0J147500D01*
G01*
X175510000Y-126777500D01*
G75*
G02*
X175657500Y-126630000I147500J0D01*
G01*
X175952500Y-126630000D01*
G75*
G02*
X176100000Y-126777500I0J-147500D01*
G01*
G37*
%TD*%
%TO.C,R127*%
G36*
G01*
X139722500Y-87160000D02*
X139377500Y-87160000D01*
G75*
G02*
X139230000Y-87012500I0J147500D01*
G01*
X139230000Y-86717500D01*
G75*
G02*
X139377500Y-86570000I147500J0D01*
G01*
X139722500Y-86570000D01*
G75*
G02*
X139870000Y-86717500I0J-147500D01*
G01*
X139870000Y-87012500D01*
G75*
G02*
X139722500Y-87160000I-147500J0D01*
G01*
G37*
G36*
G01*
X139722500Y-88130000D02*
X139377500Y-88130000D01*
G75*
G02*
X139230000Y-87982500I0J147500D01*
G01*
X139230000Y-87687500D01*
G75*
G02*
X139377500Y-87540000I147500J0D01*
G01*
X139722500Y-87540000D01*
G75*
G02*
X139870000Y-87687500I0J-147500D01*
G01*
X139870000Y-87982500D01*
G75*
G02*
X139722500Y-88130000I-147500J0D01*
G01*
G37*
%TD*%
%TO.C,R37*%
G36*
G01*
X103327500Y-138105000D02*
X103672500Y-138105000D01*
G75*
G02*
X103820000Y-138252500I0J-147500D01*
G01*
X103820000Y-138547500D01*
G75*
G02*
X103672500Y-138695000I-147500J0D01*
G01*
X103327500Y-138695000D01*
G75*
G02*
X103180000Y-138547500I0J147500D01*
G01*
X103180000Y-138252500D01*
G75*
G02*
X103327500Y-138105000I147500J0D01*
G01*
G37*
G36*
G01*
X103327500Y-137135000D02*
X103672500Y-137135000D01*
G75*
G02*
X103820000Y-137282500I0J-147500D01*
G01*
X103820000Y-137577500D01*
G75*
G02*
X103672500Y-137725000I-147500J0D01*
G01*
X103327500Y-137725000D01*
G75*
G02*
X103180000Y-137577500I0J147500D01*
G01*
X103180000Y-137282500D01*
G75*
G02*
X103327500Y-137135000I147500J0D01*
G01*
G37*
%TD*%
D16*
%TO.C,U14*%
X175300000Y-141482500D03*
X174800000Y-141482500D03*
X173800000Y-141482500D03*
X173300000Y-141482500D03*
X173300000Y-142317500D03*
X173800000Y-142317500D03*
X174800000Y-142317500D03*
X175300000Y-142317500D03*
%TD*%
%TO.C,U28*%
X109400000Y-73717500D03*
X109900000Y-73717500D03*
X110900000Y-73717500D03*
X111400000Y-73717500D03*
X111400000Y-72882500D03*
X110900000Y-72882500D03*
X109900000Y-72882500D03*
X109400000Y-72882500D03*
%TD*%
%TO.C,U22*%
X128750000Y-73667500D03*
X129250000Y-73667500D03*
X130250000Y-73667500D03*
X130750000Y-73667500D03*
X130750000Y-72832500D03*
X130250000Y-72832500D03*
X129250000Y-72832500D03*
X128750000Y-72832500D03*
%TD*%
%TO.C,C92*%
G36*
G01*
X155290000Y-86822500D02*
X155290000Y-86477500D01*
G75*
G02*
X155437500Y-86330000I147500J0D01*
G01*
X155732500Y-86330000D01*
G75*
G02*
X155880000Y-86477500I0J-147500D01*
G01*
X155880000Y-86822500D01*
G75*
G02*
X155732500Y-86970000I-147500J0D01*
G01*
X155437500Y-86970000D01*
G75*
G02*
X155290000Y-86822500I0J147500D01*
G01*
G37*
G36*
G01*
X154320000Y-86822500D02*
X154320000Y-86477500D01*
G75*
G02*
X154467500Y-86330000I147500J0D01*
G01*
X154762500Y-86330000D01*
G75*
G02*
X154910000Y-86477500I0J-147500D01*
G01*
X154910000Y-86822500D01*
G75*
G02*
X154762500Y-86970000I-147500J0D01*
G01*
X154467500Y-86970000D01*
G75*
G02*
X154320000Y-86822500I0J147500D01*
G01*
G37*
%TD*%
%TO.C,C102*%
G36*
G01*
X147277500Y-85955000D02*
X147622500Y-85955000D01*
G75*
G02*
X147770000Y-86102500I0J-147500D01*
G01*
X147770000Y-86397500D01*
G75*
G02*
X147622500Y-86545000I-147500J0D01*
G01*
X147277500Y-86545000D01*
G75*
G02*
X147130000Y-86397500I0J147500D01*
G01*
X147130000Y-86102500D01*
G75*
G02*
X147277500Y-85955000I147500J0D01*
G01*
G37*
G36*
G01*
X147277500Y-84985000D02*
X147622500Y-84985000D01*
G75*
G02*
X147770000Y-85132500I0J-147500D01*
G01*
X147770000Y-85427500D01*
G75*
G02*
X147622500Y-85575000I-147500J0D01*
G01*
X147277500Y-85575000D01*
G75*
G02*
X147130000Y-85427500I0J147500D01*
G01*
X147130000Y-85132500D01*
G75*
G02*
X147277500Y-84985000I147500J0D01*
G01*
G37*
%TD*%
%TO.C,C79*%
G36*
G01*
X111447500Y-74358000D02*
X111792500Y-74358000D01*
G75*
G02*
X111940000Y-74505500I0J-147500D01*
G01*
X111940000Y-74800500D01*
G75*
G02*
X111792500Y-74948000I-147500J0D01*
G01*
X111447500Y-74948000D01*
G75*
G02*
X111300000Y-74800500I0J147500D01*
G01*
X111300000Y-74505500D01*
G75*
G02*
X111447500Y-74358000I147500J0D01*
G01*
G37*
G36*
G01*
X111447500Y-75328000D02*
X111792500Y-75328000D01*
G75*
G02*
X111940000Y-75475500I0J-147500D01*
G01*
X111940000Y-75770500D01*
G75*
G02*
X111792500Y-75918000I-147500J0D01*
G01*
X111447500Y-75918000D01*
G75*
G02*
X111300000Y-75770500I0J147500D01*
G01*
X111300000Y-75475500D01*
G75*
G02*
X111447500Y-75328000I147500J0D01*
G01*
G37*
%TD*%
%TO.C,C78*%
G36*
G01*
X110502500Y-75323000D02*
X110847500Y-75323000D01*
G75*
G02*
X110995000Y-75470500I0J-147500D01*
G01*
X110995000Y-75765500D01*
G75*
G02*
X110847500Y-75913000I-147500J0D01*
G01*
X110502500Y-75913000D01*
G75*
G02*
X110355000Y-75765500I0J147500D01*
G01*
X110355000Y-75470500D01*
G75*
G02*
X110502500Y-75323000I147500J0D01*
G01*
G37*
G36*
G01*
X110502500Y-74353000D02*
X110847500Y-74353000D01*
G75*
G02*
X110995000Y-74500500I0J-147500D01*
G01*
X110995000Y-74795500D01*
G75*
G02*
X110847500Y-74943000I-147500J0D01*
G01*
X110502500Y-74943000D01*
G75*
G02*
X110355000Y-74795500I0J147500D01*
G01*
X110355000Y-74500500D01*
G75*
G02*
X110502500Y-74353000I147500J0D01*
G01*
G37*
%TD*%
D17*
%TO.C,D25*%
X188472100Y-63950000D03*
X183877900Y-63950000D03*
%TD*%
%TO.C,C179*%
G36*
G01*
X179525000Y-86400000D02*
X174625000Y-86400000D01*
G75*
G02*
X174375000Y-86150000I0J250000D01*
G01*
X174375000Y-84850000D01*
G75*
G02*
X174625000Y-84600000I250000J0D01*
G01*
X179525000Y-84600000D01*
G75*
G02*
X179775000Y-84850000I0J-250000D01*
G01*
X179775000Y-86150000D01*
G75*
G02*
X179525000Y-86400000I-250000J0D01*
G01*
G37*
G36*
G01*
X179525000Y-81300000D02*
X174625000Y-81300000D01*
G75*
G02*
X174375000Y-81050000I0J250000D01*
G01*
X174375000Y-79750000D01*
G75*
G02*
X174625000Y-79500000I250000J0D01*
G01*
X179525000Y-79500000D01*
G75*
G02*
X179775000Y-79750000I0J-250000D01*
G01*
X179775000Y-81050000D01*
G75*
G02*
X179525000Y-81300000I-250000J0D01*
G01*
G37*
%TD*%
%TO.C,C178*%
G36*
G01*
X185325000Y-86400000D02*
X180425000Y-86400000D01*
G75*
G02*
X180175000Y-86150000I0J250000D01*
G01*
X180175000Y-84850000D01*
G75*
G02*
X180425000Y-84600000I250000J0D01*
G01*
X185325000Y-84600000D01*
G75*
G02*
X185575000Y-84850000I0J-250000D01*
G01*
X185575000Y-86150000D01*
G75*
G02*
X185325000Y-86400000I-250000J0D01*
G01*
G37*
G36*
G01*
X185325000Y-81300000D02*
X180425000Y-81300000D01*
G75*
G02*
X180175000Y-81050000I0J250000D01*
G01*
X180175000Y-79750000D01*
G75*
G02*
X180425000Y-79500000I250000J0D01*
G01*
X185325000Y-79500000D01*
G75*
G02*
X185575000Y-79750000I0J-250000D01*
G01*
X185575000Y-81050000D01*
G75*
G02*
X185325000Y-81300000I-250000J0D01*
G01*
G37*
%TD*%
%TO.C,C177*%
G36*
G01*
X173625000Y-86400000D02*
X168725000Y-86400000D01*
G75*
G02*
X168475000Y-86150000I0J250000D01*
G01*
X168475000Y-84850000D01*
G75*
G02*
X168725000Y-84600000I250000J0D01*
G01*
X173625000Y-84600000D01*
G75*
G02*
X173875000Y-84850000I0J-250000D01*
G01*
X173875000Y-86150000D01*
G75*
G02*
X173625000Y-86400000I-250000J0D01*
G01*
G37*
G36*
G01*
X173625000Y-81300000D02*
X168725000Y-81300000D01*
G75*
G02*
X168475000Y-81050000I0J250000D01*
G01*
X168475000Y-79750000D01*
G75*
G02*
X168725000Y-79500000I250000J0D01*
G01*
X173625000Y-79500000D01*
G75*
G02*
X173875000Y-79750000I0J-250000D01*
G01*
X173875000Y-81050000D01*
G75*
G02*
X173625000Y-81300000I-250000J0D01*
G01*
G37*
%TD*%
%TO.C,C176*%
G36*
G01*
X167725000Y-86400000D02*
X162825000Y-86400000D01*
G75*
G02*
X162575000Y-86150000I0J250000D01*
G01*
X162575000Y-84850000D01*
G75*
G02*
X162825000Y-84600000I250000J0D01*
G01*
X167725000Y-84600000D01*
G75*
G02*
X167975000Y-84850000I0J-250000D01*
G01*
X167975000Y-86150000D01*
G75*
G02*
X167725000Y-86400000I-250000J0D01*
G01*
G37*
G36*
G01*
X167725000Y-81300000D02*
X162825000Y-81300000D01*
G75*
G02*
X162575000Y-81050000I0J250000D01*
G01*
X162575000Y-79750000D01*
G75*
G02*
X162825000Y-79500000I250000J0D01*
G01*
X167725000Y-79500000D01*
G75*
G02*
X167975000Y-79750000I0J-250000D01*
G01*
X167975000Y-81050000D01*
G75*
G02*
X167725000Y-81300000I-250000J0D01*
G01*
G37*
%TD*%
D18*
%TO.C,J3*%
X79800000Y-116200000D03*
D19*
X83750000Y-116200000D03*
X83750000Y-87800000D03*
X80050000Y-87800000D03*
D20*
X81900000Y-89750000D03*
X81900000Y-90250000D03*
X81900000Y-90750000D03*
X81900000Y-91250000D03*
X81900000Y-91750000D03*
X81900000Y-92250000D03*
X81900000Y-92750000D03*
X81900000Y-93250000D03*
X81900000Y-93750000D03*
X81900000Y-94250000D03*
X81900000Y-94750000D03*
X81900000Y-95250000D03*
X81900000Y-95750000D03*
X81900000Y-96250000D03*
X81900000Y-96750000D03*
X81900000Y-97250000D03*
X81900000Y-97750000D03*
X81900000Y-98250000D03*
X81900000Y-98750000D03*
X81900000Y-99250000D03*
X81900000Y-99750000D03*
X81900000Y-100250000D03*
X81900000Y-100750000D03*
X81900000Y-101250000D03*
X81900000Y-101750000D03*
X81900000Y-102250000D03*
X81900000Y-102750000D03*
X81900000Y-103250000D03*
X81900000Y-103750000D03*
X81900000Y-104250000D03*
X81900000Y-104750000D03*
X81900000Y-105250000D03*
X81900000Y-105750000D03*
X81900000Y-106250000D03*
X81900000Y-106750000D03*
X81900000Y-107250000D03*
X81900000Y-107750000D03*
X81900000Y-108250000D03*
X81900000Y-108750000D03*
X81900000Y-109250000D03*
X81900000Y-109750000D03*
X81900000Y-110250000D03*
X81900000Y-110750000D03*
X81900000Y-111250000D03*
X81900000Y-111750000D03*
X81900000Y-112250000D03*
X81900000Y-112750000D03*
X81900000Y-113250000D03*
X81900000Y-113750000D03*
X81900000Y-114250000D03*
%TD*%
%TO.C,R62*%
G36*
G01*
X127460000Y-84707500D02*
X127460000Y-85052500D01*
G75*
G02*
X127312500Y-85200000I-147500J0D01*
G01*
X127017500Y-85200000D01*
G75*
G02*
X126870000Y-85052500I0J147500D01*
G01*
X126870000Y-84707500D01*
G75*
G02*
X127017500Y-84560000I147500J0D01*
G01*
X127312500Y-84560000D01*
G75*
G02*
X127460000Y-84707500I0J-147500D01*
G01*
G37*
G36*
G01*
X128430000Y-84707500D02*
X128430000Y-85052500D01*
G75*
G02*
X128282500Y-85200000I-147500J0D01*
G01*
X127987500Y-85200000D01*
G75*
G02*
X127840000Y-85052500I0J147500D01*
G01*
X127840000Y-84707500D01*
G75*
G02*
X127987500Y-84560000I147500J0D01*
G01*
X128282500Y-84560000D01*
G75*
G02*
X128430000Y-84707500I0J-147500D01*
G01*
G37*
%TD*%
%TO.C,R2*%
G36*
G01*
X100127500Y-71290000D02*
X100472500Y-71290000D01*
G75*
G02*
X100620000Y-71437500I0J-147500D01*
G01*
X100620000Y-71732500D01*
G75*
G02*
X100472500Y-71880000I-147500J0D01*
G01*
X100127500Y-71880000D01*
G75*
G02*
X99980000Y-71732500I0J147500D01*
G01*
X99980000Y-71437500D01*
G75*
G02*
X100127500Y-71290000I147500J0D01*
G01*
G37*
G36*
G01*
X100127500Y-70320000D02*
X100472500Y-70320000D01*
G75*
G02*
X100620000Y-70467500I0J-147500D01*
G01*
X100620000Y-70762500D01*
G75*
G02*
X100472500Y-70910000I-147500J0D01*
G01*
X100127500Y-70910000D01*
G75*
G02*
X99980000Y-70762500I0J147500D01*
G01*
X99980000Y-70467500D01*
G75*
G02*
X100127500Y-70320000I147500J0D01*
G01*
G37*
%TD*%
%TO.C,R1*%
G36*
G01*
X151119289Y-147060368D02*
X151119289Y-146715368D01*
G75*
G02*
X151266789Y-146567868I147500J0D01*
G01*
X151561789Y-146567868D01*
G75*
G02*
X151709289Y-146715368I0J-147500D01*
G01*
X151709289Y-147060368D01*
G75*
G02*
X151561789Y-147207868I-147500J0D01*
G01*
X151266789Y-147207868D01*
G75*
G02*
X151119289Y-147060368I0J147500D01*
G01*
G37*
G36*
G01*
X150149289Y-147060368D02*
X150149289Y-146715368D01*
G75*
G02*
X150296789Y-146567868I147500J0D01*
G01*
X150591789Y-146567868D01*
G75*
G02*
X150739289Y-146715368I0J-147500D01*
G01*
X150739289Y-147060368D01*
G75*
G02*
X150591789Y-147207868I-147500J0D01*
G01*
X150296789Y-147207868D01*
G75*
G02*
X150149289Y-147060368I0J147500D01*
G01*
G37*
%TD*%
%TO.C,C2*%
G36*
G01*
X99227500Y-71290000D02*
X99572500Y-71290000D01*
G75*
G02*
X99720000Y-71437500I0J-147500D01*
G01*
X99720000Y-71732500D01*
G75*
G02*
X99572500Y-71880000I-147500J0D01*
G01*
X99227500Y-71880000D01*
G75*
G02*
X99080000Y-71732500I0J147500D01*
G01*
X99080000Y-71437500D01*
G75*
G02*
X99227500Y-71290000I147500J0D01*
G01*
G37*
G36*
G01*
X99227500Y-70320000D02*
X99572500Y-70320000D01*
G75*
G02*
X99720000Y-70467500I0J-147500D01*
G01*
X99720000Y-70762500D01*
G75*
G02*
X99572500Y-70910000I-147500J0D01*
G01*
X99227500Y-70910000D01*
G75*
G02*
X99080000Y-70762500I0J147500D01*
G01*
X99080000Y-70467500D01*
G75*
G02*
X99227500Y-70320000I147500J0D01*
G01*
G37*
%TD*%
%TO.C,C1*%
G36*
G01*
X151119289Y-146210367D02*
X151119289Y-145865367D01*
G75*
G02*
X151266789Y-145717867I147500J0D01*
G01*
X151561789Y-145717867D01*
G75*
G02*
X151709289Y-145865367I0J-147500D01*
G01*
X151709289Y-146210367D01*
G75*
G02*
X151561789Y-146357867I-147500J0D01*
G01*
X151266789Y-146357867D01*
G75*
G02*
X151119289Y-146210367I0J147500D01*
G01*
G37*
G36*
G01*
X150149289Y-146210367D02*
X150149289Y-145865367D01*
G75*
G02*
X150296789Y-145717867I147500J0D01*
G01*
X150591789Y-145717867D01*
G75*
G02*
X150739289Y-145865367I0J-147500D01*
G01*
X150739289Y-146210367D01*
G75*
G02*
X150591789Y-146357867I-147500J0D01*
G01*
X150296789Y-146357867D01*
G75*
G02*
X150149289Y-146210367I0J147500D01*
G01*
G37*
%TD*%
D21*
%TO.C,C91*%
X145335965Y-81170911D03*
X145335965Y-79770911D03*
%TD*%
%TO.C,C93*%
G36*
G01*
X146522500Y-80435000D02*
X146177500Y-80435000D01*
G75*
G02*
X146030000Y-80287500I0J147500D01*
G01*
X146030000Y-79992500D01*
G75*
G02*
X146177500Y-79845000I147500J0D01*
G01*
X146522500Y-79845000D01*
G75*
G02*
X146670000Y-79992500I0J-147500D01*
G01*
X146670000Y-80287500D01*
G75*
G02*
X146522500Y-80435000I-147500J0D01*
G01*
G37*
G36*
G01*
X146522500Y-81405000D02*
X146177500Y-81405000D01*
G75*
G02*
X146030000Y-81257500I0J147500D01*
G01*
X146030000Y-80962500D01*
G75*
G02*
X146177500Y-80815000I147500J0D01*
G01*
X146522500Y-80815000D01*
G75*
G02*
X146670000Y-80962500I0J-147500D01*
G01*
X146670000Y-81257500D01*
G75*
G02*
X146522500Y-81405000I-147500J0D01*
G01*
G37*
%TD*%
%TO.C,C94*%
G36*
G01*
X146085911Y-89072500D02*
X146085911Y-88727500D01*
G75*
G02*
X146233411Y-88580000I147500J0D01*
G01*
X146528411Y-88580000D01*
G75*
G02*
X146675911Y-88727500I0J-147500D01*
G01*
X146675911Y-89072500D01*
G75*
G02*
X146528411Y-89220000I-147500J0D01*
G01*
X146233411Y-89220000D01*
G75*
G02*
X146085911Y-89072500I0J147500D01*
G01*
G37*
G36*
G01*
X145115911Y-89072500D02*
X145115911Y-88727500D01*
G75*
G02*
X145263411Y-88580000I147500J0D01*
G01*
X145558411Y-88580000D01*
G75*
G02*
X145705911Y-88727500I0J-147500D01*
G01*
X145705911Y-89072500D01*
G75*
G02*
X145558411Y-89220000I-147500J0D01*
G01*
X145263411Y-89220000D01*
G75*
G02*
X145115911Y-89072500I0J147500D01*
G01*
G37*
%TD*%
%TO.C,C95*%
G36*
G01*
X148472500Y-91424035D02*
X148127500Y-91424035D01*
G75*
G02*
X147980000Y-91276535I0J147500D01*
G01*
X147980000Y-90981535D01*
G75*
G02*
X148127500Y-90834035I147500J0D01*
G01*
X148472500Y-90834035D01*
G75*
G02*
X148620000Y-90981535I0J-147500D01*
G01*
X148620000Y-91276535D01*
G75*
G02*
X148472500Y-91424035I-147500J0D01*
G01*
G37*
G36*
G01*
X148472500Y-92394035D02*
X148127500Y-92394035D01*
G75*
G02*
X147980000Y-92246535I0J147500D01*
G01*
X147980000Y-91951535D01*
G75*
G02*
X148127500Y-91804035I147500J0D01*
G01*
X148472500Y-91804035D01*
G75*
G02*
X148620000Y-91951535I0J-147500D01*
G01*
X148620000Y-92246535D01*
G75*
G02*
X148472500Y-92394035I-147500J0D01*
G01*
G37*
%TD*%
%TO.C,C96*%
G36*
G01*
X151660000Y-89627500D02*
X151660000Y-89972500D01*
G75*
G02*
X151512500Y-90120000I-147500J0D01*
G01*
X151217500Y-90120000D01*
G75*
G02*
X151070000Y-89972500I0J147500D01*
G01*
X151070000Y-89627500D01*
G75*
G02*
X151217500Y-89480000I147500J0D01*
G01*
X151512500Y-89480000D01*
G75*
G02*
X151660000Y-89627500I0J-147500D01*
G01*
G37*
G36*
G01*
X152630000Y-89627500D02*
X152630000Y-89972500D01*
G75*
G02*
X152482500Y-90120000I-147500J0D01*
G01*
X152187500Y-90120000D01*
G75*
G02*
X152040000Y-89972500I0J147500D01*
G01*
X152040000Y-89627500D01*
G75*
G02*
X152187500Y-89480000I147500J0D01*
G01*
X152482500Y-89480000D01*
G75*
G02*
X152630000Y-89627500I0J-147500D01*
G01*
G37*
%TD*%
%TO.C,C97*%
G36*
G01*
X146277500Y-85940000D02*
X146622500Y-85940000D01*
G75*
G02*
X146770000Y-86087500I0J-147500D01*
G01*
X146770000Y-86382500D01*
G75*
G02*
X146622500Y-86530000I-147500J0D01*
G01*
X146277500Y-86530000D01*
G75*
G02*
X146130000Y-86382500I0J147500D01*
G01*
X146130000Y-86087500D01*
G75*
G02*
X146277500Y-85940000I147500J0D01*
G01*
G37*
G36*
G01*
X146277500Y-84970000D02*
X146622500Y-84970000D01*
G75*
G02*
X146770000Y-85117500I0J-147500D01*
G01*
X146770000Y-85412500D01*
G75*
G02*
X146622500Y-85560000I-147500J0D01*
G01*
X146277500Y-85560000D01*
G75*
G02*
X146130000Y-85412500I0J147500D01*
G01*
X146130000Y-85117500D01*
G75*
G02*
X146277500Y-84970000I147500J0D01*
G01*
G37*
%TD*%
%TO.C,C98*%
G36*
G01*
X150277500Y-85952385D02*
X150622500Y-85952385D01*
G75*
G02*
X150770000Y-86099885I0J-147500D01*
G01*
X150770000Y-86394885D01*
G75*
G02*
X150622500Y-86542385I-147500J0D01*
G01*
X150277500Y-86542385D01*
G75*
G02*
X150130000Y-86394885I0J147500D01*
G01*
X150130000Y-86099885D01*
G75*
G02*
X150277500Y-85952385I147500J0D01*
G01*
G37*
G36*
G01*
X150277500Y-84982385D02*
X150622500Y-84982385D01*
G75*
G02*
X150770000Y-85129885I0J-147500D01*
G01*
X150770000Y-85424885D01*
G75*
G02*
X150622500Y-85572385I-147500J0D01*
G01*
X150277500Y-85572385D01*
G75*
G02*
X150130000Y-85424885I0J147500D01*
G01*
X150130000Y-85129885D01*
G75*
G02*
X150277500Y-84982385I147500J0D01*
G01*
G37*
%TD*%
%TO.C,C99*%
G36*
G01*
X146078373Y-90072500D02*
X146078373Y-89727500D01*
G75*
G02*
X146225873Y-89580000I147500J0D01*
G01*
X146520873Y-89580000D01*
G75*
G02*
X146668373Y-89727500I0J-147500D01*
G01*
X146668373Y-90072500D01*
G75*
G02*
X146520873Y-90220000I-147500J0D01*
G01*
X146225873Y-90220000D01*
G75*
G02*
X146078373Y-90072500I0J147500D01*
G01*
G37*
G36*
G01*
X145108373Y-90072500D02*
X145108373Y-89727500D01*
G75*
G02*
X145255873Y-89580000I147500J0D01*
G01*
X145550873Y-89580000D01*
G75*
G02*
X145698373Y-89727500I0J-147500D01*
G01*
X145698373Y-90072500D01*
G75*
G02*
X145550873Y-90220000I-147500J0D01*
G01*
X145255873Y-90220000D01*
G75*
G02*
X145108373Y-90072500I0J147500D01*
G01*
G37*
%TD*%
%TO.C,C103*%
G36*
G01*
X151277500Y-85952385D02*
X151622500Y-85952385D01*
G75*
G02*
X151770000Y-86099885I0J-147500D01*
G01*
X151770000Y-86394885D01*
G75*
G02*
X151622500Y-86542385I-147500J0D01*
G01*
X151277500Y-86542385D01*
G75*
G02*
X151130000Y-86394885I0J147500D01*
G01*
X151130000Y-86099885D01*
G75*
G02*
X151277500Y-85952385I147500J0D01*
G01*
G37*
G36*
G01*
X151277500Y-84982385D02*
X151622500Y-84982385D01*
G75*
G02*
X151770000Y-85129885I0J-147500D01*
G01*
X151770000Y-85424885D01*
G75*
G02*
X151622500Y-85572385I-147500J0D01*
G01*
X151277500Y-85572385D01*
G75*
G02*
X151130000Y-85424885I0J147500D01*
G01*
X151130000Y-85129885D01*
G75*
G02*
X151277500Y-84982385I147500J0D01*
G01*
G37*
%TD*%
%TO.C,C105*%
G36*
G01*
X149277500Y-85952385D02*
X149622500Y-85952385D01*
G75*
G02*
X149770000Y-86099885I0J-147500D01*
G01*
X149770000Y-86394885D01*
G75*
G02*
X149622500Y-86542385I-147500J0D01*
G01*
X149277500Y-86542385D01*
G75*
G02*
X149130000Y-86394885I0J147500D01*
G01*
X149130000Y-86099885D01*
G75*
G02*
X149277500Y-85952385I147500J0D01*
G01*
G37*
G36*
G01*
X149277500Y-84982385D02*
X149622500Y-84982385D01*
G75*
G02*
X149770000Y-85129885I0J-147500D01*
G01*
X149770000Y-85424885D01*
G75*
G02*
X149622500Y-85572385I-147500J0D01*
G01*
X149277500Y-85572385D01*
G75*
G02*
X149130000Y-85424885I0J147500D01*
G01*
X149130000Y-85129885D01*
G75*
G02*
X149277500Y-84982385I147500J0D01*
G01*
G37*
%TD*%
%TO.C,C109*%
G36*
G01*
X148277500Y-85952385D02*
X148622500Y-85952385D01*
G75*
G02*
X148770000Y-86099885I0J-147500D01*
G01*
X148770000Y-86394885D01*
G75*
G02*
X148622500Y-86542385I-147500J0D01*
G01*
X148277500Y-86542385D01*
G75*
G02*
X148130000Y-86394885I0J147500D01*
G01*
X148130000Y-86099885D01*
G75*
G02*
X148277500Y-85952385I147500J0D01*
G01*
G37*
G36*
G01*
X148277500Y-84982385D02*
X148622500Y-84982385D01*
G75*
G02*
X148770000Y-85129885I0J-147500D01*
G01*
X148770000Y-85424885D01*
G75*
G02*
X148622500Y-85572385I-147500J0D01*
G01*
X148277500Y-85572385D01*
G75*
G02*
X148130000Y-85424885I0J147500D01*
G01*
X148130000Y-85129885D01*
G75*
G02*
X148277500Y-84982385I147500J0D01*
G01*
G37*
%TD*%
%TO.C,C110*%
G36*
G01*
X146135910Y-91686535D02*
X146135910Y-91341535D01*
G75*
G02*
X146283410Y-91194035I147500J0D01*
G01*
X146578410Y-91194035D01*
G75*
G02*
X146725910Y-91341535I0J-147500D01*
G01*
X146725910Y-91686535D01*
G75*
G02*
X146578410Y-91834035I-147500J0D01*
G01*
X146283410Y-91834035D01*
G75*
G02*
X146135910Y-91686535I0J147500D01*
G01*
G37*
G36*
G01*
X145165910Y-91686535D02*
X145165910Y-91341535D01*
G75*
G02*
X145313410Y-91194035I147500J0D01*
G01*
X145608410Y-91194035D01*
G75*
G02*
X145755910Y-91341535I0J-147500D01*
G01*
X145755910Y-91686535D01*
G75*
G02*
X145608410Y-91834035I-147500J0D01*
G01*
X145313410Y-91834035D01*
G75*
G02*
X145165910Y-91686535I0J147500D01*
G01*
G37*
%TD*%
%TO.C,C111*%
G36*
G01*
X149418411Y-91424035D02*
X149073411Y-91424035D01*
G75*
G02*
X148925911Y-91276535I0J147500D01*
G01*
X148925911Y-90981535D01*
G75*
G02*
X149073411Y-90834035I147500J0D01*
G01*
X149418411Y-90834035D01*
G75*
G02*
X149565911Y-90981535I0J-147500D01*
G01*
X149565911Y-91276535D01*
G75*
G02*
X149418411Y-91424035I-147500J0D01*
G01*
G37*
G36*
G01*
X149418411Y-92394035D02*
X149073411Y-92394035D01*
G75*
G02*
X148925911Y-92246535I0J147500D01*
G01*
X148925911Y-91951535D01*
G75*
G02*
X149073411Y-91804035I147500J0D01*
G01*
X149418411Y-91804035D01*
G75*
G02*
X149565911Y-91951535I0J-147500D01*
G01*
X149565911Y-92246535D01*
G75*
G02*
X149418411Y-92394035I-147500J0D01*
G01*
G37*
%TD*%
%TO.C,C112*%
G36*
G01*
X151655911Y-88641535D02*
X151655911Y-88986535D01*
G75*
G02*
X151508411Y-89134035I-147500J0D01*
G01*
X151213411Y-89134035D01*
G75*
G02*
X151065911Y-88986535I0J147500D01*
G01*
X151065911Y-88641535D01*
G75*
G02*
X151213411Y-88494035I147500J0D01*
G01*
X151508411Y-88494035D01*
G75*
G02*
X151655911Y-88641535I0J-147500D01*
G01*
G37*
G36*
G01*
X152625911Y-88641535D02*
X152625911Y-88986535D01*
G75*
G02*
X152478411Y-89134035I-147500J0D01*
G01*
X152183411Y-89134035D01*
G75*
G02*
X152035911Y-88986535I0J147500D01*
G01*
X152035911Y-88641535D01*
G75*
G02*
X152183411Y-88494035I147500J0D01*
G01*
X152478411Y-88494035D01*
G75*
G02*
X152625911Y-88641535I0J-147500D01*
G01*
G37*
%TD*%
%TO.C,C113*%
G36*
G01*
X142716535Y-94594089D02*
X143061535Y-94594089D01*
G75*
G02*
X143209035Y-94741589I0J-147500D01*
G01*
X143209035Y-95036589D01*
G75*
G02*
X143061535Y-95184089I-147500J0D01*
G01*
X142716535Y-95184089D01*
G75*
G02*
X142569035Y-95036589I0J147500D01*
G01*
X142569035Y-94741589D01*
G75*
G02*
X142716535Y-94594089I147500J0D01*
G01*
G37*
G36*
G01*
X142716535Y-93624089D02*
X143061535Y-93624089D01*
G75*
G02*
X143209035Y-93771589I0J-147500D01*
G01*
X143209035Y-94066589D01*
G75*
G02*
X143061535Y-94214089I-147500J0D01*
G01*
X142716535Y-94214089D01*
G75*
G02*
X142569035Y-94066589I0J147500D01*
G01*
X142569035Y-93771589D01*
G75*
G02*
X142716535Y-93624089I147500J0D01*
G01*
G37*
%TD*%
%TO.C,C114*%
X141654035Y-93969089D03*
X141654035Y-95369089D03*
%TD*%
%TO.C,C202*%
X137800000Y-79975001D03*
X137800000Y-81375001D03*
%TD*%
%TO.C,C207*%
G36*
G01*
X141505000Y-83312500D02*
X141505000Y-82967500D01*
G75*
G02*
X141652500Y-82820000I147500J0D01*
G01*
X141947500Y-82820000D01*
G75*
G02*
X142095000Y-82967500I0J-147500D01*
G01*
X142095000Y-83312500D01*
G75*
G02*
X141947500Y-83460000I-147500J0D01*
G01*
X141652500Y-83460000D01*
G75*
G02*
X141505000Y-83312500I0J147500D01*
G01*
G37*
G36*
G01*
X140535000Y-83312500D02*
X140535000Y-82967500D01*
G75*
G02*
X140682500Y-82820000I147500J0D01*
G01*
X140977500Y-82820000D01*
G75*
G02*
X141125000Y-82967500I0J-147500D01*
G01*
X141125000Y-83312500D01*
G75*
G02*
X140977500Y-83460000I-147500J0D01*
G01*
X140682500Y-83460000D01*
G75*
G02*
X140535000Y-83312500I0J147500D01*
G01*
G37*
%TD*%
%TO.C,C212*%
X137900000Y-83050000D03*
X137900000Y-84450000D03*
%TD*%
%TO.C,C44*%
G36*
G01*
X127470000Y-85947500D02*
X127470000Y-86292500D01*
G75*
G02*
X127322500Y-86440000I-147500J0D01*
G01*
X127027500Y-86440000D01*
G75*
G02*
X126880000Y-86292500I0J147500D01*
G01*
X126880000Y-85947500D01*
G75*
G02*
X127027500Y-85800000I147500J0D01*
G01*
X127322500Y-85800000D01*
G75*
G02*
X127470000Y-85947500I0J-147500D01*
G01*
G37*
G36*
G01*
X128440000Y-85947500D02*
X128440000Y-86292500D01*
G75*
G02*
X128292500Y-86440000I-147500J0D01*
G01*
X127997500Y-86440000D01*
G75*
G02*
X127850000Y-86292500I0J147500D01*
G01*
X127850000Y-85947500D01*
G75*
G02*
X127997500Y-85800000I147500J0D01*
G01*
X128292500Y-85800000D01*
G75*
G02*
X128440000Y-85947500I0J-147500D01*
G01*
G37*
%TD*%
%TO.C,C50*%
G36*
G01*
X120027500Y-79135000D02*
X120372500Y-79135000D01*
G75*
G02*
X120520000Y-79282500I0J-147500D01*
G01*
X120520000Y-79577500D01*
G75*
G02*
X120372500Y-79725000I-147500J0D01*
G01*
X120027500Y-79725000D01*
G75*
G02*
X119880000Y-79577500I0J147500D01*
G01*
X119880000Y-79282500D01*
G75*
G02*
X120027500Y-79135000I147500J0D01*
G01*
G37*
G36*
G01*
X120027500Y-78165000D02*
X120372500Y-78165000D01*
G75*
G02*
X120520000Y-78312500I0J-147500D01*
G01*
X120520000Y-78607500D01*
G75*
G02*
X120372500Y-78755000I-147500J0D01*
G01*
X120027500Y-78755000D01*
G75*
G02*
X119880000Y-78607500I0J147500D01*
G01*
X119880000Y-78312500D01*
G75*
G02*
X120027500Y-78165000I147500J0D01*
G01*
G37*
%TD*%
%TO.C,C48*%
G36*
G01*
X127476942Y-82352362D02*
X127476942Y-82697362D01*
G75*
G02*
X127329442Y-82844862I-147500J0D01*
G01*
X127034442Y-82844862D01*
G75*
G02*
X126886942Y-82697362I0J147500D01*
G01*
X126886942Y-82352362D01*
G75*
G02*
X127034442Y-82204862I147500J0D01*
G01*
X127329442Y-82204862D01*
G75*
G02*
X127476942Y-82352362I0J-147500D01*
G01*
G37*
G36*
G01*
X128446942Y-82352362D02*
X128446942Y-82697362D01*
G75*
G02*
X128299442Y-82844862I-147500J0D01*
G01*
X128004442Y-82844862D01*
G75*
G02*
X127856942Y-82697362I0J147500D01*
G01*
X127856942Y-82352362D01*
G75*
G02*
X128004442Y-82204862I147500J0D01*
G01*
X128299442Y-82204862D01*
G75*
G02*
X128446942Y-82352362I0J-147500D01*
G01*
G37*
%TD*%
%TO.C,C58*%
G36*
G01*
X116846942Y-80672500D02*
X116846942Y-80327500D01*
G75*
G02*
X116994442Y-80180000I147500J0D01*
G01*
X117289442Y-80180000D01*
G75*
G02*
X117436942Y-80327500I0J-147500D01*
G01*
X117436942Y-80672500D01*
G75*
G02*
X117289442Y-80820000I-147500J0D01*
G01*
X116994442Y-80820000D01*
G75*
G02*
X116846942Y-80672500I0J147500D01*
G01*
G37*
G36*
G01*
X115876942Y-80672500D02*
X115876942Y-80327500D01*
G75*
G02*
X116024442Y-80180000I147500J0D01*
G01*
X116319442Y-80180000D01*
G75*
G02*
X116466942Y-80327500I0J-147500D01*
G01*
X116466942Y-80672500D01*
G75*
G02*
X116319442Y-80820000I-147500J0D01*
G01*
X116024442Y-80820000D01*
G75*
G02*
X115876942Y-80672500I0J147500D01*
G01*
G37*
%TD*%
%TO.C,C60*%
G36*
G01*
X124734441Y-80990000D02*
X125079441Y-80990000D01*
G75*
G02*
X125226941Y-81137500I0J-147500D01*
G01*
X125226941Y-81432500D01*
G75*
G02*
X125079441Y-81580000I-147500J0D01*
G01*
X124734441Y-81580000D01*
G75*
G02*
X124586941Y-81432500I0J147500D01*
G01*
X124586941Y-81137500D01*
G75*
G02*
X124734441Y-80990000I147500J0D01*
G01*
G37*
G36*
G01*
X124734441Y-80020000D02*
X125079441Y-80020000D01*
G75*
G02*
X125226941Y-80167500I0J-147500D01*
G01*
X125226941Y-80462500D01*
G75*
G02*
X125079441Y-80610000I-147500J0D01*
G01*
X124734441Y-80610000D01*
G75*
G02*
X124586941Y-80462500I0J147500D01*
G01*
X124586941Y-80167500D01*
G75*
G02*
X124734441Y-80020000I147500J0D01*
G01*
G37*
%TD*%
%TO.C,C62*%
G36*
G01*
X116796942Y-83572500D02*
X116796942Y-83227500D01*
G75*
G02*
X116944442Y-83080000I147500J0D01*
G01*
X117239442Y-83080000D01*
G75*
G02*
X117386942Y-83227500I0J-147500D01*
G01*
X117386942Y-83572500D01*
G75*
G02*
X117239442Y-83720000I-147500J0D01*
G01*
X116944442Y-83720000D01*
G75*
G02*
X116796942Y-83572500I0J147500D01*
G01*
G37*
G36*
G01*
X115826942Y-83572500D02*
X115826942Y-83227500D01*
G75*
G02*
X115974442Y-83080000I147500J0D01*
G01*
X116269442Y-83080000D01*
G75*
G02*
X116416942Y-83227500I0J-147500D01*
G01*
X116416942Y-83572500D01*
G75*
G02*
X116269442Y-83720000I-147500J0D01*
G01*
X115974442Y-83720000D01*
G75*
G02*
X115826942Y-83572500I0J147500D01*
G01*
G37*
%TD*%
%TO.C,C41*%
G36*
G01*
X121952500Y-80990000D02*
X122297500Y-80990000D01*
G75*
G02*
X122445000Y-81137500I0J-147500D01*
G01*
X122445000Y-81432500D01*
G75*
G02*
X122297500Y-81580000I-147500J0D01*
G01*
X121952500Y-81580000D01*
G75*
G02*
X121805000Y-81432500I0J147500D01*
G01*
X121805000Y-81137500D01*
G75*
G02*
X121952500Y-80990000I147500J0D01*
G01*
G37*
G36*
G01*
X121952500Y-80020000D02*
X122297500Y-80020000D01*
G75*
G02*
X122445000Y-80167500I0J-147500D01*
G01*
X122445000Y-80462500D01*
G75*
G02*
X122297500Y-80610000I-147500J0D01*
G01*
X121952500Y-80610000D01*
G75*
G02*
X121805000Y-80462500I0J147500D01*
G01*
X121805000Y-80167500D01*
G75*
G02*
X121952500Y-80020000I147500J0D01*
G01*
G37*
%TD*%
%TO.C,C45*%
G36*
G01*
X116846942Y-81672500D02*
X116846942Y-81327500D01*
G75*
G02*
X116994442Y-81180000I147500J0D01*
G01*
X117289442Y-81180000D01*
G75*
G02*
X117436942Y-81327500I0J-147500D01*
G01*
X117436942Y-81672500D01*
G75*
G02*
X117289442Y-81820000I-147500J0D01*
G01*
X116994442Y-81820000D01*
G75*
G02*
X116846942Y-81672500I0J147500D01*
G01*
G37*
G36*
G01*
X115876942Y-81672500D02*
X115876942Y-81327500D01*
G75*
G02*
X116024442Y-81180000I147500J0D01*
G01*
X116319442Y-81180000D01*
G75*
G02*
X116466942Y-81327500I0J-147500D01*
G01*
X116466942Y-81672500D01*
G75*
G02*
X116319442Y-81820000I-147500J0D01*
G01*
X116024442Y-81820000D01*
G75*
G02*
X115876942Y-81672500I0J147500D01*
G01*
G37*
%TD*%
%TO.C,C49*%
G36*
G01*
X118122500Y-90160000D02*
X117777500Y-90160000D01*
G75*
G02*
X117630000Y-90012500I0J147500D01*
G01*
X117630000Y-89717500D01*
G75*
G02*
X117777500Y-89570000I147500J0D01*
G01*
X118122500Y-89570000D01*
G75*
G02*
X118270000Y-89717500I0J-147500D01*
G01*
X118270000Y-90012500D01*
G75*
G02*
X118122500Y-90160000I-147500J0D01*
G01*
G37*
G36*
G01*
X118122500Y-91130000D02*
X117777500Y-91130000D01*
G75*
G02*
X117630000Y-90982500I0J147500D01*
G01*
X117630000Y-90687500D01*
G75*
G02*
X117777500Y-90540000I147500J0D01*
G01*
X118122500Y-90540000D01*
G75*
G02*
X118270000Y-90687500I0J-147500D01*
G01*
X118270000Y-90982500D01*
G75*
G02*
X118122500Y-91130000I-147500J0D01*
G01*
G37*
%TD*%
%TO.C,C57*%
G36*
G01*
X120872500Y-89810000D02*
X120527500Y-89810000D01*
G75*
G02*
X120380000Y-89662500I0J147500D01*
G01*
X120380000Y-89367500D01*
G75*
G02*
X120527500Y-89220000I147500J0D01*
G01*
X120872500Y-89220000D01*
G75*
G02*
X121020000Y-89367500I0J-147500D01*
G01*
X121020000Y-89662500D01*
G75*
G02*
X120872500Y-89810000I-147500J0D01*
G01*
G37*
G36*
G01*
X120872500Y-90780000D02*
X120527500Y-90780000D01*
G75*
G02*
X120380000Y-90632500I0J147500D01*
G01*
X120380000Y-90337500D01*
G75*
G02*
X120527500Y-90190000I147500J0D01*
G01*
X120872500Y-90190000D01*
G75*
G02*
X121020000Y-90337500I0J-147500D01*
G01*
X121020000Y-90632500D01*
G75*
G02*
X120872500Y-90780000I-147500J0D01*
G01*
G37*
%TD*%
%TO.C,C80*%
G36*
G01*
X120772500Y-100098999D02*
X120427500Y-100098999D01*
G75*
G02*
X120280000Y-99951499I0J147500D01*
G01*
X120280000Y-99656499D01*
G75*
G02*
X120427500Y-99508999I147500J0D01*
G01*
X120772500Y-99508999D01*
G75*
G02*
X120920000Y-99656499I0J-147500D01*
G01*
X120920000Y-99951499D01*
G75*
G02*
X120772500Y-100098999I-147500J0D01*
G01*
G37*
G36*
G01*
X120772500Y-101068999D02*
X120427500Y-101068999D01*
G75*
G02*
X120280000Y-100921499I0J147500D01*
G01*
X120280000Y-100626499D01*
G75*
G02*
X120427500Y-100478999I147500J0D01*
G01*
X120772500Y-100478999D01*
G75*
G02*
X120920000Y-100626499I0J-147500D01*
G01*
X120920000Y-100921499D01*
G75*
G02*
X120772500Y-101068999I-147500J0D01*
G01*
G37*
%TD*%
%TO.C,C83*%
G36*
G01*
X122559000Y-98831500D02*
X122559000Y-99176500D01*
G75*
G02*
X122411500Y-99324000I-147500J0D01*
G01*
X122116500Y-99324000D01*
G75*
G02*
X121969000Y-99176500I0J147500D01*
G01*
X121969000Y-98831500D01*
G75*
G02*
X122116500Y-98684000I147500J0D01*
G01*
X122411500Y-98684000D01*
G75*
G02*
X122559000Y-98831500I0J-147500D01*
G01*
G37*
G36*
G01*
X123529000Y-98831500D02*
X123529000Y-99176500D01*
G75*
G02*
X123381500Y-99324000I-147500J0D01*
G01*
X123086500Y-99324000D01*
G75*
G02*
X122939000Y-99176500I0J147500D01*
G01*
X122939000Y-98831500D01*
G75*
G02*
X123086500Y-98684000I147500J0D01*
G01*
X123381500Y-98684000D01*
G75*
G02*
X123529000Y-98831500I0J-147500D01*
G01*
G37*
%TD*%
%TO.C,C86*%
G36*
G01*
X120526500Y-97334000D02*
X120871500Y-97334000D01*
G75*
G02*
X121019000Y-97481500I0J-147500D01*
G01*
X121019000Y-97776500D01*
G75*
G02*
X120871500Y-97924000I-147500J0D01*
G01*
X120526500Y-97924000D01*
G75*
G02*
X120379000Y-97776500I0J147500D01*
G01*
X120379000Y-97481500D01*
G75*
G02*
X120526500Y-97334000I147500J0D01*
G01*
G37*
G36*
G01*
X120526500Y-96364000D02*
X120871500Y-96364000D01*
G75*
G02*
X121019000Y-96511500I0J-147500D01*
G01*
X121019000Y-96806500D01*
G75*
G02*
X120871500Y-96954000I-147500J0D01*
G01*
X120526500Y-96954000D01*
G75*
G02*
X120379000Y-96806500I0J147500D01*
G01*
X120379000Y-96511500D01*
G75*
G02*
X120526500Y-96364000I147500J0D01*
G01*
G37*
%TD*%
%TO.C,C89*%
G36*
G01*
X121426500Y-97344000D02*
X121771500Y-97344000D01*
G75*
G02*
X121919000Y-97491500I0J-147500D01*
G01*
X121919000Y-97786500D01*
G75*
G02*
X121771500Y-97934000I-147500J0D01*
G01*
X121426500Y-97934000D01*
G75*
G02*
X121279000Y-97786500I0J147500D01*
G01*
X121279000Y-97491500D01*
G75*
G02*
X121426500Y-97344000I147500J0D01*
G01*
G37*
G36*
G01*
X121426500Y-96374000D02*
X121771500Y-96374000D01*
G75*
G02*
X121919000Y-96521500I0J-147500D01*
G01*
X121919000Y-96816500D01*
G75*
G02*
X121771500Y-96964000I-147500J0D01*
G01*
X121426500Y-96964000D01*
G75*
G02*
X121279000Y-96816500I0J147500D01*
G01*
X121279000Y-96521500D01*
G75*
G02*
X121426500Y-96374000I147500J0D01*
G01*
G37*
%TD*%
%TO.C,C66*%
G36*
G01*
X129852500Y-75295000D02*
X130197500Y-75295000D01*
G75*
G02*
X130345000Y-75442500I0J-147500D01*
G01*
X130345000Y-75737500D01*
G75*
G02*
X130197500Y-75885000I-147500J0D01*
G01*
X129852500Y-75885000D01*
G75*
G02*
X129705000Y-75737500I0J147500D01*
G01*
X129705000Y-75442500D01*
G75*
G02*
X129852500Y-75295000I147500J0D01*
G01*
G37*
G36*
G01*
X129852500Y-74325000D02*
X130197500Y-74325000D01*
G75*
G02*
X130345000Y-74472500I0J-147500D01*
G01*
X130345000Y-74767500D01*
G75*
G02*
X130197500Y-74915000I-147500J0D01*
G01*
X129852500Y-74915000D01*
G75*
G02*
X129705000Y-74767500I0J147500D01*
G01*
X129705000Y-74472500D01*
G75*
G02*
X129852500Y-74325000I147500J0D01*
G01*
G37*
%TD*%
%TO.C,C67*%
G36*
G01*
X130802500Y-75295000D02*
X131147500Y-75295000D01*
G75*
G02*
X131295000Y-75442500I0J-147500D01*
G01*
X131295000Y-75737500D01*
G75*
G02*
X131147500Y-75885000I-147500J0D01*
G01*
X130802500Y-75885000D01*
G75*
G02*
X130655000Y-75737500I0J147500D01*
G01*
X130655000Y-75442500D01*
G75*
G02*
X130802500Y-75295000I147500J0D01*
G01*
G37*
G36*
G01*
X130802500Y-74325000D02*
X131147500Y-74325000D01*
G75*
G02*
X131295000Y-74472500I0J-147500D01*
G01*
X131295000Y-74767500D01*
G75*
G02*
X131147500Y-74915000I-147500J0D01*
G01*
X130802500Y-74915000D01*
G75*
G02*
X130655000Y-74767500I0J147500D01*
G01*
X130655000Y-74472500D01*
G75*
G02*
X130802500Y-74325000I147500J0D01*
G01*
G37*
%TD*%
%TO.C,C233*%
G36*
G01*
X134415000Y-121672500D02*
X134415000Y-121327500D01*
G75*
G02*
X134562500Y-121180000I147500J0D01*
G01*
X134857500Y-121180000D01*
G75*
G02*
X135005000Y-121327500I0J-147500D01*
G01*
X135005000Y-121672500D01*
G75*
G02*
X134857500Y-121820000I-147500J0D01*
G01*
X134562500Y-121820000D01*
G75*
G02*
X134415000Y-121672500I0J147500D01*
G01*
G37*
G36*
G01*
X133445000Y-121672500D02*
X133445000Y-121327500D01*
G75*
G02*
X133592500Y-121180000I147500J0D01*
G01*
X133887500Y-121180000D01*
G75*
G02*
X134035000Y-121327500I0J-147500D01*
G01*
X134035000Y-121672500D01*
G75*
G02*
X133887500Y-121820000I-147500J0D01*
G01*
X133592500Y-121820000D01*
G75*
G02*
X133445000Y-121672500I0J147500D01*
G01*
G37*
%TD*%
%TO.C,C234*%
G36*
G01*
X134415000Y-120722500D02*
X134415000Y-120377500D01*
G75*
G02*
X134562500Y-120230000I147500J0D01*
G01*
X134857500Y-120230000D01*
G75*
G02*
X135005000Y-120377500I0J-147500D01*
G01*
X135005000Y-120722500D01*
G75*
G02*
X134857500Y-120870000I-147500J0D01*
G01*
X134562500Y-120870000D01*
G75*
G02*
X134415000Y-120722500I0J147500D01*
G01*
G37*
G36*
G01*
X133445000Y-120722500D02*
X133445000Y-120377500D01*
G75*
G02*
X133592500Y-120230000I147500J0D01*
G01*
X133887500Y-120230000D01*
G75*
G02*
X134035000Y-120377500I0J-147500D01*
G01*
X134035000Y-120722500D01*
G75*
G02*
X133887500Y-120870000I-147500J0D01*
G01*
X133592500Y-120870000D01*
G75*
G02*
X133445000Y-120722500I0J147500D01*
G01*
G37*
%TD*%
%TO.C,C3*%
G36*
G01*
X95672500Y-86610000D02*
X95327500Y-86610000D01*
G75*
G02*
X95180000Y-86462500I0J147500D01*
G01*
X95180000Y-86167500D01*
G75*
G02*
X95327500Y-86020000I147500J0D01*
G01*
X95672500Y-86020000D01*
G75*
G02*
X95820000Y-86167500I0J-147500D01*
G01*
X95820000Y-86462500D01*
G75*
G02*
X95672500Y-86610000I-147500J0D01*
G01*
G37*
G36*
G01*
X95672500Y-87580000D02*
X95327500Y-87580000D01*
G75*
G02*
X95180000Y-87432500I0J147500D01*
G01*
X95180000Y-87137500D01*
G75*
G02*
X95327500Y-86990000I147500J0D01*
G01*
X95672500Y-86990000D01*
G75*
G02*
X95820000Y-87137500I0J-147500D01*
G01*
X95820000Y-87432500D01*
G75*
G02*
X95672500Y-87580000I-147500J0D01*
G01*
G37*
%TD*%
%TO.C,C4*%
G36*
G01*
X95672500Y-84810000D02*
X95327500Y-84810000D01*
G75*
G02*
X95180000Y-84662500I0J147500D01*
G01*
X95180000Y-84367500D01*
G75*
G02*
X95327500Y-84220000I147500J0D01*
G01*
X95672500Y-84220000D01*
G75*
G02*
X95820000Y-84367500I0J-147500D01*
G01*
X95820000Y-84662500D01*
G75*
G02*
X95672500Y-84810000I-147500J0D01*
G01*
G37*
G36*
G01*
X95672500Y-85780000D02*
X95327500Y-85780000D01*
G75*
G02*
X95180000Y-85632500I0J147500D01*
G01*
X95180000Y-85337500D01*
G75*
G02*
X95327500Y-85190000I147500J0D01*
G01*
X95672500Y-85190000D01*
G75*
G02*
X95820000Y-85337500I0J-147500D01*
G01*
X95820000Y-85632500D01*
G75*
G02*
X95672500Y-85780000I-147500J0D01*
G01*
G37*
%TD*%
%TO.C,C5*%
G36*
G01*
X95290000Y-75672500D02*
X95290000Y-75327500D01*
G75*
G02*
X95437500Y-75180000I147500J0D01*
G01*
X95732500Y-75180000D01*
G75*
G02*
X95880000Y-75327500I0J-147500D01*
G01*
X95880000Y-75672500D01*
G75*
G02*
X95732500Y-75820000I-147500J0D01*
G01*
X95437500Y-75820000D01*
G75*
G02*
X95290000Y-75672500I0J147500D01*
G01*
G37*
G36*
G01*
X94320000Y-75672500D02*
X94320000Y-75327500D01*
G75*
G02*
X94467500Y-75180000I147500J0D01*
G01*
X94762500Y-75180000D01*
G75*
G02*
X94910000Y-75327500I0J-147500D01*
G01*
X94910000Y-75672500D01*
G75*
G02*
X94762500Y-75820000I-147500J0D01*
G01*
X94467500Y-75820000D01*
G75*
G02*
X94320000Y-75672500I0J147500D01*
G01*
G37*
%TD*%
D13*
%TO.C,C119*%
X95150000Y-95000000D03*
X97250000Y-95000000D03*
%TD*%
%TO.C,C120*%
X95165000Y-96785000D03*
X97265000Y-96785000D03*
%TD*%
%TO.C,C121*%
G36*
G01*
X95690000Y-99172500D02*
X95690000Y-98827500D01*
G75*
G02*
X95837500Y-98680000I147500J0D01*
G01*
X96132500Y-98680000D01*
G75*
G02*
X96280000Y-98827500I0J-147500D01*
G01*
X96280000Y-99172500D01*
G75*
G02*
X96132500Y-99320000I-147500J0D01*
G01*
X95837500Y-99320000D01*
G75*
G02*
X95690000Y-99172500I0J147500D01*
G01*
G37*
G36*
G01*
X94720000Y-99172500D02*
X94720000Y-98827500D01*
G75*
G02*
X94867500Y-98680000I147500J0D01*
G01*
X95162500Y-98680000D01*
G75*
G02*
X95310000Y-98827500I0J-147500D01*
G01*
X95310000Y-99172500D01*
G75*
G02*
X95162500Y-99320000I-147500J0D01*
G01*
X94867500Y-99320000D01*
G75*
G02*
X94720000Y-99172500I0J147500D01*
G01*
G37*
%TD*%
%TO.C,C122*%
G36*
G01*
X95690000Y-98172500D02*
X95690000Y-97827500D01*
G75*
G02*
X95837500Y-97680000I147500J0D01*
G01*
X96132500Y-97680000D01*
G75*
G02*
X96280000Y-97827500I0J-147500D01*
G01*
X96280000Y-98172500D01*
G75*
G02*
X96132500Y-98320000I-147500J0D01*
G01*
X95837500Y-98320000D01*
G75*
G02*
X95690000Y-98172500I0J147500D01*
G01*
G37*
G36*
G01*
X94720000Y-98172500D02*
X94720000Y-97827500D01*
G75*
G02*
X94867500Y-97680000I147500J0D01*
G01*
X95162500Y-97680000D01*
G75*
G02*
X95310000Y-97827500I0J-147500D01*
G01*
X95310000Y-98172500D01*
G75*
G02*
X95162500Y-98320000I-147500J0D01*
G01*
X94867500Y-98320000D01*
G75*
G02*
X94720000Y-98172500I0J147500D01*
G01*
G37*
%TD*%
%TO.C,C129*%
G36*
G01*
X92690000Y-127947500D02*
X92690000Y-127602500D01*
G75*
G02*
X92837500Y-127455000I147500J0D01*
G01*
X93132500Y-127455000D01*
G75*
G02*
X93280000Y-127602500I0J-147500D01*
G01*
X93280000Y-127947500D01*
G75*
G02*
X93132500Y-128095000I-147500J0D01*
G01*
X92837500Y-128095000D01*
G75*
G02*
X92690000Y-127947500I0J147500D01*
G01*
G37*
G36*
G01*
X91720000Y-127947500D02*
X91720000Y-127602500D01*
G75*
G02*
X91867500Y-127455000I147500J0D01*
G01*
X92162500Y-127455000D01*
G75*
G02*
X92310000Y-127602500I0J-147500D01*
G01*
X92310000Y-127947500D01*
G75*
G02*
X92162500Y-128095000I-147500J0D01*
G01*
X91867500Y-128095000D01*
G75*
G02*
X91720000Y-127947500I0J147500D01*
G01*
G37*
%TD*%
%TO.C,C19*%
G36*
G01*
X130440000Y-147372500D02*
X130440000Y-147027500D01*
G75*
G02*
X130587500Y-146880000I147500J0D01*
G01*
X130882500Y-146880000D01*
G75*
G02*
X131030000Y-147027500I0J-147500D01*
G01*
X131030000Y-147372500D01*
G75*
G02*
X130882500Y-147520000I-147500J0D01*
G01*
X130587500Y-147520000D01*
G75*
G02*
X130440000Y-147372500I0J147500D01*
G01*
G37*
G36*
G01*
X129470000Y-147372500D02*
X129470000Y-147027500D01*
G75*
G02*
X129617500Y-146880000I147500J0D01*
G01*
X129912500Y-146880000D01*
G75*
G02*
X130060000Y-147027500I0J-147500D01*
G01*
X130060000Y-147372500D01*
G75*
G02*
X129912500Y-147520000I-147500J0D01*
G01*
X129617500Y-147520000D01*
G75*
G02*
X129470000Y-147372500I0J147500D01*
G01*
G37*
%TD*%
D14*
%TO.C,C20*%
X129750000Y-146150000D03*
X131150000Y-146150000D03*
%TD*%
%TO.C,C17*%
G36*
G01*
X123927500Y-146725000D02*
X124272500Y-146725000D01*
G75*
G02*
X124420000Y-146872500I0J-147500D01*
G01*
X124420000Y-147167500D01*
G75*
G02*
X124272500Y-147315000I-147500J0D01*
G01*
X123927500Y-147315000D01*
G75*
G02*
X123780000Y-147167500I0J147500D01*
G01*
X123780000Y-146872500D01*
G75*
G02*
X123927500Y-146725000I147500J0D01*
G01*
G37*
G36*
G01*
X123927500Y-145755000D02*
X124272500Y-145755000D01*
G75*
G02*
X124420000Y-145902500I0J-147500D01*
G01*
X124420000Y-146197500D01*
G75*
G02*
X124272500Y-146345000I-147500J0D01*
G01*
X123927500Y-146345000D01*
G75*
G02*
X123780000Y-146197500I0J147500D01*
G01*
X123780000Y-145902500D01*
G75*
G02*
X123927500Y-145755000I147500J0D01*
G01*
G37*
%TD*%
%TO.C,C18*%
G36*
G01*
X125222500Y-146360000D02*
X124877500Y-146360000D01*
G75*
G02*
X124730000Y-146212500I0J147500D01*
G01*
X124730000Y-145917500D01*
G75*
G02*
X124877500Y-145770000I147500J0D01*
G01*
X125222500Y-145770000D01*
G75*
G02*
X125370000Y-145917500I0J-147500D01*
G01*
X125370000Y-146212500D01*
G75*
G02*
X125222500Y-146360000I-147500J0D01*
G01*
G37*
G36*
G01*
X125222500Y-147330000D02*
X124877500Y-147330000D01*
G75*
G02*
X124730000Y-147182500I0J147500D01*
G01*
X124730000Y-146887500D01*
G75*
G02*
X124877500Y-146740000I147500J0D01*
G01*
X125222500Y-146740000D01*
G75*
G02*
X125370000Y-146887500I0J-147500D01*
G01*
X125370000Y-147182500D01*
G75*
G02*
X125222500Y-147330000I-147500J0D01*
G01*
G37*
%TD*%
%TO.C,C134*%
G36*
G01*
X106395000Y-141427500D02*
X106395000Y-141772500D01*
G75*
G02*
X106247500Y-141920000I-147500J0D01*
G01*
X105952500Y-141920000D01*
G75*
G02*
X105805000Y-141772500I0J147500D01*
G01*
X105805000Y-141427500D01*
G75*
G02*
X105952500Y-141280000I147500J0D01*
G01*
X106247500Y-141280000D01*
G75*
G02*
X106395000Y-141427500I0J-147500D01*
G01*
G37*
G36*
G01*
X107365000Y-141427500D02*
X107365000Y-141772500D01*
G75*
G02*
X107217500Y-141920000I-147500J0D01*
G01*
X106922500Y-141920000D01*
G75*
G02*
X106775000Y-141772500I0J147500D01*
G01*
X106775000Y-141427500D01*
G75*
G02*
X106922500Y-141280000I147500J0D01*
G01*
X107217500Y-141280000D01*
G75*
G02*
X107365000Y-141427500I0J-147500D01*
G01*
G37*
%TD*%
%TO.C,C131*%
G36*
G01*
X101940000Y-142072500D02*
X101940000Y-141727500D01*
G75*
G02*
X102087500Y-141580000I147500J0D01*
G01*
X102382500Y-141580000D01*
G75*
G02*
X102530000Y-141727500I0J-147500D01*
G01*
X102530000Y-142072500D01*
G75*
G02*
X102382500Y-142220000I-147500J0D01*
G01*
X102087500Y-142220000D01*
G75*
G02*
X101940000Y-142072500I0J147500D01*
G01*
G37*
G36*
G01*
X100970000Y-142072500D02*
X100970000Y-141727500D01*
G75*
G02*
X101117500Y-141580000I147500J0D01*
G01*
X101412500Y-141580000D01*
G75*
G02*
X101560000Y-141727500I0J-147500D01*
G01*
X101560000Y-142072500D01*
G75*
G02*
X101412500Y-142220000I-147500J0D01*
G01*
X101117500Y-142220000D01*
G75*
G02*
X100970000Y-142072500I0J147500D01*
G01*
G37*
%TD*%
%TO.C,C130*%
G36*
G01*
X96552500Y-140765001D02*
X96897500Y-140765001D01*
G75*
G02*
X97045000Y-140912501I0J-147500D01*
G01*
X97045000Y-141207501D01*
G75*
G02*
X96897500Y-141355001I-147500J0D01*
G01*
X96552500Y-141355001D01*
G75*
G02*
X96405000Y-141207501I0J147500D01*
G01*
X96405000Y-140912501D01*
G75*
G02*
X96552500Y-140765001I147500J0D01*
G01*
G37*
G36*
G01*
X96552500Y-139795001D02*
X96897500Y-139795001D01*
G75*
G02*
X97045000Y-139942501I0J-147500D01*
G01*
X97045000Y-140237501D01*
G75*
G02*
X96897500Y-140385001I-147500J0D01*
G01*
X96552500Y-140385001D01*
G75*
G02*
X96405000Y-140237501I0J147500D01*
G01*
X96405000Y-139942501D01*
G75*
G02*
X96552500Y-139795001I147500J0D01*
G01*
G37*
%TD*%
%TO.C,C135*%
G36*
G01*
X96622500Y-146760000D02*
X96277500Y-146760000D01*
G75*
G02*
X96130000Y-146612500I0J147500D01*
G01*
X96130000Y-146317500D01*
G75*
G02*
X96277500Y-146170000I147500J0D01*
G01*
X96622500Y-146170000D01*
G75*
G02*
X96770000Y-146317500I0J-147500D01*
G01*
X96770000Y-146612500D01*
G75*
G02*
X96622500Y-146760000I-147500J0D01*
G01*
G37*
G36*
G01*
X96622500Y-147730000D02*
X96277500Y-147730000D01*
G75*
G02*
X96130000Y-147582500I0J147500D01*
G01*
X96130000Y-147287500D01*
G75*
G02*
X96277500Y-147140000I147500J0D01*
G01*
X96622500Y-147140000D01*
G75*
G02*
X96770000Y-147287500I0J-147500D01*
G01*
X96770000Y-147582500D01*
G75*
G02*
X96622500Y-147730000I-147500J0D01*
G01*
G37*
%TD*%
%TO.C,C136*%
G36*
G01*
X108640000Y-141772500D02*
X108640000Y-141427500D01*
G75*
G02*
X108787500Y-141280000I147500J0D01*
G01*
X109082500Y-141280000D01*
G75*
G02*
X109230000Y-141427500I0J-147500D01*
G01*
X109230000Y-141772500D01*
G75*
G02*
X109082500Y-141920000I-147500J0D01*
G01*
X108787500Y-141920000D01*
G75*
G02*
X108640000Y-141772500I0J147500D01*
G01*
G37*
G36*
G01*
X107670000Y-141772500D02*
X107670000Y-141427500D01*
G75*
G02*
X107817500Y-141280000I147500J0D01*
G01*
X108112500Y-141280000D01*
G75*
G02*
X108260000Y-141427500I0J-147500D01*
G01*
X108260000Y-141772500D01*
G75*
G02*
X108112500Y-141920000I-147500J0D01*
G01*
X107817500Y-141920000D01*
G75*
G02*
X107670000Y-141772500I0J147500D01*
G01*
G37*
%TD*%
%TO.C,C132*%
G36*
G01*
X104522500Y-140235000D02*
X104177500Y-140235000D01*
G75*
G02*
X104030000Y-140087500I0J147500D01*
G01*
X104030000Y-139792500D01*
G75*
G02*
X104177500Y-139645000I147500J0D01*
G01*
X104522500Y-139645000D01*
G75*
G02*
X104670000Y-139792500I0J-147500D01*
G01*
X104670000Y-140087500D01*
G75*
G02*
X104522500Y-140235000I-147500J0D01*
G01*
G37*
G36*
G01*
X104522500Y-141205000D02*
X104177500Y-141205000D01*
G75*
G02*
X104030000Y-141057500I0J147500D01*
G01*
X104030000Y-140762500D01*
G75*
G02*
X104177500Y-140615000I147500J0D01*
G01*
X104522500Y-140615000D01*
G75*
G02*
X104670000Y-140762500I0J-147500D01*
G01*
X104670000Y-141057500D01*
G75*
G02*
X104522500Y-141205000I-147500J0D01*
G01*
G37*
%TD*%
%TO.C,C140*%
G36*
G01*
X144690000Y-118627500D02*
X144690000Y-118972500D01*
G75*
G02*
X144542500Y-119120000I-147500J0D01*
G01*
X144247500Y-119120000D01*
G75*
G02*
X144100000Y-118972500I0J147500D01*
G01*
X144100000Y-118627500D01*
G75*
G02*
X144247500Y-118480000I147500J0D01*
G01*
X144542500Y-118480000D01*
G75*
G02*
X144690000Y-118627500I0J-147500D01*
G01*
G37*
G36*
G01*
X145660000Y-118627500D02*
X145660000Y-118972500D01*
G75*
G02*
X145512500Y-119120000I-147500J0D01*
G01*
X145217500Y-119120000D01*
G75*
G02*
X145070000Y-118972500I0J147500D01*
G01*
X145070000Y-118627500D01*
G75*
G02*
X145217500Y-118480000I147500J0D01*
G01*
X145512500Y-118480000D01*
G75*
G02*
X145660000Y-118627500I0J-147500D01*
G01*
G37*
%TD*%
%TO.C,C142*%
G36*
G01*
X148327500Y-121850000D02*
X148672500Y-121850000D01*
G75*
G02*
X148820000Y-121997500I0J-147500D01*
G01*
X148820000Y-122292500D01*
G75*
G02*
X148672500Y-122440000I-147500J0D01*
G01*
X148327500Y-122440000D01*
G75*
G02*
X148180000Y-122292500I0J147500D01*
G01*
X148180000Y-121997500D01*
G75*
G02*
X148327500Y-121850000I147500J0D01*
G01*
G37*
G36*
G01*
X148327500Y-120880000D02*
X148672500Y-120880000D01*
G75*
G02*
X148820000Y-121027500I0J-147500D01*
G01*
X148820000Y-121322500D01*
G75*
G02*
X148672500Y-121470000I-147500J0D01*
G01*
X148327500Y-121470000D01*
G75*
G02*
X148180000Y-121322500I0J147500D01*
G01*
X148180000Y-121027500D01*
G75*
G02*
X148327500Y-120880000I147500J0D01*
G01*
G37*
%TD*%
%TO.C,C141*%
G36*
G01*
X144690000Y-117627500D02*
X144690000Y-117972500D01*
G75*
G02*
X144542500Y-118120000I-147500J0D01*
G01*
X144247500Y-118120000D01*
G75*
G02*
X144100000Y-117972500I0J147500D01*
G01*
X144100000Y-117627500D01*
G75*
G02*
X144247500Y-117480000I147500J0D01*
G01*
X144542500Y-117480000D01*
G75*
G02*
X144690000Y-117627500I0J-147500D01*
G01*
G37*
G36*
G01*
X145660000Y-117627500D02*
X145660000Y-117972500D01*
G75*
G02*
X145512500Y-118120000I-147500J0D01*
G01*
X145217500Y-118120000D01*
G75*
G02*
X145070000Y-117972500I0J147500D01*
G01*
X145070000Y-117627500D01*
G75*
G02*
X145217500Y-117480000I147500J0D01*
G01*
X145512500Y-117480000D01*
G75*
G02*
X145660000Y-117627500I0J-147500D01*
G01*
G37*
%TD*%
%TO.C,C144*%
G36*
G01*
X151770000Y-120032500D02*
X151770000Y-119687500D01*
G75*
G02*
X151917500Y-119540000I147500J0D01*
G01*
X152212500Y-119540000D01*
G75*
G02*
X152360000Y-119687500I0J-147500D01*
G01*
X152360000Y-120032500D01*
G75*
G02*
X152212500Y-120180000I-147500J0D01*
G01*
X151917500Y-120180000D01*
G75*
G02*
X151770000Y-120032500I0J147500D01*
G01*
G37*
G36*
G01*
X150800000Y-120032500D02*
X150800000Y-119687500D01*
G75*
G02*
X150947500Y-119540000I147500J0D01*
G01*
X151242500Y-119540000D01*
G75*
G02*
X151390000Y-119687500I0J-147500D01*
G01*
X151390000Y-120032500D01*
G75*
G02*
X151242500Y-120180000I-147500J0D01*
G01*
X150947500Y-120180000D01*
G75*
G02*
X150800000Y-120032500I0J147500D01*
G01*
G37*
%TD*%
%TO.C,C143*%
G36*
G01*
X147327500Y-121850000D02*
X147672500Y-121850000D01*
G75*
G02*
X147820000Y-121997500I0J-147500D01*
G01*
X147820000Y-122292500D01*
G75*
G02*
X147672500Y-122440000I-147500J0D01*
G01*
X147327500Y-122440000D01*
G75*
G02*
X147180000Y-122292500I0J147500D01*
G01*
X147180000Y-121997500D01*
G75*
G02*
X147327500Y-121850000I147500J0D01*
G01*
G37*
G36*
G01*
X147327500Y-120880000D02*
X147672500Y-120880000D01*
G75*
G02*
X147820000Y-121027500I0J-147500D01*
G01*
X147820000Y-121322500D01*
G75*
G02*
X147672500Y-121470000I-147500J0D01*
G01*
X147327500Y-121470000D01*
G75*
G02*
X147180000Y-121322500I0J147500D01*
G01*
X147180000Y-121027500D01*
G75*
G02*
X147327500Y-120880000I147500J0D01*
G01*
G37*
%TD*%
%TO.C,C146*%
G36*
G01*
X151770000Y-115232500D02*
X151770000Y-114887500D01*
G75*
G02*
X151917500Y-114740000I147500J0D01*
G01*
X152212500Y-114740000D01*
G75*
G02*
X152360000Y-114887500I0J-147500D01*
G01*
X152360000Y-115232500D01*
G75*
G02*
X152212500Y-115380000I-147500J0D01*
G01*
X151917500Y-115380000D01*
G75*
G02*
X151770000Y-115232500I0J147500D01*
G01*
G37*
G36*
G01*
X150800000Y-115232500D02*
X150800000Y-114887500D01*
G75*
G02*
X150947500Y-114740000I147500J0D01*
G01*
X151242500Y-114740000D01*
G75*
G02*
X151390000Y-114887500I0J-147500D01*
G01*
X151390000Y-115232500D01*
G75*
G02*
X151242500Y-115380000I-147500J0D01*
G01*
X150947500Y-115380000D01*
G75*
G02*
X150800000Y-115232500I0J147500D01*
G01*
G37*
%TD*%
%TO.C,C145*%
G36*
G01*
X151770000Y-118032500D02*
X151770000Y-117687500D01*
G75*
G02*
X151917500Y-117540000I147500J0D01*
G01*
X152212500Y-117540000D01*
G75*
G02*
X152360000Y-117687500I0J-147500D01*
G01*
X152360000Y-118032500D01*
G75*
G02*
X152212500Y-118180000I-147500J0D01*
G01*
X151917500Y-118180000D01*
G75*
G02*
X151770000Y-118032500I0J147500D01*
G01*
G37*
G36*
G01*
X150800000Y-118032500D02*
X150800000Y-117687500D01*
G75*
G02*
X150947500Y-117540000I147500J0D01*
G01*
X151242500Y-117540000D01*
G75*
G02*
X151390000Y-117687500I0J-147500D01*
G01*
X151390000Y-118032500D01*
G75*
G02*
X151242500Y-118180000I-147500J0D01*
G01*
X150947500Y-118180000D01*
G75*
G02*
X150800000Y-118032500I0J147500D01*
G01*
G37*
%TD*%
%TO.C,C147*%
G36*
G01*
X146002500Y-114745000D02*
X145657500Y-114745000D01*
G75*
G02*
X145510000Y-114597500I0J147500D01*
G01*
X145510000Y-114302500D01*
G75*
G02*
X145657500Y-114155000I147500J0D01*
G01*
X146002500Y-114155000D01*
G75*
G02*
X146150000Y-114302500I0J-147500D01*
G01*
X146150000Y-114597500D01*
G75*
G02*
X146002500Y-114745000I-147500J0D01*
G01*
G37*
G36*
G01*
X146002500Y-115715000D02*
X145657500Y-115715000D01*
G75*
G02*
X145510000Y-115567500I0J147500D01*
G01*
X145510000Y-115272500D01*
G75*
G02*
X145657500Y-115125000I147500J0D01*
G01*
X146002500Y-115125000D01*
G75*
G02*
X146150000Y-115272500I0J-147500D01*
G01*
X146150000Y-115567500D01*
G75*
G02*
X146002500Y-115715000I-147500J0D01*
G01*
G37*
%TD*%
%TO.C,C148*%
G36*
G01*
X146902500Y-114745000D02*
X146557500Y-114745000D01*
G75*
G02*
X146410000Y-114597500I0J147500D01*
G01*
X146410000Y-114302500D01*
G75*
G02*
X146557500Y-114155000I147500J0D01*
G01*
X146902500Y-114155000D01*
G75*
G02*
X147050000Y-114302500I0J-147500D01*
G01*
X147050000Y-114597500D01*
G75*
G02*
X146902500Y-114745000I-147500J0D01*
G01*
G37*
G36*
G01*
X146902500Y-115715000D02*
X146557500Y-115715000D01*
G75*
G02*
X146410000Y-115567500I0J147500D01*
G01*
X146410000Y-115272500D01*
G75*
G02*
X146557500Y-115125000I147500J0D01*
G01*
X146902500Y-115125000D01*
G75*
G02*
X147050000Y-115272500I0J-147500D01*
G01*
X147050000Y-115567500D01*
G75*
G02*
X146902500Y-115715000I-147500J0D01*
G01*
G37*
%TD*%
%TO.C,C149*%
G36*
G01*
X149327500Y-121790000D02*
X149672500Y-121790000D01*
G75*
G02*
X149820000Y-121937500I0J-147500D01*
G01*
X149820000Y-122232500D01*
G75*
G02*
X149672500Y-122380000I-147500J0D01*
G01*
X149327500Y-122380000D01*
G75*
G02*
X149180000Y-122232500I0J147500D01*
G01*
X149180000Y-121937500D01*
G75*
G02*
X149327500Y-121790000I147500J0D01*
G01*
G37*
G36*
G01*
X149327500Y-120820000D02*
X149672500Y-120820000D01*
G75*
G02*
X149820000Y-120967500I0J-147500D01*
G01*
X149820000Y-121262500D01*
G75*
G02*
X149672500Y-121410000I-147500J0D01*
G01*
X149327500Y-121410000D01*
G75*
G02*
X149180000Y-121262500I0J147500D01*
G01*
X149180000Y-120967500D01*
G75*
G02*
X149327500Y-120820000I147500J0D01*
G01*
G37*
%TD*%
%TO.C,C150*%
G36*
G01*
X151495000Y-113027500D02*
X151495000Y-113372500D01*
G75*
G02*
X151347500Y-113520000I-147500J0D01*
G01*
X151052500Y-113520000D01*
G75*
G02*
X150905000Y-113372500I0J147500D01*
G01*
X150905000Y-113027500D01*
G75*
G02*
X151052500Y-112880000I147500J0D01*
G01*
X151347500Y-112880000D01*
G75*
G02*
X151495000Y-113027500I0J-147500D01*
G01*
G37*
G36*
G01*
X152465000Y-113027500D02*
X152465000Y-113372500D01*
G75*
G02*
X152317500Y-113520000I-147500J0D01*
G01*
X152022500Y-113520000D01*
G75*
G02*
X151875000Y-113372500I0J147500D01*
G01*
X151875000Y-113027500D01*
G75*
G02*
X152022500Y-112880000I147500J0D01*
G01*
X152317500Y-112880000D01*
G75*
G02*
X152465000Y-113027500I0J-147500D01*
G01*
G37*
%TD*%
%TO.C,C151*%
G36*
G01*
X150327500Y-121790000D02*
X150672500Y-121790000D01*
G75*
G02*
X150820000Y-121937500I0J-147500D01*
G01*
X150820000Y-122232500D01*
G75*
G02*
X150672500Y-122380000I-147500J0D01*
G01*
X150327500Y-122380000D01*
G75*
G02*
X150180000Y-122232500I0J147500D01*
G01*
X150180000Y-121937500D01*
G75*
G02*
X150327500Y-121790000I147500J0D01*
G01*
G37*
G36*
G01*
X150327500Y-120820000D02*
X150672500Y-120820000D01*
G75*
G02*
X150820000Y-120967500I0J-147500D01*
G01*
X150820000Y-121262500D01*
G75*
G02*
X150672500Y-121410000I-147500J0D01*
G01*
X150327500Y-121410000D01*
G75*
G02*
X150180000Y-121262500I0J147500D01*
G01*
X150180000Y-120967500D01*
G75*
G02*
X150327500Y-120820000I147500J0D01*
G01*
G37*
%TD*%
%TO.C,C152*%
G36*
G01*
X149652499Y-114755000D02*
X149307499Y-114755000D01*
G75*
G02*
X149159999Y-114607500I0J147500D01*
G01*
X149159999Y-114312500D01*
G75*
G02*
X149307499Y-114165000I147500J0D01*
G01*
X149652499Y-114165000D01*
G75*
G02*
X149799999Y-114312500I0J-147500D01*
G01*
X149799999Y-114607500D01*
G75*
G02*
X149652499Y-114755000I-147500J0D01*
G01*
G37*
G36*
G01*
X149652499Y-115725000D02*
X149307499Y-115725000D01*
G75*
G02*
X149159999Y-115577500I0J147500D01*
G01*
X149159999Y-115282500D01*
G75*
G02*
X149307499Y-115135000I147500J0D01*
G01*
X149652499Y-115135000D01*
G75*
G02*
X149799999Y-115282500I0J-147500D01*
G01*
X149799999Y-115577500D01*
G75*
G02*
X149652499Y-115725000I-147500J0D01*
G01*
G37*
%TD*%
%TO.C,C157*%
G36*
G01*
X139560389Y-113530109D02*
X139560389Y-113185109D01*
G75*
G02*
X139707889Y-113037609I147500J0D01*
G01*
X140002889Y-113037609D01*
G75*
G02*
X140150389Y-113185109I0J-147500D01*
G01*
X140150389Y-113530109D01*
G75*
G02*
X140002889Y-113677609I-147500J0D01*
G01*
X139707889Y-113677609D01*
G75*
G02*
X139560389Y-113530109I0J147500D01*
G01*
G37*
G36*
G01*
X138590389Y-113530109D02*
X138590389Y-113185109D01*
G75*
G02*
X138737889Y-113037609I147500J0D01*
G01*
X139032889Y-113037609D01*
G75*
G02*
X139180389Y-113185109I0J-147500D01*
G01*
X139180389Y-113530109D01*
G75*
G02*
X139032889Y-113677609I-147500J0D01*
G01*
X138737889Y-113677609D01*
G75*
G02*
X138590389Y-113530109I0J147500D01*
G01*
G37*
%TD*%
D22*
%TO.C,C126*%
X109245000Y-87300000D03*
X106955000Y-87300000D03*
%TD*%
%TO.C,C162*%
G36*
G01*
X140097500Y-121910000D02*
X139752500Y-121910000D01*
G75*
G02*
X139605000Y-121762500I0J147500D01*
G01*
X139605000Y-121467500D01*
G75*
G02*
X139752500Y-121320000I147500J0D01*
G01*
X140097500Y-121320000D01*
G75*
G02*
X140245000Y-121467500I0J-147500D01*
G01*
X140245000Y-121762500D01*
G75*
G02*
X140097500Y-121910000I-147500J0D01*
G01*
G37*
G36*
G01*
X140097500Y-122880000D02*
X139752500Y-122880000D01*
G75*
G02*
X139605000Y-122732500I0J147500D01*
G01*
X139605000Y-122437500D01*
G75*
G02*
X139752500Y-122290000I147500J0D01*
G01*
X140097500Y-122290000D01*
G75*
G02*
X140245000Y-122437500I0J-147500D01*
G01*
X140245000Y-122732500D01*
G75*
G02*
X140097500Y-122880000I-147500J0D01*
G01*
G37*
%TD*%
%TO.C,C163*%
G36*
G01*
X139847500Y-117660000D02*
X139502500Y-117660000D01*
G75*
G02*
X139355000Y-117512500I0J147500D01*
G01*
X139355000Y-117217500D01*
G75*
G02*
X139502500Y-117070000I147500J0D01*
G01*
X139847500Y-117070000D01*
G75*
G02*
X139995000Y-117217500I0J-147500D01*
G01*
X139995000Y-117512500D01*
G75*
G02*
X139847500Y-117660000I-147500J0D01*
G01*
G37*
G36*
G01*
X139847500Y-118630000D02*
X139502500Y-118630000D01*
G75*
G02*
X139355000Y-118482500I0J147500D01*
G01*
X139355000Y-118187500D01*
G75*
G02*
X139502500Y-118040000I147500J0D01*
G01*
X139847500Y-118040000D01*
G75*
G02*
X139995000Y-118187500I0J-147500D01*
G01*
X139995000Y-118482500D01*
G75*
G02*
X139847500Y-118630000I-147500J0D01*
G01*
G37*
%TD*%
%TO.C,C168*%
G36*
G01*
X139197500Y-121910000D02*
X138852500Y-121910000D01*
G75*
G02*
X138705000Y-121762500I0J147500D01*
G01*
X138705000Y-121467500D01*
G75*
G02*
X138852500Y-121320000I147500J0D01*
G01*
X139197500Y-121320000D01*
G75*
G02*
X139345000Y-121467500I0J-147500D01*
G01*
X139345000Y-121762500D01*
G75*
G02*
X139197500Y-121910000I-147500J0D01*
G01*
G37*
G36*
G01*
X139197500Y-122880000D02*
X138852500Y-122880000D01*
G75*
G02*
X138705000Y-122732500I0J147500D01*
G01*
X138705000Y-122437500D01*
G75*
G02*
X138852500Y-122290000I147500J0D01*
G01*
X139197500Y-122290000D01*
G75*
G02*
X139345000Y-122437500I0J-147500D01*
G01*
X139345000Y-122732500D01*
G75*
G02*
X139197500Y-122880000I-147500J0D01*
G01*
G37*
%TD*%
%TO.C,C169*%
G36*
G01*
X138947500Y-117675000D02*
X138602500Y-117675000D01*
G75*
G02*
X138455000Y-117527500I0J147500D01*
G01*
X138455000Y-117232500D01*
G75*
G02*
X138602500Y-117085000I147500J0D01*
G01*
X138947500Y-117085000D01*
G75*
G02*
X139095000Y-117232500I0J-147500D01*
G01*
X139095000Y-117527500D01*
G75*
G02*
X138947500Y-117675000I-147500J0D01*
G01*
G37*
G36*
G01*
X138947500Y-118645000D02*
X138602500Y-118645000D01*
G75*
G02*
X138455000Y-118497500I0J147500D01*
G01*
X138455000Y-118202500D01*
G75*
G02*
X138602500Y-118055000I147500J0D01*
G01*
X138947500Y-118055000D01*
G75*
G02*
X139095000Y-118202500I0J-147500D01*
G01*
X139095000Y-118497500D01*
G75*
G02*
X138947500Y-118645000I-147500J0D01*
G01*
G37*
%TD*%
%TO.C,C161*%
G36*
G01*
X77510000Y-129227500D02*
X77510000Y-129572500D01*
G75*
G02*
X77362500Y-129720000I-147500J0D01*
G01*
X77067500Y-129720000D01*
G75*
G02*
X76920000Y-129572500I0J147500D01*
G01*
X76920000Y-129227500D01*
G75*
G02*
X77067500Y-129080000I147500J0D01*
G01*
X77362500Y-129080000D01*
G75*
G02*
X77510000Y-129227500I0J-147500D01*
G01*
G37*
G36*
G01*
X78480000Y-129227500D02*
X78480000Y-129572500D01*
G75*
G02*
X78332500Y-129720000I-147500J0D01*
G01*
X78037500Y-129720000D01*
G75*
G02*
X77890000Y-129572500I0J147500D01*
G01*
X77890000Y-129227500D01*
G75*
G02*
X78037500Y-129080000I147500J0D01*
G01*
X78332500Y-129080000D01*
G75*
G02*
X78480000Y-129227500I0J-147500D01*
G01*
G37*
%TD*%
%TO.C,C33*%
G36*
G01*
X101660000Y-134177500D02*
X101660000Y-134522500D01*
G75*
G02*
X101512500Y-134670000I-147500J0D01*
G01*
X101217500Y-134670000D01*
G75*
G02*
X101070000Y-134522500I0J147500D01*
G01*
X101070000Y-134177500D01*
G75*
G02*
X101217500Y-134030000I147500J0D01*
G01*
X101512500Y-134030000D01*
G75*
G02*
X101660000Y-134177500I0J-147500D01*
G01*
G37*
G36*
G01*
X102630000Y-134177500D02*
X102630000Y-134522500D01*
G75*
G02*
X102482500Y-134670000I-147500J0D01*
G01*
X102187500Y-134670000D01*
G75*
G02*
X102040000Y-134522500I0J147500D01*
G01*
X102040000Y-134177500D01*
G75*
G02*
X102187500Y-134030000I147500J0D01*
G01*
X102482500Y-134030000D01*
G75*
G02*
X102630000Y-134177500I0J-147500D01*
G01*
G37*
%TD*%
%TO.C,C34*%
G36*
G01*
X105577500Y-134090000D02*
X105922500Y-134090000D01*
G75*
G02*
X106070000Y-134237500I0J-147500D01*
G01*
X106070000Y-134532500D01*
G75*
G02*
X105922500Y-134680000I-147500J0D01*
G01*
X105577500Y-134680000D01*
G75*
G02*
X105430000Y-134532500I0J147500D01*
G01*
X105430000Y-134237500D01*
G75*
G02*
X105577500Y-134090000I147500J0D01*
G01*
G37*
G36*
G01*
X105577500Y-133120000D02*
X105922500Y-133120000D01*
G75*
G02*
X106070000Y-133267500I0J-147500D01*
G01*
X106070000Y-133562500D01*
G75*
G02*
X105922500Y-133710000I-147500J0D01*
G01*
X105577500Y-133710000D01*
G75*
G02*
X105430000Y-133562500I0J147500D01*
G01*
X105430000Y-133267500D01*
G75*
G02*
X105577500Y-133120000I147500J0D01*
G01*
G37*
%TD*%
%TO.C,C137*%
G36*
G01*
X106885000Y-144727500D02*
X106885000Y-145072500D01*
G75*
G02*
X106737500Y-145220000I-147500J0D01*
G01*
X106442500Y-145220000D01*
G75*
G02*
X106295000Y-145072500I0J147500D01*
G01*
X106295000Y-144727500D01*
G75*
G02*
X106442500Y-144580000I147500J0D01*
G01*
X106737500Y-144580000D01*
G75*
G02*
X106885000Y-144727500I0J-147500D01*
G01*
G37*
G36*
G01*
X107855000Y-144727500D02*
X107855000Y-145072500D01*
G75*
G02*
X107707500Y-145220000I-147500J0D01*
G01*
X107412500Y-145220000D01*
G75*
G02*
X107265000Y-145072500I0J147500D01*
G01*
X107265000Y-144727500D01*
G75*
G02*
X107412500Y-144580000I147500J0D01*
G01*
X107707500Y-144580000D01*
G75*
G02*
X107855000Y-144727500I0J-147500D01*
G01*
G37*
%TD*%
%TO.C,C138*%
G36*
G01*
X109140000Y-145072500D02*
X109140000Y-144727500D01*
G75*
G02*
X109287500Y-144580000I147500J0D01*
G01*
X109582500Y-144580000D01*
G75*
G02*
X109730000Y-144727500I0J-147500D01*
G01*
X109730000Y-145072500D01*
G75*
G02*
X109582500Y-145220000I-147500J0D01*
G01*
X109287500Y-145220000D01*
G75*
G02*
X109140000Y-145072500I0J147500D01*
G01*
G37*
G36*
G01*
X108170000Y-145072500D02*
X108170000Y-144727500D01*
G75*
G02*
X108317500Y-144580000I147500J0D01*
G01*
X108612500Y-144580000D01*
G75*
G02*
X108760000Y-144727500I0J-147500D01*
G01*
X108760000Y-145072500D01*
G75*
G02*
X108612500Y-145220000I-147500J0D01*
G01*
X108317500Y-145220000D01*
G75*
G02*
X108170000Y-145072500I0J147500D01*
G01*
G37*
%TD*%
%TO.C,C155*%
G36*
G01*
X151527500Y-110665000D02*
X151872500Y-110665000D01*
G75*
G02*
X152020000Y-110812500I0J-147500D01*
G01*
X152020000Y-111107500D01*
G75*
G02*
X151872500Y-111255000I-147500J0D01*
G01*
X151527500Y-111255000D01*
G75*
G02*
X151380000Y-111107500I0J147500D01*
G01*
X151380000Y-110812500D01*
G75*
G02*
X151527500Y-110665000I147500J0D01*
G01*
G37*
G36*
G01*
X151527500Y-109695000D02*
X151872500Y-109695000D01*
G75*
G02*
X152020000Y-109842500I0J-147500D01*
G01*
X152020000Y-110137500D01*
G75*
G02*
X151872500Y-110285000I-147500J0D01*
G01*
X151527500Y-110285000D01*
G75*
G02*
X151380000Y-110137500I0J147500D01*
G01*
X151380000Y-109842500D01*
G75*
G02*
X151527500Y-109695000I147500J0D01*
G01*
G37*
%TD*%
D21*
%TO.C,D3*%
X109050000Y-90050000D03*
X106950000Y-90050000D03*
%TD*%
%TO.C,FB1*%
G36*
G01*
X105622500Y-85810000D02*
X105277500Y-85810000D01*
G75*
G02*
X105130000Y-85662500I0J147500D01*
G01*
X105130000Y-85367500D01*
G75*
G02*
X105277500Y-85220000I147500J0D01*
G01*
X105622500Y-85220000D01*
G75*
G02*
X105770000Y-85367500I0J-147500D01*
G01*
X105770000Y-85662500D01*
G75*
G02*
X105622500Y-85810000I-147500J0D01*
G01*
G37*
G36*
G01*
X105622500Y-86780000D02*
X105277500Y-86780000D01*
G75*
G02*
X105130000Y-86632500I0J147500D01*
G01*
X105130000Y-86337500D01*
G75*
G02*
X105277500Y-86190000I147500J0D01*
G01*
X105622500Y-86190000D01*
G75*
G02*
X105770000Y-86337500I0J-147500D01*
G01*
X105770000Y-86632500D01*
G75*
G02*
X105622500Y-86780000I-147500J0D01*
G01*
G37*
%TD*%
%TO.C,FB2*%
G36*
G01*
X110922500Y-85810000D02*
X110577500Y-85810000D01*
G75*
G02*
X110430000Y-85662500I0J147500D01*
G01*
X110430000Y-85367500D01*
G75*
G02*
X110577500Y-85220000I147500J0D01*
G01*
X110922500Y-85220000D01*
G75*
G02*
X111070000Y-85367500I0J-147500D01*
G01*
X111070000Y-85662500D01*
G75*
G02*
X110922500Y-85810000I-147500J0D01*
G01*
G37*
G36*
G01*
X110922500Y-86780000D02*
X110577500Y-86780000D01*
G75*
G02*
X110430000Y-86632500I0J147500D01*
G01*
X110430000Y-86337500D01*
G75*
G02*
X110577500Y-86190000I147500J0D01*
G01*
X110922500Y-86190000D01*
G75*
G02*
X111070000Y-86337500I0J-147500D01*
G01*
X111070000Y-86632500D01*
G75*
G02*
X110922500Y-86780000I-147500J0D01*
G01*
G37*
%TD*%
D23*
%TO.C,Q1*%
X118800000Y-147000000D03*
X118800000Y-145100000D03*
X120900000Y-146050000D03*
%TD*%
%TO.C,Q2*%
X126400000Y-147000000D03*
X126400000Y-145100000D03*
X128500000Y-146050000D03*
%TD*%
%TO.C,Q6*%
X102750000Y-89350000D03*
X102750000Y-87450000D03*
X104850000Y-88400000D03*
%TD*%
%TO.C,R69*%
G36*
G01*
X154425255Y-93477500D02*
X154425255Y-93822500D01*
G75*
G02*
X154277755Y-93970000I-147500J0D01*
G01*
X153982755Y-93970000D01*
G75*
G02*
X153835255Y-93822500I0J147500D01*
G01*
X153835255Y-93477500D01*
G75*
G02*
X153982755Y-93330000I147500J0D01*
G01*
X154277755Y-93330000D01*
G75*
G02*
X154425255Y-93477500I0J-147500D01*
G01*
G37*
G36*
G01*
X155395255Y-93477500D02*
X155395255Y-93822500D01*
G75*
G02*
X155247755Y-93970000I-147500J0D01*
G01*
X154952755Y-93970000D01*
G75*
G02*
X154805255Y-93822500I0J147500D01*
G01*
X154805255Y-93477500D01*
G75*
G02*
X154952755Y-93330000I147500J0D01*
G01*
X155247755Y-93330000D01*
G75*
G02*
X155395255Y-93477500I0J-147500D01*
G01*
G37*
%TD*%
%TO.C,R70*%
G36*
G01*
X154819289Y-92847500D02*
X154819289Y-92502500D01*
G75*
G02*
X154966789Y-92355000I147500J0D01*
G01*
X155261789Y-92355000D01*
G75*
G02*
X155409289Y-92502500I0J-147500D01*
G01*
X155409289Y-92847500D01*
G75*
G02*
X155261789Y-92995000I-147500J0D01*
G01*
X154966789Y-92995000D01*
G75*
G02*
X154819289Y-92847500I0J147500D01*
G01*
G37*
G36*
G01*
X153849289Y-92847500D02*
X153849289Y-92502500D01*
G75*
G02*
X153996789Y-92355000I147500J0D01*
G01*
X154291789Y-92355000D01*
G75*
G02*
X154439289Y-92502500I0J-147500D01*
G01*
X154439289Y-92847500D01*
G75*
G02*
X154291789Y-92995000I-147500J0D01*
G01*
X153996789Y-92995000D01*
G75*
G02*
X153849289Y-92847500I0J147500D01*
G01*
G37*
%TD*%
%TO.C,R16*%
G36*
G01*
X122977500Y-146740000D02*
X123322500Y-146740000D01*
G75*
G02*
X123470000Y-146887500I0J-147500D01*
G01*
X123470000Y-147182500D01*
G75*
G02*
X123322500Y-147330000I-147500J0D01*
G01*
X122977500Y-147330000D01*
G75*
G02*
X122830000Y-147182500I0J147500D01*
G01*
X122830000Y-146887500D01*
G75*
G02*
X122977500Y-146740000I147500J0D01*
G01*
G37*
G36*
G01*
X122977500Y-145770000D02*
X123322500Y-145770000D01*
G75*
G02*
X123470000Y-145917500I0J-147500D01*
G01*
X123470000Y-146212500D01*
G75*
G02*
X123322500Y-146360000I-147500J0D01*
G01*
X122977500Y-146360000D01*
G75*
G02*
X122830000Y-146212500I0J147500D01*
G01*
X122830000Y-145917500D01*
G75*
G02*
X122977500Y-145770000I147500J0D01*
G01*
G37*
%TD*%
%TO.C,R133*%
G36*
G01*
X143197500Y-80285000D02*
X142852500Y-80285000D01*
G75*
G02*
X142705000Y-80137500I0J147500D01*
G01*
X142705000Y-79842500D01*
G75*
G02*
X142852500Y-79695000I147500J0D01*
G01*
X143197500Y-79695000D01*
G75*
G02*
X143345000Y-79842500I0J-147500D01*
G01*
X143345000Y-80137500D01*
G75*
G02*
X143197500Y-80285000I-147500J0D01*
G01*
G37*
G36*
G01*
X143197500Y-81255000D02*
X142852500Y-81255000D01*
G75*
G02*
X142705000Y-81107500I0J147500D01*
G01*
X142705000Y-80812500D01*
G75*
G02*
X142852500Y-80665000I147500J0D01*
G01*
X143197500Y-80665000D01*
G75*
G02*
X143345000Y-80812500I0J-147500D01*
G01*
X143345000Y-81107500D01*
G75*
G02*
X143197500Y-81255000I-147500J0D01*
G01*
G37*
%TD*%
%TO.C,R134*%
G36*
G01*
X142410000Y-78627500D02*
X142410000Y-78972500D01*
G75*
G02*
X142262500Y-79120000I-147500J0D01*
G01*
X141967500Y-79120000D01*
G75*
G02*
X141820000Y-78972500I0J147500D01*
G01*
X141820000Y-78627500D01*
G75*
G02*
X141967500Y-78480000I147500J0D01*
G01*
X142262500Y-78480000D01*
G75*
G02*
X142410000Y-78627500I0J-147500D01*
G01*
G37*
G36*
G01*
X143380000Y-78627500D02*
X143380000Y-78972500D01*
G75*
G02*
X143232500Y-79120000I-147500J0D01*
G01*
X142937500Y-79120000D01*
G75*
G02*
X142790000Y-78972500I0J147500D01*
G01*
X142790000Y-78627500D01*
G75*
G02*
X142937500Y-78480000I147500J0D01*
G01*
X143232500Y-78480000D01*
G75*
G02*
X143380000Y-78627500I0J-147500D01*
G01*
G37*
%TD*%
%TO.C,R17*%
G36*
G01*
X122027500Y-146740000D02*
X122372500Y-146740000D01*
G75*
G02*
X122520000Y-146887500I0J-147500D01*
G01*
X122520000Y-147182500D01*
G75*
G02*
X122372500Y-147330000I-147500J0D01*
G01*
X122027500Y-147330000D01*
G75*
G02*
X121880000Y-147182500I0J147500D01*
G01*
X121880000Y-146887500D01*
G75*
G02*
X122027500Y-146740000I147500J0D01*
G01*
G37*
G36*
G01*
X122027500Y-145770000D02*
X122372500Y-145770000D01*
G75*
G02*
X122520000Y-145917500I0J-147500D01*
G01*
X122520000Y-146212500D01*
G75*
G02*
X122372500Y-146360000I-147500J0D01*
G01*
X122027500Y-146360000D01*
G75*
G02*
X121880000Y-146212500I0J147500D01*
G01*
X121880000Y-145917500D01*
G75*
G02*
X122027500Y-145770000I147500J0D01*
G01*
G37*
%TD*%
%TO.C,R92*%
G36*
G01*
X111027500Y-139855000D02*
X111372500Y-139855000D01*
G75*
G02*
X111520000Y-140002500I0J-147500D01*
G01*
X111520000Y-140297500D01*
G75*
G02*
X111372500Y-140445000I-147500J0D01*
G01*
X111027500Y-140445000D01*
G75*
G02*
X110880000Y-140297500I0J147500D01*
G01*
X110880000Y-140002500D01*
G75*
G02*
X111027500Y-139855000I147500J0D01*
G01*
G37*
G36*
G01*
X111027500Y-138885000D02*
X111372500Y-138885000D01*
G75*
G02*
X111520000Y-139032500I0J-147500D01*
G01*
X111520000Y-139327500D01*
G75*
G02*
X111372500Y-139475000I-147500J0D01*
G01*
X111027500Y-139475000D01*
G75*
G02*
X110880000Y-139327500I0J147500D01*
G01*
X110880000Y-139032500D01*
G75*
G02*
X111027500Y-138885000I147500J0D01*
G01*
G37*
%TD*%
%TO.C,R94*%
G36*
G01*
X111840000Y-138422500D02*
X111840000Y-138077500D01*
G75*
G02*
X111987500Y-137930000I147500J0D01*
G01*
X112282500Y-137930000D01*
G75*
G02*
X112430000Y-138077500I0J-147500D01*
G01*
X112430000Y-138422500D01*
G75*
G02*
X112282500Y-138570000I-147500J0D01*
G01*
X111987500Y-138570000D01*
G75*
G02*
X111840000Y-138422500I0J147500D01*
G01*
G37*
G36*
G01*
X110870000Y-138422500D02*
X110870000Y-138077500D01*
G75*
G02*
X111017500Y-137930000I147500J0D01*
G01*
X111312500Y-137930000D01*
G75*
G02*
X111460000Y-138077500I0J-147500D01*
G01*
X111460000Y-138422500D01*
G75*
G02*
X111312500Y-138570000I-147500J0D01*
G01*
X111017500Y-138570000D01*
G75*
G02*
X110870000Y-138422500I0J147500D01*
G01*
G37*
%TD*%
%TO.C,R102*%
G36*
G01*
X148422500Y-114755000D02*
X148077500Y-114755000D01*
G75*
G02*
X147930000Y-114607500I0J147500D01*
G01*
X147930000Y-114312500D01*
G75*
G02*
X148077500Y-114165000I147500J0D01*
G01*
X148422500Y-114165000D01*
G75*
G02*
X148570000Y-114312500I0J-147500D01*
G01*
X148570000Y-114607500D01*
G75*
G02*
X148422500Y-114755000I-147500J0D01*
G01*
G37*
G36*
G01*
X148422500Y-115725000D02*
X148077500Y-115725000D01*
G75*
G02*
X147930000Y-115577500I0J147500D01*
G01*
X147930000Y-115282500D01*
G75*
G02*
X148077500Y-115135000I147500J0D01*
G01*
X148422500Y-115135000D01*
G75*
G02*
X148570000Y-115282500I0J-147500D01*
G01*
X148570000Y-115577500D01*
G75*
G02*
X148422500Y-115725000I-147500J0D01*
G01*
G37*
%TD*%
%TO.C,R67*%
G36*
G01*
X150695000Y-92577500D02*
X150695000Y-92922500D01*
G75*
G02*
X150547500Y-93070000I-147500J0D01*
G01*
X150252500Y-93070000D01*
G75*
G02*
X150105000Y-92922500I0J147500D01*
G01*
X150105000Y-92577500D01*
G75*
G02*
X150252500Y-92430000I147500J0D01*
G01*
X150547500Y-92430000D01*
G75*
G02*
X150695000Y-92577500I0J-147500D01*
G01*
G37*
G36*
G01*
X151665000Y-92577500D02*
X151665000Y-92922500D01*
G75*
G02*
X151517500Y-93070000I-147500J0D01*
G01*
X151222500Y-93070000D01*
G75*
G02*
X151075000Y-92922500I0J147500D01*
G01*
X151075000Y-92577500D01*
G75*
G02*
X151222500Y-92430000I147500J0D01*
G01*
X151517500Y-92430000D01*
G75*
G02*
X151665000Y-92577500I0J-147500D01*
G01*
G37*
%TD*%
%TO.C,R68*%
G36*
G01*
X151090000Y-93872500D02*
X151090000Y-93527500D01*
G75*
G02*
X151237500Y-93380000I147500J0D01*
G01*
X151532500Y-93380000D01*
G75*
G02*
X151680000Y-93527500I0J-147500D01*
G01*
X151680000Y-93872500D01*
G75*
G02*
X151532500Y-94020000I-147500J0D01*
G01*
X151237500Y-94020000D01*
G75*
G02*
X151090000Y-93872500I0J147500D01*
G01*
G37*
G36*
G01*
X150120000Y-93872500D02*
X150120000Y-93527500D01*
G75*
G02*
X150267500Y-93380000I147500J0D01*
G01*
X150562500Y-93380000D01*
G75*
G02*
X150710000Y-93527500I0J-147500D01*
G01*
X150710000Y-93872500D01*
G75*
G02*
X150562500Y-94020000I-147500J0D01*
G01*
X150267500Y-94020000D01*
G75*
G02*
X150120000Y-93872500I0J147500D01*
G01*
G37*
%TD*%
%TO.C,R89*%
G36*
G01*
X109477500Y-139855000D02*
X109822500Y-139855000D01*
G75*
G02*
X109970000Y-140002500I0J-147500D01*
G01*
X109970000Y-140297500D01*
G75*
G02*
X109822500Y-140445000I-147500J0D01*
G01*
X109477500Y-140445000D01*
G75*
G02*
X109330000Y-140297500I0J147500D01*
G01*
X109330000Y-140002500D01*
G75*
G02*
X109477500Y-139855000I147500J0D01*
G01*
G37*
G36*
G01*
X109477500Y-138885000D02*
X109822500Y-138885000D01*
G75*
G02*
X109970000Y-139032500I0J-147500D01*
G01*
X109970000Y-139327500D01*
G75*
G02*
X109822500Y-139475000I-147500J0D01*
G01*
X109477500Y-139475000D01*
G75*
G02*
X109330000Y-139327500I0J147500D01*
G01*
X109330000Y-139032500D01*
G75*
G02*
X109477500Y-138885000I147500J0D01*
G01*
G37*
%TD*%
%TO.C,R87*%
G36*
G01*
X110572500Y-142210000D02*
X110227500Y-142210000D01*
G75*
G02*
X110080000Y-142062500I0J147500D01*
G01*
X110080000Y-141767500D01*
G75*
G02*
X110227500Y-141620000I147500J0D01*
G01*
X110572500Y-141620000D01*
G75*
G02*
X110720000Y-141767500I0J-147500D01*
G01*
X110720000Y-142062500D01*
G75*
G02*
X110572500Y-142210000I-147500J0D01*
G01*
G37*
G36*
G01*
X110572500Y-143180000D02*
X110227500Y-143180000D01*
G75*
G02*
X110080000Y-143032500I0J147500D01*
G01*
X110080000Y-142737500D01*
G75*
G02*
X110227500Y-142590000I147500J0D01*
G01*
X110572500Y-142590000D01*
G75*
G02*
X110720000Y-142737500I0J-147500D01*
G01*
X110720000Y-143032500D01*
G75*
G02*
X110572500Y-143180000I-147500J0D01*
G01*
G37*
%TD*%
%TO.C,R83*%
G36*
G01*
X100810000Y-87277500D02*
X100810000Y-87622500D01*
G75*
G02*
X100662500Y-87770000I-147500J0D01*
G01*
X100367500Y-87770000D01*
G75*
G02*
X100220000Y-87622500I0J147500D01*
G01*
X100220000Y-87277500D01*
G75*
G02*
X100367500Y-87130000I147500J0D01*
G01*
X100662500Y-87130000D01*
G75*
G02*
X100810000Y-87277500I0J-147500D01*
G01*
G37*
G36*
G01*
X101780000Y-87277500D02*
X101780000Y-87622500D01*
G75*
G02*
X101632500Y-87770000I-147500J0D01*
G01*
X101337500Y-87770000D01*
G75*
G02*
X101190000Y-87622500I0J147500D01*
G01*
X101190000Y-87277500D01*
G75*
G02*
X101337500Y-87130000I147500J0D01*
G01*
X101632500Y-87130000D01*
G75*
G02*
X101780000Y-87277500I0J-147500D01*
G01*
G37*
%TD*%
%TO.C,R33*%
G36*
G01*
X102040000Y-133672500D02*
X102040000Y-133327500D01*
G75*
G02*
X102187500Y-133180000I147500J0D01*
G01*
X102482500Y-133180000D01*
G75*
G02*
X102630000Y-133327500I0J-147500D01*
G01*
X102630000Y-133672500D01*
G75*
G02*
X102482500Y-133820000I-147500J0D01*
G01*
X102187500Y-133820000D01*
G75*
G02*
X102040000Y-133672500I0J147500D01*
G01*
G37*
G36*
G01*
X101070000Y-133672500D02*
X101070000Y-133327500D01*
G75*
G02*
X101217500Y-133180000I147500J0D01*
G01*
X101512500Y-133180000D01*
G75*
G02*
X101660000Y-133327500I0J-147500D01*
G01*
X101660000Y-133672500D01*
G75*
G02*
X101512500Y-133820000I-147500J0D01*
G01*
X101217500Y-133820000D01*
G75*
G02*
X101070000Y-133672500I0J147500D01*
G01*
G37*
%TD*%
%TO.C,R34*%
G36*
G01*
X102040000Y-135372500D02*
X102040000Y-135027500D01*
G75*
G02*
X102187500Y-134880000I147500J0D01*
G01*
X102482500Y-134880000D01*
G75*
G02*
X102630000Y-135027500I0J-147500D01*
G01*
X102630000Y-135372500D01*
G75*
G02*
X102482500Y-135520000I-147500J0D01*
G01*
X102187500Y-135520000D01*
G75*
G02*
X102040000Y-135372500I0J147500D01*
G01*
G37*
G36*
G01*
X101070000Y-135372500D02*
X101070000Y-135027500D01*
G75*
G02*
X101217500Y-134880000I147500J0D01*
G01*
X101512500Y-134880000D01*
G75*
G02*
X101660000Y-135027500I0J-147500D01*
G01*
X101660000Y-135372500D01*
G75*
G02*
X101512500Y-135520000I-147500J0D01*
G01*
X101217500Y-135520000D01*
G75*
G02*
X101070000Y-135372500I0J147500D01*
G01*
G37*
%TD*%
%TO.C,R35*%
G36*
G01*
X102040000Y-136222500D02*
X102040000Y-135877500D01*
G75*
G02*
X102187500Y-135730000I147500J0D01*
G01*
X102482500Y-135730000D01*
G75*
G02*
X102630000Y-135877500I0J-147500D01*
G01*
X102630000Y-136222500D01*
G75*
G02*
X102482500Y-136370000I-147500J0D01*
G01*
X102187500Y-136370000D01*
G75*
G02*
X102040000Y-136222500I0J147500D01*
G01*
G37*
G36*
G01*
X101070000Y-136222500D02*
X101070000Y-135877500D01*
G75*
G02*
X101217500Y-135730000I147500J0D01*
G01*
X101512500Y-135730000D01*
G75*
G02*
X101660000Y-135877500I0J-147500D01*
G01*
X101660000Y-136222500D01*
G75*
G02*
X101512500Y-136370000I-147500J0D01*
G01*
X101217500Y-136370000D01*
G75*
G02*
X101070000Y-136222500I0J147500D01*
G01*
G37*
%TD*%
%TO.C,R86*%
G36*
G01*
X94402500Y-147150000D02*
X94747500Y-147150000D01*
G75*
G02*
X94895000Y-147297500I0J-147500D01*
G01*
X94895000Y-147592500D01*
G75*
G02*
X94747500Y-147740000I-147500J0D01*
G01*
X94402500Y-147740000D01*
G75*
G02*
X94255000Y-147592500I0J147500D01*
G01*
X94255000Y-147297500D01*
G75*
G02*
X94402500Y-147150000I147500J0D01*
G01*
G37*
G36*
G01*
X94402500Y-146180000D02*
X94747500Y-146180000D01*
G75*
G02*
X94895000Y-146327500I0J-147500D01*
G01*
X94895000Y-146622500D01*
G75*
G02*
X94747500Y-146770000I-147500J0D01*
G01*
X94402500Y-146770000D01*
G75*
G02*
X94255000Y-146622500I0J147500D01*
G01*
X94255000Y-146327500D01*
G75*
G02*
X94402500Y-146180000I147500J0D01*
G01*
G37*
%TD*%
%TO.C,R88*%
G36*
G01*
X110760000Y-144027500D02*
X110760000Y-144372500D01*
G75*
G02*
X110612500Y-144520000I-147500J0D01*
G01*
X110317500Y-144520000D01*
G75*
G02*
X110170000Y-144372500I0J147500D01*
G01*
X110170000Y-144027500D01*
G75*
G02*
X110317500Y-143880000I147500J0D01*
G01*
X110612500Y-143880000D01*
G75*
G02*
X110760000Y-144027500I0J-147500D01*
G01*
G37*
G36*
G01*
X111730000Y-144027500D02*
X111730000Y-144372500D01*
G75*
G02*
X111582500Y-144520000I-147500J0D01*
G01*
X111287500Y-144520000D01*
G75*
G02*
X111140000Y-144372500I0J147500D01*
G01*
X111140000Y-144027500D01*
G75*
G02*
X111287500Y-143880000I147500J0D01*
G01*
X111582500Y-143880000D01*
G75*
G02*
X111730000Y-144027500I0J-147500D01*
G01*
G37*
%TD*%
%TO.C,R128*%
G36*
G01*
X141125000Y-84017500D02*
X141125000Y-84362500D01*
G75*
G02*
X140977500Y-84510000I-147500J0D01*
G01*
X140682500Y-84510000D01*
G75*
G02*
X140535000Y-84362500I0J147500D01*
G01*
X140535000Y-84017500D01*
G75*
G02*
X140682500Y-83870000I147500J0D01*
G01*
X140977500Y-83870000D01*
G75*
G02*
X141125000Y-84017500I0J-147500D01*
G01*
G37*
G36*
G01*
X142095000Y-84017500D02*
X142095000Y-84362500D01*
G75*
G02*
X141947500Y-84510000I-147500J0D01*
G01*
X141652500Y-84510000D01*
G75*
G02*
X141505000Y-84362500I0J147500D01*
G01*
X141505000Y-84017500D01*
G75*
G02*
X141652500Y-83870000I147500J0D01*
G01*
X141947500Y-83870000D01*
G75*
G02*
X142095000Y-84017500I0J-147500D01*
G01*
G37*
%TD*%
D24*
%TO.C,U50*%
X141824999Y-81925001D03*
X139224999Y-81925001D03*
X141824999Y-80975001D03*
X141824999Y-80025001D03*
X139224999Y-80975001D03*
X139224999Y-80025001D03*
%TD*%
%TO.C,U2*%
G36*
G01*
X94650000Y-77575000D02*
X94450000Y-77575000D01*
G75*
G02*
X94350000Y-77475000I0J100000D01*
G01*
X94350000Y-76200000D01*
G75*
G02*
X94450000Y-76100000I100000J0D01*
G01*
X94650000Y-76100000D01*
G75*
G02*
X94750000Y-76200000I0J-100000D01*
G01*
X94750000Y-77475000D01*
G75*
G02*
X94650000Y-77575000I-100000J0D01*
G01*
G37*
G36*
G01*
X94000000Y-77575000D02*
X93800000Y-77575000D01*
G75*
G02*
X93700000Y-77475000I0J100000D01*
G01*
X93700000Y-76200000D01*
G75*
G02*
X93800000Y-76100000I100000J0D01*
G01*
X94000000Y-76100000D01*
G75*
G02*
X94100000Y-76200000I0J-100000D01*
G01*
X94100000Y-77475000D01*
G75*
G02*
X94000000Y-77575000I-100000J0D01*
G01*
G37*
G36*
G01*
X93350000Y-77575000D02*
X93150000Y-77575000D01*
G75*
G02*
X93050000Y-77475000I0J100000D01*
G01*
X93050000Y-76200000D01*
G75*
G02*
X93150000Y-76100000I100000J0D01*
G01*
X93350000Y-76100000D01*
G75*
G02*
X93450000Y-76200000I0J-100000D01*
G01*
X93450000Y-77475000D01*
G75*
G02*
X93350000Y-77575000I-100000J0D01*
G01*
G37*
G36*
G01*
X92700000Y-77575000D02*
X92500000Y-77575000D01*
G75*
G02*
X92400000Y-77475000I0J100000D01*
G01*
X92400000Y-76200000D01*
G75*
G02*
X92500000Y-76100000I100000J0D01*
G01*
X92700000Y-76100000D01*
G75*
G02*
X92800000Y-76200000I0J-100000D01*
G01*
X92800000Y-77475000D01*
G75*
G02*
X92700000Y-77575000I-100000J0D01*
G01*
G37*
G36*
G01*
X92050000Y-77575000D02*
X91850000Y-77575000D01*
G75*
G02*
X91750000Y-77475000I0J100000D01*
G01*
X91750000Y-76200000D01*
G75*
G02*
X91850000Y-76100000I100000J0D01*
G01*
X92050000Y-76100000D01*
G75*
G02*
X92150000Y-76200000I0J-100000D01*
G01*
X92150000Y-77475000D01*
G75*
G02*
X92050000Y-77575000I-100000J0D01*
G01*
G37*
G36*
G01*
X91400000Y-77575000D02*
X91200000Y-77575000D01*
G75*
G02*
X91100000Y-77475000I0J100000D01*
G01*
X91100000Y-76200000D01*
G75*
G02*
X91200000Y-76100000I100000J0D01*
G01*
X91400000Y-76100000D01*
G75*
G02*
X91500000Y-76200000I0J-100000D01*
G01*
X91500000Y-77475000D01*
G75*
G02*
X91400000Y-77575000I-100000J0D01*
G01*
G37*
G36*
G01*
X90750000Y-77575000D02*
X90550000Y-77575000D01*
G75*
G02*
X90450000Y-77475000I0J100000D01*
G01*
X90450000Y-76200000D01*
G75*
G02*
X90550000Y-76100000I100000J0D01*
G01*
X90750000Y-76100000D01*
G75*
G02*
X90850000Y-76200000I0J-100000D01*
G01*
X90850000Y-77475000D01*
G75*
G02*
X90750000Y-77575000I-100000J0D01*
G01*
G37*
G36*
G01*
X90750000Y-83300000D02*
X90550000Y-83300000D01*
G75*
G02*
X90450000Y-83200000I0J100000D01*
G01*
X90450000Y-81925000D01*
G75*
G02*
X90550000Y-81825000I100000J0D01*
G01*
X90750000Y-81825000D01*
G75*
G02*
X90850000Y-81925000I0J-100000D01*
G01*
X90850000Y-83200000D01*
G75*
G02*
X90750000Y-83300000I-100000J0D01*
G01*
G37*
G36*
G01*
X91400000Y-83300000D02*
X91200000Y-83300000D01*
G75*
G02*
X91100000Y-83200000I0J100000D01*
G01*
X91100000Y-81925000D01*
G75*
G02*
X91200000Y-81825000I100000J0D01*
G01*
X91400000Y-81825000D01*
G75*
G02*
X91500000Y-81925000I0J-100000D01*
G01*
X91500000Y-83200000D01*
G75*
G02*
X91400000Y-83300000I-100000J0D01*
G01*
G37*
G36*
G01*
X92050000Y-83300000D02*
X91850000Y-83300000D01*
G75*
G02*
X91750000Y-83200000I0J100000D01*
G01*
X91750000Y-81925000D01*
G75*
G02*
X91850000Y-81825000I100000J0D01*
G01*
X92050000Y-81825000D01*
G75*
G02*
X92150000Y-81925000I0J-100000D01*
G01*
X92150000Y-83200000D01*
G75*
G02*
X92050000Y-83300000I-100000J0D01*
G01*
G37*
G36*
G01*
X92700000Y-83300000D02*
X92500000Y-83300000D01*
G75*
G02*
X92400000Y-83200000I0J100000D01*
G01*
X92400000Y-81925000D01*
G75*
G02*
X92500000Y-81825000I100000J0D01*
G01*
X92700000Y-81825000D01*
G75*
G02*
X92800000Y-81925000I0J-100000D01*
G01*
X92800000Y-83200000D01*
G75*
G02*
X92700000Y-83300000I-100000J0D01*
G01*
G37*
G36*
G01*
X93350000Y-83300000D02*
X93150000Y-83300000D01*
G75*
G02*
X93050000Y-83200000I0J100000D01*
G01*
X93050000Y-81925000D01*
G75*
G02*
X93150000Y-81825000I100000J0D01*
G01*
X93350000Y-81825000D01*
G75*
G02*
X93450000Y-81925000I0J-100000D01*
G01*
X93450000Y-83200000D01*
G75*
G02*
X93350000Y-83300000I-100000J0D01*
G01*
G37*
G36*
G01*
X94000000Y-83300000D02*
X93800000Y-83300000D01*
G75*
G02*
X93700000Y-83200000I0J100000D01*
G01*
X93700000Y-81925000D01*
G75*
G02*
X93800000Y-81825000I100000J0D01*
G01*
X94000000Y-81825000D01*
G75*
G02*
X94100000Y-81925000I0J-100000D01*
G01*
X94100000Y-83200000D01*
G75*
G02*
X94000000Y-83300000I-100000J0D01*
G01*
G37*
G36*
G01*
X94650000Y-83300000D02*
X94450000Y-83300000D01*
G75*
G02*
X94350000Y-83200000I0J100000D01*
G01*
X94350000Y-81925000D01*
G75*
G02*
X94450000Y-81825000I100000J0D01*
G01*
X94650000Y-81825000D01*
G75*
G02*
X94750000Y-81925000I0J-100000D01*
G01*
X94750000Y-83200000D01*
G75*
G02*
X94650000Y-83300000I-100000J0D01*
G01*
G37*
%TD*%
D25*
%TO.C,U27*%
X115220000Y-73460000D03*
X115720000Y-73460000D03*
X116220000Y-73460000D03*
X116220000Y-74960000D03*
X115720000Y-74960000D03*
X115220000Y-74960000D03*
%TD*%
%TO.C,U20*%
X134603449Y-73421573D03*
X135103449Y-73421573D03*
X135603449Y-73421573D03*
X135603449Y-74921573D03*
X135103449Y-74921573D03*
X134603449Y-74921573D03*
%TD*%
%TO.C,C29*%
G36*
G01*
X85490000Y-122072500D02*
X85490000Y-121727500D01*
G75*
G02*
X85637500Y-121580000I147500J0D01*
G01*
X85932500Y-121580000D01*
G75*
G02*
X86080000Y-121727500I0J-147500D01*
G01*
X86080000Y-122072500D01*
G75*
G02*
X85932500Y-122220000I-147500J0D01*
G01*
X85637500Y-122220000D01*
G75*
G02*
X85490000Y-122072500I0J147500D01*
G01*
G37*
G36*
G01*
X84520000Y-122072500D02*
X84520000Y-121727500D01*
G75*
G02*
X84667500Y-121580000I147500J0D01*
G01*
X84962500Y-121580000D01*
G75*
G02*
X85110000Y-121727500I0J-147500D01*
G01*
X85110000Y-122072500D01*
G75*
G02*
X84962500Y-122220000I-147500J0D01*
G01*
X84667500Y-122220000D01*
G75*
G02*
X84520000Y-122072500I0J147500D01*
G01*
G37*
%TD*%
%TO.C,R23*%
G36*
G01*
X85110000Y-122627500D02*
X85110000Y-122972500D01*
G75*
G02*
X84962500Y-123120000I-147500J0D01*
G01*
X84667500Y-123120000D01*
G75*
G02*
X84520000Y-122972500I0J147500D01*
G01*
X84520000Y-122627500D01*
G75*
G02*
X84667500Y-122480000I147500J0D01*
G01*
X84962500Y-122480000D01*
G75*
G02*
X85110000Y-122627500I0J-147500D01*
G01*
G37*
G36*
G01*
X86080000Y-122627500D02*
X86080000Y-122972500D01*
G75*
G02*
X85932500Y-123120000I-147500J0D01*
G01*
X85637500Y-123120000D01*
G75*
G02*
X85490000Y-122972500I0J147500D01*
G01*
X85490000Y-122627500D01*
G75*
G02*
X85637500Y-122480000I147500J0D01*
G01*
X85932500Y-122480000D01*
G75*
G02*
X86080000Y-122627500I0J-147500D01*
G01*
G37*
%TD*%
%TO.C,R24*%
G36*
G01*
X85110000Y-123527500D02*
X85110000Y-123872500D01*
G75*
G02*
X84962500Y-124020000I-147500J0D01*
G01*
X84667500Y-124020000D01*
G75*
G02*
X84520000Y-123872500I0J147500D01*
G01*
X84520000Y-123527500D01*
G75*
G02*
X84667500Y-123380000I147500J0D01*
G01*
X84962500Y-123380000D01*
G75*
G02*
X85110000Y-123527500I0J-147500D01*
G01*
G37*
G36*
G01*
X86080000Y-123527500D02*
X86080000Y-123872500D01*
G75*
G02*
X85932500Y-124020000I-147500J0D01*
G01*
X85637500Y-124020000D01*
G75*
G02*
X85490000Y-123872500I0J147500D01*
G01*
X85490000Y-123527500D01*
G75*
G02*
X85637500Y-123380000I147500J0D01*
G01*
X85932500Y-123380000D01*
G75*
G02*
X86080000Y-123527500I0J-147500D01*
G01*
G37*
%TD*%
%TO.C,U1*%
G36*
G01*
X94303400Y-87550000D02*
X94096600Y-87550000D01*
G75*
G02*
X94090000Y-87543400I0J6600D01*
G01*
X94090000Y-86746600D01*
G75*
G02*
X94096600Y-86740000I6600J0D01*
G01*
X94303400Y-86740000D01*
G75*
G02*
X94310000Y-86746600I0J-6600D01*
G01*
X94310000Y-87543400D01*
G75*
G02*
X94303400Y-87550000I-6600J0D01*
G01*
G37*
G36*
G01*
X93903400Y-87550000D02*
X93696600Y-87550000D01*
G75*
G02*
X93690000Y-87543400I0J6600D01*
G01*
X93690000Y-86746600D01*
G75*
G02*
X93696600Y-86740000I6600J0D01*
G01*
X93903400Y-86740000D01*
G75*
G02*
X93910000Y-86746600I0J-6600D01*
G01*
X93910000Y-87543400D01*
G75*
G02*
X93903400Y-87550000I-6600J0D01*
G01*
G37*
G36*
G01*
X93503400Y-87550000D02*
X93296600Y-87550000D01*
G75*
G02*
X93290000Y-87543400I0J6600D01*
G01*
X93290000Y-86746600D01*
G75*
G02*
X93296600Y-86740000I6600J0D01*
G01*
X93503400Y-86740000D01*
G75*
G02*
X93510000Y-86746600I0J-6600D01*
G01*
X93510000Y-87543400D01*
G75*
G02*
X93503400Y-87550000I-6600J0D01*
G01*
G37*
G36*
G01*
X93103400Y-87550000D02*
X92896600Y-87550000D01*
G75*
G02*
X92890000Y-87543400I0J6600D01*
G01*
X92890000Y-86746600D01*
G75*
G02*
X92896600Y-86740000I6600J0D01*
G01*
X93103400Y-86740000D01*
G75*
G02*
X93110000Y-86746600I0J-6600D01*
G01*
X93110000Y-87543400D01*
G75*
G02*
X93103400Y-87550000I-6600J0D01*
G01*
G37*
G36*
G01*
X93103400Y-85060000D02*
X92896600Y-85060000D01*
G75*
G02*
X92890000Y-85053400I0J6600D01*
G01*
X92890000Y-84256600D01*
G75*
G02*
X92896600Y-84250000I6600J0D01*
G01*
X93103400Y-84250000D01*
G75*
G02*
X93110000Y-84256600I0J-6600D01*
G01*
X93110000Y-85053400D01*
G75*
G02*
X93103400Y-85060000I-6600J0D01*
G01*
G37*
G36*
G01*
X93503400Y-85060000D02*
X93296600Y-85060000D01*
G75*
G02*
X93290000Y-85053400I0J6600D01*
G01*
X93290000Y-84256600D01*
G75*
G02*
X93296600Y-84250000I6600J0D01*
G01*
X93503400Y-84250000D01*
G75*
G02*
X93510000Y-84256600I0J-6600D01*
G01*
X93510000Y-85053400D01*
G75*
G02*
X93503400Y-85060000I-6600J0D01*
G01*
G37*
G36*
G01*
X93903400Y-85060000D02*
X93696600Y-85060000D01*
G75*
G02*
X93690000Y-85053400I0J6600D01*
G01*
X93690000Y-84256600D01*
G75*
G02*
X93696600Y-84250000I6600J0D01*
G01*
X93903400Y-84250000D01*
G75*
G02*
X93910000Y-84256600I0J-6600D01*
G01*
X93910000Y-85053400D01*
G75*
G02*
X93903400Y-85060000I-6600J0D01*
G01*
G37*
G36*
G01*
X94303400Y-85060000D02*
X94096600Y-85060000D01*
G75*
G02*
X94090000Y-85053400I0J6600D01*
G01*
X94090000Y-84256600D01*
G75*
G02*
X94096600Y-84250000I6600J0D01*
G01*
X94303400Y-84250000D01*
G75*
G02*
X94310000Y-84256600I0J-6600D01*
G01*
X94310000Y-85053400D01*
G75*
G02*
X94303400Y-85060000I-6600J0D01*
G01*
G37*
G36*
G01*
X94850000Y-85196600D02*
X94850000Y-85403400D01*
G75*
G02*
X94843400Y-85410000I-6600J0D01*
G01*
X93946600Y-85410000D01*
G75*
G02*
X93940000Y-85403400I0J6600D01*
G01*
X93940000Y-85196600D01*
G75*
G02*
X93946600Y-85190000I6600J0D01*
G01*
X94843400Y-85190000D01*
G75*
G02*
X94850000Y-85196600I0J-6600D01*
G01*
G37*
G36*
G01*
X94850000Y-85596600D02*
X94850000Y-85803400D01*
G75*
G02*
X94843400Y-85810000I-6600J0D01*
G01*
X94046600Y-85810000D01*
G75*
G02*
X94040000Y-85803400I0J6600D01*
G01*
X94040000Y-85596600D01*
G75*
G02*
X94046600Y-85590000I6600J0D01*
G01*
X94843400Y-85590000D01*
G75*
G02*
X94850000Y-85596600I0J-6600D01*
G01*
G37*
G36*
G01*
X94850000Y-85996600D02*
X94850000Y-86203400D01*
G75*
G02*
X94843400Y-86210000I-6600J0D01*
G01*
X94046600Y-86210000D01*
G75*
G02*
X94040000Y-86203400I0J6600D01*
G01*
X94040000Y-85996600D01*
G75*
G02*
X94046600Y-85990000I6600J0D01*
G01*
X94843400Y-85990000D01*
G75*
G02*
X94850000Y-85996600I0J-6600D01*
G01*
G37*
G36*
G01*
X94850000Y-86396600D02*
X94850000Y-86603400D01*
G75*
G02*
X94843400Y-86610000I-6600J0D01*
G01*
X94046600Y-86610000D01*
G75*
G02*
X94040000Y-86603400I0J6600D01*
G01*
X94040000Y-86396600D01*
G75*
G02*
X94046600Y-86390000I6600J0D01*
G01*
X94843400Y-86390000D01*
G75*
G02*
X94850000Y-86396600I0J-6600D01*
G01*
G37*
G36*
G01*
X93160000Y-86396600D02*
X93160000Y-86603400D01*
G75*
G02*
X93153400Y-86610000I-6600J0D01*
G01*
X92356600Y-86610000D01*
G75*
G02*
X92350000Y-86603400I0J6600D01*
G01*
X92350000Y-86396600D01*
G75*
G02*
X92356600Y-86390000I6600J0D01*
G01*
X93153400Y-86390000D01*
G75*
G02*
X93160000Y-86396600I0J-6600D01*
G01*
G37*
G36*
G01*
X93160000Y-85996600D02*
X93160000Y-86203400D01*
G75*
G02*
X93153400Y-86210000I-6600J0D01*
G01*
X92356600Y-86210000D01*
G75*
G02*
X92350000Y-86203400I0J6600D01*
G01*
X92350000Y-85996600D01*
G75*
G02*
X92356600Y-85990000I6600J0D01*
G01*
X93153400Y-85990000D01*
G75*
G02*
X93160000Y-85996600I0J-6600D01*
G01*
G37*
G36*
G01*
X93160000Y-85596600D02*
X93160000Y-85803400D01*
G75*
G02*
X93153400Y-85810000I-6600J0D01*
G01*
X92356600Y-85810000D01*
G75*
G02*
X92350000Y-85803400I0J6600D01*
G01*
X92350000Y-85596600D01*
G75*
G02*
X92356600Y-85590000I6600J0D01*
G01*
X93153400Y-85590000D01*
G75*
G02*
X93160000Y-85596600I0J-6600D01*
G01*
G37*
G36*
G01*
X93160000Y-85196600D02*
X93160000Y-85403400D01*
G75*
G02*
X93153400Y-85410000I-6600J0D01*
G01*
X92356600Y-85410000D01*
G75*
G02*
X92350000Y-85403400I0J6600D01*
G01*
X92350000Y-85196600D01*
G75*
G02*
X92356600Y-85190000I6600J0D01*
G01*
X93153400Y-85190000D01*
G75*
G02*
X93160000Y-85196600I0J-6600D01*
G01*
G37*
%TD*%
%TO.C,C158*%
G36*
G01*
X152527500Y-110665000D02*
X152872500Y-110665000D01*
G75*
G02*
X153020000Y-110812500I0J-147500D01*
G01*
X153020000Y-111107500D01*
G75*
G02*
X152872500Y-111255000I-147500J0D01*
G01*
X152527500Y-111255000D01*
G75*
G02*
X152380000Y-111107500I0J147500D01*
G01*
X152380000Y-110812500D01*
G75*
G02*
X152527500Y-110665000I147500J0D01*
G01*
G37*
G36*
G01*
X152527500Y-109695000D02*
X152872500Y-109695000D01*
G75*
G02*
X153020000Y-109842500I0J-147500D01*
G01*
X153020000Y-110137500D01*
G75*
G02*
X152872500Y-110285000I-147500J0D01*
G01*
X152527500Y-110285000D01*
G75*
G02*
X152380000Y-110137500I0J147500D01*
G01*
X152380000Y-109842500D01*
G75*
G02*
X152527500Y-109695000I147500J0D01*
G01*
G37*
%TD*%
%TO.C,C159*%
G36*
G01*
X150527500Y-110665000D02*
X150872500Y-110665000D01*
G75*
G02*
X151020000Y-110812500I0J-147500D01*
G01*
X151020000Y-111107500D01*
G75*
G02*
X150872500Y-111255000I-147500J0D01*
G01*
X150527500Y-111255000D01*
G75*
G02*
X150380000Y-111107500I0J147500D01*
G01*
X150380000Y-110812500D01*
G75*
G02*
X150527500Y-110665000I147500J0D01*
G01*
G37*
G36*
G01*
X150527500Y-109695000D02*
X150872500Y-109695000D01*
G75*
G02*
X151020000Y-109842500I0J-147500D01*
G01*
X151020000Y-110137500D01*
G75*
G02*
X150872500Y-110285000I-147500J0D01*
G01*
X150527500Y-110285000D01*
G75*
G02*
X150380000Y-110137500I0J147500D01*
G01*
X150380000Y-109842500D01*
G75*
G02*
X150527500Y-109695000I147500J0D01*
G01*
G37*
%TD*%
D26*
%TO.C,P1*%
X124788559Y-130025000D03*
X124788559Y-120025000D03*
X124788559Y-114525000D03*
X132288559Y-115275000D03*
X132288559Y-129275000D03*
D27*
X131538559Y-111675000D03*
D26*
X124788559Y-126025000D03*
X132288559Y-125775000D03*
X132288559Y-119275000D03*
X124788559Y-121525000D03*
X124788559Y-119025000D03*
X124788559Y-117525000D03*
X132288559Y-113275000D03*
X132288559Y-119775000D03*
X132288559Y-129775000D03*
X124788559Y-116525000D03*
X124788559Y-121025000D03*
X132288559Y-123275000D03*
X124788559Y-113025000D03*
X132288559Y-127775000D03*
X132288559Y-128275000D03*
X124788559Y-120525000D03*
X124788559Y-129025000D03*
X132288559Y-121775000D03*
X132288559Y-121275000D03*
X124788559Y-115025000D03*
X124788559Y-115525000D03*
X132288559Y-116275000D03*
X124788559Y-122525000D03*
X132288559Y-130275000D03*
X124788559Y-123525000D03*
D27*
X131538559Y-132375000D03*
D26*
X124788559Y-123025000D03*
X132288559Y-122775000D03*
X124788559Y-117025000D03*
X124788559Y-130525000D03*
X132288559Y-120775000D03*
X124788559Y-114025000D03*
X132288559Y-131275000D03*
X124788559Y-131025000D03*
X132288559Y-130775000D03*
X124788559Y-118525000D03*
X132288559Y-118775000D03*
X132288559Y-112775000D03*
X132288559Y-114775000D03*
X124788559Y-118025000D03*
X124788559Y-116025000D03*
X124788559Y-122025000D03*
X132288559Y-122275000D03*
X124788559Y-129525000D03*
X132288559Y-115775000D03*
X132288559Y-118275000D03*
X124788559Y-126525000D03*
X124788559Y-127525000D03*
X124788559Y-128025000D03*
X132288559Y-126275000D03*
X132288559Y-113775000D03*
X132288559Y-128775000D03*
X124788559Y-113525000D03*
X132288559Y-116775000D03*
X132288559Y-126775000D03*
X132288559Y-117775000D03*
X124788559Y-128525000D03*
X124788559Y-119525000D03*
X132288559Y-114275000D03*
X132288559Y-120275000D03*
X132288559Y-117275000D03*
X124788559Y-127025000D03*
X132288559Y-127275000D03*
%TD*%
%TO.C,R96*%
G36*
G01*
X115510000Y-140927500D02*
X115510000Y-141272500D01*
G75*
G02*
X115362500Y-141420000I-147500J0D01*
G01*
X115067500Y-141420000D01*
G75*
G02*
X114920000Y-141272500I0J147500D01*
G01*
X114920000Y-140927500D01*
G75*
G02*
X115067500Y-140780000I147500J0D01*
G01*
X115362500Y-140780000D01*
G75*
G02*
X115510000Y-140927500I0J-147500D01*
G01*
G37*
G36*
G01*
X116480000Y-140927500D02*
X116480000Y-141272500D01*
G75*
G02*
X116332500Y-141420000I-147500J0D01*
G01*
X116037500Y-141420000D01*
G75*
G02*
X115890000Y-141272500I0J147500D01*
G01*
X115890000Y-140927500D01*
G75*
G02*
X116037500Y-140780000I147500J0D01*
G01*
X116332500Y-140780000D01*
G75*
G02*
X116480000Y-140927500I0J-147500D01*
G01*
G37*
%TD*%
%TO.C,R95*%
G36*
G01*
X115510000Y-138927500D02*
X115510000Y-139272500D01*
G75*
G02*
X115362500Y-139420000I-147500J0D01*
G01*
X115067500Y-139420000D01*
G75*
G02*
X114920000Y-139272500I0J147500D01*
G01*
X114920000Y-138927500D01*
G75*
G02*
X115067500Y-138780000I147500J0D01*
G01*
X115362500Y-138780000D01*
G75*
G02*
X115510000Y-138927500I0J-147500D01*
G01*
G37*
G36*
G01*
X116480000Y-138927500D02*
X116480000Y-139272500D01*
G75*
G02*
X116332500Y-139420000I-147500J0D01*
G01*
X116037500Y-139420000D01*
G75*
G02*
X115890000Y-139272500I0J147500D01*
G01*
X115890000Y-138927500D01*
G75*
G02*
X116037500Y-138780000I147500J0D01*
G01*
X116332500Y-138780000D01*
G75*
G02*
X116480000Y-138927500I0J-147500D01*
G01*
G37*
%TD*%
%TO.C,R90*%
G36*
G01*
X115495000Y-139927500D02*
X115495000Y-140272500D01*
G75*
G02*
X115347500Y-140420000I-147500J0D01*
G01*
X115052500Y-140420000D01*
G75*
G02*
X114905000Y-140272500I0J147500D01*
G01*
X114905000Y-139927500D01*
G75*
G02*
X115052500Y-139780000I147500J0D01*
G01*
X115347500Y-139780000D01*
G75*
G02*
X115495000Y-139927500I0J-147500D01*
G01*
G37*
G36*
G01*
X116465000Y-139927500D02*
X116465000Y-140272500D01*
G75*
G02*
X116317500Y-140420000I-147500J0D01*
G01*
X116022500Y-140420000D01*
G75*
G02*
X115875000Y-140272500I0J147500D01*
G01*
X115875000Y-139927500D01*
G75*
G02*
X116022500Y-139780000I147500J0D01*
G01*
X116317500Y-139780000D01*
G75*
G02*
X116465000Y-139927500I0J-147500D01*
G01*
G37*
%TD*%
%TO.C,R93*%
G36*
G01*
X115510000Y-142927500D02*
X115510000Y-143272500D01*
G75*
G02*
X115362500Y-143420000I-147500J0D01*
G01*
X115067500Y-143420000D01*
G75*
G02*
X114920000Y-143272500I0J147500D01*
G01*
X114920000Y-142927500D01*
G75*
G02*
X115067500Y-142780000I147500J0D01*
G01*
X115362500Y-142780000D01*
G75*
G02*
X115510000Y-142927500I0J-147500D01*
G01*
G37*
G36*
G01*
X116480000Y-142927500D02*
X116480000Y-143272500D01*
G75*
G02*
X116332500Y-143420000I-147500J0D01*
G01*
X116037500Y-143420000D01*
G75*
G02*
X115890000Y-143272500I0J147500D01*
G01*
X115890000Y-142927500D01*
G75*
G02*
X116037500Y-142780000I147500J0D01*
G01*
X116332500Y-142780000D01*
G75*
G02*
X116480000Y-142927500I0J-147500D01*
G01*
G37*
%TD*%
%TO.C,R91*%
G36*
G01*
X115510000Y-141927500D02*
X115510000Y-142272500D01*
G75*
G02*
X115362500Y-142420000I-147500J0D01*
G01*
X115067500Y-142420000D01*
G75*
G02*
X114920000Y-142272500I0J147500D01*
G01*
X114920000Y-141927500D01*
G75*
G02*
X115067500Y-141780000I147500J0D01*
G01*
X115362500Y-141780000D01*
G75*
G02*
X115510000Y-141927500I0J-147500D01*
G01*
G37*
G36*
G01*
X116480000Y-141927500D02*
X116480000Y-142272500D01*
G75*
G02*
X116332500Y-142420000I-147500J0D01*
G01*
X116037500Y-142420000D01*
G75*
G02*
X115890000Y-142272500I0J147500D01*
G01*
X115890000Y-141927500D01*
G75*
G02*
X116037500Y-141780000I147500J0D01*
G01*
X116332500Y-141780000D01*
G75*
G02*
X116480000Y-141927500I0J-147500D01*
G01*
G37*
%TD*%
%TO.C,C127*%
G36*
G01*
X92640000Y-129847500D02*
X92640000Y-129502500D01*
G75*
G02*
X92787500Y-129355000I147500J0D01*
G01*
X93082500Y-129355000D01*
G75*
G02*
X93230000Y-129502500I0J-147500D01*
G01*
X93230000Y-129847500D01*
G75*
G02*
X93082500Y-129995000I-147500J0D01*
G01*
X92787500Y-129995000D01*
G75*
G02*
X92640000Y-129847500I0J147500D01*
G01*
G37*
G36*
G01*
X91670000Y-129847500D02*
X91670000Y-129502500D01*
G75*
G02*
X91817500Y-129355000I147500J0D01*
G01*
X92112500Y-129355000D01*
G75*
G02*
X92260000Y-129502500I0J-147500D01*
G01*
X92260000Y-129847500D01*
G75*
G02*
X92112500Y-129995000I-147500J0D01*
G01*
X91817500Y-129995000D01*
G75*
G02*
X91670000Y-129847500I0J147500D01*
G01*
G37*
%TD*%
%TO.C,C128*%
G36*
G01*
X90410000Y-127602500D02*
X90410000Y-127947500D01*
G75*
G02*
X90262500Y-128095000I-147500J0D01*
G01*
X89967500Y-128095000D01*
G75*
G02*
X89820000Y-127947500I0J147500D01*
G01*
X89820000Y-127602500D01*
G75*
G02*
X89967500Y-127455000I147500J0D01*
G01*
X90262500Y-127455000D01*
G75*
G02*
X90410000Y-127602500I0J-147500D01*
G01*
G37*
G36*
G01*
X91380000Y-127602500D02*
X91380000Y-127947500D01*
G75*
G02*
X91232500Y-128095000I-147500J0D01*
G01*
X90937500Y-128095000D01*
G75*
G02*
X90790000Y-127947500I0J147500D01*
G01*
X90790000Y-127602500D01*
G75*
G02*
X90937500Y-127455000I147500J0D01*
G01*
X91232500Y-127455000D01*
G75*
G02*
X91380000Y-127602500I0J-147500D01*
G01*
G37*
%TD*%
D14*
%TO.C,C90*%
X154600000Y-85400000D03*
X156000000Y-85400000D03*
%TD*%
%TO.C,C43*%
G36*
G01*
X116746942Y-86572500D02*
X116746942Y-86227500D01*
G75*
G02*
X116894442Y-86080000I147500J0D01*
G01*
X117189442Y-86080000D01*
G75*
G02*
X117336942Y-86227500I0J-147500D01*
G01*
X117336942Y-86572500D01*
G75*
G02*
X117189442Y-86720000I-147500J0D01*
G01*
X116894442Y-86720000D01*
G75*
G02*
X116746942Y-86572500I0J147500D01*
G01*
G37*
G36*
G01*
X115776942Y-86572500D02*
X115776942Y-86227500D01*
G75*
G02*
X115924442Y-86080000I147500J0D01*
G01*
X116219442Y-86080000D01*
G75*
G02*
X116366942Y-86227500I0J-147500D01*
G01*
X116366942Y-86572500D01*
G75*
G02*
X116219442Y-86720000I-147500J0D01*
G01*
X115924442Y-86720000D01*
G75*
G02*
X115776942Y-86572500I0J147500D01*
G01*
G37*
%TD*%
%TO.C,C47*%
G36*
G01*
X119072500Y-90160000D02*
X118727500Y-90160000D01*
G75*
G02*
X118580000Y-90012500I0J147500D01*
G01*
X118580000Y-89717500D01*
G75*
G02*
X118727500Y-89570000I147500J0D01*
G01*
X119072500Y-89570000D01*
G75*
G02*
X119220000Y-89717500I0J-147500D01*
G01*
X119220000Y-90012500D01*
G75*
G02*
X119072500Y-90160000I-147500J0D01*
G01*
G37*
G36*
G01*
X119072500Y-91130000D02*
X118727500Y-91130000D01*
G75*
G02*
X118580000Y-90982500I0J147500D01*
G01*
X118580000Y-90687500D01*
G75*
G02*
X118727500Y-90540000I147500J0D01*
G01*
X119072500Y-90540000D01*
G75*
G02*
X119220000Y-90687500I0J-147500D01*
G01*
X119220000Y-90982500D01*
G75*
G02*
X119072500Y-91130000I-147500J0D01*
G01*
G37*
%TD*%
%TO.C,C51*%
G36*
G01*
X121872500Y-89810000D02*
X121527500Y-89810000D01*
G75*
G02*
X121380000Y-89662500I0J147500D01*
G01*
X121380000Y-89367500D01*
G75*
G02*
X121527500Y-89220000I147500J0D01*
G01*
X121872500Y-89220000D01*
G75*
G02*
X122020000Y-89367500I0J-147500D01*
G01*
X122020000Y-89662500D01*
G75*
G02*
X121872500Y-89810000I-147500J0D01*
G01*
G37*
G36*
G01*
X121872500Y-90780000D02*
X121527500Y-90780000D01*
G75*
G02*
X121380000Y-90632500I0J147500D01*
G01*
X121380000Y-90337500D01*
G75*
G02*
X121527500Y-90190000I147500J0D01*
G01*
X121872500Y-90190000D01*
G75*
G02*
X122020000Y-90337500I0J-147500D01*
G01*
X122020000Y-90632500D01*
G75*
G02*
X121872500Y-90780000I-147500J0D01*
G01*
G37*
%TD*%
%TO.C,C59*%
G36*
G01*
X126572500Y-89810000D02*
X126227500Y-89810000D01*
G75*
G02*
X126080000Y-89662500I0J147500D01*
G01*
X126080000Y-89367500D01*
G75*
G02*
X126227500Y-89220000I147500J0D01*
G01*
X126572500Y-89220000D01*
G75*
G02*
X126720000Y-89367500I0J-147500D01*
G01*
X126720000Y-89662500D01*
G75*
G02*
X126572500Y-89810000I-147500J0D01*
G01*
G37*
G36*
G01*
X126572500Y-90780000D02*
X126227500Y-90780000D01*
G75*
G02*
X126080000Y-90632500I0J147500D01*
G01*
X126080000Y-90337500D01*
G75*
G02*
X126227500Y-90190000I147500J0D01*
G01*
X126572500Y-90190000D01*
G75*
G02*
X126720000Y-90337500I0J-147500D01*
G01*
X126720000Y-90632500D01*
G75*
G02*
X126572500Y-90780000I-147500J0D01*
G01*
G37*
%TD*%
%TO.C,C61*%
G36*
G01*
X124272500Y-89810000D02*
X123927500Y-89810000D01*
G75*
G02*
X123780000Y-89662500I0J147500D01*
G01*
X123780000Y-89367500D01*
G75*
G02*
X123927500Y-89220000I147500J0D01*
G01*
X124272500Y-89220000D01*
G75*
G02*
X124420000Y-89367500I0J-147500D01*
G01*
X124420000Y-89662500D01*
G75*
G02*
X124272500Y-89810000I-147500J0D01*
G01*
G37*
G36*
G01*
X124272500Y-90780000D02*
X123927500Y-90780000D01*
G75*
G02*
X123780000Y-90632500I0J147500D01*
G01*
X123780000Y-90337500D01*
G75*
G02*
X123927500Y-90190000I147500J0D01*
G01*
X124272500Y-90190000D01*
G75*
G02*
X124420000Y-90337500I0J-147500D01*
G01*
X124420000Y-90632500D01*
G75*
G02*
X124272500Y-90780000I-147500J0D01*
G01*
G37*
%TD*%
%TO.C,R38*%
G36*
G01*
X118072500Y-92510000D02*
X117727500Y-92510000D01*
G75*
G02*
X117580000Y-92362500I0J147500D01*
G01*
X117580000Y-92067500D01*
G75*
G02*
X117727500Y-91920000I147500J0D01*
G01*
X118072500Y-91920000D01*
G75*
G02*
X118220000Y-92067500I0J-147500D01*
G01*
X118220000Y-92362500D01*
G75*
G02*
X118072500Y-92510000I-147500J0D01*
G01*
G37*
G36*
G01*
X118072500Y-93480000D02*
X117727500Y-93480000D01*
G75*
G02*
X117580000Y-93332500I0J147500D01*
G01*
X117580000Y-93037500D01*
G75*
G02*
X117727500Y-92890000I147500J0D01*
G01*
X118072500Y-92890000D01*
G75*
G02*
X118220000Y-93037500I0J-147500D01*
G01*
X118220000Y-93332500D01*
G75*
G02*
X118072500Y-93480000I-147500J0D01*
G01*
G37*
%TD*%
%TO.C,R39*%
G36*
G01*
X118627500Y-92890000D02*
X118972500Y-92890000D01*
G75*
G02*
X119120000Y-93037500I0J-147500D01*
G01*
X119120000Y-93332500D01*
G75*
G02*
X118972500Y-93480000I-147500J0D01*
G01*
X118627500Y-93480000D01*
G75*
G02*
X118480000Y-93332500I0J147500D01*
G01*
X118480000Y-93037500D01*
G75*
G02*
X118627500Y-92890000I147500J0D01*
G01*
G37*
G36*
G01*
X118627500Y-91920000D02*
X118972500Y-91920000D01*
G75*
G02*
X119120000Y-92067500I0J-147500D01*
G01*
X119120000Y-92362500D01*
G75*
G02*
X118972500Y-92510000I-147500J0D01*
G01*
X118627500Y-92510000D01*
G75*
G02*
X118480000Y-92362500I0J147500D01*
G01*
X118480000Y-92067500D01*
G75*
G02*
X118627500Y-91920000I147500J0D01*
G01*
G37*
%TD*%
%TO.C,R41*%
G36*
G01*
X116366942Y-87227500D02*
X116366942Y-87572500D01*
G75*
G02*
X116219442Y-87720000I-147500J0D01*
G01*
X115924442Y-87720000D01*
G75*
G02*
X115776942Y-87572500I0J147500D01*
G01*
X115776942Y-87227500D01*
G75*
G02*
X115924442Y-87080000I147500J0D01*
G01*
X116219442Y-87080000D01*
G75*
G02*
X116366942Y-87227500I0J-147500D01*
G01*
G37*
G36*
G01*
X117336942Y-87227500D02*
X117336942Y-87572500D01*
G75*
G02*
X117189442Y-87720000I-147500J0D01*
G01*
X116894442Y-87720000D01*
G75*
G02*
X116746942Y-87572500I0J147500D01*
G01*
X116746942Y-87227500D01*
G75*
G02*
X116894442Y-87080000I147500J0D01*
G01*
X117189442Y-87080000D01*
G75*
G02*
X117336942Y-87227500I0J-147500D01*
G01*
G37*
%TD*%
%TO.C,R43*%
G36*
G01*
X116366942Y-88227500D02*
X116366942Y-88572500D01*
G75*
G02*
X116219442Y-88720000I-147500J0D01*
G01*
X115924442Y-88720000D01*
G75*
G02*
X115776942Y-88572500I0J147500D01*
G01*
X115776942Y-88227500D01*
G75*
G02*
X115924442Y-88080000I147500J0D01*
G01*
X116219442Y-88080000D01*
G75*
G02*
X116366942Y-88227500I0J-147500D01*
G01*
G37*
G36*
G01*
X117336942Y-88227500D02*
X117336942Y-88572500D01*
G75*
G02*
X117189442Y-88720000I-147500J0D01*
G01*
X116894442Y-88720000D01*
G75*
G02*
X116746942Y-88572500I0J147500D01*
G01*
X116746942Y-88227500D01*
G75*
G02*
X116894442Y-88080000I147500J0D01*
G01*
X117189442Y-88080000D01*
G75*
G02*
X117336942Y-88227500I0J-147500D01*
G01*
G37*
%TD*%
%TO.C,R45*%
G36*
G01*
X116366942Y-89227500D02*
X116366942Y-89572500D01*
G75*
G02*
X116219442Y-89720000I-147500J0D01*
G01*
X115924442Y-89720000D01*
G75*
G02*
X115776942Y-89572500I0J147500D01*
G01*
X115776942Y-89227500D01*
G75*
G02*
X115924442Y-89080000I147500J0D01*
G01*
X116219442Y-89080000D01*
G75*
G02*
X116366942Y-89227500I0J-147500D01*
G01*
G37*
G36*
G01*
X117336942Y-89227500D02*
X117336942Y-89572500D01*
G75*
G02*
X117189442Y-89720000I-147500J0D01*
G01*
X116894442Y-89720000D01*
G75*
G02*
X116746942Y-89572500I0J147500D01*
G01*
X116746942Y-89227500D01*
G75*
G02*
X116894442Y-89080000I147500J0D01*
G01*
X117189442Y-89080000D01*
G75*
G02*
X117336942Y-89227500I0J-147500D01*
G01*
G37*
%TD*%
%TO.C,R46*%
G36*
G01*
X116416942Y-84227500D02*
X116416942Y-84572500D01*
G75*
G02*
X116269442Y-84720000I-147500J0D01*
G01*
X115974442Y-84720000D01*
G75*
G02*
X115826942Y-84572500I0J147500D01*
G01*
X115826942Y-84227500D01*
G75*
G02*
X115974442Y-84080000I147500J0D01*
G01*
X116269442Y-84080000D01*
G75*
G02*
X116416942Y-84227500I0J-147500D01*
G01*
G37*
G36*
G01*
X117386942Y-84227500D02*
X117386942Y-84572500D01*
G75*
G02*
X117239442Y-84720000I-147500J0D01*
G01*
X116944442Y-84720000D01*
G75*
G02*
X116796942Y-84572500I0J147500D01*
G01*
X116796942Y-84227500D01*
G75*
G02*
X116944442Y-84080000I147500J0D01*
G01*
X117239442Y-84080000D01*
G75*
G02*
X117386942Y-84227500I0J-147500D01*
G01*
G37*
%TD*%
%TO.C,R48*%
G36*
G01*
X116416943Y-85227500D02*
X116416943Y-85572500D01*
G75*
G02*
X116269443Y-85720000I-147500J0D01*
G01*
X115974443Y-85720000D01*
G75*
G02*
X115826943Y-85572500I0J147500D01*
G01*
X115826943Y-85227500D01*
G75*
G02*
X115974443Y-85080000I147500J0D01*
G01*
X116269443Y-85080000D01*
G75*
G02*
X116416943Y-85227500I0J-147500D01*
G01*
G37*
G36*
G01*
X117386943Y-85227500D02*
X117386943Y-85572500D01*
G75*
G02*
X117239443Y-85720000I-147500J0D01*
G01*
X116944443Y-85720000D01*
G75*
G02*
X116796943Y-85572500I0J147500D01*
G01*
X116796943Y-85227500D01*
G75*
G02*
X116944443Y-85080000I147500J0D01*
G01*
X117239443Y-85080000D01*
G75*
G02*
X117386943Y-85227500I0J-147500D01*
G01*
G37*
%TD*%
%TO.C,R49*%
G36*
G01*
X127856942Y-81497360D02*
X127856942Y-81152360D01*
G75*
G02*
X128004442Y-81004860I147500J0D01*
G01*
X128299442Y-81004860D01*
G75*
G02*
X128446942Y-81152360I0J-147500D01*
G01*
X128446942Y-81497360D01*
G75*
G02*
X128299442Y-81644860I-147500J0D01*
G01*
X128004442Y-81644860D01*
G75*
G02*
X127856942Y-81497360I0J147500D01*
G01*
G37*
G36*
G01*
X126886942Y-81497360D02*
X126886942Y-81152360D01*
G75*
G02*
X127034442Y-81004860I147500J0D01*
G01*
X127329442Y-81004860D01*
G75*
G02*
X127476942Y-81152360I0J-147500D01*
G01*
X127476942Y-81497360D01*
G75*
G02*
X127329442Y-81644860I-147500J0D01*
G01*
X127034442Y-81644860D01*
G75*
G02*
X126886942Y-81497360I0J147500D01*
G01*
G37*
%TD*%
%TO.C,R53*%
G36*
G01*
X119372500Y-78755000D02*
X119027500Y-78755000D01*
G75*
G02*
X118880000Y-78607500I0J147500D01*
G01*
X118880000Y-78312500D01*
G75*
G02*
X119027500Y-78165000I147500J0D01*
G01*
X119372500Y-78165000D01*
G75*
G02*
X119520000Y-78312500I0J-147500D01*
G01*
X119520000Y-78607500D01*
G75*
G02*
X119372500Y-78755000I-147500J0D01*
G01*
G37*
G36*
G01*
X119372500Y-79725000D02*
X119027500Y-79725000D01*
G75*
G02*
X118880000Y-79577500I0J147500D01*
G01*
X118880000Y-79282500D01*
G75*
G02*
X119027500Y-79135000I147500J0D01*
G01*
X119372500Y-79135000D01*
G75*
G02*
X119520000Y-79282500I0J-147500D01*
G01*
X119520000Y-79577500D01*
G75*
G02*
X119372500Y-79725000I-147500J0D01*
G01*
G37*
%TD*%
%TO.C,R55*%
G36*
G01*
X118372500Y-78755000D02*
X118027500Y-78755000D01*
G75*
G02*
X117880000Y-78607500I0J147500D01*
G01*
X117880000Y-78312500D01*
G75*
G02*
X118027500Y-78165000I147500J0D01*
G01*
X118372500Y-78165000D01*
G75*
G02*
X118520000Y-78312500I0J-147500D01*
G01*
X118520000Y-78607500D01*
G75*
G02*
X118372500Y-78755000I-147500J0D01*
G01*
G37*
G36*
G01*
X118372500Y-79725000D02*
X118027500Y-79725000D01*
G75*
G02*
X117880000Y-79577500I0J147500D01*
G01*
X117880000Y-79282500D01*
G75*
G02*
X118027500Y-79135000I147500J0D01*
G01*
X118372500Y-79135000D01*
G75*
G02*
X118520000Y-79282500I0J-147500D01*
G01*
X118520000Y-79577500D01*
G75*
G02*
X118372500Y-79725000I-147500J0D01*
G01*
G37*
%TD*%
%TO.C,R57*%
G36*
G01*
X117372500Y-78755000D02*
X117027500Y-78755000D01*
G75*
G02*
X116880000Y-78607500I0J147500D01*
G01*
X116880000Y-78312500D01*
G75*
G02*
X117027500Y-78165000I147500J0D01*
G01*
X117372500Y-78165000D01*
G75*
G02*
X117520000Y-78312500I0J-147500D01*
G01*
X117520000Y-78607500D01*
G75*
G02*
X117372500Y-78755000I-147500J0D01*
G01*
G37*
G36*
G01*
X117372500Y-79725000D02*
X117027500Y-79725000D01*
G75*
G02*
X116880000Y-79577500I0J147500D01*
G01*
X116880000Y-79282500D01*
G75*
G02*
X117027500Y-79135000I147500J0D01*
G01*
X117372500Y-79135000D01*
G75*
G02*
X117520000Y-79282500I0J-147500D01*
G01*
X117520000Y-79577500D01*
G75*
G02*
X117372500Y-79725000I-147500J0D01*
G01*
G37*
%TD*%
%TO.C,R59*%
G36*
G01*
X116372500Y-78755000D02*
X116027500Y-78755000D01*
G75*
G02*
X115880000Y-78607500I0J147500D01*
G01*
X115880000Y-78312500D01*
G75*
G02*
X116027500Y-78165000I147500J0D01*
G01*
X116372500Y-78165000D01*
G75*
G02*
X116520000Y-78312500I0J-147500D01*
G01*
X116520000Y-78607500D01*
G75*
G02*
X116372500Y-78755000I-147500J0D01*
G01*
G37*
G36*
G01*
X116372500Y-79725000D02*
X116027500Y-79725000D01*
G75*
G02*
X115880000Y-79577500I0J147500D01*
G01*
X115880000Y-79282500D01*
G75*
G02*
X116027500Y-79135000I147500J0D01*
G01*
X116372500Y-79135000D01*
G75*
G02*
X116520000Y-79282500I0J-147500D01*
G01*
X116520000Y-79577500D01*
G75*
G02*
X116372500Y-79725000I-147500J0D01*
G01*
G37*
%TD*%
%TO.C,R60*%
G36*
G01*
X127856943Y-88722500D02*
X127856943Y-88377500D01*
G75*
G02*
X128004443Y-88230000I147500J0D01*
G01*
X128299443Y-88230000D01*
G75*
G02*
X128446943Y-88377500I0J-147500D01*
G01*
X128446943Y-88722500D01*
G75*
G02*
X128299443Y-88870000I-147500J0D01*
G01*
X128004443Y-88870000D01*
G75*
G02*
X127856943Y-88722500I0J147500D01*
G01*
G37*
G36*
G01*
X126886943Y-88722500D02*
X126886943Y-88377500D01*
G75*
G02*
X127034443Y-88230000I147500J0D01*
G01*
X127329443Y-88230000D01*
G75*
G02*
X127476943Y-88377500I0J-147500D01*
G01*
X127476943Y-88722500D01*
G75*
G02*
X127329443Y-88870000I-147500J0D01*
G01*
X127034443Y-88870000D01*
G75*
G02*
X126886943Y-88722500I0J147500D01*
G01*
G37*
%TD*%
D28*
%TO.C,Q7*%
X101250000Y-89200000D03*
X99950000Y-88700000D03*
X99950000Y-89700000D03*
%TD*%
%TO.C,C72*%
G36*
G01*
X132548236Y-63551421D02*
X132203236Y-63551421D01*
G75*
G02*
X132055736Y-63403921I0J147500D01*
G01*
X132055736Y-63108921D01*
G75*
G02*
X132203236Y-62961421I147500J0D01*
G01*
X132548236Y-62961421D01*
G75*
G02*
X132695736Y-63108921I0J-147500D01*
G01*
X132695736Y-63403921D01*
G75*
G02*
X132548236Y-63551421I-147500J0D01*
G01*
G37*
G36*
G01*
X132548236Y-64521421D02*
X132203236Y-64521421D01*
G75*
G02*
X132055736Y-64373921I0J147500D01*
G01*
X132055736Y-64078921D01*
G75*
G02*
X132203236Y-63931421I147500J0D01*
G01*
X132548236Y-63931421D01*
G75*
G02*
X132695736Y-64078921I0J-147500D01*
G01*
X132695736Y-64373921D01*
G75*
G02*
X132548236Y-64521421I-147500J0D01*
G01*
G37*
%TD*%
%TO.C,C70*%
G36*
G01*
X137940000Y-66722500D02*
X137940000Y-66377500D01*
G75*
G02*
X138087500Y-66230000I147500J0D01*
G01*
X138382500Y-66230000D01*
G75*
G02*
X138530000Y-66377500I0J-147500D01*
G01*
X138530000Y-66722500D01*
G75*
G02*
X138382500Y-66870000I-147500J0D01*
G01*
X138087500Y-66870000D01*
G75*
G02*
X137940000Y-66722500I0J147500D01*
G01*
G37*
G36*
G01*
X136970000Y-66722500D02*
X136970000Y-66377500D01*
G75*
G02*
X137117500Y-66230000I147500J0D01*
G01*
X137412500Y-66230000D01*
G75*
G02*
X137560000Y-66377500I0J-147500D01*
G01*
X137560000Y-66722500D01*
G75*
G02*
X137412500Y-66870000I-147500J0D01*
G01*
X137117500Y-66870000D01*
G75*
G02*
X136970000Y-66722500I0J147500D01*
G01*
G37*
%TD*%
%TO.C,C73*%
G36*
G01*
X133572500Y-63551421D02*
X133227500Y-63551421D01*
G75*
G02*
X133080000Y-63403921I0J147500D01*
G01*
X133080000Y-63108921D01*
G75*
G02*
X133227500Y-62961421I147500J0D01*
G01*
X133572500Y-62961421D01*
G75*
G02*
X133720000Y-63108921I0J-147500D01*
G01*
X133720000Y-63403921D01*
G75*
G02*
X133572500Y-63551421I-147500J0D01*
G01*
G37*
G36*
G01*
X133572500Y-64521421D02*
X133227500Y-64521421D01*
G75*
G02*
X133080000Y-64373921I0J147500D01*
G01*
X133080000Y-64078921D01*
G75*
G02*
X133227500Y-63931421I147500J0D01*
G01*
X133572500Y-63931421D01*
G75*
G02*
X133720000Y-64078921I0J-147500D01*
G01*
X133720000Y-64373921D01*
G75*
G02*
X133572500Y-64521421I-147500J0D01*
G01*
G37*
%TD*%
%TO.C,C71*%
G36*
G01*
X137940000Y-65722500D02*
X137940000Y-65377500D01*
G75*
G02*
X138087500Y-65230000I147500J0D01*
G01*
X138382500Y-65230000D01*
G75*
G02*
X138530000Y-65377500I0J-147500D01*
G01*
X138530000Y-65722500D01*
G75*
G02*
X138382500Y-65870000I-147500J0D01*
G01*
X138087500Y-65870000D01*
G75*
G02*
X137940000Y-65722500I0J147500D01*
G01*
G37*
G36*
G01*
X136970000Y-65722500D02*
X136970000Y-65377500D01*
G75*
G02*
X137117500Y-65230000I147500J0D01*
G01*
X137412500Y-65230000D01*
G75*
G02*
X137560000Y-65377500I0J-147500D01*
G01*
X137560000Y-65722500D01*
G75*
G02*
X137412500Y-65870000I-147500J0D01*
G01*
X137117500Y-65870000D01*
G75*
G02*
X136970000Y-65722500I0J147500D01*
G01*
G37*
%TD*%
%TO.C,C75*%
G36*
G01*
X131522500Y-63551421D02*
X131177500Y-63551421D01*
G75*
G02*
X131030000Y-63403921I0J147500D01*
G01*
X131030000Y-63108921D01*
G75*
G02*
X131177500Y-62961421I147500J0D01*
G01*
X131522500Y-62961421D01*
G75*
G02*
X131670000Y-63108921I0J-147500D01*
G01*
X131670000Y-63403921D01*
G75*
G02*
X131522500Y-63551421I-147500J0D01*
G01*
G37*
G36*
G01*
X131522500Y-64521421D02*
X131177500Y-64521421D01*
G75*
G02*
X131030000Y-64373921I0J147500D01*
G01*
X131030000Y-64078921D01*
G75*
G02*
X131177500Y-63931421I147500J0D01*
G01*
X131522500Y-63931421D01*
G75*
G02*
X131670000Y-64078921I0J-147500D01*
G01*
X131670000Y-64373921D01*
G75*
G02*
X131522500Y-64521421I-147500J0D01*
G01*
G37*
%TD*%
%TO.C,C74*%
G36*
G01*
X137940000Y-67722500D02*
X137940000Y-67377500D01*
G75*
G02*
X138087500Y-67230000I147500J0D01*
G01*
X138382500Y-67230000D01*
G75*
G02*
X138530000Y-67377500I0J-147500D01*
G01*
X138530000Y-67722500D01*
G75*
G02*
X138382500Y-67870000I-147500J0D01*
G01*
X138087500Y-67870000D01*
G75*
G02*
X137940000Y-67722500I0J147500D01*
G01*
G37*
G36*
G01*
X136970000Y-67722500D02*
X136970000Y-67377500D01*
G75*
G02*
X137117500Y-67230000I147500J0D01*
G01*
X137412500Y-67230000D01*
G75*
G02*
X137560000Y-67377500I0J-147500D01*
G01*
X137560000Y-67722500D01*
G75*
G02*
X137412500Y-67870000I-147500J0D01*
G01*
X137117500Y-67870000D01*
G75*
G02*
X136970000Y-67722500I0J147500D01*
G01*
G37*
%TD*%
%TO.C,C81*%
G36*
G01*
X112122500Y-63610000D02*
X111777500Y-63610000D01*
G75*
G02*
X111630000Y-63462500I0J147500D01*
G01*
X111630000Y-63167500D01*
G75*
G02*
X111777500Y-63020000I147500J0D01*
G01*
X112122500Y-63020000D01*
G75*
G02*
X112270000Y-63167500I0J-147500D01*
G01*
X112270000Y-63462500D01*
G75*
G02*
X112122500Y-63610000I-147500J0D01*
G01*
G37*
G36*
G01*
X112122500Y-64580000D02*
X111777500Y-64580000D01*
G75*
G02*
X111630000Y-64432500I0J147500D01*
G01*
X111630000Y-64137500D01*
G75*
G02*
X111777500Y-63990000I147500J0D01*
G01*
X112122500Y-63990000D01*
G75*
G02*
X112270000Y-64137500I0J-147500D01*
G01*
X112270000Y-64432500D01*
G75*
G02*
X112122500Y-64580000I-147500J0D01*
G01*
G37*
%TD*%
%TO.C,C82*%
G36*
G01*
X118540000Y-65722500D02*
X118540000Y-65377500D01*
G75*
G02*
X118687500Y-65230000I147500J0D01*
G01*
X118982500Y-65230000D01*
G75*
G02*
X119130000Y-65377500I0J-147500D01*
G01*
X119130000Y-65722500D01*
G75*
G02*
X118982500Y-65870000I-147500J0D01*
G01*
X118687500Y-65870000D01*
G75*
G02*
X118540000Y-65722500I0J147500D01*
G01*
G37*
G36*
G01*
X117570000Y-65722500D02*
X117570000Y-65377500D01*
G75*
G02*
X117717500Y-65230000I147500J0D01*
G01*
X118012500Y-65230000D01*
G75*
G02*
X118160000Y-65377500I0J-147500D01*
G01*
X118160000Y-65722500D01*
G75*
G02*
X118012500Y-65870000I-147500J0D01*
G01*
X117717500Y-65870000D01*
G75*
G02*
X117570000Y-65722500I0J147500D01*
G01*
G37*
%TD*%
%TO.C,C84*%
G36*
G01*
X114122500Y-63610000D02*
X113777500Y-63610000D01*
G75*
G02*
X113630000Y-63462500I0J147500D01*
G01*
X113630000Y-63167500D01*
G75*
G02*
X113777500Y-63020000I147500J0D01*
G01*
X114122500Y-63020000D01*
G75*
G02*
X114270000Y-63167500I0J-147500D01*
G01*
X114270000Y-63462500D01*
G75*
G02*
X114122500Y-63610000I-147500J0D01*
G01*
G37*
G36*
G01*
X114122500Y-64580000D02*
X113777500Y-64580000D01*
G75*
G02*
X113630000Y-64432500I0J147500D01*
G01*
X113630000Y-64137500D01*
G75*
G02*
X113777500Y-63990000I147500J0D01*
G01*
X114122500Y-63990000D01*
G75*
G02*
X114270000Y-64137500I0J-147500D01*
G01*
X114270000Y-64432500D01*
G75*
G02*
X114122500Y-64580000I-147500J0D01*
G01*
G37*
%TD*%
%TO.C,C85*%
G36*
G01*
X118540000Y-66722501D02*
X118540000Y-66377501D01*
G75*
G02*
X118687500Y-66230001I147500J0D01*
G01*
X118982500Y-66230001D01*
G75*
G02*
X119130000Y-66377501I0J-147500D01*
G01*
X119130000Y-66722501D01*
G75*
G02*
X118982500Y-66870001I-147500J0D01*
G01*
X118687500Y-66870001D01*
G75*
G02*
X118540000Y-66722501I0J147500D01*
G01*
G37*
G36*
G01*
X117570000Y-66722501D02*
X117570000Y-66377501D01*
G75*
G02*
X117717500Y-66230001I147500J0D01*
G01*
X118012500Y-66230001D01*
G75*
G02*
X118160000Y-66377501I0J-147500D01*
G01*
X118160000Y-66722501D01*
G75*
G02*
X118012500Y-66870001I-147500J0D01*
G01*
X117717500Y-66870001D01*
G75*
G02*
X117570000Y-66722501I0J147500D01*
G01*
G37*
%TD*%
%TO.C,C87*%
G36*
G01*
X113122500Y-63610000D02*
X112777500Y-63610000D01*
G75*
G02*
X112630000Y-63462500I0J147500D01*
G01*
X112630000Y-63167500D01*
G75*
G02*
X112777500Y-63020000I147500J0D01*
G01*
X113122500Y-63020000D01*
G75*
G02*
X113270000Y-63167500I0J-147500D01*
G01*
X113270000Y-63462500D01*
G75*
G02*
X113122500Y-63610000I-147500J0D01*
G01*
G37*
G36*
G01*
X113122500Y-64580000D02*
X112777500Y-64580000D01*
G75*
G02*
X112630000Y-64432500I0J147500D01*
G01*
X112630000Y-64137500D01*
G75*
G02*
X112777500Y-63990000I147500J0D01*
G01*
X113122500Y-63990000D01*
G75*
G02*
X113270000Y-64137500I0J-147500D01*
G01*
X113270000Y-64432500D01*
G75*
G02*
X113122500Y-64580000I-147500J0D01*
G01*
G37*
%TD*%
%TO.C,C88*%
G36*
G01*
X118540000Y-67722500D02*
X118540000Y-67377500D01*
G75*
G02*
X118687500Y-67230000I147500J0D01*
G01*
X118982500Y-67230000D01*
G75*
G02*
X119130000Y-67377500I0J-147500D01*
G01*
X119130000Y-67722500D01*
G75*
G02*
X118982500Y-67870000I-147500J0D01*
G01*
X118687500Y-67870000D01*
G75*
G02*
X118540000Y-67722500I0J147500D01*
G01*
G37*
G36*
G01*
X117570000Y-67722500D02*
X117570000Y-67377500D01*
G75*
G02*
X117717500Y-67230000I147500J0D01*
G01*
X118012500Y-67230000D01*
G75*
G02*
X118160000Y-67377500I0J-147500D01*
G01*
X118160000Y-67722500D01*
G75*
G02*
X118012500Y-67870000I-147500J0D01*
G01*
X117717500Y-67870000D01*
G75*
G02*
X117570000Y-67722500I0J147500D01*
G01*
G37*
%TD*%
%TO.C,C164*%
G36*
G01*
X143654687Y-125312174D02*
X143654687Y-125657174D01*
G75*
G02*
X143507187Y-125804674I-147500J0D01*
G01*
X143212187Y-125804674D01*
G75*
G02*
X143064687Y-125657174I0J147500D01*
G01*
X143064687Y-125312174D01*
G75*
G02*
X143212187Y-125164674I147500J0D01*
G01*
X143507187Y-125164674D01*
G75*
G02*
X143654687Y-125312174I0J-147500D01*
G01*
G37*
G36*
G01*
X144624687Y-125312174D02*
X144624687Y-125657174D01*
G75*
G02*
X144477187Y-125804674I-147500J0D01*
G01*
X144182187Y-125804674D01*
G75*
G02*
X144034687Y-125657174I0J147500D01*
G01*
X144034687Y-125312174D01*
G75*
G02*
X144182187Y-125164674I147500J0D01*
G01*
X144477187Y-125164674D01*
G75*
G02*
X144624687Y-125312174I0J-147500D01*
G01*
G37*
%TD*%
%TO.C,C165*%
G36*
G01*
X140481787Y-126352267D02*
X140481787Y-126697267D01*
G75*
G02*
X140334287Y-126844767I-147500J0D01*
G01*
X140039287Y-126844767D01*
G75*
G02*
X139891787Y-126697267I0J147500D01*
G01*
X139891787Y-126352267D01*
G75*
G02*
X140039287Y-126204767I147500J0D01*
G01*
X140334287Y-126204767D01*
G75*
G02*
X140481787Y-126352267I0J-147500D01*
G01*
G37*
G36*
G01*
X141451787Y-126352267D02*
X141451787Y-126697267D01*
G75*
G02*
X141304287Y-126844767I-147500J0D01*
G01*
X141009287Y-126844767D01*
G75*
G02*
X140861787Y-126697267I0J147500D01*
G01*
X140861787Y-126352267D01*
G75*
G02*
X141009287Y-126204767I147500J0D01*
G01*
X141304287Y-126204767D01*
G75*
G02*
X141451787Y-126352267I0J-147500D01*
G01*
G37*
%TD*%
%TO.C,C167*%
G36*
G01*
X140475609Y-125404098D02*
X140475609Y-125749098D01*
G75*
G02*
X140328109Y-125896598I-147500J0D01*
G01*
X140033109Y-125896598D01*
G75*
G02*
X139885609Y-125749098I0J147500D01*
G01*
X139885609Y-125404098D01*
G75*
G02*
X140033109Y-125256598I147500J0D01*
G01*
X140328109Y-125256598D01*
G75*
G02*
X140475609Y-125404098I0J-147500D01*
G01*
G37*
G36*
G01*
X141445609Y-125404098D02*
X141445609Y-125749098D01*
G75*
G02*
X141298109Y-125896598I-147500J0D01*
G01*
X141003109Y-125896598D01*
G75*
G02*
X140855609Y-125749098I0J147500D01*
G01*
X140855609Y-125404098D01*
G75*
G02*
X141003109Y-125256598I147500J0D01*
G01*
X141298109Y-125256598D01*
G75*
G02*
X141445609Y-125404098I0J-147500D01*
G01*
G37*
%TD*%
%TO.C,C166*%
G36*
G01*
X143654687Y-126231413D02*
X143654687Y-126576413D01*
G75*
G02*
X143507187Y-126723913I-147500J0D01*
G01*
X143212187Y-126723913D01*
G75*
G02*
X143064687Y-126576413I0J147500D01*
G01*
X143064687Y-126231413D01*
G75*
G02*
X143212187Y-126083913I147500J0D01*
G01*
X143507187Y-126083913D01*
G75*
G02*
X143654687Y-126231413I0J-147500D01*
G01*
G37*
G36*
G01*
X144624687Y-126231413D02*
X144624687Y-126576413D01*
G75*
G02*
X144477187Y-126723913I-147500J0D01*
G01*
X144182187Y-126723913D01*
G75*
G02*
X144034687Y-126576413I0J147500D01*
G01*
X144034687Y-126231413D01*
G75*
G02*
X144182187Y-126083913I147500J0D01*
G01*
X144477187Y-126083913D01*
G75*
G02*
X144624687Y-126231413I0J-147500D01*
G01*
G37*
%TD*%
%TO.C,C170*%
G36*
G01*
X140644287Y-130216137D02*
X140299287Y-130216137D01*
G75*
G02*
X140151787Y-130068637I0J147500D01*
G01*
X140151787Y-129773637D01*
G75*
G02*
X140299287Y-129626137I147500J0D01*
G01*
X140644287Y-129626137D01*
G75*
G02*
X140791787Y-129773637I0J-147500D01*
G01*
X140791787Y-130068637D01*
G75*
G02*
X140644287Y-130216137I-147500J0D01*
G01*
G37*
G36*
G01*
X140644287Y-131186137D02*
X140299287Y-131186137D01*
G75*
G02*
X140151787Y-131038637I0J147500D01*
G01*
X140151787Y-130743637D01*
G75*
G02*
X140299287Y-130596137I147500J0D01*
G01*
X140644287Y-130596137D01*
G75*
G02*
X140791787Y-130743637I0J-147500D01*
G01*
X140791787Y-131038637D01*
G75*
G02*
X140644287Y-131186137I-147500J0D01*
G01*
G37*
%TD*%
D21*
%TO.C,L4*%
X139200000Y-83050001D03*
X139200000Y-84450001D03*
%TD*%
%TO.C,L7*%
X135700000Y-93400000D03*
X135700000Y-94800000D03*
%TD*%
D28*
%TO.C,Q14*%
X138150000Y-94600000D03*
X136850000Y-94100000D03*
X136850000Y-95100000D03*
%TD*%
%TO.C,R139*%
G36*
G01*
X139772500Y-90559999D02*
X139427500Y-90559999D01*
G75*
G02*
X139280000Y-90412499I0J147500D01*
G01*
X139280000Y-90117499D01*
G75*
G02*
X139427500Y-89969999I147500J0D01*
G01*
X139772500Y-89969999D01*
G75*
G02*
X139920000Y-90117499I0J-147500D01*
G01*
X139920000Y-90412499D01*
G75*
G02*
X139772500Y-90559999I-147500J0D01*
G01*
G37*
G36*
G01*
X139772500Y-91529999D02*
X139427500Y-91529999D01*
G75*
G02*
X139280000Y-91382499I0J147500D01*
G01*
X139280000Y-91087499D01*
G75*
G02*
X139427500Y-90939999I147500J0D01*
G01*
X139772500Y-90939999D01*
G75*
G02*
X139920000Y-91087499I0J-147500D01*
G01*
X139920000Y-91382499D01*
G75*
G02*
X139772500Y-91529999I-147500J0D01*
G01*
G37*
%TD*%
D21*
%TO.C,C215*%
X134200000Y-93400000D03*
X134200000Y-94800000D03*
%TD*%
D24*
%TO.C,U53*%
X138350000Y-92200000D03*
X135750000Y-92200000D03*
X138350000Y-91250000D03*
X138350000Y-90300000D03*
X135750000Y-91250000D03*
X135750000Y-90300000D03*
%TD*%
%TO.C,R140*%
G36*
G01*
X138910001Y-88877500D02*
X138910001Y-89222500D01*
G75*
G02*
X138762501Y-89370000I-147500J0D01*
G01*
X138467501Y-89370000D01*
G75*
G02*
X138320001Y-89222500I0J147500D01*
G01*
X138320001Y-88877500D01*
G75*
G02*
X138467501Y-88730000I147500J0D01*
G01*
X138762501Y-88730000D01*
G75*
G02*
X138910001Y-88877500I0J-147500D01*
G01*
G37*
G36*
G01*
X139880001Y-88877500D02*
X139880001Y-89222500D01*
G75*
G02*
X139732501Y-89370000I-147500J0D01*
G01*
X139437501Y-89370000D01*
G75*
G02*
X139290001Y-89222500I0J147500D01*
G01*
X139290001Y-88877500D01*
G75*
G02*
X139437501Y-88730000I147500J0D01*
G01*
X139732501Y-88730000D01*
G75*
G02*
X139880001Y-88877500I0J-147500D01*
G01*
G37*
%TD*%
%TO.C,R141*%
G36*
G01*
X139760000Y-92427500D02*
X139760000Y-92772500D01*
G75*
G02*
X139612500Y-92920000I-147500J0D01*
G01*
X139317500Y-92920000D01*
G75*
G02*
X139170000Y-92772500I0J147500D01*
G01*
X139170000Y-92427500D01*
G75*
G02*
X139317500Y-92280000I147500J0D01*
G01*
X139612500Y-92280000D01*
G75*
G02*
X139760000Y-92427500I0J-147500D01*
G01*
G37*
G36*
G01*
X140730000Y-92427500D02*
X140730000Y-92772500D01*
G75*
G02*
X140582500Y-92920000I-147500J0D01*
G01*
X140287500Y-92920000D01*
G75*
G02*
X140140000Y-92772500I0J147500D01*
G01*
X140140000Y-92427500D01*
G75*
G02*
X140287500Y-92280000I147500J0D01*
G01*
X140582500Y-92280000D01*
G75*
G02*
X140730000Y-92427500I0J-147500D01*
G01*
G37*
%TD*%
%TO.C,C210*%
G36*
G01*
X137990000Y-93272501D02*
X137990000Y-92927501D01*
G75*
G02*
X138137500Y-92780001I147500J0D01*
G01*
X138432500Y-92780001D01*
G75*
G02*
X138580000Y-92927501I0J-147500D01*
G01*
X138580000Y-93272501D01*
G75*
G02*
X138432500Y-93420001I-147500J0D01*
G01*
X138137500Y-93420001D01*
G75*
G02*
X137990000Y-93272501I0J147500D01*
G01*
G37*
G36*
G01*
X137020000Y-93272501D02*
X137020000Y-92927501D01*
G75*
G02*
X137167500Y-92780001I147500J0D01*
G01*
X137462500Y-92780001D01*
G75*
G02*
X137610000Y-92927501I0J-147500D01*
G01*
X137610000Y-93272501D01*
G75*
G02*
X137462500Y-93420001I-147500J0D01*
G01*
X137167500Y-93420001D01*
G75*
G02*
X137020000Y-93272501I0J147500D01*
G01*
G37*
%TD*%
D21*
%TO.C,C205*%
X134300000Y-90250002D03*
X134300000Y-91650002D03*
%TD*%
M02*
