%TF.GenerationSoftware,KiCad,Pcbnew,5.1.9+dfsg1-1*%
%TF.CreationDate,2022-05-12T15:35:02+02:00*%
%TF.ProjectId,kria-k26-devboard,6b726961-2d6b-4323-962d-646576626f61,rev?*%
%TF.SameCoordinates,Original*%
%TF.FileFunction,Other,User*%
%FSLAX46Y46*%
G04 Gerber Fmt 4.6, Leading zero omitted, Abs format (unit mm)*
G04 Created by KiCad (PCBNEW 5.1.9+dfsg1-1) date 2022-05-12 15:35:02 commit 3e03c6a*
%MOMM*%
%LPD*%
G01*
G04 APERTURE LIST*
%TA.AperFunction,Profile*%
%ADD10C,0.100000*%
%TD*%
%ADD11C,0.120000*%
%ADD12C,0.050000*%
%ADD13C,0.100000*%
%ADD14C,0.150000*%
%ADD15C,0.152400*%
G04 APERTURE END LIST*
D10*
X74000000Y-152000000D02*
X74000000Y-52000000D01*
X74000000Y-52000000D02*
X192000000Y-52000000D01*
X192000000Y-52000000D02*
X192000000Y-152000000D01*
X192000000Y-152000000D02*
X74000000Y-152000000D01*
D11*
%TO.C,Y4*%
X128200000Y-92150000D02*
X128200000Y-94400000D01*
X126300000Y-92150000D02*
X128200000Y-92150000D01*
X126300000Y-94400000D02*
X126300000Y-92150000D01*
X128200000Y-94400000D02*
X126300000Y-94400000D01*
D12*
%TO.C,R118*%
X148395000Y-72970000D02*
X148395000Y-74830000D01*
X147455000Y-72970000D02*
X148395000Y-72970000D01*
X147455000Y-74830000D02*
X147455000Y-72970000D01*
X148395000Y-74830000D02*
X147455000Y-74830000D01*
D11*
%TO.C,U48*%
X171600000Y-126655000D02*
X171600000Y-124062000D01*
X171600000Y-126655000D02*
X175190000Y-126655000D01*
X175190000Y-126645000D02*
X175190000Y-124062000D01*
X175190000Y-124062000D02*
X171600000Y-124062000D01*
D12*
%TO.C,R124*%
X175245000Y-126795000D02*
X175245000Y-128655000D01*
X174305000Y-126795000D02*
X175245000Y-126795000D01*
X174305000Y-128655000D02*
X174305000Y-126795000D01*
X175245000Y-128655000D02*
X174305000Y-128655000D01*
%TO.C,C190*%
X177205000Y-126445000D02*
X175345000Y-126445000D01*
X177205000Y-125505000D02*
X177205000Y-126445000D01*
X175345000Y-125505000D02*
X177205000Y-125505000D01*
X175345000Y-126445000D02*
X175345000Y-125505000D01*
%TO.C,R125*%
X177205000Y-127445000D02*
X175345000Y-127445000D01*
X177205000Y-126505000D02*
X177205000Y-127445000D01*
X175345000Y-126505000D02*
X177205000Y-126505000D01*
X175345000Y-127445000D02*
X175345000Y-126505000D01*
%TO.C,C198*%
X167490000Y-129335001D02*
X167490000Y-129475001D01*
X168910000Y-129335001D02*
X168910000Y-129475001D01*
X168910000Y-127115001D02*
X168910000Y-126975001D01*
X167490000Y-127115001D02*
X167490000Y-126975001D01*
X168910000Y-127115001D02*
X168910000Y-129335001D01*
X168910000Y-129475001D02*
X167490000Y-129475001D01*
X167490000Y-129335001D02*
X167490000Y-127115001D01*
X167490000Y-126975001D02*
X168910000Y-126975001D01*
%TO.C,C188*%
X177205000Y-125495000D02*
X175345000Y-125495000D01*
X177205000Y-124555000D02*
X177205000Y-125495000D01*
X175345000Y-124555000D02*
X177205000Y-124555000D01*
X175345000Y-125495000D02*
X175345000Y-124555000D01*
%TO.C,C196*%
X168940000Y-129335000D02*
X168940000Y-129475000D01*
X170360000Y-129335000D02*
X170360000Y-129475000D01*
X170360000Y-127115000D02*
X170360000Y-126975000D01*
X168940000Y-127115000D02*
X168940000Y-126975000D01*
X170360000Y-127115000D02*
X170360000Y-129335000D01*
X170360000Y-129475000D02*
X168940000Y-129475000D01*
X168940000Y-129335000D02*
X168940000Y-127115000D01*
X168940000Y-126975000D02*
X170360000Y-126975000D01*
%TO.C,C186*%
X176640000Y-124335000D02*
X176640000Y-124475000D01*
X178060000Y-124335000D02*
X178060000Y-124475000D01*
X178060000Y-122115000D02*
X178060000Y-121975000D01*
X176640000Y-122115000D02*
X176640000Y-121975000D01*
X178060000Y-122115000D02*
X178060000Y-124335000D01*
X178060000Y-124475000D02*
X176640000Y-124475000D01*
X176640000Y-124335000D02*
X176640000Y-122115000D01*
X176640000Y-121975000D02*
X178060000Y-121975000D01*
%TO.C,C192*%
X170530000Y-124405000D02*
X170530000Y-122545000D01*
X171470000Y-124405000D02*
X170530000Y-124405000D01*
X171470000Y-122545000D02*
X171470000Y-124405000D01*
X170530000Y-122545000D02*
X171470000Y-122545000D01*
%TO.C,C194*%
X173355000Y-128655000D02*
X173355000Y-126795000D01*
X174295000Y-128655000D02*
X173355000Y-128655000D01*
X174295000Y-126795000D02*
X174295000Y-128655000D01*
X173355000Y-126795000D02*
X174295000Y-126795000D01*
%TO.C,C184*%
X175339999Y-124335000D02*
X175339999Y-124475000D01*
X176759999Y-124335000D02*
X176759999Y-124475000D01*
X176759999Y-122115000D02*
X176759999Y-121975000D01*
X175339999Y-122115000D02*
X175339999Y-121975000D01*
X176759999Y-122115000D02*
X176759999Y-124335000D01*
X176759999Y-124475000D02*
X175339999Y-124475000D01*
X175339999Y-124335000D02*
X175339999Y-122115000D01*
X175339999Y-121975000D02*
X176759999Y-121975000D01*
%TO.C,C200*%
X166040000Y-129335000D02*
X166040000Y-129475000D01*
X167460000Y-129335000D02*
X167460000Y-129475000D01*
X167460000Y-127115000D02*
X167460000Y-126975000D01*
X166040000Y-127115000D02*
X166040000Y-126975000D01*
X167460000Y-127115000D02*
X167460000Y-129335000D01*
X167460000Y-129475000D02*
X166040000Y-129475000D01*
X166040000Y-129335000D02*
X166040000Y-127115000D01*
X166040000Y-126975000D02*
X167460000Y-126975000D01*
D13*
%TO.C,L2*%
X166100000Y-126775000D02*
X170300000Y-126775000D01*
X170300000Y-122575000D02*
X166100000Y-122575000D01*
X166100000Y-122575000D02*
X166100000Y-126775000D01*
X170300000Y-126775000D02*
X170300000Y-122575000D01*
D12*
%TO.C,R121*%
X148155000Y-78280000D02*
X148155000Y-76420000D01*
X149095000Y-78280000D02*
X148155000Y-78280000D01*
X149095000Y-76420000D02*
X149095000Y-78280000D01*
X148155000Y-76420000D02*
X149095000Y-76420000D01*
%TO.C,D13*%
X151975000Y-76190000D02*
X149175000Y-76190000D01*
X151975000Y-77610000D02*
X149175000Y-77610000D01*
X149175000Y-76190000D02*
X149175000Y-77610000D01*
X151975000Y-76190000D02*
X151975000Y-77610000D01*
%TO.C,D12*%
X180650000Y-127240000D02*
X177850000Y-127240000D01*
X180650000Y-128660000D02*
X177850000Y-128660000D01*
X177850000Y-127240000D02*
X177850000Y-128660000D01*
X180650000Y-127240000D02*
X180650000Y-128660000D01*
%TO.C,R64*%
X116920000Y-93480000D02*
X115980000Y-93480000D01*
X115980000Y-93480000D02*
X115980000Y-91620000D01*
X115980000Y-91620000D02*
X116920000Y-91620000D01*
X116920000Y-91620000D02*
X116920000Y-93480000D01*
%TO.C,R63*%
X113370000Y-90345000D02*
X113370000Y-89405000D01*
X113370000Y-89405000D02*
X115230000Y-89405000D01*
X115230000Y-89405000D02*
X115230000Y-90345000D01*
X115230000Y-90345000D02*
X113370000Y-90345000D01*
%TO.C,C116*%
X88100000Y-96770000D02*
X88100000Y-98630000D01*
X84300000Y-96770000D02*
X84300000Y-98630000D01*
X88100000Y-98630000D02*
X84300000Y-98630000D01*
X88100000Y-96770000D02*
X84300000Y-96770000D01*
%TO.C,C64*%
X123455000Y-74630000D02*
X123455000Y-72770000D01*
X124395000Y-74630000D02*
X123455000Y-74630000D01*
X124395000Y-72770000D02*
X124395000Y-74630000D01*
X123455000Y-72770000D02*
X124395000Y-72770000D01*
%TO.C,R150*%
X129770000Y-118885000D02*
X129770000Y-120745000D01*
X128830000Y-118885000D02*
X129770000Y-118885000D01*
X128830000Y-120745000D02*
X128830000Y-118885000D01*
X129770000Y-120745000D02*
X128830000Y-120745000D01*
%TO.C,U15*%
X172800000Y-140950000D02*
X175800000Y-140950000D01*
X172800000Y-142850000D02*
X172800000Y-140950000D01*
X175800000Y-142850000D02*
X172800000Y-142850000D01*
X175800000Y-140950000D02*
X175800000Y-142850000D01*
%TO.C,U41*%
X80650000Y-137500000D02*
X80650000Y-134500000D01*
X82550000Y-137500000D02*
X80650000Y-137500000D01*
X82550000Y-134500000D02*
X82550000Y-137500000D01*
X80650000Y-134500000D02*
X82550000Y-134500000D01*
%TO.C,U3*%
X87500000Y-69650000D02*
X84500000Y-69650000D01*
X87500000Y-67750000D02*
X87500000Y-69650000D01*
X84500000Y-67750000D02*
X87500000Y-67750000D01*
X84500000Y-69650000D02*
X84500000Y-67750000D01*
%TO.C,U25*%
X111900000Y-74250000D02*
X108900000Y-74250000D01*
X111900000Y-72350000D02*
X111900000Y-74250000D01*
X108900000Y-72350000D02*
X111900000Y-72350000D01*
X108900000Y-74250000D02*
X108900000Y-72350000D01*
D14*
%TO.C,U24*%
X136500000Y-51950000D02*
X123000000Y-51950000D01*
X136500000Y-51950000D02*
X136500000Y-71450000D01*
X136500000Y-71450000D02*
X123000000Y-71450000D01*
X123000000Y-71450000D02*
X123000000Y-51950000D01*
D12*
%TO.C,U19*%
X131250000Y-74200000D02*
X128250000Y-74200000D01*
X131250000Y-72300000D02*
X131250000Y-74200000D01*
X128250000Y-72300000D02*
X131250000Y-72300000D01*
X128250000Y-74200000D02*
X128250000Y-72300000D01*
%TO.C,C46*%
X130880000Y-79270000D02*
X129020000Y-79270000D01*
X130880000Y-78330000D02*
X130880000Y-79270000D01*
X129020000Y-78330000D02*
X130880000Y-78330000D01*
X129020000Y-79270000D02*
X129020000Y-78330000D01*
%TO.C,U40*%
X143760000Y-122800000D02*
X143760000Y-113800000D01*
X152760000Y-122800000D02*
X143760000Y-122800000D01*
X152760000Y-113800000D02*
X152760000Y-122800000D01*
X143760000Y-113800000D02*
X152760000Y-113800000D01*
%TO.C,R73*%
X140845000Y-90740000D02*
X142705000Y-90740000D01*
X140845000Y-91680000D02*
X140845000Y-90740000D01*
X142705000Y-91680000D02*
X140845000Y-91680000D01*
X142705000Y-90740000D02*
X142705000Y-91680000D01*
D14*
%TO.C,U29*%
X103650000Y-71450000D02*
X103650000Y-51950000D01*
X117150000Y-71450000D02*
X103650000Y-71450000D01*
X117150000Y-51950000D02*
X117150000Y-71450000D01*
X117150000Y-51950000D02*
X103650000Y-51950000D01*
D12*
%TO.C,Y3*%
X102925000Y-97275000D02*
X99725000Y-97275000D01*
X102925000Y-94275000D02*
X99725000Y-94275000D01*
X99725000Y-97275000D02*
X99725000Y-94275000D01*
X102925000Y-94275000D02*
X102925000Y-97275000D01*
%TO.C,Y1*%
X110500000Y-119100000D02*
X110500000Y-122300000D01*
X107500000Y-119100000D02*
X107500000Y-122300000D01*
X110500000Y-122300000D02*
X107500000Y-122300000D01*
X107500000Y-119100000D02*
X110500000Y-119100000D01*
D11*
%TO.C,Y6*%
X143819954Y-87308222D02*
X141569954Y-87308222D01*
X143819954Y-85408222D02*
X143819954Y-87308222D01*
X141569954Y-85408222D02*
X143819954Y-85408222D01*
X141569954Y-87308222D02*
X141569954Y-85408222D01*
%TO.C,Y5*%
X125942501Y-96497500D02*
X128192501Y-96497500D01*
X125942501Y-98397500D02*
X125942501Y-96497500D01*
X128192501Y-98397500D02*
X125942501Y-98397500D01*
X128192501Y-96497500D02*
X128192501Y-98397500D01*
D12*
%TO.C,L6*%
X167981999Y-116185000D02*
X167981999Y-118415000D01*
X171311999Y-116185000D02*
X171311999Y-118415000D01*
X171311999Y-118415000D02*
X167981999Y-118415000D01*
X171311999Y-116185000D02*
X167981999Y-116185000D01*
%TO.C,L5*%
X177535000Y-116260000D02*
X177535000Y-118490000D01*
X180865000Y-116260000D02*
X180865000Y-118490000D01*
X180865000Y-118490000D02*
X177535000Y-118490000D01*
X180865000Y-116260000D02*
X177535000Y-116260000D01*
%TO.C,L8*%
X180240000Y-137139999D02*
X180240000Y-134909999D01*
X176910000Y-137139999D02*
X176910000Y-134909999D01*
X176910000Y-134909999D02*
X180240000Y-134909999D01*
X176910000Y-137139999D02*
X180240000Y-137139999D01*
%TO.C,L9*%
X189465000Y-137040001D02*
X189465000Y-134810001D01*
X186135000Y-137040001D02*
X186135000Y-134810001D01*
X186135000Y-134810001D02*
X189465000Y-134810001D01*
X186135000Y-137040001D02*
X189465000Y-137040001D01*
%TO.C,SP2*%
X163206999Y-144443500D02*
G75*
G03*
X163206999Y-144443500I-3000000J0D01*
G01*
%TO.C,D11*%
X181960000Y-78880000D02*
X184760000Y-78880000D01*
X181960000Y-77460000D02*
X184760000Y-77460000D01*
X184760000Y-78880000D02*
X184760000Y-77460000D01*
X181960000Y-78880000D02*
X181960000Y-77460000D01*
%TO.C,J_SOM240_1*%
X88826500Y-139281500D02*
X88826500Y-95961500D01*
X88826500Y-95961500D02*
X93494500Y-95961500D01*
X93494500Y-95961500D02*
X94326500Y-96793500D01*
X94326500Y-96793500D02*
X94326500Y-138449500D01*
X94326500Y-138449500D02*
X93494500Y-139281500D01*
X93494500Y-139281500D02*
X88826500Y-139281500D01*
%TO.C,C77*%
X111155000Y-76075000D02*
X111155000Y-74215000D01*
X112095000Y-76075000D02*
X111155000Y-76075000D01*
X112095000Y-74215000D02*
X112095000Y-76075000D01*
X111155000Y-74215000D02*
X112095000Y-74215000D01*
%TO.C,R101*%
X147755000Y-110930000D02*
X147755000Y-109070000D01*
X148695000Y-110930000D02*
X147755000Y-110930000D01*
X148695000Y-109070000D02*
X148695000Y-110930000D01*
X147755000Y-109070000D02*
X148695000Y-109070000D01*
%TO.C,U11*%
X82975000Y-117300001D02*
X84775000Y-117300001D01*
X84775000Y-117300001D02*
X84775000Y-118800001D01*
X84775000Y-118800001D02*
X82975000Y-118800001D01*
X82975000Y-118800001D02*
X82975000Y-117300001D01*
%TO.C,C31*%
X81905000Y-118880000D02*
X81905000Y-117020000D01*
X82845000Y-118880000D02*
X81905000Y-118880000D01*
X82845000Y-117020000D02*
X82845000Y-118880000D01*
X81905000Y-117020000D02*
X82845000Y-117020000D01*
%TO.C,C30*%
X82944999Y-118880000D02*
X84804999Y-118880000D01*
X82944999Y-119820000D02*
X82944999Y-118880000D01*
X84804999Y-119820000D02*
X82944999Y-119820000D01*
X84804999Y-118880000D02*
X84804999Y-119820000D01*
%TO.C,R28*%
X80855000Y-120180000D02*
X80855000Y-118320000D01*
X81795000Y-120180000D02*
X80855000Y-120180000D01*
X81795000Y-118320000D02*
X81795000Y-120180000D01*
X80855000Y-118320000D02*
X81795000Y-118320000D01*
%TO.C,R27*%
X78955000Y-120180000D02*
X78955000Y-118320000D01*
X79895000Y-120180000D02*
X78955000Y-120180000D01*
X79895000Y-118320000D02*
X79895000Y-120180000D01*
X78955000Y-118320000D02*
X79895000Y-118320000D01*
%TO.C,R26*%
X79905000Y-120180000D02*
X79905000Y-118320000D01*
X80845000Y-120180000D02*
X79905000Y-120180000D01*
X80845000Y-118320000D02*
X80845000Y-120180000D01*
X79905000Y-118320000D02*
X80845000Y-118320000D01*
%TO.C,R25*%
X78005000Y-120180000D02*
X78005000Y-118320000D01*
X78945000Y-120180000D02*
X78005000Y-120180000D01*
X78945000Y-118320000D02*
X78945000Y-120180000D01*
X78005000Y-118320000D02*
X78945000Y-118320000D01*
%TO.C,D24*%
X145922900Y-65443500D02*
X146630900Y-65443500D01*
X145922900Y-65049800D02*
X145922900Y-65443500D01*
X141427100Y-65049800D02*
X145922900Y-65049800D01*
X141427100Y-65443500D02*
X141427100Y-65049800D01*
X140719100Y-65443500D02*
X141427100Y-65443500D01*
X140719100Y-67856500D02*
X140719100Y-65443500D01*
X141427100Y-67856500D02*
X140719100Y-67856500D01*
X141427100Y-68250200D02*
X141427100Y-67856500D01*
X145922900Y-68250200D02*
X141427100Y-68250200D01*
X145922900Y-67856500D02*
X145922900Y-68250200D01*
X146630900Y-67856500D02*
X145922900Y-67856500D01*
X146630900Y-65443500D02*
X146630900Y-67856500D01*
X141427100Y-65049800D02*
X145922900Y-65049800D01*
X141427100Y-65443500D02*
X141427100Y-65049800D01*
X141427100Y-68250200D02*
X141427100Y-67856500D01*
X145922900Y-68250200D02*
X141427100Y-68250200D01*
X145922900Y-67856500D02*
X145922900Y-68250200D01*
X145922900Y-65049800D02*
X145922900Y-65443500D01*
X145922900Y-65443500D02*
X146630900Y-65443500D01*
X140719100Y-65443500D02*
X141427100Y-65443500D01*
X140719100Y-67856500D02*
X140719100Y-65443500D01*
X141427100Y-67856500D02*
X140719100Y-67856500D01*
X146630900Y-67856500D02*
X145922900Y-67856500D01*
X146630900Y-65443500D02*
X146630900Y-67856500D01*
%TO.C,D23*%
X184658500Y-121752100D02*
X184658500Y-121044100D01*
X184264800Y-121752100D02*
X184658500Y-121752100D01*
X184264800Y-126247900D02*
X184264800Y-121752100D01*
X184658500Y-126247900D02*
X184264800Y-126247900D01*
X184658500Y-126955900D02*
X184658500Y-126247900D01*
X187071500Y-126955900D02*
X184658500Y-126955900D01*
X187071500Y-126247900D02*
X187071500Y-126955900D01*
X187465200Y-126247900D02*
X187071500Y-126247900D01*
X187465200Y-121752100D02*
X187465200Y-126247900D01*
X187071500Y-121752100D02*
X187465200Y-121752100D01*
X187071500Y-121044100D02*
X187071500Y-121752100D01*
X184658500Y-121044100D02*
X187071500Y-121044100D01*
X184264800Y-126247900D02*
X184264800Y-121752100D01*
X184658500Y-126247900D02*
X184264800Y-126247900D01*
X187465200Y-126247900D02*
X187071500Y-126247900D01*
X187465200Y-121752100D02*
X187465200Y-126247900D01*
X187071500Y-121752100D02*
X187465200Y-121752100D01*
X184264800Y-121752100D02*
X184658500Y-121752100D01*
X184658500Y-121752100D02*
X184658500Y-121044100D01*
X184658500Y-126955900D02*
X184658500Y-126247900D01*
X187071500Y-126955900D02*
X184658500Y-126955900D01*
X187071500Y-126247900D02*
X187071500Y-126955900D01*
X187071500Y-121044100D02*
X187071500Y-121752100D01*
X184658500Y-121044100D02*
X187071500Y-121044100D01*
%TO.C,U17*%
X128367342Y-78286461D02*
X128367342Y-79378861D01*
X128367342Y-79378861D02*
X128667342Y-79378861D01*
X128667342Y-79378861D02*
X128667342Y-89690861D01*
X128667342Y-89690861D02*
X128367342Y-89690861D01*
X128367342Y-89690861D02*
X128367342Y-90783261D01*
X128367342Y-90783261D02*
X127274942Y-90783261D01*
X127274942Y-90783261D02*
X127274942Y-91083261D01*
X127274942Y-91083261D02*
X116962942Y-91083261D01*
X116962942Y-91083261D02*
X116962942Y-90783261D01*
X116962942Y-90783261D02*
X115870542Y-90783261D01*
X115870542Y-90783261D02*
X115870542Y-89690861D01*
X115870542Y-89690861D02*
X115570542Y-89690861D01*
X115570542Y-89690861D02*
X115570542Y-79378861D01*
X115570542Y-79378861D02*
X115870542Y-79378861D01*
X115870542Y-79378861D02*
X115870542Y-78286461D01*
X115870542Y-78286461D02*
X116962942Y-78286461D01*
X116962942Y-78286461D02*
X116962942Y-77986461D01*
X116962942Y-77986461D02*
X127274942Y-77986461D01*
X127274942Y-77986461D02*
X127274942Y-78286461D01*
X127274942Y-78286461D02*
X128367342Y-78286461D01*
X128367342Y-78286461D02*
X128367342Y-79378861D01*
X128367342Y-79378861D02*
X128667342Y-79378861D01*
X128667342Y-79378861D02*
X128667342Y-89690861D01*
X128667342Y-89690861D02*
X128367342Y-89690861D01*
X128367342Y-89690861D02*
X128367342Y-90783261D01*
X128367342Y-90783261D02*
X127274942Y-90783261D01*
X127274942Y-90783261D02*
X127274942Y-91083261D01*
X127274942Y-91083261D02*
X116962942Y-91083261D01*
X116962942Y-91083261D02*
X116962942Y-90783261D01*
X116962942Y-90783261D02*
X115870542Y-90783261D01*
X115870542Y-90783261D02*
X115870542Y-89690861D01*
X115870542Y-89690861D02*
X115570542Y-89690861D01*
X115570542Y-89690861D02*
X115570542Y-79378861D01*
X115570542Y-79378861D02*
X115870542Y-79378861D01*
X115870542Y-79378861D02*
X115870542Y-78286461D01*
X115870542Y-78286461D02*
X116962942Y-78286461D01*
X116962942Y-78286461D02*
X116962942Y-77986461D01*
X116962942Y-77986461D02*
X127274942Y-77986461D01*
X127274942Y-77986461D02*
X127274942Y-78286461D01*
X127274942Y-78286461D02*
X128367342Y-78286461D01*
%TO.C,C55*%
X125030000Y-93840000D02*
X125030000Y-91980000D01*
X125970000Y-93840000D02*
X125030000Y-93840000D01*
X125970000Y-91980000D02*
X125970000Y-93840000D01*
X125030000Y-91980000D02*
X125970000Y-91980000D01*
%TO.C,C54*%
X124130000Y-93840000D02*
X124130000Y-91980000D01*
X125070000Y-93840000D02*
X124130000Y-93840000D01*
X125070000Y-91980000D02*
X125070000Y-93840000D01*
X124130000Y-91980000D02*
X125070000Y-91980000D01*
D14*
%TO.C,J2*%
X124825000Y-150900000D02*
X124825000Y-139450000D01*
X136775000Y-150900000D02*
X124825000Y-150900000D01*
X136775000Y-139450000D02*
X136775000Y-150900000D01*
X124825000Y-139450000D02*
X136775000Y-139450000D01*
D12*
%TO.C,R99*%
X141570000Y-142370000D02*
X143430000Y-142370000D01*
X141570000Y-143310000D02*
X141570000Y-142370000D01*
X143430000Y-143310000D02*
X141570000Y-143310000D01*
X143430000Y-142370000D02*
X143430000Y-143310000D01*
%TO.C,U52*%
X168100000Y-118325000D02*
X168100000Y-121975000D01*
X172100000Y-118325000D02*
X168100000Y-118325000D01*
X172100000Y-121975000D02*
X172100000Y-118325000D01*
X172100000Y-121975000D02*
X168100000Y-121975000D01*
%TO.C,PS1*%
X190450000Y-113750000D02*
X190450000Y-87850000D01*
X164550000Y-113750000D02*
X190450000Y-113750000D01*
X164550000Y-87850000D02*
X164550000Y-113750000D01*
X190450000Y-87850000D02*
X164550000Y-87850000D01*
%TO.C,U38*%
X153400000Y-107250000D02*
X153400000Y-111450000D01*
X149750000Y-107250000D02*
X153400000Y-107250000D01*
X149750000Y-111450000D02*
X149750000Y-107250000D01*
X153400000Y-111450000D02*
X149750000Y-111450000D01*
%TO.C,D7*%
X153400000Y-109450000D02*
X155250000Y-109450000D01*
X153400000Y-112450000D02*
X153400000Y-109450000D01*
X155250000Y-112450000D02*
X153400000Y-112450000D01*
X155250000Y-109450000D02*
X155250000Y-112450000D01*
%TO.C,D6*%
X155250000Y-109300000D02*
X153400000Y-109300000D01*
X155250000Y-106300000D02*
X155250000Y-109300000D01*
X153400000Y-106300000D02*
X155250000Y-106300000D01*
X153400000Y-109300000D02*
X153400000Y-106300000D01*
%TO.C,D2*%
X167600000Y-142900000D02*
X166400000Y-142900000D01*
X166400000Y-140900000D02*
X167600000Y-140900000D01*
X167600000Y-140900000D02*
X167600000Y-142900000D01*
X166400000Y-142900000D02*
X166400000Y-140900000D01*
%TO.C,C100*%
X147830000Y-94760000D02*
X147830000Y-92900000D01*
X148770000Y-94760000D02*
X147830000Y-94760000D01*
X148770000Y-92900000D02*
X148770000Y-94760000D01*
X147830000Y-92900000D02*
X148770000Y-92900000D01*
%TO.C,C101*%
X155036621Y-90587588D02*
X153176621Y-90587588D01*
X155036621Y-89647588D02*
X155036621Y-90587588D01*
X153176621Y-89647588D02*
X155036621Y-89647588D01*
X153176621Y-90587588D02*
X153176621Y-89647588D01*
%TO.C,C106*%
X142770000Y-91044035D02*
X144630000Y-91044035D01*
X142770000Y-91984035D02*
X142770000Y-91044035D01*
X144630000Y-91984035D02*
X142770000Y-91984035D01*
X144630000Y-91044035D02*
X144630000Y-91984035D01*
%TO.C,C107*%
X148775911Y-94769035D02*
X148775911Y-92909035D01*
X149715911Y-94769035D02*
X148775911Y-94769035D01*
X149715911Y-92909035D02*
X149715911Y-94769035D01*
X148775911Y-92909035D02*
X149715911Y-92909035D01*
%TO.C,C108*%
X155046622Y-89637588D02*
X153186622Y-89637588D01*
X155046622Y-88697588D02*
X155046622Y-89637588D01*
X153186622Y-88697588D02*
X155046622Y-88697588D01*
X153186622Y-89637588D02*
X153186622Y-88697588D01*
%TO.C,C14*%
X133945000Y-136970000D02*
X132085000Y-136970000D01*
X133945000Y-136030000D02*
X133945000Y-136970000D01*
X132085000Y-136030000D02*
X133945000Y-136030000D01*
X132085000Y-136970000D02*
X132085000Y-136030000D01*
%TO.C,C171*%
X186246600Y-71004773D02*
X186246600Y-74804773D01*
X188106600Y-71004773D02*
X188106600Y-74804773D01*
X186246600Y-74804773D02*
X188106600Y-74804773D01*
X186246600Y-71004773D02*
X188106600Y-71004773D01*
%TO.C,C16*%
X133935000Y-137970000D02*
X132075000Y-137970000D01*
X133935000Y-137030000D02*
X133935000Y-137970000D01*
X132075000Y-137030000D02*
X133935000Y-137030000D01*
X132075000Y-137970000D02*
X132075000Y-137030000D01*
%TO.C,C22*%
X110405000Y-96905000D02*
X110405000Y-95045000D01*
X111345000Y-96905000D02*
X110405000Y-96905000D01*
X111345000Y-95045000D02*
X111345000Y-96905000D01*
X110405000Y-95045000D02*
X111345000Y-95045000D01*
%TO.C,C25*%
X112595000Y-96145000D02*
X112595000Y-98005000D01*
X111655000Y-96145000D02*
X112595000Y-96145000D01*
X111655000Y-98005000D02*
X111655000Y-96145000D01*
X112595000Y-98005000D02*
X111655000Y-98005000D01*
%TO.C,C180*%
X190185000Y-117600000D02*
X190185000Y-115300000D01*
X190185000Y-115300000D02*
X184585000Y-115300000D01*
X184585000Y-115300000D02*
X184585000Y-117600000D01*
X184585000Y-117600000D02*
X190185000Y-117600000D01*
%TO.C,C181*%
X190199999Y-119950000D02*
X190199999Y-117650000D01*
X190199999Y-117650000D02*
X184599999Y-117650000D01*
X184599999Y-117650000D02*
X184599999Y-119950000D01*
X184599999Y-119950000D02*
X190199999Y-119950000D01*
%TO.C,C182*%
X187830000Y-115220000D02*
X185970000Y-115220000D01*
X187830000Y-114280000D02*
X187830000Y-115220000D01*
X185970000Y-114280000D02*
X187830000Y-114280000D01*
X185970000Y-115220000D02*
X185970000Y-114280000D01*
%TO.C,C201*%
X170890000Y-136940000D02*
X170750000Y-136940000D01*
X170890000Y-138360000D02*
X170750000Y-138360000D01*
X173110000Y-138360000D02*
X173250000Y-138360000D01*
X173110000Y-136940000D02*
X173250000Y-136940000D01*
X173110000Y-138360000D02*
X170890000Y-138360000D01*
X170750000Y-138360000D02*
X170750000Y-136940000D01*
X170890000Y-136940000D02*
X173110000Y-136940000D01*
X173250000Y-136940000D02*
X173250000Y-138360000D01*
%TO.C,C203*%
X177710000Y-119165000D02*
X177710000Y-119025000D01*
X176290000Y-119165000D02*
X176290000Y-119025000D01*
X176290000Y-121385000D02*
X176290000Y-121525000D01*
X177710000Y-121385000D02*
X177710000Y-121525000D01*
X176290000Y-121385000D02*
X176290000Y-119165000D01*
X176290000Y-119025000D02*
X177710000Y-119025000D01*
X177710000Y-119165000D02*
X177710000Y-121385000D01*
X177710000Y-121525000D02*
X176290000Y-121525000D01*
%TO.C,C204*%
X167960000Y-119190000D02*
X167960000Y-119050000D01*
X166540000Y-119190000D02*
X166540000Y-119050000D01*
X166540000Y-121410000D02*
X166540000Y-121550000D01*
X167960000Y-121410000D02*
X167960000Y-121550000D01*
X166540000Y-121410000D02*
X166540000Y-119190000D01*
X166540000Y-119050000D02*
X167960000Y-119050000D01*
X167960000Y-119190000D02*
X167960000Y-121410000D01*
X167960000Y-121550000D02*
X166540000Y-121550000D01*
%TO.C,C206*%
X169430000Y-132670000D02*
X167570000Y-132670000D01*
X169430000Y-131730000D02*
X169430000Y-132670000D01*
X167570000Y-131730000D02*
X169430000Y-131730000D01*
X167570000Y-132670000D02*
X167570000Y-131730000D01*
%TO.C,C208*%
X180930000Y-118405000D02*
X180930000Y-116545000D01*
X181870000Y-118405000D02*
X180930000Y-118405000D01*
X181870000Y-116545000D02*
X181870000Y-118405000D01*
X180930000Y-116545000D02*
X181870000Y-116545000D01*
%TO.C,C209*%
X171380000Y-118230000D02*
X171380000Y-116370000D01*
X172320000Y-118230000D02*
X171380000Y-118230000D01*
X172320000Y-116370000D02*
X172320000Y-118230000D01*
X171380000Y-116370000D02*
X172320000Y-116370000D01*
%TO.C,C211*%
X168140000Y-138090000D02*
X168000000Y-138090000D01*
X168140000Y-139510000D02*
X168000000Y-139510000D01*
X170360000Y-139510000D02*
X170500000Y-139510000D01*
X170360000Y-138090000D02*
X170500000Y-138090000D01*
X170360000Y-139510000D02*
X168140000Y-139510000D01*
X168000000Y-139510000D02*
X168000000Y-138090000D01*
X168140000Y-138090000D02*
X170360000Y-138090000D01*
X170500000Y-138090000D02*
X170500000Y-139510000D01*
%TO.C,C213*%
X177710000Y-116365000D02*
X177710000Y-116225000D01*
X176290000Y-116365000D02*
X176290000Y-116225000D01*
X176290000Y-118585000D02*
X176290000Y-118725000D01*
X177710000Y-118585000D02*
X177710000Y-118725000D01*
X176290000Y-118585000D02*
X176290000Y-116365000D01*
X176290000Y-116225000D02*
X177710000Y-116225000D01*
X177710000Y-116365000D02*
X177710000Y-118585000D01*
X177710000Y-118725000D02*
X176290000Y-118725000D01*
%TO.C,C214*%
X166810000Y-116340000D02*
X166810000Y-116200000D01*
X165390000Y-116340000D02*
X165390000Y-116200000D01*
X165390000Y-118560000D02*
X165390000Y-118700000D01*
X166810000Y-118560000D02*
X166810000Y-118700000D01*
X165390000Y-118560000D02*
X165390000Y-116340000D01*
X165390000Y-116200000D02*
X166810000Y-116200000D01*
X166810000Y-116340000D02*
X166810000Y-118560000D01*
X166810000Y-118700000D02*
X165390000Y-118700000D01*
%TO.C,C216*%
X168140000Y-136940000D02*
X168000000Y-136940000D01*
X168140000Y-138360000D02*
X168000000Y-138360000D01*
X170360000Y-138360000D02*
X170500000Y-138360000D01*
X170360000Y-136940000D02*
X170500000Y-136940000D01*
X170360000Y-138360000D02*
X168140000Y-138360000D01*
X168000000Y-138360000D02*
X168000000Y-136940000D01*
X168140000Y-136940000D02*
X170360000Y-136940000D01*
X170500000Y-136940000D02*
X170500000Y-138360000D01*
%TO.C,C217*%
X176510000Y-116365000D02*
X176510000Y-116225000D01*
X175090000Y-116365000D02*
X175090000Y-116225000D01*
X175090000Y-118585000D02*
X175090000Y-118725000D01*
X176510000Y-118585000D02*
X176510000Y-118725000D01*
X175090000Y-118585000D02*
X175090000Y-116365000D01*
X175090000Y-116225000D02*
X176510000Y-116225000D01*
X176510000Y-116365000D02*
X176510000Y-118585000D01*
X176510000Y-118725000D02*
X175090000Y-118725000D01*
%TO.C,C218*%
X167985000Y-116345000D02*
X167985000Y-116205000D01*
X166565000Y-116345000D02*
X166565000Y-116205000D01*
X166565000Y-118565000D02*
X166565000Y-118705000D01*
X167985000Y-118565000D02*
X167985000Y-118705000D01*
X166565000Y-118565000D02*
X166565000Y-116345000D01*
X166565000Y-116205000D02*
X167985000Y-116205000D01*
X167985000Y-116345000D02*
X167985000Y-118565000D01*
X167985000Y-118705000D02*
X166565000Y-118705000D01*
%TO.C,C219*%
X180065000Y-134285000D02*
X180065000Y-134425000D01*
X181485000Y-134285000D02*
X181485000Y-134425000D01*
X181485000Y-132065000D02*
X181485000Y-131925000D01*
X180065000Y-132065000D02*
X180065000Y-131925000D01*
X181485000Y-132065000D02*
X181485000Y-134285000D01*
X181485000Y-134425000D02*
X180065000Y-134425000D01*
X180065000Y-134285000D02*
X180065000Y-132065000D01*
X180065000Y-131925000D02*
X181485000Y-131925000D01*
%TO.C,C220*%
X189190000Y-134210000D02*
X189190000Y-134350000D01*
X190610000Y-134210000D02*
X190610000Y-134350000D01*
X190610000Y-131990000D02*
X190610000Y-131850000D01*
X189190000Y-131990000D02*
X189190000Y-131850000D01*
X190610000Y-131990000D02*
X190610000Y-134210000D01*
X190610000Y-134350000D02*
X189190000Y-134350000D01*
X189190000Y-134210000D02*
X189190000Y-131990000D01*
X189190000Y-131850000D02*
X190610000Y-131850000D01*
%TO.C,C221*%
X176770000Y-134895000D02*
X176770000Y-136755000D01*
X175830000Y-134895000D02*
X176770000Y-134895000D01*
X175830000Y-136755000D02*
X175830000Y-134895000D01*
X176770000Y-136755000D02*
X175830000Y-136755000D01*
%TO.C,C222*%
X186070000Y-134895000D02*
X186070000Y-136755000D01*
X185130000Y-134895000D02*
X186070000Y-134895000D01*
X185130000Y-136755000D02*
X185130000Y-134895000D01*
X186070000Y-136755000D02*
X185130000Y-136755000D01*
%TO.C,C223*%
X180115000Y-137035000D02*
X180115000Y-137175000D01*
X181535000Y-137035000D02*
X181535000Y-137175000D01*
X181535000Y-134815000D02*
X181535000Y-134675000D01*
X180115000Y-134815000D02*
X180115000Y-134675000D01*
X181535000Y-134815000D02*
X181535000Y-137035000D01*
X181535000Y-137175000D02*
X180115000Y-137175000D01*
X180115000Y-137035000D02*
X180115000Y-134815000D01*
X180115000Y-134675000D02*
X181535000Y-134675000D01*
%TO.C,C224*%
X189275356Y-136956752D02*
X189275356Y-137096752D01*
X190695356Y-136956752D02*
X190695356Y-137096752D01*
X190695356Y-134736752D02*
X190695356Y-134596752D01*
X189275356Y-134736752D02*
X189275356Y-134596752D01*
X190695356Y-134736752D02*
X190695356Y-136956752D01*
X190695356Y-137096752D02*
X189275356Y-137096752D01*
X189275356Y-136956752D02*
X189275356Y-134736752D01*
X189275356Y-134596752D02*
X190695356Y-134596752D01*
%TO.C,C225*%
X181290000Y-137035000D02*
X181290000Y-137175000D01*
X182710000Y-137035000D02*
X182710000Y-137175000D01*
X182710000Y-134815000D02*
X182710000Y-134675000D01*
X181290000Y-134815000D02*
X181290000Y-134675000D01*
X182710000Y-134815000D02*
X182710000Y-137035000D01*
X182710000Y-137175000D02*
X181290000Y-137175000D01*
X181290000Y-137035000D02*
X181290000Y-134815000D01*
X181290000Y-134675000D02*
X182710000Y-134675000D01*
%TO.C,C226*%
X190490000Y-136956752D02*
X190490000Y-137096752D01*
X191910000Y-136956752D02*
X191910000Y-137096752D01*
X191910000Y-134736752D02*
X191910000Y-134596752D01*
X190490000Y-134736752D02*
X190490000Y-134596752D01*
X191910000Y-134736752D02*
X191910000Y-136956752D01*
X191910000Y-137096752D02*
X190490000Y-137096752D01*
X190490000Y-136956752D02*
X190490000Y-134736752D01*
X190490000Y-134596752D02*
X191910000Y-134596752D01*
%TO.C,C227*%
X190230000Y-67030000D02*
X190230000Y-65170000D01*
X191170000Y-67030000D02*
X190230000Y-67030000D01*
X191170000Y-65170000D02*
X191170000Y-67030000D01*
X190230000Y-65170000D02*
X191170000Y-65170000D01*
%TO.C,C228*%
X188930000Y-123930000D02*
X188930000Y-122070000D01*
X189870000Y-123930000D02*
X188930000Y-123930000D01*
X189870000Y-122070000D02*
X189870000Y-123930000D01*
X188930000Y-122070000D02*
X189870000Y-122070000D01*
%TO.C,C229*%
X148570000Y-65985000D02*
X148570000Y-67845000D01*
X147630000Y-65985000D02*
X148570000Y-65985000D01*
X147630000Y-67845000D02*
X147630000Y-65985000D01*
X148570000Y-67845000D02*
X147630000Y-67845000D01*
%TO.C,C230*%
X190780000Y-68070000D02*
X188920000Y-68070000D01*
X190780000Y-67130000D02*
X190780000Y-68070000D01*
X188920000Y-67130000D02*
X190780000Y-67130000D01*
X188920000Y-68070000D02*
X188920000Y-67130000D01*
%TO.C,C231*%
X150430000Y-61070000D02*
X148570000Y-61070000D01*
X150430000Y-60130000D02*
X150430000Y-61070000D01*
X148570000Y-60130000D02*
X150430000Y-60130000D01*
X148570000Y-61070000D02*
X148570000Y-60130000D01*
%TO.C,C232*%
X187705000Y-62220000D02*
X185845000Y-62220000D01*
X187705000Y-61280000D02*
X187705000Y-62220000D01*
X185845000Y-61280000D02*
X187705000Y-61280000D01*
X185845000Y-62220000D02*
X185845000Y-61280000D01*
%TO.C,C56*%
X130880000Y-80270000D02*
X129020000Y-80270000D01*
X130880000Y-79330000D02*
X130880000Y-80270000D01*
X129020000Y-79330000D02*
X130880000Y-79330000D01*
X129020000Y-80270000D02*
X129020000Y-79330000D01*
%TO.C,C52*%
X122278776Y-93835079D02*
X122278776Y-91975079D01*
X123218776Y-93835079D02*
X122278776Y-93835079D01*
X123218776Y-91975079D02*
X123218776Y-93835079D01*
X122278776Y-91975079D02*
X123218776Y-91975079D01*
%TO.C,C53*%
X123178777Y-93835079D02*
X123178777Y-91975079D01*
X124118777Y-93835079D02*
X123178777Y-93835079D01*
X124118777Y-91975079D02*
X124118777Y-93835079D01*
X123178777Y-91975079D02*
X124118777Y-91975079D01*
%TO.C,C68*%
X129555000Y-76040000D02*
X129555000Y-74180000D01*
X130495000Y-76040000D02*
X129555000Y-76040000D01*
X130495000Y-74180000D02*
X130495000Y-76040000D01*
X129555000Y-74180000D02*
X130495000Y-74180000D01*
%TO.C,C69*%
X130505000Y-76040000D02*
X130505000Y-74180000D01*
X131445000Y-76040000D02*
X130505000Y-76040000D01*
X131445000Y-74180000D02*
X131445000Y-76040000D01*
X130505000Y-74180000D02*
X131445000Y-74180000D01*
%TO.C,C76*%
X110205000Y-76075000D02*
X110205000Y-74215000D01*
X111145000Y-76075000D02*
X110205000Y-76075000D01*
X111145000Y-74215000D02*
X111145000Y-76075000D01*
X110205000Y-74215000D02*
X111145000Y-74215000D01*
%TO.C,C235*%
X123545000Y-129370000D02*
X123545000Y-131230000D01*
X122605000Y-129370000D02*
X123545000Y-129370000D01*
X122605000Y-131230000D02*
X122605000Y-129370000D01*
X123545000Y-131230000D02*
X122605000Y-131230000D01*
%TO.C,C236*%
X122430000Y-114680000D02*
X122430000Y-112820000D01*
X123370000Y-114680000D02*
X122430000Y-114680000D01*
X123370000Y-112820000D02*
X123370000Y-114680000D01*
X122430000Y-112820000D02*
X123370000Y-112820000D01*
%TO.C,C237*%
X126110000Y-131485000D02*
X126250000Y-131485000D01*
X126110000Y-130065000D02*
X126250000Y-130065000D01*
X123890000Y-130065000D02*
X123750000Y-130065000D01*
X123890000Y-131485000D02*
X123750000Y-131485000D01*
X123890000Y-130065000D02*
X126110000Y-130065000D01*
X126250000Y-130065000D02*
X126250000Y-131485000D01*
X126110000Y-131485000D02*
X123890000Y-131485000D01*
X123750000Y-131485000D02*
X123750000Y-130065000D01*
%TO.C,C238*%
X126160000Y-113910000D02*
X126300000Y-113910000D01*
X126160000Y-112490000D02*
X126300000Y-112490000D01*
X123940000Y-112490000D02*
X123800000Y-112490000D01*
X123940000Y-113910000D02*
X123800000Y-113910000D01*
X123940000Y-112490000D02*
X126160000Y-112490000D01*
X126300000Y-112490000D02*
X126300000Y-113910000D01*
X126160000Y-113910000D02*
X123940000Y-113910000D01*
X123800000Y-113910000D02*
X123800000Y-112490000D01*
%TO.C,C6*%
X83985000Y-72247000D02*
X83985000Y-70387000D01*
X84925000Y-72247000D02*
X83985000Y-72247000D01*
X84925000Y-70387000D02*
X84925000Y-72247000D01*
X83985000Y-70387000D02*
X84925000Y-70387000D01*
%TO.C,C7*%
X84885000Y-72247000D02*
X84885000Y-70387000D01*
X85825000Y-72247000D02*
X84885000Y-72247000D01*
X85825000Y-70387000D02*
X85825000Y-72247000D01*
X84885000Y-70387000D02*
X85825000Y-70387000D01*
%TO.C,C10*%
X91335000Y-73747000D02*
X91335000Y-71887000D01*
X92275000Y-73747000D02*
X91335000Y-73747000D01*
X92275000Y-71887000D02*
X92275000Y-73747000D01*
X91335000Y-71887000D02*
X92275000Y-71887000D01*
%TO.C,C11*%
X92235000Y-73747000D02*
X92235000Y-71887000D01*
X93175000Y-73747000D02*
X92235000Y-73747000D01*
X93175000Y-71887000D02*
X93175000Y-73747000D01*
X92235000Y-71887000D02*
X93175000Y-71887000D01*
%TO.C,C8*%
X86185000Y-72247000D02*
X86185000Y-70387000D01*
X87125000Y-72247000D02*
X86185000Y-72247000D01*
X87125000Y-70387000D02*
X87125000Y-72247000D01*
X86185000Y-70387000D02*
X87125000Y-70387000D01*
%TO.C,C9*%
X87085000Y-72247000D02*
X87085000Y-70387000D01*
X88025000Y-72247000D02*
X87085000Y-72247000D01*
X88025000Y-70387000D02*
X88025000Y-72247000D01*
X87085000Y-70387000D02*
X88025000Y-70387000D01*
%TO.C,C115*%
X88100000Y-98720000D02*
X84300000Y-98720000D01*
X88100000Y-100580000D02*
X84300000Y-100580000D01*
X84300000Y-98720000D02*
X84300000Y-100580000D01*
X88100000Y-98720000D02*
X88100000Y-100580000D01*
%TO.C,C117*%
X86120000Y-100730000D02*
X87980000Y-100730000D01*
X86120000Y-101670000D02*
X86120000Y-100730000D01*
X87980000Y-101670000D02*
X86120000Y-101670000D01*
X87980000Y-100730000D02*
X87980000Y-101670000D01*
%TO.C,C118*%
X86120000Y-101730000D02*
X87980000Y-101730000D01*
X86120000Y-102670000D02*
X86120000Y-101730000D01*
X87980000Y-102670000D02*
X86120000Y-102670000D01*
X87980000Y-101730000D02*
X87980000Y-102670000D01*
%TO.C,C12*%
X135615000Y-135470000D02*
X135615000Y-137330000D01*
X134675000Y-135470000D02*
X135615000Y-135470000D01*
X134675000Y-137330000D02*
X134675000Y-135470000D01*
X135615000Y-137330000D02*
X134675000Y-137330000D01*
%TO.C,C13*%
X138375000Y-136930000D02*
X138375000Y-135070000D01*
X139315000Y-136930000D02*
X138375000Y-136930000D01*
X139315000Y-135070000D02*
X139315000Y-136930000D01*
X138375000Y-135070000D02*
X139315000Y-135070000D01*
%TO.C,C15*%
X138630000Y-138470000D02*
X136770000Y-138470000D01*
X138630000Y-137530000D02*
X138630000Y-138470000D01*
X136770000Y-137530000D02*
X138630000Y-137530000D01*
X136770000Y-138470000D02*
X136770000Y-137530000D01*
%TO.C,C21*%
X108670000Y-117880000D02*
X110530000Y-117880000D01*
X108670000Y-118820000D02*
X108670000Y-117880000D01*
X110530000Y-118820000D02*
X108670000Y-118820000D01*
X110530000Y-117880000D02*
X110530000Y-118820000D01*
%TO.C,C65*%
X125870000Y-98530000D02*
X127730000Y-98530000D01*
X125870000Y-99470000D02*
X125870000Y-98530000D01*
X127730000Y-99470000D02*
X125870000Y-99470000D01*
X127730000Y-98530000D02*
X127730000Y-99470000D01*
%TO.C,C26*%
X117830000Y-119370000D02*
X115970000Y-119370000D01*
X117830000Y-118430000D02*
X117830000Y-119370000D01*
X115970000Y-118430000D02*
X117830000Y-118430000D01*
X115970000Y-119370000D02*
X115970000Y-118430000D01*
%TO.C,C139*%
X110670000Y-143080000D02*
X112530000Y-143080000D01*
X110670000Y-144020000D02*
X110670000Y-143080000D01*
X112530000Y-144020000D02*
X110670000Y-144020000D01*
X112530000Y-143080000D02*
X112530000Y-144020000D01*
%TO.C,C133*%
X99245000Y-144770000D02*
X97385000Y-144770000D01*
X99245000Y-143830000D02*
X99245000Y-144770000D01*
X97385000Y-143830000D02*
X99245000Y-143830000D01*
X97385000Y-144770000D02*
X97385000Y-143830000D01*
%TO.C,C160*%
X142285000Y-107830000D02*
X144145000Y-107830000D01*
X142285000Y-108770000D02*
X142285000Y-107830000D01*
X144145000Y-108770000D02*
X142285000Y-108770000D01*
X144145000Y-107830000D02*
X144145000Y-108770000D01*
%TO.C,C154*%
X147155000Y-127465355D02*
X147155000Y-125605355D01*
X148095000Y-127465355D02*
X147155000Y-127465355D01*
X148095000Y-125605355D02*
X148095000Y-127465355D01*
X147155000Y-125605355D02*
X148095000Y-125605355D01*
%TO.C,C156*%
X152455000Y-125920000D02*
X152455000Y-124060000D01*
X153395000Y-125920000D02*
X152455000Y-125920000D01*
X153395000Y-124060000D02*
X153395000Y-125920000D01*
X152455000Y-124060000D02*
X153395000Y-124060000D01*
%TO.C,C125*%
X91965000Y-141610000D02*
X91965000Y-139750000D01*
X92905000Y-141610000D02*
X91965000Y-141610000D01*
X92905000Y-139750000D02*
X92905000Y-141610000D01*
X91965000Y-139750000D02*
X92905000Y-139750000D01*
%TO.C,C32*%
X95670000Y-131720000D02*
X95670000Y-133580000D01*
X94730000Y-131720000D02*
X95670000Y-131720000D01*
X94730000Y-133580000D02*
X94730000Y-131720000D01*
X95670000Y-133580000D02*
X94730000Y-133580000D01*
%TO.C,C35*%
X106430000Y-138420000D02*
X104570000Y-138420000D01*
X106430000Y-137480000D02*
X106430000Y-138420000D01*
X104570000Y-137480000D02*
X106430000Y-137480000D01*
X104570000Y-138420000D02*
X104570000Y-137480000D01*
%TO.C,C36*%
X166377322Y-140948033D02*
X166377322Y-142808033D01*
X165437322Y-140948033D02*
X166377322Y-140948033D01*
X165437322Y-142808033D02*
X165437322Y-140948033D01*
X166377322Y-142808033D02*
X165437322Y-142808033D01*
%TO.C,C37*%
X164370000Y-140948033D02*
X164370000Y-142808033D01*
X163430000Y-140948033D02*
X164370000Y-140948033D01*
X163430000Y-142808033D02*
X163430000Y-140948033D01*
X164370000Y-142808033D02*
X163430000Y-142808033D01*
%TO.C,C38*%
X165370000Y-140948033D02*
X165370000Y-142808033D01*
X164430000Y-140948033D02*
X165370000Y-140948033D01*
X164430000Y-142808033D02*
X164430000Y-140948033D01*
X165370000Y-142808033D02*
X164430000Y-142808033D01*
%TO.C,C27*%
X106820000Y-103270000D02*
X106820000Y-105130000D01*
X105880000Y-103270000D02*
X106820000Y-103270000D01*
X105880000Y-105130000D02*
X105880000Y-103270000D01*
X106820000Y-105130000D02*
X105880000Y-105130000D01*
%TO.C,C28*%
X104120001Y-95269999D02*
X104120001Y-97129999D01*
X103180001Y-95269999D02*
X104120001Y-95269999D01*
X103180001Y-97129999D02*
X103180001Y-95269999D01*
X104120001Y-97129999D02*
X103180001Y-97129999D01*
%TO.C,D9*%
X173690000Y-78130000D02*
X181910000Y-78130000D01*
X173690000Y-72670000D02*
X173690000Y-78130000D01*
X181910000Y-72670000D02*
X173690000Y-72670000D01*
X181910000Y-78130000D02*
X181910000Y-72670000D01*
%TO.C,D10*%
X182575000Y-70400000D02*
X182575000Y-77400000D01*
X185675000Y-70400000D02*
X185675000Y-77400000D01*
X185675000Y-77400000D02*
X182575000Y-77400000D01*
X185675000Y-70400000D02*
X182575000Y-70400000D01*
%TO.C,D4*%
X94050000Y-140125000D02*
X95900000Y-140125000D01*
X94050000Y-143125000D02*
X94050000Y-140125000D01*
X95900000Y-143125000D02*
X94050000Y-143125000D01*
X95900000Y-140125000D02*
X95900000Y-143125000D01*
%TO.C,D1*%
X94625000Y-67600000D02*
X96475000Y-67600000D01*
X94625000Y-70600000D02*
X94625000Y-67600000D01*
X96475000Y-70600000D02*
X94625000Y-70600000D01*
X96475000Y-67600000D02*
X96475000Y-70600000D01*
%TO.C,D5*%
X101200000Y-144675000D02*
X101200000Y-142825000D01*
X104200000Y-144675000D02*
X101200000Y-144675000D01*
X104200000Y-142825000D02*
X104200000Y-144675000D01*
X101200000Y-142825000D02*
X104200000Y-142825000D01*
%TO.C,D14*%
X172500000Y-130465000D02*
X169700000Y-130465000D01*
X172500000Y-131885000D02*
X169700000Y-131885000D01*
X169700000Y-130465000D02*
X169700000Y-131885000D01*
X172500000Y-130465000D02*
X172500000Y-131885000D01*
%TO.C,D15*%
X142490000Y-81749999D02*
X142490000Y-84549999D01*
X143910000Y-81749999D02*
X143910000Y-84549999D01*
X142490000Y-84549999D02*
X143910000Y-84549999D01*
X142490000Y-81749999D02*
X143910000Y-81749999D01*
%TO.C,D16*%
X182325000Y-114715000D02*
X179525000Y-114715000D01*
X182325000Y-116135000D02*
X179525000Y-116135000D01*
X179525000Y-114715000D02*
X179525000Y-116135000D01*
X182325000Y-114715000D02*
X182325000Y-116135000D01*
%TO.C,D19*%
X175375000Y-138610000D02*
X178175000Y-138610000D01*
X175375000Y-137190000D02*
X178175000Y-137190000D01*
X178175000Y-138610000D02*
X178175000Y-137190000D01*
X175375000Y-138610000D02*
X175375000Y-137190000D01*
%TO.C,D21*%
X185100000Y-70075000D02*
X185100000Y-68225000D01*
X188100000Y-70075000D02*
X185100000Y-70075000D01*
X188100000Y-68225000D02*
X188100000Y-70075000D01*
X185100000Y-68225000D02*
X188100000Y-68225000D01*
%TO.C,D22*%
X191400000Y-68225000D02*
X191400000Y-70075000D01*
X188400000Y-68225000D02*
X191400000Y-68225000D01*
X188400000Y-70075000D02*
X188400000Y-68225000D01*
X191400000Y-70075000D02*
X188400000Y-70075000D01*
%TO.C,FB3*%
X146130000Y-112770000D02*
X144270000Y-112770000D01*
X146130000Y-111830000D02*
X146130000Y-112770000D01*
X144270000Y-111830000D02*
X146130000Y-111830000D01*
X144270000Y-112770000D02*
X144270000Y-111830000D01*
%TO.C,FB4*%
X150220000Y-122980000D02*
X152080000Y-122980000D01*
X150220000Y-123920000D02*
X150220000Y-122980000D01*
X152080000Y-123920000D02*
X150220000Y-123920000D01*
X152080000Y-122980000D02*
X152080000Y-123920000D01*
%TO.C,FB5*%
X148980000Y-113630000D02*
X148980000Y-111770000D01*
X149920000Y-113630000D02*
X148980000Y-113630000D01*
X149920000Y-111770000D02*
X149920000Y-113630000D01*
X148980000Y-111770000D02*
X149920000Y-111770000D01*
%TO.C,IC1*%
X191225000Y-77375000D02*
X191225000Y-84825000D01*
X191225000Y-84825000D02*
X185725000Y-84825000D01*
X185725000Y-84825000D02*
X185725000Y-77375000D01*
X185725000Y-77375000D02*
X191225000Y-77375000D01*
D11*
%TO.C,J11*%
X185500000Y-52000000D02*
X185500000Y-67450000D01*
X185500000Y-67450000D02*
X174500000Y-67450000D01*
X174500000Y-67450000D02*
X174500000Y-52000000D01*
X174500000Y-52000000D02*
X185500000Y-52000000D01*
D12*
%TO.C,J4*%
X179875000Y-143315000D02*
X179875000Y-157084000D01*
X179875000Y-157084000D02*
X163625000Y-157084000D01*
X163625000Y-157084000D02*
X163625000Y-143315000D01*
X163625000Y-143315000D02*
X179875000Y-143315000D01*
%TO.C,J7*%
X107750000Y-147400000D02*
X115850000Y-147400000D01*
X115850000Y-147400000D02*
X115850000Y-148450000D01*
X115850000Y-148450000D02*
X117100000Y-148450000D01*
X117100000Y-148450000D02*
X117100000Y-149750000D01*
X117100000Y-149750000D02*
X117450000Y-149750000D01*
X117450000Y-149750000D02*
X117450000Y-152050000D01*
X117450000Y-152050000D02*
X106150000Y-152050000D01*
X106150000Y-152050000D02*
X106150000Y-149750000D01*
X106150000Y-149750000D02*
X106550000Y-149750000D01*
X106550000Y-149750000D02*
X106550000Y-148450000D01*
X106550000Y-148450000D02*
X107750000Y-148450000D01*
X107750000Y-148450000D02*
X107750000Y-147400000D01*
D13*
%TO.C,L3*%
X168925000Y-136950000D02*
X168925000Y-132750000D01*
X164725000Y-132750000D02*
X164725000Y-136950000D01*
X164725000Y-136950000D02*
X168925000Y-136950000D01*
X168925000Y-132750000D02*
X164725000Y-132750000D01*
D12*
%TO.C,Q16*%
X147675000Y-66950000D02*
X147675000Y-63050000D01*
X147675000Y-63050000D02*
X151325000Y-63050000D01*
X151325000Y-66950000D02*
X151325000Y-63050000D01*
X151325000Y-66950000D02*
X147675000Y-66950000D01*
%TO.C,R71*%
X153231522Y-87060152D02*
X155091522Y-87060152D01*
X153231522Y-88000152D02*
X153231522Y-87060152D01*
X155091522Y-88000152D02*
X153231522Y-88000152D01*
X155091522Y-87060152D02*
X155091522Y-88000152D01*
%TO.C,R72*%
X145969464Y-82887841D02*
X145969464Y-84747841D01*
X145029464Y-82887841D02*
X145969464Y-82887841D01*
X145029464Y-84747841D02*
X145029464Y-82887841D01*
X145969464Y-84747841D02*
X145029464Y-84747841D01*
%TO.C,R74*%
X140855000Y-88730000D02*
X142715000Y-88730000D01*
X140855000Y-89670000D02*
X140855000Y-88730000D01*
X142715000Y-89670000D02*
X140855000Y-89670000D01*
X142715000Y-88730000D02*
X142715000Y-89670000D01*
%TO.C,R75*%
X140855000Y-89730000D02*
X142715000Y-89730000D01*
X140855000Y-90670000D02*
X140855000Y-89730000D01*
X142715000Y-90670000D02*
X140855000Y-90670000D01*
X142715000Y-89730000D02*
X142715000Y-90670000D01*
%TO.C,R76*%
X142717154Y-88660000D02*
X140857154Y-88660000D01*
X142717154Y-87720000D02*
X142717154Y-88660000D01*
X140857154Y-87720000D02*
X142717154Y-87720000D01*
X140857154Y-88660000D02*
X140857154Y-87720000D01*
%TO.C,R77*%
X154970000Y-66645000D02*
X154970000Y-68505000D01*
X154030000Y-66645000D02*
X154970000Y-66645000D01*
X154030000Y-68505000D02*
X154030000Y-66645000D01*
X154970000Y-68505000D02*
X154030000Y-68505000D01*
%TO.C,R78*%
X153770000Y-66655000D02*
X153770000Y-68515000D01*
X152830000Y-66655000D02*
X153770000Y-66655000D01*
X152830000Y-68515000D02*
X152830000Y-66655000D01*
X153770000Y-68515000D02*
X152830000Y-68515000D01*
%TO.C,R115*%
X188820000Y-76280000D02*
X190680000Y-76280000D01*
X188820000Y-77220000D02*
X188820000Y-76280000D01*
X190680000Y-77220000D02*
X188820000Y-77220000D01*
X190680000Y-76280000D02*
X190680000Y-77220000D01*
%TO.C,R131*%
X172310001Y-132845000D02*
X170450001Y-132845000D01*
X172310001Y-131905000D02*
X172310001Y-132845000D01*
X170450001Y-131905000D02*
X172310001Y-131905000D01*
X170450001Y-132845000D02*
X170450001Y-131905000D01*
%TO.C,R132*%
X172780000Y-133569999D02*
X172780000Y-131709999D01*
X173720000Y-133569999D02*
X172780000Y-133569999D01*
X173720000Y-131709999D02*
X173720000Y-133569999D01*
X172780000Y-131709999D02*
X173720000Y-131709999D01*
%TO.C,R135*%
X182130000Y-122305000D02*
X182130000Y-120445000D01*
X183070000Y-122305000D02*
X182130000Y-122305000D01*
X183070000Y-120445000D02*
X183070000Y-122305000D01*
X182130000Y-120445000D02*
X183070000Y-120445000D01*
%TO.C,R136*%
X180270000Y-122080000D02*
X182130000Y-122080000D01*
X180270000Y-123020000D02*
X180270000Y-122080000D01*
X182130000Y-123020000D02*
X180270000Y-123020000D01*
X182130000Y-122080000D02*
X182130000Y-123020000D01*
%TO.C,R137*%
X172230000Y-121410000D02*
X172230000Y-119550000D01*
X173170000Y-121410000D02*
X172230000Y-121410000D01*
X173170000Y-119550000D02*
X173170000Y-121410000D01*
X172230000Y-119550000D02*
X173170000Y-119550000D01*
%TO.C,R138*%
X175055000Y-121420000D02*
X173195000Y-121420000D01*
X175055000Y-120480000D02*
X175055000Y-121420000D01*
X173195000Y-120480000D02*
X175055000Y-120480000D01*
X173195000Y-121420000D02*
X173195000Y-120480000D01*
%TO.C,R144*%
X175920000Y-131120000D02*
X175920000Y-132980000D01*
X174980000Y-131120000D02*
X175920000Y-131120000D01*
X174980000Y-132980000D02*
X174980000Y-131120000D01*
X175920000Y-132980000D02*
X174980000Y-132980000D01*
%TO.C,R145*%
X178555000Y-131070000D02*
X176695000Y-131070000D01*
X178555000Y-130130000D02*
X178555000Y-131070000D01*
X176695000Y-130130000D02*
X178555000Y-130130000D01*
X176695000Y-131070000D02*
X176695000Y-130130000D01*
%TO.C,R146*%
X184994999Y-131055000D02*
X184994999Y-132915000D01*
X184054999Y-131055000D02*
X184994999Y-131055000D01*
X184054999Y-132915000D02*
X184054999Y-131055000D01*
X184994999Y-132915000D02*
X184054999Y-132915000D01*
%TO.C,R147*%
X186990355Y-130966751D02*
X185130355Y-130966751D01*
X186990355Y-130026751D02*
X186990355Y-130966751D01*
X185130355Y-130026751D02*
X186990355Y-130026751D01*
X185130355Y-130966751D02*
X185130355Y-130026751D01*
%TO.C,R148*%
X190230000Y-64995000D02*
X190230000Y-63135000D01*
X191170000Y-64995000D02*
X190230000Y-64995000D01*
X191170000Y-63135000D02*
X191170000Y-64995000D01*
X190230000Y-63135000D02*
X191170000Y-63135000D01*
%TO.C,R52*%
X126900000Y-91010000D02*
X128760000Y-91010000D01*
X126900000Y-91950000D02*
X126900000Y-91010000D01*
X128760000Y-91950000D02*
X126900000Y-91950000D01*
X128760000Y-91010000D02*
X128760000Y-91950000D01*
%TO.C,R65*%
X125655000Y-97874000D02*
X123795000Y-97874000D01*
X125655000Y-96934000D02*
X125655000Y-97874000D01*
X123795000Y-96934000D02*
X125655000Y-96934000D01*
X123795000Y-97874000D02*
X123795000Y-96934000D01*
%TO.C,R66*%
X122930000Y-95770000D02*
X121070000Y-95770000D01*
X122930000Y-94830000D02*
X122930000Y-95770000D01*
X121070000Y-94830000D02*
X122930000Y-94830000D01*
X121070000Y-95770000D02*
X121070000Y-94830000D01*
%TO.C,R29*%
X83116000Y-94780000D02*
X84976000Y-94780000D01*
X83116000Y-95720000D02*
X83116000Y-94780000D01*
X84976000Y-95720000D02*
X83116000Y-95720000D01*
X84976000Y-94780000D02*
X84976000Y-95720000D01*
%TO.C,R30*%
X83120000Y-92780000D02*
X84980000Y-92780000D01*
X83120000Y-93720000D02*
X83120000Y-92780000D01*
X84980000Y-93720000D02*
X83120000Y-93720000D01*
X84980000Y-92780000D02*
X84980000Y-93720000D01*
%TO.C,R31*%
X83120000Y-95780000D02*
X84980000Y-95780000D01*
X83120000Y-96720000D02*
X83120000Y-95780000D01*
X84980000Y-96720000D02*
X83120000Y-96720000D01*
X84980000Y-95780000D02*
X84980000Y-96720000D01*
%TO.C,R32*%
X83116000Y-93779000D02*
X84976000Y-93779000D01*
X83116000Y-94719000D02*
X83116000Y-93779000D01*
X84976000Y-94719000D02*
X83116000Y-94719000D01*
X84976000Y-93779000D02*
X84976000Y-94719000D01*
%TO.C,R151*%
X132730000Y-118470000D02*
X130870000Y-118470000D01*
X132730000Y-117530000D02*
X132730000Y-118470000D01*
X130870000Y-117530000D02*
X132730000Y-117530000D01*
X130870000Y-118470000D02*
X130870000Y-117530000D01*
%TO.C,R152*%
X132730000Y-117470000D02*
X130870000Y-117470000D01*
X132730000Y-116530000D02*
X132730000Y-117470000D01*
X130870000Y-116530000D02*
X132730000Y-116530000D01*
X130870000Y-117470000D02*
X130870000Y-116530000D01*
%TO.C,R153*%
X126270000Y-118030000D02*
X128130000Y-118030000D01*
X126270000Y-118970000D02*
X126270000Y-118030000D01*
X128130000Y-118970000D02*
X126270000Y-118970000D01*
X128130000Y-118030000D02*
X128130000Y-118970000D01*
%TO.C,R3*%
X90375000Y-73747000D02*
X92235000Y-73747000D01*
X90375000Y-74687000D02*
X90375000Y-73747000D01*
X92235000Y-74687000D02*
X90375000Y-74687000D01*
X92235000Y-73747000D02*
X92235000Y-74687000D01*
%TO.C,R4*%
X94135000Y-74687000D02*
X92275000Y-74687000D01*
X94135000Y-73747000D02*
X94135000Y-74687000D01*
X92275000Y-73747000D02*
X94135000Y-73747000D01*
X92275000Y-74687000D02*
X92275000Y-73747000D01*
%TO.C,R5*%
X94135000Y-74647000D02*
X94135000Y-72787000D01*
X95075000Y-74647000D02*
X94135000Y-74647000D01*
X95075000Y-72787000D02*
X95075000Y-74647000D01*
X94135000Y-72787000D02*
X95075000Y-72787000D01*
%TO.C,R6*%
X90375000Y-72787000D02*
X90375000Y-74647000D01*
X89435000Y-72787000D02*
X90375000Y-72787000D01*
X89435000Y-74647000D02*
X89435000Y-72787000D01*
X90375000Y-74647000D02*
X89435000Y-74647000D01*
%TO.C,R7*%
X92275000Y-70947000D02*
X94135000Y-70947000D01*
X92275000Y-71887000D02*
X92275000Y-70947000D01*
X94135000Y-71887000D02*
X92275000Y-71887000D01*
X94135000Y-70947000D02*
X94135000Y-71887000D01*
%TO.C,R8*%
X90375000Y-70947000D02*
X92235000Y-70947000D01*
X90375000Y-71887000D02*
X90375000Y-70947000D01*
X92235000Y-71887000D02*
X90375000Y-71887000D01*
X92235000Y-70947000D02*
X92235000Y-71887000D01*
%TO.C,R9*%
X89335000Y-69347000D02*
X89335000Y-67487000D01*
X90275000Y-69347000D02*
X89335000Y-69347000D01*
X90275000Y-67487000D02*
X90275000Y-69347000D01*
X89335000Y-67487000D02*
X90275000Y-67487000D01*
%TO.C,R10*%
X93685000Y-69347000D02*
X93685000Y-67487000D01*
X94625000Y-69347000D02*
X93685000Y-69347000D01*
X94625000Y-67487000D02*
X94625000Y-69347000D01*
X93685000Y-67487000D02*
X94625000Y-67487000D01*
%TO.C,R11*%
X92785000Y-69347000D02*
X92785000Y-67487000D01*
X93725000Y-69347000D02*
X92785000Y-69347000D01*
X93725000Y-67487000D02*
X93725000Y-69347000D01*
X92785000Y-67487000D02*
X93725000Y-67487000D01*
%TO.C,R12*%
X91175000Y-67487000D02*
X91175000Y-69347000D01*
X90235000Y-67487000D02*
X91175000Y-67487000D01*
X90235000Y-69347000D02*
X90235000Y-67487000D01*
X91175000Y-69347000D02*
X90235000Y-69347000D01*
%TO.C,R13*%
X98655000Y-117070000D02*
X96795000Y-117070000D01*
X98655000Y-116130000D02*
X98655000Y-117070000D01*
X96795000Y-116130000D02*
X98655000Y-116130000D01*
X96795000Y-117070000D02*
X96795000Y-116130000D01*
%TO.C,R14*%
X98655000Y-116170000D02*
X96795000Y-116170000D01*
X98655000Y-115230000D02*
X98655000Y-116170000D01*
X96795000Y-115230000D02*
X98655000Y-115230000D01*
X96795000Y-116170000D02*
X96795000Y-115230000D01*
%TO.C,R18*%
X124760000Y-137130000D02*
X126620000Y-137130000D01*
X124760000Y-138070000D02*
X124760000Y-137130000D01*
X126620000Y-138070000D02*
X124760000Y-138070000D01*
X126620000Y-137130000D02*
X126620000Y-138070000D01*
%TO.C,R104*%
X144695000Y-109105000D02*
X146555000Y-109105000D01*
X144695000Y-110045000D02*
X144695000Y-109105000D01*
X146555000Y-110045000D02*
X144695000Y-110045000D01*
X146555000Y-109105000D02*
X146555000Y-110045000D01*
%TO.C,R105*%
X142290000Y-108865000D02*
X142150000Y-108865000D01*
X142290000Y-110285000D02*
X142150000Y-110285000D01*
X144510000Y-110285000D02*
X144650000Y-110285000D01*
X144510000Y-108865000D02*
X144650000Y-108865000D01*
X144510000Y-110285000D02*
X142290000Y-110285000D01*
X142150000Y-110285000D02*
X142150000Y-108865000D01*
X142290000Y-108865000D02*
X144510000Y-108865000D01*
X144650000Y-108865000D02*
X144650000Y-110285000D01*
%TO.C,R19*%
X117820000Y-118430000D02*
X119680000Y-118430000D01*
X117820000Y-119370000D02*
X117820000Y-118430000D01*
X119680000Y-119370000D02*
X117820000Y-119370000D01*
X119680000Y-118430000D02*
X119680000Y-119370000D01*
%TO.C,R106*%
X142527776Y-111317380D02*
X140667776Y-111317380D01*
X142527776Y-110377380D02*
X142527776Y-111317380D01*
X140667776Y-110377380D02*
X142527776Y-110377380D01*
X140667776Y-111317380D02*
X140667776Y-110377380D01*
%TO.C,R107*%
X143623411Y-110765908D02*
X143623411Y-112625908D01*
X142683411Y-110765908D02*
X143623411Y-110765908D01*
X142683411Y-112625908D02*
X142683411Y-110765908D01*
X143623411Y-112625908D02*
X142683411Y-112625908D01*
%TO.C,R108*%
X143552700Y-112675097D02*
X143552700Y-114535097D01*
X142612700Y-112675097D02*
X143552700Y-112675097D01*
X142612700Y-114535097D02*
X142612700Y-112675097D01*
X143552700Y-114535097D02*
X142612700Y-114535097D01*
%TO.C,R110*%
X142350999Y-114870000D02*
X140490999Y-114870000D01*
X142350999Y-113930000D02*
X142350999Y-114870000D01*
X140490999Y-113930000D02*
X142350999Y-113930000D01*
X140490999Y-114870000D02*
X140490999Y-113930000D01*
%TO.C,R103*%
X143730000Y-116670000D02*
X141870000Y-116670000D01*
X143730000Y-115730000D02*
X143730000Y-116670000D01*
X141870000Y-115730000D02*
X143730000Y-115730000D01*
X141870000Y-116670000D02*
X141870000Y-115730000D01*
%TO.C,R109*%
X143755000Y-120730000D02*
X141895000Y-120730000D01*
X143755000Y-119790000D02*
X143755000Y-120730000D01*
X141895000Y-119790000D02*
X143755000Y-119790000D01*
X141895000Y-120730000D02*
X141895000Y-119790000D01*
%TO.C,R111*%
X135665000Y-126060000D02*
X137525000Y-126060000D01*
X135665000Y-127000000D02*
X135665000Y-126060000D01*
X137525000Y-127000000D02*
X135665000Y-127000000D01*
X137525000Y-126060000D02*
X137525000Y-127000000D01*
%TO.C,R112*%
X135665000Y-122760000D02*
X137525000Y-122760000D01*
X135665000Y-123700000D02*
X135665000Y-122760000D01*
X137525000Y-123700000D02*
X135665000Y-123700000D01*
X137525000Y-122760000D02*
X137525000Y-123700000D01*
%TO.C,R36*%
X104570000Y-136605000D02*
X106430000Y-136605000D01*
X104570000Y-137545000D02*
X104570000Y-136605000D01*
X106430000Y-137545000D02*
X104570000Y-137545000D01*
X106430000Y-136605000D02*
X106430000Y-137545000D01*
%TO.C,R84*%
X109870000Y-135085000D02*
X109870000Y-136945000D01*
X108930000Y-135085000D02*
X109870000Y-135085000D01*
X108930000Y-136945000D02*
X108930000Y-135085000D01*
X109870000Y-136945000D02*
X108930000Y-136945000D01*
%TO.C,R85*%
X113070000Y-135070000D02*
X113070000Y-136930000D01*
X112130000Y-135070000D02*
X113070000Y-135070000D01*
X112130000Y-136930000D02*
X112130000Y-135070000D01*
X113070000Y-136930000D02*
X112130000Y-136930000D01*
%TO.C,R79*%
X86355000Y-116430000D02*
X88215000Y-116430000D01*
X86355000Y-117370000D02*
X86355000Y-116430000D01*
X88215000Y-117370000D02*
X86355000Y-117370000D01*
X88215000Y-116430000D02*
X88215000Y-117370000D01*
%TO.C,R80*%
X86370000Y-117330000D02*
X88230000Y-117330000D01*
X86370000Y-118270000D02*
X86370000Y-117330000D01*
X88230000Y-118270000D02*
X86370000Y-118270000D01*
X88230000Y-117330000D02*
X88230000Y-118270000D01*
%TO.C,R81*%
X86370000Y-118230000D02*
X88230000Y-118230000D01*
X86370000Y-119170000D02*
X86370000Y-118230000D01*
X88230000Y-119170000D02*
X86370000Y-119170000D01*
X88230000Y-118230000D02*
X88230000Y-119170000D01*
%TO.C,R82*%
X86370000Y-119130000D02*
X88230000Y-119130000D01*
X86370000Y-120070000D02*
X86370000Y-119130000D01*
X88230000Y-120070000D02*
X86370000Y-120070000D01*
X88230000Y-119130000D02*
X88230000Y-120070000D01*
%TO.C,R97*%
X146755000Y-108530000D02*
X146755000Y-106670000D01*
X147695000Y-108530000D02*
X146755000Y-108530000D01*
X147695000Y-106670000D02*
X147695000Y-108530000D01*
X146755000Y-106670000D02*
X147695000Y-106670000D01*
%TO.C,R98*%
X147755000Y-108530000D02*
X147755000Y-106670000D01*
X148695000Y-108530000D02*
X147755000Y-108530000D01*
X148695000Y-106670000D02*
X148695000Y-108530000D01*
X147755000Y-106670000D02*
X148695000Y-106670000D01*
%TO.C,R100*%
X146755000Y-110930000D02*
X146755000Y-109070000D01*
X147695000Y-110930000D02*
X146755000Y-110930000D01*
X147695000Y-109070000D02*
X147695000Y-110930000D01*
X146755000Y-109070000D02*
X147695000Y-109070000D01*
%TO.C,R126*%
X169430000Y-131720000D02*
X167570000Y-131720000D01*
X169430000Y-130780000D02*
X169430000Y-131720000D01*
X167570000Y-130780000D02*
X169430000Y-130780000D01*
X167570000Y-131720000D02*
X167570000Y-130780000D01*
%TO.C,R129*%
X179430000Y-116345000D02*
X177570000Y-116345000D01*
X179430000Y-115405000D02*
X179430000Y-116345000D01*
X177570000Y-115405000D02*
X179430000Y-115405000D01*
X177570000Y-116345000D02*
X177570000Y-115405000D01*
%TO.C,R130*%
X169680000Y-116145000D02*
X167820000Y-116145000D01*
X169680000Y-115205000D02*
X169680000Y-116145000D01*
X167820000Y-115205000D02*
X169680000Y-115205000D01*
X167820000Y-116145000D02*
X167820000Y-115205000D01*
%TO.C,R142*%
X178270000Y-137255001D02*
X180130000Y-137255001D01*
X178270000Y-138195001D02*
X178270000Y-137255001D01*
X180130000Y-138195001D02*
X178270000Y-138195001D01*
X180130000Y-137255001D02*
X180130000Y-138195001D01*
%TO.C,R143*%
X187545000Y-137105000D02*
X189405000Y-137105000D01*
X187545000Y-138045000D02*
X187545000Y-137105000D01*
X189405000Y-138045000D02*
X187545000Y-138045000D01*
X189405000Y-137105000D02*
X189405000Y-138045000D01*
%TO.C,R149*%
X151430000Y-66430000D02*
X151430000Y-64570000D01*
X152370000Y-66430000D02*
X151430000Y-66430000D01*
X152370000Y-64570000D02*
X152370000Y-66430000D01*
X151430000Y-64570000D02*
X152370000Y-64570000D01*
%TO.C,S1*%
X98200000Y-148300000D02*
X98200000Y-151900000D01*
X98200000Y-151900000D02*
X92200000Y-151900000D01*
X92200000Y-151900000D02*
X92200000Y-148300000D01*
X92200000Y-148300000D02*
X98200000Y-148300000D01*
%TO.C,SP3*%
X163206999Y-90793500D02*
G75*
G03*
X163206999Y-90793500I-3000000J0D01*
G01*
%TO.C,SP4*%
X92556999Y-90793500D02*
G75*
G03*
X92556999Y-90793500I-3000000J0D01*
G01*
%TO.C,U49*%
X169050000Y-136900000D02*
X172700000Y-136900000D01*
X169050000Y-132900000D02*
X169050000Y-136900000D01*
X172700000Y-132900000D02*
X169050000Y-132900000D01*
X172700000Y-132900000D02*
X172700000Y-136900000D01*
%TO.C,U51*%
X177699999Y-118350000D02*
X177699999Y-122000000D01*
X181699999Y-118350000D02*
X177699999Y-118350000D01*
X181699999Y-122000000D02*
X181699999Y-118350000D01*
X181699999Y-122000000D02*
X177699999Y-122000000D01*
%TO.C,U55*%
X189100000Y-134725000D02*
X189100000Y-131075000D01*
X185100000Y-134725000D02*
X189100000Y-134725000D01*
X185100000Y-131075000D02*
X185100000Y-134725000D01*
X185100000Y-131075000D02*
X189100000Y-131075000D01*
%TO.C,U56*%
X188481400Y-123903400D02*
X188481400Y-124203399D01*
X188898700Y-123903400D02*
X188481400Y-123903400D01*
X188898700Y-120296600D02*
X188898700Y-123903400D01*
X188481400Y-120296600D02*
X188898700Y-120296600D01*
X188481400Y-119996601D02*
X188481400Y-120296600D01*
X184718600Y-119996601D02*
X188481400Y-119996601D01*
X184718600Y-120296600D02*
X184718600Y-119996601D01*
X184301300Y-120296600D02*
X184718600Y-120296600D01*
X184301300Y-123903400D02*
X184301300Y-120296600D01*
X184718600Y-123903400D02*
X184301300Y-123903400D01*
X184718600Y-124203399D02*
X184718600Y-123903400D01*
X188481400Y-124203399D02*
X184718600Y-124203399D01*
X188898700Y-120296600D02*
X188898700Y-123903400D01*
X188481400Y-120296600D02*
X188898700Y-120296600D01*
X184301300Y-120296600D02*
X184718600Y-120296600D01*
X184301300Y-123903400D02*
X184301300Y-120296600D01*
X184718600Y-123903400D02*
X184301300Y-123903400D01*
X188898700Y-123903400D02*
X188481400Y-123903400D01*
X188481400Y-124203399D02*
X188481400Y-123903400D01*
X188481400Y-119996601D02*
X188481400Y-120296600D01*
X184718600Y-119996601D02*
X188481400Y-119996601D01*
X184718600Y-119996601D02*
X184718600Y-120296600D01*
X184718600Y-124203399D02*
X184718600Y-123903400D01*
X188481400Y-124203399D02*
X184718600Y-124203399D01*
%TO.C,U57*%
X143721600Y-68131400D02*
X143421601Y-68131400D01*
X143721600Y-68548700D02*
X143721600Y-68131400D01*
X147328400Y-68548700D02*
X143721600Y-68548700D01*
X147328400Y-68131400D02*
X147328400Y-68548700D01*
X147628399Y-68131400D02*
X147328400Y-68131400D01*
X147628399Y-64368600D02*
X147628399Y-68131400D01*
X147328400Y-64368600D02*
X147628399Y-64368600D01*
X147328400Y-63951300D02*
X147328400Y-64368600D01*
X143721600Y-63951300D02*
X147328400Y-63951300D01*
X143721600Y-64368600D02*
X143721600Y-63951300D01*
X143421601Y-64368600D02*
X143721600Y-64368600D01*
X143421601Y-68131400D02*
X143421601Y-64368600D01*
X147328400Y-68548700D02*
X143721600Y-68548700D01*
X147328400Y-68131400D02*
X147328400Y-68548700D01*
X147328400Y-63951300D02*
X147328400Y-64368600D01*
X143721600Y-63951300D02*
X147328400Y-63951300D01*
X143721600Y-64368600D02*
X143721600Y-63951300D01*
X143721600Y-68548700D02*
X143721600Y-68131400D01*
X143421601Y-68131400D02*
X143721600Y-68131400D01*
X147628399Y-68131400D02*
X147328400Y-68131400D01*
X147628399Y-64368600D02*
X147628399Y-68131400D01*
X147628399Y-64368600D02*
X147328400Y-64368600D01*
X143421601Y-64368600D02*
X143721600Y-64368600D01*
X143421601Y-68131400D02*
X143421601Y-64368600D01*
%TO.C,U58*%
X186171600Y-66631400D02*
X185871601Y-66631400D01*
X186171600Y-67048700D02*
X186171600Y-66631400D01*
X189778400Y-67048700D02*
X186171600Y-67048700D01*
X189778400Y-66631400D02*
X189778400Y-67048700D01*
X190078399Y-66631400D02*
X189778400Y-66631400D01*
X190078399Y-62868600D02*
X190078399Y-66631400D01*
X189778400Y-62868600D02*
X190078399Y-62868600D01*
X189778400Y-62451300D02*
X189778400Y-62868600D01*
X186171600Y-62451300D02*
X189778400Y-62451300D01*
X186171600Y-62868600D02*
X186171600Y-62451300D01*
X185871601Y-62868600D02*
X186171600Y-62868600D01*
X185871601Y-66631400D02*
X185871601Y-62868600D01*
X189778400Y-67048700D02*
X186171600Y-67048700D01*
X189778400Y-66631400D02*
X189778400Y-67048700D01*
X189778400Y-62451300D02*
X189778400Y-62868600D01*
X186171600Y-62451300D02*
X189778400Y-62451300D01*
X186171600Y-62868600D02*
X186171600Y-62451300D01*
X186171600Y-67048700D02*
X186171600Y-66631400D01*
X185871601Y-66631400D02*
X186171600Y-66631400D01*
X190078399Y-66631400D02*
X189778400Y-66631400D01*
X190078399Y-62868600D02*
X190078399Y-66631400D01*
X190078399Y-62868600D02*
X189778400Y-62868600D01*
X185871601Y-62868600D02*
X186171600Y-62868600D01*
X185871601Y-66631400D02*
X185871601Y-62868600D01*
%TO.C,U23*%
X118913800Y-97077600D02*
X118913800Y-96493800D01*
X118524901Y-97077600D02*
X118913800Y-97077600D01*
X118524901Y-100380400D02*
X118524901Y-97077600D01*
X118913800Y-100380400D02*
X118524901Y-100380400D01*
X118913800Y-100964200D02*
X118913800Y-100380400D01*
X119497600Y-100964200D02*
X118913800Y-100964200D01*
X119497600Y-101353099D02*
X119497600Y-100964200D01*
X122800400Y-101353099D02*
X119497600Y-101353099D01*
X122800400Y-100964200D02*
X122800400Y-101353099D01*
X123384200Y-100964200D02*
X122800400Y-100964200D01*
X123384200Y-100380400D02*
X123384200Y-100964200D01*
X123773099Y-100380400D02*
X123384200Y-100380400D01*
X123773099Y-97077600D02*
X123773099Y-100380400D01*
X123384200Y-97077600D02*
X123773099Y-97077600D01*
X123384200Y-96493800D02*
X123384200Y-97077600D01*
X122800400Y-96493800D02*
X123384200Y-96493800D01*
X122800400Y-96104901D02*
X122800400Y-96493800D01*
X119497600Y-96104901D02*
X122800400Y-96104901D01*
X119497600Y-96493800D02*
X119497600Y-96104901D01*
X118913800Y-96493800D02*
X119497600Y-96493800D01*
X118913800Y-97077600D02*
X118913800Y-96493800D01*
X118524901Y-97077600D02*
X118913800Y-97077600D01*
X118524901Y-100380400D02*
X118524901Y-97077600D01*
X118913800Y-100380400D02*
X118524901Y-100380400D01*
X118913800Y-100964200D02*
X118913800Y-100380400D01*
X119497600Y-100964200D02*
X118913800Y-100964200D01*
X119497600Y-101353099D02*
X119497600Y-100964200D01*
X122800400Y-101353099D02*
X119497600Y-101353099D01*
X122800400Y-100964200D02*
X122800400Y-101353099D01*
X123384200Y-100964200D02*
X122800400Y-100964200D01*
X123384200Y-100380400D02*
X123384200Y-100964200D01*
X123773099Y-100380400D02*
X123384200Y-100380400D01*
X123773099Y-97077600D02*
X123773099Y-100380400D01*
X123384200Y-97077600D02*
X123773099Y-97077600D01*
X123384200Y-96493800D02*
X123384200Y-97077600D01*
X122800400Y-96493800D02*
X123384200Y-96493800D01*
X122800400Y-96104901D02*
X122800400Y-96493800D01*
X119497600Y-96104901D02*
X122800400Y-96104901D01*
X119497600Y-96493800D02*
X119497600Y-96104901D01*
X118913800Y-96493800D02*
X119497600Y-96493800D01*
%TO.C,U34*%
X109475000Y-142875000D02*
X109475000Y-145475000D01*
X106475000Y-142875000D02*
X109475000Y-142875000D01*
X106475000Y-145475000D02*
X106475000Y-142875000D01*
X109475000Y-145475000D02*
X106475000Y-145475000D01*
%TO.C,U31*%
X104925000Y-142750000D02*
X100725000Y-142750000D01*
X104925000Y-139100000D02*
X104925000Y-142750000D01*
X100725000Y-139100000D02*
X104925000Y-139100000D01*
X100725000Y-142750000D02*
X100725000Y-139100000D01*
%TO.C,U32*%
X95850000Y-143775001D02*
X95850000Y-139575001D01*
X99500000Y-143775001D02*
X95850000Y-143775001D01*
X99500000Y-139575001D02*
X99500000Y-143775001D01*
X95850000Y-139575001D02*
X99500000Y-139575001D01*
%TO.C,U35*%
X97339999Y-148000000D02*
X93689999Y-148000000D01*
X93689999Y-148000000D02*
X93689999Y-143750000D01*
X93689999Y-143750000D02*
X97339999Y-143750000D01*
X97339999Y-143750000D02*
X97339999Y-148000000D01*
%TO.C,U39*%
X138601760Y-114329792D02*
X138601760Y-110829792D01*
X138601760Y-110829792D02*
X142401760Y-110829792D01*
X142401760Y-110829792D02*
X142401760Y-114329792D01*
X142401760Y-114329792D02*
X138601760Y-114329792D01*
%TO.C,U12*%
X103100000Y-131250000D02*
X103100000Y-136650000D01*
X95700000Y-131250000D02*
X95700000Y-136650000D01*
X103100000Y-131250000D02*
X95700000Y-131250000D01*
X103100000Y-136650000D02*
X95700000Y-136650000D01*
%TO.C,U13*%
X103518600Y-132846600D02*
X103518600Y-132546601D01*
X103341900Y-132846600D02*
X103518600Y-132846600D01*
X103341900Y-136453400D02*
X103341900Y-132846600D01*
X103518600Y-136453400D02*
X103341900Y-136453400D01*
X103518600Y-136753399D02*
X103518600Y-136453400D01*
X105958100Y-136453400D02*
X105781400Y-136453400D01*
X105958100Y-132846600D02*
X105958100Y-136453400D01*
X105781400Y-132846600D02*
X105958100Y-132846600D01*
X105781400Y-132546601D02*
X105781400Y-132846600D01*
X103518600Y-132546601D02*
X105781400Y-132546601D01*
X103341900Y-136453400D02*
X103341900Y-132846600D01*
X103518600Y-136453400D02*
X103341900Y-136453400D01*
X105958100Y-136453400D02*
X105781400Y-136453400D01*
X105958100Y-132846600D02*
X105958100Y-136453400D01*
X105781400Y-132846600D02*
X105958100Y-132846600D01*
X103341900Y-132846600D02*
X103518600Y-132846600D01*
X103518600Y-132546601D02*
X103518600Y-132846600D01*
X103518600Y-136753399D02*
X103518600Y-136453400D01*
X105781400Y-132546601D02*
X105781400Y-132846600D01*
X103518600Y-132546601D02*
X105781400Y-132546601D01*
%TO.C,U8*%
X112900000Y-105375000D02*
X107500000Y-105375000D01*
X112900000Y-97975000D02*
X107500000Y-97975000D01*
X112900000Y-105375000D02*
X112900000Y-97975000D01*
X107500000Y-105375000D02*
X107500000Y-97975000D01*
%TO.C,U9*%
X105900000Y-105300000D02*
X105900000Y-98600000D01*
X105900000Y-98600000D02*
X98400000Y-98600000D01*
X98400000Y-98600000D02*
X98400000Y-105300000D01*
X98400000Y-105300000D02*
X105900000Y-105300000D01*
%TO.C,Y7*%
X148219060Y-124036827D02*
X152319060Y-124036827D01*
X152319060Y-124036827D02*
X152319060Y-127436827D01*
X152319060Y-127436827D02*
X148219060Y-127436827D01*
X148219060Y-127436827D02*
X148219060Y-124036827D01*
%TO.C,Y2*%
X110405000Y-94744999D02*
X110405000Y-98004999D01*
X107645000Y-98004999D02*
X110405000Y-98004999D01*
X107645000Y-94744999D02*
X107645000Y-98004999D01*
X107645000Y-94744999D02*
X110405000Y-94744999D01*
%TO.C,J1*%
X99463000Y-50788000D02*
X99463000Y-67068000D01*
X99463000Y-67068000D02*
X81063000Y-67068000D01*
X81063000Y-67068000D02*
X81063000Y-50788000D01*
X81063000Y-50788000D02*
X99463000Y-50788000D01*
%TO.C,C172*%
X168649999Y-79300000D02*
X168649999Y-86700000D01*
X162749999Y-79300000D02*
X168649999Y-79300000D01*
X162749999Y-86700000D02*
X162749999Y-79300000D01*
X168649999Y-86700000D02*
X162749999Y-86700000D01*
%TO.C,C173*%
X180000000Y-79300000D02*
X180000000Y-86700000D01*
X174100000Y-79300000D02*
X180000000Y-79300000D01*
X174100000Y-86700000D02*
X174100000Y-79300000D01*
X180000000Y-86700000D02*
X174100000Y-86700000D01*
%TO.C,C174*%
X185700000Y-79300000D02*
X185700000Y-86700000D01*
X179800000Y-79300000D02*
X185700000Y-79300000D01*
X179800000Y-86700000D02*
X179800000Y-79300000D01*
X185700000Y-86700000D02*
X179800000Y-86700000D01*
%TO.C,C175*%
X174300000Y-79300000D02*
X174300000Y-86700000D01*
X168400000Y-79300000D02*
X174300000Y-79300000D01*
X168400000Y-86700000D02*
X168400000Y-79300000D01*
X174300000Y-86700000D02*
X168400000Y-86700000D01*
%TO.C,D17*%
X172500000Y-114715000D02*
X169700000Y-114715000D01*
X172500000Y-116135000D02*
X169700000Y-116135000D01*
X169700000Y-114715000D02*
X169700000Y-116135000D01*
X172500000Y-114715000D02*
X172500000Y-116135000D01*
%TO.C,D20*%
X184600000Y-138510000D02*
X187400000Y-138510000D01*
X184600000Y-137090000D02*
X187400000Y-137090000D01*
X187400000Y-138510000D02*
X187400000Y-137090000D01*
X184600000Y-138510000D02*
X184600000Y-137090000D01*
%TO.C,Q13*%
X172500000Y-117550000D02*
X172500000Y-115150000D01*
X172500000Y-115150000D02*
X174800000Y-115150000D01*
X174800000Y-115150000D02*
X174800000Y-117550000D01*
X174800000Y-117550000D02*
X172500000Y-117550000D01*
%TO.C,Q15*%
X185050000Y-134550000D02*
X185050000Y-136950000D01*
X185050000Y-136950000D02*
X182750000Y-136950000D01*
X182750000Y-136950000D02*
X182750000Y-134550000D01*
X182750000Y-134550000D02*
X185050000Y-134550000D01*
%TO.C,U26*%
X114340000Y-73010000D02*
X114340000Y-75510000D01*
X114340000Y-75510000D02*
X112040000Y-75510000D01*
X112040000Y-75510000D02*
X112040000Y-73010000D01*
X112040000Y-73010000D02*
X114340000Y-73010000D01*
%TO.C,U10*%
X86639822Y-123800000D02*
X80279822Y-123800000D01*
X80279822Y-120300000D02*
X86639822Y-120300000D01*
X86639822Y-123800000D02*
X86639822Y-120300000D01*
X80279822Y-123800000D02*
X80279822Y-120300000D01*
%TO.C,C23*%
X112140000Y-123980000D02*
X112140000Y-122120000D01*
X113080000Y-123980000D02*
X112140000Y-123980000D01*
X113080000Y-122120000D02*
X113080000Y-123980000D01*
X112140000Y-122120000D02*
X113080000Y-122120000D01*
%TO.C,C24*%
X117830000Y-124020000D02*
X115970000Y-124020000D01*
X117830000Y-123080000D02*
X117830000Y-124020000D01*
X115970000Y-123080000D02*
X117830000Y-123080000D01*
X115970000Y-124020000D02*
X115970000Y-123080000D01*
%TO.C,U33*%
X109650000Y-139100000D02*
X105850000Y-139100000D01*
X109650000Y-142100000D02*
X105850000Y-142100000D01*
X105850000Y-142100000D02*
X105850000Y-139100000D01*
X109650000Y-142100000D02*
X109650000Y-139100000D01*
%TO.C,U42*%
X141125000Y-115425000D02*
X137325000Y-115425000D01*
X141125000Y-118425000D02*
X137325000Y-118425000D01*
X137325000Y-118425000D02*
X137325000Y-115425000D01*
X141125000Y-118425000D02*
X141125000Y-115425000D01*
%TO.C,U43*%
X141325000Y-119700000D02*
X137525000Y-119700000D01*
X141325000Y-122700000D02*
X137525000Y-122700000D01*
X137525000Y-122700000D02*
X137525000Y-119700000D01*
X141325000Y-122700000D02*
X141325000Y-119700000D01*
%TO.C,C153*%
X148160000Y-143510000D02*
X146300000Y-143510000D01*
X148160000Y-142570000D02*
X148160000Y-143510000D01*
X146300000Y-142570000D02*
X148160000Y-142570000D01*
X146300000Y-143510000D02*
X146300000Y-142570000D01*
%TO.C,U54*%
X180000000Y-134825000D02*
X180000000Y-131175000D01*
X176000000Y-134825000D02*
X180000000Y-134825000D01*
X176000000Y-131175000D02*
X176000000Y-134825000D01*
X176000000Y-131175000D02*
X180000000Y-131175000D01*
%TO.C,U37*%
X145500000Y-140850000D02*
X145500000Y-143350000D01*
X145500000Y-143350000D02*
X143200000Y-143350000D01*
X143200000Y-143350000D02*
X143200000Y-140850000D01*
X143200000Y-140850000D02*
X145500000Y-140850000D01*
%TO.C,Q10*%
X137595000Y-129330000D02*
X135195000Y-129330000D01*
X135195000Y-129330000D02*
X135195000Y-127030000D01*
X135195000Y-127030000D02*
X137595000Y-127030000D01*
X137595000Y-127030000D02*
X137595000Y-129330000D01*
%TO.C,U36*%
X110820000Y-142490000D02*
X110820000Y-142880000D01*
X110500000Y-142490000D02*
X110820000Y-142490000D01*
X110500000Y-139710000D02*
X110500000Y-142490000D01*
X110820000Y-139710000D02*
X110500000Y-139710000D01*
X110820000Y-139320000D02*
X110820000Y-139710000D01*
X113880000Y-139710000D02*
X113880000Y-139320000D01*
X114200000Y-139710000D02*
X113880000Y-139710000D01*
X114200000Y-142490000D02*
X114200000Y-139710000D01*
X113880000Y-142490000D02*
X114200000Y-142490000D01*
X113880000Y-142880000D02*
X113880000Y-142490000D01*
X112990000Y-139320000D02*
X113880000Y-139320000D01*
X112990000Y-139000000D02*
X112990000Y-139320000D01*
X111710000Y-139000000D02*
X112990000Y-139000000D01*
X111710000Y-139320000D02*
X111710000Y-139000000D01*
X110820000Y-139320000D02*
X111710000Y-139320000D01*
X111710000Y-142880000D02*
X110820000Y-142880000D01*
X111710000Y-143200000D02*
X111710000Y-142880000D01*
X112990000Y-143200000D02*
X111710000Y-143200000D01*
X112990000Y-142880000D02*
X112990000Y-143200000D01*
X113880000Y-142880000D02*
X112990000Y-142880000D01*
%TO.C,J9*%
X74400000Y-128430000D02*
X74400000Y-145580000D01*
X74400000Y-145580000D02*
X80950000Y-145580000D01*
X74400000Y-128430000D02*
X80950000Y-128430000D01*
X80950000Y-128430000D02*
X80950000Y-145580000D01*
%TO.C,U60*%
X147850000Y-60650000D02*
X147850000Y-63150000D01*
X147850000Y-63150000D02*
X145550000Y-63150000D01*
X145550000Y-63150000D02*
X145550000Y-60650000D01*
X145550000Y-60650000D02*
X147850000Y-60650000D01*
%TO.C,J_SOM240_2*%
X155427000Y-139280500D02*
X155427000Y-95960500D01*
X155427000Y-95960500D02*
X160095000Y-95960500D01*
X160095000Y-95960500D02*
X160927000Y-96792500D01*
X160927000Y-96792500D02*
X160927000Y-138448500D01*
X160927000Y-138448500D02*
X160095000Y-139280500D01*
X160095000Y-139280500D02*
X155427000Y-139280500D01*
%TO.C,Q11*%
X137600000Y-126024999D02*
X135200000Y-126024999D01*
X135200000Y-126024999D02*
X135200000Y-123724999D01*
X135200000Y-123724999D02*
X137600000Y-123724999D01*
X137600000Y-123724999D02*
X137600000Y-126024999D01*
%TO.C,Q8*%
X106650000Y-137400000D02*
X106650000Y-135000000D01*
X106650000Y-135000000D02*
X108950000Y-135000000D01*
X108950000Y-135000000D02*
X108950000Y-137400000D01*
X108950000Y-137400000D02*
X106650000Y-137400000D01*
%TO.C,Q9*%
X109850001Y-137400000D02*
X109850001Y-135000000D01*
X109850001Y-135000000D02*
X112150001Y-135000000D01*
X112150001Y-135000000D02*
X112150001Y-137400000D01*
X112150001Y-137400000D02*
X109850001Y-137400000D01*
%TO.C,C123*%
X92865000Y-141610000D02*
X92865000Y-139750000D01*
X93805000Y-141610000D02*
X92865000Y-141610000D01*
X93805000Y-139750000D02*
X93805000Y-141610000D01*
X92865000Y-139750000D02*
X93805000Y-139750000D01*
%TO.C,C124*%
X91065000Y-141610000D02*
X91065000Y-139750000D01*
X92005000Y-141610000D02*
X91065000Y-141610000D01*
X92005000Y-139750000D02*
X92005000Y-141610000D01*
X91065000Y-139750000D02*
X92005000Y-139750000D01*
%TO.C,R116*%
X186140000Y-75840000D02*
X186000000Y-75840000D01*
X186140000Y-77260000D02*
X186000000Y-77260000D01*
X188360000Y-77260000D02*
X188500000Y-77260000D01*
X188360000Y-75840000D02*
X188500000Y-75840000D01*
X188360000Y-77260000D02*
X186140000Y-77260000D01*
X186000000Y-77260000D02*
X186000000Y-75840000D01*
X186140000Y-75840000D02*
X188360000Y-75840000D01*
X188500000Y-75840000D02*
X188500000Y-77260000D01*
%TO.C,J10*%
X141599000Y-60174000D02*
X151799000Y-60174000D01*
X141599000Y-51744000D02*
X141599000Y-60174000D01*
X151799000Y-51744000D02*
X141599000Y-51744000D01*
X151799000Y-60174000D02*
X151799000Y-51744000D01*
%TO.C,J8*%
X149450000Y-143500000D02*
X139250000Y-143500000D01*
X149450000Y-151930000D02*
X149450000Y-143500000D01*
X139250000Y-151930000D02*
X149450000Y-151930000D01*
X139250000Y-143500000D02*
X139250000Y-151930000D01*
%TO.C,Q12*%
X150532843Y-127983096D02*
X150532843Y-130383096D01*
X150532843Y-130383096D02*
X148232843Y-130383096D01*
X148232843Y-130383096D02*
X148232843Y-127983096D01*
X148232843Y-127983096D02*
X150532843Y-127983096D01*
%TO.C,U4*%
X92880000Y-67720000D02*
X92880000Y-69280000D01*
X92880000Y-69280000D02*
X91320000Y-69280000D01*
X91320000Y-69280000D02*
X91320000Y-67720000D01*
X91320000Y-67720000D02*
X92880000Y-67720000D01*
%TO.C,Q17*%
X152400000Y-68850000D02*
X150000000Y-68850000D01*
X150000000Y-68850000D02*
X150000000Y-66550000D01*
X150000000Y-66550000D02*
X152400000Y-66550000D01*
X152400000Y-66550000D02*
X152400000Y-68850000D01*
%TO.C,C40*%
X129070000Y-90230000D02*
X130930000Y-90230000D01*
X129070000Y-91170000D02*
X129070000Y-90230000D01*
X130930000Y-91170000D02*
X129070000Y-91170000D01*
X130930000Y-90230000D02*
X130930000Y-91170000D01*
%TO.C,R40*%
X115256939Y-87344860D02*
X113396939Y-87344860D01*
X115256939Y-86404860D02*
X115256939Y-87344860D01*
X113396939Y-86404860D02*
X115256939Y-86404860D01*
X113396939Y-87344860D02*
X113396939Y-86404860D01*
%TO.C,R42*%
X115256942Y-88344861D02*
X113396942Y-88344861D01*
X115256942Y-87404861D02*
X115256942Y-88344861D01*
X113396942Y-87404861D02*
X115256942Y-87404861D01*
X113396942Y-88344861D02*
X113396942Y-87404861D01*
%TO.C,R44*%
X115241942Y-89344862D02*
X113381942Y-89344862D01*
X115241942Y-88404862D02*
X115241942Y-89344862D01*
X113381942Y-88404862D02*
X115241942Y-88404862D01*
X113381942Y-89344862D02*
X113381942Y-88404862D01*
%TO.C,R47*%
X115336942Y-85494862D02*
X113476942Y-85494862D01*
X115336942Y-84554862D02*
X115336942Y-85494862D01*
X113476942Y-84554862D02*
X115336942Y-84554862D01*
X113476942Y-85494862D02*
X113476942Y-84554862D01*
%TO.C,R50*%
X129020000Y-81330000D02*
X130880000Y-81330000D01*
X129020000Y-82270000D02*
X129020000Y-81330000D01*
X130880000Y-82270000D02*
X129020000Y-82270000D01*
X130880000Y-81330000D02*
X130880000Y-82270000D01*
%TO.C,R51*%
X129020000Y-80330000D02*
X130880000Y-80330000D01*
X129020000Y-81270000D02*
X129020000Y-80330000D01*
X130880000Y-81270000D02*
X129020000Y-81270000D01*
X130880000Y-80330000D02*
X130880000Y-81270000D01*
%TO.C,R54*%
X118930000Y-77580000D02*
X118930000Y-75720000D01*
X119870000Y-77580000D02*
X118930000Y-77580000D01*
X119870000Y-75720000D02*
X119870000Y-77580000D01*
X118930000Y-75720000D02*
X119870000Y-75720000D01*
%TO.C,R56*%
X117930000Y-77580000D02*
X117930000Y-75720000D01*
X118870000Y-77580000D02*
X117930000Y-77580000D01*
X118870000Y-75720000D02*
X118870000Y-77580000D01*
X117930000Y-75720000D02*
X118870000Y-75720000D01*
%TO.C,R58*%
X116936942Y-77580000D02*
X116936942Y-75720000D01*
X117876942Y-77580000D02*
X116936942Y-77580000D01*
X117876942Y-75720000D02*
X117876942Y-77580000D01*
X116936942Y-75720000D02*
X117876942Y-75720000D01*
%TO.C,R61*%
X128976942Y-88254862D02*
X130836942Y-88254862D01*
X128976942Y-89194862D02*
X128976942Y-88254862D01*
X130836942Y-89194862D02*
X128976942Y-89194862D01*
X130836942Y-88254862D02*
X130836942Y-89194862D01*
%TO.C,U21*%
X133710000Y-72970000D02*
X133710000Y-75470000D01*
X133710000Y-75470000D02*
X131410000Y-75470000D01*
X131410000Y-75470000D02*
X131410000Y-72970000D01*
X131410000Y-72970000D02*
X133710000Y-72970000D01*
%TO.C,C104*%
X141395000Y-85428222D02*
X141395000Y-87288222D01*
X140455000Y-85428222D02*
X141395000Y-85428222D01*
X140455000Y-87288222D02*
X140455000Y-85428222D01*
X141395000Y-87288222D02*
X140455000Y-87288222D01*
%TO.C,Q3*%
X119850000Y-121600000D02*
X117450000Y-121600000D01*
X117450000Y-121600000D02*
X117450000Y-119300000D01*
X117450000Y-119300000D02*
X119850000Y-119300000D01*
X119850000Y-119300000D02*
X119850000Y-121600000D01*
%TO.C,R20*%
X110530000Y-123130000D02*
X110530000Y-121270000D01*
X111470000Y-123130000D02*
X110530000Y-123130000D01*
X111470000Y-121270000D02*
X111470000Y-123130000D01*
X110530000Y-121270000D02*
X111470000Y-121270000D01*
%TO.C,R21*%
X111470000Y-119470000D02*
X111470000Y-121330000D01*
X110530000Y-119470000D02*
X111470000Y-119470000D01*
X110530000Y-121330000D02*
X110530000Y-119470000D01*
X111470000Y-121330000D02*
X110530000Y-121330000D01*
%TO.C,R22*%
X117030000Y-122930000D02*
X117030000Y-121070000D01*
X117970000Y-122930000D02*
X117030000Y-122930000D01*
X117970000Y-121070000D02*
X117970000Y-122930000D01*
X117030000Y-121070000D02*
X117970000Y-121070000D01*
%TO.C,U7*%
X113147400Y-123052600D02*
X113147400Y-122431589D01*
X113147400Y-122431589D02*
X112847401Y-122431589D01*
X112847401Y-122431589D02*
X112847401Y-120168411D01*
X112847401Y-120168411D02*
X113147400Y-120168411D01*
X113147400Y-120168411D02*
X113147400Y-119547400D01*
X113147400Y-119547400D02*
X113768411Y-119547400D01*
X113768411Y-119547400D02*
X113768411Y-119247401D01*
X113768411Y-119247401D02*
X116031589Y-119247401D01*
X116031589Y-119247401D02*
X116031589Y-119547400D01*
X116031589Y-119547400D02*
X116652600Y-119547400D01*
X116652600Y-119547400D02*
X116652600Y-120168411D01*
X116652600Y-120168411D02*
X116952599Y-120168411D01*
X116952599Y-120168411D02*
X116952599Y-122431589D01*
X116952599Y-122431589D02*
X116652600Y-122431589D01*
X116652600Y-122431589D02*
X116652600Y-123052600D01*
X116652600Y-123052600D02*
X116031589Y-123052600D01*
X113768411Y-123052600D02*
X113147400Y-123052600D01*
X113147400Y-123052600D02*
X113147400Y-122431589D01*
X113147400Y-122431589D02*
X112847401Y-122431589D01*
X112847401Y-122431589D02*
X112847401Y-120168411D01*
X112847401Y-120168411D02*
X113147400Y-120168411D01*
X113147400Y-120168411D02*
X113147400Y-119547400D01*
X113147400Y-119547400D02*
X113768411Y-119547400D01*
X113768411Y-119547400D02*
X113768411Y-119247401D01*
X113768411Y-119247401D02*
X116031589Y-119247401D01*
X116031589Y-119247401D02*
X116031589Y-119547400D01*
X116031589Y-119547400D02*
X116652600Y-119547400D01*
X116652600Y-119547400D02*
X116652600Y-120168411D01*
X116652600Y-120168411D02*
X116952599Y-120168411D01*
X116952599Y-120168411D02*
X116952599Y-122431589D01*
X116952599Y-122431589D02*
X116652600Y-122431589D01*
X116652600Y-122431589D02*
X116652600Y-123052600D01*
X116652600Y-123052600D02*
X116031589Y-123052600D01*
X113768411Y-123052600D02*
X113147400Y-123052600D01*
%TO.C,U59*%
X145750000Y-60650000D02*
X145750000Y-63150000D01*
X145750000Y-63150000D02*
X143450000Y-63150000D01*
X143450000Y-63150000D02*
X143450000Y-60650000D01*
X143450000Y-60650000D02*
X145750000Y-60650000D01*
%TO.C,D26*%
X147795000Y-60975000D02*
X147795000Y-63425000D01*
X147795000Y-60975000D02*
X152605000Y-60975000D01*
X152605000Y-63425000D02*
X152605000Y-60975000D01*
X152605000Y-63425000D02*
X147795000Y-63425000D01*
%TO.C,D27*%
X185845000Y-58725000D02*
X185845000Y-61175000D01*
X185845000Y-58725000D02*
X190655000Y-58725000D01*
X190655000Y-61175000D02*
X190655000Y-58725000D01*
X190655000Y-61175000D02*
X185845000Y-61175000D01*
%TO.C,J6*%
X105370000Y-80480000D02*
X110800000Y-80480000D01*
X110800000Y-87320000D02*
X110800000Y-80480000D01*
X105370000Y-87320000D02*
X105370000Y-80480000D01*
X105370000Y-87320000D02*
X110800000Y-87320000D01*
%TO.C,C39*%
X126370000Y-94555000D02*
X128230000Y-94555000D01*
X126370000Y-95495000D02*
X126370000Y-94555000D01*
X128230000Y-95495000D02*
X126370000Y-95495000D01*
X128230000Y-94555000D02*
X128230000Y-95495000D01*
%TO.C,U16*%
X137030000Y-75050000D02*
X137030000Y-71450000D01*
X143300000Y-75050000D02*
X143300000Y-71450000D01*
X143300000Y-71450000D02*
X137030000Y-71450000D01*
X143300000Y-75050000D02*
X137030000Y-75050000D01*
%TO.C,U18*%
X117165000Y-75050000D02*
X117165000Y-71450000D01*
X123435000Y-75050000D02*
X123435000Y-71450000D01*
X123435000Y-71450000D02*
X117165000Y-71450000D01*
X123435000Y-75050000D02*
X117165000Y-75050000D01*
D15*
%TO.C,J5*%
X173143100Y-73771192D02*
X173143100Y-51901793D01*
X173143100Y-51901793D02*
X154826900Y-51901793D01*
X154826900Y-51901793D02*
X154826900Y-73771192D01*
X154826900Y-73771192D02*
X173143100Y-73771192D01*
D12*
%TO.C,R113*%
X140648409Y-127648647D02*
X142508409Y-127648647D01*
X140648409Y-128588647D02*
X140648409Y-127648647D01*
X142508409Y-128588647D02*
X140648409Y-128588647D01*
X142508409Y-127648647D02*
X142508409Y-128588647D01*
%TO.C,R114*%
X140039974Y-128592183D02*
X138179974Y-128592183D01*
X140039974Y-127652183D02*
X140039974Y-128592183D01*
X138179974Y-127652183D02*
X140039974Y-127652183D01*
X138179974Y-128592183D02*
X138179974Y-127652183D01*
%TO.C,U44*%
X139071787Y-124524767D02*
X141671787Y-124524767D01*
X139071787Y-127524767D02*
X139071787Y-124524767D01*
X141671787Y-127524767D02*
X139071787Y-127524767D01*
X141671787Y-124524767D02*
X141671787Y-127524767D01*
%TO.C,U45*%
X142249916Y-124512314D02*
X144849916Y-124512314D01*
X142249916Y-127512314D02*
X142249916Y-124512314D01*
X144849916Y-127512314D02*
X142249916Y-127512314D01*
X144849916Y-124512314D02*
X144849916Y-127512314D01*
%TO.C,U46*%
X141801076Y-131650000D02*
X139001076Y-131650000D01*
X139001076Y-131650000D02*
X139001076Y-128650000D01*
X139001076Y-128650000D02*
X141801076Y-128650000D01*
X141801076Y-128650000D02*
X141801076Y-131650000D01*
%TO.C,C63*%
X141520000Y-75105000D02*
X143380000Y-75105000D01*
X141520000Y-76045000D02*
X141520000Y-75105000D01*
X143380000Y-76045000D02*
X141520000Y-76045000D01*
X143380000Y-75105000D02*
X143380000Y-76045000D01*
%TO.C,D18*%
X140160000Y-95800000D02*
X140160000Y-93000000D01*
X138740000Y-95800000D02*
X138740000Y-93000000D01*
X140160000Y-93000000D02*
X138740000Y-93000000D01*
X140160000Y-95800000D02*
X138740000Y-95800000D01*
%TO.C,C42*%
X130445000Y-82520000D02*
X130445000Y-84380000D01*
X129505000Y-82520000D02*
X130445000Y-82520000D01*
X129505000Y-84380000D02*
X129505000Y-82520000D01*
X130445000Y-84380000D02*
X129505000Y-84380000D01*
%TO.C,Q4*%
X153350000Y-71300000D02*
X153350000Y-68900000D01*
X153350000Y-68900000D02*
X155650000Y-68900000D01*
X155650000Y-68900000D02*
X155650000Y-71300000D01*
X155650000Y-71300000D02*
X153350000Y-71300000D01*
%TO.C,Q5*%
X151550000Y-71300000D02*
X151550000Y-68900000D01*
X151550000Y-68900000D02*
X153850000Y-68900000D01*
X153850000Y-68900000D02*
X153850000Y-71300000D01*
X153850000Y-71300000D02*
X151550000Y-71300000D01*
%TO.C,D8*%
X173690000Y-72830000D02*
X181910000Y-72830000D01*
X173690000Y-67370000D02*
X173690000Y-72830000D01*
X181910000Y-67370000D02*
X173690000Y-67370000D01*
X181910000Y-72830000D02*
X181910000Y-67370000D01*
%TO.C,R15*%
X96678900Y-119006500D02*
X96678900Y-116999900D01*
X96678900Y-116999900D02*
X98812500Y-116999900D01*
X98812500Y-116999900D02*
X98812500Y-119006500D01*
X98812500Y-119006500D02*
X96678900Y-119006500D01*
D15*
X97390100Y-118752500D02*
X97390100Y-117253900D01*
X97390100Y-117253900D02*
X98101300Y-117253900D01*
X98101300Y-117253900D02*
X98101300Y-118752500D01*
X98101300Y-118752500D02*
X97390100Y-118752500D01*
%TD*%
M02*
