%TF.GenerationSoftware,KiCad,Pcbnew,5.1.9+dfsg1-1*%
%TF.CreationDate,2022-05-02T11:36:44+02:00*%
%TF.ProjectId,kria-k26-devboard,6b726961-2d6b-4323-962d-646576626f61,rev?*%
%TF.SameCoordinates,Original*%
%TF.FileFunction,Soldermask,Bot*%
%TF.FilePolarity,Negative*%
%FSLAX46Y46*%
G04 Gerber Fmt 4.6, Leading zero omitted, Abs format (unit mm)*
G04 Created by KiCad (PCBNEW 5.1.9+dfsg1-1) date 2022-05-02 11:36:44 commit fc1e327*
%MOMM*%
%LPD*%
G01*
G04 APERTURE LIST*
%TA.AperFunction,Profile*%
%ADD10C,0.100000*%
%TD*%
%ADD11C,0.010000*%
%ADD12R,2.500000X3.000000*%
%ADD13R,3.000000X2.700000*%
%ADD14R,1.200000X0.300000*%
%ADD15C,1.100000*%
%ADD16C,2.700000*%
%ADD17C,2.250000*%
%ADD18R,2.250000X2.250000*%
%ADD19R,0.800000X0.600000*%
%ADD20R,1.200000X1.200000*%
%ADD21R,0.600000X0.800000*%
%ADD22R,1.520000X3.050000*%
%ADD23R,0.800000X0.800000*%
%ADD24O,4.500000X2.000000*%
%ADD25O,1.990000X4.000000*%
%ADD26O,4.000000X2.000000*%
%ADD27R,1.840000X1.840000*%
%ADD28C,1.840000*%
%ADD29C,1.800000*%
%ADD30C,6.000000*%
%ADD31R,1.200000X0.700000*%
%ADD32O,1.200000X2.400000*%
%ADD33O,1.400000X2.800000*%
%ADD34C,1.400000*%
%ADD35R,0.300000X0.600000*%
%ADD36C,0.950000*%
%ADD37C,5.300000*%
%ADD38R,1.550000X0.300000*%
%ADD39R,2.750000X1.200000*%
%ADD40C,1.600000*%
%ADD41C,1.150000*%
%ADD42C,1.750000*%
%ADD43O,1.000000X2.000000*%
%ADD44O,1.050000X2.100000*%
%ADD45C,0.650000*%
%ADD46R,0.600000X0.500000*%
%ADD47C,2.020000*%
%ADD48C,1.397000*%
%ADD49C,2.100000*%
%ADD50C,2.108200*%
%ADD51C,3.250000*%
%ADD52C,1.524000*%
G04 APERTURE END LIST*
D10*
X74000000Y-152000000D02*
X74000000Y-52000000D01*
X74000000Y-52000000D02*
X192000000Y-52000000D01*
X192000000Y-52000000D02*
X192000000Y-152000000D01*
X192000000Y-152000000D02*
X74000000Y-152000000D01*
D11*
%TO.C,U12*%
G36*
X174570000Y-141835000D02*
G01*
X174570000Y-141130000D01*
X174030000Y-141130000D01*
X174030000Y-141835000D01*
X174570000Y-141835000D01*
G37*
X174570000Y-141835000D02*
X174570000Y-141130000D01*
X174030000Y-141130000D01*
X174030000Y-141835000D01*
X174570000Y-141835000D01*
G36*
X174570000Y-142670000D02*
G01*
X174570000Y-141965000D01*
X174030000Y-141965000D01*
X174030000Y-142670000D01*
X174570000Y-142670000D01*
G37*
X174570000Y-142670000D02*
X174570000Y-141965000D01*
X174030000Y-141965000D01*
X174030000Y-142670000D01*
X174570000Y-142670000D01*
G36*
X173470000Y-141835000D02*
G01*
X173470000Y-141130000D01*
X173130000Y-141130000D01*
X173130000Y-141835000D01*
X173470000Y-141835000D01*
G37*
X173470000Y-141835000D02*
X173470000Y-141130000D01*
X173130000Y-141130000D01*
X173130000Y-141835000D01*
X173470000Y-141835000D01*
G36*
X173970000Y-141835000D02*
G01*
X173970000Y-141130000D01*
X173630000Y-141130000D01*
X173630000Y-141835000D01*
X173970000Y-141835000D01*
G37*
X173970000Y-141835000D02*
X173970000Y-141130000D01*
X173630000Y-141130000D01*
X173630000Y-141835000D01*
X173970000Y-141835000D01*
G36*
X174970000Y-141835000D02*
G01*
X174970000Y-141130000D01*
X174630000Y-141130000D01*
X174630000Y-141835000D01*
X174970000Y-141835000D01*
G37*
X174970000Y-141835000D02*
X174970000Y-141130000D01*
X174630000Y-141130000D01*
X174630000Y-141835000D01*
X174970000Y-141835000D01*
G36*
X175470000Y-141835000D02*
G01*
X175470000Y-141130000D01*
X175130000Y-141130000D01*
X175130000Y-141835000D01*
X175470000Y-141835000D01*
G37*
X175470000Y-141835000D02*
X175470000Y-141130000D01*
X175130000Y-141130000D01*
X175130000Y-141835000D01*
X175470000Y-141835000D01*
G36*
X173470000Y-142670000D02*
G01*
X173470000Y-141965000D01*
X173130000Y-141965000D01*
X173130000Y-142670000D01*
X173470000Y-142670000D01*
G37*
X173470000Y-142670000D02*
X173470000Y-141965000D01*
X173130000Y-141965000D01*
X173130000Y-142670000D01*
X173470000Y-142670000D01*
G36*
X173970000Y-142670000D02*
G01*
X173970000Y-141965000D01*
X173630000Y-141965000D01*
X173630000Y-142670000D01*
X173970000Y-142670000D01*
G37*
X173970000Y-142670000D02*
X173970000Y-141965000D01*
X173630000Y-141965000D01*
X173630000Y-142670000D01*
X173970000Y-142670000D01*
G36*
X174970000Y-142670000D02*
G01*
X174970000Y-141965000D01*
X174630000Y-141965000D01*
X174630000Y-142670000D01*
X174970000Y-142670000D01*
G37*
X174970000Y-142670000D02*
X174970000Y-141965000D01*
X174630000Y-141965000D01*
X174630000Y-142670000D01*
X174970000Y-142670000D01*
G36*
X175470000Y-142670000D02*
G01*
X175470000Y-141965000D01*
X175130000Y-141965000D01*
X175130000Y-142670000D01*
X175470000Y-142670000D01*
G37*
X175470000Y-142670000D02*
X175470000Y-141965000D01*
X175130000Y-141965000D01*
X175130000Y-142670000D01*
X175470000Y-142670000D01*
%TO.C,U15*%
G36*
X129480000Y-73314999D02*
G01*
X129480000Y-74019999D01*
X130020000Y-74019999D01*
X130020000Y-73314999D01*
X129480000Y-73314999D01*
G37*
X129480000Y-73314999D02*
X129480000Y-74019999D01*
X130020000Y-74019999D01*
X130020000Y-73314999D01*
X129480000Y-73314999D01*
G36*
X129480000Y-72479999D02*
G01*
X129480000Y-73184999D01*
X130020000Y-73184999D01*
X130020000Y-72479999D01*
X129480000Y-72479999D01*
G37*
X129480000Y-72479999D02*
X129480000Y-73184999D01*
X130020000Y-73184999D01*
X130020000Y-72479999D01*
X129480000Y-72479999D01*
G36*
X130580000Y-73314999D02*
G01*
X130580000Y-74019999D01*
X130920000Y-74019999D01*
X130920000Y-73314999D01*
X130580000Y-73314999D01*
G37*
X130580000Y-73314999D02*
X130580000Y-74019999D01*
X130920000Y-74019999D01*
X130920000Y-73314999D01*
X130580000Y-73314999D01*
G36*
X130080000Y-73314999D02*
G01*
X130080000Y-74019999D01*
X130420000Y-74019999D01*
X130420000Y-73314999D01*
X130080000Y-73314999D01*
G37*
X130080000Y-73314999D02*
X130080000Y-74019999D01*
X130420000Y-74019999D01*
X130420000Y-73314999D01*
X130080000Y-73314999D01*
G36*
X129080000Y-73314999D02*
G01*
X129080000Y-74019999D01*
X129420000Y-74019999D01*
X129420000Y-73314999D01*
X129080000Y-73314999D01*
G37*
X129080000Y-73314999D02*
X129080000Y-74019999D01*
X129420000Y-74019999D01*
X129420000Y-73314999D01*
X129080000Y-73314999D01*
G36*
X128580000Y-73314999D02*
G01*
X128580000Y-74019999D01*
X128920000Y-74019999D01*
X128920000Y-73314999D01*
X128580000Y-73314999D01*
G37*
X128580000Y-73314999D02*
X128580000Y-74019999D01*
X128920000Y-74019999D01*
X128920000Y-73314999D01*
X128580000Y-73314999D01*
G36*
X130580000Y-72479999D02*
G01*
X130580000Y-73184999D01*
X130920000Y-73184999D01*
X130920000Y-72479999D01*
X130580000Y-72479999D01*
G37*
X130580000Y-72479999D02*
X130580000Y-73184999D01*
X130920000Y-73184999D01*
X130920000Y-72479999D01*
X130580000Y-72479999D01*
G36*
X130080000Y-72479999D02*
G01*
X130080000Y-73184999D01*
X130420000Y-73184999D01*
X130420000Y-72479999D01*
X130080000Y-72479999D01*
G37*
X130080000Y-72479999D02*
X130080000Y-73184999D01*
X130420000Y-73184999D01*
X130420000Y-72479999D01*
X130080000Y-72479999D01*
G36*
X129080000Y-72479999D02*
G01*
X129080000Y-73184999D01*
X129420000Y-73184999D01*
X129420000Y-72479999D01*
X129080000Y-72479999D01*
G37*
X129080000Y-72479999D02*
X129080000Y-73184999D01*
X129420000Y-73184999D01*
X129420000Y-72479999D01*
X129080000Y-72479999D01*
G36*
X128580000Y-72479999D02*
G01*
X128580000Y-73184999D01*
X128920000Y-73184999D01*
X128920000Y-72479999D01*
X128580000Y-72479999D01*
G37*
X128580000Y-72479999D02*
X128580000Y-73184999D01*
X128920000Y-73184999D01*
X128920000Y-72479999D01*
X128580000Y-72479999D01*
%TO.C,U18*%
G36*
X110130000Y-73365000D02*
G01*
X110130000Y-74070000D01*
X110670000Y-74070000D01*
X110670000Y-73365000D01*
X110130000Y-73365000D01*
G37*
X110130000Y-73365000D02*
X110130000Y-74070000D01*
X110670000Y-74070000D01*
X110670000Y-73365000D01*
X110130000Y-73365000D01*
G36*
X110130000Y-72530000D02*
G01*
X110130000Y-73235000D01*
X110670000Y-73235000D01*
X110670000Y-72530000D01*
X110130000Y-72530000D01*
G37*
X110130000Y-72530000D02*
X110130000Y-73235000D01*
X110670000Y-73235000D01*
X110670000Y-72530000D01*
X110130000Y-72530000D01*
G36*
X111230000Y-73365000D02*
G01*
X111230000Y-74070000D01*
X111570000Y-74070000D01*
X111570000Y-73365000D01*
X111230000Y-73365000D01*
G37*
X111230000Y-73365000D02*
X111230000Y-74070000D01*
X111570000Y-74070000D01*
X111570000Y-73365000D01*
X111230000Y-73365000D01*
G36*
X110730000Y-73365000D02*
G01*
X110730000Y-74070000D01*
X111070000Y-74070000D01*
X111070000Y-73365000D01*
X110730000Y-73365000D01*
G37*
X110730000Y-73365000D02*
X110730000Y-74070000D01*
X111070000Y-74070000D01*
X111070000Y-73365000D01*
X110730000Y-73365000D01*
G36*
X109730000Y-73365000D02*
G01*
X109730000Y-74070000D01*
X110070000Y-74070000D01*
X110070000Y-73365000D01*
X109730000Y-73365000D01*
G37*
X109730000Y-73365000D02*
X109730000Y-74070000D01*
X110070000Y-74070000D01*
X110070000Y-73365000D01*
X109730000Y-73365000D01*
G36*
X109230000Y-73365000D02*
G01*
X109230000Y-74070000D01*
X109570000Y-74070000D01*
X109570000Y-73365000D01*
X109230000Y-73365000D01*
G37*
X109230000Y-73365000D02*
X109230000Y-74070000D01*
X109570000Y-74070000D01*
X109570000Y-73365000D01*
X109230000Y-73365000D01*
G36*
X111230000Y-72530000D02*
G01*
X111230000Y-73235000D01*
X111570000Y-73235000D01*
X111570000Y-72530000D01*
X111230000Y-72530000D01*
G37*
X111230000Y-72530000D02*
X111230000Y-73235000D01*
X111570000Y-73235000D01*
X111570000Y-72530000D01*
X111230000Y-72530000D01*
G36*
X110730000Y-72530000D02*
G01*
X110730000Y-73235000D01*
X111070000Y-73235000D01*
X111070000Y-72530000D01*
X110730000Y-72530000D01*
G37*
X110730000Y-72530000D02*
X110730000Y-73235000D01*
X111070000Y-73235000D01*
X111070000Y-72530000D01*
X110730000Y-72530000D01*
G36*
X109730000Y-72530000D02*
G01*
X109730000Y-73235000D01*
X110070000Y-73235000D01*
X110070000Y-72530000D01*
X109730000Y-72530000D01*
G37*
X109730000Y-72530000D02*
X109730000Y-73235000D01*
X110070000Y-73235000D01*
X110070000Y-72530000D01*
X109730000Y-72530000D01*
G36*
X109230000Y-72530000D02*
G01*
X109230000Y-73235000D01*
X109570000Y-73235000D01*
X109570000Y-72530000D01*
X109230000Y-72530000D01*
G37*
X109230000Y-72530000D02*
X109230000Y-73235000D01*
X109570000Y-73235000D01*
X109570000Y-72530000D01*
X109230000Y-72530000D01*
%TO.C,U59*%
G36*
X149698800Y-72420001D02*
G01*
X149698800Y-75020001D01*
X149198800Y-75020001D01*
X149198800Y-76070001D01*
X147598800Y-76070001D01*
X147598800Y-75020001D01*
X147098800Y-75020001D01*
X147098800Y-72420001D01*
X147598800Y-72420001D01*
X147598800Y-71370001D01*
X149198800Y-71370001D01*
X149198800Y-72420001D01*
X149698800Y-72420001D01*
G37*
X149698800Y-72420001D02*
X149698800Y-75020001D01*
X149198800Y-75020001D01*
X149198800Y-76070001D01*
X147598800Y-76070001D01*
X147598800Y-75020001D01*
X147098800Y-75020001D01*
X147098800Y-72420001D01*
X147598800Y-72420001D01*
X147598800Y-71370001D01*
X149198800Y-71370001D01*
X149198800Y-72420001D01*
X149698800Y-72420001D01*
G36*
X151148800Y-71275001D02*
G01*
X149648800Y-71275001D01*
X149648800Y-71875001D01*
X151148800Y-71875001D01*
X151148800Y-71275001D01*
G37*
X151148800Y-71275001D02*
X149648800Y-71275001D01*
X149648800Y-71875001D01*
X151148800Y-71875001D01*
X151148800Y-71275001D01*
G36*
X147148800Y-71275001D02*
G01*
X145648800Y-71275001D01*
X145648800Y-71875001D01*
X147148800Y-71875001D01*
X147148800Y-71275001D01*
G37*
X147148800Y-71275001D02*
X145648800Y-71275001D01*
X145648800Y-71875001D01*
X147148800Y-71875001D01*
X147148800Y-71275001D01*
G36*
X151148800Y-75575001D02*
G01*
X149648800Y-75575001D01*
X149648800Y-76175001D01*
X151148800Y-76175001D01*
X151148800Y-75575001D01*
G37*
X151148800Y-75575001D02*
X149648800Y-75575001D01*
X149648800Y-76175001D01*
X151148800Y-76175001D01*
X151148800Y-75575001D01*
G36*
X147148800Y-75575001D02*
G01*
X145648800Y-75575001D01*
X145648800Y-76175001D01*
X147148800Y-76175001D01*
X147148800Y-75575001D01*
G37*
X147148800Y-75575001D02*
X145648800Y-75575001D01*
X145648800Y-76175001D01*
X147148800Y-76175001D01*
X147148800Y-75575001D01*
G36*
X151148800Y-72325001D02*
G01*
X150348800Y-72325001D01*
X150348800Y-72775001D01*
X151148800Y-72775001D01*
X151148800Y-72325001D01*
G37*
X151148800Y-72325001D02*
X150348800Y-72325001D01*
X150348800Y-72775001D01*
X151148800Y-72775001D01*
X151148800Y-72325001D01*
G36*
X151148800Y-72975001D02*
G01*
X150348800Y-72975001D01*
X150348800Y-73425001D01*
X151148800Y-73425001D01*
X151148800Y-72975001D01*
G37*
X151148800Y-72975001D02*
X150348800Y-72975001D01*
X150348800Y-73425001D01*
X151148800Y-73425001D01*
X151148800Y-72975001D01*
G36*
X151148800Y-73625001D02*
G01*
X150348800Y-73625001D01*
X150348800Y-74075001D01*
X151148800Y-74075001D01*
X151148800Y-73625001D01*
G37*
X151148800Y-73625001D02*
X150348800Y-73625001D01*
X150348800Y-74075001D01*
X151148800Y-74075001D01*
X151148800Y-73625001D01*
G36*
X151148800Y-74275001D02*
G01*
X150348800Y-74275001D01*
X150348800Y-74725001D01*
X151148800Y-74725001D01*
X151148800Y-74275001D01*
G37*
X151148800Y-74275001D02*
X150348800Y-74275001D01*
X150348800Y-74725001D01*
X151148800Y-74725001D01*
X151148800Y-74275001D01*
G36*
X151148800Y-74925001D02*
G01*
X150348800Y-74925001D01*
X150348800Y-75375001D01*
X151148800Y-75375001D01*
X151148800Y-74925001D01*
G37*
X151148800Y-74925001D02*
X150348800Y-74925001D01*
X150348800Y-75375001D01*
X151148800Y-75375001D01*
X151148800Y-74925001D01*
G36*
X146448800Y-72325001D02*
G01*
X145648800Y-72325001D01*
X145648800Y-72775001D01*
X146448800Y-72775001D01*
X146448800Y-72325001D01*
G37*
X146448800Y-72325001D02*
X145648800Y-72325001D01*
X145648800Y-72775001D01*
X146448800Y-72775001D01*
X146448800Y-72325001D01*
G36*
X146448800Y-72975001D02*
G01*
X145648800Y-72975001D01*
X145648800Y-73425001D01*
X146448800Y-73425001D01*
X146448800Y-72975001D01*
G37*
X146448800Y-72975001D02*
X145648800Y-72975001D01*
X145648800Y-73425001D01*
X146448800Y-73425001D01*
X146448800Y-72975001D01*
G36*
X146448800Y-73625001D02*
G01*
X145648800Y-73625001D01*
X145648800Y-74075001D01*
X146448800Y-74075001D01*
X146448800Y-73625001D01*
G37*
X146448800Y-73625001D02*
X145648800Y-73625001D01*
X145648800Y-74075001D01*
X146448800Y-74075001D01*
X146448800Y-73625001D01*
G36*
X146448800Y-74275001D02*
G01*
X145648800Y-74275001D01*
X145648800Y-74725001D01*
X146448800Y-74725001D01*
X146448800Y-74275001D01*
G37*
X146448800Y-74275001D02*
X145648800Y-74275001D01*
X145648800Y-74725001D01*
X146448800Y-74725001D01*
X146448800Y-74275001D01*
G36*
X146448800Y-74925001D02*
G01*
X145648800Y-74925001D01*
X145648800Y-75375001D01*
X146448800Y-75375001D01*
X146448800Y-74925001D01*
G37*
X146448800Y-74925001D02*
X145648800Y-74925001D01*
X145648800Y-75375001D01*
X146448800Y-75375001D01*
X146448800Y-74925001D01*
%TD*%
D12*
%TO.C,J3*%
X79800000Y-116200000D03*
D13*
X83750000Y-116200000D03*
X83750000Y-87800000D03*
X80050000Y-87800000D03*
D14*
X81900000Y-89750000D03*
X81900000Y-90250000D03*
X81900000Y-90750000D03*
X81900000Y-91250000D03*
X81900000Y-91750000D03*
X81900000Y-92250000D03*
X81900000Y-92750000D03*
X81900000Y-93250000D03*
X81900000Y-93750000D03*
X81900000Y-94250000D03*
X81900000Y-94750000D03*
X81900000Y-95250000D03*
X81900000Y-95750000D03*
X81900000Y-96250000D03*
X81900000Y-96750000D03*
X81900000Y-97250000D03*
X81900000Y-97750000D03*
X81900000Y-98250000D03*
X81900000Y-98750000D03*
X81900000Y-99250000D03*
X81900000Y-99750000D03*
X81900000Y-100250000D03*
X81900000Y-100750000D03*
X81900000Y-101250000D03*
X81900000Y-101750000D03*
X81900000Y-102250000D03*
X81900000Y-102750000D03*
X81900000Y-103250000D03*
X81900000Y-103750000D03*
X81900000Y-104250000D03*
X81900000Y-104750000D03*
X81900000Y-105250000D03*
X81900000Y-105750000D03*
X81900000Y-106250000D03*
X81900000Y-106750000D03*
X81900000Y-107250000D03*
X81900000Y-107750000D03*
X81900000Y-108250000D03*
X81900000Y-108750000D03*
X81900000Y-109250000D03*
X81900000Y-109750000D03*
X81900000Y-110250000D03*
X81900000Y-110750000D03*
X81900000Y-111250000D03*
X81900000Y-111750000D03*
X81900000Y-112250000D03*
X81900000Y-112750000D03*
X81900000Y-113250000D03*
X81900000Y-113750000D03*
X81900000Y-114250000D03*
%TD*%
%TO.C,R44*%
G36*
G01*
X127460000Y-84707500D02*
X127460000Y-85052500D01*
G75*
G02*
X127312500Y-85200000I-147500J0D01*
G01*
X127017500Y-85200000D01*
G75*
G02*
X126870000Y-85052500I0J147500D01*
G01*
X126870000Y-84707500D01*
G75*
G02*
X127017500Y-84560000I147500J0D01*
G01*
X127312500Y-84560000D01*
G75*
G02*
X127460000Y-84707500I0J-147500D01*
G01*
G37*
G36*
G01*
X128430000Y-84707500D02*
X128430000Y-85052500D01*
G75*
G02*
X128282500Y-85200000I-147500J0D01*
G01*
X127987500Y-85200000D01*
G75*
G02*
X127840000Y-85052500I0J147500D01*
G01*
X127840000Y-84707500D01*
G75*
G02*
X127987500Y-84560000I147500J0D01*
G01*
X128282500Y-84560000D01*
G75*
G02*
X128430000Y-84707500I0J-147500D01*
G01*
G37*
%TD*%
D15*
%TO.C,U17*%
X133250000Y-65730000D03*
X130750000Y-65730000D03*
X128750000Y-65730000D03*
X126250000Y-65730000D03*
X126250000Y-68930000D03*
X130750000Y-68930000D03*
X128750000Y-68930000D03*
X133250000Y-68930000D03*
X133750000Y-67230000D03*
X131750000Y-67230000D03*
X129750000Y-67230000D03*
X127750000Y-67230000D03*
X125750000Y-67230000D03*
X125750000Y-70430000D03*
X129750000Y-70430000D03*
X127750000Y-70430000D03*
X131750000Y-70430000D03*
X133750000Y-70430000D03*
D16*
X136320000Y-63730000D03*
X136320000Y-69410000D03*
X123180000Y-69410000D03*
X123080000Y-63730000D03*
%TD*%
%TO.C,R43*%
G36*
G01*
X100127500Y-71290000D02*
X100472500Y-71290000D01*
G75*
G02*
X100620000Y-71437500I0J-147500D01*
G01*
X100620000Y-71732500D01*
G75*
G02*
X100472500Y-71880000I-147500J0D01*
G01*
X100127500Y-71880000D01*
G75*
G02*
X99980000Y-71732500I0J147500D01*
G01*
X99980000Y-71437500D01*
G75*
G02*
X100127500Y-71290000I147500J0D01*
G01*
G37*
G36*
G01*
X100127500Y-70320000D02*
X100472500Y-70320000D01*
G75*
G02*
X100620000Y-70467500I0J-147500D01*
G01*
X100620000Y-70762500D01*
G75*
G02*
X100472500Y-70910000I-147500J0D01*
G01*
X100127500Y-70910000D01*
G75*
G02*
X99980000Y-70762500I0J147500D01*
G01*
X99980000Y-70467500D01*
G75*
G02*
X100127500Y-70320000I147500J0D01*
G01*
G37*
%TD*%
%TO.C,R12*%
G36*
G01*
X151119289Y-147060368D02*
X151119289Y-146715368D01*
G75*
G02*
X151266789Y-146567868I147500J0D01*
G01*
X151561789Y-146567868D01*
G75*
G02*
X151709289Y-146715368I0J-147500D01*
G01*
X151709289Y-147060368D01*
G75*
G02*
X151561789Y-147207868I-147500J0D01*
G01*
X151266789Y-147207868D01*
G75*
G02*
X151119289Y-147060368I0J147500D01*
G01*
G37*
G36*
G01*
X150149289Y-147060368D02*
X150149289Y-146715368D01*
G75*
G02*
X150296789Y-146567868I147500J0D01*
G01*
X150591789Y-146567868D01*
G75*
G02*
X150739289Y-146715368I0J-147500D01*
G01*
X150739289Y-147060368D01*
G75*
G02*
X150591789Y-147207868I-147500J0D01*
G01*
X150296789Y-147207868D01*
G75*
G02*
X150149289Y-147060368I0J147500D01*
G01*
G37*
%TD*%
%TO.C,C72*%
G36*
G01*
X99227500Y-71290000D02*
X99572500Y-71290000D01*
G75*
G02*
X99720000Y-71437500I0J-147500D01*
G01*
X99720000Y-71732500D01*
G75*
G02*
X99572500Y-71880000I-147500J0D01*
G01*
X99227500Y-71880000D01*
G75*
G02*
X99080000Y-71732500I0J147500D01*
G01*
X99080000Y-71437500D01*
G75*
G02*
X99227500Y-71290000I147500J0D01*
G01*
G37*
G36*
G01*
X99227500Y-70320000D02*
X99572500Y-70320000D01*
G75*
G02*
X99720000Y-70467500I0J-147500D01*
G01*
X99720000Y-70762500D01*
G75*
G02*
X99572500Y-70910000I-147500J0D01*
G01*
X99227500Y-70910000D01*
G75*
G02*
X99080000Y-70762500I0J147500D01*
G01*
X99080000Y-70467500D01*
G75*
G02*
X99227500Y-70320000I147500J0D01*
G01*
G37*
%TD*%
%TO.C,C62*%
G36*
G01*
X151119289Y-146210367D02*
X151119289Y-145865367D01*
G75*
G02*
X151266789Y-145717867I147500J0D01*
G01*
X151561789Y-145717867D01*
G75*
G02*
X151709289Y-145865367I0J-147500D01*
G01*
X151709289Y-146210367D01*
G75*
G02*
X151561789Y-146357867I-147500J0D01*
G01*
X151266789Y-146357867D01*
G75*
G02*
X151119289Y-146210367I0J147500D01*
G01*
G37*
G36*
G01*
X150149289Y-146210367D02*
X150149289Y-145865367D01*
G75*
G02*
X150296789Y-145717867I147500J0D01*
G01*
X150591789Y-145717867D01*
G75*
G02*
X150739289Y-145865367I0J-147500D01*
G01*
X150739289Y-146210367D01*
G75*
G02*
X150591789Y-146357867I-147500J0D01*
G01*
X150296789Y-146357867D01*
G75*
G02*
X150149289Y-146210367I0J147500D01*
G01*
G37*
%TD*%
D17*
%TO.C,PS1*%
X187660000Y-110960000D03*
X177500000Y-110960000D03*
X167340000Y-110960000D03*
X174960000Y-90640000D03*
X180040000Y-90640000D03*
D18*
X187660000Y-90640000D03*
%TD*%
D19*
%TO.C,C81*%
X145335965Y-81170911D03*
X145335965Y-79770911D03*
%TD*%
%TO.C,C82*%
G36*
G01*
X155289999Y-86572500D02*
X155289999Y-86227500D01*
G75*
G02*
X155437499Y-86080000I147500J0D01*
G01*
X155732499Y-86080000D01*
G75*
G02*
X155879999Y-86227500I0J-147500D01*
G01*
X155879999Y-86572500D01*
G75*
G02*
X155732499Y-86720000I-147500J0D01*
G01*
X155437499Y-86720000D01*
G75*
G02*
X155289999Y-86572500I0J147500D01*
G01*
G37*
G36*
G01*
X154319999Y-86572500D02*
X154319999Y-86227500D01*
G75*
G02*
X154467499Y-86080000I147500J0D01*
G01*
X154762499Y-86080000D01*
G75*
G02*
X154909999Y-86227500I0J-147500D01*
G01*
X154909999Y-86572500D01*
G75*
G02*
X154762499Y-86720000I-147500J0D01*
G01*
X154467499Y-86720000D01*
G75*
G02*
X154319999Y-86572500I0J147500D01*
G01*
G37*
%TD*%
%TO.C,C83*%
G36*
G01*
X146522500Y-80435000D02*
X146177500Y-80435000D01*
G75*
G02*
X146030000Y-80287500I0J147500D01*
G01*
X146030000Y-79992500D01*
G75*
G02*
X146177500Y-79845000I147500J0D01*
G01*
X146522500Y-79845000D01*
G75*
G02*
X146670000Y-79992500I0J-147500D01*
G01*
X146670000Y-80287500D01*
G75*
G02*
X146522500Y-80435000I-147500J0D01*
G01*
G37*
G36*
G01*
X146522500Y-81405000D02*
X146177500Y-81405000D01*
G75*
G02*
X146030000Y-81257500I0J147500D01*
G01*
X146030000Y-80962500D01*
G75*
G02*
X146177500Y-80815000I147500J0D01*
G01*
X146522500Y-80815000D01*
G75*
G02*
X146670000Y-80962500I0J-147500D01*
G01*
X146670000Y-81257500D01*
G75*
G02*
X146522500Y-81405000I-147500J0D01*
G01*
G37*
%TD*%
%TO.C,C84*%
G36*
G01*
X146085911Y-89136535D02*
X146085911Y-88791535D01*
G75*
G02*
X146233411Y-88644035I147500J0D01*
G01*
X146528411Y-88644035D01*
G75*
G02*
X146675911Y-88791535I0J-147500D01*
G01*
X146675911Y-89136535D01*
G75*
G02*
X146528411Y-89284035I-147500J0D01*
G01*
X146233411Y-89284035D01*
G75*
G02*
X146085911Y-89136535I0J147500D01*
G01*
G37*
G36*
G01*
X145115911Y-89136535D02*
X145115911Y-88791535D01*
G75*
G02*
X145263411Y-88644035I147500J0D01*
G01*
X145558411Y-88644035D01*
G75*
G02*
X145705911Y-88791535I0J-147500D01*
G01*
X145705911Y-89136535D01*
G75*
G02*
X145558411Y-89284035I-147500J0D01*
G01*
X145263411Y-89284035D01*
G75*
G02*
X145115911Y-89136535I0J147500D01*
G01*
G37*
%TD*%
%TO.C,C85*%
G36*
G01*
X148518411Y-91424035D02*
X148173411Y-91424035D01*
G75*
G02*
X148025911Y-91276535I0J147500D01*
G01*
X148025911Y-90981535D01*
G75*
G02*
X148173411Y-90834035I147500J0D01*
G01*
X148518411Y-90834035D01*
G75*
G02*
X148665911Y-90981535I0J-147500D01*
G01*
X148665911Y-91276535D01*
G75*
G02*
X148518411Y-91424035I-147500J0D01*
G01*
G37*
G36*
G01*
X148518411Y-92394035D02*
X148173411Y-92394035D01*
G75*
G02*
X148025911Y-92246535I0J147500D01*
G01*
X148025911Y-91951535D01*
G75*
G02*
X148173411Y-91804035I147500J0D01*
G01*
X148518411Y-91804035D01*
G75*
G02*
X148665911Y-91951535I0J-147500D01*
G01*
X148665911Y-92246535D01*
G75*
G02*
X148518411Y-92394035I-147500J0D01*
G01*
G37*
%TD*%
%TO.C,C86*%
G36*
G01*
X151655911Y-89591535D02*
X151655911Y-89936535D01*
G75*
G02*
X151508411Y-90084035I-147500J0D01*
G01*
X151213411Y-90084035D01*
G75*
G02*
X151065911Y-89936535I0J147500D01*
G01*
X151065911Y-89591535D01*
G75*
G02*
X151213411Y-89444035I147500J0D01*
G01*
X151508411Y-89444035D01*
G75*
G02*
X151655911Y-89591535I0J-147500D01*
G01*
G37*
G36*
G01*
X152625911Y-89591535D02*
X152625911Y-89936535D01*
G75*
G02*
X152478411Y-90084035I-147500J0D01*
G01*
X152183411Y-90084035D01*
G75*
G02*
X152035911Y-89936535I0J147500D01*
G01*
X152035911Y-89591535D01*
G75*
G02*
X152183411Y-89444035I147500J0D01*
G01*
X152478411Y-89444035D01*
G75*
G02*
X152625911Y-89591535I0J-147500D01*
G01*
G37*
%TD*%
%TO.C,C87*%
G36*
G01*
X146210848Y-85881674D02*
X146555848Y-85881674D01*
G75*
G02*
X146703348Y-86029174I0J-147500D01*
G01*
X146703348Y-86324174D01*
G75*
G02*
X146555848Y-86471674I-147500J0D01*
G01*
X146210848Y-86471674D01*
G75*
G02*
X146063348Y-86324174I0J147500D01*
G01*
X146063348Y-86029174D01*
G75*
G02*
X146210848Y-85881674I147500J0D01*
G01*
G37*
G36*
G01*
X146210848Y-84911674D02*
X146555848Y-84911674D01*
G75*
G02*
X146703348Y-85059174I0J-147500D01*
G01*
X146703348Y-85354174D01*
G75*
G02*
X146555848Y-85501674I-147500J0D01*
G01*
X146210848Y-85501674D01*
G75*
G02*
X146063348Y-85354174I0J147500D01*
G01*
X146063348Y-85059174D01*
G75*
G02*
X146210848Y-84911674I147500J0D01*
G01*
G37*
%TD*%
%TO.C,C88*%
G36*
G01*
X149675671Y-85952385D02*
X150020671Y-85952385D01*
G75*
G02*
X150168171Y-86099885I0J-147500D01*
G01*
X150168171Y-86394885D01*
G75*
G02*
X150020671Y-86542385I-147500J0D01*
G01*
X149675671Y-86542385D01*
G75*
G02*
X149528171Y-86394885I0J147500D01*
G01*
X149528171Y-86099885D01*
G75*
G02*
X149675671Y-85952385I147500J0D01*
G01*
G37*
G36*
G01*
X149675671Y-84982385D02*
X150020671Y-84982385D01*
G75*
G02*
X150168171Y-85129885I0J-147500D01*
G01*
X150168171Y-85424885D01*
G75*
G02*
X150020671Y-85572385I-147500J0D01*
G01*
X149675671Y-85572385D01*
G75*
G02*
X149528171Y-85424885I0J147500D01*
G01*
X149528171Y-85129885D01*
G75*
G02*
X149675671Y-84982385I147500J0D01*
G01*
G37*
%TD*%
%TO.C,C89*%
G36*
G01*
X146078373Y-90036104D02*
X146078373Y-89691104D01*
G75*
G02*
X146225873Y-89543604I147500J0D01*
G01*
X146520873Y-89543604D01*
G75*
G02*
X146668373Y-89691104I0J-147500D01*
G01*
X146668373Y-90036104D01*
G75*
G02*
X146520873Y-90183604I-147500J0D01*
G01*
X146225873Y-90183604D01*
G75*
G02*
X146078373Y-90036104I0J147500D01*
G01*
G37*
G36*
G01*
X145108373Y-90036104D02*
X145108373Y-89691104D01*
G75*
G02*
X145255873Y-89543604I147500J0D01*
G01*
X145550873Y-89543604D01*
G75*
G02*
X145698373Y-89691104I0J-147500D01*
G01*
X145698373Y-90036104D01*
G75*
G02*
X145550873Y-90183604I-147500J0D01*
G01*
X145255873Y-90183604D01*
G75*
G02*
X145108373Y-90036104I0J147500D01*
G01*
G37*
%TD*%
%TO.C,C93*%
G36*
G01*
X150524199Y-85952385D02*
X150869199Y-85952385D01*
G75*
G02*
X151016699Y-86099885I0J-147500D01*
G01*
X151016699Y-86394885D01*
G75*
G02*
X150869199Y-86542385I-147500J0D01*
G01*
X150524199Y-86542385D01*
G75*
G02*
X150376699Y-86394885I0J147500D01*
G01*
X150376699Y-86099885D01*
G75*
G02*
X150524199Y-85952385I147500J0D01*
G01*
G37*
G36*
G01*
X150524199Y-84982385D02*
X150869199Y-84982385D01*
G75*
G02*
X151016699Y-85129885I0J-147500D01*
G01*
X151016699Y-85424885D01*
G75*
G02*
X150869199Y-85572385I-147500J0D01*
G01*
X150524199Y-85572385D01*
G75*
G02*
X150376699Y-85424885I0J147500D01*
G01*
X150376699Y-85129885D01*
G75*
G02*
X150524199Y-84982385I147500J0D01*
G01*
G37*
%TD*%
%TO.C,C94*%
G36*
G01*
X148827143Y-85952385D02*
X149172143Y-85952385D01*
G75*
G02*
X149319643Y-86099885I0J-147500D01*
G01*
X149319643Y-86394885D01*
G75*
G02*
X149172143Y-86542385I-147500J0D01*
G01*
X148827143Y-86542385D01*
G75*
G02*
X148679643Y-86394885I0J147500D01*
G01*
X148679643Y-86099885D01*
G75*
G02*
X148827143Y-85952385I147500J0D01*
G01*
G37*
G36*
G01*
X148827143Y-84982385D02*
X149172143Y-84982385D01*
G75*
G02*
X149319643Y-85129885I0J-147500D01*
G01*
X149319643Y-85424885D01*
G75*
G02*
X149172143Y-85572385I-147500J0D01*
G01*
X148827143Y-85572385D01*
G75*
G02*
X148679643Y-85424885I0J147500D01*
G01*
X148679643Y-85129885D01*
G75*
G02*
X148827143Y-84982385I147500J0D01*
G01*
G37*
%TD*%
%TO.C,C98*%
G36*
G01*
X147978615Y-85952385D02*
X148323615Y-85952385D01*
G75*
G02*
X148471115Y-86099885I0J-147500D01*
G01*
X148471115Y-86394885D01*
G75*
G02*
X148323615Y-86542385I-147500J0D01*
G01*
X147978615Y-86542385D01*
G75*
G02*
X147831115Y-86394885I0J147500D01*
G01*
X147831115Y-86099885D01*
G75*
G02*
X147978615Y-85952385I147500J0D01*
G01*
G37*
G36*
G01*
X147978615Y-84982385D02*
X148323615Y-84982385D01*
G75*
G02*
X148471115Y-85129885I0J-147500D01*
G01*
X148471115Y-85424885D01*
G75*
G02*
X148323615Y-85572385I-147500J0D01*
G01*
X147978615Y-85572385D01*
G75*
G02*
X147831115Y-85424885I0J147500D01*
G01*
X147831115Y-85129885D01*
G75*
G02*
X147978615Y-84982385I147500J0D01*
G01*
G37*
%TD*%
%TO.C,C99*%
G36*
G01*
X146135910Y-91686535D02*
X146135910Y-91341535D01*
G75*
G02*
X146283410Y-91194035I147500J0D01*
G01*
X146578410Y-91194035D01*
G75*
G02*
X146725910Y-91341535I0J-147500D01*
G01*
X146725910Y-91686535D01*
G75*
G02*
X146578410Y-91834035I-147500J0D01*
G01*
X146283410Y-91834035D01*
G75*
G02*
X146135910Y-91686535I0J147500D01*
G01*
G37*
G36*
G01*
X145165910Y-91686535D02*
X145165910Y-91341535D01*
G75*
G02*
X145313410Y-91194035I147500J0D01*
G01*
X145608410Y-91194035D01*
G75*
G02*
X145755910Y-91341535I0J-147500D01*
G01*
X145755910Y-91686535D01*
G75*
G02*
X145608410Y-91834035I-147500J0D01*
G01*
X145313410Y-91834035D01*
G75*
G02*
X145165910Y-91686535I0J147500D01*
G01*
G37*
%TD*%
%TO.C,C100*%
G36*
G01*
X149418411Y-91424035D02*
X149073411Y-91424035D01*
G75*
G02*
X148925911Y-91276535I0J147500D01*
G01*
X148925911Y-90981535D01*
G75*
G02*
X149073411Y-90834035I147500J0D01*
G01*
X149418411Y-90834035D01*
G75*
G02*
X149565911Y-90981535I0J-147500D01*
G01*
X149565911Y-91276535D01*
G75*
G02*
X149418411Y-91424035I-147500J0D01*
G01*
G37*
G36*
G01*
X149418411Y-92394035D02*
X149073411Y-92394035D01*
G75*
G02*
X148925911Y-92246535I0J147500D01*
G01*
X148925911Y-91951535D01*
G75*
G02*
X149073411Y-91804035I147500J0D01*
G01*
X149418411Y-91804035D01*
G75*
G02*
X149565911Y-91951535I0J-147500D01*
G01*
X149565911Y-92246535D01*
G75*
G02*
X149418411Y-92394035I-147500J0D01*
G01*
G37*
%TD*%
%TO.C,C101*%
G36*
G01*
X151655911Y-88641535D02*
X151655911Y-88986535D01*
G75*
G02*
X151508411Y-89134035I-147500J0D01*
G01*
X151213411Y-89134035D01*
G75*
G02*
X151065911Y-88986535I0J147500D01*
G01*
X151065911Y-88641535D01*
G75*
G02*
X151213411Y-88494035I147500J0D01*
G01*
X151508411Y-88494035D01*
G75*
G02*
X151655911Y-88641535I0J-147500D01*
G01*
G37*
G36*
G01*
X152625911Y-88641535D02*
X152625911Y-88986535D01*
G75*
G02*
X152478411Y-89134035I-147500J0D01*
G01*
X152183411Y-89134035D01*
G75*
G02*
X152035911Y-88986535I0J147500D01*
G01*
X152035911Y-88641535D01*
G75*
G02*
X152183411Y-88494035I147500J0D01*
G01*
X152478411Y-88494035D01*
G75*
G02*
X152625911Y-88641535I0J-147500D01*
G01*
G37*
%TD*%
%TO.C,C102*%
G36*
G01*
X142716535Y-94594089D02*
X143061535Y-94594089D01*
G75*
G02*
X143209035Y-94741589I0J-147500D01*
G01*
X143209035Y-95036589D01*
G75*
G02*
X143061535Y-95184089I-147500J0D01*
G01*
X142716535Y-95184089D01*
G75*
G02*
X142569035Y-95036589I0J147500D01*
G01*
X142569035Y-94741589D01*
G75*
G02*
X142716535Y-94594089I147500J0D01*
G01*
G37*
G36*
G01*
X142716535Y-93624089D02*
X143061535Y-93624089D01*
G75*
G02*
X143209035Y-93771589I0J-147500D01*
G01*
X143209035Y-94066589D01*
G75*
G02*
X143061535Y-94214089I-147500J0D01*
G01*
X142716535Y-94214089D01*
G75*
G02*
X142569035Y-94066589I0J147500D01*
G01*
X142569035Y-93771589D01*
G75*
G02*
X142716535Y-93624089I147500J0D01*
G01*
G37*
%TD*%
%TO.C,C103*%
X141904035Y-93969089D03*
X141904035Y-95369089D03*
%TD*%
%TO.C,C170*%
X137925000Y-79975001D03*
X137925000Y-81375001D03*
%TD*%
%TO.C,C175*%
G36*
G01*
X141505000Y-83022500D02*
X141505000Y-82677500D01*
G75*
G02*
X141652500Y-82530000I147500J0D01*
G01*
X141947500Y-82530000D01*
G75*
G02*
X142095000Y-82677500I0J-147500D01*
G01*
X142095000Y-83022500D01*
G75*
G02*
X141947500Y-83170000I-147500J0D01*
G01*
X141652500Y-83170000D01*
G75*
G02*
X141505000Y-83022500I0J147500D01*
G01*
G37*
G36*
G01*
X140535000Y-83022500D02*
X140535000Y-82677500D01*
G75*
G02*
X140682500Y-82530000I147500J0D01*
G01*
X140977500Y-82530000D01*
G75*
G02*
X141125000Y-82677500I0J-147500D01*
G01*
X141125000Y-83022500D01*
G75*
G02*
X140977500Y-83170000I-147500J0D01*
G01*
X140682500Y-83170000D01*
G75*
G02*
X140535000Y-83022500I0J147500D01*
G01*
G37*
%TD*%
%TO.C,C180*%
X137900000Y-82850000D03*
X137900000Y-84250000D03*
%TD*%
%TO.C,Ce*%
G36*
G01*
X127470000Y-85947500D02*
X127470000Y-86292500D01*
G75*
G02*
X127322500Y-86440000I-147500J0D01*
G01*
X127027500Y-86440000D01*
G75*
G02*
X126880000Y-86292500I0J147500D01*
G01*
X126880000Y-85947500D01*
G75*
G02*
X127027500Y-85800000I147500J0D01*
G01*
X127322500Y-85800000D01*
G75*
G02*
X127470000Y-85947500I0J-147500D01*
G01*
G37*
G36*
G01*
X128440000Y-85947500D02*
X128440000Y-86292500D01*
G75*
G02*
X128292500Y-86440000I-147500J0D01*
G01*
X127997500Y-86440000D01*
G75*
G02*
X127850000Y-86292500I0J147500D01*
G01*
X127850000Y-85947500D01*
G75*
G02*
X127997500Y-85800000I147500J0D01*
G01*
X128292500Y-85800000D01*
G75*
G02*
X128440000Y-85947500I0J-147500D01*
G01*
G37*
%TD*%
%TO.C,C47*%
G36*
G01*
X119934441Y-79164860D02*
X120279441Y-79164860D01*
G75*
G02*
X120426941Y-79312360I0J-147500D01*
G01*
X120426941Y-79607360D01*
G75*
G02*
X120279441Y-79754860I-147500J0D01*
G01*
X119934441Y-79754860D01*
G75*
G02*
X119786941Y-79607360I0J147500D01*
G01*
X119786941Y-79312360D01*
G75*
G02*
X119934441Y-79164860I147500J0D01*
G01*
G37*
G36*
G01*
X119934441Y-78194860D02*
X120279441Y-78194860D01*
G75*
G02*
X120426941Y-78342360I0J-147500D01*
G01*
X120426941Y-78637360D01*
G75*
G02*
X120279441Y-78784860I-147500J0D01*
G01*
X119934441Y-78784860D01*
G75*
G02*
X119786941Y-78637360I0J147500D01*
G01*
X119786941Y-78342360D01*
G75*
G02*
X119934441Y-78194860I147500J0D01*
G01*
G37*
%TD*%
%TO.C,C48*%
G36*
G01*
X127476942Y-82352362D02*
X127476942Y-82697362D01*
G75*
G02*
X127329442Y-82844862I-147500J0D01*
G01*
X127034442Y-82844862D01*
G75*
G02*
X126886942Y-82697362I0J147500D01*
G01*
X126886942Y-82352362D01*
G75*
G02*
X127034442Y-82204862I147500J0D01*
G01*
X127329442Y-82204862D01*
G75*
G02*
X127476942Y-82352362I0J-147500D01*
G01*
G37*
G36*
G01*
X128446942Y-82352362D02*
X128446942Y-82697362D01*
G75*
G02*
X128299442Y-82844862I-147500J0D01*
G01*
X128004442Y-82844862D01*
G75*
G02*
X127856942Y-82697362I0J147500D01*
G01*
X127856942Y-82352362D01*
G75*
G02*
X128004442Y-82204862I147500J0D01*
G01*
X128299442Y-82204862D01*
G75*
G02*
X128446942Y-82352362I0J-147500D01*
G01*
G37*
%TD*%
%TO.C,C49*%
G36*
G01*
X116846942Y-80757360D02*
X116846942Y-80412360D01*
G75*
G02*
X116994442Y-80264860I147500J0D01*
G01*
X117289442Y-80264860D01*
G75*
G02*
X117436942Y-80412360I0J-147500D01*
G01*
X117436942Y-80757360D01*
G75*
G02*
X117289442Y-80904860I-147500J0D01*
G01*
X116994442Y-80904860D01*
G75*
G02*
X116846942Y-80757360I0J147500D01*
G01*
G37*
G36*
G01*
X115876942Y-80757360D02*
X115876942Y-80412360D01*
G75*
G02*
X116024442Y-80264860I147500J0D01*
G01*
X116319442Y-80264860D01*
G75*
G02*
X116466942Y-80412360I0J-147500D01*
G01*
X116466942Y-80757360D01*
G75*
G02*
X116319442Y-80904860I-147500J0D01*
G01*
X116024442Y-80904860D01*
G75*
G02*
X115876942Y-80757360I0J147500D01*
G01*
G37*
%TD*%
%TO.C,C51*%
G36*
G01*
X124734441Y-80990000D02*
X125079441Y-80990000D01*
G75*
G02*
X125226941Y-81137500I0J-147500D01*
G01*
X125226941Y-81432500D01*
G75*
G02*
X125079441Y-81580000I-147500J0D01*
G01*
X124734441Y-81580000D01*
G75*
G02*
X124586941Y-81432500I0J147500D01*
G01*
X124586941Y-81137500D01*
G75*
G02*
X124734441Y-80990000I147500J0D01*
G01*
G37*
G36*
G01*
X124734441Y-80020000D02*
X125079441Y-80020000D01*
G75*
G02*
X125226941Y-80167500I0J-147500D01*
G01*
X125226941Y-80462500D01*
G75*
G02*
X125079441Y-80610000I-147500J0D01*
G01*
X124734441Y-80610000D01*
G75*
G02*
X124586941Y-80462500I0J147500D01*
G01*
X124586941Y-80167500D01*
G75*
G02*
X124734441Y-80020000I147500J0D01*
G01*
G37*
%TD*%
%TO.C,C52*%
G36*
G01*
X116796942Y-84347361D02*
X116796942Y-84002361D01*
G75*
G02*
X116944442Y-83854861I147500J0D01*
G01*
X117239442Y-83854861D01*
G75*
G02*
X117386942Y-84002361I0J-147500D01*
G01*
X117386942Y-84347361D01*
G75*
G02*
X117239442Y-84494861I-147500J0D01*
G01*
X116944442Y-84494861D01*
G75*
G02*
X116796942Y-84347361I0J147500D01*
G01*
G37*
G36*
G01*
X115826942Y-84347361D02*
X115826942Y-84002361D01*
G75*
G02*
X115974442Y-83854861I147500J0D01*
G01*
X116269442Y-83854861D01*
G75*
G02*
X116416942Y-84002361I0J-147500D01*
G01*
X116416942Y-84347361D01*
G75*
G02*
X116269442Y-84494861I-147500J0D01*
G01*
X115974442Y-84494861D01*
G75*
G02*
X115826942Y-84347361I0J147500D01*
G01*
G37*
%TD*%
%TO.C,C54*%
G36*
G01*
X121952500Y-80990000D02*
X122297500Y-80990000D01*
G75*
G02*
X122445000Y-81137500I0J-147500D01*
G01*
X122445000Y-81432500D01*
G75*
G02*
X122297500Y-81580000I-147500J0D01*
G01*
X121952500Y-81580000D01*
G75*
G02*
X121805000Y-81432500I0J147500D01*
G01*
X121805000Y-81137500D01*
G75*
G02*
X121952500Y-80990000I147500J0D01*
G01*
G37*
G36*
G01*
X121952500Y-80020000D02*
X122297500Y-80020000D01*
G75*
G02*
X122445000Y-80167500I0J-147500D01*
G01*
X122445000Y-80462500D01*
G75*
G02*
X122297500Y-80610000I-147500J0D01*
G01*
X121952500Y-80610000D01*
G75*
G02*
X121805000Y-80462500I0J147500D01*
G01*
X121805000Y-80167500D01*
G75*
G02*
X121952500Y-80020000I147500J0D01*
G01*
G37*
%TD*%
%TO.C,C57*%
G36*
G01*
X116846942Y-81607361D02*
X116846942Y-81262361D01*
G75*
G02*
X116994442Y-81114861I147500J0D01*
G01*
X117289442Y-81114861D01*
G75*
G02*
X117436942Y-81262361I0J-147500D01*
G01*
X117436942Y-81607361D01*
G75*
G02*
X117289442Y-81754861I-147500J0D01*
G01*
X116994442Y-81754861D01*
G75*
G02*
X116846942Y-81607361I0J147500D01*
G01*
G37*
G36*
G01*
X115876942Y-81607361D02*
X115876942Y-81262361D01*
G75*
G02*
X116024442Y-81114861I147500J0D01*
G01*
X116319442Y-81114861D01*
G75*
G02*
X116466942Y-81262361I0J-147500D01*
G01*
X116466942Y-81607361D01*
G75*
G02*
X116319442Y-81754861I-147500J0D01*
G01*
X116024442Y-81754861D01*
G75*
G02*
X115876942Y-81607361I0J147500D01*
G01*
G37*
%TD*%
%TO.C,C59*%
G36*
G01*
X118072500Y-90160000D02*
X117727500Y-90160000D01*
G75*
G02*
X117580000Y-90012500I0J147500D01*
G01*
X117580000Y-89717500D01*
G75*
G02*
X117727500Y-89570000I147500J0D01*
G01*
X118072500Y-89570000D01*
G75*
G02*
X118220000Y-89717500I0J-147500D01*
G01*
X118220000Y-90012500D01*
G75*
G02*
X118072500Y-90160000I-147500J0D01*
G01*
G37*
G36*
G01*
X118072500Y-91130000D02*
X117727500Y-91130000D01*
G75*
G02*
X117580000Y-90982500I0J147500D01*
G01*
X117580000Y-90687500D01*
G75*
G02*
X117727500Y-90540000I147500J0D01*
G01*
X118072500Y-90540000D01*
G75*
G02*
X118220000Y-90687500I0J-147500D01*
G01*
X118220000Y-90982500D01*
G75*
G02*
X118072500Y-91130000I-147500J0D01*
G01*
G37*
%TD*%
%TO.C,C60*%
G36*
G01*
X120972500Y-89810000D02*
X120627500Y-89810000D01*
G75*
G02*
X120480000Y-89662500I0J147500D01*
G01*
X120480000Y-89367500D01*
G75*
G02*
X120627500Y-89220000I147500J0D01*
G01*
X120972500Y-89220000D01*
G75*
G02*
X121120000Y-89367500I0J-147500D01*
G01*
X121120000Y-89662500D01*
G75*
G02*
X120972500Y-89810000I-147500J0D01*
G01*
G37*
G36*
G01*
X120972500Y-90780000D02*
X120627500Y-90780000D01*
G75*
G02*
X120480000Y-90632500I0J147500D01*
G01*
X120480000Y-90337500D01*
G75*
G02*
X120627500Y-90190000I147500J0D01*
G01*
X120972500Y-90190000D01*
G75*
G02*
X121120000Y-90337500I0J-147500D01*
G01*
X121120000Y-90632500D01*
G75*
G02*
X120972500Y-90780000I-147500J0D01*
G01*
G37*
%TD*%
%TO.C,C61*%
G36*
G01*
X120772500Y-100098999D02*
X120427500Y-100098999D01*
G75*
G02*
X120280000Y-99951499I0J147500D01*
G01*
X120280000Y-99656499D01*
G75*
G02*
X120427500Y-99508999I147500J0D01*
G01*
X120772500Y-99508999D01*
G75*
G02*
X120920000Y-99656499I0J-147500D01*
G01*
X120920000Y-99951499D01*
G75*
G02*
X120772500Y-100098999I-147500J0D01*
G01*
G37*
G36*
G01*
X120772500Y-101068999D02*
X120427500Y-101068999D01*
G75*
G02*
X120280000Y-100921499I0J147500D01*
G01*
X120280000Y-100626499D01*
G75*
G02*
X120427500Y-100478999I147500J0D01*
G01*
X120772500Y-100478999D01*
G75*
G02*
X120920000Y-100626499I0J-147500D01*
G01*
X120920000Y-100921499D01*
G75*
G02*
X120772500Y-101068999I-147500J0D01*
G01*
G37*
%TD*%
%TO.C,C63*%
G36*
G01*
X122559000Y-98831500D02*
X122559000Y-99176500D01*
G75*
G02*
X122411500Y-99324000I-147500J0D01*
G01*
X122116500Y-99324000D01*
G75*
G02*
X121969000Y-99176500I0J147500D01*
G01*
X121969000Y-98831500D01*
G75*
G02*
X122116500Y-98684000I147500J0D01*
G01*
X122411500Y-98684000D01*
G75*
G02*
X122559000Y-98831500I0J-147500D01*
G01*
G37*
G36*
G01*
X123529000Y-98831500D02*
X123529000Y-99176500D01*
G75*
G02*
X123381500Y-99324000I-147500J0D01*
G01*
X123086500Y-99324000D01*
G75*
G02*
X122939000Y-99176500I0J147500D01*
G01*
X122939000Y-98831500D01*
G75*
G02*
X123086500Y-98684000I147500J0D01*
G01*
X123381500Y-98684000D01*
G75*
G02*
X123529000Y-98831500I0J-147500D01*
G01*
G37*
%TD*%
%TO.C,C64*%
G36*
G01*
X120526500Y-97334000D02*
X120871500Y-97334000D01*
G75*
G02*
X121019000Y-97481500I0J-147500D01*
G01*
X121019000Y-97776500D01*
G75*
G02*
X120871500Y-97924000I-147500J0D01*
G01*
X120526500Y-97924000D01*
G75*
G02*
X120379000Y-97776500I0J147500D01*
G01*
X120379000Y-97481500D01*
G75*
G02*
X120526500Y-97334000I147500J0D01*
G01*
G37*
G36*
G01*
X120526500Y-96364000D02*
X120871500Y-96364000D01*
G75*
G02*
X121019000Y-96511500I0J-147500D01*
G01*
X121019000Y-96806500D01*
G75*
G02*
X120871500Y-96954000I-147500J0D01*
G01*
X120526500Y-96954000D01*
G75*
G02*
X120379000Y-96806500I0J147500D01*
G01*
X120379000Y-96511500D01*
G75*
G02*
X120526500Y-96364000I147500J0D01*
G01*
G37*
%TD*%
%TO.C,C65*%
G36*
G01*
X121426500Y-97344000D02*
X121771500Y-97344000D01*
G75*
G02*
X121919000Y-97491500I0J-147500D01*
G01*
X121919000Y-97786500D01*
G75*
G02*
X121771500Y-97934000I-147500J0D01*
G01*
X121426500Y-97934000D01*
G75*
G02*
X121279000Y-97786500I0J147500D01*
G01*
X121279000Y-97491500D01*
G75*
G02*
X121426500Y-97344000I147500J0D01*
G01*
G37*
G36*
G01*
X121426500Y-96374000D02*
X121771500Y-96374000D01*
G75*
G02*
X121919000Y-96521500I0J-147500D01*
G01*
X121919000Y-96816500D01*
G75*
G02*
X121771500Y-96964000I-147500J0D01*
G01*
X121426500Y-96964000D01*
G75*
G02*
X121279000Y-96816500I0J147500D01*
G01*
X121279000Y-96521500D01*
G75*
G02*
X121426500Y-96374000I147500J0D01*
G01*
G37*
%TD*%
%TO.C,C66*%
G36*
G01*
X129877500Y-75365000D02*
X130222500Y-75365000D01*
G75*
G02*
X130370000Y-75512500I0J-147500D01*
G01*
X130370000Y-75807500D01*
G75*
G02*
X130222500Y-75955000I-147500J0D01*
G01*
X129877500Y-75955000D01*
G75*
G02*
X129730000Y-75807500I0J147500D01*
G01*
X129730000Y-75512500D01*
G75*
G02*
X129877500Y-75365000I147500J0D01*
G01*
G37*
G36*
G01*
X129877500Y-74395000D02*
X130222500Y-74395000D01*
G75*
G02*
X130370000Y-74542500I0J-147500D01*
G01*
X130370000Y-74837500D01*
G75*
G02*
X130222500Y-74985000I-147500J0D01*
G01*
X129877500Y-74985000D01*
G75*
G02*
X129730000Y-74837500I0J147500D01*
G01*
X129730000Y-74542500D01*
G75*
G02*
X129877500Y-74395000I147500J0D01*
G01*
G37*
%TD*%
%TO.C,C67*%
G36*
G01*
X130777500Y-75365000D02*
X131122500Y-75365000D01*
G75*
G02*
X131270000Y-75512500I0J-147500D01*
G01*
X131270000Y-75807500D01*
G75*
G02*
X131122500Y-75955000I-147500J0D01*
G01*
X130777500Y-75955000D01*
G75*
G02*
X130630000Y-75807500I0J147500D01*
G01*
X130630000Y-75512500D01*
G75*
G02*
X130777500Y-75365000I147500J0D01*
G01*
G37*
G36*
G01*
X130777500Y-74395000D02*
X131122500Y-74395000D01*
G75*
G02*
X131270000Y-74542500I0J-147500D01*
G01*
X131270000Y-74837500D01*
G75*
G02*
X131122500Y-74985000I-147500J0D01*
G01*
X130777500Y-74985000D01*
G75*
G02*
X130630000Y-74837500I0J147500D01*
G01*
X130630000Y-74542500D01*
G75*
G02*
X130777500Y-74395000I147500J0D01*
G01*
G37*
%TD*%
%TO.C,C73*%
G36*
G01*
X110527500Y-75410000D02*
X110872500Y-75410000D01*
G75*
G02*
X111020000Y-75557500I0J-147500D01*
G01*
X111020000Y-75852500D01*
G75*
G02*
X110872500Y-76000000I-147500J0D01*
G01*
X110527500Y-76000000D01*
G75*
G02*
X110380000Y-75852500I0J147500D01*
G01*
X110380000Y-75557500D01*
G75*
G02*
X110527500Y-75410000I147500J0D01*
G01*
G37*
G36*
G01*
X110527500Y-74440000D02*
X110872500Y-74440000D01*
G75*
G02*
X111020000Y-74587500I0J-147500D01*
G01*
X111020000Y-74882500D01*
G75*
G02*
X110872500Y-75030000I-147500J0D01*
G01*
X110527500Y-75030000D01*
G75*
G02*
X110380000Y-74882500I0J147500D01*
G01*
X110380000Y-74587500D01*
G75*
G02*
X110527500Y-74440000I147500J0D01*
G01*
G37*
%TD*%
%TO.C,C74*%
G36*
G01*
X111427500Y-75390000D02*
X111772500Y-75390000D01*
G75*
G02*
X111920000Y-75537500I0J-147500D01*
G01*
X111920000Y-75832500D01*
G75*
G02*
X111772500Y-75980000I-147500J0D01*
G01*
X111427500Y-75980000D01*
G75*
G02*
X111280000Y-75832500I0J147500D01*
G01*
X111280000Y-75537500D01*
G75*
G02*
X111427500Y-75390000I147500J0D01*
G01*
G37*
G36*
G01*
X111427500Y-74420000D02*
X111772500Y-74420000D01*
G75*
G02*
X111920000Y-74567500I0J-147500D01*
G01*
X111920000Y-74862500D01*
G75*
G02*
X111772500Y-75010000I-147500J0D01*
G01*
X111427500Y-75010000D01*
G75*
G02*
X111280000Y-74862500I0J147500D01*
G01*
X111280000Y-74567500D01*
G75*
G02*
X111427500Y-74420000I147500J0D01*
G01*
G37*
%TD*%
%TO.C,C1*%
G36*
G01*
X133445000Y-121647500D02*
X133445000Y-121302500D01*
G75*
G02*
X133592500Y-121155000I147500J0D01*
G01*
X133887500Y-121155000D01*
G75*
G02*
X134035000Y-121302500I0J-147500D01*
G01*
X134035000Y-121647500D01*
G75*
G02*
X133887500Y-121795000I-147500J0D01*
G01*
X133592500Y-121795000D01*
G75*
G02*
X133445000Y-121647500I0J147500D01*
G01*
G37*
G36*
G01*
X134415000Y-121647500D02*
X134415000Y-121302500D01*
G75*
G02*
X134562500Y-121155000I147500J0D01*
G01*
X134857500Y-121155000D01*
G75*
G02*
X135005000Y-121302500I0J-147500D01*
G01*
X135005000Y-121647500D01*
G75*
G02*
X134857500Y-121795000I-147500J0D01*
G01*
X134562500Y-121795000D01*
G75*
G02*
X134415000Y-121647500I0J147500D01*
G01*
G37*
%TD*%
%TO.C,C2*%
G36*
G01*
X133445000Y-120747500D02*
X133445000Y-120402500D01*
G75*
G02*
X133592500Y-120255000I147500J0D01*
G01*
X133887500Y-120255000D01*
G75*
G02*
X134035000Y-120402500I0J-147500D01*
G01*
X134035000Y-120747500D01*
G75*
G02*
X133887500Y-120895000I-147500J0D01*
G01*
X133592500Y-120895000D01*
G75*
G02*
X133445000Y-120747500I0J147500D01*
G01*
G37*
G36*
G01*
X134415000Y-120747500D02*
X134415000Y-120402500D01*
G75*
G02*
X134562500Y-120255000I147500J0D01*
G01*
X134857500Y-120255000D01*
G75*
G02*
X135005000Y-120402500I0J-147500D01*
G01*
X135005000Y-120747500D01*
G75*
G02*
X134857500Y-120895000I-147500J0D01*
G01*
X134562500Y-120895000D01*
G75*
G02*
X134415000Y-120747500I0J147500D01*
G01*
G37*
%TD*%
%TO.C,C3*%
G36*
G01*
X123247500Y-130110000D02*
X122902500Y-130110000D01*
G75*
G02*
X122755000Y-129962500I0J147500D01*
G01*
X122755000Y-129667500D01*
G75*
G02*
X122902500Y-129520000I147500J0D01*
G01*
X123247500Y-129520000D01*
G75*
G02*
X123395000Y-129667500I0J-147500D01*
G01*
X123395000Y-129962500D01*
G75*
G02*
X123247500Y-130110000I-147500J0D01*
G01*
G37*
G36*
G01*
X123247500Y-131080000D02*
X122902500Y-131080000D01*
G75*
G02*
X122755000Y-130932500I0J147500D01*
G01*
X122755000Y-130637500D01*
G75*
G02*
X122902500Y-130490000I147500J0D01*
G01*
X123247500Y-130490000D01*
G75*
G02*
X123395000Y-130637500I0J-147500D01*
G01*
X123395000Y-130932500D01*
G75*
G02*
X123247500Y-131080000I-147500J0D01*
G01*
G37*
%TD*%
%TO.C,C4*%
G36*
G01*
X122877500Y-113940000D02*
X123222500Y-113940000D01*
G75*
G02*
X123370000Y-114087500I0J-147500D01*
G01*
X123370000Y-114382500D01*
G75*
G02*
X123222500Y-114530000I-147500J0D01*
G01*
X122877500Y-114530000D01*
G75*
G02*
X122730000Y-114382500I0J147500D01*
G01*
X122730000Y-114087500D01*
G75*
G02*
X122877500Y-113940000I147500J0D01*
G01*
G37*
G36*
G01*
X122877500Y-112970000D02*
X123222500Y-112970000D01*
G75*
G02*
X123370000Y-113117500I0J-147500D01*
G01*
X123370000Y-113412500D01*
G75*
G02*
X123222500Y-113560000I-147500J0D01*
G01*
X122877500Y-113560000D01*
G75*
G02*
X122730000Y-113412500I0J147500D01*
G01*
X122730000Y-113117500D01*
G75*
G02*
X122877500Y-112970000I147500J0D01*
G01*
G37*
%TD*%
%TO.C,C7*%
G36*
G01*
X95672500Y-86610000D02*
X95327500Y-86610000D01*
G75*
G02*
X95180000Y-86462500I0J147500D01*
G01*
X95180000Y-86167500D01*
G75*
G02*
X95327500Y-86020000I147500J0D01*
G01*
X95672500Y-86020000D01*
G75*
G02*
X95820000Y-86167500I0J-147500D01*
G01*
X95820000Y-86462500D01*
G75*
G02*
X95672500Y-86610000I-147500J0D01*
G01*
G37*
G36*
G01*
X95672500Y-87580000D02*
X95327500Y-87580000D01*
G75*
G02*
X95180000Y-87432500I0J147500D01*
G01*
X95180000Y-87137500D01*
G75*
G02*
X95327500Y-86990000I147500J0D01*
G01*
X95672500Y-86990000D01*
G75*
G02*
X95820000Y-87137500I0J-147500D01*
G01*
X95820000Y-87432500D01*
G75*
G02*
X95672500Y-87580000I-147500J0D01*
G01*
G37*
%TD*%
%TO.C,C8*%
G36*
G01*
X95672500Y-84810000D02*
X95327500Y-84810000D01*
G75*
G02*
X95180000Y-84662500I0J147500D01*
G01*
X95180000Y-84367500D01*
G75*
G02*
X95327500Y-84220000I147500J0D01*
G01*
X95672500Y-84220000D01*
G75*
G02*
X95820000Y-84367500I0J-147500D01*
G01*
X95820000Y-84662500D01*
G75*
G02*
X95672500Y-84810000I-147500J0D01*
G01*
G37*
G36*
G01*
X95672500Y-85780000D02*
X95327500Y-85780000D01*
G75*
G02*
X95180000Y-85632500I0J147500D01*
G01*
X95180000Y-85337500D01*
G75*
G02*
X95327500Y-85190000I147500J0D01*
G01*
X95672500Y-85190000D01*
G75*
G02*
X95820000Y-85337500I0J-147500D01*
G01*
X95820000Y-85632500D01*
G75*
G02*
X95672500Y-85780000I-147500J0D01*
G01*
G37*
%TD*%
%TO.C,C9*%
G36*
G01*
X95290000Y-75672500D02*
X95290000Y-75327500D01*
G75*
G02*
X95437500Y-75180000I147500J0D01*
G01*
X95732500Y-75180000D01*
G75*
G02*
X95880000Y-75327500I0J-147500D01*
G01*
X95880000Y-75672500D01*
G75*
G02*
X95732500Y-75820000I-147500J0D01*
G01*
X95437500Y-75820000D01*
G75*
G02*
X95290000Y-75672500I0J147500D01*
G01*
G37*
G36*
G01*
X94320000Y-75672500D02*
X94320000Y-75327500D01*
G75*
G02*
X94467500Y-75180000I147500J0D01*
G01*
X94762500Y-75180000D01*
G75*
G02*
X94910000Y-75327500I0J-147500D01*
G01*
X94910000Y-75672500D01*
G75*
G02*
X94762500Y-75820000I-147500J0D01*
G01*
X94467500Y-75820000D01*
G75*
G02*
X94320000Y-75672500I0J147500D01*
G01*
G37*
%TD*%
D20*
%TO.C,C104*%
X87850000Y-99300000D03*
X85750000Y-99300000D03*
%TD*%
%TO.C,C105*%
X87850000Y-97800000D03*
X85750000Y-97800000D03*
%TD*%
%TO.C,C106*%
G36*
G01*
X87410000Y-100327500D02*
X87410000Y-100672500D01*
G75*
G02*
X87262500Y-100820000I-147500J0D01*
G01*
X86967500Y-100820000D01*
G75*
G02*
X86820000Y-100672500I0J147500D01*
G01*
X86820000Y-100327500D01*
G75*
G02*
X86967500Y-100180000I147500J0D01*
G01*
X87262500Y-100180000D01*
G75*
G02*
X87410000Y-100327500I0J-147500D01*
G01*
G37*
G36*
G01*
X88380000Y-100327500D02*
X88380000Y-100672500D01*
G75*
G02*
X88232500Y-100820000I-147500J0D01*
G01*
X87937500Y-100820000D01*
G75*
G02*
X87790000Y-100672500I0J147500D01*
G01*
X87790000Y-100327500D01*
G75*
G02*
X87937500Y-100180000I147500J0D01*
G01*
X88232500Y-100180000D01*
G75*
G02*
X88380000Y-100327500I0J-147500D01*
G01*
G37*
%TD*%
%TO.C,C107*%
G36*
G01*
X87410000Y-101227500D02*
X87410000Y-101572500D01*
G75*
G02*
X87262500Y-101720000I-147500J0D01*
G01*
X86967500Y-101720000D01*
G75*
G02*
X86820000Y-101572500I0J147500D01*
G01*
X86820000Y-101227500D01*
G75*
G02*
X86967500Y-101080000I147500J0D01*
G01*
X87262500Y-101080000D01*
G75*
G02*
X87410000Y-101227500I0J-147500D01*
G01*
G37*
G36*
G01*
X88380000Y-101227500D02*
X88380000Y-101572500D01*
G75*
G02*
X88232500Y-101720000I-147500J0D01*
G01*
X87937500Y-101720000D01*
G75*
G02*
X87790000Y-101572500I0J147500D01*
G01*
X87790000Y-101227500D01*
G75*
G02*
X87937500Y-101080000I147500J0D01*
G01*
X88232500Y-101080000D01*
G75*
G02*
X88380000Y-101227500I0J-147500D01*
G01*
G37*
%TD*%
%TO.C,C108*%
X95150000Y-95000000D03*
X97250000Y-95000000D03*
%TD*%
%TO.C,C109*%
X95165000Y-96785000D03*
X97265000Y-96785000D03*
%TD*%
%TO.C,C110*%
G36*
G01*
X95690000Y-99172500D02*
X95690000Y-98827500D01*
G75*
G02*
X95837500Y-98680000I147500J0D01*
G01*
X96132500Y-98680000D01*
G75*
G02*
X96280000Y-98827500I0J-147500D01*
G01*
X96280000Y-99172500D01*
G75*
G02*
X96132500Y-99320000I-147500J0D01*
G01*
X95837500Y-99320000D01*
G75*
G02*
X95690000Y-99172500I0J147500D01*
G01*
G37*
G36*
G01*
X94720000Y-99172500D02*
X94720000Y-98827500D01*
G75*
G02*
X94867500Y-98680000I147500J0D01*
G01*
X95162500Y-98680000D01*
G75*
G02*
X95310000Y-98827500I0J-147500D01*
G01*
X95310000Y-99172500D01*
G75*
G02*
X95162500Y-99320000I-147500J0D01*
G01*
X94867500Y-99320000D01*
G75*
G02*
X94720000Y-99172500I0J147500D01*
G01*
G37*
%TD*%
%TO.C,C111*%
G36*
G01*
X95690000Y-98172500D02*
X95690000Y-97827500D01*
G75*
G02*
X95837500Y-97680000I147500J0D01*
G01*
X96132500Y-97680000D01*
G75*
G02*
X96280000Y-97827500I0J-147500D01*
G01*
X96280000Y-98172500D01*
G75*
G02*
X96132500Y-98320000I-147500J0D01*
G01*
X95837500Y-98320000D01*
G75*
G02*
X95690000Y-98172500I0J147500D01*
G01*
G37*
G36*
G01*
X94720000Y-98172500D02*
X94720000Y-97827500D01*
G75*
G02*
X94867500Y-97680000I147500J0D01*
G01*
X95162500Y-97680000D01*
G75*
G02*
X95310000Y-97827500I0J-147500D01*
G01*
X95310000Y-98172500D01*
G75*
G02*
X95162500Y-98320000I-147500J0D01*
G01*
X94867500Y-98320000D01*
G75*
G02*
X94720000Y-98172500I0J147500D01*
G01*
G37*
%TD*%
%TO.C,C114*%
G36*
G01*
X92640000Y-127947500D02*
X92640000Y-127602500D01*
G75*
G02*
X92787500Y-127455000I147500J0D01*
G01*
X93082500Y-127455000D01*
G75*
G02*
X93230000Y-127602500I0J-147500D01*
G01*
X93230000Y-127947500D01*
G75*
G02*
X93082500Y-128095000I-147500J0D01*
G01*
X92787500Y-128095000D01*
G75*
G02*
X92640000Y-127947500I0J147500D01*
G01*
G37*
G36*
G01*
X91670000Y-127947500D02*
X91670000Y-127602500D01*
G75*
G02*
X91817500Y-127455000I147500J0D01*
G01*
X92112500Y-127455000D01*
G75*
G02*
X92260000Y-127602500I0J-147500D01*
G01*
X92260000Y-127947500D01*
G75*
G02*
X92112500Y-128095000I-147500J0D01*
G01*
X91817500Y-128095000D01*
G75*
G02*
X91670000Y-127947500I0J147500D01*
G01*
G37*
%TD*%
%TO.C,C23*%
G36*
G01*
X130440000Y-147322500D02*
X130440000Y-146977500D01*
G75*
G02*
X130587500Y-146830000I147500J0D01*
G01*
X130882500Y-146830000D01*
G75*
G02*
X131030000Y-146977500I0J-147500D01*
G01*
X131030000Y-147322500D01*
G75*
G02*
X130882500Y-147470000I-147500J0D01*
G01*
X130587500Y-147470000D01*
G75*
G02*
X130440000Y-147322500I0J147500D01*
G01*
G37*
G36*
G01*
X129470000Y-147322500D02*
X129470000Y-146977500D01*
G75*
G02*
X129617500Y-146830000I147500J0D01*
G01*
X129912500Y-146830000D01*
G75*
G02*
X130060000Y-146977500I0J-147500D01*
G01*
X130060000Y-147322500D01*
G75*
G02*
X129912500Y-147470000I-147500J0D01*
G01*
X129617500Y-147470000D01*
G75*
G02*
X129470000Y-147322500I0J147500D01*
G01*
G37*
%TD*%
D21*
%TO.C,C24*%
X129750000Y-146150000D03*
X131150000Y-146150000D03*
%TD*%
%TO.C,C21*%
G36*
G01*
X123927500Y-146725000D02*
X124272500Y-146725000D01*
G75*
G02*
X124420000Y-146872500I0J-147500D01*
G01*
X124420000Y-147167500D01*
G75*
G02*
X124272500Y-147315000I-147500J0D01*
G01*
X123927500Y-147315000D01*
G75*
G02*
X123780000Y-147167500I0J147500D01*
G01*
X123780000Y-146872500D01*
G75*
G02*
X123927500Y-146725000I147500J0D01*
G01*
G37*
G36*
G01*
X123927500Y-145755000D02*
X124272500Y-145755000D01*
G75*
G02*
X124420000Y-145902500I0J-147500D01*
G01*
X124420000Y-146197500D01*
G75*
G02*
X124272500Y-146345000I-147500J0D01*
G01*
X123927500Y-146345000D01*
G75*
G02*
X123780000Y-146197500I0J147500D01*
G01*
X123780000Y-145902500D01*
G75*
G02*
X123927500Y-145755000I147500J0D01*
G01*
G37*
%TD*%
%TO.C,C22*%
G36*
G01*
X125222500Y-146360000D02*
X124877500Y-146360000D01*
G75*
G02*
X124730000Y-146212500I0J147500D01*
G01*
X124730000Y-145917500D01*
G75*
G02*
X124877500Y-145770000I147500J0D01*
G01*
X125222500Y-145770000D01*
G75*
G02*
X125370000Y-145917500I0J-147500D01*
G01*
X125370000Y-146212500D01*
G75*
G02*
X125222500Y-146360000I-147500J0D01*
G01*
G37*
G36*
G01*
X125222500Y-147330000D02*
X124877500Y-147330000D01*
G75*
G02*
X124730000Y-147182500I0J147500D01*
G01*
X124730000Y-146887500D01*
G75*
G02*
X124877500Y-146740000I147500J0D01*
G01*
X125222500Y-146740000D01*
G75*
G02*
X125370000Y-146887500I0J-147500D01*
G01*
X125370000Y-147182500D01*
G75*
G02*
X125222500Y-147330000I-147500J0D01*
G01*
G37*
%TD*%
%TO.C,C119*%
G36*
G01*
X106475000Y-141427500D02*
X106475000Y-141772500D01*
G75*
G02*
X106327500Y-141920000I-147500J0D01*
G01*
X106032500Y-141920000D01*
G75*
G02*
X105885000Y-141772500I0J147500D01*
G01*
X105885000Y-141427500D01*
G75*
G02*
X106032500Y-141280000I147500J0D01*
G01*
X106327500Y-141280000D01*
G75*
G02*
X106475000Y-141427500I0J-147500D01*
G01*
G37*
G36*
G01*
X107445000Y-141427500D02*
X107445000Y-141772500D01*
G75*
G02*
X107297500Y-141920000I-147500J0D01*
G01*
X107002500Y-141920000D01*
G75*
G02*
X106855000Y-141772500I0J147500D01*
G01*
X106855000Y-141427500D01*
G75*
G02*
X107002500Y-141280000I147500J0D01*
G01*
X107297500Y-141280000D01*
G75*
G02*
X107445000Y-141427500I0J-147500D01*
G01*
G37*
%TD*%
%TO.C,C116*%
G36*
G01*
X101940000Y-142072500D02*
X101940000Y-141727500D01*
G75*
G02*
X102087500Y-141580000I147500J0D01*
G01*
X102382500Y-141580000D01*
G75*
G02*
X102530000Y-141727500I0J-147500D01*
G01*
X102530000Y-142072500D01*
G75*
G02*
X102382500Y-142220000I-147500J0D01*
G01*
X102087500Y-142220000D01*
G75*
G02*
X101940000Y-142072500I0J147500D01*
G01*
G37*
G36*
G01*
X100970000Y-142072500D02*
X100970000Y-141727500D01*
G75*
G02*
X101117500Y-141580000I147500J0D01*
G01*
X101412500Y-141580000D01*
G75*
G02*
X101560000Y-141727500I0J-147500D01*
G01*
X101560000Y-142072500D01*
G75*
G02*
X101412500Y-142220000I-147500J0D01*
G01*
X101117500Y-142220000D01*
G75*
G02*
X100970000Y-142072500I0J147500D01*
G01*
G37*
%TD*%
%TO.C,C115*%
G36*
G01*
X96552500Y-140765001D02*
X96897500Y-140765001D01*
G75*
G02*
X97045000Y-140912501I0J-147500D01*
G01*
X97045000Y-141207501D01*
G75*
G02*
X96897500Y-141355001I-147500J0D01*
G01*
X96552500Y-141355001D01*
G75*
G02*
X96405000Y-141207501I0J147500D01*
G01*
X96405000Y-140912501D01*
G75*
G02*
X96552500Y-140765001I147500J0D01*
G01*
G37*
G36*
G01*
X96552500Y-139795001D02*
X96897500Y-139795001D01*
G75*
G02*
X97045000Y-139942501I0J-147500D01*
G01*
X97045000Y-140237501D01*
G75*
G02*
X96897500Y-140385001I-147500J0D01*
G01*
X96552500Y-140385001D01*
G75*
G02*
X96405000Y-140237501I0J147500D01*
G01*
X96405000Y-139942501D01*
G75*
G02*
X96552500Y-139795001I147500J0D01*
G01*
G37*
%TD*%
%TO.C,C120*%
G36*
G01*
X96622500Y-146760000D02*
X96277500Y-146760000D01*
G75*
G02*
X96130000Y-146612500I0J147500D01*
G01*
X96130000Y-146317500D01*
G75*
G02*
X96277500Y-146170000I147500J0D01*
G01*
X96622500Y-146170000D01*
G75*
G02*
X96770000Y-146317500I0J-147500D01*
G01*
X96770000Y-146612500D01*
G75*
G02*
X96622500Y-146760000I-147500J0D01*
G01*
G37*
G36*
G01*
X96622500Y-147730000D02*
X96277500Y-147730000D01*
G75*
G02*
X96130000Y-147582500I0J147500D01*
G01*
X96130000Y-147287500D01*
G75*
G02*
X96277500Y-147140000I147500J0D01*
G01*
X96622500Y-147140000D01*
G75*
G02*
X96770000Y-147287500I0J-147500D01*
G01*
X96770000Y-147582500D01*
G75*
G02*
X96622500Y-147730000I-147500J0D01*
G01*
G37*
%TD*%
%TO.C,C121*%
G36*
G01*
X108640000Y-141772500D02*
X108640000Y-141427500D01*
G75*
G02*
X108787500Y-141280000I147500J0D01*
G01*
X109082500Y-141280000D01*
G75*
G02*
X109230000Y-141427500I0J-147500D01*
G01*
X109230000Y-141772500D01*
G75*
G02*
X109082500Y-141920000I-147500J0D01*
G01*
X108787500Y-141920000D01*
G75*
G02*
X108640000Y-141772500I0J147500D01*
G01*
G37*
G36*
G01*
X107670000Y-141772500D02*
X107670000Y-141427500D01*
G75*
G02*
X107817500Y-141280000I147500J0D01*
G01*
X108112500Y-141280000D01*
G75*
G02*
X108260000Y-141427500I0J-147500D01*
G01*
X108260000Y-141772500D01*
G75*
G02*
X108112500Y-141920000I-147500J0D01*
G01*
X107817500Y-141920000D01*
G75*
G02*
X107670000Y-141772500I0J147500D01*
G01*
G37*
%TD*%
%TO.C,C117*%
G36*
G01*
X104522500Y-140235000D02*
X104177500Y-140235000D01*
G75*
G02*
X104030000Y-140087500I0J147500D01*
G01*
X104030000Y-139792500D01*
G75*
G02*
X104177500Y-139645000I147500J0D01*
G01*
X104522500Y-139645000D01*
G75*
G02*
X104670000Y-139792500I0J-147500D01*
G01*
X104670000Y-140087500D01*
G75*
G02*
X104522500Y-140235000I-147500J0D01*
G01*
G37*
G36*
G01*
X104522500Y-141205000D02*
X104177500Y-141205000D01*
G75*
G02*
X104030000Y-141057500I0J147500D01*
G01*
X104030000Y-140762500D01*
G75*
G02*
X104177500Y-140615000I147500J0D01*
G01*
X104522500Y-140615000D01*
G75*
G02*
X104670000Y-140762500I0J-147500D01*
G01*
X104670000Y-141057500D01*
G75*
G02*
X104522500Y-141205000I-147500J0D01*
G01*
G37*
%TD*%
%TO.C,C125*%
G36*
G01*
X144690000Y-118587500D02*
X144690000Y-118932500D01*
G75*
G02*
X144542500Y-119080000I-147500J0D01*
G01*
X144247500Y-119080000D01*
G75*
G02*
X144100000Y-118932500I0J147500D01*
G01*
X144100000Y-118587500D01*
G75*
G02*
X144247500Y-118440000I147500J0D01*
G01*
X144542500Y-118440000D01*
G75*
G02*
X144690000Y-118587500I0J-147500D01*
G01*
G37*
G36*
G01*
X145660000Y-118587500D02*
X145660000Y-118932500D01*
G75*
G02*
X145512500Y-119080000I-147500J0D01*
G01*
X145217500Y-119080000D01*
G75*
G02*
X145070000Y-118932500I0J147500D01*
G01*
X145070000Y-118587500D01*
G75*
G02*
X145217500Y-118440000I147500J0D01*
G01*
X145512500Y-118440000D01*
G75*
G02*
X145660000Y-118587500I0J-147500D01*
G01*
G37*
%TD*%
%TO.C,C126*%
G36*
G01*
X148307500Y-121850000D02*
X148652500Y-121850000D01*
G75*
G02*
X148800000Y-121997500I0J-147500D01*
G01*
X148800000Y-122292500D01*
G75*
G02*
X148652500Y-122440000I-147500J0D01*
G01*
X148307500Y-122440000D01*
G75*
G02*
X148160000Y-122292500I0J147500D01*
G01*
X148160000Y-121997500D01*
G75*
G02*
X148307500Y-121850000I147500J0D01*
G01*
G37*
G36*
G01*
X148307500Y-120880000D02*
X148652500Y-120880000D01*
G75*
G02*
X148800000Y-121027500I0J-147500D01*
G01*
X148800000Y-121322500D01*
G75*
G02*
X148652500Y-121470000I-147500J0D01*
G01*
X148307500Y-121470000D01*
G75*
G02*
X148160000Y-121322500I0J147500D01*
G01*
X148160000Y-121027500D01*
G75*
G02*
X148307500Y-120880000I147500J0D01*
G01*
G37*
%TD*%
%TO.C,C127*%
G36*
G01*
X144690000Y-117687500D02*
X144690000Y-118032500D01*
G75*
G02*
X144542500Y-118180000I-147500J0D01*
G01*
X144247500Y-118180000D01*
G75*
G02*
X144100000Y-118032500I0J147500D01*
G01*
X144100000Y-117687500D01*
G75*
G02*
X144247500Y-117540000I147500J0D01*
G01*
X144542500Y-117540000D01*
G75*
G02*
X144690000Y-117687500I0J-147500D01*
G01*
G37*
G36*
G01*
X145660000Y-117687500D02*
X145660000Y-118032500D01*
G75*
G02*
X145512500Y-118180000I-147500J0D01*
G01*
X145217500Y-118180000D01*
G75*
G02*
X145070000Y-118032500I0J147500D01*
G01*
X145070000Y-117687500D01*
G75*
G02*
X145217500Y-117540000I147500J0D01*
G01*
X145512500Y-117540000D01*
G75*
G02*
X145660000Y-117687500I0J-147500D01*
G01*
G37*
%TD*%
%TO.C,C128*%
G36*
G01*
X151770000Y-120032500D02*
X151770000Y-119687500D01*
G75*
G02*
X151917500Y-119540000I147500J0D01*
G01*
X152212500Y-119540000D01*
G75*
G02*
X152360000Y-119687500I0J-147500D01*
G01*
X152360000Y-120032500D01*
G75*
G02*
X152212500Y-120180000I-147500J0D01*
G01*
X151917500Y-120180000D01*
G75*
G02*
X151770000Y-120032500I0J147500D01*
G01*
G37*
G36*
G01*
X150800000Y-120032500D02*
X150800000Y-119687500D01*
G75*
G02*
X150947500Y-119540000I147500J0D01*
G01*
X151242500Y-119540000D01*
G75*
G02*
X151390000Y-119687500I0J-147500D01*
G01*
X151390000Y-120032500D01*
G75*
G02*
X151242500Y-120180000I-147500J0D01*
G01*
X150947500Y-120180000D01*
G75*
G02*
X150800000Y-120032500I0J147500D01*
G01*
G37*
%TD*%
%TO.C,C129*%
G36*
G01*
X147407500Y-121850000D02*
X147752500Y-121850000D01*
G75*
G02*
X147900000Y-121997500I0J-147500D01*
G01*
X147900000Y-122292500D01*
G75*
G02*
X147752500Y-122440000I-147500J0D01*
G01*
X147407500Y-122440000D01*
G75*
G02*
X147260000Y-122292500I0J147500D01*
G01*
X147260000Y-121997500D01*
G75*
G02*
X147407500Y-121850000I147500J0D01*
G01*
G37*
G36*
G01*
X147407500Y-120880000D02*
X147752500Y-120880000D01*
G75*
G02*
X147900000Y-121027500I0J-147500D01*
G01*
X147900000Y-121322500D01*
G75*
G02*
X147752500Y-121470000I-147500J0D01*
G01*
X147407500Y-121470000D01*
G75*
G02*
X147260000Y-121322500I0J147500D01*
G01*
X147260000Y-121027500D01*
G75*
G02*
X147407500Y-120880000I147500J0D01*
G01*
G37*
%TD*%
%TO.C,C130*%
G36*
G01*
X151770000Y-115232500D02*
X151770000Y-114887500D01*
G75*
G02*
X151917500Y-114740000I147500J0D01*
G01*
X152212500Y-114740000D01*
G75*
G02*
X152360000Y-114887500I0J-147500D01*
G01*
X152360000Y-115232500D01*
G75*
G02*
X152212500Y-115380000I-147500J0D01*
G01*
X151917500Y-115380000D01*
G75*
G02*
X151770000Y-115232500I0J147500D01*
G01*
G37*
G36*
G01*
X150800000Y-115232500D02*
X150800000Y-114887500D01*
G75*
G02*
X150947500Y-114740000I147500J0D01*
G01*
X151242500Y-114740000D01*
G75*
G02*
X151390000Y-114887500I0J-147500D01*
G01*
X151390000Y-115232500D01*
G75*
G02*
X151242500Y-115380000I-147500J0D01*
G01*
X150947500Y-115380000D01*
G75*
G02*
X150800000Y-115232500I0J147500D01*
G01*
G37*
%TD*%
%TO.C,C131*%
G36*
G01*
X151770000Y-118032500D02*
X151770000Y-117687500D01*
G75*
G02*
X151917500Y-117540000I147500J0D01*
G01*
X152212500Y-117540000D01*
G75*
G02*
X152360000Y-117687500I0J-147500D01*
G01*
X152360000Y-118032500D01*
G75*
G02*
X152212500Y-118180000I-147500J0D01*
G01*
X151917500Y-118180000D01*
G75*
G02*
X151770000Y-118032500I0J147500D01*
G01*
G37*
G36*
G01*
X150800000Y-118032500D02*
X150800000Y-117687500D01*
G75*
G02*
X150947500Y-117540000I147500J0D01*
G01*
X151242500Y-117540000D01*
G75*
G02*
X151390000Y-117687500I0J-147500D01*
G01*
X151390000Y-118032500D01*
G75*
G02*
X151242500Y-118180000I-147500J0D01*
G01*
X150947500Y-118180000D01*
G75*
G02*
X150800000Y-118032500I0J147500D01*
G01*
G37*
%TD*%
%TO.C,C133*%
G36*
G01*
X146002500Y-114745000D02*
X145657500Y-114745000D01*
G75*
G02*
X145510000Y-114597500I0J147500D01*
G01*
X145510000Y-114302500D01*
G75*
G02*
X145657500Y-114155000I147500J0D01*
G01*
X146002500Y-114155000D01*
G75*
G02*
X146150000Y-114302500I0J-147500D01*
G01*
X146150000Y-114597500D01*
G75*
G02*
X146002500Y-114745000I-147500J0D01*
G01*
G37*
G36*
G01*
X146002500Y-115715000D02*
X145657500Y-115715000D01*
G75*
G02*
X145510000Y-115567500I0J147500D01*
G01*
X145510000Y-115272500D01*
G75*
G02*
X145657500Y-115125000I147500J0D01*
G01*
X146002500Y-115125000D01*
G75*
G02*
X146150000Y-115272500I0J-147500D01*
G01*
X146150000Y-115567500D01*
G75*
G02*
X146002500Y-115715000I-147500J0D01*
G01*
G37*
%TD*%
%TO.C,C134*%
G36*
G01*
X146902500Y-114745000D02*
X146557500Y-114745000D01*
G75*
G02*
X146410000Y-114597500I0J147500D01*
G01*
X146410000Y-114302500D01*
G75*
G02*
X146557500Y-114155000I147500J0D01*
G01*
X146902500Y-114155000D01*
G75*
G02*
X147050000Y-114302500I0J-147500D01*
G01*
X147050000Y-114597500D01*
G75*
G02*
X146902500Y-114745000I-147500J0D01*
G01*
G37*
G36*
G01*
X146902500Y-115715000D02*
X146557500Y-115715000D01*
G75*
G02*
X146410000Y-115567500I0J147500D01*
G01*
X146410000Y-115272500D01*
G75*
G02*
X146557500Y-115125000I147500J0D01*
G01*
X146902500Y-115125000D01*
G75*
G02*
X147050000Y-115272500I0J-147500D01*
G01*
X147050000Y-115567500D01*
G75*
G02*
X146902500Y-115715000I-147500J0D01*
G01*
G37*
%TD*%
%TO.C,C135*%
G36*
G01*
X149427500Y-121790000D02*
X149772500Y-121790000D01*
G75*
G02*
X149920000Y-121937500I0J-147500D01*
G01*
X149920000Y-122232500D01*
G75*
G02*
X149772500Y-122380000I-147500J0D01*
G01*
X149427500Y-122380000D01*
G75*
G02*
X149280000Y-122232500I0J147500D01*
G01*
X149280000Y-121937500D01*
G75*
G02*
X149427500Y-121790000I147500J0D01*
G01*
G37*
G36*
G01*
X149427500Y-120820000D02*
X149772500Y-120820000D01*
G75*
G02*
X149920000Y-120967500I0J-147500D01*
G01*
X149920000Y-121262500D01*
G75*
G02*
X149772500Y-121410000I-147500J0D01*
G01*
X149427500Y-121410000D01*
G75*
G02*
X149280000Y-121262500I0J147500D01*
G01*
X149280000Y-120967500D01*
G75*
G02*
X149427500Y-120820000I147500J0D01*
G01*
G37*
%TD*%
%TO.C,C136*%
G36*
G01*
X151495000Y-113027500D02*
X151495000Y-113372500D01*
G75*
G02*
X151347500Y-113520000I-147500J0D01*
G01*
X151052500Y-113520000D01*
G75*
G02*
X150905000Y-113372500I0J147500D01*
G01*
X150905000Y-113027500D01*
G75*
G02*
X151052500Y-112880000I147500J0D01*
G01*
X151347500Y-112880000D01*
G75*
G02*
X151495000Y-113027500I0J-147500D01*
G01*
G37*
G36*
G01*
X152465000Y-113027500D02*
X152465000Y-113372500D01*
G75*
G02*
X152317500Y-113520000I-147500J0D01*
G01*
X152022500Y-113520000D01*
G75*
G02*
X151875000Y-113372500I0J147500D01*
G01*
X151875000Y-113027500D01*
G75*
G02*
X152022500Y-112880000I147500J0D01*
G01*
X152317500Y-112880000D01*
G75*
G02*
X152465000Y-113027500I0J-147500D01*
G01*
G37*
%TD*%
%TO.C,C137*%
G36*
G01*
X150327500Y-121790000D02*
X150672500Y-121790000D01*
G75*
G02*
X150820000Y-121937500I0J-147500D01*
G01*
X150820000Y-122232500D01*
G75*
G02*
X150672500Y-122380000I-147500J0D01*
G01*
X150327500Y-122380000D01*
G75*
G02*
X150180000Y-122232500I0J147500D01*
G01*
X150180000Y-121937500D01*
G75*
G02*
X150327500Y-121790000I147500J0D01*
G01*
G37*
G36*
G01*
X150327500Y-120820000D02*
X150672500Y-120820000D01*
G75*
G02*
X150820000Y-120967500I0J-147500D01*
G01*
X150820000Y-121262500D01*
G75*
G02*
X150672500Y-121410000I-147500J0D01*
G01*
X150327500Y-121410000D01*
G75*
G02*
X150180000Y-121262500I0J147500D01*
G01*
X150180000Y-120967500D01*
G75*
G02*
X150327500Y-120820000I147500J0D01*
G01*
G37*
%TD*%
%TO.C,C138*%
G36*
G01*
X149652499Y-114755000D02*
X149307499Y-114755000D01*
G75*
G02*
X149159999Y-114607500I0J147500D01*
G01*
X149159999Y-114312500D01*
G75*
G02*
X149307499Y-114165000I147500J0D01*
G01*
X149652499Y-114165000D01*
G75*
G02*
X149799999Y-114312500I0J-147500D01*
G01*
X149799999Y-114607500D01*
G75*
G02*
X149652499Y-114755000I-147500J0D01*
G01*
G37*
G36*
G01*
X149652499Y-115725000D02*
X149307499Y-115725000D01*
G75*
G02*
X149159999Y-115577500I0J147500D01*
G01*
X149159999Y-115282500D01*
G75*
G02*
X149307499Y-115135000I147500J0D01*
G01*
X149652499Y-115135000D01*
G75*
G02*
X149799999Y-115282500I0J-147500D01*
G01*
X149799999Y-115577500D01*
G75*
G02*
X149652499Y-115725000I-147500J0D01*
G01*
G37*
%TD*%
%TO.C,C146*%
G36*
G01*
X139560389Y-113530109D02*
X139560389Y-113185109D01*
G75*
G02*
X139707889Y-113037609I147500J0D01*
G01*
X140002889Y-113037609D01*
G75*
G02*
X140150389Y-113185109I0J-147500D01*
G01*
X140150389Y-113530109D01*
G75*
G02*
X140002889Y-113677609I-147500J0D01*
G01*
X139707889Y-113677609D01*
G75*
G02*
X139560389Y-113530109I0J147500D01*
G01*
G37*
G36*
G01*
X138590389Y-113530109D02*
X138590389Y-113185109D01*
G75*
G02*
X138737889Y-113037609I147500J0D01*
G01*
X139032889Y-113037609D01*
G75*
G02*
X139180389Y-113185109I0J-147500D01*
G01*
X139180389Y-113530109D01*
G75*
G02*
X139032889Y-113677609I-147500J0D01*
G01*
X138737889Y-113677609D01*
G75*
G02*
X138590389Y-113530109I0J147500D01*
G01*
G37*
%TD*%
D22*
%TO.C,C112*%
X108245000Y-87300000D03*
X105955000Y-87300000D03*
%TD*%
%TO.C,C148*%
G36*
G01*
X140097500Y-121910000D02*
X139752500Y-121910000D01*
G75*
G02*
X139605000Y-121762500I0J147500D01*
G01*
X139605000Y-121467500D01*
G75*
G02*
X139752500Y-121320000I147500J0D01*
G01*
X140097500Y-121320000D01*
G75*
G02*
X140245000Y-121467500I0J-147500D01*
G01*
X140245000Y-121762500D01*
G75*
G02*
X140097500Y-121910000I-147500J0D01*
G01*
G37*
G36*
G01*
X140097500Y-122880000D02*
X139752500Y-122880000D01*
G75*
G02*
X139605000Y-122732500I0J147500D01*
G01*
X139605000Y-122437500D01*
G75*
G02*
X139752500Y-122290000I147500J0D01*
G01*
X140097500Y-122290000D01*
G75*
G02*
X140245000Y-122437500I0J-147500D01*
G01*
X140245000Y-122732500D01*
G75*
G02*
X140097500Y-122880000I-147500J0D01*
G01*
G37*
%TD*%
%TO.C,C149*%
G36*
G01*
X139847500Y-117585000D02*
X139502500Y-117585000D01*
G75*
G02*
X139355000Y-117437500I0J147500D01*
G01*
X139355000Y-117142500D01*
G75*
G02*
X139502500Y-116995000I147500J0D01*
G01*
X139847500Y-116995000D01*
G75*
G02*
X139995000Y-117142500I0J-147500D01*
G01*
X139995000Y-117437500D01*
G75*
G02*
X139847500Y-117585000I-147500J0D01*
G01*
G37*
G36*
G01*
X139847500Y-118555000D02*
X139502500Y-118555000D01*
G75*
G02*
X139355000Y-118407500I0J147500D01*
G01*
X139355000Y-118112500D01*
G75*
G02*
X139502500Y-117965000I147500J0D01*
G01*
X139847500Y-117965000D01*
G75*
G02*
X139995000Y-118112500I0J-147500D01*
G01*
X139995000Y-118407500D01*
G75*
G02*
X139847500Y-118555000I-147500J0D01*
G01*
G37*
%TD*%
%TO.C,C154*%
G36*
G01*
X139197500Y-121910000D02*
X138852500Y-121910000D01*
G75*
G02*
X138705000Y-121762500I0J147500D01*
G01*
X138705000Y-121467500D01*
G75*
G02*
X138852500Y-121320000I147500J0D01*
G01*
X139197500Y-121320000D01*
G75*
G02*
X139345000Y-121467500I0J-147500D01*
G01*
X139345000Y-121762500D01*
G75*
G02*
X139197500Y-121910000I-147500J0D01*
G01*
G37*
G36*
G01*
X139197500Y-122880000D02*
X138852500Y-122880000D01*
G75*
G02*
X138705000Y-122732500I0J147500D01*
G01*
X138705000Y-122437500D01*
G75*
G02*
X138852500Y-122290000I147500J0D01*
G01*
X139197500Y-122290000D01*
G75*
G02*
X139345000Y-122437500I0J-147500D01*
G01*
X139345000Y-122732500D01*
G75*
G02*
X139197500Y-122880000I-147500J0D01*
G01*
G37*
%TD*%
%TO.C,C155*%
G36*
G01*
X138947500Y-117585000D02*
X138602500Y-117585000D01*
G75*
G02*
X138455000Y-117437500I0J147500D01*
G01*
X138455000Y-117142500D01*
G75*
G02*
X138602500Y-116995000I147500J0D01*
G01*
X138947500Y-116995000D01*
G75*
G02*
X139095000Y-117142500I0J-147500D01*
G01*
X139095000Y-117437500D01*
G75*
G02*
X138947500Y-117585000I-147500J0D01*
G01*
G37*
G36*
G01*
X138947500Y-118555000D02*
X138602500Y-118555000D01*
G75*
G02*
X138455000Y-118407500I0J147500D01*
G01*
X138455000Y-118112500D01*
G75*
G02*
X138602500Y-117965000I147500J0D01*
G01*
X138947500Y-117965000D01*
G75*
G02*
X139095000Y-118112500I0J-147500D01*
G01*
X139095000Y-118407500D01*
G75*
G02*
X138947500Y-118555000I-147500J0D01*
G01*
G37*
%TD*%
%TO.C,C147*%
G36*
G01*
X77510000Y-129227500D02*
X77510000Y-129572500D01*
G75*
G02*
X77362500Y-129720000I-147500J0D01*
G01*
X77067500Y-129720000D01*
G75*
G02*
X76920000Y-129572500I0J147500D01*
G01*
X76920000Y-129227500D01*
G75*
G02*
X77067500Y-129080000I147500J0D01*
G01*
X77362500Y-129080000D01*
G75*
G02*
X77510000Y-129227500I0J-147500D01*
G01*
G37*
G36*
G01*
X78480000Y-129227500D02*
X78480000Y-129572500D01*
G75*
G02*
X78332500Y-129720000I-147500J0D01*
G01*
X78037500Y-129720000D01*
G75*
G02*
X77890000Y-129572500I0J147500D01*
G01*
X77890000Y-129227500D01*
G75*
G02*
X78037500Y-129080000I147500J0D01*
G01*
X78332500Y-129080000D01*
G75*
G02*
X78480000Y-129227500I0J-147500D01*
G01*
G37*
%TD*%
%TO.C,C113*%
G36*
G01*
X90140000Y-135572500D02*
X90140000Y-135227500D01*
G75*
G02*
X90287500Y-135080000I147500J0D01*
G01*
X90582500Y-135080000D01*
G75*
G02*
X90730000Y-135227500I0J-147500D01*
G01*
X90730000Y-135572500D01*
G75*
G02*
X90582500Y-135720000I-147500J0D01*
G01*
X90287500Y-135720000D01*
G75*
G02*
X90140000Y-135572500I0J147500D01*
G01*
G37*
G36*
G01*
X89170000Y-135572500D02*
X89170000Y-135227500D01*
G75*
G02*
X89317500Y-135080000I147500J0D01*
G01*
X89612500Y-135080000D01*
G75*
G02*
X89760000Y-135227500I0J-147500D01*
G01*
X89760000Y-135572500D01*
G75*
G02*
X89612500Y-135720000I-147500J0D01*
G01*
X89317500Y-135720000D01*
G75*
G02*
X89170000Y-135572500I0J147500D01*
G01*
G37*
%TD*%
%TO.C,C36*%
G36*
G01*
X101660000Y-134177500D02*
X101660000Y-134522500D01*
G75*
G02*
X101512500Y-134670000I-147500J0D01*
G01*
X101217500Y-134670000D01*
G75*
G02*
X101070000Y-134522500I0J147500D01*
G01*
X101070000Y-134177500D01*
G75*
G02*
X101217500Y-134030000I147500J0D01*
G01*
X101512500Y-134030000D01*
G75*
G02*
X101660000Y-134177500I0J-147500D01*
G01*
G37*
G36*
G01*
X102630000Y-134177500D02*
X102630000Y-134522500D01*
G75*
G02*
X102482500Y-134670000I-147500J0D01*
G01*
X102187500Y-134670000D01*
G75*
G02*
X102040000Y-134522500I0J147500D01*
G01*
X102040000Y-134177500D01*
G75*
G02*
X102187500Y-134030000I147500J0D01*
G01*
X102482500Y-134030000D01*
G75*
G02*
X102630000Y-134177500I0J-147500D01*
G01*
G37*
%TD*%
%TO.C,C37*%
G36*
G01*
X105577500Y-134090000D02*
X105922500Y-134090000D01*
G75*
G02*
X106070000Y-134237500I0J-147500D01*
G01*
X106070000Y-134532500D01*
G75*
G02*
X105922500Y-134680000I-147500J0D01*
G01*
X105577500Y-134680000D01*
G75*
G02*
X105430000Y-134532500I0J147500D01*
G01*
X105430000Y-134237500D01*
G75*
G02*
X105577500Y-134090000I147500J0D01*
G01*
G37*
G36*
G01*
X105577500Y-133120000D02*
X105922500Y-133120000D01*
G75*
G02*
X106070000Y-133267500I0J-147500D01*
G01*
X106070000Y-133562500D01*
G75*
G02*
X105922500Y-133710000I-147500J0D01*
G01*
X105577500Y-133710000D01*
G75*
G02*
X105430000Y-133562500I0J147500D01*
G01*
X105430000Y-133267500D01*
G75*
G02*
X105577500Y-133120000I147500J0D01*
G01*
G37*
%TD*%
%TO.C,C122*%
G36*
G01*
X106885000Y-144727500D02*
X106885000Y-145072500D01*
G75*
G02*
X106737500Y-145220000I-147500J0D01*
G01*
X106442500Y-145220000D01*
G75*
G02*
X106295000Y-145072500I0J147500D01*
G01*
X106295000Y-144727500D01*
G75*
G02*
X106442500Y-144580000I147500J0D01*
G01*
X106737500Y-144580000D01*
G75*
G02*
X106885000Y-144727500I0J-147500D01*
G01*
G37*
G36*
G01*
X107855000Y-144727500D02*
X107855000Y-145072500D01*
G75*
G02*
X107707500Y-145220000I-147500J0D01*
G01*
X107412500Y-145220000D01*
G75*
G02*
X107265000Y-145072500I0J147500D01*
G01*
X107265000Y-144727500D01*
G75*
G02*
X107412500Y-144580000I147500J0D01*
G01*
X107707500Y-144580000D01*
G75*
G02*
X107855000Y-144727500I0J-147500D01*
G01*
G37*
%TD*%
%TO.C,C123*%
G36*
G01*
X109065000Y-145072500D02*
X109065000Y-144727500D01*
G75*
G02*
X109212500Y-144580000I147500J0D01*
G01*
X109507500Y-144580000D01*
G75*
G02*
X109655000Y-144727500I0J-147500D01*
G01*
X109655000Y-145072500D01*
G75*
G02*
X109507500Y-145220000I-147500J0D01*
G01*
X109212500Y-145220000D01*
G75*
G02*
X109065000Y-145072500I0J147500D01*
G01*
G37*
G36*
G01*
X108095000Y-145072500D02*
X108095000Y-144727500D01*
G75*
G02*
X108242500Y-144580000I147500J0D01*
G01*
X108537500Y-144580000D01*
G75*
G02*
X108685000Y-144727500I0J-147500D01*
G01*
X108685000Y-145072500D01*
G75*
G02*
X108537500Y-145220000I-147500J0D01*
G01*
X108242500Y-145220000D01*
G75*
G02*
X108095000Y-145072500I0J147500D01*
G01*
G37*
%TD*%
%TO.C,C139*%
G36*
G01*
X151527500Y-110665000D02*
X151872500Y-110665000D01*
G75*
G02*
X152020000Y-110812500I0J-147500D01*
G01*
X152020000Y-111107500D01*
G75*
G02*
X151872500Y-111255000I-147500J0D01*
G01*
X151527500Y-111255000D01*
G75*
G02*
X151380000Y-111107500I0J147500D01*
G01*
X151380000Y-110812500D01*
G75*
G02*
X151527500Y-110665000I147500J0D01*
G01*
G37*
G36*
G01*
X151527500Y-109695000D02*
X151872500Y-109695000D01*
G75*
G02*
X152020000Y-109842500I0J-147500D01*
G01*
X152020000Y-110137500D01*
G75*
G02*
X151872500Y-110285000I-147500J0D01*
G01*
X151527500Y-110285000D01*
G75*
G02*
X151380000Y-110137500I0J147500D01*
G01*
X151380000Y-109842500D01*
G75*
G02*
X151527500Y-109695000I147500J0D01*
G01*
G37*
%TD*%
D19*
%TO.C,D8*%
X108050000Y-89900000D03*
X105950000Y-89900000D03*
%TD*%
D23*
%TO.C,D16*%
X143100000Y-83899999D03*
X143100000Y-82399999D03*
%TD*%
%TO.C,FB1*%
G36*
G01*
X104772500Y-85810000D02*
X104427500Y-85810000D01*
G75*
G02*
X104280000Y-85662500I0J147500D01*
G01*
X104280000Y-85367500D01*
G75*
G02*
X104427500Y-85220000I147500J0D01*
G01*
X104772500Y-85220000D01*
G75*
G02*
X104920000Y-85367500I0J-147500D01*
G01*
X104920000Y-85662500D01*
G75*
G02*
X104772500Y-85810000I-147500J0D01*
G01*
G37*
G36*
G01*
X104772500Y-86780000D02*
X104427500Y-86780000D01*
G75*
G02*
X104280000Y-86632500I0J147500D01*
G01*
X104280000Y-86337500D01*
G75*
G02*
X104427500Y-86190000I147500J0D01*
G01*
X104772500Y-86190000D01*
G75*
G02*
X104920000Y-86337500I0J-147500D01*
G01*
X104920000Y-86632500D01*
G75*
G02*
X104772500Y-86780000I-147500J0D01*
G01*
G37*
%TD*%
%TO.C,FB2*%
G36*
G01*
X109772500Y-85810000D02*
X109427500Y-85810000D01*
G75*
G02*
X109280000Y-85662500I0J147500D01*
G01*
X109280000Y-85367500D01*
G75*
G02*
X109427500Y-85220000I147500J0D01*
G01*
X109772500Y-85220000D01*
G75*
G02*
X109920000Y-85367500I0J-147500D01*
G01*
X109920000Y-85662500D01*
G75*
G02*
X109772500Y-85810000I-147500J0D01*
G01*
G37*
G36*
G01*
X109772500Y-86780000D02*
X109427500Y-86780000D01*
G75*
G02*
X109280000Y-86632500I0J147500D01*
G01*
X109280000Y-86337500D01*
G75*
G02*
X109427500Y-86190000I147500J0D01*
G01*
X109772500Y-86190000D01*
G75*
G02*
X109920000Y-86337500I0J-147500D01*
G01*
X109920000Y-86632500D01*
G75*
G02*
X109772500Y-86780000I-147500J0D01*
G01*
G37*
%TD*%
D24*
%TO.C,J11*%
X180000000Y-65700000D03*
D25*
X175120400Y-62750000D03*
D26*
X180000000Y-59700000D03*
%TD*%
D27*
%TO.C,J4*%
X178100000Y-146800000D03*
D28*
X178100000Y-144260000D03*
X175560000Y-146800000D03*
D29*
X175560000Y-144260000D03*
D28*
X173020000Y-146800000D03*
X173020000Y-144260000D03*
X170480000Y-146800000D03*
X170480000Y-144260000D03*
X167940000Y-146800000D03*
X167940000Y-144260000D03*
X165400000Y-146800000D03*
X165400000Y-144260000D03*
%TD*%
%TO.C,Q1*%
G36*
G01*
X118080000Y-147300000D02*
X118080000Y-146700000D01*
G75*
G02*
X118150000Y-146630000I70000J0D01*
G01*
X119450000Y-146630000D01*
G75*
G02*
X119520000Y-146700000I0J-70000D01*
G01*
X119520000Y-147300000D01*
G75*
G02*
X119450000Y-147370000I-70000J0D01*
G01*
X118150000Y-147370000D01*
G75*
G02*
X118080000Y-147300000I0J70000D01*
G01*
G37*
G36*
G01*
X118080000Y-145400000D02*
X118080000Y-144800000D01*
G75*
G02*
X118150000Y-144730000I70000J0D01*
G01*
X119450000Y-144730000D01*
G75*
G02*
X119520000Y-144800000I0J-70000D01*
G01*
X119520000Y-145400000D01*
G75*
G02*
X119450000Y-145470000I-70000J0D01*
G01*
X118150000Y-145470000D01*
G75*
G02*
X118080000Y-145400000I0J70000D01*
G01*
G37*
G36*
G01*
X120180000Y-146350000D02*
X120180000Y-145750000D01*
G75*
G02*
X120250000Y-145680000I70000J0D01*
G01*
X121550000Y-145680000D01*
G75*
G02*
X121620000Y-145750000I0J-70000D01*
G01*
X121620000Y-146350000D01*
G75*
G02*
X121550000Y-146420000I-70000J0D01*
G01*
X120250000Y-146420000D01*
G75*
G02*
X120180000Y-146350000I0J70000D01*
G01*
G37*
%TD*%
%TO.C,Q2*%
G36*
G01*
X125680000Y-147300000D02*
X125680000Y-146700000D01*
G75*
G02*
X125750000Y-146630000I70000J0D01*
G01*
X127050000Y-146630000D01*
G75*
G02*
X127120000Y-146700000I0J-70000D01*
G01*
X127120000Y-147300000D01*
G75*
G02*
X127050000Y-147370000I-70000J0D01*
G01*
X125750000Y-147370000D01*
G75*
G02*
X125680000Y-147300000I0J70000D01*
G01*
G37*
G36*
G01*
X125680000Y-145400000D02*
X125680000Y-144800000D01*
G75*
G02*
X125750000Y-144730000I70000J0D01*
G01*
X127050000Y-144730000D01*
G75*
G02*
X127120000Y-144800000I0J-70000D01*
G01*
X127120000Y-145400000D01*
G75*
G02*
X127050000Y-145470000I-70000J0D01*
G01*
X125750000Y-145470000D01*
G75*
G02*
X125680000Y-145400000I0J70000D01*
G01*
G37*
G36*
G01*
X127780000Y-146350000D02*
X127780000Y-145750000D01*
G75*
G02*
X127850000Y-145680000I70000J0D01*
G01*
X129150000Y-145680000D01*
G75*
G02*
X129220000Y-145750000I0J-70000D01*
G01*
X129220000Y-146350000D01*
G75*
G02*
X129150000Y-146420000I-70000J0D01*
G01*
X127850000Y-146420000D01*
G75*
G02*
X127780000Y-146350000I0J70000D01*
G01*
G37*
%TD*%
%TO.C,Q5*%
G36*
G01*
X101030000Y-89650000D02*
X101030000Y-89050000D01*
G75*
G02*
X101100000Y-88980000I70000J0D01*
G01*
X102400000Y-88980000D01*
G75*
G02*
X102470000Y-89050000I0J-70000D01*
G01*
X102470000Y-89650000D01*
G75*
G02*
X102400000Y-89720000I-70000J0D01*
G01*
X101100000Y-89720000D01*
G75*
G02*
X101030000Y-89650000I0J70000D01*
G01*
G37*
G36*
G01*
X101030000Y-87750000D02*
X101030000Y-87150000D01*
G75*
G02*
X101100000Y-87080000I70000J0D01*
G01*
X102400000Y-87080000D01*
G75*
G02*
X102470000Y-87150000I0J-70000D01*
G01*
X102470000Y-87750000D01*
G75*
G02*
X102400000Y-87820000I-70000J0D01*
G01*
X101100000Y-87820000D01*
G75*
G02*
X101030000Y-87750000I0J70000D01*
G01*
G37*
G36*
G01*
X103130000Y-88700000D02*
X103130000Y-88100000D01*
G75*
G02*
X103200000Y-88030000I70000J0D01*
G01*
X104500000Y-88030000D01*
G75*
G02*
X104570000Y-88100000I0J-70000D01*
G01*
X104570000Y-88700000D01*
G75*
G02*
X104500000Y-88770000I-70000J0D01*
G01*
X103200000Y-88770000D01*
G75*
G02*
X103130000Y-88700000I0J70000D01*
G01*
G37*
%TD*%
%TO.C,R47*%
G36*
G01*
X154425255Y-93386613D02*
X154425255Y-93731613D01*
G75*
G02*
X154277755Y-93879113I-147500J0D01*
G01*
X153982755Y-93879113D01*
G75*
G02*
X153835255Y-93731613I0J147500D01*
G01*
X153835255Y-93386613D01*
G75*
G02*
X153982755Y-93239113I147500J0D01*
G01*
X154277755Y-93239113D01*
G75*
G02*
X154425255Y-93386613I0J-147500D01*
G01*
G37*
G36*
G01*
X155395255Y-93386613D02*
X155395255Y-93731613D01*
G75*
G02*
X155247755Y-93879113I-147500J0D01*
G01*
X154952755Y-93879113D01*
G75*
G02*
X154805255Y-93731613I0J147500D01*
G01*
X154805255Y-93386613D01*
G75*
G02*
X154952755Y-93239113I147500J0D01*
G01*
X155247755Y-93239113D01*
G75*
G02*
X155395255Y-93386613I0J-147500D01*
G01*
G37*
%TD*%
%TO.C,R48*%
G36*
G01*
X154819289Y-92877525D02*
X154819289Y-92532525D01*
G75*
G02*
X154966789Y-92385025I147500J0D01*
G01*
X155261789Y-92385025D01*
G75*
G02*
X155409289Y-92532525I0J-147500D01*
G01*
X155409289Y-92877525D01*
G75*
G02*
X155261789Y-93025025I-147500J0D01*
G01*
X154966789Y-93025025D01*
G75*
G02*
X154819289Y-92877525I0J147500D01*
G01*
G37*
G36*
G01*
X153849289Y-92877525D02*
X153849289Y-92532525D01*
G75*
G02*
X153996789Y-92385025I147500J0D01*
G01*
X154291789Y-92385025D01*
G75*
G02*
X154439289Y-92532525I0J-147500D01*
G01*
X154439289Y-92877525D01*
G75*
G02*
X154291789Y-93025025I-147500J0D01*
G01*
X153996789Y-93025025D01*
G75*
G02*
X153849289Y-92877525I0J147500D01*
G01*
G37*
%TD*%
%TO.C,R18*%
G36*
G01*
X122977500Y-146740000D02*
X123322500Y-146740000D01*
G75*
G02*
X123470000Y-146887500I0J-147500D01*
G01*
X123470000Y-147182500D01*
G75*
G02*
X123322500Y-147330000I-147500J0D01*
G01*
X122977500Y-147330000D01*
G75*
G02*
X122830000Y-147182500I0J147500D01*
G01*
X122830000Y-146887500D01*
G75*
G02*
X122977500Y-146740000I147500J0D01*
G01*
G37*
G36*
G01*
X122977500Y-145770000D02*
X123322500Y-145770000D01*
G75*
G02*
X123470000Y-145917500I0J-147500D01*
G01*
X123470000Y-146212500D01*
G75*
G02*
X123322500Y-146360000I-147500J0D01*
G01*
X122977500Y-146360000D01*
G75*
G02*
X122830000Y-146212500I0J147500D01*
G01*
X122830000Y-145917500D01*
G75*
G02*
X122977500Y-145770000I147500J0D01*
G01*
G37*
%TD*%
%TO.C,R109*%
G36*
G01*
X143197500Y-80285000D02*
X142852500Y-80285000D01*
G75*
G02*
X142705000Y-80137500I0J147500D01*
G01*
X142705000Y-79842500D01*
G75*
G02*
X142852500Y-79695000I147500J0D01*
G01*
X143197500Y-79695000D01*
G75*
G02*
X143345000Y-79842500I0J-147500D01*
G01*
X143345000Y-80137500D01*
G75*
G02*
X143197500Y-80285000I-147500J0D01*
G01*
G37*
G36*
G01*
X143197500Y-81255000D02*
X142852500Y-81255000D01*
G75*
G02*
X142705000Y-81107500I0J147500D01*
G01*
X142705000Y-80812500D01*
G75*
G02*
X142852500Y-80665000I147500J0D01*
G01*
X143197500Y-80665000D01*
G75*
G02*
X143345000Y-80812500I0J-147500D01*
G01*
X143345000Y-81107500D01*
G75*
G02*
X143197500Y-81255000I-147500J0D01*
G01*
G37*
%TD*%
%TO.C,R110*%
G36*
G01*
X142310000Y-78877501D02*
X142310000Y-79222501D01*
G75*
G02*
X142162500Y-79370001I-147500J0D01*
G01*
X141867500Y-79370001D01*
G75*
G02*
X141720000Y-79222501I0J147500D01*
G01*
X141720000Y-78877501D01*
G75*
G02*
X141867500Y-78730001I147500J0D01*
G01*
X142162500Y-78730001D01*
G75*
G02*
X142310000Y-78877501I0J-147500D01*
G01*
G37*
G36*
G01*
X143280000Y-78877501D02*
X143280000Y-79222501D01*
G75*
G02*
X143132500Y-79370001I-147500J0D01*
G01*
X142837500Y-79370001D01*
G75*
G02*
X142690000Y-79222501I0J147500D01*
G01*
X142690000Y-78877501D01*
G75*
G02*
X142837500Y-78730001I147500J0D01*
G01*
X143132500Y-78730001D01*
G75*
G02*
X143280000Y-78877501I0J-147500D01*
G01*
G37*
%TD*%
%TO.C,R31*%
G36*
G01*
X83856000Y-95001500D02*
X83856000Y-95346500D01*
G75*
G02*
X83708500Y-95494000I-147500J0D01*
G01*
X83413500Y-95494000D01*
G75*
G02*
X83266000Y-95346500I0J147500D01*
G01*
X83266000Y-95001500D01*
G75*
G02*
X83413500Y-94854000I147500J0D01*
G01*
X83708500Y-94854000D01*
G75*
G02*
X83856000Y-95001500I0J-147500D01*
G01*
G37*
G36*
G01*
X84826000Y-95001500D02*
X84826000Y-95346500D01*
G75*
G02*
X84678500Y-95494000I-147500J0D01*
G01*
X84383500Y-95494000D01*
G75*
G02*
X84236000Y-95346500I0J147500D01*
G01*
X84236000Y-95001500D01*
G75*
G02*
X84383500Y-94854000I147500J0D01*
G01*
X84678500Y-94854000D01*
G75*
G02*
X84826000Y-95001500I0J-147500D01*
G01*
G37*
%TD*%
%TO.C,R32*%
G36*
G01*
X83856000Y-93176500D02*
X83856000Y-93521500D01*
G75*
G02*
X83708500Y-93669000I-147500J0D01*
G01*
X83413500Y-93669000D01*
G75*
G02*
X83266000Y-93521500I0J147500D01*
G01*
X83266000Y-93176500D01*
G75*
G02*
X83413500Y-93029000I147500J0D01*
G01*
X83708500Y-93029000D01*
G75*
G02*
X83856000Y-93176500I0J-147500D01*
G01*
G37*
G36*
G01*
X84826000Y-93176500D02*
X84826000Y-93521500D01*
G75*
G02*
X84678500Y-93669000I-147500J0D01*
G01*
X84383500Y-93669000D01*
G75*
G02*
X84236000Y-93521500I0J147500D01*
G01*
X84236000Y-93176500D01*
G75*
G02*
X84383500Y-93029000I147500J0D01*
G01*
X84678500Y-93029000D01*
G75*
G02*
X84826000Y-93176500I0J-147500D01*
G01*
G37*
%TD*%
%TO.C,R33*%
G36*
G01*
X83831000Y-95901500D02*
X83831000Y-96246500D01*
G75*
G02*
X83683500Y-96394000I-147500J0D01*
G01*
X83388500Y-96394000D01*
G75*
G02*
X83241000Y-96246500I0J147500D01*
G01*
X83241000Y-95901500D01*
G75*
G02*
X83388500Y-95754000I147500J0D01*
G01*
X83683500Y-95754000D01*
G75*
G02*
X83831000Y-95901500I0J-147500D01*
G01*
G37*
G36*
G01*
X84801000Y-95901500D02*
X84801000Y-96246500D01*
G75*
G02*
X84653500Y-96394000I-147500J0D01*
G01*
X84358500Y-96394000D01*
G75*
G02*
X84211000Y-96246500I0J147500D01*
G01*
X84211000Y-95901500D01*
G75*
G02*
X84358500Y-95754000I147500J0D01*
G01*
X84653500Y-95754000D01*
G75*
G02*
X84801000Y-95901500I0J-147500D01*
G01*
G37*
%TD*%
%TO.C,R34*%
G36*
G01*
X83856000Y-94076500D02*
X83856000Y-94421500D01*
G75*
G02*
X83708500Y-94569000I-147500J0D01*
G01*
X83413500Y-94569000D01*
G75*
G02*
X83266000Y-94421500I0J147500D01*
G01*
X83266000Y-94076500D01*
G75*
G02*
X83413500Y-93929000I147500J0D01*
G01*
X83708500Y-93929000D01*
G75*
G02*
X83856000Y-94076500I0J-147500D01*
G01*
G37*
G36*
G01*
X84826000Y-94076500D02*
X84826000Y-94421500D01*
G75*
G02*
X84678500Y-94569000I-147500J0D01*
G01*
X84383500Y-94569000D01*
G75*
G02*
X84236000Y-94421500I0J147500D01*
G01*
X84236000Y-94076500D01*
G75*
G02*
X84383500Y-93929000I147500J0D01*
G01*
X84678500Y-93929000D01*
G75*
G02*
X84826000Y-94076500I0J-147500D01*
G01*
G37*
%TD*%
%TO.C,R19*%
G36*
G01*
X122077500Y-146740000D02*
X122422500Y-146740000D01*
G75*
G02*
X122570000Y-146887500I0J-147500D01*
G01*
X122570000Y-147182500D01*
G75*
G02*
X122422500Y-147330000I-147500J0D01*
G01*
X122077500Y-147330000D01*
G75*
G02*
X121930000Y-147182500I0J147500D01*
G01*
X121930000Y-146887500D01*
G75*
G02*
X122077500Y-146740000I147500J0D01*
G01*
G37*
G36*
G01*
X122077500Y-145770000D02*
X122422500Y-145770000D01*
G75*
G02*
X122570000Y-145917500I0J-147500D01*
G01*
X122570000Y-146212500D01*
G75*
G02*
X122422500Y-146360000I-147500J0D01*
G01*
X122077500Y-146360000D01*
G75*
G02*
X121930000Y-146212500I0J147500D01*
G01*
X121930000Y-145917500D01*
G75*
G02*
X122077500Y-145770000I147500J0D01*
G01*
G37*
%TD*%
%TO.C,R73*%
G36*
G01*
X111027500Y-139855000D02*
X111372500Y-139855000D01*
G75*
G02*
X111520000Y-140002500I0J-147500D01*
G01*
X111520000Y-140297500D01*
G75*
G02*
X111372500Y-140445000I-147500J0D01*
G01*
X111027500Y-140445000D01*
G75*
G02*
X110880000Y-140297500I0J147500D01*
G01*
X110880000Y-140002500D01*
G75*
G02*
X111027500Y-139855000I147500J0D01*
G01*
G37*
G36*
G01*
X111027500Y-138885000D02*
X111372500Y-138885000D01*
G75*
G02*
X111520000Y-139032500I0J-147500D01*
G01*
X111520000Y-139327500D01*
G75*
G02*
X111372500Y-139475000I-147500J0D01*
G01*
X111027500Y-139475000D01*
G75*
G02*
X110880000Y-139327500I0J147500D01*
G01*
X110880000Y-139032500D01*
G75*
G02*
X111027500Y-138885000I147500J0D01*
G01*
G37*
%TD*%
%TO.C,R75*%
G36*
G01*
X111840000Y-138422500D02*
X111840000Y-138077500D01*
G75*
G02*
X111987500Y-137930000I147500J0D01*
G01*
X112282500Y-137930000D01*
G75*
G02*
X112430000Y-138077500I0J-147500D01*
G01*
X112430000Y-138422500D01*
G75*
G02*
X112282500Y-138570000I-147500J0D01*
G01*
X111987500Y-138570000D01*
G75*
G02*
X111840000Y-138422500I0J147500D01*
G01*
G37*
G36*
G01*
X110870000Y-138422500D02*
X110870000Y-138077500D01*
G75*
G02*
X111017500Y-137930000I147500J0D01*
G01*
X111312500Y-137930000D01*
G75*
G02*
X111460000Y-138077500I0J-147500D01*
G01*
X111460000Y-138422500D01*
G75*
G02*
X111312500Y-138570000I-147500J0D01*
G01*
X111017500Y-138570000D01*
G75*
G02*
X110870000Y-138422500I0J147500D01*
G01*
G37*
%TD*%
%TO.C,R83*%
G36*
G01*
X148422500Y-114755000D02*
X148077500Y-114755000D01*
G75*
G02*
X147930000Y-114607500I0J147500D01*
G01*
X147930000Y-114312500D01*
G75*
G02*
X148077500Y-114165000I147500J0D01*
G01*
X148422500Y-114165000D01*
G75*
G02*
X148570000Y-114312500I0J-147500D01*
G01*
X148570000Y-114607500D01*
G75*
G02*
X148422500Y-114755000I-147500J0D01*
G01*
G37*
G36*
G01*
X148422500Y-115725000D02*
X148077500Y-115725000D01*
G75*
G02*
X147930000Y-115577500I0J147500D01*
G01*
X147930000Y-115282500D01*
G75*
G02*
X148077500Y-115135000I147500J0D01*
G01*
X148422500Y-115135000D01*
G75*
G02*
X148570000Y-115282500I0J-147500D01*
G01*
X148570000Y-115577500D01*
G75*
G02*
X148422500Y-115725000I-147500J0D01*
G01*
G37*
%TD*%
%TO.C,R45*%
G36*
G01*
X150695000Y-92627500D02*
X150695000Y-92972500D01*
G75*
G02*
X150547500Y-93120000I-147500J0D01*
G01*
X150252500Y-93120000D01*
G75*
G02*
X150105000Y-92972500I0J147500D01*
G01*
X150105000Y-92627500D01*
G75*
G02*
X150252500Y-92480000I147500J0D01*
G01*
X150547500Y-92480000D01*
G75*
G02*
X150695000Y-92627500I0J-147500D01*
G01*
G37*
G36*
G01*
X151665000Y-92627500D02*
X151665000Y-92972500D01*
G75*
G02*
X151517500Y-93120000I-147500J0D01*
G01*
X151222500Y-93120000D01*
G75*
G02*
X151075000Y-92972500I0J147500D01*
G01*
X151075000Y-92627500D01*
G75*
G02*
X151222500Y-92480000I147500J0D01*
G01*
X151517500Y-92480000D01*
G75*
G02*
X151665000Y-92627500I0J-147500D01*
G01*
G37*
%TD*%
%TO.C,R46*%
G36*
G01*
X151090000Y-93872500D02*
X151090000Y-93527500D01*
G75*
G02*
X151237500Y-93380000I147500J0D01*
G01*
X151532500Y-93380000D01*
G75*
G02*
X151680000Y-93527500I0J-147500D01*
G01*
X151680000Y-93872500D01*
G75*
G02*
X151532500Y-94020000I-147500J0D01*
G01*
X151237500Y-94020000D01*
G75*
G02*
X151090000Y-93872500I0J147500D01*
G01*
G37*
G36*
G01*
X150120000Y-93872500D02*
X150120000Y-93527500D01*
G75*
G02*
X150267500Y-93380000I147500J0D01*
G01*
X150562500Y-93380000D01*
G75*
G02*
X150710000Y-93527500I0J-147500D01*
G01*
X150710000Y-93872500D01*
G75*
G02*
X150562500Y-94020000I-147500J0D01*
G01*
X150267500Y-94020000D01*
G75*
G02*
X150120000Y-93872500I0J147500D01*
G01*
G37*
%TD*%
%TO.C,R70*%
G36*
G01*
X109477500Y-139855000D02*
X109822500Y-139855000D01*
G75*
G02*
X109970000Y-140002500I0J-147500D01*
G01*
X109970000Y-140297500D01*
G75*
G02*
X109822500Y-140445000I-147500J0D01*
G01*
X109477500Y-140445000D01*
G75*
G02*
X109330000Y-140297500I0J147500D01*
G01*
X109330000Y-140002500D01*
G75*
G02*
X109477500Y-139855000I147500J0D01*
G01*
G37*
G36*
G01*
X109477500Y-138885000D02*
X109822500Y-138885000D01*
G75*
G02*
X109970000Y-139032500I0J-147500D01*
G01*
X109970000Y-139327500D01*
G75*
G02*
X109822500Y-139475000I-147500J0D01*
G01*
X109477500Y-139475000D01*
G75*
G02*
X109330000Y-139327500I0J147500D01*
G01*
X109330000Y-139032500D01*
G75*
G02*
X109477500Y-138885000I147500J0D01*
G01*
G37*
%TD*%
%TO.C,R68*%
G36*
G01*
X110572500Y-142210000D02*
X110227500Y-142210000D01*
G75*
G02*
X110080000Y-142062500I0J147500D01*
G01*
X110080000Y-141767500D01*
G75*
G02*
X110227500Y-141620000I147500J0D01*
G01*
X110572500Y-141620000D01*
G75*
G02*
X110720000Y-141767500I0J-147500D01*
G01*
X110720000Y-142062500D01*
G75*
G02*
X110572500Y-142210000I-147500J0D01*
G01*
G37*
G36*
G01*
X110572500Y-143180000D02*
X110227500Y-143180000D01*
G75*
G02*
X110080000Y-143032500I0J147500D01*
G01*
X110080000Y-142737500D01*
G75*
G02*
X110227500Y-142590000I147500J0D01*
G01*
X110572500Y-142590000D01*
G75*
G02*
X110720000Y-142737500I0J-147500D01*
G01*
X110720000Y-143032500D01*
G75*
G02*
X110572500Y-143180000I-147500J0D01*
G01*
G37*
%TD*%
%TO.C,R61*%
G36*
G01*
X99860000Y-87277500D02*
X99860000Y-87622500D01*
G75*
G02*
X99712500Y-87770000I-147500J0D01*
G01*
X99417500Y-87770000D01*
G75*
G02*
X99270000Y-87622500I0J147500D01*
G01*
X99270000Y-87277500D01*
G75*
G02*
X99417500Y-87130000I147500J0D01*
G01*
X99712500Y-87130000D01*
G75*
G02*
X99860000Y-87277500I0J-147500D01*
G01*
G37*
G36*
G01*
X100830000Y-87277500D02*
X100830000Y-87622500D01*
G75*
G02*
X100682500Y-87770000I-147500J0D01*
G01*
X100387500Y-87770000D01*
G75*
G02*
X100240000Y-87622500I0J147500D01*
G01*
X100240000Y-87277500D01*
G75*
G02*
X100387500Y-87130000I147500J0D01*
G01*
X100682500Y-87130000D01*
G75*
G02*
X100830000Y-87277500I0J-147500D01*
G01*
G37*
%TD*%
%TO.C,R35*%
G36*
G01*
X102040000Y-133672500D02*
X102040000Y-133327500D01*
G75*
G02*
X102187500Y-133180000I147500J0D01*
G01*
X102482500Y-133180000D01*
G75*
G02*
X102630000Y-133327500I0J-147500D01*
G01*
X102630000Y-133672500D01*
G75*
G02*
X102482500Y-133820000I-147500J0D01*
G01*
X102187500Y-133820000D01*
G75*
G02*
X102040000Y-133672500I0J147500D01*
G01*
G37*
G36*
G01*
X101070000Y-133672500D02*
X101070000Y-133327500D01*
G75*
G02*
X101217500Y-133180000I147500J0D01*
G01*
X101512500Y-133180000D01*
G75*
G02*
X101660000Y-133327500I0J-147500D01*
G01*
X101660000Y-133672500D01*
G75*
G02*
X101512500Y-133820000I-147500J0D01*
G01*
X101217500Y-133820000D01*
G75*
G02*
X101070000Y-133672500I0J147500D01*
G01*
G37*
%TD*%
%TO.C,R36*%
G36*
G01*
X102040000Y-135372500D02*
X102040000Y-135027500D01*
G75*
G02*
X102187500Y-134880000I147500J0D01*
G01*
X102482500Y-134880000D01*
G75*
G02*
X102630000Y-135027500I0J-147500D01*
G01*
X102630000Y-135372500D01*
G75*
G02*
X102482500Y-135520000I-147500J0D01*
G01*
X102187500Y-135520000D01*
G75*
G02*
X102040000Y-135372500I0J147500D01*
G01*
G37*
G36*
G01*
X101070000Y-135372500D02*
X101070000Y-135027500D01*
G75*
G02*
X101217500Y-134880000I147500J0D01*
G01*
X101512500Y-134880000D01*
G75*
G02*
X101660000Y-135027500I0J-147500D01*
G01*
X101660000Y-135372500D01*
G75*
G02*
X101512500Y-135520000I-147500J0D01*
G01*
X101217500Y-135520000D01*
G75*
G02*
X101070000Y-135372500I0J147500D01*
G01*
G37*
%TD*%
%TO.C,R37*%
G36*
G01*
X102040000Y-136222500D02*
X102040000Y-135877500D01*
G75*
G02*
X102187500Y-135730000I147500J0D01*
G01*
X102482500Y-135730000D01*
G75*
G02*
X102630000Y-135877500I0J-147500D01*
G01*
X102630000Y-136222500D01*
G75*
G02*
X102482500Y-136370000I-147500J0D01*
G01*
X102187500Y-136370000D01*
G75*
G02*
X102040000Y-136222500I0J147500D01*
G01*
G37*
G36*
G01*
X101070000Y-136222500D02*
X101070000Y-135877500D01*
G75*
G02*
X101217500Y-135730000I147500J0D01*
G01*
X101512500Y-135730000D01*
G75*
G02*
X101660000Y-135877500I0J-147500D01*
G01*
X101660000Y-136222500D01*
G75*
G02*
X101512500Y-136370000I-147500J0D01*
G01*
X101217500Y-136370000D01*
G75*
G02*
X101070000Y-136222500I0J147500D01*
G01*
G37*
%TD*%
%TO.C,R67*%
G36*
G01*
X94402500Y-147150000D02*
X94747500Y-147150000D01*
G75*
G02*
X94895000Y-147297500I0J-147500D01*
G01*
X94895000Y-147592500D01*
G75*
G02*
X94747500Y-147740000I-147500J0D01*
G01*
X94402500Y-147740000D01*
G75*
G02*
X94255000Y-147592500I0J147500D01*
G01*
X94255000Y-147297500D01*
G75*
G02*
X94402500Y-147150000I147500J0D01*
G01*
G37*
G36*
G01*
X94402500Y-146180000D02*
X94747500Y-146180000D01*
G75*
G02*
X94895000Y-146327500I0J-147500D01*
G01*
X94895000Y-146622500D01*
G75*
G02*
X94747500Y-146770000I-147500J0D01*
G01*
X94402500Y-146770000D01*
G75*
G02*
X94255000Y-146622500I0J147500D01*
G01*
X94255000Y-146327500D01*
G75*
G02*
X94402500Y-146180000I147500J0D01*
G01*
G37*
%TD*%
%TO.C,R69*%
G36*
G01*
X110760000Y-144027500D02*
X110760000Y-144372500D01*
G75*
G02*
X110612500Y-144520000I-147500J0D01*
G01*
X110317500Y-144520000D01*
G75*
G02*
X110170000Y-144372500I0J147500D01*
G01*
X110170000Y-144027500D01*
G75*
G02*
X110317500Y-143880000I147500J0D01*
G01*
X110612500Y-143880000D01*
G75*
G02*
X110760000Y-144027500I0J-147500D01*
G01*
G37*
G36*
G01*
X111730000Y-144027500D02*
X111730000Y-144372500D01*
G75*
G02*
X111582500Y-144520000I-147500J0D01*
G01*
X111287500Y-144520000D01*
G75*
G02*
X111140000Y-144372500I0J147500D01*
G01*
X111140000Y-144027500D01*
G75*
G02*
X111287500Y-143880000I147500J0D01*
G01*
X111582500Y-143880000D01*
G75*
G02*
X111730000Y-144027500I0J-147500D01*
G01*
G37*
%TD*%
%TO.C,R103*%
G36*
G01*
X141125000Y-83577500D02*
X141125000Y-83922500D01*
G75*
G02*
X140977500Y-84070000I-147500J0D01*
G01*
X140682500Y-84070000D01*
G75*
G02*
X140535000Y-83922500I0J147500D01*
G01*
X140535000Y-83577500D01*
G75*
G02*
X140682500Y-83430000I147500J0D01*
G01*
X140977500Y-83430000D01*
G75*
G02*
X141125000Y-83577500I0J-147500D01*
G01*
G37*
G36*
G01*
X142095000Y-83577500D02*
X142095000Y-83922500D01*
G75*
G02*
X141947500Y-84070000I-147500J0D01*
G01*
X141652500Y-84070000D01*
G75*
G02*
X141505000Y-83922500I0J147500D01*
G01*
X141505000Y-83577500D01*
G75*
G02*
X141652500Y-83430000I147500J0D01*
G01*
X141947500Y-83430000D01*
G75*
G02*
X142095000Y-83577500I0J-147500D01*
G01*
G37*
%TD*%
D30*
%TO.C,SP1*%
X89556999Y-144443500D03*
%TD*%
%TO.C,SP2*%
X160206999Y-144443500D03*
%TD*%
%TO.C,SP3*%
X160206999Y-90793500D03*
%TD*%
%TO.C,SP4*%
X89556999Y-90793500D03*
%TD*%
D31*
%TO.C,U39*%
X141824999Y-81925001D03*
X139224999Y-81925001D03*
X141824999Y-80975001D03*
X141824999Y-80025001D03*
X139224999Y-80975001D03*
X139224999Y-80025001D03*
%TD*%
%TO.C,U2*%
G36*
G01*
X94650000Y-77575000D02*
X94450000Y-77575000D01*
G75*
G02*
X94350000Y-77475000I0J100000D01*
G01*
X94350000Y-76200000D01*
G75*
G02*
X94450000Y-76100000I100000J0D01*
G01*
X94650000Y-76100000D01*
G75*
G02*
X94750000Y-76200000I0J-100000D01*
G01*
X94750000Y-77475000D01*
G75*
G02*
X94650000Y-77575000I-100000J0D01*
G01*
G37*
G36*
G01*
X94000000Y-77575000D02*
X93800000Y-77575000D01*
G75*
G02*
X93700000Y-77475000I0J100000D01*
G01*
X93700000Y-76200000D01*
G75*
G02*
X93800000Y-76100000I100000J0D01*
G01*
X94000000Y-76100000D01*
G75*
G02*
X94100000Y-76200000I0J-100000D01*
G01*
X94100000Y-77475000D01*
G75*
G02*
X94000000Y-77575000I-100000J0D01*
G01*
G37*
G36*
G01*
X93350000Y-77575000D02*
X93150000Y-77575000D01*
G75*
G02*
X93050000Y-77475000I0J100000D01*
G01*
X93050000Y-76200000D01*
G75*
G02*
X93150000Y-76100000I100000J0D01*
G01*
X93350000Y-76100000D01*
G75*
G02*
X93450000Y-76200000I0J-100000D01*
G01*
X93450000Y-77475000D01*
G75*
G02*
X93350000Y-77575000I-100000J0D01*
G01*
G37*
G36*
G01*
X92700000Y-77575000D02*
X92500000Y-77575000D01*
G75*
G02*
X92400000Y-77475000I0J100000D01*
G01*
X92400000Y-76200000D01*
G75*
G02*
X92500000Y-76100000I100000J0D01*
G01*
X92700000Y-76100000D01*
G75*
G02*
X92800000Y-76200000I0J-100000D01*
G01*
X92800000Y-77475000D01*
G75*
G02*
X92700000Y-77575000I-100000J0D01*
G01*
G37*
G36*
G01*
X92050000Y-77575000D02*
X91850000Y-77575000D01*
G75*
G02*
X91750000Y-77475000I0J100000D01*
G01*
X91750000Y-76200000D01*
G75*
G02*
X91850000Y-76100000I100000J0D01*
G01*
X92050000Y-76100000D01*
G75*
G02*
X92150000Y-76200000I0J-100000D01*
G01*
X92150000Y-77475000D01*
G75*
G02*
X92050000Y-77575000I-100000J0D01*
G01*
G37*
G36*
G01*
X91400000Y-77575000D02*
X91200000Y-77575000D01*
G75*
G02*
X91100000Y-77475000I0J100000D01*
G01*
X91100000Y-76200000D01*
G75*
G02*
X91200000Y-76100000I100000J0D01*
G01*
X91400000Y-76100000D01*
G75*
G02*
X91500000Y-76200000I0J-100000D01*
G01*
X91500000Y-77475000D01*
G75*
G02*
X91400000Y-77575000I-100000J0D01*
G01*
G37*
G36*
G01*
X90750000Y-77575000D02*
X90550000Y-77575000D01*
G75*
G02*
X90450000Y-77475000I0J100000D01*
G01*
X90450000Y-76200000D01*
G75*
G02*
X90550000Y-76100000I100000J0D01*
G01*
X90750000Y-76100000D01*
G75*
G02*
X90850000Y-76200000I0J-100000D01*
G01*
X90850000Y-77475000D01*
G75*
G02*
X90750000Y-77575000I-100000J0D01*
G01*
G37*
G36*
G01*
X90750000Y-83300000D02*
X90550000Y-83300000D01*
G75*
G02*
X90450000Y-83200000I0J100000D01*
G01*
X90450000Y-81925000D01*
G75*
G02*
X90550000Y-81825000I100000J0D01*
G01*
X90750000Y-81825000D01*
G75*
G02*
X90850000Y-81925000I0J-100000D01*
G01*
X90850000Y-83200000D01*
G75*
G02*
X90750000Y-83300000I-100000J0D01*
G01*
G37*
G36*
G01*
X91400000Y-83300000D02*
X91200000Y-83300000D01*
G75*
G02*
X91100000Y-83200000I0J100000D01*
G01*
X91100000Y-81925000D01*
G75*
G02*
X91200000Y-81825000I100000J0D01*
G01*
X91400000Y-81825000D01*
G75*
G02*
X91500000Y-81925000I0J-100000D01*
G01*
X91500000Y-83200000D01*
G75*
G02*
X91400000Y-83300000I-100000J0D01*
G01*
G37*
G36*
G01*
X92050000Y-83300000D02*
X91850000Y-83300000D01*
G75*
G02*
X91750000Y-83200000I0J100000D01*
G01*
X91750000Y-81925000D01*
G75*
G02*
X91850000Y-81825000I100000J0D01*
G01*
X92050000Y-81825000D01*
G75*
G02*
X92150000Y-81925000I0J-100000D01*
G01*
X92150000Y-83200000D01*
G75*
G02*
X92050000Y-83300000I-100000J0D01*
G01*
G37*
G36*
G01*
X92700000Y-83300000D02*
X92500000Y-83300000D01*
G75*
G02*
X92400000Y-83200000I0J100000D01*
G01*
X92400000Y-81925000D01*
G75*
G02*
X92500000Y-81825000I100000J0D01*
G01*
X92700000Y-81825000D01*
G75*
G02*
X92800000Y-81925000I0J-100000D01*
G01*
X92800000Y-83200000D01*
G75*
G02*
X92700000Y-83300000I-100000J0D01*
G01*
G37*
G36*
G01*
X93350000Y-83300000D02*
X93150000Y-83300000D01*
G75*
G02*
X93050000Y-83200000I0J100000D01*
G01*
X93050000Y-81925000D01*
G75*
G02*
X93150000Y-81825000I100000J0D01*
G01*
X93350000Y-81825000D01*
G75*
G02*
X93450000Y-81925000I0J-100000D01*
G01*
X93450000Y-83200000D01*
G75*
G02*
X93350000Y-83300000I-100000J0D01*
G01*
G37*
G36*
G01*
X94000000Y-83300000D02*
X93800000Y-83300000D01*
G75*
G02*
X93700000Y-83200000I0J100000D01*
G01*
X93700000Y-81925000D01*
G75*
G02*
X93800000Y-81825000I100000J0D01*
G01*
X94000000Y-81825000D01*
G75*
G02*
X94100000Y-81925000I0J-100000D01*
G01*
X94100000Y-83200000D01*
G75*
G02*
X94000000Y-83300000I-100000J0D01*
G01*
G37*
G36*
G01*
X94650000Y-83300000D02*
X94450000Y-83300000D01*
G75*
G02*
X94350000Y-83200000I0J100000D01*
G01*
X94350000Y-81925000D01*
G75*
G02*
X94450000Y-81825000I100000J0D01*
G01*
X94650000Y-81825000D01*
G75*
G02*
X94750000Y-81925000I0J-100000D01*
G01*
X94750000Y-83200000D01*
G75*
G02*
X94650000Y-83300000I-100000J0D01*
G01*
G37*
%TD*%
D32*
%TO.C,J1*%
X82013000Y-56238000D03*
D33*
X82013000Y-63018000D03*
D34*
X90263000Y-55338000D03*
D32*
X98513000Y-56238000D03*
D33*
X98513000Y-63018000D03*
%TD*%
D30*
%TO.C,MP1*%
X77500000Y-148500000D03*
%TD*%
%TO.C,MP2*%
X188500000Y-148500000D03*
%TD*%
%TO.C,MP3*%
X188500000Y-55500000D03*
%TD*%
%TO.C,MP4*%
X77500000Y-55500000D03*
%TD*%
D35*
%TO.C,U51*%
X115220000Y-73460000D03*
X115720000Y-73460000D03*
X116220000Y-73460000D03*
X116220000Y-74960000D03*
X115720000Y-74960000D03*
X115220000Y-74960000D03*
%TD*%
%TO.C,U49*%
X134603449Y-73421573D03*
X135103449Y-73421573D03*
X135603449Y-73421573D03*
X135603449Y-74921573D03*
X135103449Y-74921573D03*
X134603449Y-74921573D03*
%TD*%
%TO.C,C34*%
G36*
G01*
X85490000Y-122072500D02*
X85490000Y-121727500D01*
G75*
G02*
X85637500Y-121580000I147500J0D01*
G01*
X85932500Y-121580000D01*
G75*
G02*
X86080000Y-121727500I0J-147500D01*
G01*
X86080000Y-122072500D01*
G75*
G02*
X85932500Y-122220000I-147500J0D01*
G01*
X85637500Y-122220000D01*
G75*
G02*
X85490000Y-122072500I0J147500D01*
G01*
G37*
G36*
G01*
X84520000Y-122072500D02*
X84520000Y-121727500D01*
G75*
G02*
X84667500Y-121580000I147500J0D01*
G01*
X84962500Y-121580000D01*
G75*
G02*
X85110000Y-121727500I0J-147500D01*
G01*
X85110000Y-122072500D01*
G75*
G02*
X84962500Y-122220000I-147500J0D01*
G01*
X84667500Y-122220000D01*
G75*
G02*
X84520000Y-122072500I0J147500D01*
G01*
G37*
%TD*%
%TO.C,R29*%
G36*
G01*
X85110000Y-122627500D02*
X85110000Y-122972500D01*
G75*
G02*
X84962500Y-123120000I-147500J0D01*
G01*
X84667500Y-123120000D01*
G75*
G02*
X84520000Y-122972500I0J147500D01*
G01*
X84520000Y-122627500D01*
G75*
G02*
X84667500Y-122480000I147500J0D01*
G01*
X84962500Y-122480000D01*
G75*
G02*
X85110000Y-122627500I0J-147500D01*
G01*
G37*
G36*
G01*
X86080000Y-122627500D02*
X86080000Y-122972500D01*
G75*
G02*
X85932500Y-123120000I-147500J0D01*
G01*
X85637500Y-123120000D01*
G75*
G02*
X85490000Y-122972500I0J147500D01*
G01*
X85490000Y-122627500D01*
G75*
G02*
X85637500Y-122480000I147500J0D01*
G01*
X85932500Y-122480000D01*
G75*
G02*
X86080000Y-122627500I0J-147500D01*
G01*
G37*
%TD*%
%TO.C,R30*%
G36*
G01*
X85110000Y-123527500D02*
X85110000Y-123872500D01*
G75*
G02*
X84962500Y-124020000I-147500J0D01*
G01*
X84667500Y-124020000D01*
G75*
G02*
X84520000Y-123872500I0J147500D01*
G01*
X84520000Y-123527500D01*
G75*
G02*
X84667500Y-123380000I147500J0D01*
G01*
X84962500Y-123380000D01*
G75*
G02*
X85110000Y-123527500I0J-147500D01*
G01*
G37*
G36*
G01*
X86080000Y-123527500D02*
X86080000Y-123872500D01*
G75*
G02*
X85932500Y-124020000I-147500J0D01*
G01*
X85637500Y-124020000D01*
G75*
G02*
X85490000Y-123872500I0J147500D01*
G01*
X85490000Y-123527500D01*
G75*
G02*
X85637500Y-123380000I147500J0D01*
G01*
X85932500Y-123380000D01*
G75*
G02*
X86080000Y-123527500I0J-147500D01*
G01*
G37*
%TD*%
%TO.C,U1*%
G36*
G01*
X94303400Y-87550000D02*
X94096600Y-87550000D01*
G75*
G02*
X94090000Y-87543400I0J6600D01*
G01*
X94090000Y-86746600D01*
G75*
G02*
X94096600Y-86740000I6600J0D01*
G01*
X94303400Y-86740000D01*
G75*
G02*
X94310000Y-86746600I0J-6600D01*
G01*
X94310000Y-87543400D01*
G75*
G02*
X94303400Y-87550000I-6600J0D01*
G01*
G37*
G36*
G01*
X93903400Y-87550000D02*
X93696600Y-87550000D01*
G75*
G02*
X93690000Y-87543400I0J6600D01*
G01*
X93690000Y-86746600D01*
G75*
G02*
X93696600Y-86740000I6600J0D01*
G01*
X93903400Y-86740000D01*
G75*
G02*
X93910000Y-86746600I0J-6600D01*
G01*
X93910000Y-87543400D01*
G75*
G02*
X93903400Y-87550000I-6600J0D01*
G01*
G37*
G36*
G01*
X93503400Y-87550000D02*
X93296600Y-87550000D01*
G75*
G02*
X93290000Y-87543400I0J6600D01*
G01*
X93290000Y-86746600D01*
G75*
G02*
X93296600Y-86740000I6600J0D01*
G01*
X93503400Y-86740000D01*
G75*
G02*
X93510000Y-86746600I0J-6600D01*
G01*
X93510000Y-87543400D01*
G75*
G02*
X93503400Y-87550000I-6600J0D01*
G01*
G37*
G36*
G01*
X93103400Y-87550000D02*
X92896600Y-87550000D01*
G75*
G02*
X92890000Y-87543400I0J6600D01*
G01*
X92890000Y-86746600D01*
G75*
G02*
X92896600Y-86740000I6600J0D01*
G01*
X93103400Y-86740000D01*
G75*
G02*
X93110000Y-86746600I0J-6600D01*
G01*
X93110000Y-87543400D01*
G75*
G02*
X93103400Y-87550000I-6600J0D01*
G01*
G37*
G36*
G01*
X93103400Y-85060000D02*
X92896600Y-85060000D01*
G75*
G02*
X92890000Y-85053400I0J6600D01*
G01*
X92890000Y-84256600D01*
G75*
G02*
X92896600Y-84250000I6600J0D01*
G01*
X93103400Y-84250000D01*
G75*
G02*
X93110000Y-84256600I0J-6600D01*
G01*
X93110000Y-85053400D01*
G75*
G02*
X93103400Y-85060000I-6600J0D01*
G01*
G37*
G36*
G01*
X93503400Y-85060000D02*
X93296600Y-85060000D01*
G75*
G02*
X93290000Y-85053400I0J6600D01*
G01*
X93290000Y-84256600D01*
G75*
G02*
X93296600Y-84250000I6600J0D01*
G01*
X93503400Y-84250000D01*
G75*
G02*
X93510000Y-84256600I0J-6600D01*
G01*
X93510000Y-85053400D01*
G75*
G02*
X93503400Y-85060000I-6600J0D01*
G01*
G37*
G36*
G01*
X93903400Y-85060000D02*
X93696600Y-85060000D01*
G75*
G02*
X93690000Y-85053400I0J6600D01*
G01*
X93690000Y-84256600D01*
G75*
G02*
X93696600Y-84250000I6600J0D01*
G01*
X93903400Y-84250000D01*
G75*
G02*
X93910000Y-84256600I0J-6600D01*
G01*
X93910000Y-85053400D01*
G75*
G02*
X93903400Y-85060000I-6600J0D01*
G01*
G37*
G36*
G01*
X94303400Y-85060000D02*
X94096600Y-85060000D01*
G75*
G02*
X94090000Y-85053400I0J6600D01*
G01*
X94090000Y-84256600D01*
G75*
G02*
X94096600Y-84250000I6600J0D01*
G01*
X94303400Y-84250000D01*
G75*
G02*
X94310000Y-84256600I0J-6600D01*
G01*
X94310000Y-85053400D01*
G75*
G02*
X94303400Y-85060000I-6600J0D01*
G01*
G37*
G36*
G01*
X94850000Y-85196600D02*
X94850000Y-85403400D01*
G75*
G02*
X94843400Y-85410000I-6600J0D01*
G01*
X93946600Y-85410000D01*
G75*
G02*
X93940000Y-85403400I0J6600D01*
G01*
X93940000Y-85196600D01*
G75*
G02*
X93946600Y-85190000I6600J0D01*
G01*
X94843400Y-85190000D01*
G75*
G02*
X94850000Y-85196600I0J-6600D01*
G01*
G37*
G36*
G01*
X94850000Y-85596600D02*
X94850000Y-85803400D01*
G75*
G02*
X94843400Y-85810000I-6600J0D01*
G01*
X94046600Y-85810000D01*
G75*
G02*
X94040000Y-85803400I0J6600D01*
G01*
X94040000Y-85596600D01*
G75*
G02*
X94046600Y-85590000I6600J0D01*
G01*
X94843400Y-85590000D01*
G75*
G02*
X94850000Y-85596600I0J-6600D01*
G01*
G37*
G36*
G01*
X94850000Y-85996600D02*
X94850000Y-86203400D01*
G75*
G02*
X94843400Y-86210000I-6600J0D01*
G01*
X94046600Y-86210000D01*
G75*
G02*
X94040000Y-86203400I0J6600D01*
G01*
X94040000Y-85996600D01*
G75*
G02*
X94046600Y-85990000I6600J0D01*
G01*
X94843400Y-85990000D01*
G75*
G02*
X94850000Y-85996600I0J-6600D01*
G01*
G37*
G36*
G01*
X94850000Y-86396600D02*
X94850000Y-86603400D01*
G75*
G02*
X94843400Y-86610000I-6600J0D01*
G01*
X94046600Y-86610000D01*
G75*
G02*
X94040000Y-86603400I0J6600D01*
G01*
X94040000Y-86396600D01*
G75*
G02*
X94046600Y-86390000I6600J0D01*
G01*
X94843400Y-86390000D01*
G75*
G02*
X94850000Y-86396600I0J-6600D01*
G01*
G37*
G36*
G01*
X93160000Y-86396600D02*
X93160000Y-86603400D01*
G75*
G02*
X93153400Y-86610000I-6600J0D01*
G01*
X92356600Y-86610000D01*
G75*
G02*
X92350000Y-86603400I0J6600D01*
G01*
X92350000Y-86396600D01*
G75*
G02*
X92356600Y-86390000I6600J0D01*
G01*
X93153400Y-86390000D01*
G75*
G02*
X93160000Y-86396600I0J-6600D01*
G01*
G37*
G36*
G01*
X93160000Y-85996600D02*
X93160000Y-86203400D01*
G75*
G02*
X93153400Y-86210000I-6600J0D01*
G01*
X92356600Y-86210000D01*
G75*
G02*
X92350000Y-86203400I0J6600D01*
G01*
X92350000Y-85996600D01*
G75*
G02*
X92356600Y-85990000I6600J0D01*
G01*
X93153400Y-85990000D01*
G75*
G02*
X93160000Y-85996600I0J-6600D01*
G01*
G37*
G36*
G01*
X93160000Y-85596600D02*
X93160000Y-85803400D01*
G75*
G02*
X93153400Y-85810000I-6600J0D01*
G01*
X92356600Y-85810000D01*
G75*
G02*
X92350000Y-85803400I0J6600D01*
G01*
X92350000Y-85596600D01*
G75*
G02*
X92356600Y-85590000I6600J0D01*
G01*
X93153400Y-85590000D01*
G75*
G02*
X93160000Y-85596600I0J-6600D01*
G01*
G37*
G36*
G01*
X93160000Y-85196600D02*
X93160000Y-85403400D01*
G75*
G02*
X93153400Y-85410000I-6600J0D01*
G01*
X92356600Y-85410000D01*
G75*
G02*
X92350000Y-85403400I0J6600D01*
G01*
X92350000Y-85196600D01*
G75*
G02*
X92356600Y-85190000I6600J0D01*
G01*
X93153400Y-85190000D01*
G75*
G02*
X93160000Y-85196600I0J-6600D01*
G01*
G37*
%TD*%
%TO.C,C140*%
G36*
G01*
X152477500Y-110665000D02*
X152822500Y-110665000D01*
G75*
G02*
X152970000Y-110812500I0J-147500D01*
G01*
X152970000Y-111107500D01*
G75*
G02*
X152822500Y-111255000I-147500J0D01*
G01*
X152477500Y-111255000D01*
G75*
G02*
X152330000Y-111107500I0J147500D01*
G01*
X152330000Y-110812500D01*
G75*
G02*
X152477500Y-110665000I147500J0D01*
G01*
G37*
G36*
G01*
X152477500Y-109695000D02*
X152822500Y-109695000D01*
G75*
G02*
X152970000Y-109842500I0J-147500D01*
G01*
X152970000Y-110137500D01*
G75*
G02*
X152822500Y-110285000I-147500J0D01*
G01*
X152477500Y-110285000D01*
G75*
G02*
X152330000Y-110137500I0J147500D01*
G01*
X152330000Y-109842500D01*
G75*
G02*
X152477500Y-109695000I147500J0D01*
G01*
G37*
%TD*%
%TO.C,C142*%
G36*
G01*
X150577500Y-110665000D02*
X150922500Y-110665000D01*
G75*
G02*
X151070000Y-110812500I0J-147500D01*
G01*
X151070000Y-111107500D01*
G75*
G02*
X150922500Y-111255000I-147500J0D01*
G01*
X150577500Y-111255000D01*
G75*
G02*
X150430000Y-111107500I0J147500D01*
G01*
X150430000Y-110812500D01*
G75*
G02*
X150577500Y-110665000I147500J0D01*
G01*
G37*
G36*
G01*
X150577500Y-109695000D02*
X150922500Y-109695000D01*
G75*
G02*
X151070000Y-109842500I0J-147500D01*
G01*
X151070000Y-110137500D01*
G75*
G02*
X150922500Y-110285000I-147500J0D01*
G01*
X150577500Y-110285000D01*
G75*
G02*
X150430000Y-110137500I0J147500D01*
G01*
X150430000Y-109842500D01*
G75*
G02*
X150577500Y-109695000I147500J0D01*
G01*
G37*
%TD*%
D36*
%TO.C,J_SOM240_1*%
X91576500Y-137756500D03*
X92846500Y-97486500D03*
%TD*%
D37*
%TO.C,SP5*%
X98788558Y-122024722D03*
%TD*%
D38*
%TO.C,P1*%
X124788559Y-130024723D03*
X124788559Y-120024723D03*
X124788559Y-114524723D03*
X132288559Y-115274723D03*
X132288559Y-129274723D03*
D39*
X131538559Y-111674723D03*
D38*
X124788559Y-126024723D03*
X132288559Y-125774723D03*
X132288559Y-119274723D03*
X124788559Y-121524723D03*
X124788559Y-119024723D03*
X124788559Y-117524723D03*
X132288559Y-113274723D03*
X132288559Y-119774723D03*
X132288559Y-129774723D03*
X124788559Y-116524723D03*
X124788559Y-121024723D03*
X132288559Y-123274723D03*
X124788559Y-113024723D03*
X132288559Y-127774723D03*
X132288559Y-128274723D03*
D40*
X127038559Y-112024723D03*
D38*
X124788559Y-120524723D03*
X124788559Y-129024723D03*
X132288559Y-121774723D03*
X132288559Y-121274723D03*
X124788559Y-115024723D03*
X124788559Y-115524723D03*
X132288559Y-116274723D03*
X124788559Y-122524723D03*
X132288559Y-130274723D03*
X124788559Y-123524723D03*
D39*
X131538559Y-132374723D03*
D38*
X124788559Y-123024723D03*
X132288559Y-122774723D03*
X124788559Y-117024723D03*
X124788559Y-130524723D03*
X132288559Y-120774723D03*
X124788559Y-114024723D03*
X132288559Y-131274723D03*
X124788559Y-131024723D03*
X132288559Y-130774723D03*
X124788559Y-118524723D03*
X132288559Y-118774723D03*
X132288559Y-112774723D03*
X132288559Y-114774723D03*
X124788559Y-118024723D03*
X124788559Y-116024723D03*
X124788559Y-122024723D03*
X132288559Y-122274723D03*
X124788559Y-129524723D03*
X132288559Y-115774723D03*
X132288559Y-118274723D03*
X124788559Y-126524723D03*
X124788559Y-127524723D03*
X124788559Y-128024723D03*
X132288559Y-126274723D03*
X132288559Y-113774723D03*
X132288559Y-128774723D03*
X124788559Y-113524723D03*
X132288559Y-116774723D03*
X132288559Y-126774723D03*
X132288559Y-117774723D03*
X124788559Y-128524723D03*
X124788559Y-119524723D03*
X132288559Y-114274723D03*
X132288559Y-120274723D03*
X132288559Y-117274723D03*
X124788559Y-127024723D03*
X132288559Y-127274723D03*
D41*
X127038559Y-132024723D03*
%TD*%
D42*
%TO.C,J9*%
X78800000Y-142975000D03*
X76800000Y-142975000D03*
X78800000Y-140975000D03*
X76800000Y-140975000D03*
X78800000Y-138975000D03*
X76800000Y-138975000D03*
X78800000Y-136975000D03*
X76800000Y-136975000D03*
X78800000Y-134975000D03*
X76800000Y-134975000D03*
X78800000Y-132975000D03*
X76800000Y-132975000D03*
X78800000Y-130975000D03*
X76800000Y-130975000D03*
%TD*%
%TO.C,R77*%
G36*
G01*
X115510000Y-140927500D02*
X115510000Y-141272500D01*
G75*
G02*
X115362500Y-141420000I-147500J0D01*
G01*
X115067500Y-141420000D01*
G75*
G02*
X114920000Y-141272500I0J147500D01*
G01*
X114920000Y-140927500D01*
G75*
G02*
X115067500Y-140780000I147500J0D01*
G01*
X115362500Y-140780000D01*
G75*
G02*
X115510000Y-140927500I0J-147500D01*
G01*
G37*
G36*
G01*
X116480000Y-140927500D02*
X116480000Y-141272500D01*
G75*
G02*
X116332500Y-141420000I-147500J0D01*
G01*
X116037500Y-141420000D01*
G75*
G02*
X115890000Y-141272500I0J147500D01*
G01*
X115890000Y-140927500D01*
G75*
G02*
X116037500Y-140780000I147500J0D01*
G01*
X116332500Y-140780000D01*
G75*
G02*
X116480000Y-140927500I0J-147500D01*
G01*
G37*
%TD*%
%TO.C,R76*%
G36*
G01*
X115510000Y-139227500D02*
X115510000Y-139572500D01*
G75*
G02*
X115362500Y-139720000I-147500J0D01*
G01*
X115067500Y-139720000D01*
G75*
G02*
X114920000Y-139572500I0J147500D01*
G01*
X114920000Y-139227500D01*
G75*
G02*
X115067500Y-139080000I147500J0D01*
G01*
X115362500Y-139080000D01*
G75*
G02*
X115510000Y-139227500I0J-147500D01*
G01*
G37*
G36*
G01*
X116480000Y-139227500D02*
X116480000Y-139572500D01*
G75*
G02*
X116332500Y-139720000I-147500J0D01*
G01*
X116037500Y-139720000D01*
G75*
G02*
X115890000Y-139572500I0J147500D01*
G01*
X115890000Y-139227500D01*
G75*
G02*
X116037500Y-139080000I147500J0D01*
G01*
X116332500Y-139080000D01*
G75*
G02*
X116480000Y-139227500I0J-147500D01*
G01*
G37*
%TD*%
%TO.C,R71*%
G36*
G01*
X115495000Y-140077500D02*
X115495000Y-140422500D01*
G75*
G02*
X115347500Y-140570000I-147500J0D01*
G01*
X115052500Y-140570000D01*
G75*
G02*
X114905000Y-140422500I0J147500D01*
G01*
X114905000Y-140077500D01*
G75*
G02*
X115052500Y-139930000I147500J0D01*
G01*
X115347500Y-139930000D01*
G75*
G02*
X115495000Y-140077500I0J-147500D01*
G01*
G37*
G36*
G01*
X116465000Y-140077500D02*
X116465000Y-140422500D01*
G75*
G02*
X116317500Y-140570000I-147500J0D01*
G01*
X116022500Y-140570000D01*
G75*
G02*
X115875000Y-140422500I0J147500D01*
G01*
X115875000Y-140077500D01*
G75*
G02*
X116022500Y-139930000I147500J0D01*
G01*
X116317500Y-139930000D01*
G75*
G02*
X116465000Y-140077500I0J-147500D01*
G01*
G37*
%TD*%
%TO.C,R74*%
G36*
G01*
X115510000Y-142627500D02*
X115510000Y-142972500D01*
G75*
G02*
X115362500Y-143120000I-147500J0D01*
G01*
X115067500Y-143120000D01*
G75*
G02*
X114920000Y-142972500I0J147500D01*
G01*
X114920000Y-142627500D01*
G75*
G02*
X115067500Y-142480000I147500J0D01*
G01*
X115362500Y-142480000D01*
G75*
G02*
X115510000Y-142627500I0J-147500D01*
G01*
G37*
G36*
G01*
X116480000Y-142627500D02*
X116480000Y-142972500D01*
G75*
G02*
X116332500Y-143120000I-147500J0D01*
G01*
X116037500Y-143120000D01*
G75*
G02*
X115890000Y-142972500I0J147500D01*
G01*
X115890000Y-142627500D01*
G75*
G02*
X116037500Y-142480000I147500J0D01*
G01*
X116332500Y-142480000D01*
G75*
G02*
X116480000Y-142627500I0J-147500D01*
G01*
G37*
%TD*%
%TO.C,R72*%
G36*
G01*
X115510000Y-141777500D02*
X115510000Y-142122500D01*
G75*
G02*
X115362500Y-142270000I-147500J0D01*
G01*
X115067500Y-142270000D01*
G75*
G02*
X114920000Y-142122500I0J147500D01*
G01*
X114920000Y-141777500D01*
G75*
G02*
X115067500Y-141630000I147500J0D01*
G01*
X115362500Y-141630000D01*
G75*
G02*
X115510000Y-141777500I0J-147500D01*
G01*
G37*
G36*
G01*
X116480000Y-141777500D02*
X116480000Y-142122500D01*
G75*
G02*
X116332500Y-142270000I-147500J0D01*
G01*
X116037500Y-142270000D01*
G75*
G02*
X115890000Y-142122500I0J147500D01*
G01*
X115890000Y-141777500D01*
G75*
G02*
X116037500Y-141630000I147500J0D01*
G01*
X116332500Y-141630000D01*
G75*
G02*
X116480000Y-141777500I0J-147500D01*
G01*
G37*
%TD*%
D36*
%TO.C,J_SOM240_2*%
X158177000Y-137755500D03*
X159447000Y-97485500D03*
%TD*%
%TO.C,C208*%
G36*
G01*
X90140000Y-138372500D02*
X90140000Y-138027500D01*
G75*
G02*
X90287500Y-137880000I147500J0D01*
G01*
X90582500Y-137880000D01*
G75*
G02*
X90730000Y-138027500I0J-147500D01*
G01*
X90730000Y-138372500D01*
G75*
G02*
X90582500Y-138520000I-147500J0D01*
G01*
X90287500Y-138520000D01*
G75*
G02*
X90140000Y-138372500I0J147500D01*
G01*
G37*
G36*
G01*
X89170000Y-138372500D02*
X89170000Y-138027500D01*
G75*
G02*
X89317500Y-137880000I147500J0D01*
G01*
X89612500Y-137880000D01*
G75*
G02*
X89760000Y-138027500I0J-147500D01*
G01*
X89760000Y-138372500D01*
G75*
G02*
X89612500Y-138520000I-147500J0D01*
G01*
X89317500Y-138520000D01*
G75*
G02*
X89170000Y-138372500I0J147500D01*
G01*
G37*
%TD*%
%TO.C,C209*%
G36*
G01*
X90140000Y-137522500D02*
X90140000Y-137177500D01*
G75*
G02*
X90287500Y-137030000I147500J0D01*
G01*
X90582500Y-137030000D01*
G75*
G02*
X90730000Y-137177500I0J-147500D01*
G01*
X90730000Y-137522500D01*
G75*
G02*
X90582500Y-137670000I-147500J0D01*
G01*
X90287500Y-137670000D01*
G75*
G02*
X90140000Y-137522500I0J147500D01*
G01*
G37*
G36*
G01*
X89170000Y-137522500D02*
X89170000Y-137177500D01*
G75*
G02*
X89317500Y-137030000I147500J0D01*
G01*
X89612500Y-137030000D01*
G75*
G02*
X89760000Y-137177500I0J-147500D01*
G01*
X89760000Y-137522500D01*
G75*
G02*
X89612500Y-137670000I-147500J0D01*
G01*
X89317500Y-137670000D01*
G75*
G02*
X89170000Y-137522500I0J147500D01*
G01*
G37*
%TD*%
%TO.C,C210*%
G36*
G01*
X92640000Y-129847500D02*
X92640000Y-129502500D01*
G75*
G02*
X92787500Y-129355000I147500J0D01*
G01*
X93082500Y-129355000D01*
G75*
G02*
X93230000Y-129502500I0J-147500D01*
G01*
X93230000Y-129847500D01*
G75*
G02*
X93082500Y-129995000I-147500J0D01*
G01*
X92787500Y-129995000D01*
G75*
G02*
X92640000Y-129847500I0J147500D01*
G01*
G37*
G36*
G01*
X91670000Y-129847500D02*
X91670000Y-129502500D01*
G75*
G02*
X91817500Y-129355000I147500J0D01*
G01*
X92112500Y-129355000D01*
G75*
G02*
X92260000Y-129502500I0J-147500D01*
G01*
X92260000Y-129847500D01*
G75*
G02*
X92112500Y-129995000I-147500J0D01*
G01*
X91817500Y-129995000D01*
G75*
G02*
X91670000Y-129847500I0J147500D01*
G01*
G37*
%TD*%
%TO.C,C211*%
G36*
G01*
X90485000Y-127602500D02*
X90485000Y-127947500D01*
G75*
G02*
X90337500Y-128095000I-147500J0D01*
G01*
X90042500Y-128095000D01*
G75*
G02*
X89895000Y-127947500I0J147500D01*
G01*
X89895000Y-127602500D01*
G75*
G02*
X90042500Y-127455000I147500J0D01*
G01*
X90337500Y-127455000D01*
G75*
G02*
X90485000Y-127602500I0J-147500D01*
G01*
G37*
G36*
G01*
X91455000Y-127602500D02*
X91455000Y-127947500D01*
G75*
G02*
X91307500Y-128095000I-147500J0D01*
G01*
X91012500Y-128095000D01*
G75*
G02*
X90865000Y-127947500I0J147500D01*
G01*
X90865000Y-127602500D01*
G75*
G02*
X91012500Y-127455000I147500J0D01*
G01*
X91307500Y-127455000D01*
G75*
G02*
X91455000Y-127602500I0J-147500D01*
G01*
G37*
%TD*%
D43*
%TO.C,J10*%
X151019000Y-54594000D03*
X142379000Y-54594000D03*
D44*
X151019000Y-58774000D03*
X142379000Y-58774000D03*
D45*
X143809000Y-58274000D03*
X149589000Y-58274000D03*
%TD*%
D43*
%TO.C,J8*%
X140030000Y-149080000D03*
X148670000Y-149080000D03*
D44*
X140030000Y-144900000D03*
X148670000Y-144900000D03*
D45*
X147240000Y-145400000D03*
X141460000Y-145400000D03*
%TD*%
%TO.C,C92*%
G36*
G01*
X147094731Y-85917029D02*
X147439731Y-85917029D01*
G75*
G02*
X147587231Y-86064529I0J-147500D01*
G01*
X147587231Y-86359529D01*
G75*
G02*
X147439731Y-86507029I-147500J0D01*
G01*
X147094731Y-86507029D01*
G75*
G02*
X146947231Y-86359529I0J147500D01*
G01*
X146947231Y-86064529D01*
G75*
G02*
X147094731Y-85917029I147500J0D01*
G01*
G37*
G36*
G01*
X147094731Y-84947029D02*
X147439731Y-84947029D01*
G75*
G02*
X147587231Y-85094529I0J-147500D01*
G01*
X147587231Y-85389529D01*
G75*
G02*
X147439731Y-85537029I-147500J0D01*
G01*
X147094731Y-85537029D01*
G75*
G02*
X146947231Y-85389529I0J147500D01*
G01*
X146947231Y-85094529D01*
G75*
G02*
X147094731Y-84947029I147500J0D01*
G01*
G37*
%TD*%
D21*
%TO.C,C80*%
X154600000Y-85400000D03*
X156000000Y-85400000D03*
%TD*%
%TO.C,C190*%
G36*
G01*
X116746942Y-86897362D02*
X116746942Y-86552362D01*
G75*
G02*
X116894442Y-86404862I147500J0D01*
G01*
X117189442Y-86404862D01*
G75*
G02*
X117336942Y-86552362I0J-147500D01*
G01*
X117336942Y-86897362D01*
G75*
G02*
X117189442Y-87044862I-147500J0D01*
G01*
X116894442Y-87044862D01*
G75*
G02*
X116746942Y-86897362I0J147500D01*
G01*
G37*
G36*
G01*
X115776942Y-86897362D02*
X115776942Y-86552362D01*
G75*
G02*
X115924442Y-86404862I147500J0D01*
G01*
X116219442Y-86404862D01*
G75*
G02*
X116366942Y-86552362I0J-147500D01*
G01*
X116366942Y-86897362D01*
G75*
G02*
X116219442Y-87044862I-147500J0D01*
G01*
X115924442Y-87044862D01*
G75*
G02*
X115776942Y-86897362I0J147500D01*
G01*
G37*
%TD*%
%TO.C,C193*%
G36*
G01*
X118922500Y-90160000D02*
X118577500Y-90160000D01*
G75*
G02*
X118430000Y-90012500I0J147500D01*
G01*
X118430000Y-89717500D01*
G75*
G02*
X118577500Y-89570000I147500J0D01*
G01*
X118922500Y-89570000D01*
G75*
G02*
X119070000Y-89717500I0J-147500D01*
G01*
X119070000Y-90012500D01*
G75*
G02*
X118922500Y-90160000I-147500J0D01*
G01*
G37*
G36*
G01*
X118922500Y-91130000D02*
X118577500Y-91130000D01*
G75*
G02*
X118430000Y-90982500I0J147500D01*
G01*
X118430000Y-90687500D01*
G75*
G02*
X118577500Y-90540000I147500J0D01*
G01*
X118922500Y-90540000D01*
G75*
G02*
X119070000Y-90687500I0J-147500D01*
G01*
X119070000Y-90982500D01*
G75*
G02*
X118922500Y-91130000I-147500J0D01*
G01*
G37*
%TD*%
%TO.C,C196*%
G36*
G01*
X121872500Y-89810000D02*
X121527500Y-89810000D01*
G75*
G02*
X121380000Y-89662500I0J147500D01*
G01*
X121380000Y-89367500D01*
G75*
G02*
X121527500Y-89220000I147500J0D01*
G01*
X121872500Y-89220000D01*
G75*
G02*
X122020000Y-89367500I0J-147500D01*
G01*
X122020000Y-89662500D01*
G75*
G02*
X121872500Y-89810000I-147500J0D01*
G01*
G37*
G36*
G01*
X121872500Y-90780000D02*
X121527500Y-90780000D01*
G75*
G02*
X121380000Y-90632500I0J147500D01*
G01*
X121380000Y-90337500D01*
G75*
G02*
X121527500Y-90190000I147500J0D01*
G01*
X121872500Y-90190000D01*
G75*
G02*
X122020000Y-90337500I0J-147500D01*
G01*
X122020000Y-90632500D01*
G75*
G02*
X121872500Y-90780000I-147500J0D01*
G01*
G37*
%TD*%
%TO.C,C199*%
G36*
G01*
X126572500Y-89810000D02*
X126227500Y-89810000D01*
G75*
G02*
X126080000Y-89662500I0J147500D01*
G01*
X126080000Y-89367500D01*
G75*
G02*
X126227500Y-89220000I147500J0D01*
G01*
X126572500Y-89220000D01*
G75*
G02*
X126720000Y-89367500I0J-147500D01*
G01*
X126720000Y-89662500D01*
G75*
G02*
X126572500Y-89810000I-147500J0D01*
G01*
G37*
G36*
G01*
X126572500Y-90780000D02*
X126227500Y-90780000D01*
G75*
G02*
X126080000Y-90632500I0J147500D01*
G01*
X126080000Y-90337500D01*
G75*
G02*
X126227500Y-90190000I147500J0D01*
G01*
X126572500Y-90190000D01*
G75*
G02*
X126720000Y-90337500I0J-147500D01*
G01*
X126720000Y-90632500D01*
G75*
G02*
X126572500Y-90780000I-147500J0D01*
G01*
G37*
%TD*%
%TO.C,C212*%
G36*
G01*
X124272500Y-89810000D02*
X123927500Y-89810000D01*
G75*
G02*
X123780000Y-89662500I0J147500D01*
G01*
X123780000Y-89367500D01*
G75*
G02*
X123927500Y-89220000I147500J0D01*
G01*
X124272500Y-89220000D01*
G75*
G02*
X124420000Y-89367500I0J-147500D01*
G01*
X124420000Y-89662500D01*
G75*
G02*
X124272500Y-89810000I-147500J0D01*
G01*
G37*
G36*
G01*
X124272500Y-90780000D02*
X123927500Y-90780000D01*
G75*
G02*
X123780000Y-90632500I0J147500D01*
G01*
X123780000Y-90337500D01*
G75*
G02*
X123927500Y-90190000I147500J0D01*
G01*
X124272500Y-90190000D01*
G75*
G02*
X124420000Y-90337500I0J-147500D01*
G01*
X124420000Y-90632500D01*
G75*
G02*
X124272500Y-90780000I-147500J0D01*
G01*
G37*
%TD*%
%TO.C,R25*%
G36*
G01*
X118072500Y-92510000D02*
X117727500Y-92510000D01*
G75*
G02*
X117580000Y-92362500I0J147500D01*
G01*
X117580000Y-92067500D01*
G75*
G02*
X117727500Y-91920000I147500J0D01*
G01*
X118072500Y-91920000D01*
G75*
G02*
X118220000Y-92067500I0J-147500D01*
G01*
X118220000Y-92362500D01*
G75*
G02*
X118072500Y-92510000I-147500J0D01*
G01*
G37*
G36*
G01*
X118072500Y-93480000D02*
X117727500Y-93480000D01*
G75*
G02*
X117580000Y-93332500I0J147500D01*
G01*
X117580000Y-93037500D01*
G75*
G02*
X117727500Y-92890000I147500J0D01*
G01*
X118072500Y-92890000D01*
G75*
G02*
X118220000Y-93037500I0J-147500D01*
G01*
X118220000Y-93332500D01*
G75*
G02*
X118072500Y-93480000I-147500J0D01*
G01*
G37*
%TD*%
%TO.C,R26*%
G36*
G01*
X118627500Y-92890000D02*
X118972500Y-92890000D01*
G75*
G02*
X119120000Y-93037500I0J-147500D01*
G01*
X119120000Y-93332500D01*
G75*
G02*
X118972500Y-93480000I-147500J0D01*
G01*
X118627500Y-93480000D01*
G75*
G02*
X118480000Y-93332500I0J147500D01*
G01*
X118480000Y-93037500D01*
G75*
G02*
X118627500Y-92890000I147500J0D01*
G01*
G37*
G36*
G01*
X118627500Y-91920000D02*
X118972500Y-91920000D01*
G75*
G02*
X119120000Y-92067500I0J-147500D01*
G01*
X119120000Y-92362500D01*
G75*
G02*
X118972500Y-92510000I-147500J0D01*
G01*
X118627500Y-92510000D01*
G75*
G02*
X118480000Y-92362500I0J147500D01*
G01*
X118480000Y-92067500D01*
G75*
G02*
X118627500Y-91920000I147500J0D01*
G01*
G37*
%TD*%
%TO.C,R28*%
G36*
G01*
X116366942Y-87402361D02*
X116366942Y-87747361D01*
G75*
G02*
X116219442Y-87894861I-147500J0D01*
G01*
X115924442Y-87894861D01*
G75*
G02*
X115776942Y-87747361I0J147500D01*
G01*
X115776942Y-87402361D01*
G75*
G02*
X115924442Y-87254861I147500J0D01*
G01*
X116219442Y-87254861D01*
G75*
G02*
X116366942Y-87402361I0J-147500D01*
G01*
G37*
G36*
G01*
X117336942Y-87402361D02*
X117336942Y-87747361D01*
G75*
G02*
X117189442Y-87894861I-147500J0D01*
G01*
X116894442Y-87894861D01*
G75*
G02*
X116746942Y-87747361I0J147500D01*
G01*
X116746942Y-87402361D01*
G75*
G02*
X116894442Y-87254861I147500J0D01*
G01*
X117189442Y-87254861D01*
G75*
G02*
X117336942Y-87402361I0J-147500D01*
G01*
G37*
%TD*%
%TO.C,R63*%
G36*
G01*
X116366942Y-88302360D02*
X116366942Y-88647360D01*
G75*
G02*
X116219442Y-88794860I-147500J0D01*
G01*
X115924442Y-88794860D01*
G75*
G02*
X115776942Y-88647360I0J147500D01*
G01*
X115776942Y-88302360D01*
G75*
G02*
X115924442Y-88154860I147500J0D01*
G01*
X116219442Y-88154860D01*
G75*
G02*
X116366942Y-88302360I0J-147500D01*
G01*
G37*
G36*
G01*
X117336942Y-88302360D02*
X117336942Y-88647360D01*
G75*
G02*
X117189442Y-88794860I-147500J0D01*
G01*
X116894442Y-88794860D01*
G75*
G02*
X116746942Y-88647360I0J147500D01*
G01*
X116746942Y-88302360D01*
G75*
G02*
X116894442Y-88154860I147500J0D01*
G01*
X117189442Y-88154860D01*
G75*
G02*
X117336942Y-88302360I0J-147500D01*
G01*
G37*
%TD*%
%TO.C,R94*%
G36*
G01*
X116366942Y-89202360D02*
X116366942Y-89547360D01*
G75*
G02*
X116219442Y-89694860I-147500J0D01*
G01*
X115924442Y-89694860D01*
G75*
G02*
X115776942Y-89547360I0J147500D01*
G01*
X115776942Y-89202360D01*
G75*
G02*
X115924442Y-89054860I147500J0D01*
G01*
X116219442Y-89054860D01*
G75*
G02*
X116366942Y-89202360I0J-147500D01*
G01*
G37*
G36*
G01*
X117336942Y-89202360D02*
X117336942Y-89547360D01*
G75*
G02*
X117189442Y-89694860I-147500J0D01*
G01*
X116894442Y-89694860D01*
G75*
G02*
X116746942Y-89547360I0J147500D01*
G01*
X116746942Y-89202360D01*
G75*
G02*
X116894442Y-89054860I147500J0D01*
G01*
X117189442Y-89054860D01*
G75*
G02*
X117336942Y-89202360I0J-147500D01*
G01*
G37*
%TD*%
%TO.C,R98*%
G36*
G01*
X116416942Y-84852362D02*
X116416942Y-85197362D01*
G75*
G02*
X116269442Y-85344862I-147500J0D01*
G01*
X115974442Y-85344862D01*
G75*
G02*
X115826942Y-85197362I0J147500D01*
G01*
X115826942Y-84852362D01*
G75*
G02*
X115974442Y-84704862I147500J0D01*
G01*
X116269442Y-84704862D01*
G75*
G02*
X116416942Y-84852362I0J-147500D01*
G01*
G37*
G36*
G01*
X117386942Y-84852362D02*
X117386942Y-85197362D01*
G75*
G02*
X117239442Y-85344862I-147500J0D01*
G01*
X116944442Y-85344862D01*
G75*
G02*
X116796942Y-85197362I0J147500D01*
G01*
X116796942Y-84852362D01*
G75*
G02*
X116944442Y-84704862I147500J0D01*
G01*
X117239442Y-84704862D01*
G75*
G02*
X117386942Y-84852362I0J-147500D01*
G01*
G37*
%TD*%
%TO.C,R126*%
G36*
G01*
X116416943Y-85702361D02*
X116416943Y-86047361D01*
G75*
G02*
X116269443Y-86194861I-147500J0D01*
G01*
X115974443Y-86194861D01*
G75*
G02*
X115826943Y-86047361I0J147500D01*
G01*
X115826943Y-85702361D01*
G75*
G02*
X115974443Y-85554861I147500J0D01*
G01*
X116269443Y-85554861D01*
G75*
G02*
X116416943Y-85702361I0J-147500D01*
G01*
G37*
G36*
G01*
X117386943Y-85702361D02*
X117386943Y-86047361D01*
G75*
G02*
X117239443Y-86194861I-147500J0D01*
G01*
X116944443Y-86194861D01*
G75*
G02*
X116796943Y-86047361I0J147500D01*
G01*
X116796943Y-85702361D01*
G75*
G02*
X116944443Y-85554861I147500J0D01*
G01*
X117239443Y-85554861D01*
G75*
G02*
X117386943Y-85702361I0J-147500D01*
G01*
G37*
%TD*%
%TO.C,R131*%
G36*
G01*
X127856942Y-81497360D02*
X127856942Y-81152360D01*
G75*
G02*
X128004442Y-81004860I147500J0D01*
G01*
X128299442Y-81004860D01*
G75*
G02*
X128446942Y-81152360I0J-147500D01*
G01*
X128446942Y-81497360D01*
G75*
G02*
X128299442Y-81644860I-147500J0D01*
G01*
X128004442Y-81644860D01*
G75*
G02*
X127856942Y-81497360I0J147500D01*
G01*
G37*
G36*
G01*
X126886942Y-81497360D02*
X126886942Y-81152360D01*
G75*
G02*
X127034442Y-81004860I147500J0D01*
G01*
X127329442Y-81004860D01*
G75*
G02*
X127476942Y-81152360I0J-147500D01*
G01*
X127476942Y-81497360D01*
G75*
G02*
X127329442Y-81644860I-147500J0D01*
G01*
X127034442Y-81644860D01*
G75*
G02*
X126886942Y-81497360I0J147500D01*
G01*
G37*
%TD*%
%TO.C,R134*%
G36*
G01*
X119439440Y-78774860D02*
X119094440Y-78774860D01*
G75*
G02*
X118946940Y-78627360I0J147500D01*
G01*
X118946940Y-78332360D01*
G75*
G02*
X119094440Y-78184860I147500J0D01*
G01*
X119439440Y-78184860D01*
G75*
G02*
X119586940Y-78332360I0J-147500D01*
G01*
X119586940Y-78627360D01*
G75*
G02*
X119439440Y-78774860I-147500J0D01*
G01*
G37*
G36*
G01*
X119439440Y-79744860D02*
X119094440Y-79744860D01*
G75*
G02*
X118946940Y-79597360I0J147500D01*
G01*
X118946940Y-79302360D01*
G75*
G02*
X119094440Y-79154860I147500J0D01*
G01*
X119439440Y-79154860D01*
G75*
G02*
X119586940Y-79302360I0J-147500D01*
G01*
X119586940Y-79597360D01*
G75*
G02*
X119439440Y-79744860I-147500J0D01*
G01*
G37*
%TD*%
%TO.C,R136*%
G36*
G01*
X118579442Y-78734859D02*
X118234442Y-78734859D01*
G75*
G02*
X118086942Y-78587359I0J147500D01*
G01*
X118086942Y-78292359D01*
G75*
G02*
X118234442Y-78144859I147500J0D01*
G01*
X118579442Y-78144859D01*
G75*
G02*
X118726942Y-78292359I0J-147500D01*
G01*
X118726942Y-78587359D01*
G75*
G02*
X118579442Y-78734859I-147500J0D01*
G01*
G37*
G36*
G01*
X118579442Y-79704859D02*
X118234442Y-79704859D01*
G75*
G02*
X118086942Y-79557359I0J147500D01*
G01*
X118086942Y-79262359D01*
G75*
G02*
X118234442Y-79114859I147500J0D01*
G01*
X118579442Y-79114859D01*
G75*
G02*
X118726942Y-79262359I0J-147500D01*
G01*
X118726942Y-79557359D01*
G75*
G02*
X118579442Y-79704859I-147500J0D01*
G01*
G37*
%TD*%
%TO.C,R138*%
G36*
G01*
X117739442Y-78734861D02*
X117394442Y-78734861D01*
G75*
G02*
X117246942Y-78587361I0J147500D01*
G01*
X117246942Y-78292361D01*
G75*
G02*
X117394442Y-78144861I147500J0D01*
G01*
X117739442Y-78144861D01*
G75*
G02*
X117886942Y-78292361I0J-147500D01*
G01*
X117886942Y-78587361D01*
G75*
G02*
X117739442Y-78734861I-147500J0D01*
G01*
G37*
G36*
G01*
X117739442Y-79704861D02*
X117394442Y-79704861D01*
G75*
G02*
X117246942Y-79557361I0J147500D01*
G01*
X117246942Y-79262361D01*
G75*
G02*
X117394442Y-79114861I147500J0D01*
G01*
X117739442Y-79114861D01*
G75*
G02*
X117886942Y-79262361I0J-147500D01*
G01*
X117886942Y-79557361D01*
G75*
G02*
X117739442Y-79704861I-147500J0D01*
G01*
G37*
%TD*%
%TO.C,R140*%
G36*
G01*
X116879442Y-78734861D02*
X116534442Y-78734861D01*
G75*
G02*
X116386942Y-78587361I0J147500D01*
G01*
X116386942Y-78292361D01*
G75*
G02*
X116534442Y-78144861I147500J0D01*
G01*
X116879442Y-78144861D01*
G75*
G02*
X117026942Y-78292361I0J-147500D01*
G01*
X117026942Y-78587361D01*
G75*
G02*
X116879442Y-78734861I-147500J0D01*
G01*
G37*
G36*
G01*
X116879442Y-79704861D02*
X116534442Y-79704861D01*
G75*
G02*
X116386942Y-79557361I0J147500D01*
G01*
X116386942Y-79262361D01*
G75*
G02*
X116534442Y-79114861I147500J0D01*
G01*
X116879442Y-79114861D01*
G75*
G02*
X117026942Y-79262361I0J-147500D01*
G01*
X117026942Y-79557361D01*
G75*
G02*
X116879442Y-79704861I-147500J0D01*
G01*
G37*
%TD*%
%TO.C,R141*%
G36*
G01*
X116351942Y-90052361D02*
X116351942Y-90397361D01*
G75*
G02*
X116204442Y-90544861I-147500J0D01*
G01*
X115909442Y-90544861D01*
G75*
G02*
X115761942Y-90397361I0J147500D01*
G01*
X115761942Y-90052361D01*
G75*
G02*
X115909442Y-89904861I147500J0D01*
G01*
X116204442Y-89904861D01*
G75*
G02*
X116351942Y-90052361I0J-147500D01*
G01*
G37*
G36*
G01*
X117321942Y-90052361D02*
X117321942Y-90397361D01*
G75*
G02*
X117174442Y-90544861I-147500J0D01*
G01*
X116879442Y-90544861D01*
G75*
G02*
X116731942Y-90397361I0J147500D01*
G01*
X116731942Y-90052361D01*
G75*
G02*
X116879442Y-89904861I147500J0D01*
G01*
X117174442Y-89904861D01*
G75*
G02*
X117321942Y-90052361I0J-147500D01*
G01*
G37*
%TD*%
%TO.C,R143*%
G36*
G01*
X127856943Y-89097360D02*
X127856943Y-88752360D01*
G75*
G02*
X128004443Y-88604860I147500J0D01*
G01*
X128299443Y-88604860D01*
G75*
G02*
X128446943Y-88752360I0J-147500D01*
G01*
X128446943Y-89097360D01*
G75*
G02*
X128299443Y-89244860I-147500J0D01*
G01*
X128004443Y-89244860D01*
G75*
G02*
X127856943Y-89097360I0J147500D01*
G01*
G37*
G36*
G01*
X126886943Y-89097360D02*
X126886943Y-88752360D01*
G75*
G02*
X127034443Y-88604860I147500J0D01*
G01*
X127329443Y-88604860D01*
G75*
G02*
X127476943Y-88752360I0J-147500D01*
G01*
X127476943Y-89097360D01*
G75*
G02*
X127329443Y-89244860I-147500J0D01*
G01*
X127034443Y-89244860D01*
G75*
G02*
X126886943Y-89097360I0J147500D01*
G01*
G37*
%TD*%
D46*
%TO.C,Q6*%
X100250000Y-89200000D03*
X98950000Y-88700000D03*
X98950000Y-89700000D03*
%TD*%
D47*
%TO.C,J6*%
X105860000Y-83900000D03*
X108400000Y-83900000D03*
%TD*%
%TO.C,C31*%
G36*
G01*
X132548236Y-63551421D02*
X132203236Y-63551421D01*
G75*
G02*
X132055736Y-63403921I0J147500D01*
G01*
X132055736Y-63108921D01*
G75*
G02*
X132203236Y-62961421I147500J0D01*
G01*
X132548236Y-62961421D01*
G75*
G02*
X132695736Y-63108921I0J-147500D01*
G01*
X132695736Y-63403921D01*
G75*
G02*
X132548236Y-63551421I-147500J0D01*
G01*
G37*
G36*
G01*
X132548236Y-64521421D02*
X132203236Y-64521421D01*
G75*
G02*
X132055736Y-64373921I0J147500D01*
G01*
X132055736Y-64078921D01*
G75*
G02*
X132203236Y-63931421I147500J0D01*
G01*
X132548236Y-63931421D01*
G75*
G02*
X132695736Y-64078921I0J-147500D01*
G01*
X132695736Y-64373921D01*
G75*
G02*
X132548236Y-64521421I-147500J0D01*
G01*
G37*
%TD*%
%TO.C,C70*%
G36*
G01*
X136490000Y-66772500D02*
X136490000Y-66427500D01*
G75*
G02*
X136637500Y-66280000I147500J0D01*
G01*
X136932500Y-66280000D01*
G75*
G02*
X137080000Y-66427500I0J-147500D01*
G01*
X137080000Y-66772500D01*
G75*
G02*
X136932500Y-66920000I-147500J0D01*
G01*
X136637500Y-66920000D01*
G75*
G02*
X136490000Y-66772500I0J147500D01*
G01*
G37*
G36*
G01*
X135520000Y-66772500D02*
X135520000Y-66427500D01*
G75*
G02*
X135667500Y-66280000I147500J0D01*
G01*
X135962500Y-66280000D01*
G75*
G02*
X136110000Y-66427500I0J-147500D01*
G01*
X136110000Y-66772500D01*
G75*
G02*
X135962500Y-66920000I-147500J0D01*
G01*
X135667500Y-66920000D01*
G75*
G02*
X135520000Y-66772500I0J147500D01*
G01*
G37*
%TD*%
%TO.C,C71*%
G36*
G01*
X133448235Y-63536422D02*
X133103235Y-63536422D01*
G75*
G02*
X132955735Y-63388922I0J147500D01*
G01*
X132955735Y-63093922D01*
G75*
G02*
X133103235Y-62946422I147500J0D01*
G01*
X133448235Y-62946422D01*
G75*
G02*
X133595735Y-63093922I0J-147500D01*
G01*
X133595735Y-63388922D01*
G75*
G02*
X133448235Y-63536422I-147500J0D01*
G01*
G37*
G36*
G01*
X133448235Y-64506422D02*
X133103235Y-64506422D01*
G75*
G02*
X132955735Y-64358922I0J147500D01*
G01*
X132955735Y-64063922D01*
G75*
G02*
X133103235Y-63916422I147500J0D01*
G01*
X133448235Y-63916422D01*
G75*
G02*
X133595735Y-64063922I0J-147500D01*
G01*
X133595735Y-64358922D01*
G75*
G02*
X133448235Y-64506422I-147500J0D01*
G01*
G37*
%TD*%
%TO.C,C77*%
G36*
G01*
X136490000Y-65872500D02*
X136490000Y-65527500D01*
G75*
G02*
X136637500Y-65380000I147500J0D01*
G01*
X136932500Y-65380000D01*
G75*
G02*
X137080000Y-65527500I0J-147500D01*
G01*
X137080000Y-65872500D01*
G75*
G02*
X136932500Y-66020000I-147500J0D01*
G01*
X136637500Y-66020000D01*
G75*
G02*
X136490000Y-65872500I0J147500D01*
G01*
G37*
G36*
G01*
X135520000Y-65872500D02*
X135520000Y-65527500D01*
G75*
G02*
X135667500Y-65380000I147500J0D01*
G01*
X135962500Y-65380000D01*
G75*
G02*
X136110000Y-65527500I0J-147500D01*
G01*
X136110000Y-65872500D01*
G75*
G02*
X135962500Y-66020000I-147500J0D01*
G01*
X135667500Y-66020000D01*
G75*
G02*
X135520000Y-65872500I0J147500D01*
G01*
G37*
%TD*%
%TO.C,C78*%
G36*
G01*
X131648236Y-63551421D02*
X131303236Y-63551421D01*
G75*
G02*
X131155736Y-63403921I0J147500D01*
G01*
X131155736Y-63108921D01*
G75*
G02*
X131303236Y-62961421I147500J0D01*
G01*
X131648236Y-62961421D01*
G75*
G02*
X131795736Y-63108921I0J-147500D01*
G01*
X131795736Y-63403921D01*
G75*
G02*
X131648236Y-63551421I-147500J0D01*
G01*
G37*
G36*
G01*
X131648236Y-64521421D02*
X131303236Y-64521421D01*
G75*
G02*
X131155736Y-64373921I0J147500D01*
G01*
X131155736Y-64078921D01*
G75*
G02*
X131303236Y-63931421I147500J0D01*
G01*
X131648236Y-63931421D01*
G75*
G02*
X131795736Y-64078921I0J-147500D01*
G01*
X131795736Y-64373921D01*
G75*
G02*
X131648236Y-64521421I-147500J0D01*
G01*
G37*
%TD*%
%TO.C,C213*%
G36*
G01*
X136490000Y-67672500D02*
X136490000Y-67327500D01*
G75*
G02*
X136637500Y-67180000I147500J0D01*
G01*
X136932500Y-67180000D01*
G75*
G02*
X137080000Y-67327500I0J-147500D01*
G01*
X137080000Y-67672500D01*
G75*
G02*
X136932500Y-67820000I-147500J0D01*
G01*
X136637500Y-67820000D01*
G75*
G02*
X136490000Y-67672500I0J147500D01*
G01*
G37*
G36*
G01*
X135520000Y-67672500D02*
X135520000Y-67327500D01*
G75*
G02*
X135667500Y-67180000I147500J0D01*
G01*
X135962500Y-67180000D01*
G75*
G02*
X136110000Y-67327500I0J-147500D01*
G01*
X136110000Y-67672500D01*
G75*
G02*
X135962500Y-67820000I-147500J0D01*
G01*
X135667500Y-67820000D01*
G75*
G02*
X135520000Y-67672500I0J147500D01*
G01*
G37*
%TD*%
%TO.C,C214*%
G36*
G01*
X112222500Y-63710000D02*
X111877500Y-63710000D01*
G75*
G02*
X111730000Y-63562500I0J147500D01*
G01*
X111730000Y-63267500D01*
G75*
G02*
X111877500Y-63120000I147500J0D01*
G01*
X112222500Y-63120000D01*
G75*
G02*
X112370000Y-63267500I0J-147500D01*
G01*
X112370000Y-63562500D01*
G75*
G02*
X112222500Y-63710000I-147500J0D01*
G01*
G37*
G36*
G01*
X112222500Y-64680000D02*
X111877500Y-64680000D01*
G75*
G02*
X111730000Y-64532500I0J147500D01*
G01*
X111730000Y-64237500D01*
G75*
G02*
X111877500Y-64090000I147500J0D01*
G01*
X112222500Y-64090000D01*
G75*
G02*
X112370000Y-64237500I0J-147500D01*
G01*
X112370000Y-64532500D01*
G75*
G02*
X112222500Y-64680000I-147500J0D01*
G01*
G37*
%TD*%
%TO.C,C215*%
G36*
G01*
X117140000Y-65922500D02*
X117140000Y-65577500D01*
G75*
G02*
X117287500Y-65430000I147500J0D01*
G01*
X117582500Y-65430000D01*
G75*
G02*
X117730000Y-65577500I0J-147500D01*
G01*
X117730000Y-65922500D01*
G75*
G02*
X117582500Y-66070000I-147500J0D01*
G01*
X117287500Y-66070000D01*
G75*
G02*
X117140000Y-65922500I0J147500D01*
G01*
G37*
G36*
G01*
X116170000Y-65922500D02*
X116170000Y-65577500D01*
G75*
G02*
X116317500Y-65430000I147500J0D01*
G01*
X116612500Y-65430000D01*
G75*
G02*
X116760000Y-65577500I0J-147500D01*
G01*
X116760000Y-65922500D01*
G75*
G02*
X116612500Y-66070000I-147500J0D01*
G01*
X116317500Y-66070000D01*
G75*
G02*
X116170000Y-65922500I0J147500D01*
G01*
G37*
%TD*%
%TO.C,C216*%
G36*
G01*
X114022499Y-63710000D02*
X113677499Y-63710000D01*
G75*
G02*
X113529999Y-63562500I0J147500D01*
G01*
X113529999Y-63267500D01*
G75*
G02*
X113677499Y-63120000I147500J0D01*
G01*
X114022499Y-63120000D01*
G75*
G02*
X114169999Y-63267500I0J-147500D01*
G01*
X114169999Y-63562500D01*
G75*
G02*
X114022499Y-63710000I-147500J0D01*
G01*
G37*
G36*
G01*
X114022499Y-64680000D02*
X113677499Y-64680000D01*
G75*
G02*
X113529999Y-64532500I0J147500D01*
G01*
X113529999Y-64237500D01*
G75*
G02*
X113677499Y-64090000I147500J0D01*
G01*
X114022499Y-64090000D01*
G75*
G02*
X114169999Y-64237500I0J-147500D01*
G01*
X114169999Y-64532500D01*
G75*
G02*
X114022499Y-64680000I-147500J0D01*
G01*
G37*
%TD*%
%TO.C,C217*%
G36*
G01*
X117140000Y-66772501D02*
X117140000Y-66427501D01*
G75*
G02*
X117287500Y-66280001I147500J0D01*
G01*
X117582500Y-66280001D01*
G75*
G02*
X117730000Y-66427501I0J-147500D01*
G01*
X117730000Y-66772501D01*
G75*
G02*
X117582500Y-66920001I-147500J0D01*
G01*
X117287500Y-66920001D01*
G75*
G02*
X117140000Y-66772501I0J147500D01*
G01*
G37*
G36*
G01*
X116170000Y-66772501D02*
X116170000Y-66427501D01*
G75*
G02*
X116317500Y-66280001I147500J0D01*
G01*
X116612500Y-66280001D01*
G75*
G02*
X116760000Y-66427501I0J-147500D01*
G01*
X116760000Y-66772501D01*
G75*
G02*
X116612500Y-66920001I-147500J0D01*
G01*
X116317500Y-66920001D01*
G75*
G02*
X116170000Y-66772501I0J147500D01*
G01*
G37*
%TD*%
%TO.C,C218*%
G36*
G01*
X113122500Y-63710000D02*
X112777500Y-63710000D01*
G75*
G02*
X112630000Y-63562500I0J147500D01*
G01*
X112630000Y-63267500D01*
G75*
G02*
X112777500Y-63120000I147500J0D01*
G01*
X113122500Y-63120000D01*
G75*
G02*
X113270000Y-63267500I0J-147500D01*
G01*
X113270000Y-63562500D01*
G75*
G02*
X113122500Y-63710000I-147500J0D01*
G01*
G37*
G36*
G01*
X113122500Y-64680000D02*
X112777500Y-64680000D01*
G75*
G02*
X112630000Y-64532500I0J147500D01*
G01*
X112630000Y-64237500D01*
G75*
G02*
X112777500Y-64090000I147500J0D01*
G01*
X113122500Y-64090000D01*
G75*
G02*
X113270000Y-64237500I0J-147500D01*
G01*
X113270000Y-64532500D01*
G75*
G02*
X113122500Y-64680000I-147500J0D01*
G01*
G37*
%TD*%
%TO.C,C219*%
G36*
G01*
X117140000Y-67622500D02*
X117140000Y-67277500D01*
G75*
G02*
X117287500Y-67130000I147500J0D01*
G01*
X117582500Y-67130000D01*
G75*
G02*
X117730000Y-67277500I0J-147500D01*
G01*
X117730000Y-67622500D01*
G75*
G02*
X117582500Y-67770000I-147500J0D01*
G01*
X117287500Y-67770000D01*
G75*
G02*
X117140000Y-67622500I0J147500D01*
G01*
G37*
G36*
G01*
X116170000Y-67622500D02*
X116170000Y-67277500D01*
G75*
G02*
X116317500Y-67130000I147500J0D01*
G01*
X116612500Y-67130000D01*
G75*
G02*
X116760000Y-67277500I0J-147500D01*
G01*
X116760000Y-67622500D01*
G75*
G02*
X116612500Y-67770000I-147500J0D01*
G01*
X116317500Y-67770000D01*
G75*
G02*
X116170000Y-67622500I0J147500D01*
G01*
G37*
%TD*%
D48*
%TO.C,J5*%
X169700000Y-71800000D03*
X168430000Y-69260000D03*
X167160000Y-71800000D03*
X165890000Y-69260000D03*
X164620000Y-71800000D03*
X163350000Y-69260000D03*
X162080000Y-71800000D03*
X160810000Y-69260000D03*
X159540000Y-71800000D03*
X158270000Y-69260000D03*
D49*
X171835000Y-65949999D03*
D50*
X156135000Y-65949999D03*
D51*
X169700000Y-62900000D03*
X158270000Y-62900000D03*
D52*
X170625002Y-58840001D03*
X157344998Y-58840001D03*
D48*
X158270000Y-66730000D03*
X160810000Y-65460000D03*
X169700000Y-66720000D03*
X167160000Y-65460000D03*
D52*
X168085002Y-58840001D03*
X159884998Y-58840001D03*
%TD*%
%TO.C,C150*%
G36*
G01*
X143654687Y-125312174D02*
X143654687Y-125657174D01*
G75*
G02*
X143507187Y-125804674I-147500J0D01*
G01*
X143212187Y-125804674D01*
G75*
G02*
X143064687Y-125657174I0J147500D01*
G01*
X143064687Y-125312174D01*
G75*
G02*
X143212187Y-125164674I147500J0D01*
G01*
X143507187Y-125164674D01*
G75*
G02*
X143654687Y-125312174I0J-147500D01*
G01*
G37*
G36*
G01*
X144624687Y-125312174D02*
X144624687Y-125657174D01*
G75*
G02*
X144477187Y-125804674I-147500J0D01*
G01*
X144182187Y-125804674D01*
G75*
G02*
X144034687Y-125657174I0J147500D01*
G01*
X144034687Y-125312174D01*
G75*
G02*
X144182187Y-125164674I147500J0D01*
G01*
X144477187Y-125164674D01*
G75*
G02*
X144624687Y-125312174I0J-147500D01*
G01*
G37*
%TD*%
%TO.C,C151*%
G36*
G01*
X140481787Y-126352267D02*
X140481787Y-126697267D01*
G75*
G02*
X140334287Y-126844767I-147500J0D01*
G01*
X140039287Y-126844767D01*
G75*
G02*
X139891787Y-126697267I0J147500D01*
G01*
X139891787Y-126352267D01*
G75*
G02*
X140039287Y-126204767I147500J0D01*
G01*
X140334287Y-126204767D01*
G75*
G02*
X140481787Y-126352267I0J-147500D01*
G01*
G37*
G36*
G01*
X141451787Y-126352267D02*
X141451787Y-126697267D01*
G75*
G02*
X141304287Y-126844767I-147500J0D01*
G01*
X141009287Y-126844767D01*
G75*
G02*
X140861787Y-126697267I0J147500D01*
G01*
X140861787Y-126352267D01*
G75*
G02*
X141009287Y-126204767I147500J0D01*
G01*
X141304287Y-126204767D01*
G75*
G02*
X141451787Y-126352267I0J-147500D01*
G01*
G37*
%TD*%
%TO.C,C153*%
G36*
G01*
X140475609Y-125404098D02*
X140475609Y-125749098D01*
G75*
G02*
X140328109Y-125896598I-147500J0D01*
G01*
X140033109Y-125896598D01*
G75*
G02*
X139885609Y-125749098I0J147500D01*
G01*
X139885609Y-125404098D01*
G75*
G02*
X140033109Y-125256598I147500J0D01*
G01*
X140328109Y-125256598D01*
G75*
G02*
X140475609Y-125404098I0J-147500D01*
G01*
G37*
G36*
G01*
X141445609Y-125404098D02*
X141445609Y-125749098D01*
G75*
G02*
X141298109Y-125896598I-147500J0D01*
G01*
X141003109Y-125896598D01*
G75*
G02*
X140855609Y-125749098I0J147500D01*
G01*
X140855609Y-125404098D01*
G75*
G02*
X141003109Y-125256598I147500J0D01*
G01*
X141298109Y-125256598D01*
G75*
G02*
X141445609Y-125404098I0J-147500D01*
G01*
G37*
%TD*%
%TO.C,C152*%
G36*
G01*
X143654687Y-126231413D02*
X143654687Y-126576413D01*
G75*
G02*
X143507187Y-126723913I-147500J0D01*
G01*
X143212187Y-126723913D01*
G75*
G02*
X143064687Y-126576413I0J147500D01*
G01*
X143064687Y-126231413D01*
G75*
G02*
X143212187Y-126083913I147500J0D01*
G01*
X143507187Y-126083913D01*
G75*
G02*
X143654687Y-126231413I0J-147500D01*
G01*
G37*
G36*
G01*
X144624687Y-126231413D02*
X144624687Y-126576413D01*
G75*
G02*
X144477187Y-126723913I-147500J0D01*
G01*
X144182187Y-126723913D01*
G75*
G02*
X144034687Y-126576413I0J147500D01*
G01*
X144034687Y-126231413D01*
G75*
G02*
X144182187Y-126083913I147500J0D01*
G01*
X144477187Y-126083913D01*
G75*
G02*
X144624687Y-126231413I0J-147500D01*
G01*
G37*
%TD*%
%TO.C,C156*%
G36*
G01*
X140644287Y-130216137D02*
X140299287Y-130216137D01*
G75*
G02*
X140151787Y-130068637I0J147500D01*
G01*
X140151787Y-129773637D01*
G75*
G02*
X140299287Y-129626137I147500J0D01*
G01*
X140644287Y-129626137D01*
G75*
G02*
X140791787Y-129773637I0J-147500D01*
G01*
X140791787Y-130068637D01*
G75*
G02*
X140644287Y-130216137I-147500J0D01*
G01*
G37*
G36*
G01*
X140644287Y-131186137D02*
X140299287Y-131186137D01*
G75*
G02*
X140151787Y-131038637I0J147500D01*
G01*
X140151787Y-130743637D01*
G75*
G02*
X140299287Y-130596137I147500J0D01*
G01*
X140644287Y-130596137D01*
G75*
G02*
X140791787Y-130743637I0J-147500D01*
G01*
X140791787Y-131038637D01*
G75*
G02*
X140644287Y-131186137I-147500J0D01*
G01*
G37*
%TD*%
D21*
%TO.C,C220*%
X146550000Y-70650000D03*
X147950000Y-70650000D03*
%TD*%
%TO.C,C221*%
X150200000Y-70650000D03*
X148800000Y-70650000D03*
%TD*%
D20*
%TO.C,C222*%
X145550000Y-77000000D03*
X147650000Y-77000000D03*
%TD*%
%TO.C,C223*%
X151200000Y-77000000D03*
X149100000Y-77000000D03*
%TD*%
%TO.C,R62*%
G36*
G01*
X144927500Y-75590000D02*
X145272500Y-75590000D01*
G75*
G02*
X145420000Y-75737500I0J-147500D01*
G01*
X145420000Y-76032500D01*
G75*
G02*
X145272500Y-76180000I-147500J0D01*
G01*
X144927500Y-76180000D01*
G75*
G02*
X144780000Y-76032500I0J147500D01*
G01*
X144780000Y-75737500D01*
G75*
G02*
X144927500Y-75590000I147500J0D01*
G01*
G37*
G36*
G01*
X144927500Y-74620000D02*
X145272500Y-74620000D01*
G75*
G02*
X145420000Y-74767500I0J-147500D01*
G01*
X145420000Y-75062500D01*
G75*
G02*
X145272500Y-75210000I-147500J0D01*
G01*
X144927500Y-75210000D01*
G75*
G02*
X144780000Y-75062500I0J147500D01*
G01*
X144780000Y-74767500D01*
G75*
G02*
X144927500Y-74620000I147500J0D01*
G01*
G37*
%TD*%
%TO.C,R146*%
G36*
G01*
X145272500Y-73410000D02*
X144927500Y-73410000D01*
G75*
G02*
X144780000Y-73262500I0J147500D01*
G01*
X144780000Y-72967500D01*
G75*
G02*
X144927500Y-72820000I147500J0D01*
G01*
X145272500Y-72820000D01*
G75*
G02*
X145420000Y-72967500I0J-147500D01*
G01*
X145420000Y-73262500D01*
G75*
G02*
X145272500Y-73410000I-147500J0D01*
G01*
G37*
G36*
G01*
X145272500Y-74380000D02*
X144927500Y-74380000D01*
G75*
G02*
X144780000Y-74232500I0J147500D01*
G01*
X144780000Y-73937500D01*
G75*
G02*
X144927500Y-73790000I147500J0D01*
G01*
X145272500Y-73790000D01*
G75*
G02*
X145420000Y-73937500I0J-147500D01*
G01*
X145420000Y-74232500D01*
G75*
G02*
X145272500Y-74380000I-147500J0D01*
G01*
G37*
%TD*%
D19*
%TO.C,L2*%
X139200000Y-82850001D03*
X139200000Y-84250001D03*
%TD*%
%TO.C,L5*%
X135700000Y-93100000D03*
X135700000Y-94500000D03*
%TD*%
D46*
%TO.C,Q13*%
X138050000Y-94400000D03*
X136750000Y-93900000D03*
X136750000Y-94900000D03*
%TD*%
%TO.C,R115*%
G36*
G01*
X139772500Y-90559999D02*
X139427500Y-90559999D01*
G75*
G02*
X139280000Y-90412499I0J147500D01*
G01*
X139280000Y-90117499D01*
G75*
G02*
X139427500Y-89969999I147500J0D01*
G01*
X139772500Y-89969999D01*
G75*
G02*
X139920000Y-90117499I0J-147500D01*
G01*
X139920000Y-90412499D01*
G75*
G02*
X139772500Y-90559999I-147500J0D01*
G01*
G37*
G36*
G01*
X139772500Y-91529999D02*
X139427500Y-91529999D01*
G75*
G02*
X139280000Y-91382499I0J147500D01*
G01*
X139280000Y-91087499D01*
G75*
G02*
X139427500Y-90939999I147500J0D01*
G01*
X139772500Y-90939999D01*
G75*
G02*
X139920000Y-91087499I0J-147500D01*
G01*
X139920000Y-91382499D01*
G75*
G02*
X139772500Y-91529999I-147500J0D01*
G01*
G37*
%TD*%
D19*
%TO.C,C183*%
X134450000Y-93100000D03*
X134450000Y-94500000D03*
%TD*%
D31*
%TO.C,U42*%
X138350000Y-92200000D03*
X135750000Y-92200000D03*
X138350000Y-91250000D03*
X138350000Y-90300000D03*
X135750000Y-91250000D03*
X135750000Y-90300000D03*
%TD*%
%TO.C,R116*%
G36*
G01*
X138910001Y-89177501D02*
X138910001Y-89522501D01*
G75*
G02*
X138762501Y-89670001I-147500J0D01*
G01*
X138467501Y-89670001D01*
G75*
G02*
X138320001Y-89522501I0J147500D01*
G01*
X138320001Y-89177501D01*
G75*
G02*
X138467501Y-89030001I147500J0D01*
G01*
X138762501Y-89030001D01*
G75*
G02*
X138910001Y-89177501I0J-147500D01*
G01*
G37*
G36*
G01*
X139880001Y-89177501D02*
X139880001Y-89522501D01*
G75*
G02*
X139732501Y-89670001I-147500J0D01*
G01*
X139437501Y-89670001D01*
G75*
G02*
X139290001Y-89522501I0J147500D01*
G01*
X139290001Y-89177501D01*
G75*
G02*
X139437501Y-89030001I147500J0D01*
G01*
X139732501Y-89030001D01*
G75*
G02*
X139880001Y-89177501I0J-147500D01*
G01*
G37*
%TD*%
%TO.C,R118*%
G36*
G01*
X139710000Y-92427500D02*
X139710000Y-92772500D01*
G75*
G02*
X139562500Y-92920000I-147500J0D01*
G01*
X139267500Y-92920000D01*
G75*
G02*
X139120000Y-92772500I0J147500D01*
G01*
X139120000Y-92427500D01*
G75*
G02*
X139267500Y-92280000I147500J0D01*
G01*
X139562500Y-92280000D01*
G75*
G02*
X139710000Y-92427500I0J-147500D01*
G01*
G37*
G36*
G01*
X140680000Y-92427500D02*
X140680000Y-92772500D01*
G75*
G02*
X140532500Y-92920000I-147500J0D01*
G01*
X140237500Y-92920000D01*
G75*
G02*
X140090000Y-92772500I0J147500D01*
G01*
X140090000Y-92427500D01*
G75*
G02*
X140237500Y-92280000I147500J0D01*
G01*
X140532500Y-92280000D01*
G75*
G02*
X140680000Y-92427500I0J-147500D01*
G01*
G37*
%TD*%
%TO.C,C178*%
G36*
G01*
X137990000Y-93272501D02*
X137990000Y-92927501D01*
G75*
G02*
X138137500Y-92780001I147500J0D01*
G01*
X138432500Y-92780001D01*
G75*
G02*
X138580000Y-92927501I0J-147500D01*
G01*
X138580000Y-93272501D01*
G75*
G02*
X138432500Y-93420001I-147500J0D01*
G01*
X138137500Y-93420001D01*
G75*
G02*
X137990000Y-93272501I0J147500D01*
G01*
G37*
G36*
G01*
X137020000Y-93272501D02*
X137020000Y-92927501D01*
G75*
G02*
X137167500Y-92780001I147500J0D01*
G01*
X137462500Y-92780001D01*
G75*
G02*
X137610000Y-92927501I0J-147500D01*
G01*
X137610000Y-93272501D01*
G75*
G02*
X137462500Y-93420001I-147500J0D01*
G01*
X137167500Y-93420001D01*
G75*
G02*
X137020000Y-93272501I0J147500D01*
G01*
G37*
%TD*%
D19*
%TO.C,C173*%
X134450001Y-90250002D03*
X134450001Y-91650002D03*
%TD*%
D23*
%TO.C,D19*%
X139300000Y-93550000D03*
X139300000Y-95050000D03*
%TD*%
%TO.C,R147*%
G36*
G01*
X151577500Y-75555000D02*
X151922500Y-75555000D01*
G75*
G02*
X152070000Y-75702500I0J-147500D01*
G01*
X152070000Y-75997500D01*
G75*
G02*
X151922500Y-76145000I-147500J0D01*
G01*
X151577500Y-76145000D01*
G75*
G02*
X151430000Y-75997500I0J147500D01*
G01*
X151430000Y-75702500D01*
G75*
G02*
X151577500Y-75555000I147500J0D01*
G01*
G37*
G36*
G01*
X151577500Y-74585000D02*
X151922500Y-74585000D01*
G75*
G02*
X152070000Y-74732500I0J-147500D01*
G01*
X152070000Y-75027500D01*
G75*
G02*
X151922500Y-75175000I-147500J0D01*
G01*
X151577500Y-75175000D01*
G75*
G02*
X151430000Y-75027500I0J147500D01*
G01*
X151430000Y-74732500D01*
G75*
G02*
X151577500Y-74585000I147500J0D01*
G01*
G37*
%TD*%
D15*
%TO.C,U20*%
X113900000Y-65730000D03*
X111400000Y-65730000D03*
X109400000Y-65730000D03*
X106900000Y-65730000D03*
X106900000Y-68930000D03*
X111400000Y-68930000D03*
X109400000Y-68930000D03*
X113900000Y-68930000D03*
X114400000Y-67230000D03*
X112400000Y-67230000D03*
X110400000Y-67230000D03*
X108400000Y-67230000D03*
X106400000Y-67230000D03*
X106400000Y-70430000D03*
X110400000Y-70430000D03*
X108400000Y-70430000D03*
X112400000Y-70430000D03*
X114400000Y-70430000D03*
D16*
X116970000Y-63730000D03*
X116970000Y-69410000D03*
X103830000Y-69410000D03*
X103730000Y-63730000D03*
%TD*%
M02*
